<?xml version="1.0" encoding="UTF-8" standalone="no"?>
<!-- Created with Inkscape (http://www.inkscape.org/) -->

<svg
   xmlns:dc="http://purl.org/dc/elements/1.1/"
   xmlns:cc="http://creativecommons.org/ns#"
   xmlns:rdf="http://www.w3.org/1999/02/22-rdf-syntax-ns#"
   xmlns:svg="http://www.w3.org/2000/svg"
   xmlns="http://www.w3.org/2000/svg"
   version="1.1"
   width="1142.1125"
   height="504.82501"
   id="svg2"
   xml:space="preserve"><metadata
     id="metadata8"><rdf:RDF><cc:Work
         rdf:about=""><dc:format>image/svg+xml</dc:format><dc:type
           rdf:resource="http://purl.org/dc/dcmitype/StillImage" /><dc:title></dc:title></cc:Work></rdf:RDF></metadata><defs
     id="defs6" /><g
     transform="matrix(1.25,0,0,-1.25,0,504.825)"
     id="g10"><g
       transform="scale(0.1,0.1)"
       id="g12"><path
         d="m 4612.71,2144.74 c 0,-394.35 -319.86,-714.11 -714.26,-714.11 -394.41,0 -714.16,319.76 -714.16,714.11 0,394.45 319.75,714.31 714.16,714.31 394.4,0 714.26,-319.86 714.26,-714.31"
         id="path14"
         style="fill:#f1511b;fill-opacity:1;fill-rule:nonzero;stroke:none" /><path
         d="m 5147.56,3045.25 c 20.06,14.85 39.18,29.43 57.29,43.75 17.99,14.32 41.37,21.48 69.9,21.48 12.84,0 28.43,-14.06 47,-42.12 18.59,-28.11 27.81,-49.01 27.81,-62.85 0,-7.37 -2.58,-24.38 -7.89,-50.86 -5.38,-26.52 -13.85,-62.53 -25.53,-108.07 -24.39,-102.81 -38.13,-167.25 -41.39,-193.26 -3.16,-25.95 -10.11,-66.43 -20.62,-121.61 -4.22,-13.78 -8.49,-31.79 -12.76,-54.06 0,-9.53 1.8,-16.42 5.59,-20.58 3.73,-4.32 8.74,-6.42 15.1,-6.42 211.05,105.97 320.35,161.08 327.81,165.35 8.43,2.16 17.49,5.06 27.06,8.79 9.48,3.69 18.48,7.63 27.01,11.9 l 23.84,30.17 c 61.49,39.21 125.18,81.12 190.94,125.66 41.38,31.79 72.18,63.06 92.29,93.8 20.15,30.69 30.27,61.49 30.27,92.23 0,39.17 -22.79,77.81 -68.48,116.03 -45.55,38.17 -114.05,74.75 -205.23,109.71 -77.48,30.8 -147.96,53.22 -211.61,67.59 -63.65,14.32 -121.46,21.48 -173.41,21.48 -67.91,0 -119.08,-11.9 -153.62,-35.8 -34.47,-23.79 -51.64,-59.12 -51.64,-105.7 0,-36.12 2.65,-63.39 7.95,-81.97 5.26,-18.58 12.69,-26.8 22.32,-24.64 z m 166.99,-766.53 c 0,-21.17 15.11,-49.59 45.38,-85.08 30.21,-35.58 75.54,-79.38 136.03,-131.39 39.27,-32.85 79.81,-65.02 121.77,-96.29 41.85,-31.33 83.43,-62.91 124.81,-94.76 18.11,-14.85 41.38,-34.17 70.06,-58.11 28.69,-23.86 62.07,-51.75 100.2,-83.55 27.68,-21.27 56.54,-42.49 86.79,-63.69 30.17,-21.28 62.86,-42.44 97.88,-63.71 23.26,-18.06 49.25,-37.64 77.9,-58.85 28.64,-21.27 61.49,-44.12 98.66,-68.49 21.21,-12.69 37.64,-35.85 49.31,-69.23 11.7,-33.43 18.59,-76.7 20.7,-129.76 l -14.32,-41.38 -15.89,-7.95 c -10.64,0 -24.65,4.47 -42.22,13.48 -17.44,9.06 -39.5,22.11 -66.02,39.06 -5.25,3.15 -29.43,14.84 -72.39,35 -42.96,20.22 -104.81,48.91 -185.36,85.97 -44.53,19.16 -85.39,40.64 -122.54,64.54 -37.06,23.85 -71.08,49.12 -101.76,75.66 -18.07,15.94 -41.11,33.42 -69.23,52.58 -28.11,19.06 -61.28,39.8 -99.44,62.07 -39.22,22.27 -73.23,43.53 -101.86,63.75 -28.65,20.11 -51.5,37.07 -68.38,50.91 -57.34,46.69 -103.98,82.28 -140.09,106.7 -36,24.38 -60.97,36.64 -74.76,36.64 -10.63,-14.94 -16.44,-30.27 -17.48,-46.21 -12.78,-49.92 -26.26,-112.87 -40.58,-188.73 -14.33,-75.97 -30.02,-164.31 -46.97,-265.28 0,-18 -3.2,-31.58 -9.51,-40.52 -6.39,-9.07 -15.91,-13.59 -28.65,-13.59 -41.38,0 -72.71,10.1 -93.93,30.32 -21.21,20.12 -31.78,50.33 -31.78,90.71 0,54.17 3.42,110.91 10.32,170.41 6.89,59.48 18.32,122.13 34.22,188.04 5.31,28.53 9.27,54.33 11.95,77.12 2.63,22.89 4,43.85 4,62.91 0,48.9 -20.95,90.86 -62.87,125.92 -41.95,34.96 -62.84,59.91 -62.84,74.86 0,23.27 3.41,43.64 10.37,61.17 6.84,17.53 17.16,31.48 31.01,42.16 35,22.27 67.33,43.44 97.01,63.55 7.48,4.32 12.48,11.37 15.15,21.48 2.59,10.05 4.02,24.11 4.02,42.22 0,10.52 0,21.9 0,34.16 0,12.16 0,23.63 0,34.17 3.15,94.39 5.78,192.46 7.88,294.27 0,7.32 0,19.01 0,34.85 0,16.01 -1.06,36.64 -3.15,62.12 -2.16,19.06 -2.69,36.75 -1.58,53.28 1.06,16.42 1.58,31.48 1.58,45.32 -6.36,21.17 -11.95,39.49 -16.73,54.8 -4.73,15.38 -7.17,30.01 -7.17,43.75 0,12.69 1.05,32.59 3.15,59.64 2.16,27.06 3.22,46.44 3.22,58.12 0,14.75 -1.31,35.43 -3.93,61.96 -2.71,26.48 -4.02,46.7 -4.02,60.39 0,38.21 8.75,74.8 26.28,109.81 17.52,34.95 44.26,69.39 80.39,103.34 34.95,29.69 70.79,52.17 107.37,67.59 36.54,15.33 73.97,23.07 112.21,23.07 17.98,0 44.78,-1.33 80.27,-4.07 35.59,-2.57 63.42,-3.89 83.59,-3.89 13.69,0 51.38,-11.69 112.97,-35 24.42,-2.16 46.12,-5.06 65.22,-8.8 19.12,-3.68 34.44,-7.63 46.13,-11.9 26.52,-12.73 47.22,-22.58 62.05,-29.47 14.86,-6.85 25.44,-10.8 31.82,-11.9 17.98,-6.32 33.69,-11.69 46.94,-15.9 13.27,-4.21 24.11,-9.53 32.64,-15.89 13.8,-6.33 29.96,-13.81 48.54,-22.23 18.54,-8.52 39.47,-18.11 62.85,-28.63 38.23,-19.16 73.97,-41.38 107.4,-66.86 33.36,-25.37 64.96,-52.96 94.65,-82.65 33.96,-38.21 59.38,-75.59 76.33,-112.13 17.01,-36.64 25.54,-72.86 25.54,-108.97 0,-10.58 -0.79,-25.75 -2.48,-45.33 -1.57,-19.58 -4.46,-41.64 -8.63,-66.01 -3.27,-30.7 -19.15,-63.86 -47.8,-99.45 -28.64,-35.48 -70.03,-74.44 -124.13,-116.87 -47.7,-37.06 -92.23,-68.11 -133.6,-92.96 -41.38,-24.96 -79.61,-42.75 -114.56,-53.33 -13.85,-9.53 -24.44,-18.58 -31.86,-27.11 -10.57,-10.53 -32.9,-25.37 -66.79,-44.43 -33.97,-19.11 -80.13,-42.96 -138.45,-71.6 -106.14,-52.01 -181.36,-86.17 -225.95,-102.6 -44.54,-16.42 -66.86,-34.17 -66.86,-53.32"
         id="path16"
         style="fill:#ffffff;fill-opacity:1;fill-rule:nonzero;stroke:none" /><path
         d="m 7501.46,1861.36 63.59,-146.46 c -14.85,-11.57 -47.44,-21.69 -97.81,-30.11 -50.38,-8.48 -115.93,-15.9 -196.57,-22.21 -93.28,-90.97 -186.42,-166.68 -279.22,-227 -92.86,-60.44 -184.83,-104.87 -276.06,-133.55 -21.22,-6.32 -45.59,-13.27 -73.18,-20.69 -16.94,0 -35.53,3.47 -55.69,10.32 -20.23,6.95 -42.43,16.73 -66.87,29.47 -25.42,15.9 -45.06,31.28 -58.85,46.12 -13.78,14.95 -20.64,30.22 -20.64,46.22 0,31.79 15.26,62.54 46.12,92.23 30.75,29.69 75.86,57.8 135.24,84.34 118.77,55.16 235.99,110.86 351.61,167.08 16.99,0 29.16,-3.47 36.63,-10.37 7.37,-6.89 11.16,-15.63 11.16,-26.21 0,-28.69 -20.43,-52.8 -61.27,-72.38 -40.86,-19.69 -61.28,-33.75 -61.28,-42.22 7.43,-10.64 13.8,-15.9 19.12,-15.9 13.75,0 44.26,20.63 91.54,62.01 47.12,41.38 70.17,67.38 69.17,77.96 l -8,36.65 3.26,6.36 c 27.54,24.32 47.91,46.12 61.18,65.28 13.27,19 19.91,34.43 19.91,46.12 0,26.52 -13.29,62.01 -39.81,106.55 -26.43,44.53 -66.22,98.12 -119.3,160.71 -40.31,48.8 -80.64,92.55 -120.91,131.35 -40.38,38.64 -79.02,72.86 -116.19,102.55 -14.85,12.74 -27.58,25.17 -38.22,37.42 -10.53,12.17 -19,23.65 -25.37,34.17 -11.7,21.27 -21.06,38.75 -27.91,52.54 -6.83,13.74 -12.94,22.85 -18.19,27.06 -5.38,6.32 -12.59,14 -21.5,23.06 -9.1,9.06 -19.89,19.37 -32.74,31.06 -22.23,23.27 -39.48,55.7 -51.58,97.07 -12.28,41.38 -18.33,92.76 -18.33,154.25 0,40.38 5.48,79.28 16.64,116.97 11.16,37.7 27.31,71.39 48.53,101.07 3.17,6.32 6.43,13.75 9.58,22.27 3.17,8.48 6.85,18.02 11.17,28.7 24.36,49.79 65.75,103.65 124.13,161.46 58.22,57.8 134.61,119.07 229.05,183.77 12.69,6.37 28.11,14.85 46.16,25.48 18.01,10.58 38.17,24.32 60.44,41.38 12.79,10.58 26.75,20.11 42.17,28.58 15.43,8.53 33.75,16.42 54.91,23.85 28.63,11.69 61.01,24.43 97.06,38.22 53.02,27.58 97.08,47.8 132.04,60.49 35.01,12.69 61.54,19.1 79.6,19.1 35.01,0 61.21,-10.63 78.75,-31.79 17.53,-21.27 26.21,-52.07 26.21,-92.34 0,-44.54 -3.36,-80.97 -10.31,-108.97 -6.89,-28.11 -16.1,-46.96 -27.79,-56.53 -125.2,-99.72 -225.95,-174.78 -302.4,-225.12 -76.32,-50.42 -129.91,-75.59 -160.65,-75.59 -14.84,0 -26.54,4.22 -35.01,12.74 -8.53,8.43 -12.7,21.22 -12.7,38.23 0,28.53 23.79,60.11 71.5,94.64 47.79,34.44 71.07,60.65 70.06,78.75 l -14.26,9.54 c -5.36,0 -11.47,-1.58 -18.32,-4.74 -6.94,-3.21 -14.11,-7.53 -21.48,-12.79 -93.38,-75.33 -163.62,-142.94 -210.89,-202.89 -47.16,-59.9 -70.8,-112.13 -70.8,-156.72 0,-35 6.16,-70.49 18.33,-106.6 12.15,-36.01 30,-73.18 53.32,-111.34 16.95,-26.53 41.58,-60.28 73.96,-101.08 32.37,-40.79 73.44,-89.86 123.34,-147.18 68.96,-79.56 121.91,-141.04 159.09,-184.52 37.17,-43.54 57.81,-66.33 62.12,-68.44 21.16,-27.58 39.17,-55.16 54.06,-82.75 14.85,-27.59 24.9,-54.06 30.28,-79.6 5.25,-20.1 8.94,-45.07 11.1,-74.75 2.05,-29.7 3.16,-65.81 3.16,-108.19 0,-24.95 3.74,-39.22 11.11,-42.96 7.48,-3.73 19.58,-5.52 36.59,-5.52 6.36,0 11.43,1.27 15.16,3.95 3.74,2.58 7.63,6.05 11.95,10.37"
         id="path18"
         style="fill:#ffffff;fill-opacity:1;fill-rule:nonzero;stroke:none" /><path
         d="m 9053.48,1859.78 60.44,-146.45 c -11.68,-10.64 -25.69,-22.01 -42.22,-34.16 -16.43,-12.27 -35.74,-25.28 -58.02,-39.02 -22.27,-7.42 -49.11,-18.11 -80.38,-31.79 -31.27,-13.85 -67.02,-29.7 -107.4,-47.8 -30.79,-19.06 -55.9,-33.38 -75.54,-42.96 -19.68,-9.48 -33.16,-14.32 -40.64,-14.32 -13.69,0 -38.9,-5.79 -75.54,-17.48 -36.59,-11.68 -84.6,-29.16 -143.98,-52.54 -31.8,-11.57 -65.49,-23.58 -101.07,-35.79 -35.48,-12.11 -72.4,-23.06 -110.55,-32.59 l -98.65,20.69 -60.44,-27.06 c -20.22,0 -40.59,0.31 -61.27,0.84 -20.7,0.48 -40.6,1.79 -59.7,3.95 -30.8,1 -53.86,5.31 -69.18,12.69 -15.37,7.47 -23.06,18.01 -23.06,31.85 l 9.48,60.48 -9.48,11.16 c -36.11,0 -60.22,4.74 -72.43,14.27 -12.22,9.53 -18.33,31.85 -18.33,66.81 0,15.94 0.85,42.48 2.42,79.59 1.59,37.11 4,85.39 7.17,144.83 0,5.31 3.36,16.42 10.31,33.42 6.9,16.95 10.39,29.11 10.39,36.54 -5.39,10.58 -8.54,19.1 -9.54,25.48 -1.16,6.31 -1.59,12.21 -1.59,17.48 2.12,41.37 6.64,92.33 13.49,152.76 6.84,60.43 15.62,132.03 26.32,214.79 12.68,49.85 23.26,106.07 31.79,168.67 -2.21,46.69 -4.25,94.39 -6.41,143.19 39.26,176.09 79.54,353.28 120.92,531.43 6.36,31.85 18.31,62.07 35.85,90.7 17.47,28.69 38.36,56.23 62.85,82.76 10.57,7.48 17.48,13.27 20.68,17.48 5.33,9.58 12.16,21.48 20.69,35.85 8.43,14.27 18.48,30.48 30.17,48.49 6.38,4.26 16.74,10.63 31.01,19.1 14.42,8.53 33.75,20.17 58.11,35.06 10.64,8.48 22.85,18.48 36.58,30.17 13.85,11.68 29.7,25.48 47.77,41.38 40.31,24.42 77.69,50.11 112.12,77.22 34.54,27.01 77.7,43.75 129.76,50.07 24.33,1.05 48.69,2.36 73.13,4 24.42,1.58 47.79,3.42 70.02,5.58 21.26,4.21 39.79,6.84 55.69,7.95 10.59,2.16 19.89,4.15 27.9,6.31 7.95,2.16 15.06,3.22 21.47,3.22 6.38,0 15.07,-0.74 26.22,-2.32 11.12,-1.69 26.27,-4.05 45.38,-7.21 14.85,-1.11 27.58,-1.59 38.11,-1.59 10.64,0 20.75,0.48 30.28,1.59 42.38,-12.69 73.75,-31.27 93.85,-55.65 20.17,-24.53 30.29,-53.64 30.29,-87.6 0,-73.12 -7.21,-127.5 -21.49,-163.08 -14.37,-35.49 -36.9,-53.28 -67.65,-53.28 -23.32,0 -49.86,11.9 -79.54,35.8 -29.69,23.9 -109.75,35.8 -240.32,35.8 -54.06,-10.64 -107.6,-21.22 -160.67,-31.8 -5.26,-8.53 -11.37,-14.95 -18.31,-19.11 -6.85,-4.26 -12.96,-7.43 -18.22,-9.52 l -55.81,20.63 c -16.94,-6.38 -35.99,-23.79 -57.21,-52.49 -21.21,-28.69 -43.54,-67.91 -66.8,-117.76 -5.38,-10.53 -9.33,-23.79 -11.91,-39.8 -2.73,-15.85 -4.06,-34.43 -4.06,-55.64 -19.09,-76.39 -38.15,-150.09 -57.21,-221.16 -18.11,-76.38 -32.64,-134.19 -43.8,-173.41 -11.11,-39.27 -17.75,-63.17 -19.9,-71.64 -3.16,-10.58 -5.79,-20.69 -7.94,-30.27 -2.16,-9.53 -3.17,-19.06 -3.17,-28.64 0,-13.74 2.59,-24.43 7.95,-31.8 5.31,-7.47 13.21,-11.16 23.9,-11.16 9.53,0 32.59,17.53 69.17,52.54 36.65,35.06 63.86,54.65 81.92,58.86 22.32,6.42 44.8,13.26 67.59,20.74 22.85,7.37 46.43,16.42 70.87,26.95 9.57,3.27 34.73,7.47 75.58,12.84 40.81,5.27 97.82,11.59 170.99,19.01 l 44.65,-12.69 84.33,15.9 44.53,-20.64 c 10.57,-10.68 20.37,-23.63 29.37,-39.06 9.01,-15.37 17.28,-32.01 24.75,-50.11 0,-63.65 -6.95,-111.92 -20.73,-144.77 -13.81,-32.9 -34.49,-49.33 -62.03,-49.33 l -87.49,35.01 c -72.22,-7.47 -143.5,-14.53 -214.04,-21.48 -70.55,-6.89 -142.46,-13.53 -215.63,-19.9 -89.08,-18 -157.5,-47.17 -205.21,-87.49 -47.8,-40.33 -74.33,-93.39 -79.6,-159.14 -1.04,-13.85 -4.73,-35.01 -11.16,-63.65 -6.3,-28.58 -13.73,-64.22 -22.27,-106.6 l 11.11,-47.69 c -9.51,-45.64 -16.95,-88.6 -22.21,-128.88 -5.31,-40.38 -8,-76.44 -8,-108.29 0,-10.52 1.68,-18.21 4.85,-23.05 3.15,-4.74 6.84,-6.05 11.1,-3.89 50.92,4.15 91.76,7.36 122.56,9.52 30.69,2.06 52.43,2.58 65.22,1.58 27.58,-2.15 55.7,-4.26 84.34,-6.37 l 100.23,7.95 c 10.53,2.16 33.59,10.59 69.22,25.43 35.42,14.84 67.6,22.26 96.29,22.26 30.68,0 61.69,3.22 92.96,9.53 31.27,6.43 61.29,14.85 89.97,25.53 28.7,10.59 57.01,21.48 85.13,32.59 28.11,11.16 56.42,22 85.12,32.64 10.59,3.16 24.63,9 42.16,17.53 17.54,8.48 37.91,19.58 61.28,33.43"
         id="path20"
         style="fill:#ffffff;fill-opacity:1;fill-rule:nonzero;stroke:none" /><path
         d="m 875.719,4031.99 38.801,-63.74 -659.516,-382.4 -36.063,63.7 656.778,382.44 z m 249.421,-584.7 0,-74.81 -1041.9603,0 0,-906.19 1041.9603,0 0,-74.81 -1041.9603,0 0,-920 1041.9603,0 0,-74.86 -1125.14,0 0,2050.67 1125.14,0"
         id="path22"
         style="fill:#ffffff;fill-opacity:1;fill-rule:nonzero;stroke:none" /><path
         d="m 2917.81,1859.46 c -102.5,-299.32 -379.61,-493.32 -728.8,-498.84 -426.72,0 -773.12,310.33 -773.12,770.38 l 0,-2.74 c 0,434.99 326.97,773.12 773.12,773.12 299.28,0 615.24,-166.31 731.59,-512.64 l -85.86,0 c -113.66,324.22 -421.25,443.36 -642.94,440.51 -207.84,-2.73 -343.6,-60.95 -496.06,-196.67 -119.13,-108.13 -202.25,-302.07 -202.25,-501.58 0,-415.68 321.44,-698.37 695.52,-698.37 332.61,2.74 570.87,207.83 642.88,426.83 l 85.92,0"
         id="path24"
         style="fill:#ffffff;fill-opacity:1;fill-rule:nonzero;stroke:none" /><path
         d="m 3926.29,1535.18 c 293.7,0 598.56,232.79 598.56,629.09 0,398.98 -338.08,612.45 -598.56,612.45 -277.12,0 -598.6,-227.31 -598.6,-629.14 0,-351.87 285.43,-612.4 598.6,-612.4 z m -2.79,1416.11 c 448.95,0 795.34,-379.67 795.34,-795.34 0,-412.94 -340.87,-795.33 -795.34,-795.33 -443.41,0 -789.75,374.08 -789.75,784.17 0,479.47 390.72,806.5 789.75,806.5"
         id="path26"
         style="fill:#ffffff;fill-opacity:1;fill-rule:nonzero;stroke:none" /><path
         d="m 974.957,3868.22 -657.102,-382.81 -99.281,170.35 657.203,382.82 99.18,-170.36"
         id="path28"
         style="fill:#f1511b;fill-opacity:1;fill-rule:nonzero;stroke:none" /><path
         d="m 4883.99,752.281 4252.88,0 0,273.418 -4252.88,0 0,-273.418 z"
         id="path30"
         style="fill:#f1511b;fill-opacity:1;fill-rule:nonzero;stroke:none" /><path
         d="m 190.449,1288.49 -86.586,-87.17 -28.2927,15.84 67.3437,92.82 47.535,-21.49 z M 1.99609,1169.08 l 221.28091,0 0,-44.14 -173.7418,0 0,-126.78 168.6448,0 0,-44.14 -168.6448,0 0,-167.5 173.7418,0 0,-44.141 -221.28091,0 0,426.701"
         id="path32"
         style="fill:#ffffff;fill-opacity:1;fill-rule:nonzero;stroke:none" /><path
         d="m 498.93,929.121 -1.137,0 c -20.938,26.609 -46.969,44.719 -82.621,44.719 -54.895,0 -93.942,-45.27 -93.942,-98.488 0,-52.622 36.215,-98.442 91.68,-98.442 37.914,0 64.512,16.942 86.578,45.82 l 1.137,0 0,-60.57 C 474.594,744.641 447.992,735 416.305,735 c -80.364,0 -141.481,60.02 -141.481,140.352 0,79.238 63.946,140.348 142.047,140.348 28.856,0 58.289,-9.6 82.059,-26.579 l 0,-60"
         id="path34"
         style="fill:#ffffff;fill-opacity:1;fill-rule:nonzero;stroke:none" /><path
         d="m 589.527,875.352 c 0,-54.34 38.485,-98.442 94.504,-98.442 56.028,0 94.516,44.102 94.516,98.442 0,53.769 -38.488,98.488 -94.516,98.488 -56.019,0 -94.504,-44.719 -94.504,-98.488 z m -45.273,-0.563 c 0,78.102 61.684,140.911 139.777,140.911 78.098,0 139.782,-62.809 139.782,-140.911 0,-78.09 -62.25,-139.789 -139.782,-139.789 -77.527,0 -139.777,61.699 -139.777,139.789"
         id="path36"
         style="fill:#ffffff;fill-opacity:1;fill-rule:nonzero;stroke:none" /><path
         d="m 928.559,976.109 1.132,0 c 18.684,25.451 43.008,39.591 75.839,39.591 73.56,0 90.54,-53.161 90.54,-115.45 l 0,-157.871 -45.27,0 0,149.98 c 0,43.012 -3.39,81.481 -56.027,81.481 -62.253,0 -66.214,-57.75 -66.214,-105.27 l 0,-126.191 -45.274,0 0,265.981 45.274,0 0,-32.251"
         id="path38"
         style="fill:#ffffff;fill-opacity:1;fill-rule:nonzero;stroke:none" /><path
         d="m 1200.82,875.352 c 0,-54.34 38.48,-98.442 94.51,-98.442 56.02,0 94.5,44.102 94.5,98.442 0,53.769 -38.48,98.488 -94.5,98.488 -56.03,0 -94.51,-44.719 -94.51,-98.488 z m -45.27,-0.563 c 0,78.102 61.68,140.911 139.78,140.911 78.09,0 139.78,-62.809 139.78,-140.911 0,-78.09 -62.25,-139.789 -139.78,-139.789 -77.54,0 -139.78,61.699 -139.78,139.789"
         id="path40"
         style="fill:#ffffff;fill-opacity:1;fill-rule:nonzero;stroke:none" /><path
         d="m 1539.87,979.492 1.13,0 c 14.15,22.068 36.79,36.208 63.95,36.208 31.12,0 59.42,-16.411 73.57,-44.118 15.85,29.428 47.53,44.118 79.79,44.118 67.91,0 84.89,-55.43 84.89,-111.489 l 0,-161.832 -45.28,0 0,154.492 c 0,34.508 -2.26,76.969 -48.66,76.969 -52.07,0 -57.73,-50.371 -57.73,-90.539 l 0,-140.922 -45.27,0 0,151.082 c 0,32.84 -3.96,80.379 -47.53,80.379 -53.2,0 -58.86,-53.77 -58.86,-93.961 l 0,-137.5 -45.28,0 0,265.981 45.28,0 0,-28.868"
         id="path42"
         style="fill:#ffffff;fill-opacity:1;fill-rule:nonzero;stroke:none" /><path
         d="m 1980.22,742.379 -45.27,0 0,265.981 45.27,0 0,-265.981 z m 9.62,366.131 c 0,-18.11 -14.72,-32.24 -32.26,-32.24 -17.55,0 -32.25,14.13 -32.25,32.24 0,17.56 14.7,32.27 32.25,32.27 17.54,0 32.26,-14.71 32.26,-32.27"
         id="path44"
         style="fill:#ffffff;fill-opacity:1;fill-rule:nonzero;stroke:none" /><path
         d="m 2255.84,904.211 c -6.22,38.488 -38.48,69.629 -78.09,69.629 -39.05,0 -75.27,-31.141 -80.93,-69.629 l 159.02,0 z m -161.28,-38.469 c 0.56,-49.242 35.65,-88.832 87.15,-88.832 38.48,0 63.38,23.192 80.93,54.879 l 38.48,-22.09 C 2275.65,762.16 2232.64,735 2178.31,735 c -79.22,0 -130.16,60.559 -130.16,136.992 0,78.649 45.84,143.708 129.03,143.708 85.46,0 130.73,-70.731 126.2,-149.958 l -208.82,0"
         id="path46"
         style="fill:#ffffff;fill-opacity:1;fill-rule:nonzero;stroke:none" /><path
         d="m 2452.86,857.82 116.012,0 0,41.8789 -116.012,0 0,-41.8789 z"
         id="path48"
         style="fill:#ffffff;fill-opacity:1;fill-rule:nonzero;stroke:none" /><path
         d="m 2890.34,1288.49 -86.59,-87.17 -28.29,15.84 67.35,92.82 47.53,-21.49 z m -188.45,-119.41 221.27,0 0,-44.14 -173.73,0 0,-126.78 168.64,0 0,-44.14 -168.64,0 0,-167.5 173.73,0 0,-44.141 -221.27,0 0,426.701"
         id="path50"
         style="fill:#ffffff;fill-opacity:1;fill-rule:nonzero;stroke:none" /><path
         d="m 3198.81,929.121 -1.13,0 c -20.93,26.609 -46.97,44.719 -82.62,44.719 -54.89,0 -93.94,-45.27 -93.94,-98.488 0,-52.622 36.21,-98.442 91.67,-98.442 37.92,0 64.52,16.942 86.59,45.82 l 1.14,0 0,-60.57 C 3174.48,744.641 3147.89,735 3116.19,735 c -80.36,0 -141.47,60.02 -141.47,140.352 0,79.238 63.94,140.348 142.04,140.348 28.86,0 58.29,-9.6 82.05,-26.579 l 0,-60"
         id="path52"
         style="fill:#ffffff;fill-opacity:1;fill-rule:nonzero;stroke:none" /><path
         d="m 3289.41,875.352 c 0,-54.34 38.49,-98.442 94.52,-98.442 56.02,0 94.5,44.102 94.5,98.442 0,53.769 -38.48,98.488 -94.5,98.488 -56.03,0 -94.52,-44.719 -94.52,-98.488 z m -45.26,-0.563 c 0,78.102 61.68,140.911 139.78,140.911 78.09,0 139.78,-62.809 139.78,-140.911 0,-78.09 -62.25,-139.789 -139.78,-139.789 -77.54,0 -139.78,61.699 -139.78,139.789"
         id="path54"
         style="fill:#ffffff;fill-opacity:1;fill-rule:nonzero;stroke:none" /><path
         d="m 3582.04,742.379 45.2813,0 0,466.883 -45.2813,0 0,-466.883 z"
         id="path56"
         style="fill:#ffffff;fill-opacity:1;fill-rule:nonzero;stroke:none" /><path
         d="m 3730.34,875.352 c 0,-54.34 38.49,-98.442 94.51,-98.442 56.02,0 94.51,44.102 94.51,98.442 0,53.769 -38.49,98.488 -94.51,98.488 -56.02,0 -94.51,-44.719 -94.51,-98.488 z m -45.27,-0.563 c 0,78.102 61.68,140.911 139.78,140.911 78.09,0 139.78,-62.809 139.78,-140.911 0,-78.09 -62.25,-139.789 -139.78,-139.789 -77.53,0 -139.78,61.699 -139.78,139.789"
         id="path58"
         style="fill:#ffffff;fill-opacity:1;fill-rule:nonzero;stroke:none" /><path
         d="m 4045.04,878.199 c 0,-52.07 30.57,-101.289 87.14,-101.289 58.3,0 88.86,46.949 88.86,100.699 0,53.231 -33.37,96.231 -89.41,96.231 -52.64,0 -86.59,-45.848 -86.59,-95.641 z m 219.01,-122.82 c 0,-42.43 0,-79.231 -27.17,-114.297 -24.89,-31.691 -63.37,-46.973 -102.99,-46.973 -74.13,0 -129.03,46.973 -130.72,122.231 l 45.27,0 c 0.56,-49.238 36.2,-80.352 84.9,-80.352 70.17,0 85.44,51.481 85.44,111.492 l 0,31.692 -1.13,0 C 4196.14,751.422 4161.06,735 4125.39,735 c -77.51,0 -126.75,65.102 -126.75,139.23 0,74.719 49.8,141.47 128.46,141.47 36.77,0 69.04,-16.411 90.55,-45.278 l 1.13,0 0,37.938 45.27,0 0,-252.981"
         id="path60"
         style="fill:#ffffff;fill-opacity:1;fill-rule:nonzero;stroke:none" /><path
         d="m 4403.34,742.379 -45.27,0 0,265.981 45.27,0 0,-265.981 z m 9.61,366.131 c 0,-18.11 -14.71,-32.24 -32.24,-32.24 -17.56,0 -32.27,14.13 -32.27,32.24 0,17.56 14.71,32.27 32.27,32.27 17.53,0 32.24,-14.71 32.24,-32.27"
         id="path62"
         style="fill:#ffffff;fill-opacity:1;fill-rule:nonzero;stroke:none" /><path
         d="m 4678.93,904.211 c -6.21,38.488 -38.48,69.629 -78.07,69.629 -39.06,0 -75.27,-31.141 -80.94,-69.629 l 159.01,0 z m -161.27,-38.469 c 0.56,-49.242 35.67,-88.832 87.15,-88.832 38.49,0 63.39,23.192 80.92,54.879 l 38.47,-22.09 C 4698.75,762.16 4655.75,735 4601.42,735 c -79.23,0 -130.17,60.559 -130.17,136.992 0,78.649 45.86,143.708 129.04,143.708 85.44,0 130.71,-70.731 126.19,-149.958 l -208.82,0"
         id="path64"
         style="fill:#ffffff;fill-opacity:1;fill-rule:nonzero;stroke:none" /><path
         d="m 49.5352,378.602 14.7187,0 c 53.7581,0 108.0861,10.168 108.0861,76.398 0,70.16 -51.5,76.961 -108.6603,76.961 l -14.1445,0 0,-153.359 z m 0,-229.204 -47.53911,0 0,426.704 61.68361,0 c 80.9333,0 156.2033,-21.5 156.2033,-117.723 0,-65.649 -41.313,-112.039 -106.961,-117.699 l 135.816,-191.282 -58.289,0 -129.0271,187.301 -11.8867,0 0,-187.301"
         id="path66"
         style="fill:#ffffff;fill-opacity:1;fill-rule:nonzero;stroke:none" /><path
         d="m 489.867,311.25 c -6.219,38.48 -38.476,69.621 -78.094,69.621 -39.046,0 -75.265,-31.141 -80.921,-69.621 l 159.015,0 z M 328.586,272.77 c 0.562,-49.239 35.652,-88.84 87.152,-88.84 38.485,0 63.379,23.191 80.922,54.879 l 38.485,-22.09 c -25.465,-47.52 -68.473,-74.68 -122.801,-74.68 -79.235,0 -130.16,60.551 -130.16,136.961 0,78.66 45.839,143.719 129.023,143.719 85.453,0 130.727,-70.727 126.199,-149.949 l -208.82,0"
         id="path68"
         style="fill:#ffffff;fill-opacity:1;fill-rule:nonzero;stroke:none" /><path
         d="m 704.402,353.711 c -6.222,14.129 -19.8,27.16 -36.214,27.16 -15.848,0 -32.829,-12.48 -32.829,-29.441 0,-24.328 30.563,-33.379 61.688,-46.41 31.129,-13 61.683,-31.7 61.683,-76.399 0,-50.371 -40.742,-86.582 -89.976,-86.582 -44.707,0 -79.793,25.481 -93.945,67.352 l 40.179,16.968 c 11.321,-24.898 24.336,-42.429 54.328,-42.429 24.336,0 43.012,16.39 43.012,40.742 0,59.41 -119.973,39.058 -119.973,122.797 0,44.711 36.215,75.25 79.231,75.25 30.559,0 58.852,-21.457 70.738,-49.207 l -37.922,-19.801"
         id="path70"
         style="fill:#ffffff;fill-opacity:1;fill-rule:nonzero;stroke:none" /><path
         d="m 860.637,285.211 c 0,-52.051 30.558,-101.281 87.156,-101.281 58.287,0 88.847,46.949 88.847,100.699 0,53.23 -33.39,96.242 -89.417,96.242 -52.633,0 -86.586,-45.851 -86.586,-95.66 z m 2.269,92.238 1.125,0 c 22.078,29.422 54.895,45.27 91.676,45.27 78.103,0 127.333,-67.328 127.333,-140.899 0,-75.832 -48.1,-139.781 -127.888,-139.781 -36.226,0 -69.617,15.84 -91.121,44.703 l -1.125,0 0,-186.742 -45.273,0 0,415.391 45.273,0 0,-37.942"
         id="path72"
         style="fill:#ffffff;fill-opacity:1;fill-rule:nonzero;stroke:none" /><path
         d="m 1165.16,282.379 c 0,-54.34 38.48,-98.449 94.5,-98.449 56.03,0 94.51,44.109 94.51,98.449 0,53.769 -38.48,98.492 -94.51,98.492 -56.02,0 -94.5,-44.723 -94.5,-98.492 z m -45.28,-0.559 c 0,78.11 61.68,140.899 139.78,140.899 78.09,0 139.78,-62.789 139.78,-140.899 0,-78.09 -62.25,-139.781 -139.78,-139.781 -77.53,0 -139.78,61.691 -139.78,139.781"
         id="path74"
         style="fill:#ffffff;fill-opacity:1;fill-rule:nonzero;stroke:none" /><path
         d="m 1504.18,383.141 1.14,0 c 18.68,25.441 43.01,39.578 75.83,39.578 73.57,0 90.55,-53.16 90.55,-115.449 l 0,-157.872 -45.27,0 0,149.981 c 0,43.012 -3.4,81.492 -56.03,81.492 -62.25,0 -66.22,-57.75 -66.22,-105.281 l 0,-126.192 -45.26,0 0,265.993 45.26,0 0,-32.25"
         id="path76"
         style="fill:#ffffff;fill-opacity:1;fill-rule:nonzero;stroke:none" /><path
         d="m 1862.47,353.711 c -6.23,14.129 -19.81,27.16 -36.22,27.16 -15.85,0 -32.82,-12.48 -32.82,-29.441 0,-24.328 30.56,-33.379 61.68,-46.41 31.12,-13 61.68,-31.7 61.68,-76.399 0,-50.371 -40.75,-86.582 -89.97,-86.582 -44.71,0 -79.8,25.481 -93.95,67.352 l 40.18,16.968 c 11.32,-24.898 24.33,-42.429 54.33,-42.429 24.33,0 43.01,16.39 43.01,40.742 0,59.41 -119.97,39.058 -119.97,122.797 0,44.711 36.21,75.25 79.22,75.25 30.57,0 58.86,-21.457 70.74,-49.207 l -37.91,-19.801"
         id="path78"
         style="fill:#ffffff;fill-opacity:1;fill-rule:nonzero;stroke:none" /><path
         d="m 2001.72,285.211 c 0,-52.051 30.56,-101.281 87.15,-101.281 58.29,0 88.85,46.949 88.85,100.699 0,53.23 -33.38,96.242 -89.41,96.242 -52.64,0 -86.59,-45.851 -86.59,-95.66 z m 219.01,-135.813 -45.27,0 0,36.801 -1.13,0 c -23.21,-29.429 -54.33,-44.16 -91.68,-44.16 -78.09,0 -127.33,66.223 -127.33,139.781 0,75.84 48.1,140.899 127.89,140.899 36.22,0 69.04,-16.949 91.12,-45.27 l 1.13,0 0,37.942 45.27,0 0,-265.993"
         id="path80"
         style="fill:#ffffff;fill-opacity:1;fill-rule:nonzero;stroke:none" /><path
         d="m 2342.45,285.211 c 0,-52.051 30.56,-101.281 87.15,-101.281 58.3,0 88.85,46.949 88.85,100.699 0,53.23 -33.38,96.242 -89.41,96.242 -52.63,0 -86.59,-45.851 -86.59,-95.66 z m -43.01,331.078 45.28,0 0,-238.84 1.13,0 c 21.5,28.321 54.89,45.27 91.11,45.27 79.23,0 127.9,-65.059 127.9,-140.34 0,-74.117 -49.23,-140.34 -127.33,-140.34 -36.79,0 -70.18,15.281 -91.68,44.16 l -1.13,0 0,-36.801 -45.28,0 0,466.891"
         id="path82"
         style="fill:#ffffff;fill-opacity:1;fill-rule:nonzero;stroke:none" /><path
         d="m 2679.24,149.398 -45.27,0 0,265.993 45.27,0 0,-265.993 z m 9.62,366.122 c 0,-18.079 -14.71,-32.219 -32.26,-32.219 -17.54,0 -32.25,14.14 -32.25,32.219 0,17.57 14.71,32.289 32.25,32.289 17.55,0 32.26,-14.719 32.26,-32.289"
         id="path84"
         style="fill:#ffffff;fill-opacity:1;fill-rule:nonzero;stroke:none" /><path
         d="m 2769.81,149.398 45.2813,0 0,466.891 -45.2813,0 0,-466.891 z"
         id="path86"
         style="fill:#ffffff;fill-opacity:1;fill-rule:nonzero;stroke:none" /><path
         d="m 2950.35,149.398 -45.27,0 0,265.993 45.27,0 0,-265.993 z m 9.62,366.122 c 0,-18.079 -14.71,-32.219 -32.25,-32.219 -17.54,0 -32.26,14.14 -32.26,32.219 0,17.57 14.72,32.289 32.26,32.289 17.54,0 32.25,-14.719 32.25,-32.289"
         id="path88"
         style="fill:#ffffff;fill-opacity:1;fill-rule:nonzero;stroke:none" /><path
         d="m 3089.59,149.398 -45.27,0 0,224.114 -27.73,0 0,41.879 27.73,0 0,95.621 45.27,0 0,-95.621 47.54,0 0,-41.879 -47.54,0 0,-224.114"
         id="path90"
         style="fill:#ffffff;fill-opacity:1;fill-rule:nonzero;stroke:none" /><path
         d="m 3359.55,548.941 -86.59,-87.171 -28.29,15.851 67.34,92.82 47.54,-21.5 z m -0.57,-237.691 c -6.22,38.48 -38.48,69.621 -78.1,69.621 -39.04,0 -75.26,-31.141 -80.92,-69.621 l 159.02,0 z M 3197.7,272.77 c 0.56,-49.239 35.65,-88.84 87.15,-88.84 38.48,0 63.38,23.191 80.92,54.879 l 38.49,-22.09 c -25.47,-47.52 -68.48,-74.68 -122.8,-74.68 -79.24,0 -130.17,60.551 -130.17,136.961 0,78.66 45.84,143.719 129.03,143.719 85.45,0 130.72,-70.727 126.2,-149.949 l -208.82,0"
         id="path92"
         style="fill:#ffffff;fill-opacity:1;fill-rule:nonzero;stroke:none" /><path
         d="m 3745.01,353.711 c -6.22,14.129 -19.8,27.16 -36.22,27.16 -15.84,0 -32.82,-12.48 -32.82,-29.441 0,-24.328 30.56,-33.379 61.69,-46.41 31.12,-13 61.69,-31.7 61.69,-76.399 0,-50.371 -40.75,-86.582 -89.99,-86.582 -44.71,0 -79.79,25.481 -93.94,67.352 l 40.18,16.968 c 11.32,-24.898 24.34,-42.429 54.33,-42.429 24.33,0 43,16.39 43,40.742 0,59.41 -119.96,39.058 -119.96,122.797 0,44.711 36.21,75.25 79.22,75.25 30.56,0 58.85,-21.457 70.74,-49.207 l -37.92,-19.801"
         id="path94"
         style="fill:#ffffff;fill-opacity:1;fill-rule:nonzero;stroke:none" /><path
         d="m 3882,282.379 c 0,-54.34 38.49,-98.449 94.51,-98.449 56.03,0 94.51,44.109 94.51,98.449 0,53.769 -38.48,98.492 -94.51,98.492 -56.02,0 -94.51,-44.723 -94.51,-98.492 z m -45.27,-0.559 c 0,78.11 61.69,140.899 139.78,140.899 78.1,0 139.77,-62.789 139.77,-140.899 0,-78.09 -62.24,-139.781 -139.77,-139.781 -77.52,0 -139.78,61.691 -139.78,139.781"
         id="path96"
         style="fill:#ffffff;fill-opacity:1;fill-rule:nonzero;stroke:none" /><path
         d="m 4373.29,336.148 -1.16,0 c -20.93,26.614 -46.95,44.723 -82.6,44.723 -54.91,0 -93.96,-45.269 -93.96,-98.492 0,-52.629 36.21,-98.449 91.7,-98.449 37.91,0 64.49,16.941 86.57,45.82 l 1.13,0 0,-60.551 c -26.03,-17.527 -52.64,-27.16 -84.33,-27.16 -80.34,0 -141.46,60 -141.46,140.34 0,79.223 63.94,140.34 142.03,140.34 28.85,0 58.29,-9.598 82.08,-26.578 l 0,-59.993"
         id="path98"
         style="fill:#ffffff;fill-opacity:1;fill-rule:nonzero;stroke:none" /><path
         d="m 4496.16,149.398 -45.28,0 0,265.993 45.28,0 0,-265.993 z m 9.6,366.122 c 0,-18.079 -14.71,-32.219 -32.24,-32.219 -17.56,0 -32.27,14.14 -32.27,32.219 0,17.57 14.71,32.289 32.27,32.289 17.53,0 32.24,-14.719 32.24,-32.289"
         id="path100"
         style="fill:#ffffff;fill-opacity:1;fill-rule:nonzero;stroke:none" /><path
         d="m 4772.31,548.941 -86.58,-87.171 -28.27,15.851 67.33,92.82 47.52,-21.5 z m -0.57,-237.691 c -6.21,38.48 -38.48,69.621 -78.06,69.621 -39.07,0 -75.29,-31.141 -80.95,-69.621 l 159.01,0 z m -161.27,-38.48 c 0.56,-49.239 35.67,-88.84 87.15,-88.84 38.48,0 63.38,23.191 80.92,54.879 l 38.48,-22.09 c -25.45,-47.52 -68.46,-74.68 -122.8,-74.68 -79.22,0 -130.16,60.551 -130.16,136.961 0,78.66 45.86,143.719 129.03,143.719 85.45,0 130.71,-70.727 126.19,-149.949 l -208.81,0"
         id="path102"
         style="fill:#ffffff;fill-opacity:1;fill-rule:nonzero;stroke:none" /><path
         d="m 4926.3,149.398 -45.28,0 0,224.114 -27.74,0 0,41.879 27.74,0 0,95.621 45.28,0 0,-95.621 47.54,0 0,-41.879 -47.54,0 0,-224.114"
         id="path104"
         style="fill:#ffffff;fill-opacity:1;fill-rule:nonzero;stroke:none" /><path
         d="m 5035.54,285.211 c 0,-52.051 30.56,-101.281 87.14,-101.281 58.3,0 88.85,46.949 88.85,100.699 0,53.23 -33.38,96.242 -89.4,96.242 -52.63,0 -86.59,-45.851 -86.59,-95.66 z m 219,-135.813 -45.29,0 0,36.801 -1.1,0 c -23.21,-29.429 -54.34,-44.16 -91.7,-44.16 -78.07,0 -127.31,66.223 -127.31,139.781 0,75.84 48.09,140.899 127.9,140.899 36.21,0 69.04,-16.949 91.11,-45.27 l 1.1,0 0,37.942 45.29,0 0,-265.993"
         id="path106"
         style="fill:#ffffff;fill-opacity:1;fill-rule:nonzero;stroke:none" /><path
         d="m 5334.4,149.398 45.2734,0 0,466.891 -45.2734,0 0,-466.891 z"
         id="path108"
         style="fill:#ffffff;fill-opacity:1;fill-rule:nonzero;stroke:none" /><path
         d="m 5645.08,311.25 c -6.19,38.48 -38.47,69.621 -78.05,69.621 -39.06,0 -75.29,-31.141 -80.94,-69.621 l 158.99,0 z m -161.26,-38.48 c 0.56,-49.239 35.68,-88.84 87.16,-88.84 38.48,0 63.38,23.191 80.91,54.879 l 38.48,-22.09 c -25.44,-47.52 -68.46,-74.68 -122.79,-74.68 -79.22,0 -130.16,60.551 -130.16,136.961 0,78.66 45.85,143.719 129.03,143.719 85.44,0 130.7,-70.727 126.19,-149.949 l -208.82,0"
         id="path110"
         style="fill:#ffffff;fill-opacity:1;fill-rule:nonzero;stroke:none" /><path
         d="m 5947.4,285.211 c 0,-52.051 30.56,-101.281 87.16,-101.281 58.27,0 88.84,46.949 88.84,100.699 0,53.23 -33.4,96.242 -89.42,96.242 -52.63,0 -86.58,-45.851 -86.58,-95.66 z m 173.74,-99.012 -1.14,0 c -22.07,-28.879 -55.44,-44.16 -91.67,-44.16 -78.11,0 -127.33,66.223 -127.33,139.781 0,75.84 48.11,140.899 127.89,140.899 35.67,0 69.62,-16.949 91.11,-45.27 l 1.14,0 0,238.84 45.28,0 0,-466.891 -45.28,0 0,36.801"
         id="path112"
         style="fill:#ffffff;fill-opacity:1;fill-rule:nonzero;stroke:none" /><path
         d="m 6431.32,311.25 c -6.24,38.48 -38.47,69.621 -78.13,69.621 -39.02,0 -75.24,-31.141 -80.91,-69.621 l 159.04,0 z m -161.3,-38.48 c 0.57,-49.239 35.65,-88.84 87.15,-88.84 38.48,0 63.39,23.191 80.94,54.879 l 38.48,-22.09 c -25.48,-47.52 -68.49,-74.68 -122.82,-74.68 -79.22,0 -130.14,60.551 -130.14,136.961 0,78.66 45.82,143.719 129.01,143.719 85.47,0 130.75,-70.727 126.21,-149.949 l -208.83,0"
         id="path114"
         style="fill:#ffffff;fill-opacity:1;fill-rule:nonzero;stroke:none" /><path
         d="m 6645.84,353.711 c -6.22,14.129 -19.8,27.16 -36.22,27.16 -15.85,0 -32.82,-12.48 -32.82,-29.441 0,-24.328 30.57,-33.379 61.68,-46.41 31.13,-13 61.7,-31.7 61.7,-76.399 0,-50.371 -40.75,-86.582 -89.97,-86.582 -44.72,0 -79.81,25.481 -93.98,67.352 l 40.2,16.968 c 11.32,-24.898 24.35,-42.429 54.33,-42.429 24.34,0 43,16.39 43,40.742 0,59.41 -119.97,39.058 -119.97,122.797 0,44.711 36.22,75.25 79.22,75.25 30.57,0 58.87,-21.457 70.74,-49.207 l -37.91,-19.801"
         id="path116"
         style="fill:#ffffff;fill-opacity:1;fill-rule:nonzero;stroke:none" /><path
         d="m 6980.36,149.398 -45.27,0 0,224.114 -27.71,0 0,41.879 27.71,0 0,95.621 45.27,0 0,-95.621 47.55,0 0,-41.879 -47.55,0 0,-224.114"
         id="path118"
         style="fill:#ffffff;fill-opacity:1;fill-rule:nonzero;stroke:none" /><path
         d="m 7249.77,311.25 c -6.24,38.48 -38.48,69.621 -78.11,69.621 -39.06,0 -75.26,-31.141 -80.93,-69.621 l 159.04,0 z m -161.3,-38.48 c 0.59,-49.239 35.65,-88.84 87.15,-88.84 38.48,0 63.39,23.191 80.94,54.879 l 38.47,-22.09 c -25.47,-47.52 -68.48,-74.68 -122.81,-74.68 -79.23,0 -130.14,60.551 -130.14,136.961 0,78.66 45.82,143.719 129.02,143.719 85.46,0 130.74,-70.727 126.2,-149.949 l -208.83,0"
         id="path120"
         style="fill:#ffffff;fill-opacity:1;fill-rule:nonzero;stroke:none" /><path
         d="m 7399.77,386.512 1.14,0 c 15.85,20.937 29.43,36.207 58.85,36.207 15.26,0 27.74,-5.078 40.74,-12.418 L 7479,368.969 c -9.04,6.211 -15.28,11.902 -27.17,11.902 -49.78,0 -52.06,-63.961 -52.06,-98.492 l 0,-132.981 -45.26,0 0,265.993 45.26,0 0,-28.879"
         id="path122"
         style="fill:#ffffff;fill-opacity:1;fill-rule:nonzero;stroke:none" /><path
         d="m 7586.56,386.512 1.12,0 c 15.85,20.937 29.43,36.207 58.86,36.207 15.27,0 27.74,-5.078 40.75,-12.418 l -21.51,-41.332 c -9.06,6.211 -15.3,11.902 -27.16,11.902 -49.81,0 -52.06,-63.961 -52.06,-98.492 l 0,-132.981 -45.29,0 0,265.993 45.29,0 0,-28.879"
         id="path124"
         style="fill:#ffffff;fill-opacity:1;fill-rule:nonzero;stroke:none" /><path
         d="m 7784.11,149.398 -45.29,0 0,265.993 45.29,0 0,-265.993 z m 9.59,366.122 c 0,-18.079 -14.71,-32.219 -32.24,-32.219 -17.55,0 -32.27,14.14 -32.27,32.219 0,17.57 14.72,32.289 32.27,32.289 17.53,0 32.24,-14.719 32.24,-32.289"
         id="path126"
         style="fill:#ffffff;fill-opacity:1;fill-rule:nonzero;stroke:none" /><path
         d="m 7923.33,149.398 -45.26,0 0,224.114 -27.74,0 0,41.879 27.74,0 0,95.621 45.26,0 0,-95.621 47.54,0 0,-41.879 -47.54,0 0,-224.114"
         id="path128"
         style="fill:#ffffff;fill-opacity:1;fill-rule:nonzero;stroke:none" /><path
         d="m 8030.31,282.379 c 0,-54.34 38.48,-98.449 94.5,-98.449 56.02,0 94.52,44.109 94.52,98.449 0,53.769 -38.5,98.492 -94.52,98.492 -56.02,0 -94.5,-44.723 -94.5,-98.492 z m -45.28,-0.559 c 0,78.11 61.7,140.899 139.78,140.899 78.11,0 139.78,-62.789 139.78,-140.899 0,-78.09 -62.25,-139.781 -139.78,-139.781 -77.52,0 -139.78,61.691 -139.78,139.781"
         id="path130"
         style="fill:#ffffff;fill-opacity:1;fill-rule:nonzero;stroke:none" /><path
         d="m 8377.86,149.398 -45.28,0 0,265.993 45.28,0 0,-265.993 z m 9.61,366.122 c 0,-18.079 -14.72,-32.219 -32.24,-32.219 -17.57,0 -32.27,14.14 -32.27,32.219 0,17.57 14.7,32.289 32.27,32.289 17.52,0 32.24,-14.719 32.24,-32.289"
         id="path132"
         style="fill:#ffffff;fill-opacity:1;fill-rule:nonzero;stroke:none" /><path
         d="m 8512.55,386.512 1.14,0 c 15.84,20.937 29.41,36.207 58.84,36.207 15.28,0 27.75,-5.078 40.76,-12.418 l -21.52,-41.332 c -9.04,6.211 -15.29,11.902 -27.16,11.902 -49.8,0 -52.06,-63.961 -52.06,-98.492 l 0,-132.981 -45.28,0 0,265.993 45.28,0 0,-28.879"
         id="path134"
         style="fill:#ffffff;fill-opacity:1;fill-rule:nonzero;stroke:none" /><path
         d="m 8840.23,311.25 c -6.21,38.48 -38.49,69.621 -78.08,69.621 -39.05,0 -75.28,-31.141 -80.93,-69.621 l 159.01,0 z m -161.28,-38.48 c 0.56,-49.239 35.66,-88.84 87.16,-88.84 38.47,0 63.38,23.191 80.91,54.879 l 38.47,-22.09 c -25.45,-47.52 -68.45,-74.68 -122.78,-74.68 -79.23,0 -130.17,60.551 -130.17,136.961 0,78.66 45.85,143.719 129.04,143.719 85.44,0 130.71,-70.727 126.19,-149.949 l -208.82,0"
         id="path136"
         style="fill:#ffffff;fill-opacity:1;fill-rule:nonzero;stroke:none" /><path
         d="m 9054.77,353.711 c -6.24,14.129 -19.81,27.16 -36.21,27.16 -15.85,0 -32.83,-12.48 -32.83,-29.441 0,-24.328 30.56,-33.379 61.7,-46.41 31.12,-13 61.67,-31.7 61.67,-76.399 0,-50.371 -40.75,-86.582 -89.98,-86.582 -44.7,0 -79.8,25.481 -93.93,67.352 l 40.17,16.968 c 11.32,-24.898 24.32,-42.429 54.32,-42.429 24.33,0 43.02,16.39 43.02,40.742 0,59.41 -119.97,39.058 -119.97,122.797 0,44.711 36.21,75.25 79.22,75.25 30.56,0 58.86,-21.457 70.76,-49.207 l -37.94,-19.801"
         id="path138"
         style="fill:#ffffff;fill-opacity:1;fill-rule:nonzero;stroke:none" /></g></g></svg>
