<?xml version="1.0" encoding="UTF-8" standalone="no"?>
<!-- Created with Inkscape (http://www.inkscape.org/) -->

<svg
   xmlns:dc="http://purl.org/dc/elements/1.1/"
   xmlns:cc="http://creativecommons.org/ns#"
   xmlns:rdf="http://www.w3.org/1999/02/22-rdf-syntax-ns#"
   xmlns:svg="http://www.w3.org/2000/svg"
   xmlns="http://www.w3.org/2000/svg"
   version="1.1"
   width="48"
   height="48"
   id="svg28083">
  <defs
     id="defs28085">
    <clipPath
       id="clipPath4901">
      <path
         d="m 315.748,1648.19 0.773,0 0,-0.63 -0.773,0 0,0.63 z"
         id="path4903" />
    </clipPath>
    <clipPath
       id="clipPath4905">
      <path
         d="m 315.759,1648.18 0.762,0 0,-0.62 -0.762,0 0,0.62 z"
         id="path4907" />
    </clipPath>
    <clipPath
       id="clipPath4909">
      <path
         d="m 315.748,1648.19 0.011,0 0,-0.01 -0.011,0 0,0.01 z"
         id="path4911" />
    </clipPath>
    <clipPath
       id="clipPath4857">
      <path
         d="m 327.146,1644.07 0.45,0 0,-0.02 -0.45,0 0,0.02 z"
         id="path4859" />
    </clipPath>
    <clipPath
       id="clipPath4861">
      <path
         d="m 327.146,1644.07 0.446,0 0,-0.02 -0.446,0 0,0.02 z"
         id="path4863" />
    </clipPath>
    <clipPath
       id="clipPath4865">
      <path
         d="m 327.592,1644.05 0.004,0 0,0 -0.004,0 z"
         id="path4867" />
    </clipPath>
  </defs>
  <metadata
     id="metadata28088">
    <rdf:RDF>
      <cc:Work
         rdf:about="">
        <dc:format>image/svg+xml</dc:format>
        <dc:type
           rdf:resource="http://purl.org/dc/dcmitype/StillImage" />
        <dc:title></dc:title>
      </cc:Work>
    </rdf:RDF>
  </metadata>
  <g
     transform="matrix(0.71888995,0,0,0.71888995,30.300803,6.5722551)"
     id="g3830"
     style="color:#000000;fill:#4f4c4d;fill-opacity:1;fill-rule:nonzero;stroke:none;marker:none;visibility:visible;display:inline;overflow:visible;enable-background:accumulate">
    <path
       d="m -5.5369281,32.692998 c -1.12681,-0.0586 -1.1807829,0.13257 -3.035,0.016 m 0,0 c -7.3159999,0.465 -13.6589999,3.982 -17.3679999,9.103 3.062,1.281 5.588,2.825 7.358,3.907 l 0.1,0.06 c 0.577,0.352 1.065,0.651 1.458,0.863 5.004,2.682 10.7259999,3.418 17.94999992,2.309 0.64899998,-0.1 1.41999998,-0.312 2.28799998,-0.629 l 1.292,-0.543 2.891,-1.432 c 1.558,-0.859 3.3200001,-1.935 5.3930001,-3.287 0.037,-0.024 0.074,-0.049 0.111,-0.072 -3.5950001,-5.822 -10.4550001,-9.873 -18.4380001,-10.295"
       id="path3834"
       style="color:#000000;fill:#4f4c4d;fill-opacity:1;fill-rule:nonzero;stroke:none;marker:none;visibility:visible;display:inline;overflow:visible;enable-background:accumulate" />
  </g>
  <g
     transform="matrix(0.81291428,0,0,0.81291428,-17.386825,-4.4128089)"
     id="g2995"
     style="color:#000000;fill:#4f4c4d;fill-opacity:1;fill-rule:nonzero;stroke:none;marker:none;visibility:visible;display:inline;overflow:visible;enable-background:accumulate">
    <g
       id="g3836">
      <path
         d="m 56.855,20.807 c -0.676,-3.672 2.147,-7.706 2.147,-7.706 0,0 -2.175,5.44 -0.925,7.874 8.297,-0.35 2.009,-9.423 4.078,-12.743 0.007,-0.065 -12.641,6.413 -5.3,12.575 z"
         id="path4"
         style="color:#000000;fill:#4f4c4d;fill-opacity:1;fill-rule:nonzero;stroke:none;marker:none;visibility:visible;display:inline;overflow:visible;enable-background:accumulate" />
      <path
         d="m 58.381,43.396 c 0,0 -0.028,-2.797 -0.037,-4.162 2.18,-3.579 7.432,-4.99 7.432,-4.99 0,0 -5.908,3.164 -6.6,6.222 7.523,5.792 8.689,-6.784 12.944,-8.173 0.042,-0.043 -11.898,-2.776 -13.794,3.58 -0.01,-3.073 -0.007,-5.907 0,-8.282 2.148,-3.527 7.324,-4.918 7.324,-4.918 0,0 -5.822,3.118 -6.504,6.131 7.414,5.71 8.563,-6.687 12.758,-8.054 0.043,-0.044 -11.9,-2.78 -13.639,3.657 -0.099,-1.435 -0.333,-2.416 -0.826,-2.416 -0.431,0 -0.722,0.738 -0.924,1.866 -0.792,-7.885 -14.155,-4.723 -14.111,-4.676 4.378,1.334 5.457,14.061 13.039,8.226 -0.848,-3.17 -6.658,-6.246 -6.658,-6.246 0,0 5.547,1.743 7.465,4.956 -0.014,0.182 -0.029,0.36 -0.041,0.548 -0.149,2.36 -0.33,5.272 -0.5,8.472 -1.114,-7.612 -14.329,-4.481 -14.284,-4.435 4.44,1.354 5.537,14.267 13.228,8.347 -0.857,-3.218 -6.755,-6.339 -6.755,-6.339 0,0 5.821,1.827 7.673,5.189 -0.084,1.786 -0.225,5.513 -0.225,5.513 z"
         id="path6"
         style="color:#000000;fill:#4f4c4d;fill-opacity:1;fill-rule:nonzero;stroke:none;marker:none;visibility:visible;display:inline;overflow:visible;enable-background:accumulate" />
    </g>
  </g>
  <path
     d="m 6.6066921,29.991696 c -0.196531,0 -0.3934194,0.08138 -0.5322054,0.220671 -0.1387861,0.139232 -0.2208241,0.335559 -0.2206699,0.532205 l 0,11.150346 c 0,0.196423 0.081883,0.392903 0.2206699,0.532204 0.138786,0.139226 0.3356744,0.220233 0.5322054,0.220671 l 2.7778506,0 c 0.1969927,0 0.3928804,-0.08144 0.5322053,-0.220671 0.139248,-0.139301 0.220824,-0.335266 0.220671,-0.532204 l 0,-11.150346 c 0,-0.196946 -0.08142,-0.392988 -0.220671,-0.532205 C 9.7774231,30.072996 9.5815354,29.991389 9.3845427,29.991696 z M 18.66568,30.666689 c -3.474963,0.04052 -6.918666,1.155274 -6.918666,1.155274 -0.300563,0.09674 -0.532513,0.411158 -0.532205,0.726914 l 0,7.463852 c 0.0146,0.507089 0.350623,0.839761 0.791818,0.882681 0.237513,0.0202 0.606689,0.06715 1.349983,0.168749 0.03191,0.0053 0.339479,0.08531 0.713934,0.23365 0.374377,0.148122 0.849388,0.363204 1.388925,0.61009 1.079073,0.49371 2.406054,1.144118 3.751397,1.791323 1.345266,0.647283 2.710427,1.292086 3.855241,1.791325 1.144815,0.499239 1.956365,0.865025 2.699968,0.921624 1.129129,0.08779 3.059483,-0.231075 5.036477,-0.545187 1.976995,-0.313887 3.994695,-0.649579 4.530234,-0.674991 1.588469,-0.07498 2.890153,-1.259503 3.751397,-1.817286 1.118287,-0.726625 2.414724,-1.505421 3.478804,-2.518239 0.385449,-0.36608 0.670084,-0.841724 0.662011,-1.466808 -0.06989,-0.515394 -0.531312,-0.383339 -0.649031,-0.597109 0.155318,-0.167404 0.615584,-0.59847 0.649031,-0.921623 0.110491,-0.959671 -0.864708,-1.440994 -1.661519,-1.505751 -1.475672,-0.07335 -2.814929,0.813943 -3.556687,1.518731 -1.1422,1.089247 -2.371199,1.453753 -4.062932,1.648539 -2.025665,0.23499 -3.925211,0.404443 -5.73743,-0.168748 -0.269807,-0.08532 -0.884381,-0.369401 -1.453829,-0.610089 -0.284723,-0.120079 -0.570885,-0.22129 -0.817778,-0.311535 -0.185151,-0.06767 -0.309931,-0.140637 -0.519225,-0.168748 0.617119,-0.07978 1.628966,-0.226294 2.557181,-0.116826 1.122208,0.132497 4.598527,0.140174 6.035984,0.4024 0.549456,0.10011 1.099081,-0.02365 1.505752,-0.285574 0.406594,-0.261995 0.67786,-0.636067 0.8697,-1.025469 0.383835,-0.779102 0.541471,-1.208982 -0.01298,-1.973052 -0.503705,-0.69327 -1.281556,-0.92443 -2.1418,-1.168256 -0.860245,-0.243602 -1.825282,-0.408513 -2.686987,-0.545185 -1.782309,-0.283001 -3.112878,-0.216902 -4.426388,-0.467302 -0.473724,-0.09004 -1.295709,-0.567914 -2.427375,-1.103352 -1.13182,-0.535515 -2.597298,-1.092954 -4.530233,-1.2721 -0.487329,-0.04508 -0.99637,-0.0576 -1.492771,-0.05192 z"
     id="path4-3"
     style="text-indent:0;text-transform:none;direction:ltr;block-progression:tb;baseline-shift:baseline;color:#000000;fill:#4f4c4d;fill-opacity:1;fill-rule:nonzero;stroke:#ffffff;stroke-width:0.49845549;stroke-miterlimit:4;stroke-opacity:1;stroke-dasharray:none;marker:none;visibility:visible;display:inline;overflow:visible;enable-background:accumulate" />
</svg>
