<?xml version="1.0" encoding="UTF-8" standalone="no"?>
<!-- Created with Inkscape (http://www.inkscape.org/) -->

<svg
   xmlns:dc="http://purl.org/dc/elements/1.1/"
   xmlns:cc="http://creativecommons.org/ns#"
   xmlns:rdf="http://www.w3.org/1999/02/22-rdf-syntax-ns#"
   xmlns:svg="http://www.w3.org/2000/svg"
   xmlns="http://www.w3.org/2000/svg"
   version="1.1"
   width="48"
   height="48"
   id="svg28083">
  <defs
     id="defs28085">
    <clipPath
       id="clipPath4901">
      <path
         d="m 315.748,1648.19 0.773,0 0,-0.63 -0.773,0 0,0.63 z"
         id="path4903" />
    </clipPath>
    <clipPath
       id="clipPath4905">
      <path
         d="m 315.759,1648.18 0.762,0 0,-0.62 -0.762,0 0,0.62 z"
         id="path4907" />
    </clipPath>
    <clipPath
       id="clipPath4909">
      <path
         d="m 315.748,1648.19 0.011,0 0,-0.01 -0.011,0 0,0.01 z"
         id="path4911" />
    </clipPath>
    <clipPath
       id="clipPath4857">
      <path
         d="m 327.146,1644.07 0.45,0 0,-0.02 -0.45,0 0,0.02 z"
         id="path4859" />
    </clipPath>
    <clipPath
       id="clipPath4861">
      <path
         d="m 327.146,1644.07 0.446,0 0,-0.02 -0.446,0 0,0.02 z"
         id="path4863" />
    </clipPath>
    <clipPath
       id="clipPath4865">
      <path
         d="m 327.592,1644.05 0.004,0 0,0 -0.004,0 z"
         id="path4867" />
    </clipPath>
  </defs>
  <metadata
     id="metadata28088">
    <rdf:RDF>
      <cc:Work
         rdf:about="">
        <dc:format>image/svg+xml</dc:format>
        <dc:type
           rdf:resource="http://purl.org/dc/dcmitype/StillImage" />
        <dc:title></dc:title>
      </cc:Work>
    </rdf:RDF>
  </metadata>
  <g
     transform="translate(-16.636351,-70.490818)"
     id="g3034"
     style="color:#000000;fill:#cfcccd;fill-opacity:1;fill-rule:nonzero;stroke:#ffffff;stroke-width:0.49845549;stroke-linecap:butt;stroke-linejoin:miter;stroke-miterlimit:4;stroke-opacity:1;stroke-dasharray:none;stroke-dashoffset:0;marker:none;visibility:visible;display:inline;overflow:visible;enable-background:accumulate">
    <path
       d="m 20.84862,113.43015 1.076257,0 0.159117,-0.63647 c 0.106078,-0.31824 0.424311,-0.58343 0.742545,-0.58343 l 0.05304,0 6.523786,0 0.05304,0 c 0.371273,0 0.689506,0.26519 0.742545,0.58343 l 0.159117,0.58343 2.758023,0 c -1.219895,-1.11382 -2.015479,-2.70499 -2.015479,-4.50831 l 0,-4.24311 c 0,-1.80333 0.742545,-3.39449 1.96244,-4.50831 0.106078,0.58343 0.265195,1.11382 0.583428,1.59117 -0.636467,0.79558 -1.007739,1.80332 -1.007739,2.8641 l 0,4.24311 c 0,1.06078 0.371272,2.01548 0.9547,2.75802 l 0,-5.83428 c 0,-0.90166 0.742543,-1.59116 1.591166,-1.59116 l 0,0 c 0.901662,0 1.591167,0.74254 1.591167,1.59116 l 0,7.16026 0,0 0,0.53039 c 0.05304,0 0.106078,0 0.159117,0 l 0.318234,0 c 0.05304,0 0.106077,0 0.106077,0 l 0,-7.69065 c 0,-0.90166 0.742545,-1.59116 1.591168,-1.59116 l 0,0 c 0.901661,0 1.591167,0.74254 1.591167,1.59116 l 0,6.04644 c 0.636467,-0.79558 1.060778,-1.80332 1.060778,-2.8641 l 0,-4.24311 c 0,-1.11382 -0.371272,-2.06852 -1.007739,-2.86411 0.318233,-0.47735 0.47735,-1.00773 0.583428,-1.59116 1.219895,1.11381 1.96244,2.70498 1.96244,4.5083 l 0,4.24312 c 0,1.80332 -2.015479,4.5083 -2.015479,4.5083 l 20.572494,0 c 0,0 0.795584,0.37128 0.795584,0.79559 0,0.42431 -0.795584,0.79558 -0.795584,0.79558 l -21.102883,0 c 0,0 -0.795584,0.9547 -1.48509,0.9547 -0.636467,0 -1.219895,-0.37127 -1.485089,-0.9547 l -0.9547,0 c -0.265195,0.58343 -0.795584,0.9547 -1.48509,0.9547 -0.636467,0 -1.219893,-0.37127 -1.485088,-0.9547 l -2.91714,0 0.265195,1.00774 c 0.05304,0.21216 0,0.47735 -0.159117,0.68951 -0.159117,0.21215 -0.371273,0.31823 -0.636467,0.31823 l -6.523786,0 c -0.212156,0 -0.424311,-0.10608 -0.583428,-0.26519 l -1.166858,0 c -0.265194,0 -0.47735,-0.10608 -0.636467,-0.31824 -0.159116,-0.21215 -0.212155,-0.47735 -0.106078,-0.6895 l 0.212156,-0.74255 -0.651945,0 c -0.424312,0 -0.795584,-0.37127 -0.795584,-0.79558 0.106078,-0.47735 0.424311,-0.84862 0.848621,-0.84862 z m 3.516049,1.96243 4.932619,0 -0.424312,-1.59116 -0.47735,0 -4.455268,0 z"
       id="path3040"
       style="color:#000000;fill:#cfcccd;fill-opacity:1;fill-rule:nonzero;stroke:none;stroke-width:0.49845549;marker:none;visibility:visible;display:inline;overflow:visible;enable-background:accumulate" />
    <path
       d="m 37.147045,102.34501 c -1.697245,0 -3.023218,-1.37901 -3.023218,-3.023214 0,-0.636467 0.212155,-1.219895 0.530389,-1.697245 0.159117,-0.265195 0.371272,-0.47735 0.583428,-0.636467 0.530389,-0.424311 1.219895,-0.689506 1.909401,-0.689506 0.742544,0 1.43205,0.265195 1.909401,0.689506 0.212155,0.212156 0.424311,0.424311 0.583428,0.636467 0.318233,0.47735 0.530389,1.060778 0.530389,1.697245 0.05304,1.644204 -1.325973,3.023214 -3.023218,3.023214 z"
       id="path3042"
       style="color:#000000;fill:#cfcccd;fill-opacity:1;fill-rule:nonzero;stroke:#ffffff;stroke-width:0.49845549;stroke-linecap:butt;stroke-linejoin:miter;stroke-miterlimit:4;stroke-opacity:1;stroke-dasharray:none;stroke-dashoffset:0;marker:none;visibility:visible;display:inline;overflow:visible;enable-background:accumulate" />
    <g
       id="text3888"
       style="font-size:23.02468109px;font-style:normal;font-weight:normal;line-height:125%;letter-spacing:0px;word-spacing:0px;stroke:none;marker:none;font-family:Sans">
      <path
         d="m 46.219081,92.018714 0,-1.980123 2.394566,0 c 0.506539,-1.642414 1.404501,-2.962495 2.693888,-3.960245 1.289375,-0.99772 2.755278,-1.496588 4.397714,-1.496604 2.440603,1.6e-5 4.374675,0.882628 5.80222,2.647838 l -1.634753,2.072221 c -0.675404,-0.721427 -1.320095,-1.22797 -1.934073,-1.519629 -0.598654,-0.291632 -1.343118,-0.437455 -2.233394,-0.437469 -0.890297,1.4e-5 -1.69616,0.237936 -2.417591,0.713766 -0.706098,0.460506 -1.235665,1.120546 -1.588703,1.980122 l 5.479874,0 0,1.980123 -5.963393,0 c -0.01536,0.184206 -0.02303,0.468177 -0.02302,0.851913 -6e-6,0.368403 0.02302,0.721447 0.06907,1.059135 l 5.917343,0 0,1.980123 -5.295677,0 c 0.828881,1.596381 2.079887,2.394569 3.753023,2.394567 0.828877,2e-6 1.534967,-0.153495 2.118271,-0.460494 0.598628,-0.322342 1.227969,-0.82121 1.888024,-1.496604 l 1.634752,1.980122 c -1.427545,1.765224 -3.307892,2.647834 -5.641047,2.647834 -1.596387,0 -3.016241,-0.45281 -4.259566,-1.358452 -1.227988,-0.920984 -2.1106,-2.156641 -2.647838,-3.706973 l -2.50969,0 0,-1.980123 2.072221,0 c -0.04605,-0.368387 -0.06908,-0.736782 -0.06907,-1.105185 -3e-6,-0.368386 0.0077,-0.637007 0.02302,-0.805863 l -2.026172,0"
         id="path3893"
         style="font-variant:normal;font-stretch:normal;marker:none;font-family:Montserrat;-inkscape-font-specification:Montserrat" />
    </g>
  </g>
</svg>
