<?xml version="1.0" encoding="UTF-8" standalone="no"?>
<!-- Created with Inkscape (http://www.inkscape.org/) -->

<svg
   xmlns:dc="http://purl.org/dc/elements/1.1/"
   xmlns:cc="http://creativecommons.org/ns#"
   xmlns:rdf="http://www.w3.org/1999/02/22-rdf-syntax-ns#"
   xmlns:svg="http://www.w3.org/2000/svg"
   xmlns="http://www.w3.org/2000/svg"
   xmlns:sodipodi="http://sodipodi.sourceforge.net/DTD/sodipodi-0.dtd"
   xmlns:inkscape="http://www.inkscape.org/namespaces/inkscape"
   width="48px"
   height="48px"
   id="svg3210"
   version="1.1"
   inkscape:version="0.48.4 r9939"
   sodipodi:docname="alliances.svg">
  <defs
     id="defs3212" />
  <sodipodi:namedview
     id="base"
     pagecolor="#ffffff"
     bordercolor="#666666"
     borderopacity="1.0"
     inkscape:pageopacity="0.0"
     inkscape:pageshadow="2"
     inkscape:zoom="7"
     inkscape:cx="24"
     inkscape:cy="24"
     inkscape:current-layer="layer1"
     showgrid="true"
     inkscape:grid-bbox="true"
     inkscape:document-units="px"
     inkscape:window-width="605"
     inkscape:window-height="601"
     inkscape:window-x="1315"
     inkscape:window-y="451"
     inkscape:window-maximized="0" />
  <metadata
     id="metadata3215">
    <rdf:RDF>
      <cc:Work
         rdf:about="">
        <dc:format>image/svg+xml</dc:format>
        <dc:type
           rdf:resource="http://purl.org/dc/dcmitype/StillImage" />
        <dc:title />
      </cc:Work>
    </rdf:RDF>
  </metadata>
  <g
     id="layer1"
     inkscape:label="Layer 1"
     inkscape:groupmode="layer">
    <g
       id="g2988">
      <g
         style="fill:#cfcccd"
         transform="matrix(1.25,0,0,-1.25,23.245922,17.13262)"
         id="g17068">
        <path
           inkscape:connector-curvature="0"
           id="path17070"
           style="fill:#cfcccd;fill-opacity:1;fill-rule:nonzero;stroke:none"
           d="m 0,0 c -0.565,0.372 -1.187,0.662 -1.847,0.86 -1.701,-1.743 -2.749,-4.127 -2.749,-6.756 0,-2.629 1.048,-5.01 2.749,-6.755 0.66,0.198 1.282,0.488 1.847,0.861 -1.654,1.428 -2.703,3.538 -2.703,5.894 0,2.358 1.049,4.469 2.703,5.896" />
      </g>
      <g
         style="fill:#cfcccd"
         transform="matrix(1.25,0,0,-1.25,31.812792,12.60492)"
         id="g17072">
        <path
           inkscape:connector-curvature="0"
           id="path17074"
           style="fill:#cfcccd;fill-opacity:1;fill-rule:nonzero;stroke:none"
           d="M 0,0 C 0.175,0.2 0.333,0.397 0.472,0.59 0.797,1.12 0.914,1.544 0.823,1.861 L 0.813,1.896 C 0.712,2.256 0.446,2.476 0.015,2.555 -0.146,2.576 -0.283,2.57 -0.393,2.539 L -0.508,2.506 C -0.736,2.441 -0.948,2.229 -1.141,1.868 L -1.154,1.864 C -1.292,2.122 -1.459,2.312 -1.652,2.433 -1.933,2.535 -2.184,2.555 -2.407,2.491 -2.818,2.375 -3.058,2.105 -3.125,1.68 -3.131,1.521 -3.113,1.367 -3.071,1.219 -2.986,0.915 -2.758,0.556 -2.4,0.141 -3.461,0.073 -4.477,-0.167 -5.419,-0.551 c 0.667,-0.395 1.286,-0.863 1.847,-1.391 0.578,0.136 1.181,0.212 1.803,0.212 4.301,0 7.787,-3.487 7.787,-7.788 0,-4.299 -3.486,-7.787 -7.787,-7.787 -0.622,0 -1.225,0.076 -1.803,0.212 -0.561,-0.528 -1.18,-0.996 -1.847,-1.391 1.127,-0.458 2.358,-0.715 3.65,-0.715 5.347,0 9.681,4.335 9.681,9.681 C 7.912,-4.775 4.502,-0.832 0,0" />
      </g>
      <g
         style="fill:#cfcccd"
         transform="matrix(1.25,0,0,-1.25,18.682922,34.23572)"
         id="g17076">
        <path
           inkscape:connector-curvature="0"
           id="path17078"
           style="fill:#cfcccd;fill-opacity:1;fill-rule:nonzero;stroke:none"
           d="m 0,0 c -4.299,0 -7.787,3.487 -7.787,7.787 0,4.301 3.488,7.787 7.787,7.787 4.301,0 7.787,-3.486 7.787,-7.787 C 7.787,3.487 4.301,0 0,0 m 9.682,7.787 c 0,4.904 -3.647,8.952 -8.376,9.592 0.151,0.176 0.287,0.348 0.409,0.516 0.325,0.53 0.443,0.954 0.352,1.271 l -0.01,0.035 C 1.957,19.561 1.69,19.78 1.259,19.859 1.097,19.881 0.961,19.875 0.852,19.844 L 0.735,19.811 C 0.508,19.746 0.295,19.533 0.103,19.173 L 0.09,19.169 c -0.137,0.258 -0.305,0.447 -0.498,0.568 -0.281,0.103 -0.533,0.122 -0.755,0.059 -0.412,-0.116 -0.651,-0.386 -0.718,-0.812 -0.007,-0.158 0.011,-0.312 0.054,-0.461 0.088,-0.313 0.329,-0.688 0.71,-1.121 -4.82,-0.555 -8.563,-4.646 -8.563,-9.615 0,-5.347 4.334,-9.682 9.68,-9.682 5.347,0 9.682,4.335 9.682,9.682" />
      </g>
    </g>
  </g>
</svg>
