<?xml version="1.0" encoding="UTF-8" standalone="no"?>
<!-- Created with Inkscape (http://www.inkscape.org/) -->

<svg
   xmlns:dc="http://purl.org/dc/elements/1.1/"
   xmlns:cc="http://creativecommons.org/ns#"
   xmlns:rdf="http://www.w3.org/1999/02/22-rdf-syntax-ns#"
   xmlns:svg="http://www.w3.org/2000/svg"
   xmlns="http://www.w3.org/2000/svg"
   xmlns:sodipodi="http://sodipodi.sourceforge.net/DTD/sodipodi-0.dtd"
   xmlns:inkscape="http://www.inkscape.org/namespaces/inkscape"
   width="48px"
   height="48px"
   id="svg28083"
   version="1.1"
   inkscape:version="0.48.4 r9939"
   sodipodi:docname="ampoule.svg">
  <defs
     id="defs28085">
    <clipPath
       clipPathUnits="userSpaceOnUse"
       id="clipPath4901">
      <path
         inkscape:connector-curvature="0"
         d="m 315.748,1648.19 0.773,0 0,-0.63 -0.773,0 0,0.63 z"
         id="path4903" />
    </clipPath>
    <clipPath
       clipPathUnits="userSpaceOnUse"
       id="clipPath4905">
      <path
         inkscape:connector-curvature="0"
         d="m 315.759,1648.18 0.762,0 0,-0.62 -0.762,0 0,0.62 z"
         id="path4907" />
    </clipPath>
    <clipPath
       clipPathUnits="userSpaceOnUse"
       id="clipPath4909">
      <path
         inkscape:connector-curvature="0"
         d="m 315.748,1648.19 0.011,0 0,-0.01 -0.011,0 0,0.01 z"
         id="path4911" />
    </clipPath>
    <clipPath
       clipPathUnits="userSpaceOnUse"
       id="clipPath4857">
      <path
         inkscape:connector-curvature="0"
         d="m 327.146,1644.07 0.45,0 0,-0.02 -0.45,0 0,0.02 z"
         id="path4859" />
    </clipPath>
    <clipPath
       clipPathUnits="userSpaceOnUse"
       id="clipPath4861">
      <path
         inkscape:connector-curvature="0"
         d="m 327.146,1644.07 0.446,0 0,-0.02 -0.446,0 0,0.02 z"
         id="path4863" />
    </clipPath>
    <clipPath
       clipPathUnits="userSpaceOnUse"
       id="clipPath4865">
      <path
         inkscape:connector-curvature="0"
         d="m 327.592,1644.05 0.004,0 0,0 -0.004,0 z"
         id="path4867" />
    </clipPath>
  </defs>
  <sodipodi:namedview
     id="base"
     pagecolor="#ffffff"
     bordercolor="#666666"
     borderopacity="1.0"
     inkscape:pageopacity="0.0"
     inkscape:pageshadow="2"
     inkscape:zoom="7"
     inkscape:cx="26.60379"
     inkscape:cy="43.845883"
     inkscape:current-layer="layer1"
     showgrid="true"
     inkscape:grid-bbox="true"
     inkscape:document-units="px"
     inkscape:window-width="960"
     inkscape:window-height="998"
     inkscape:window-x="1972"
     inkscape:window-y="24"
     inkscape:window-maximized="0" />
  <metadata
     id="metadata28088">
    <rdf:RDF>
      <cc:Work
         rdf:about="">
        <dc:format>image/svg+xml</dc:format>
        <dc:type
           rdf:resource="http://purl.org/dc/dcmitype/StillImage" />
        <dc:title />
      </cc:Work>
    </rdf:RDF>
  </metadata>
  <g
     id="layer1"
     inkscape:label="Layer 1"
     inkscape:groupmode="layer">
    <g
       id="g3012">
      <g
         style="fill:#cfcccd"
         id="g4969"
         transform="matrix(0.97305752,0,0,-0.97305752,11.305523,37.906008)">
        <path
           d="M 0,0 C -0.727,0.262 -0.926,0.659 0.064,1.253 1.053,1.846 2.57,2.901 4.418,6.335 4.418,6.335 4.09,1.187 0,0 m 0.908,16.945 c -2.178,2.31 -3.205,5.909 -3.205,5.909 0,0 -1.332,-3.555 -3.111,-5.629 C -7.184,15.152 -14.74,6.854 -7.777,0.188 -4.074,-2.923 1.258,-2.479 3.926,0.93 6.592,4.336 7.428,9.833 0.908,16.945"
           style="fill:#cfcccd;fill-opacity:1;fill-rule:nonzero;stroke:none"
           id="path4971"
           inkscape:connector-curvature="0" />
      </g>
      <g
         style="fill:#cfcccd"
         transform="matrix(1.25,0,0,-1.25,28.914095,29.019543)"
         id="g4538">
        <path
           inkscape:connector-curvature="0"
           id="path4540"
           style="fill:#cfcccd;fill-opacity:1;fill-rule:nonzero;stroke:none"
           d="m 0,0 c -0.48,-0.599 -0.852,-1.382 -1.098,-2.328 -0.179,-0.684 -0.23,-1.204 -0.234,-1.261 l -0.006,-0.071 0.004,-0.073 c 0.027,-0.386 -0.191,-0.708 -0.227,-0.754 l -0.214,-0.244 c -0.582,-0.166 -1.123,-0.272 -1.623,-0.334 l -0.059,4.316 c -0.002,0.167 -0.055,0.321 -0.141,0.449 L -1.15,6.888 -1.365,6.963 C -1.371,6.987 -1.375,7.012 -1.383,7.038 -1.531,7.519 -2.055,7.643 -2.537,7.546 -2.57,7.605 -2.611,7.665 -2.664,7.718 -3.008,8.072 -3.449,7.889 -3.773,7.551 -4.051,7.637 -4.381,7.605 -4.672,7.531 -4.824,7.695 -5.018,7.796 -5.207,7.719 -5.309,7.678 -5.535,7.545 -5.752,7.375 -5.91,7.484 -6.143,7.527 -6.467,7.429 -6.531,7.409 -6.59,7.363 -6.648,7.312 -7.115,7.883 -7.566,7.08 -7.607,6.615 l -0.25,-0.105 2.88,-6.871 c -0.068,-0.121 -0.111,-0.261 -0.109,-0.41 l 0.061,-4.36 c -0.717,0.037 -1.28,0.161 -1.668,0.279 l 0.004,0.092 -0.233,0.283 c -0.002,0.004 -0.248,0.342 -0.221,0.75 l 0.004,0.073 -0.006,0.072 c -0.005,0.057 -0.052,0.575 -0.23,1.259 -0.246,0.948 -0.615,1.732 -1.094,2.333 -0.105,0.152 -0.709,1.051 -1.25,2.271 -0.527,1.183 -1.092,2.903 -0.802,4.372 l 0.003,0.016 0.002,0.019 c 0.01,0.053 0.262,1.468 1.164,2.841 1.17,1.773 2.877,2.67 5.075,2.668 l 0.048,0 0.006,0 0.006,0 0.051,0 C -1.969,12.195 -0.266,11.294 0.902,9.52 1.803,8.145 2.051,6.73 2.059,6.676 L 2.064,6.641 C 2.605,3.883 0.215,0.312 0,0 m -3.289,7.13 c -0.045,0.096 -0.104,0.175 -0.17,0.238 0.148,0.012 0.295,0.01 0.416,-0.021 C -3.141,7.285 -3.225,7.211 -3.289,7.13 M -6.453,6.893 c 0.103,0.026 0.207,0.052 0.305,0.075 -0.118,-0.178 -0.149,-0.359 0.015,-0.499 0.477,-0.409 0.756,0.174 0.602,0.611 0.049,0.003 0.125,0.013 0.222,0.025 -0.201,-0.526 0.723,-1.173 0.911,-0.264 0.021,0.105 -0.01,0.25 -0.077,0.391 0.159,0.025 0.282,0.042 0.323,0.045 0.047,0.002 0.109,0.01 0.179,0.023 -0.308,-0.466 -0.373,-1.028 0.186,-1.028 0.164,0 0.303,0.105 0.4,0.247 0.01,-0.023 0.018,-0.044 0.03,-0.067 0.291,-0.568 0.974,0.081 0.927,0.736 0.055,0.003 0.108,-0.004 0.159,-0.02 -0.375,-0.471 -0.204,-0.761 0.089,-0.85 L -4.305,0.085 -6.885,6.239 C -6.4,6.048 -6.363,6.51 -6.453,6.893 M -7.074,6.689 c 0.033,0.015 0.068,0.029 0.107,0.043 C -6.986,6.663 -7.002,6.595 -7.008,6.533 L -7.074,6.689 z M 3.936,6.992 C 3.9,7.207 3.598,8.85 2.533,10.498 c -1.056,1.643 -3.078,3.598 -6.697,3.602 -0.018,0.001 -0.037,0.001 -0.057,0.001 -0.017,10e-4 -0.037,0 -0.054,0 -3.621,0.003 -5.645,-1.95 -6.707,-3.588 -1.067,-1.647 -1.372,-3.289 -1.409,-3.504 -0.172,-0.88 -0.146,-1.863 0.077,-2.923 0.169,-0.815 0.457,-1.685 0.855,-2.579 0.668,-1.503 1.418,-2.572 1.449,-2.616 l 0.02,-0.029 0.021,-0.026 c 0.617,-0.755 0.867,-2.023 0.922,-2.523 -0.027,-0.717 0.223,-1.303 0.422,-1.652 -0.068,-1.599 -0.023,-2.915 0.135,-3.917 0.136,-0.848 0.349,-1.466 0.65,-1.887 l 0.16,-0.223 0.254,-0.104 c 0.479,-0.193 1.502,-0.521 2.989,-0.521 l 0,-0.002 c 1.068,-10e-4 2.177,0.169 3.296,0.505 l 0.321,0.094 0.189,0.274 c 0.297,0.427 0.506,1.046 0.639,1.893 0.156,0.996 0.201,2.299 0.137,3.877 0.199,0.347 0.451,0.935 0.425,1.654 0.057,0.502 0.311,1.766 0.928,2.521 l 0.022,0.026 0.019,0.027 c 0.031,0.044 0.783,1.112 1.455,2.614 0.399,0.895 0.69,1.763 0.861,2.578 0.223,1.06 0.25,2.041 0.081,2.922" />
      </g>
      <g
         style="fill:#cfcccd"
         transform="matrix(1.25,0,0,-1.25,13.889725,30.938543)"
         id="g4542">
        <path
           inkscape:connector-curvature="0"
           id="path4544"
           style="fill:#cfcccd;fill-opacity:1;fill-rule:nonzero;stroke:none"
           d="m 0,0 -4.285,-4.343 c -0.209,-0.212 -0.209,-0.556 0.006,-0.767 0.213,-0.211 0.556,-0.207 0.767,0.006 l 4.285,4.342 C 0.982,-0.547 0.98,-0.206 0.768,0.005 0.555,0.216 0.211,0.214 0,0" />
      </g>
      <g
         style="fill:#cfcccd"
         transform="matrix(1.25,0,0,-1.25,33.538225,12.958743)"
         id="g4546">
        <path
           inkscape:connector-curvature="0"
           id="path4548"
           style="fill:#cfcccd;fill-opacity:1;fill-rule:nonzero;stroke:none"
           d="M 0,0 4.285,4.343 C 4.496,4.558 4.492,4.9 4.279,5.111 4.066,5.321 3.721,5.317 3.512,5.106 L -0.773,0.763 C -0.984,0.549 -0.98,0.206 -0.768,-0.005 -0.555,-0.214 -0.211,-0.212 0,0" />
      </g>
      <g
         style="fill:#cfcccd"
         transform="matrix(1.25,0,0,-1.25,13.438095,13.480043)"
         id="g4550">
        <path
           inkscape:connector-curvature="0"
           id="path4552"
           style="fill:#cfcccd;fill-opacity:1;fill-rule:nonzero;stroke:none"
           d="M 0,0 C 0.219,-0.202 0.562,-0.187 0.764,0.033 0.967,0.256 0.951,0.599 0.729,0.8 L -3.777,4.914 C -3.998,5.115 -4.34,5.102 -4.543,4.88 -4.744,4.659 -4.729,4.315 -4.506,4.113 L 0,0 z" />
      </g>
      <g
         style="fill:#cfcccd"
         transform="matrix(1.25,0,0,-1.25,33.992215,30.416043)"
         id="g4554">
        <path
           inkscape:connector-curvature="0"
           id="path4556"
           style="fill:#cfcccd;fill-opacity:1;fill-rule:nonzero;stroke:none"
           d="M 0,0 C -0.221,0.204 -0.566,0.188 -0.768,-0.033 -0.969,-0.254 -0.953,-0.6 -0.732,-0.8 l 4.505,-4.113 c 0.221,-0.202 0.565,-0.188 0.766,0.033 0.203,0.222 0.188,0.565 -0.035,0.768 L 0,0 z" />
      </g>
      <g
         style="fill:#cfcccd"
         transform="matrix(1.25,0,0,-1.25,11.094345,21.948043)"
         id="g4558">
        <path
           inkscape:connector-curvature="0"
           id="path4560"
           style="fill:#cfcccd;fill-opacity:1;fill-rule:nonzero;stroke:none"
           d="m 0,0 c 0,0.3 -0.244,0.543 -0.543,0.543 l -6.102,0 C -6.943,0.543 -7.187,0.3 -7.187,0 c 0,-0.3 0.244,-0.542 0.542,-0.542 l 6.102,0 C -0.244,-0.542 0,-0.3 0,0" />
      </g>
      <g
         style="fill:#cfcccd"
         transform="matrix(1.25,0,0,-1.25,44.639225,21.269243)"
         id="g4562">
        <path
           inkscape:connector-curvature="0"
           id="path4564"
           style="fill:#cfcccd;fill-opacity:1;fill-rule:nonzero;stroke:none"
           d="m 0,0 -6.1,0 c -0.3,0 -0.545,-0.243 -0.545,-0.543 0,-0.3 0.245,-0.542 0.545,-0.542 l 6.1,0 c 0.299,0 0.543,0.242 0.543,0.542 C 0.543,-0.243 0.299,0 0,0" />
      </g>
      <g
         style="fill:#cfcccd"
         transform="matrix(1.25,0,0,-1.25,23.709095,9.8288434)"
         id="g4566">
        <path
           inkscape:connector-curvature="0"
           id="path4568"
           style="fill:#cfcccd;fill-opacity:1;fill-rule:nonzero;stroke:none"
           d="m 0,0 c 0.299,0 0.541,0.242 0.541,0.542 l 0,6.101 c 0,0.299 -0.242,0.543 -0.541,0.543 -0.301,0 -0.543,-0.244 -0.543,-0.543 l 0,-6.101 C -0.543,0.242 -0.301,0 0,0" />
      </g>
    </g>
  </g>
</svg>
