<?xml version="1.0" encoding="UTF-8" standalone="no"?>
<!-- Created with Inkscape (http://www.inkscape.org/) -->

<svg
   xmlns:dc="http://purl.org/dc/elements/1.1/"
   xmlns:cc="http://creativecommons.org/ns#"
   xmlns:rdf="http://www.w3.org/1999/02/22-rdf-syntax-ns#"
   xmlns:svg="http://www.w3.org/2000/svg"
   xmlns="http://www.w3.org/2000/svg"
   xmlns:sodipodi="http://sodipodi.sourceforge.net/DTD/sodipodi-0.dtd"
   xmlns:inkscape="http://www.inkscape.org/namespaces/inkscape"
   width="48px"
   height="48px"
   id="svg28083"
   version="1.1"
   inkscape:version="0.48.4 r9943 custom"
   sodipodi:docname="poubelle-recycle.svg">
  <defs
     id="defs28085" />
  <sodipodi:namedview
     id="base"
     pagecolor="#ffffff"
     bordercolor="#666666"
     borderopacity="1.0"
     inkscape:pageopacity="0.0"
     inkscape:pageshadow="2"
     inkscape:zoom="7"
     inkscape:cx="26.60379"
     inkscape:cy="24"
     inkscape:current-layer="layer1"
     showgrid="true"
     inkscape:grid-bbox="true"
     inkscape:document-units="px"
     inkscape:window-width="651"
     inkscape:window-height="653"
     inkscape:window-x="1333"
     inkscape:window-y="295"
     inkscape:window-maximized="0" />
  <metadata
     id="metadata28088">
    <rdf:RDF>
      <cc:Work
         rdf:about="">
        <dc:format>image/svg+xml</dc:format>
        <dc:type
           rdf:resource="http://purl.org/dc/dcmitype/StillImage" />
        <dc:title></dc:title>
      </cc:Work>
    </rdf:RDF>
  </metadata>
  <g
     id="layer1"
     inkscape:label="Layer 1"
     inkscape:groupmode="layer">
    <g
       transform="matrix(1.25,0,0,-1.25,30.35131,14.621292)"
       id="g5125">
      <path
         inkscape:connector-curvature="0"
         id="path5127"
         style="fill:#cfcccd;fill-opacity:1;fill-rule:nonzero;stroke:none"
         d="m 0,0 c 0.052,0.283 0.081,0.57 0.081,0.869 0,2.721 -2.206,4.926 -4.927,4.926 -2.723,0 -4.929,-2.205 -4.929,-4.926 0,-0.245 0.024,-0.482 0.058,-0.719 -1.837,-0.518 -3.186,-2.205 -3.186,-4.211 0,-2.419 1.962,-4.379 4.379,-4.379 0.553,0 1.079,0.106 1.566,0.292 l 0,-7.878 c 0,-0.996 0.806,-1.803 1.798,-1.803 0.993,0 1.801,0.807 1.801,1.803 l 0,7.937 c 0.527,-0.226 1.109,-0.351 1.72,-0.351 0.322,0 0.636,0.037 0.937,0.104 0.017,-0.006 0.031,-0.012 0.047,-0.014 -0.016,0.002 -0.03,0.008 -0.047,0.014 1.97,0.428 3.445,2.179 3.445,4.275 C 2.743,-2.22 1.606,-0.649 0,0" />
    </g>
    <g
       transform="matrix(1.25,0,0,-1.25,41.30469,14.621292)"
       id="g5129">
      <path
         inkscape:connector-curvature="0"
         id="path5131"
         style="fill:#cfcccd;fill-opacity:1;fill-rule:nonzero;stroke:none"
         d="m 0,0 c 0.049,0.283 0.08,0.57 0.08,0.869 0,2.721 -2.205,4.926 -4.929,4.926 -1.339,0 -2.553,-0.534 -3.44,-1.403 0.915,-0.893 1.485,-2.143 1.485,-3.523 0,-0.299 -0.031,-0.586 -0.08,-0.869 1.606,-0.649 2.739,-2.22 2.739,-4.061 0,-1.867 -1.169,-3.456 -2.816,-4.087 l 0,-7.878 c 0,-0.996 0.806,-1.803 1.8,-1.803 0.994,0 1.801,0.807 1.801,1.803 l 0,7.937 c 0.527,-0.226 1.108,-0.351 1.719,-0.351 2.419,0 4.381,1.96 4.381,4.379 C 2.74,-2.22 1.606,-0.649 0,0" />
    </g>
    <g
       transform="matrix(1.25,0,0,-1.25,11.87531,19.696922)"
       id="g5133">
      <path
         inkscape:connector-curvature="0"
         id="path5135"
         style="fill:#cfcccd;fill-opacity:1;fill-rule:nonzero;stroke:none"
         d="m 0,0 c 0,2.006 1.348,3.692 3.188,4.211 -0.036,0.236 -0.06,0.474 -0.06,0.719 0,1.38 0.571,2.63 1.487,3.522 -0.887,0.869 -2.1,1.403 -3.442,1.403 -2.721,0 -4.928,-2.205 -4.928,-4.925 0,-0.245 0.022,-0.483 0.058,-0.719 C -5.537,3.692 -6.884,2.006 -6.884,0 c 0,-2.42 1.961,-4.38 4.379,-4.38 0.553,0 1.08,0.107 1.566,0.292 l 0,-7.878 c 0,-0.996 0.804,-1.803 1.799,-1.803 0.994,0 1.8,0.807 1.8,1.803 l 0,7.938 C 1.094,-3.361 0,-1.81 0,0" />
    </g>
  </g>
</svg>
