<?xml version="1.0" encoding="UTF-8" standalone="no"?>
<!-- Created with Inkscape (http://www.inkscape.org/) -->

<svg
   xmlns:dc="http://purl.org/dc/elements/1.1/"
   xmlns:cc="http://creativecommons.org/ns#"
   xmlns:rdf="http://www.w3.org/1999/02/22-rdf-syntax-ns#"
   xmlns:svg="http://www.w3.org/2000/svg"
   xmlns="http://www.w3.org/2000/svg"
   xmlns:sodipodi="http://sodipodi.sourceforge.net/DTD/sodipodi-0.dtd"
   xmlns:inkscape="http://www.inkscape.org/namespaces/inkscape"
   width="48px"
   height="48px"
   id="svg28083"
   version="1.1"
   inkscape:version="0.48.4 r9943 custom"
   sodipodi:docname="art.svg">
  <defs
     id="defs28085" />
  <sodipodi:namedview
     id="base"
     pagecolor="#ffffff"
     bordercolor="#666666"
     borderopacity="1.0"
     inkscape:pageopacity="0.0"
     inkscape:pageshadow="2"
     inkscape:zoom="7"
     inkscape:cx="32.318076"
     inkscape:cy="24"
     inkscape:current-layer="layer1"
     showgrid="true"
     inkscape:grid-bbox="true"
     inkscape:document-units="px"
     inkscape:window-width="651"
     inkscape:window-height="653"
     inkscape:window-x="1333"
     inkscape:window-y="273"
     inkscape:window-maximized="0" />
  <metadata
     id="metadata28088">
    <rdf:RDF>
      <cc:Work
         rdf:about="">
        <dc:format>image/svg+xml</dc:format>
        <dc:type
           rdf:resource="http://purl.org/dc/dcmitype/StillImage" />
        <dc:title />
      </cc:Work>
    </rdf:RDF>
  </metadata>
  <g
     id="layer1"
     inkscape:label="Layer 1"
     inkscape:groupmode="layer">
    <g
       transform="matrix(1.25,0,0,-1.25,33.857404,30.035203)"
       id="g5265"
       style="fill:#cfcccd">
      <path
         inkscape:connector-curvature="0"
         id="path5267"
         style="fill:#cfcccd;fill-opacity:1;fill-rule:nonzero;stroke:none"
         d="m 0,0 c -1.506,-0.371 -2.396,1.432 -2.396,1.432 l -13.508,6.089 c -5.184,2.986 0.404,0.814 0.404,0.814 L -2.188,2.556 C 1.291,4.021 2.52,-0.636 2.52,-0.636 1.617,0.401 0,0 0,0 m -6.371,12.773 c 1.002,0 1.812,-0.812 1.812,-1.814 0,-0.999 -0.81,-1.812 -1.812,-1.812 -1.002,0 -1.815,0.813 -1.815,1.812 0,1.002 0.813,1.814 1.815,1.814 M 3.773,10.529 C 1.141,10.959 -0.414,8.37 -0.414,8.37 -0.76,7.678 -1.623,6.902 -1.623,6.902 -2.658,5.995 -3.738,6.729 -3.738,6.729 c -1.295,1.338 0.474,2.632 0.474,2.632 4.672,3.564 -2.246,5.268 -2.246,5.268 -5.525,1.079 -11.136,-1.984 -11.136,-1.984 -10.491,-6.262 -2.719,-14.163 -2.719,-14.163 5.265,-5.611 15.541,-3.54 15.541,-3.54 9.758,1.556 11.572,8.764 11.572,8.764 1.336,6.434 -3.975,6.823 -3.975,6.823" />
    </g>
  </g>
</svg>
