<?xml version="1.0" encoding="UTF-8" standalone="no"?>
<!-- Created with Inkscape (http://www.inkscape.org/) -->

<svg
   xmlns:dc="http://purl.org/dc/elements/1.1/"
   xmlns:cc="http://creativecommons.org/ns#"
   xmlns:rdf="http://www.w3.org/1999/02/22-rdf-syntax-ns#"
   xmlns:svg="http://www.w3.org/2000/svg"
   xmlns="http://www.w3.org/2000/svg"
   xmlns:sodipodi="http://sodipodi.sourceforge.net/DTD/sodipodi-0.dtd"
   xmlns:inkscape="http://www.inkscape.org/namespaces/inkscape"
   width="48px"
   height="48px"
   id="svg3210"
   version="1.1"
   inkscape:version="0.48.4 r9943 custom"
   sodipodi:docname="foncier.svg">
  <defs
     id="defs3212" />
  <sodipodi:namedview
     id="base"
     pagecolor="#ffffff"
     bordercolor="#666666"
     borderopacity="1.0"
     inkscape:pageopacity="0.0"
     inkscape:pageshadow="2"
     inkscape:zoom="7"
     inkscape:cx="24"
     inkscape:cy="18.285714"
     inkscape:current-layer="layer1"
     showgrid="true"
     inkscape:grid-bbox="true"
     inkscape:document-units="px"
     inkscape:window-width="605"
     inkscape:window-height="601"
     inkscape:window-x="1600"
     inkscape:window-y="376"
     inkscape:window-maximized="0"
     showguides="true"
     inkscape:guide-bbox="true" />
  <metadata
     id="metadata3215">
    <rdf:RDF>
      <cc:Work
         rdf:about="">
        <dc:format>image/svg+xml</dc:format>
        <dc:type
           rdf:resource="http://purl.org/dc/dcmitype/StillImage" />
        <dc:title></dc:title>
      </cc:Work>
    </rdf:RDF>
  </metadata>
  <g
     id="layer1"
     inkscape:label="Layer 1"
     inkscape:groupmode="layer">
    <g
       id="g11082"
       transform="matrix(1.25,0,0,-1.25,15.382886,22.233353)">
      <path
         d="M 0,0 -4.623,2.672 C -4.789,2.767 -5.061,2.767 -5.225,2.668 l -1.791,-1.072 0,1.082 -1.097,0 0,-1.739 -0.741,-0.442 -0.822,-0.491 c -0.166,-0.099 -0.142,-0.179 0.049,-0.179 l 0.773,0 0,-3.262 7.858,0 0,3.262 0.947,0 C 0.145,-0.173 0.166,-0.095 0,0"
         style="fill:#cfcccd;fill-opacity:1;fill-rule:nonzero;stroke:none"
         id="path11084"
         inkscape:connector-curvature="0" />
    </g>
    <g
       id="g11086"
       transform="matrix(1.25,0,0,-1.25,29.550386,11.48131)">
      <path
         d="M 0,0 -4.623,2.671 C -4.789,2.766 -5.059,2.764 -5.225,2.665 l -1.791,-1.07 0,1.082 -1.097,0 0,-1.74 -0.741,-0.441 -0.822,-0.493 c -0.166,-0.097 -0.142,-0.177 0.051,-0.177 l 0.771,0 0,-3.26 7.858,0 0,3.26 0.949,0 C 0.145,-0.174 0.164,-0.096 0,0"
         style="fill:#cfcccd;fill-opacity:1;fill-rule:nonzero;stroke:none"
         id="path11088"
         inkscape:connector-curvature="0" />
    </g>
    <g
       id="g11090"
       transform="matrix(1.25,0,0,-1.25,43.795986,16.677609)">
      <path
         d="M 0,0 -4.621,2.669 C -4.789,2.765 -5.059,2.765 -5.223,2.666 l -1.791,-1.071 0,1.08 -1.099,0 0,-1.738 -0.739,-0.441 -0.002,0 -0.82,-0.492 c -0.166,-0.099 -0.142,-0.179 0.049,-0.179 l 0.771,0 0,-3.261 7.858,0 0,3.261 0.949,0 C 0.146,-0.175 0.166,-0.097 0,0"
         style="fill:#cfcccd;fill-opacity:1;fill-rule:nonzero;stroke:none"
         id="path11092"
         inkscape:connector-curvature="0" />
    </g>
    <path
       d="m 14.137786,31.829292 -9.8212001,0 0,-4.0762 9.8212001,0 0,4.0762 z"
       style="fill:#cfcccd;fill-opacity:1;fill-rule:nonzero;stroke:none"
       id="path11094"
       inkscape:connector-curvature="0" />
    <path
       d="m 14.137786,37.053092 -9.8212001,0 0,-4.0763 9.8212001,0 0,4.0763 z"
       style="fill:#cfcccd;fill-opacity:1;fill-rule:nonzero;stroke:none"
       id="path11096"
       inkscape:connector-curvature="0" />
    <path
       d="m 28.300286,21.080949 -9.8212,0 0,-4.076299 9.8212,0 0,4.076299 z"
       style="fill:#cfcccd;fill-opacity:1;fill-rule:nonzero;stroke:none"
       id="path11102"
       inkscape:connector-curvature="0" />
    <path
       d="m 28.300286,28.016435 -9.8212,0 0,-5.790486 9.8212,0 0,5.790486 z"
       style="fill:#cfcccd;fill-opacity:1;fill-rule:nonzero;stroke:none"
       id="path11104"
       inkscape:connector-curvature="0" />
    <g
       id="g11108"
       transform="matrix(1.25,0,0,-1.25,28.300386,28.612409)">
      <path
         d="m 0,0 0,1.08 -7.857,0 0,-3.261 6.98,0 C -0.699,-1.4 -0.4,-0.667 0,0"
         style="fill:#cfcccd;fill-opacity:1;fill-rule:nonzero;stroke:none"
         id="path11110"
         inkscape:connector-curvature="0" />
    </g>
    <g
       id="g11112"
       transform="matrix(1.25,0,0,-1.25,36.493686,24.006809)">
      <path
         d="m 0,0 c 1.836,0 3.518,-0.639 4.834,-1.703 l 0,3.148 -7.857,0 0,-2.061 C -2.096,-0.221 -1.074,0 0,0"
         style="fill:#cfcccd;fill-opacity:1;fill-rule:nonzero;stroke:none"
         id="path11114"
         inkscape:connector-curvature="0" />
    </g>
    <g
       id="g11116"
       transform="matrix(1.25,0,0,-1.25,26.969686,33.402609)">
      <path
         d="m 0,0 c 0,0.087 0.004,0.177 0.008,0.264 l -6.801,0 0,-3.261 7.424,0 C 0.227,-2.078 0,-1.065 0,0"
         style="fill:#cfcccd;fill-opacity:1;fill-rule:nonzero;stroke:none"
         id="path11118"
         inkscape:connector-curvature="0" />
    </g>
    <g
       id="g4604"
       transform="matrix(0.77678529,0,0,-0.79171078,39.049591,31.987739)">
      <path
         d="m -3.012,8.795 c -6.166,0 -11.183,-4.964 -11.183,-11.065 0,-6.103 5.017,-11.067 11.183,-11.067 6.166,0 11.18,4.964 11.18,11.067 0,6.101 -5.014,11.065 -11.18,11.065"
         style="fill:#cfcccd;fill-opacity:1;fill-rule:nonzero;stroke:none"
         id="path4606"
         inkscape:connector-curvature="0"
         sodipodi:nodetypes="csssc" />
    </g>
    <g
       id="g4036"
       style="fill:#ffffff"
       transform="matrix(-0.13152839,0,0,0.13152839,-2.0007053,-7.2266774)">
      <path
         d="m -327.794,319.122 c 0.815,0 1.482,-0.662 1.482,-1.484 0,-0.815 -0.667,-1.479 -1.482,-1.479 -0.82,0 -1.484,0.663 -1.484,1.479 0,0.822 0.664,1.484 1.484,1.484"
         id="path4038"
         style="fill:#ffffff"
         inkscape:connector-curvature="0" />
      <path
         d="m -337.205,325.218 c 0.819,0 1.483,-0.662 1.483,-1.48 0,-0.819 -0.664,-1.48 -1.483,-1.48 -0.82,0 -1.482,0.661 -1.482,1.48 0,0.818 0.663,1.48 1.482,1.48"
         id="path4040"
         style="fill:#ffffff"
         inkscape:connector-curvature="0" />
      <path
         d="m -332.855,328.836 c 0.819,0 1.483,-0.66 1.483,-1.479 0,-0.819 -0.664,-1.481 -1.483,-1.481 -0.815,0 -1.48,0.662 -1.48,1.481 0,0.819 0.665,1.479 1.48,1.479"
         id="path4042"
         style="fill:#ffffff"
         inkscape:connector-curvature="0" />
      <path
         d="m -337.033,331.316 c 0.819,0 1.484,-0.661 1.484,-1.482 0,-0.815 -0.665,-1.479 -1.484,-1.479 -0.816,0 -1.479,0.663 -1.479,1.479 0,0.821 0.663,1.482 1.479,1.482"
         id="path4044"
         style="fill:#ffffff"
         inkscape:connector-curvature="0" />
      <path
         d="m -344.348,324.696 c 0.818,0 1.482,-0.662 1.482,-1.484 0,-0.814 -0.665,-1.478 -1.482,-1.478 -0.817,0 -1.482,0.663 -1.482,1.478 -0.001,0.822 0.664,1.484 1.482,1.484"
         id="path4046"
         style="fill:#ffffff"
         inkscape:connector-curvature="0" />
      <path
         d="m -327.942,344.88 c 0.812,0 1.48,-0.66 1.48,-1.482 0,-0.816 -0.668,-1.479 -1.48,-1.479 -0.819,0 -1.484,0.662 -1.484,1.479 0,0.822 0.664,1.482 1.484,1.482"
         id="path4048"
         style="fill:#ffffff"
         inkscape:connector-curvature="0" />
      <path
         d="m -327.97,326.788 c 0.816,0 1.48,-0.663 1.48,-1.484 0,-0.815 -0.665,-1.477 -1.48,-1.477 -0.815,0 -1.483,0.661 -1.483,1.477 0,0.821 0.668,1.484 1.483,1.484"
         id="path4050"
         style="fill:#ffffff"
         inkscape:connector-curvature="0" />
      <path
         d="m -304.966,336.42 c 0.816,0 1.48,-0.661 1.48,-1.483 0,-0.815 -0.665,-1.478 -1.48,-1.478 -0.815,0 -1.484,0.662 -1.484,1.478 0,0.822 0.668,1.483 1.484,1.483"
         id="path4052"
         style="fill:#ffffff"
         inkscape:connector-curvature="0" />
      <path
         d="m -299.982,346.628 c 0.815,0 1.48,-0.662 1.48,-1.483 0,-0.816 -0.665,-1.478 -1.48,-1.478 -0.815,0 -1.484,0.661 -1.484,1.478 0,0.821 0.668,1.483 1.484,1.483"
         id="path4054"
         style="fill:#ffffff"
         inkscape:connector-curvature="0" />
      <path
         d="m -299.503,336.42 c 0.816,0 1.48,-0.661 1.48,-1.483 0,-0.815 -0.665,-1.478 -1.48,-1.478 -0.815,0 -1.484,0.662 -1.484,1.478 0,0.822 0.669,1.483 1.484,1.483"
         id="path4056"
         style="fill:#ffffff"
         inkscape:connector-curvature="0" />
      <path
         d="m -301.803,331.819 c 0.815,0 1.48,-0.662 1.48,-1.483 0,-0.815 -0.665,-1.477 -1.48,-1.477 -0.816,0 -1.484,0.661 -1.484,1.477 0,0.821 0.668,1.483 1.484,1.483"
         id="path4058"
         style="fill:#ffffff"
         inkscape:connector-curvature="0" />
      <path
         d="m -294.04,333.401 c 0.816,0 1.48,-0.662 1.48,-1.484 0,-0.815 -0.664,-1.478 -1.48,-1.478 -0.815,0 -1.483,0.662 -1.483,1.478 0,0.822 0.668,1.484 1.483,1.484"
         id="path4060"
         style="fill:#ffffff"
         inkscape:connector-curvature="0" />
      <path
         d="m -331.456,323.477 c 0.82,0 1.484,-0.662 1.484,-1.483 0,-0.815 -0.664,-1.478 -1.484,-1.478 -0.818,0 -1.482,0.662 -1.482,1.478 0,0.82 0.664,1.483 1.482,1.483"
         id="path4062"
         style="fill:#ffffff"
         inkscape:connector-curvature="0" />
      <path
         d="m -343.214,348.915 c -0.154,0 -0.311,-0.026 -0.465,-0.08 -0.726,-0.257 -1.107,-1.054 -0.85,-1.779 0.12,-0.34 1.242,-3.348 3.7,-4.462 1.807,-0.817 3.523,-0.9 5.104,-0.245 2.831,1.174 4.045,4.345 4.096,4.479 0.27,0.721 -0.096,1.525 -0.816,1.794 -0.724,0.271 -1.525,-0.094 -1.795,-0.815 -0.006,-0.017 -0.857,-2.185 -2.566,-2.886 -0.848,-0.348 -1.787,-0.278 -2.872,0.214 -1.181,0.534 -2.021,2.28 -2.222,2.85 -0.203,0.571 -0.74,0.93 -1.314,0.93 l 0,0 z"
         id="path4064"
         style="fill:#ffffff"
         inkscape:connector-curvature="0" />
    </g>
    <path
       inkscape:connector-curvature="0"
       style="fill:#ffffff"
       id="path4068"
       d="m 34.567477,38.736083 c 0.328163,0 0.629232,-0.215443 0.84678,-0.592009 0.217284,0.376566 0.518353,0.592009 0.846779,0.592009 0.328427,0 0.629495,-0.215443 0.846911,-0.592009 0.217548,0.376566 0.518486,0.592009 0.846912,0.592009 0.100356,0 0.181641,-0.08128 0.181641,-0.181772 0,-0.100225 -0.08128,-0.181509 -0.181641,-0.181509 -0.261084,0 -0.5198,-0.279104 -0.675398,-0.728536 -0.02525,-0.07312 -0.09417,-0.122321 -0.171645,-0.122321 -0.07747,0 -0.146128,0.04919 -0.171644,0.122321 -0.155467,0.449432 -0.414052,0.728536 -0.675399,0.728536 -0.260952,0 -0.5198,-0.279104 -0.675267,-0.728536 -0.02538,-0.07312 -0.09431,-0.122321 -0.171644,-0.122321 -0.07734,0 -0.14626,0.04919 -0.171645,0.122321 -0.155729,0.449432 -0.414182,0.728536 -0.675266,0.728536 -0.261215,0 -0.520064,-0.279104 -0.67553,-0.728536 -0.02539,-0.07312 -0.09417,-0.122321 -0.171776,-0.122321 -0.07721,0 -0.14626,0.04919 -0.171382,0.122321 -0.146785,0.424047 -0.391296,0.702493 -0.638307,0.726562 -0.09983,0.0097 -0.172565,0.09852 -0.162832,0.198477 0.0099,0.0997 0.09825,0.172039 0.198476,0.162832 0.303305,-0.02959 0.57399,-0.238461 0.774571,-0.587537 0.217942,0.376434 0.519011,0.591483 0.847306,0.591483 l 0,0 z" />
    <g
       style="fill:#4d4d4d"
       id="g4070"
       transform="matrix(-0.13152839,0,0,0.13152839,-0.49851781,-6.8511309)">
      <path
         inkscape:connector-curvature="0"
         style="fill:#ffffff"
         id="path4072"
         d="m -290.597,275.185 h -5.815 v 27.717 c -5.251,0.991 -13.895,3.981 -21.249,12.963 -3.765,4.599 -6.015,11.68 -6.974,15.257 -0.91,-0.551 -2.123,-1.024 -3.6,-1.024 -3.098,0 -4.651,1.46 -4.817,1.627 -0.545,0.544 -0.546,1.427 -0.002,1.972 0.545,0.546 1.427,0.544 1.972,0.002 0.008,-0.009 0.934,-0.813 2.848,-0.813 2.035,0 3.268,1.53 3.313,1.587 0.267,0.349 0.679,0.547 1.107,0.547 0.102,0 0.205,-0.011 0.308,-0.034 0.531,-0.12 0.944,-0.539 1.057,-1.071 0.022,-0.105 2.281,-10.582 6.947,-16.282 6.517,-7.958 14.247,-10.816 19.091,-11.845 v 3.207 c -3.981,0.888 -9.71,3.415 -15.325,10.326 -5.078,6.252 -7.549,15.583 -8.683,21.631 -1.313,-2.503 -3.465,-4.855 -6.912,-4.855 -0.03,0 -0.062,0 -0.093,0.002 -2.16,0.023 -4.087,1.152 -5.352,2.127 -1.197,-2.106 -3.481,-4.315 -7,-3.754 -5.256,0.841 -6.164,5.104 -6.2,5.284 -0.15,0.756 0.34,1.489 1.095,1.64 0.754,0.156 1.489,-0.34 1.64,-1.094 0.005,-0.025 0.543,-2.538 3.905,-3.076 3.408,-0.557 4.664,3.546 4.714,3.715 0.141,0.487 0.535,0.859 1.029,0.972 0.496,0.116 1.01,-0.052 1.349,-0.429 0.023,-0.025 2.372,-2.568 4.852,-2.598 0.017,0 0.035,0 0.052,0 4.802,0 6.05,8.245 6.062,8.33 0.099,0.687 0.689,1.193 1.379,1.193 0.013,0 0.026,0 0.039,0 0.707,-0.019 1.288,-0.564 1.351,-1.268 0.016,-0.171 1.594,-17.021 8.938,-26.062 2.938,-3.616 5.871,-5.896 8.494,-7.34 -2.473,2.054 -4.568,4.538 -6.24,7.474 -5.841,10.257 -4.931,26.425 -4.89,27.107 0.038,0.619 0.502,1.127 1.116,1.222 0.067,0.011 0.133,0.015 0.2,0.015 0.539,0 1.033,-0.331 1.23,-0.848 0.019,-0.048 1.897,-4.876 5.403,-6.628 3.472,-1.735 6.76,-0.791 6.787,-0.782 0.693,0.209 1.433,-0.177 1.647,-0.871 0.215,-0.695 -0.177,-1.432 -0.872,-1.646 -0.174,-0.055 -4.293,-1.279 -8.74,0.943 -1.735,0.867 -3.122,2.252 -4.173,3.63 0.151,-5.493 0.991,-14.533 4.582,-20.839 2.173,-3.818 5.031,-6.741 8.616,-8.882 v 7.437 h 5.815 v -4.734 h 0.028 v -36.532 h -0.028 v -4.62 z" />
      <polygon
         style="fill:#ffffff"
         id="polygon4074"
         points="-249.633,316.335 -249.633,354.999 -246,354.999 -246,259.083 -249.633,259.083 -249.633,279.803 -288.303,279.803 -288.303,316.335 " />
    </g>
    <text
       xml:space="preserve"
       style="font-size:10px;font-style:normal;font-weight:normal;text-align:center;line-height:125%;letter-spacing:0px;word-spacing:0px;text-anchor:middle;fill:#000000;fill-opacity:1;stroke:none;font-family:Sans"
       x="23.142857"
       y="30.285717"
       id="text12487"
       sodipodi:linespacing="125%"><tspan
         sodipodi:role="line"
         id="tspan12489"
         x="23.142857"
         y="30.285717"
         style="fill:#ffffff">%</tspan></text>
  </g>
</svg>
