<?xml version="1.0" encoding="UTF-8" standalone="no"?>
<!-- Created with Inkscape (http://www.inkscape.org/) -->

<svg
   xmlns:dc="http://purl.org/dc/elements/1.1/"
   xmlns:cc="http://creativecommons.org/ns#"
   xmlns:rdf="http://www.w3.org/1999/02/22-rdf-syntax-ns#"
   xmlns:svg="http://www.w3.org/2000/svg"
   xmlns="http://www.w3.org/2000/svg"
   xmlns:sodipodi="http://sodipodi.sourceforge.net/DTD/sodipodi-0.dtd"
   xmlns:inkscape="http://www.inkscape.org/namespaces/inkscape"
   width="48px"
   height="48px"
   id="svg3210"
   version="1.1"
   inkscape:version="0.48.4 r9939"
   sodipodi:docname="assainissement-pourcent.svg">
  <defs
     id="defs3212" />
  <sodipodi:namedview
     id="base"
     pagecolor="#ffffff"
     bordercolor="#666666"
     borderopacity="1.0"
     inkscape:pageopacity="0.0"
     inkscape:pageshadow="2"
     inkscape:zoom="14"
     inkscape:cx="13.341399"
     inkscape:cy="23.779851"
     inkscape:current-layer="layer1"
     showgrid="true"
     inkscape:grid-bbox="true"
     inkscape:document-units="px"
     inkscape:window-width="1680"
     inkscape:window-height="1026"
     inkscape:window-x="1920"
     inkscape:window-y="24"
     inkscape:window-maximized="1"
     showguides="true"
     inkscape:guide-bbox="true" />
  <metadata
     id="metadata3215">
    <rdf:RDF>
      <cc:Work
         rdf:about="">
        <dc:format>image/svg+xml</dc:format>
        <dc:type
           rdf:resource="http://purl.org/dc/dcmitype/StillImage" />
        <dc:title />
      </cc:Work>
    </rdf:RDF>
  </metadata>
  <g
     id="layer1"
     inkscape:label="Layer 1"
     inkscape:groupmode="layer">
    <g
       id="g3025">
      <g
         style="fill:#cfcccd"
         transform="matrix(1.25,0,0,-1.25,15.382886,22.233353)"
         id="g11082">
        <path
           inkscape:connector-curvature="0"
           id="path11084"
           style="fill:#cfcccd;fill-opacity:1;fill-rule:nonzero;stroke:none"
           d="M 0,0 -4.623,2.672 C -4.789,2.767 -5.061,2.767 -5.225,2.668 l -1.791,-1.072 0,1.082 -1.097,0 0,-1.739 -0.741,-0.442 -0.822,-0.491 c -0.166,-0.099 -0.142,-0.179 0.049,-0.179 l 0.773,0 0,-3.262 7.858,0 0,3.262 0.947,0 C 0.145,-0.173 0.166,-0.095 0,0" />
      </g>
      <g
         style="fill:#cfcccd"
         transform="matrix(1.25,0,0,-1.25,29.550386,11.48131)"
         id="g11086">
        <path
           inkscape:connector-curvature="0"
           id="path11088"
           style="fill:#cfcccd;fill-opacity:1;fill-rule:nonzero;stroke:none"
           d="M 0,0 -4.623,2.671 C -4.789,2.766 -5.059,2.764 -5.225,2.665 l -1.791,-1.07 0,1.082 -1.097,0 0,-1.74 -0.741,-0.441 -0.822,-0.493 c -0.166,-0.097 -0.142,-0.177 0.051,-0.177 l 0.771,0 0,-3.26 7.858,0 0,3.26 0.949,0 C 0.145,-0.174 0.164,-0.096 0,0" />
      </g>
      <g
         style="fill:#cfcccd"
         transform="matrix(1.25,0,0,-1.25,43.795986,16.677609)"
         id="g11090">
        <path
           inkscape:connector-curvature="0"
           id="path11092"
           style="fill:#cfcccd;fill-opacity:1;fill-rule:nonzero;stroke:none"
           d="M 0,0 -4.621,2.669 C -4.789,2.765 -5.059,2.765 -5.223,2.666 l -1.791,-1.071 0,1.08 -1.099,0 0,-1.738 -0.739,-0.441 -0.002,0 -0.82,-0.492 c -0.166,-0.099 -0.142,-0.179 0.049,-0.179 l 0.771,0 0,-3.261 7.858,0 0,3.261 0.949,0 C 0.146,-0.175 0.166,-0.097 0,0" />
      </g>
      <path
         inkscape:connector-curvature="0"
         id="path11094"
         style="fill:#cfcccd;fill-opacity:1;fill-rule:nonzero;stroke:none"
         d="m 14.137786,31.829292 -9.8212001,0 0,-4.0762 9.8212001,0 0,4.0762 z" />
      <path
         inkscape:connector-curvature="0"
         id="path11096"
         style="fill:#cfcccd;fill-opacity:1;fill-rule:nonzero;stroke:none"
         d="m 14.137786,37.053092 -9.8212001,0 0,-4.0763 9.8212001,0 0,4.0763 z" />
      <path
         inkscape:connector-curvature="0"
         id="path11102"
         style="fill:#cfcccd;fill-opacity:1;fill-rule:nonzero;stroke:none"
         d="m 28.300286,21.080949 -9.8212,0 0,-4.076299 9.8212,0 0,4.076299 z" />
      <path
         id="path11104"
         d="M 18.46875 22.21875 L 18.46875 27.25 L 18.46875 28.03125 L 18.46875 31.34375 L 27.21875 31.34375 C 27.44125 30.3675 27.8125 29.45875 28.3125 28.625 L 28.3125 28.03125 L 28.3125 27.25 L 28.3125 22.21875 L 18.46875 22.21875 z M 20.625 22.875 C 21.13932 22.875007 21.537758 23.048185 21.84375 23.40625 C 22.149736 23.761075 22.312496 24.235032 22.3125 24.84375 C 22.312496 25.458989 22.149736 25.957687 21.84375 26.3125 C 21.541013 26.667321 21.142575 26.843753 20.625 26.84375 C 20.10742 26.843753 19.677733 26.667321 19.375 26.3125 C 19.07552 25.954431 18.937499 25.455734 18.9375 24.84375 C 18.937499 24.238287 19.103515 23.76433 19.40625 23.40625 C 19.708983 23.048185 20.110675 22.875007 20.625 22.875 z M 25.03125 22.875 L 25.8125 22.875 L 21.25 30.4375 L 20.46875 30.4375 L 25.03125 22.875 z M 20.625 23.46875 C 20.34505 23.468757 20.131509 23.599616 19.96875 23.84375 C 19.809243 24.084642 19.718749 24.420579 19.71875 24.84375 C 19.718749 25.273442 19.809242 25.60287 19.96875 25.84375 C 20.128254 26.08464 20.341794 26.218754 20.625 26.21875 C 20.9082 26.218754 21.121742 26.08464 21.28125 25.84375 C 21.444007 25.60287 21.531247 25.273442 21.53125 24.84375 C 21.531247 24.423834 21.444011 24.087897 21.28125 23.84375 C 21.118487 23.599616 20.904945 23.468757 20.625 23.46875 z M 25.65625 26.46875 C 26.170565 26.468754 26.572257 26.641931 26.875 27 C 27.177726 27.358076 27.343741 27.828778 27.34375 28.4375 C 27.343741 29.046225 27.180981 29.548178 26.875 29.90625 C 26.572258 30.261068 26.16731 30.437499 25.65625 30.4375 C 25.13541 30.437499 24.740229 30.261068 24.4375 29.90625 C 24.13476 29.548178 23.968744 29.046225 23.96875 28.4375 C 23.968744 27.825523 24.13476 27.354821 24.4375 27 C 24.743484 26.641931 25.138665 26.468754 25.65625 26.46875 z M 25.65625 27.0625 C 25.37304 27.062503 25.162753 27.196618 25 27.4375 C 24.840488 27.678388 24.749994 28.007814 24.75 28.4375 C 24.749994 28.860678 24.840492 29.193361 25 29.4375 C 25.162753 29.678386 25.37304 29.812501 25.65625 29.8125 C 25.932935 29.812501 26.152987 29.678386 26.3125 29.4375 C 26.475252 29.193361 26.562491 28.860678 26.5625 28.4375 C 26.562491 28.01107 26.475251 27.678388 26.3125 27.4375 C 26.152987 27.193363 25.932935 27.062503 25.65625 27.0625 z "
         style="fill:#cfcccd;fill-opacity:1;fill-rule:nonzero;stroke:none" />
      <g
         style="fill:#cfcccd"
         transform="matrix(1.25,0,0,-1.25,28.300386,28.612409)"
         id="g11108" />
      <g
         style="fill:#cfcccd"
         transform="matrix(1.25,0,0,-1.25,36.493686,24.006809)"
         id="g11112">
        <path
           inkscape:connector-curvature="0"
           id="path11114"
           style="fill:#cfcccd;fill-opacity:1;fill-rule:nonzero;stroke:none"
           d="m 0,0 c 1.836,0 3.518,-0.639 4.834,-1.703 l 0,3.148 -7.857,0 0,-2.061 C -2.096,-0.221 -1.074,0 0,0" />
      </g>
      <g
         style="fill:#cfcccd"
         transform="matrix(1.25,0,0,-1.25,26.969686,33.402609)"
         id="g11116">
        <path
           inkscape:connector-curvature="0"
           id="path11118"
           style="fill:#cfcccd;fill-opacity:1;fill-rule:nonzero;stroke:none"
           d="m 0,0 c 0,0.087 0.004,0.177 0.008,0.264 l -6.801,0 0,-3.261 7.424,0 C 0.227,-2.078 0,-1.065 0,0" />
      </g>
      <g
         style="fill:#cfcccd"
         transform="matrix(0.77678529,0,0,-0.79171078,39.049591,31.987739)"
         id="g4604">
        <path
           id="path4606"
           transform="matrix(1.287357,0,0,-1.2630875,-50.270765,40.403314)"
           d="M 36.71875 25.03125 C 31.929092 25.03125 28.03125 28.951023 28.03125 33.78125 C 28.03125 38.613061 31.929092 42.53125 36.71875 42.53125 C 40.132316 42.53125 43.081478 40.552417 44.5 37.65625 C 44.419384 37.584091 44.297565 37.527614 44.125 37.5 C 43.676751 37.426739 43.506576 37.977772 43.5 38 C 43.481454 38.064054 43.439975 38.110137 43.375 38.125 C 43.309762 38.140257 43.232088 38.112086 43.1875 38.0625 C 43.184475 38.059212 42.88869 37.722696 42.5625 37.71875 C 41.930901 37.71875 41.751578 38.80132 41.75 38.8125 C 41.736979 38.90286 41.653255 38.96875 41.5625 38.96875 C 41.469509 38.966251 41.414536 38.905096 41.40625 38.8125 C 41.404146 38.790009 41.184694 36.564148 40.21875 35.375 C 39.83232 34.899393 39.438749 34.596177 39.09375 34.40625 C 39.41902 34.676409 39.717585 35.020083 39.9375 35.40625 C 40.705757 36.755337 40.567893 38.879048 40.5625 38.96875 C 40.557502 39.050166 40.487008 39.112505 40.40625 39.125 C 40.335356 39.125 40.244661 39.068 40.21875 39 C 40.216251 38.993687 39.992389 38.386688 39.53125 38.15625 C 39.074583 37.928048 38.628551 38.030066 38.625 38.03125 C 38.533851 38.058739 38.434397 38.028781 38.40625 37.9375 C 38.377971 37.846088 38.439838 37.746897 38.53125 37.71875 C 38.554136 37.711516 39.102593 37.551494 39.6875 37.84375 C 39.915702 37.957785 40.080514 38.131254 40.21875 38.3125 C 40.198889 37.590015 40.097318 36.391918 39.625 35.5625 C 39.339189 35.060325 38.971529 34.687852 38.5 34.40625 L 38.5 35.375 L 37.71875 35.375 L 37.71875 34.75 L 37.71875 29.9375 L 37.71875 29.34375 L 38.5 29.34375 L 38.5 33 C 39.190656 33.130345 40.31399 33.506112 41.28125 34.6875 C 41.776454 35.292399 42.061364 36.217023 42.1875 36.6875 C 42.307191 36.615028 42.493233 36.5625 42.6875 36.5625 C 43.094975 36.5625 43.290666 36.759285 43.3125 36.78125 C 43.384183 36.852801 43.384051 36.959567 43.3125 37.03125 C 43.240817 37.103065 43.134183 37.102538 43.0625 37.03125 C 43.061448 37.030066 42.939245 36.9375 42.6875 36.9375 C 42.41984 36.9375 42.255919 37.148753 42.25 37.15625 C 42.214882 37.202153 42.150044 37.21875 42.09375 37.21875 C 42.080334 37.21875 42.076047 37.221775 42.0625 37.21875 C 41.992658 37.202967 41.921113 37.132473 41.90625 37.0625 C 41.903356 37.04869 41.613711 35.687212 41 34.9375 C 40.142829 33.890797 39.137124 33.510343 38.5 33.375 L 38.5 33.78125 C 39.023615 33.898047 39.761468 34.247257 40.5 35.15625 C 41.167901 35.978565 41.507097 37.204516 41.65625 38 C 41.828947 37.670784 42.109122 37.34375 42.5625 37.34375 C 42.846601 37.346775 43.114867 37.49676 43.28125 37.625 C 43.438689 37.348001 43.724652 37.082463 44.1875 37.15625 C 44.38327 37.187575 44.510913 37.263515 44.625 37.34375 C 45.109522 36.252543 45.40625 35.052428 45.40625 33.78125 C 45.40625 28.951023 41.508408 25.03125 36.71875 25.03125 z M 31.84375 27.21875 L 32.34375 27.21875 L 32.34375 29.9375 L 37.40625 29.9375 L 37.40625 34.75 L 32.34375 34.75 L 32.34375 39.84375 L 31.84375 39.84375 L 31.84375 27.21875 z "
           style="fill:#cfcccd;fill-opacity:1;fill-rule:nonzero;stroke:none" />
      </g>
      <path
         d="m 34.567477,38.736083 c 0.328163,0 0.629232,-0.215443 0.84678,-0.592009 0.217284,0.376566 0.518353,0.592009 0.846779,0.592009 0.328427,0 0.629495,-0.215443 0.846911,-0.592009 0.217548,0.376566 0.518486,0.592009 0.846912,0.592009 0.100356,0 0.181641,-0.08128 0.181641,-0.181772 0,-0.100225 -0.08128,-0.181509 -0.181641,-0.181509 -0.261084,0 -0.5198,-0.279104 -0.675398,-0.728536 -0.02525,-0.07312 -0.09417,-0.122321 -0.171645,-0.122321 -0.07747,0 -0.146128,0.04919 -0.171644,0.122321 -0.155467,0.449432 -0.414052,0.728536 -0.675399,0.728536 -0.260952,0 -0.5198,-0.279104 -0.675267,-0.728536 -0.02538,-0.07312 -0.09431,-0.122321 -0.171644,-0.122321 -0.07734,0 -0.14626,0.04919 -0.171645,0.122321 -0.155729,0.449432 -0.414182,0.728536 -0.675266,0.728536 -0.261215,0 -0.520064,-0.279104 -0.67553,-0.728536 -0.02539,-0.07312 -0.09417,-0.122321 -0.171776,-0.122321 -0.07721,0 -0.14626,0.04919 -0.171382,0.122321 -0.146785,0.424047 -0.391296,0.702493 -0.638307,0.726562 -0.09983,0.0097 -0.172565,0.09852 -0.162832,0.198477 0.0099,0.0997 0.09825,0.172039 0.198476,0.162832 0.303305,-0.02959 0.57399,-0.238461 0.774571,-0.587537 0.217942,0.376434 0.519011,0.591483 0.847306,0.591483 l 0,0 z"
         id="path4068"
         style="fill:#cfcccd"
         inkscape:connector-curvature="0" />
      <g
         transform="matrix(-0.13152839,0,0,0.13152839,-0.49851781,-6.8511309)"
         id="g4070"
         style="fill:#4d4d4d" />
      <g
         id="text12487"
         style="font-size:10px;font-style:normal;font-weight:normal;text-align:center;line-height:125%;letter-spacing:0px;word-spacing:0px;text-anchor:middle;fill:#ffffff;fill-opacity:1;stroke:none;font-family:Sans" />
    </g>
  </g>
</svg>
