<?xml version="1.0" encoding="UTF-8" standalone="no"?>
<!-- Created with Inkscape (http://www.inkscape.org/) -->

<svg
   xmlns:dc="http://purl.org/dc/elements/1.1/"
   xmlns:cc="http://creativecommons.org/ns#"
   xmlns:rdf="http://www.w3.org/1999/02/22-rdf-syntax-ns#"
   xmlns:svg="http://www.w3.org/2000/svg"
   xmlns="http://www.w3.org/2000/svg"
   xmlns:sodipodi="http://sodipodi.sourceforge.net/DTD/sodipodi-0.dtd"
   xmlns:inkscape="http://www.inkscape.org/namespaces/inkscape"
   width="48px"
   height="48px"
   id="svg28083"
   version="1.1"
   inkscape:version="0.48.4 r9943 custom"
   sodipodi:docname="diplome-femme.svg">
  <defs
     id="defs28085" />
  <sodipodi:namedview
     id="base"
     pagecolor="#ffffff"
     bordercolor="#666666"
     borderopacity="1.0"
     inkscape:pageopacity="0.0"
     inkscape:pageshadow="2"
     inkscape:zoom="7"
     inkscape:cx="32.318076"
     inkscape:cy="24"
     inkscape:current-layer="layer1"
     showgrid="true"
     inkscape:grid-bbox="true"
     inkscape:document-units="px"
     inkscape:window-width="651"
     inkscape:window-height="653"
     inkscape:window-x="1333"
     inkscape:window-y="295"
     inkscape:window-maximized="0" />
  <metadata
     id="metadata28088">
    <rdf:RDF>
      <cc:Work
         rdf:about="">
        <dc:format>image/svg+xml</dc:format>
        <dc:type
           rdf:resource="http://purl.org/dc/dcmitype/StillImage" />
        <dc:title></dc:title>
      </cc:Work>
    </rdf:RDF>
  </metadata>
  <g
     id="layer1"
     inkscape:label="Layer 1"
     inkscape:groupmode="layer">
    <g
       transform="matrix(1.25,0,0,-1.25,28.129268,22.858638)"
       id="g5193">
      <path
         inkscape:connector-curvature="0"
         id="path5195"
         style="fill:#cfcccd;fill-opacity:1;fill-rule:nonzero;stroke:none"
         d="m 0,0 c 0,-1.668 -1.354,-3.021 -3.023,-3.021 -1.67,0 -3.024,1.353 -3.024,3.021 0,1.671 1.354,3.023 3.024,3.023 C -1.354,3.023 0,1.671 0,0" />
    </g>
    <g
       transform="matrix(1.25,0,0,-1.25,12.758167,11.555018)"
       id="g5197">
      <path
         inkscape:connector-curvature="0"
         id="path5199"
         style="fill:#cfcccd;fill-opacity:1;fill-rule:nonzero;stroke:none"
         d="m 0,0 c -0.98,0 -2.275,-0.186 -2.863,-1.067 -0.715,-1.067 -0.223,-2.968 1.342,-5.209 1.697,-2.436 4.433,-4.974 7.703,-7.155 4.306,-2.869 8.916,-4.65 12.031,-4.65 0.982,0 2.277,0.184 2.863,1.062 0.713,1.07 0.225,2.97 -1.34,5.211 -1.699,2.435 -4.433,4.975 -7.703,7.155 C 7.727,-1.784 3.113,0 0,0 m 18.213,-19.294 c -3.391,0 -8.141,1.814 -12.701,4.855 -3.395,2.261 -6.246,4.913 -8.028,7.466 -1.892,2.716 -2.373,5.05 -1.355,6.58 0.699,1.05 2.039,1.605 3.871,1.605 3.393,0 8.141,-1.816 12.705,-4.857 3.395,-2.26 6.242,-4.913 8.027,-7.466 1.891,-2.713 2.373,-5.051 1.352,-6.577 -0.699,-1.052 -2.037,-1.606 -3.871,-1.606" />
    </g>
    <g
       transform="matrix(1.25,0,0,-1.25,35.541468,11.849148)"
       id="g5201">
      <path
         inkscape:connector-curvature="0"
         id="path5203"
         style="fill:#cfcccd;fill-opacity:1;fill-rule:nonzero;stroke:none"
         d="m 0,0 c -3.105,0 -7.676,-1.665 -11.928,-4.344 -3.328,-2.093 -6.127,-4.563 -7.886,-6.951 -1.623,-2.203 -2.163,-4.087 -1.475,-5.176 0.59,-0.941 1.986,-1.139 3.049,-1.139 3.107,0 7.677,1.663 11.931,4.341 3.327,2.094 6.123,4.563 7.885,6.951 1.625,2.204 2.162,4.09 1.477,5.175 C 2.457,-0.199 1.064,0 0,0 m -18.24,-18.823 c -1.963,0 -3.375,0.59 -4.076,1.706 -0.981,1.555 -0.438,3.878 1.525,6.541 1.85,2.508 4.766,5.085 8.217,7.26 4.504,2.836 9.205,4.529 12.574,4.529 1.963,0 3.375,-0.592 4.08,-1.709 0.977,-1.555 0.438,-3.876 -1.525,-6.54 -1.85,-2.509 -4.766,-5.085 -8.217,-7.258 -4.506,-2.838 -9.207,-4.529 -12.578,-4.529" />
    </g>
    <g
       transform="matrix(1.25,0,0,-1.25,24.142568,4.8765179)"
       id="g5205">
      <path
         inkscape:connector-curvature="0"
         id="path5207"
         style="fill:#cfcccd;fill-opacity:1;fill-rule:nonzero;stroke:none"
         d="m 0,0 c -2.547,0 -5.273,-5.779 -5.273,-14.383 0,-8.604 2.726,-14.385 5.273,-14.385 2.547,0 5.273,5.781 5.273,14.385 C 5.273,-5.779 2.547,0 0,0 m 0,-29.98 c -3.639,0 -6.486,6.851 -6.486,15.597 0,8.746 2.847,15.594 6.486,15.594 3.637,0 6.486,-6.848 6.486,-15.594 C 6.486,-23.129 3.637,-29.98 0,-29.98" />
    </g>
  </g>
</svg>
