<?xml version="1.0" encoding="UTF-8" standalone="no"?>
<!-- Created with Inkscape (http://www.inkscape.org/) -->

<svg
   xmlns:dc="http://purl.org/dc/elements/1.1/"
   xmlns:cc="http://creativecommons.org/ns#"
   xmlns:rdf="http://www.w3.org/1999/02/22-rdf-syntax-ns#"
   xmlns:svg="http://www.w3.org/2000/svg"
   xmlns="http://www.w3.org/2000/svg"
   xmlns:sodipodi="http://sodipodi.sourceforge.net/DTD/sodipodi-0.dtd"
   xmlns:inkscape="http://www.inkscape.org/namespaces/inkscape"
   width="48px"
   height="48px"
   id="svg28083"
   version="1.1"
   inkscape:version="0.48.4 r9943 custom"
   sodipodi:docname="bateau-voile.svg">
  <defs
     id="defs28085">
    <clipPath
       clipPathUnits="userSpaceOnUse"
       id="clipPath4901">
      <path
         inkscape:connector-curvature="0"
         d="m 315.748,1648.19 0.773,0 0,-0.63 -0.773,0 0,0.63 z"
         id="path4903" />
    </clipPath>
    <clipPath
       clipPathUnits="userSpaceOnUse"
       id="clipPath4905">
      <path
         inkscape:connector-curvature="0"
         d="m 315.759,1648.18 0.762,0 0,-0.62 -0.762,0 0,0.62 z"
         id="path4907" />
    </clipPath>
    <clipPath
       clipPathUnits="userSpaceOnUse"
       id="clipPath4909">
      <path
         inkscape:connector-curvature="0"
         d="m 315.748,1648.19 0.011,0 0,-0.01 -0.011,0 0,0.01 z"
         id="path4911" />
    </clipPath>
    <clipPath
       clipPathUnits="userSpaceOnUse"
       id="clipPath4857">
      <path
         inkscape:connector-curvature="0"
         d="m 327.146,1644.07 0.45,0 0,-0.02 -0.45,0 0,0.02 z"
         id="path4859" />
    </clipPath>
    <clipPath
       clipPathUnits="userSpaceOnUse"
       id="clipPath4861">
      <path
         inkscape:connector-curvature="0"
         d="m 327.146,1644.07 0.446,0 0,-0.02 -0.446,0 0,0.02 z"
         id="path4863" />
    </clipPath>
    <clipPath
       clipPathUnits="userSpaceOnUse"
       id="clipPath4865">
      <path
         inkscape:connector-curvature="0"
         d="m 327.592,1644.05 0.004,0 0,0 -0.004,0 z"
         id="path4867" />
    </clipPath>
  </defs>
  <sodipodi:namedview
     id="base"
     pagecolor="#ffffff"
     bordercolor="#666666"
     borderopacity="1.0"
     inkscape:pageopacity="0.0"
     inkscape:pageshadow="2"
     inkscape:zoom="7"
     inkscape:cx="8.336565"
     inkscape:cy="-10.285715"
     inkscape:current-layer="layer1"
     showgrid="true"
     inkscape:grid-bbox="true"
     inkscape:document-units="px"
     inkscape:window-width="651"
     inkscape:window-height="653"
     inkscape:window-x="1333"
     inkscape:window-y="273"
     inkscape:window-maximized="0" />
  <metadata
     id="metadata28088">
    <rdf:RDF>
      <cc:Work
         rdf:about="">
        <dc:format>image/svg+xml</dc:format>
        <dc:type
           rdf:resource="http://purl.org/dc/dcmitype/StillImage" />
        <dc:title />
      </cc:Work>
    </rdf:RDF>
  </metadata>
  <g
     id="layer1"
     inkscape:label="Layer 1"
     inkscape:groupmode="layer">
    <g
       transform="matrix(1.25,0,0,-1.25,37.920144,35.082282)"
       id="g6705"
       style="fill:#cfcccd">
      <path
         inkscape:connector-curvature="0"
         id="path6707"
         style="fill:#cfcccd;fill-opacity:1;fill-rule:nonzero;stroke:none"
         d="m 0,0 c -0.406,0.074 -6.781,1.328 -6.781,1.328 -0.553,0.294 -0.26,1.362 -0.26,1.362 0.26,0.922 0.738,12.455 0.738,12.455 0.112,1.326 0.848,0 0.848,0 C -4.754,14.408 0.811,1.031 0.811,1.031 1.619,-0.405 0,0 0,0" />
    </g>
    <g
       transform="matrix(1.25,0,0,-1.25,24.929344,37.129382)"
       id="g6709"
       style="fill:#cfcccd">
      <path
         inkscape:connector-curvature="0"
         id="path6711"
         style="fill:#cfcccd;fill-opacity:1;fill-rule:nonzero;stroke:none"
         d="m 0,0 -4.477,0.717 c 0,0 -1.546,0 -0.664,1.603 0,0 5.364,15.365 5.916,21.39 0,0 0.166,1.602 0.387,0.827 l 0,-23.598 C 1.162,0.939 1.217,-0.167 0,0" />
    </g>
    <g
       transform="matrix(1.25,0,0,-1.25,40.671444,40.528982)"
       id="g6713"
       style="fill:#cfcccd">
      <path
         inkscape:connector-curvature="0"
         id="path6715"
         style="fill:#cfcccd;fill-opacity:1;fill-rule:nonzero;stroke:none"
         d="m 0,0 c -2.502,-0.486 -11.189,-1.794 -28.5,-0.771 l -0.178,0.891 c 0,0 0.223,0.277 0.664,0.221 0,0 0.42,-0.034 1.16,-0.083 l 0,1.621 c 0,0.464 0.282,0.841 0.629,0.841 l 7.424,0 c 0.344,0 0.625,-0.377 0.625,-0.841 l 0,-1.975 c 2.289,-0.033 4.764,-0.02 7.186,0.09 l 0,28.406 c 0,0.286 0.148,0.517 0.33,0.517 0.185,0 0.334,-0.231 0.334,-0.517 l 0,-28.375 c 3.814,0.202 7.435,0.65 9.892,1.532 0,0 2.045,0.885 0.995,-0.663 L 0,0 z" />
    </g>
    <g
       transform="matrix(1.25,0,0,-1.25,20.183244,42.521282)"
       id="g6717"
       style="fill:#cfcccd">
      <path
         inkscape:connector-curvature="0"
         id="path6719"
         style="fill:#cfcccd;fill-opacity:1;fill-rule:nonzero;stroke:none"
         d="M 0,0 C 8.822,0 13.924,0.698 16.07,1.083 L 15.184,-0.33 c 0,0 -0.608,-0.664 -1.77,-0.775 l -23.49,0 c 0,0 -1.713,-0.054 -1.879,1.161 L -12.02,0.377 C -7.42,0.106 -3.428,0 0,0" />
    </g>
  </g>
</svg>
