<?xml version="1.0" encoding="UTF-8" standalone="no"?>
<!-- Created with Inkscape (http://www.inkscape.org/) -->

<svg
   xmlns:dc="http://purl.org/dc/elements/1.1/"
   xmlns:cc="http://creativecommons.org/ns#"
   xmlns:rdf="http://www.w3.org/1999/02/22-rdf-syntax-ns#"
   xmlns:svg="http://www.w3.org/2000/svg"
   xmlns="http://www.w3.org/2000/svg"
   xmlns:sodipodi="http://sodipodi.sourceforge.net/DTD/sodipodi-0.dtd"
   xmlns:inkscape="http://www.inkscape.org/namespaces/inkscape"
   width="48px"
   height="48px"
   id="svg28083"
   version="1.1"
   inkscape:version="0.48.4 r9943 custom"
   sodipodi:docname="tram.svg">
  <defs
     id="defs28085">
    <clipPath
       clipPathUnits="userSpaceOnUse"
       id="clipPath4901">
      <path
         inkscape:connector-curvature="0"
         d="m 315.748,1648.19 0.773,0 0,-0.63 -0.773,0 0,0.63 z"
         id="path4903" />
    </clipPath>
    <clipPath
       clipPathUnits="userSpaceOnUse"
       id="clipPath4905">
      <path
         inkscape:connector-curvature="0"
         d="m 315.759,1648.18 0.762,0 0,-0.62 -0.762,0 0,0.62 z"
         id="path4907" />
    </clipPath>
    <clipPath
       clipPathUnits="userSpaceOnUse"
       id="clipPath4909">
      <path
         inkscape:connector-curvature="0"
         d="m 315.748,1648.19 0.011,0 0,-0.01 -0.011,0 0,0.01 z"
         id="path4911" />
    </clipPath>
    <clipPath
       clipPathUnits="userSpaceOnUse"
       id="clipPath4857">
      <path
         inkscape:connector-curvature="0"
         d="m 327.146,1644.07 0.45,0 0,-0.02 -0.45,0 0,0.02 z"
         id="path4859" />
    </clipPath>
    <clipPath
       clipPathUnits="userSpaceOnUse"
       id="clipPath4861">
      <path
         inkscape:connector-curvature="0"
         d="m 327.146,1644.07 0.446,0 0,-0.02 -0.446,0 0,0.02 z"
         id="path4863" />
    </clipPath>
    <clipPath
       clipPathUnits="userSpaceOnUse"
       id="clipPath4865">
      <path
         inkscape:connector-curvature="0"
         d="m 327.592,1644.05 0.004,0 0,0 -0.004,0 z"
         id="path4867" />
    </clipPath>
  </defs>
  <sodipodi:namedview
     id="base"
     pagecolor="#ffffff"
     bordercolor="#666666"
     borderopacity="1.0"
     inkscape:pageopacity="0.0"
     inkscape:pageshadow="2"
     inkscape:zoom="7"
     inkscape:cx="38.032362"
     inkscape:cy="35.428571"
     inkscape:current-layer="layer1"
     showgrid="true"
     inkscape:grid-bbox="true"
     inkscape:document-units="px"
     inkscape:window-width="651"
     inkscape:window-height="653"
     inkscape:window-x="1333"
     inkscape:window-y="295"
     inkscape:window-maximized="0" />
  <metadata
     id="metadata28088">
    <rdf:RDF>
      <cc:Work
         rdf:about="">
        <dc:format>image/svg+xml</dc:format>
        <dc:type
           rdf:resource="http://purl.org/dc/dcmitype/StillImage" />
        <dc:title></dc:title>
      </cc:Work>
    </rdf:RDF>
  </metadata>
  <g
     id="layer1"
     inkscape:label="Layer 1"
     inkscape:groupmode="layer">
    <g
       transform="matrix(0.84226259,0,0,-0.84226259,33.197226,31.500581)"
       id="g6697">
      <path
         inkscape:connector-curvature="0"
         id="path6699"
         style="fill:#cfcccd;fill-opacity:1;fill-rule:nonzero;stroke:none"
         d="m 0,0 -30.328,-0.55 c -0.789,0.096 -1.34,0.827 -1.639,1.355 C -9.006,0.886 7.074,4.822 12.102,6.233 6.666,-0.21 0,0 0,0" />
    </g>
    <g
       transform="matrix(0.84226259,0,0,-0.84226259,17.853897,20.960844)"
       id="g6701">
      <path
         inkscape:connector-curvature="0"
         id="path6703"
         style="fill:#cfcccd;fill-opacity:1;fill-rule:nonzero;stroke:none"
         d="M 0,0 C 0.553,0.806 3.352,1.167 5.996,1.329 L 8.133,-1.834 2.002,-2.155 C 0.398,-2.054 0,0 0,0 M 16.414,-1.401 8.941,-1.79 6.803,1.372 c 2.285,0.108 4.258,0.079 4.258,0.079 l 5.353,-2.852 z m -31.328,-9.258 c 0,0 0.568,0.038 0.826,-0.357 24.795,0.046 41.588,4.612 45.152,5.671 0.192,0.254 0.379,0.518 0.565,0.789 0,0 1.953,2.754 0.051,2.603 0,0 -0.182,0.011 -0.504,0.03 0.074,0.368 -0.071,0.716 -0.354,0.811 l -0.062,0.021 c -0.317,0.104 -0.682,-0.145 -0.821,-0.555 L 29.873,-1.85 c -3.383,0.185 -10.48,0.538 -12.105,0.35 l -6.057,3.051 c 0,0 0.35,0.451 -0.5,0.852 0,0 -8.559,1.351 -15.615,0.801 0,0 -0.5,-0.299 -0.051,-1.603 l 0.601,-1.15 c 0,0 0.301,-0.45 0.151,-0.952 l -0.451,-2.552 c 0,0 0.049,-0.45 -0.803,-0.55 l -6.955,-0.651 c 0,0 -1,-0.15 -1.352,-1.35 l -1.55,-2.354 c 0,0 -0.35,-0.352 -0.75,-0.398 0,0 -1.602,0.2 -1.655,-0.703 0,0 -0.398,-1 2.305,-1.6" />
    </g>
  </g>
</svg>
