<?xml version="1.0" encoding="UTF-8" standalone="no"?>
<!-- Created with Inkscape (http://www.inkscape.org/) -->

<svg
   xmlns:dc="http://purl.org/dc/elements/1.1/"
   xmlns:cc="http://creativecommons.org/ns#"
   xmlns:rdf="http://www.w3.org/1999/02/22-rdf-syntax-ns#"
   xmlns:svg="http://www.w3.org/2000/svg"
   xmlns="http://www.w3.org/2000/svg"
   xmlns:sodipodi="http://sodipodi.sourceforge.net/DTD/sodipodi-0.dtd"
   xmlns:inkscape="http://www.inkscape.org/namespaces/inkscape"
   width="48px"
   height="48px"
   id="svg28083"
   version="1.1"
   inkscape:version="0.48.4 r9943 custom"
   sodipodi:docname="recycle.svg">
  <defs
     id="defs28085">
    <clipPath
       clipPathUnits="userSpaceOnUse"
       id="clipPath4901">
      <path
         inkscape:connector-curvature="0"
         d="m 315.748,1648.19 0.773,0 0,-0.63 -0.773,0 0,0.63 z"
         id="path4903" />
    </clipPath>
    <clipPath
       clipPathUnits="userSpaceOnUse"
       id="clipPath4905">
      <path
         inkscape:connector-curvature="0"
         d="m 315.759,1648.18 0.762,0 0,-0.62 -0.762,0 0,0.62 z"
         id="path4907" />
    </clipPath>
    <clipPath
       clipPathUnits="userSpaceOnUse"
       id="clipPath4909">
      <path
         inkscape:connector-curvature="0"
         d="m 315.748,1648.19 0.011,0 0,-0.01 -0.011,0 0,0.01 z"
         id="path4911" />
    </clipPath>
    <clipPath
       clipPathUnits="userSpaceOnUse"
       id="clipPath4857">
      <path
         inkscape:connector-curvature="0"
         d="m 327.146,1644.07 0.45,0 0,-0.02 -0.45,0 0,0.02 z"
         id="path4859" />
    </clipPath>
    <clipPath
       clipPathUnits="userSpaceOnUse"
       id="clipPath4861">
      <path
         inkscape:connector-curvature="0"
         d="m 327.146,1644.07 0.446,0 0,-0.02 -0.446,0 0,0.02 z"
         id="path4863" />
    </clipPath>
    <clipPath
       clipPathUnits="userSpaceOnUse"
       id="clipPath4865">
      <path
         inkscape:connector-curvature="0"
         d="m 327.592,1644.05 0.004,0 0,0 -0.004,0 z"
         id="path4867" />
    </clipPath>
  </defs>
  <sodipodi:namedview
     id="base"
     pagecolor="#ffffff"
     bordercolor="#666666"
     borderopacity="1.0"
     inkscape:pageopacity="0.0"
     inkscape:pageshadow="2"
     inkscape:zoom="7"
     inkscape:cx="26.60379"
     inkscape:cy="24"
     inkscape:current-layer="layer1"
     showgrid="true"
     inkscape:grid-bbox="true"
     inkscape:document-units="px"
     inkscape:window-width="651"
     inkscape:window-height="653"
     inkscape:window-x="1333"
     inkscape:window-y="295"
     inkscape:window-maximized="0" />
  <metadata
     id="metadata28088">
    <rdf:RDF>
      <cc:Work
         rdf:about="">
        <dc:format>image/svg+xml</dc:format>
        <dc:type
           rdf:resource="http://purl.org/dc/dcmitype/StillImage" />
        <dc:title></dc:title>
      </cc:Work>
    </rdf:RDF>
  </metadata>
  <g
     id="layer1"
     inkscape:label="Layer 1"
     inkscape:groupmode="layer">
    <g
       transform="matrix(1.25,0,0,-1.25,41.796813,21.380607)"
       id="g5061">
      <path
         inkscape:connector-curvature="0"
         id="path5063"
         style="fill:#cfcccd;fill-opacity:1;fill-rule:nonzero;stroke:none"
         d="m 0,0 -13.293,12.42 c -0.594,0.558 -1.553,0.49 -2.139,-0.147 -0.017,-0.021 -0.031,-0.044 -0.05,-0.065 -0.084,-0.049 -0.161,-0.105 -0.235,-0.173 L -28.723,-0.031 c -0.582,-0.542 -0.576,-1.494 0.012,-2.128 0.588,-0.634 1.537,-0.711 2.119,-0.17 l 10.934,10.144 c 0.742,0.37 1.687,0.524 2.744,-0.038 l 2.139,-2 c 0.183,-0.197 0.304,-0.307 0.373,-0.344 l 8.281,-7.74 c 0.594,-0.554 1.553,-0.488 2.139,0.148 C 0.604,-1.522 0.596,-0.554 0,0" />
    </g>
    <g
       transform="matrix(1.25,0,0,-1.25,36.205943,26.242737)"
       id="g5065">
      <path
         inkscape:connector-curvature="0"
         id="path5067"
         style="fill:#cfcccd;fill-opacity:1;fill-rule:nonzero;stroke:none"
         d="m 0,0 c -0.061,0.071 -0.115,0.143 -0.191,0.215 l -2.28,2.193 C -3.387,3.29 -4.887,4.735 -5.805,5.615 l -2.277,2.196 c -0.914,0.879 -2.414,0.879 -3.33,0 l -2.279,-2.196 c -0.918,-0.88 -2.416,-2.325 -3.334,-3.207 l -2.276,-2.193 c -0.215,-0.204 -0.353,-0.397 -0.439,-0.578 -0.321,-0.369 -0.524,-0.845 -0.524,-1.367 l 0,-7.426 c 0,-1.152 0.934,-2.084 2.082,-2.084 l 2.709,0 0,-0.031 7.342,0 c 0.51,4.282 -3.099,6.98 -3.099,6.98 1.419,-1.281 3.63,-6.152 1.228,-5.332 -7.975,2.725 -2.59,9.779 -2.59,9.779 -0.515,-1.262 3.151,-2.304 3.151,-2.304 4.552,-1.682 3.004,-5.094 3.004,-5.094 -0.383,-0.504 -1.036,-0.236 -0.389,-1.519 0.67,-1.331 0.539,-2.28 0.492,-2.51 l 1.98,0 0,0.031 3.198,0 c 1.146,0 2.082,0.932 2.082,2.084 l 0,7.426 C 0.926,-1.01 0.557,-0.373 0,0" />
    </g>
  </g>
</svg>
