<?xml version="1.0" encoding="UTF-8" standalone="no"?>
<!-- Created with Inkscape (http://www.inkscape.org/) -->

<svg
   xmlns:dc="http://purl.org/dc/elements/1.1/"
   xmlns:cc="http://creativecommons.org/ns#"
   xmlns:rdf="http://www.w3.org/1999/02/22-rdf-syntax-ns#"
   xmlns:svg="http://www.w3.org/2000/svg"
   xmlns="http://www.w3.org/2000/svg"
   xmlns:sodipodi="http://sodipodi.sourceforge.net/DTD/sodipodi-0.dtd"
   xmlns:inkscape="http://www.inkscape.org/namespaces/inkscape"
   width="48px"
   height="48px"
   id="svg28083"
   version="1.1"
   inkscape:version="0.48.4 r9943 custom"
   sodipodi:docname="assainissement.svg">
  <defs
     id="defs28085">
    <clipPath
       clipPathUnits="userSpaceOnUse"
       id="clipPath4901">
      <path
         inkscape:connector-curvature="0"
         d="m 315.748,1648.19 0.773,0 0,-0.63 -0.773,0 0,0.63 z"
         id="path4903" />
    </clipPath>
    <clipPath
       clipPathUnits="userSpaceOnUse"
       id="clipPath4905">
      <path
         inkscape:connector-curvature="0"
         d="m 315.759,1648.18 0.762,0 0,-0.62 -0.762,0 0,0.62 z"
         id="path4907" />
    </clipPath>
    <clipPath
       clipPathUnits="userSpaceOnUse"
       id="clipPath4909">
      <path
         inkscape:connector-curvature="0"
         d="m 315.748,1648.19 0.011,0 0,-0.01 -0.011,0 0,0.01 z"
         id="path4911" />
    </clipPath>
    <clipPath
       clipPathUnits="userSpaceOnUse"
       id="clipPath4857">
      <path
         inkscape:connector-curvature="0"
         d="m 327.146,1644.07 0.45,0 0,-0.02 -0.45,0 0,0.02 z"
         id="path4859" />
    </clipPath>
    <clipPath
       clipPathUnits="userSpaceOnUse"
       id="clipPath4861">
      <path
         inkscape:connector-curvature="0"
         d="m 327.146,1644.07 0.446,0 0,-0.02 -0.446,0 0,0.02 z"
         id="path4863" />
    </clipPath>
    <clipPath
       clipPathUnits="userSpaceOnUse"
       id="clipPath4865">
      <path
         inkscape:connector-curvature="0"
         d="m 327.592,1644.05 0.004,0 0,0 -0.004,0 z"
         id="path4867" />
    </clipPath>
  </defs>
  <sodipodi:namedview
     id="base"
     pagecolor="#ffffff"
     bordercolor="#666666"
     borderopacity="1.0"
     inkscape:pageopacity="0.0"
     inkscape:pageshadow="2"
     inkscape:zoom="7"
     inkscape:cx="27.746647"
     inkscape:cy="24"
     inkscape:current-layer="layer1"
     showgrid="true"
     inkscape:grid-bbox="true"
     inkscape:document-units="px"
     inkscape:window-width="901"
     inkscape:window-height="883"
     inkscape:window-x="2098"
     inkscape:window-y="134"
     inkscape:window-maximized="0" />
  <metadata
     id="metadata28088">
    <rdf:RDF>
      <cc:Work
         rdf:about="">
        <dc:format>image/svg+xml</dc:format>
        <dc:type
           rdf:resource="http://purl.org/dc/dcmitype/StillImage" />
        <dc:title></dc:title>
      </cc:Work>
    </rdf:RDF>
  </metadata>
  <g
     id="layer1"
     inkscape:label="Layer 1"
     inkscape:groupmode="layer">
    <g
       transform="matrix(0.7912954,0,0,-0.7912954,13.376383,32.647763)"
       id="g4969">
      <path
         inkscape:connector-curvature="0"
         id="path4971"
         style="fill:#cfcccd;fill-opacity:1;fill-rule:nonzero;stroke:none"
         d="M 0,0 C -0.727,0.262 -0.926,0.659 0.064,1.253 1.053,1.846 2.57,2.901 4.418,6.335 4.418,6.335 4.09,1.187 0,0 m 0.908,16.945 c -2.178,2.31 -3.205,5.909 -3.205,5.909 0,0 -1.332,-3.555 -3.111,-5.629 C -7.184,15.152 -14.74,6.854 -7.777,0.188 -4.074,-2.923 1.258,-2.479 3.926,0.93 6.592,4.336 7.428,9.833 0.908,16.945" />
    </g>
    <path
       d="m 31.251379,23.490849 c 0.251152,0.498254 1.376396,3.120537 1.376396,3.496377 0,2.055488 -2.74849,2.055488 -2.74849,0 -2.53e-4,-0.37584 1.122209,-3.124329 1.372094,-3.496377 z"
       id="path3952"
       style="fill:#4d4d4d"
       inkscape:connector-curvature="0" />
    <path
       d="m 32.876142,22.328678 c 0,-0.285294 0,-0.758762 0,-1.584802 0,-1.008648 -0.913802,-1.875913 -2.122763,-1.875913 0,0 -0.0069,0 -2.825378,0 l -0.01512,-0.878143 c 0,-0.256713 -0.207142,-0.461073 -0.461074,-0.461073 h -1.104756 v -0.565278 c 0.09485,-0.05893 0.174263,-0.127466 0.241539,-0.218272 0.332086,0 1.003084,0 2.354693,0 0.15504,0.204614 0.389751,0.342962 0.662906,0.342962 0.469168,0 0.850825,-0.381404 0.850825,-0.85209 0,-0.463604 -0.381657,-0.846526 -0.850825,-0.846526 -0.282765,0 -0.518741,0.145422 -0.673782,0.359654 -0.37331,0 -1.067578,0 -2.332688,0 -0.15504,-0.214225 -0.391015,-0.359654 -0.67378,-0.359654 -0.282768,0 -0.520006,0.145422 -0.675047,0.359654 -0.720318,0 -1.576455,0 -2.574228,0 -0.153776,-0.214225 -0.393798,-0.359654 -0.672263,-0.359654 -0.470939,0 -0.853607,0.382922 -0.853607,0.846777 0,0.470687 0.382921,0.852093 0.853607,0.852093 0.273153,0 0.506346,-0.138597 0.661387,-0.342962 0.425414,0 1.197834,0 2.597497,0 0.06576,0.09181 0.147957,0.161617 0.24407,0.219535 V 17.529 h -1.173301 c -0.252415,0 -0.459556,0.20436 -0.459556,0.461074 v 0.878142 c -0.286814,0 -1.112853,0 -3.433148,0 v 2.747226 c 0.08245,0 0.639384,0 3.818851,0 0.374576,0.751934 0.874094,1.123727 1.626027,1.123727 0.74637,0 1.370832,-0.372047 1.746673,-1.123727 0,0 0,0 1.370831,0 0.411754,0 0.562748,0.264808 0.606503,0.771155 -0.119372,0.08094 -0.20436,0.212706 -0.20436,0.371794 0,0.255197 0.207142,0.45551 0.461075,0.45551 h 2.851429 c 0.255196,0 0.459558,-0.200313 0.459558,-0.45551 0,-0.200566 -0.126214,-0.365219 -0.301736,-0.429713 z"
       id="path3954"
       style="fill:#4d4d4d"
       inkscape:connector-curvature="0" />
    <path
       d="m 33.300038,30.269632 c -0.03971,0.196014 -0.03692,0.401893 0.022,0.599423 0.04932,0.185138 0.148216,0.358136 0.28403,0.502301 0.461076,0.46664 1.214526,0.477514 1.686477,0.02328 l 2.336736,-2.279324 0.30047,0.307553 -2.339772,2.279322 c -0.637865,0.620161 -1.662954,0.605239 -2.290198,-0.03162 -0.216753,-0.222317 -0.337396,-0.499519 -0.403408,-0.790378 h -4.890224 c -0.66417,0 -1.204914,0.539228 -1.204914,1.200615 0,0.666954 0.540744,1.204915 1.204914,1.204915 h 8.473102 c 0.275935,0 0.52835,-0.108506 0.73701,-0.275936 l 5.514686,-4.174206 h 3.002422 v -4.090488 h -0.02478 v -0.03972 h -6.955575 l -5.119629,4.987857 c -0.163133,0.156558 -0.277201,0.354089 -0.333349,0.576406 z"
       id="path3956"
       style="fill:#4d4d4d"
       inkscape:connector-curvature="0" />
  </g>
</svg>
