<?xml version="1.0" encoding="UTF-8" standalone="no"?>
<!-- Created with Inkscape (http://www.inkscape.org/) -->

<svg
   xmlns:dc="http://purl.org/dc/elements/1.1/"
   xmlns:cc="http://creativecommons.org/ns#"
   xmlns:rdf="http://www.w3.org/1999/02/22-rdf-syntax-ns#"
   xmlns:svg="http://www.w3.org/2000/svg"
   xmlns="http://www.w3.org/2000/svg"
   version="1.1"
   width="48"
   height="48"
   id="svg28083">
  <defs
     id="defs28085">
    <clipPath
       id="clipPath4901">
      <path
         d="m 315.748,1648.19 0.773,0 0,-0.63 -0.773,0 0,0.63 z"
         id="path4903" />
    </clipPath>
    <clipPath
       id="clipPath4905">
      <path
         d="m 315.759,1648.18 0.762,0 0,-0.62 -0.762,0 0,0.62 z"
         id="path4907" />
    </clipPath>
    <clipPath
       id="clipPath4909">
      <path
         d="m 315.748,1648.19 0.011,0 0,-0.01 -0.011,0 0,0.01 z"
         id="path4911" />
    </clipPath>
    <clipPath
       id="clipPath4857">
      <path
         d="m 327.146,1644.07 0.45,0 0,-0.02 -0.45,0 0,0.02 z"
         id="path4859" />
    </clipPath>
    <clipPath
       id="clipPath4861">
      <path
         d="m 327.146,1644.07 0.446,0 0,-0.02 -0.446,0 0,0.02 z"
         id="path4863" />
    </clipPath>
    <clipPath
       id="clipPath4865">
      <path
         d="m 327.592,1644.05 0.004,0 0,0 -0.004,0 z"
         id="path4867" />
    </clipPath>
  </defs>
  <metadata
     id="metadata28088">
    <rdf:RDF>
      <cc:Work
         rdf:about="">
        <dc:format>image/svg+xml</dc:format>
        <dc:type
           rdf:resource="http://purl.org/dc/dcmitype/StillImage" />
        <dc:title></dc:title>
      </cc:Work>
    </rdf:RDF>
  </metadata>
  <g
     id="layer1">
    <g
       transform="translate(-0.85714286,14)"
       id="g3002">
      <g
         transform="matrix(0.73036133,0,0,-0.73036133,38.942626,28.967957)"
         id="g6553">
        <path
           d="m 0,0 c -1.105,0 -1.998,-0.893 -1.998,-2 0,-1.103 0.893,-1.999 1.998,-1.999 1.104,0 2,0.896 2,1.999 0,1.107 -0.896,2 -2,2"
           id="path6555"
           style="fill:#cfcccd;fill-opacity:1;fill-rule:nonzero;stroke:none" />
      </g>
      <g
         transform="matrix(0.73036133,0,0,-0.73036133,14.719462,28.967957)"
         id="g6557">
        <path
           d="m 0,0 c -1.107,0 -2.004,-0.893 -2.004,-2 0,-1.103 0.897,-1.999 2.004,-1.999 1.104,0 1.998,0.896 1.998,1.999 0,1.107 -0.894,2 -1.998,2"
           id="path6559"
           style="fill:#cfcccd;fill-opacity:1;fill-rule:nonzero;stroke:none" />
      </g>
      <g
         transform="matrix(0.73036133,0,0,-0.73036133,9.875121,28.967957)"
         id="g6561">
        <path
           d="m 0,0 c -1.109,0 -2,-0.893 -2,-2 0,-1.103 0.891,-1.999 2,-1.999 1.102,0 1.998,0.896 1.998,1.999 0,1.107 -0.896,2 -1.998,2"
           id="path6563"
           style="fill:#cfcccd;fill-opacity:1;fill-rule:nonzero;stroke:none" />
      </g>
      <g
         transform="matrix(0.73036133,0,0,-0.73036133,41.303521,23.284793)"
         id="g6565">
        <path
           d="m 0,0 -3.203,0.001 0,6.287 C -1.193,5.261 -0.236,3.19 0.154,0 L 0,0 z m -10.678,0.001 0,7.012 4.776,0 C -5.297,6.961 -4.766,6.845 -4.27,6.701 l 0,-6.7 -6.408,0 z m -23.25,0.005 0,7.007 7.237,0 0,-7.01 -7.237,0.003 z m -8.308,7.007 7.238,0 0,-7.007 -7.238,0 0,7.007 z m -0.266,-10.66 -5.691,0 c -0.229,0 -0.414,0.115 -0.414,0.252 0,0.139 0.185,0.253 0.414,0.253 l 5.691,0 c 0.227,0 0.414,-0.114 0.414,-0.253 0,-0.137 -0.187,-0.252 -0.414,-0.252 m 0,-1.242 -5.691,0 c -0.229,0 -0.414,0.112 -0.414,0.253 0,0.139 0.185,0.251 0.414,0.251 l 5.691,0 c 0.227,0 0.414,-0.112 0.414,-0.251 0,-0.141 -0.187,-0.253 -0.414,-0.253 m 0,-1.243 -5.691,0 c -0.229,0 -0.414,0.113 -0.414,0.254 0,0.137 0.185,0.251 0.414,0.251 l 5.691,0 c 0.227,0 0.414,-0.114 0.414,-0.251 0,-0.141 -0.187,-0.254 -0.414,-0.254 m -0.803,13.101 0,-6.963 -5.05,0.001 c 0.158,0.686 0.417,6.49 5.05,6.962 m 24.086,-6.967 -6.406,0.001 0,7.01 6.406,0 0,-7.011 z m 1.069,7.011 6.406,0 0,-7.011 -6.406,0 0,7.011 z M 1.9,-0.12 c 0,2.638 -2.755,8.817 -6.513,8.817 l -0.455,0 c 0.05,0.132 0.078,0.278 0.078,0.428 0,0.601 -0.418,1.088 -0.934,1.088 l -2.588,0 c -0.509,0 -0.927,-0.487 -0.927,-1.088 0,-0.15 0.027,-0.296 0.076,-0.428 l -34.7,0 c -6.269,0.044 -6.804,-2.138 -6.804,-4.778 l 0,-8.813 c 0,-2.169 2.058,-3.996 4.881,-4.579 0.156,1.476 1.402,2.625 2.922,2.625 1.584,0 2.873,-1.254 2.933,-2.823 l 0.852,0 c 0.066,1.569 1.351,2.823 2.939,2.823 1.582,0 2.871,-1.254 2.932,-2.823 l 27.265,0 c 0.063,1.569 1.352,2.823 2.934,2.823 1.234,0 2.289,-0.761 2.725,-1.838 1.623,0.874 2.402,2.217 2.402,3.763 L 1.9,-0.12 z"
           id="path6567"
           style="fill:#cfcccd;fill-opacity:1;fill-rule:nonzero;stroke:none" />
      </g>
    </g>
    <g
       transform="matrix(0.87363568,0,0,-0.87363568,30.37564,12.394577)"
       id="g13711">
      <path
         d="M 0,0 C 1.324,0 2.396,1.072 2.396,2.396 2.396,3.717 1.324,4.791 0,4.791 -1.322,4.791 -2.395,3.717 -2.395,2.396 -2.395,1.072 -1.322,0 0,0 m 5.703,-0.224 c 1.561,0 2.83,1.267 2.83,2.829 0,1.562 -1.269,2.83 -2.83,2.83 -1.562,0 -2.828,-1.268 -2.828,-2.83 0,-1.562 1.266,-2.829 2.828,-2.829 m 7.067,-0.647 c 2.144,0 3.886,1.738 3.886,3.886 0,2.146 -1.742,3.885 -3.886,3.885 -2.145,0 -3.883,-1.739 -3.883,-3.885 0,-2.148 1.738,-3.886 3.883,-3.886 m 0.035,-0.743 c -1.391,0 -2.651,-0.542 -3.588,-1.422 -0.594,1.338 -1.932,2.271 -3.49,2.271 -1.159,0 -2.194,-0.516 -2.895,-1.332 -0.557,0.979 -1.607,1.639 -2.809,1.639 -1.785,0 -3.232,-1.444 -3.232,-3.23 l 0,-5.919 5.121,0 0,-1.962 5.65,0 0,-4.893 10.485,0 0,9.606 c 0,2.896 -2.352,5.242 -5.242,5.242"
         id="path13713"
         style="fill:#cfcccd;fill-opacity:1;fill-rule:nonzero;stroke:none" />
    </g>
    <g
       transform="matrix(0.4908369,0,0,0.4908369,29.912817,-1.22609)"
       id="g3135">
      <g
         transform="matrix(1.25,0,0,-1.25,-37.512015,34.789854)"
         id="g506"
         style="color:#000000;fill:#cfcccd;fill-opacity:1;fill-rule:nonzero;stroke:none;stroke-width:0.69706941;marker:none;visibility:visible;display:inline;overflow:visible;enable-background:accumulate">
        <path
           d="m 0,0 c -0.012,-0.025 -0.018,-0.051 -0.029,-0.078 -0.108,-0.218 -0.219,-0.426 -0.338,-0.629 0,-0.002 0,-0.003 -0.002,-0.005 0.031,-0.138 0.035,-0.29 -0.004,-0.456 -0.119,-0.531 -0.34,-1.074 -0.643,-1.575 -0.236,-2.631 -2.472,-4.692 -5.199,-4.692 -2.885,0 -5.223,2.309 -5.223,5.156 0,0.243 0.018,0.481 0.053,0.717 -0.414,0.62 -0.769,1.266 -0.924,1.869 -0.347,-0.794 -0.543,-1.667 -0.543,-2.586 0,-3.618 2.973,-6.549 6.637,-6.549 3.666,0 6.635,2.931 6.635,6.549 C 0.42,-1.476 0.271,-0.71 0,0"
           id="path508"
           style="color:#000000;fill:#cfcccd;fill-opacity:1;fill-rule:nonzero;stroke:none;stroke-width:0.69706941;marker:none;visibility:visible;display:inline;overflow:visible;enable-background:accumulate" />
      </g>
      <g
         transform="matrix(1.25,0,0,-1.25,-37.685215,38.216354)"
         id="g510"
         style="color:#000000;fill:#cfcccd;fill-opacity:1;fill-rule:nonzero;stroke:none;stroke-width:0.69706941;marker:none;visibility:visible;display:inline;overflow:visible;enable-background:accumulate">
        <path
           d="m 0,0 c -0.117,-0.685 -0.445,-1.366 -0.676,-2.025 -0.045,-0.125 -0.109,-0.239 -0.185,-0.338 0.002,-0.055 0.009,-0.106 0.009,-0.16 0,-2.748 -2.339,-4.976 -5.224,-4.976 -2.885,0 -5.223,2.228 -5.223,4.976 0,0.18 0.012,0.359 0.031,0.535 -0.441,0.642 -0.763,1.456 -0.759,2.244 -0.436,-0.838 -0.686,-1.777 -0.686,-2.779 0,-3.493 2.973,-6.323 6.637,-6.323 3.666,0 6.635,2.83 6.635,6.323 C 0.559,-1.624 0.357,-0.771 0,0"
           id="path512"
           style="color:#000000;fill:#cfcccd;fill-opacity:1;fill-rule:nonzero;stroke:none;stroke-width:0.69706941;marker:none;visibility:visible;display:inline;overflow:visible;enable-background:accumulate" />
      </g>
      <g
         transform="matrix(1.25,0,0,-1.25,-37.565615,42.006654)"
         id="g514"
         style="color:#000000;fill:#cfcccd;fill-opacity:1;fill-rule:nonzero;stroke:none;stroke-width:0.69706941;marker:none;visibility:visible;display:inline;overflow:visible;enable-background:accumulate">
        <path
           d="m 0,0 c 0.092,-0.969 -0.217,-1.94 -0.816,-2.773 -0.053,-0.072 -0.116,-0.131 -0.18,-0.187 -0.334,-2.442 -2.52,-4.33 -5.176,-4.33 -2.678,0 -4.879,1.917 -5.185,4.388 -0.239,0.264 -0.446,0.563 -0.616,0.885 -0.172,0.115 -0.304,0.304 -0.355,0.589 -0.055,0.314 -0.119,0.616 -0.203,0.923 -0.182,-0.573 -0.278,-1.181 -0.278,-1.808 0,-3.494 2.973,-6.324 6.637,-6.324 3.666,0 6.635,2.83 6.635,6.324 C 0.463,-1.497 0.297,-0.717 0,0"
           id="path516"
           style="color:#000000;fill:#cfcccd;fill-opacity:1;fill-rule:nonzero;stroke:none;stroke-width:0.69706941;marker:none;visibility:visible;display:inline;overflow:visible;enable-background:accumulate" />
      </g>
      <g
         transform="matrix(1.25,0,0,-1.25,-45.280515,40.276954)"
         id="g518"
         style="color:#000000;fill:#cfcccd;fill-opacity:1;fill-rule:nonzero;stroke:none;stroke-width:0.69706941;marker:none;visibility:visible;display:inline;overflow:visible;enable-background:accumulate">
        <path
           d="M 0,0 C -2.885,0 -5.223,2.307 -5.223,5.154 -5.223,8 -2.885,10.309 0,10.309 2.885,10.309 5.225,8 5.225,5.154 5.225,2.307 2.885,0 0,0 m 0,11.702 c -3.664,0 -6.637,-2.931 -6.637,-6.548 0,-3.616 2.973,-6.548 6.637,-6.548 3.666,0 6.635,2.932 6.635,6.548 0,3.617 -2.969,6.548 -6.635,6.548"
           id="path520"
           style="color:#000000;fill:#cfcccd;fill-opacity:1;fill-rule:nonzero;stroke:none;stroke-width:0.69706941;marker:none;visibility:visible;display:inline;overflow:visible;enable-background:accumulate" />
      </g>
      <g
         transform="matrix(1.25,0,0,-1.25,-19.357615,31.187554)"
         id="g526"
         style="color:#000000;fill:#cfcccd;fill-opacity:1;fill-rule:nonzero;stroke:none;stroke-width:0.69706941;marker:none;visibility:visible;display:inline;overflow:visible;enable-background:accumulate">
        <path
           d="m 0,0 c -0.012,-0.025 -0.018,-0.051 -0.029,-0.077 -0.11,-0.217 -0.221,-0.425 -0.338,-0.629 0,-0.002 -0.002,-0.004 -0.002,-0.004 0.031,-0.14 0.035,-0.29 -0.004,-0.457 -0.121,-0.532 -0.342,-1.075 -0.643,-1.576 -0.238,-2.63 -2.474,-4.691 -5.199,-4.691 -2.885,0 -5.224,2.307 -5.224,5.155 0,0.244 0.019,0.483 0.054,0.717 -0.414,0.62 -0.769,1.268 -0.922,1.869 -0.349,-0.794 -0.545,-1.666 -0.545,-2.586 0,-3.617 2.973,-6.549 6.637,-6.549 3.664,0 6.637,2.932 6.637,6.549 C 0.422,-1.476 0.268,-0.71 0,0"
           id="path528"
           style="color:#000000;fill:#cfcccd;fill-opacity:1;fill-rule:nonzero;stroke:none;stroke-width:0.69706941;marker:none;visibility:visible;display:inline;overflow:visible;enable-background:accumulate" />
      </g>
      <g
         transform="matrix(1.25,0,0,-1.25,-19.531015,34.612854)"
         id="g530"
         style="color:#000000;fill:#cfcccd;fill-opacity:1;fill-rule:nonzero;stroke:none;stroke-width:0.69706941;marker:none;visibility:visible;display:inline;overflow:visible;enable-background:accumulate">
        <path
           d="m 0,0 c -0.117,-0.685 -0.443,-1.365 -0.678,-2.024 -0.043,-0.127 -0.107,-0.241 -0.183,-0.342 0.002,-0.051 0.007,-0.105 0.007,-0.157 0,-2.749 -2.337,-4.978 -5.222,-4.978 -2.885,0 -5.225,2.229 -5.225,4.978 0,0.179 0.012,0.358 0.033,0.533 -0.441,0.642 -0.763,1.458 -0.757,2.245 -0.44,-0.837 -0.688,-1.778 -0.688,-2.778 0,-3.493 2.973,-6.323 6.637,-6.323 3.664,0 6.637,2.83 6.637,6.323 C 0.561,-1.624 0.357,-0.772 0,0"
           id="path532"
           style="color:#000000;fill:#cfcccd;fill-opacity:1;fill-rule:nonzero;stroke:none;stroke-width:0.69706941;marker:none;visibility:visible;display:inline;overflow:visible;enable-background:accumulate" />
      </g>
      <g
         transform="matrix(1.25,0,0,-1.25,-19.416215,38.404254)"
         id="g534"
         style="color:#000000;fill:#cfcccd;fill-opacity:1;fill-rule:nonzero;stroke:none;stroke-width:0.69706941;marker:none;visibility:visible;display:inline;overflow:visible;enable-background:accumulate">
        <path
           d="m 0,0 c 0.094,-0.97 -0.211,-1.94 -0.812,-2.772 -0.053,-0.071 -0.114,-0.132 -0.182,-0.187 -0.332,-2.443 -2.52,-4.33 -5.174,-4.33 -2.676,0 -4.879,1.916 -5.184,4.387 -0.242,0.263 -0.445,0.562 -0.617,0.884 -0.172,0.116 -0.306,0.306 -0.357,0.59 -0.053,0.314 -0.119,0.617 -0.203,0.923 -0.178,-0.573 -0.276,-1.18 -0.276,-1.808 0,-3.494 2.973,-6.322 6.637,-6.322 3.664,0 6.637,2.828 6.637,6.322 C 0.469,-1.496 0.301,-0.717 0,0"
           id="path536"
           style="color:#000000;fill:#cfcccd;fill-opacity:1;fill-rule:nonzero;stroke:none;stroke-width:0.69706941;marker:none;visibility:visible;display:inline;overflow:visible;enable-background:accumulate" />
      </g>
      <g
         transform="matrix(1.25,0,0,-1.25,-19.416215,42.006654)"
         id="g538"
         style="color:#000000;fill:#cfcccd;fill-opacity:1;fill-rule:nonzero;stroke:none;stroke-width:0.69706941;marker:none;visibility:visible;display:inline;overflow:visible;enable-background:accumulate">
        <path
           d="m 0,0 c 0.094,-0.969 -0.211,-1.94 -0.812,-2.773 -0.053,-0.072 -0.114,-0.131 -0.182,-0.187 -0.332,-2.442 -2.52,-4.33 -5.174,-4.33 -2.676,0 -4.879,1.917 -5.184,4.388 -0.242,0.264 -0.445,0.563 -0.617,0.885 -0.172,0.115 -0.306,0.304 -0.357,0.589 -0.053,0.314 -0.119,0.616 -0.203,0.923 -0.178,-0.573 -0.276,-1.181 -0.276,-1.808 0,-3.494 2.973,-6.324 6.637,-6.324 3.664,0 6.637,2.83 6.637,6.324 C 0.469,-1.497 0.301,-0.717 0,0"
           id="path540"
           style="color:#000000;fill:#cfcccd;fill-opacity:1;fill-rule:nonzero;stroke:none;stroke-width:0.69706941;marker:none;visibility:visible;display:inline;overflow:visible;enable-background:accumulate" />
      </g>
      <g
         transform="matrix(1.25,0,0,-1.25,-27.126215,36.674554)"
         id="g542"
         style="color:#000000;fill:#cfcccd;fill-opacity:1;fill-rule:nonzero;stroke:none;stroke-width:0.69706941;marker:none;visibility:visible;display:inline;overflow:visible;enable-background:accumulate">
        <path
           d="m 0,0 c -2.885,0 -5.225,2.309 -5.225,5.154 0,2.847 2.34,5.156 5.225,5.156 2.885,0 5.223,-2.309 5.223,-5.156 C 5.223,2.309 2.885,0 0,0 m 0,11.704 c -3.664,0 -6.637,-2.933 -6.637,-6.55 0,-3.616 2.973,-6.547 6.637,-6.547 3.664,0 6.637,2.931 6.637,6.547 0,3.617 -2.973,6.55 -6.637,6.55"
           id="path544"
           style="color:#000000;fill:#cfcccd;fill-opacity:1;fill-rule:nonzero;stroke:none;stroke-width:0.69706941;marker:none;visibility:visible;display:inline;overflow:visible;enable-background:accumulate" />
      </g>
      <g
         transform="matrix(0.53213344,0,0,0.53213344,-56.747388,-19.094877)"
         id="text3888"
         style="font-size:23.02468109px;font-style:normal;font-weight:normal;line-height:125%;letter-spacing:0px;word-spacing:0px;color:#000000;fill:#cfcccd;fill-opacity:1;fill-rule:nonzero;stroke:none;stroke-width:1.63744032;marker:none;visibility:visible;display:inline;overflow:visible;enable-background:accumulate;font-family:Sans">
        <path
           d="m 46.219081,92.018714 0,-1.980123 2.394566,0 c 0.506539,-1.642414 1.404501,-2.962495 2.693888,-3.960245 1.289375,-0.99772 2.755278,-1.496588 4.397714,-1.496604 2.440603,1.6e-5 4.374675,0.882628 5.80222,2.647838 l -1.634753,2.072221 c -0.675404,-0.721427 -1.320095,-1.22797 -1.934073,-1.519629 -0.598654,-0.291632 -1.343118,-0.437455 -2.233394,-0.437469 -0.890297,1.4e-5 -1.69616,0.237936 -2.417591,0.713766 -0.706098,0.460506 -1.235665,1.120546 -1.588703,1.980122 l 5.479874,0 0,1.980123 -5.963393,0 c -0.01536,0.184206 -0.02303,0.468177 -0.02302,0.851913 -6e-6,0.368403 0.02302,0.721447 0.06907,1.059135 l 5.917343,0 0,1.980123 -5.295677,0 c 0.828881,1.596381 2.079887,2.394569 3.753023,2.394567 0.828877,2e-6 1.534967,-0.153495 2.118271,-0.460494 0.598628,-0.322342 1.227969,-0.82121 1.888024,-1.496604 l 1.634752,1.980122 c -1.427545,1.765224 -3.307892,2.647834 -5.641047,2.647834 -1.596387,0 -3.016241,-0.45281 -4.259566,-1.358452 -1.227988,-0.920984 -2.1106,-2.156641 -2.647838,-3.706973 l -2.50969,0 0,-1.980123 2.072221,0 c -0.04605,-0.368387 -0.06908,-0.736782 -0.06907,-1.105185 -3e-6,-0.368386 0.0077,-0.637007 0.02302,-0.805863 l -2.026172,0"
           id="path3893"
           style="font-variant:normal;font-stretch:normal;color:#000000;fill:#cfcccd;fill-opacity:1;fill-rule:nonzero;stroke:none;stroke-width:1.63744032;marker:none;visibility:visible;display:inline;overflow:visible;enable-background:accumulate;font-family:Montserrat;-inkscape-font-specification:Montserrat" />
      </g>
      <g
         transform="matrix(0.53213344,0,0,0.53213344,-74.950778,-15.501657)"
         id="g3090"
         style="font-size:23.02468109px;font-style:normal;font-weight:normal;line-height:125%;letter-spacing:0px;word-spacing:0px;color:#000000;fill:#cfcccd;fill-opacity:1;fill-rule:nonzero;stroke:none;stroke-width:1.63744032;marker:none;visibility:visible;display:inline;overflow:visible;enable-background:accumulate;font-family:Sans">
        <path
           d="m 46.219081,92.018714 0,-1.980123 2.394566,0 c 0.506539,-1.642414 1.404501,-2.962495 2.693888,-3.960245 1.289375,-0.99772 2.755278,-1.496588 4.397714,-1.496604 2.440603,1.6e-5 4.374675,0.882628 5.80222,2.647838 l -1.634753,2.072221 c -0.675404,-0.721427 -1.320095,-1.22797 -1.934073,-1.519629 -0.598654,-0.291632 -1.343118,-0.437455 -2.233394,-0.437469 -0.890297,1.4e-5 -1.69616,0.237936 -2.417591,0.713766 -0.706098,0.460506 -1.235665,1.120546 -1.588703,1.980122 l 5.479874,0 0,1.980123 -5.963393,0 c -0.01536,0.184206 -0.02303,0.468177 -0.02302,0.851913 -6e-6,0.368403 0.02302,0.721447 0.06907,1.059135 l 5.917343,0 0,1.980123 -5.295677,0 c 0.828881,1.596381 2.079887,2.394569 3.753023,2.394567 0.828877,2e-6 1.534967,-0.153495 2.118271,-0.460494 0.598628,-0.322342 1.227969,-0.82121 1.888024,-1.496604 l 1.634752,1.980122 c -1.427545,1.765224 -3.307892,2.647834 -5.641047,2.647834 -1.596387,0 -3.016241,-0.45281 -4.259566,-1.358452 -1.227988,-0.920984 -2.1106,-2.156641 -2.647838,-3.706973 l -2.50969,0 0,-1.980123 2.072221,0 c -0.04605,-0.368387 -0.06908,-0.736782 -0.06907,-1.105185 -3e-6,-0.368386 0.0077,-0.637007 0.02302,-0.805863 l -2.026172,0"
           id="path3092"
           style="font-variant:normal;font-stretch:normal;color:#000000;fill:#cfcccd;fill-opacity:1;fill-rule:nonzero;stroke:none;stroke-width:1.63744032;marker:none;visibility:visible;display:inline;overflow:visible;enable-background:accumulate;font-family:Montserrat;-inkscape-font-specification:Montserrat" />
      </g>
    </g>
  </g>
</svg>
