<?xml version="1.0" encoding="UTF-8" standalone="no"?>
<!-- Created with Inkscape (http://www.inkscape.org/) -->

<svg
   xmlns:dc="http://purl.org/dc/elements/1.1/"
   xmlns:cc="http://creativecommons.org/ns#"
   xmlns:rdf="http://www.w3.org/1999/02/22-rdf-syntax-ns#"
   xmlns:svg="http://www.w3.org/2000/svg"
   xmlns="http://www.w3.org/2000/svg"
   xmlns:sodipodi="http://sodipodi.sourceforge.net/DTD/sodipodi-0.dtd"
   xmlns:inkscape="http://www.inkscape.org/namespaces/inkscape"
   width="48px"
   height="48px"
   id="svg3210"
   version="1.1"
   inkscape:version="0.48.4 r9943 custom"
   sodipodi:docname="alliances.svg">
  <defs
     id="defs3212" />
  <sodipodi:namedview
     id="base"
     pagecolor="#ffffff"
     bordercolor="#666666"
     borderopacity="1.0"
     inkscape:pageopacity="0.0"
     inkscape:pageshadow="2"
     inkscape:zoom="7"
     inkscape:cx="24"
     inkscape:cy="24"
     inkscape:current-layer="layer1"
     showgrid="true"
     inkscape:grid-bbox="true"
     inkscape:document-units="px"
     inkscape:window-width="605"
     inkscape:window-height="601"
     inkscape:window-x="2638"
     inkscape:window-y="1104"
     inkscape:window-maximized="0" />
  <metadata
     id="metadata3215">
    <rdf:RDF>
      <cc:Work
         rdf:about="">
        <dc:format>image/svg+xml</dc:format>
        <dc:type
           rdf:resource="http://purl.org/dc/dcmitype/StillImage" />
        <dc:title></dc:title>
      </cc:Work>
    </rdf:RDF>
  </metadata>
  <g
     id="layer1"
     inkscape:label="Layer 1"
     inkscape:groupmode="layer">
    <g
       id="g17720"
       transform="matrix(1.25,0,0,-1.25,25.711279,22.325911)">
      <path
         d="m 0,0 -3.287,0 0,-6.165 -1.459,0 0,6.165 -3.287,0 0,1.3 3.287,0 0,3.65 1.459,0 0,-3.65 L 0,1.3 0,0 z m -12.639,-12.765 17.244,0 0,22.278 -17.244,0 0,-22.278 z"
         style="fill:#cfcccd;fill-opacity:1;fill-rule:nonzero;stroke:none"
         id="path17722"
         inkscape:connector-curvature="0" />
    </g>
    <g
       id="g17724"
       transform="matrix(1.25,0,0,-1.25,13.391899,8.7188107)">
      <path
         d="m 0,0 0,-0.66 15.145,0 0,-21.619 0.642,0 L 15.787,0 0,0 z"
         style="fill:#cfcccd;fill-opacity:1;fill-rule:nonzero;stroke:none"
         id="path17726"
         inkscape:connector-curvature="0" />
    </g>
    <g
       id="g17728"
       transform="matrix(1.25,0,0,-1.25,14.925149,7.1464107)">
      <path
         d="m 0,0 0,-0.661 15.146,0 0,-21.617 0.641,0 L 15.787,0 0,0 z"
         style="fill:#cfcccd;fill-opacity:1;fill-rule:nonzero;stroke:none"
         id="path17730"
         inkscape:connector-curvature="0" />
    </g>
  </g>
</svg>
