<?xml version="1.0" encoding="UTF-8" standalone="no"?>
<!-- Created with Inkscape (http://www.inkscape.org/) -->

<svg
   xmlns:dc="http://purl.org/dc/elements/1.1/"
   xmlns:cc="http://creativecommons.org/ns#"
   xmlns:rdf="http://www.w3.org/1999/02/22-rdf-syntax-ns#"
   xmlns:svg="http://www.w3.org/2000/svg"
   xmlns="http://www.w3.org/2000/svg"
   xmlns:sodipodi="http://sodipodi.sourceforge.net/DTD/sodipodi-0.dtd"
   xmlns:inkscape="http://www.inkscape.org/namespaces/inkscape"
   width="48px"
   height="48px"
   id="svg28083"
   version="1.1"
   inkscape:version="0.48.4 r9943 custom"
   sodipodi:docname="pourcent-piste-classee.svg">
  <defs
     id="defs28085">
    <clipPath
       clipPathUnits="userSpaceOnUse"
       id="clipPath4901">
      <path
         inkscape:connector-curvature="0"
         d="m 315.748,1648.19 0.773,0 0,-0.63 -0.773,0 0,0.63 z"
         id="path4903" />
    </clipPath>
    <clipPath
       clipPathUnits="userSpaceOnUse"
       id="clipPath4905">
      <path
         inkscape:connector-curvature="0"
         d="m 315.759,1648.18 0.762,0 0,-0.62 -0.762,0 0,0.62 z"
         id="path4907" />
    </clipPath>
    <clipPath
       clipPathUnits="userSpaceOnUse"
       id="clipPath4909">
      <path
         inkscape:connector-curvature="0"
         d="m 315.748,1648.19 0.011,0 0,-0.01 -0.011,0 0,0.01 z"
         id="path4911" />
    </clipPath>
    <clipPath
       clipPathUnits="userSpaceOnUse"
       id="clipPath4857">
      <path
         inkscape:connector-curvature="0"
         d="m 327.146,1644.07 0.45,0 0,-0.02 -0.45,0 0,0.02 z"
         id="path4859" />
    </clipPath>
    <clipPath
       clipPathUnits="userSpaceOnUse"
       id="clipPath4861">
      <path
         inkscape:connector-curvature="0"
         d="m 327.146,1644.07 0.446,0 0,-0.02 -0.446,0 0,0.02 z"
         id="path4863" />
    </clipPath>
    <clipPath
       clipPathUnits="userSpaceOnUse"
       id="clipPath4865">
      <path
         inkscape:connector-curvature="0"
         d="m 327.592,1644.05 0.004,0 0,0 -0.004,0 z"
         id="path4867" />
    </clipPath>
  </defs>
  <sodipodi:namedview
     id="base"
     pagecolor="#ffffff"
     bordercolor="#666666"
     borderopacity="1.0"
     inkscape:pageopacity="0.0"
     inkscape:pageshadow="2"
     inkscape:zoom="7"
     inkscape:cx="25.460933"
     inkscape:cy="18.285714"
     inkscape:current-layer="layer1"
     showgrid="true"
     inkscape:grid-bbox="true"
     inkscape:document-units="px"
     inkscape:window-width="887"
     inkscape:window-height="690"
     inkscape:window-x="391"
     inkscape:window-y="23"
     inkscape:window-maximized="0" />
  <metadata
     id="metadata28088">
    <rdf:RDF>
      <cc:Work
         rdf:about="">
        <dc:format>image/svg+xml</dc:format>
        <dc:type
           rdf:resource="http://purl.org/dc/dcmitype/StillImage" />
        <dc:title></dc:title>
      </cc:Work>
    </rdf:RDF>
  </metadata>
  <g
     id="layer1"
     inkscape:label="Layer 1"
     inkscape:groupmode="layer">
    <path
       inkscape:connector-curvature="0"
       d="m 25.350968,12.713242 c 2.376909,0.188416 4.24974,2.181697 4.24974,4.607692 0,2.469419 -1.942684,4.484223 -4.381518,4.609582 v 0.946232 c 0.665308,0.10497 1.175805,0.684188 1.175805,1.378571 0,0.169913 -0.0321,0.333031 -0.08647,0.484066 l 0.865052,0.49917 c 1.337035,-2.019334 4.033761,-2.677847 6.159197,-1.450689 2.120906,1.224515 2.903644,3.880082 1.835073,6.04441 1.467302,-2.85569 0.446685,-6.395566 -2.36445,-8.018434 -0.702688,-0.405528 -1.452576,-0.652849 -2.210394,-0.755175 0.289988,-0.70722 0.45084,-1.481273 0.45084,-2.293463 0,-3.222326 -2.518505,-5.860148 -5.692879,-6.051962 l 0,0 z m -0.774809,0.0034 c -3.158515,0.208437 -5.65965,2.837575 -5.65965,6.048197 0,0.788779 0.150657,1.542442 0.424785,2.233427 -0.735539,0.107983 -1.463904,0.353043 -2.146581,0.746866 -2.791878,1.612295 -3.815139,5.11517 -2.390126,7.961042 -1.028923,-2.154133 -0.239767,-4.774964 1.861882,-5.988528 2.139407,-1.235086 4.855012,-0.559206 6.182985,1.489581 l 0.835222,-0.481424 c -0.05211,-0.146503 -0.07968,-0.30509 -0.07968,-0.470095 0,-0.665308 0.467075,-1.222627 1.090472,-1.361201 V 21.92864 c -2.416557,-0.148015 -4.335454,-2.153379 -4.335454,-4.607695 0,-2.415045 1.854329,-4.400019 4.216135,-4.604293 l 0,0 z m 0.270352,5.804643 c -1.22036,0.02794 -2.344437,0.443664 -3.267636,1.119167 0.07325,0.109502 0.152544,0.214846 0.235991,0.31604 0.08344,0.101573 0.17218,0.198234 0.265066,0.29112 0.09214,0.09289 0.189171,0.181242 0.291119,0.265066 0.07439,0.06154 0.154433,0.116674 0.233349,0.172935 0.681167,-0.447818 1.497888,-0.709487 2.376532,-0.709487 0.8794,0 1.6931,0.261669 2.374267,0.709487 0.07892,-0.05626 0.158964,-0.111763 0.232971,-0.172935 0.101573,-0.08382 0.198234,-0.172179 0.291119,-0.265066 0.09326,-0.09289 0.181243,-0.189548 0.265066,-0.29112 0.08383,-0.101573 0.162363,-0.206917 0.236747,-0.31604 -0.956805,-0.700046 -2.129212,-1.119167 -3.399792,-1.119167 -0.03096,0 -0.06004,-3.78e-4 -0.091,0 -0.01397,3.78e-4 -0.02946,-7.31e-4 -0.0438,0 l 0,0 z m -5.561477,5.091382 c -0.128002,1.178826 0.09553,2.404095 0.731386,3.504761 0.635856,1.101431 1.58511,1.909468 2.668406,2.386737 0.0589,-0.118184 0.110256,-0.240523 0.155566,-0.363616 0.04644,-0.123093 0.08647,-0.247319 0.120073,-0.374189 0.03361,-0.126868 0.06305,-0.256003 0.08458,-0.385138 0.01699,-0.09478 0.02529,-0.191437 0.03399,-0.288099 -0.727988,-0.36626 -1.362712,-0.942079 -1.802223,-1.703671 -0.439511,-0.760839 -0.620375,-1.597194 -0.573932,-2.411271 -0.08798,-0.04003 -0.176333,-0.0808 -0.266577,-0.114788 -0.123092,-0.04607 -0.247319,-0.08608 -0.374565,-0.120073 -0.126492,-0.03436 -0.255249,-0.06117 -0.384762,-0.08307 -0.129511,-0.02153 -0.260534,-0.03814 -0.391934,-0.04758 l 0,0 z m 11.429556,0.06947 c -0.131779,0.009 -0.262423,0.02605 -0.391558,0.04757 -0.12989,0.02153 -0.258269,0.04908 -0.385517,0.08269 -0.12649,0.03436 -0.252605,0.07439 -0.37532,0.120073 -0.09062,0.03398 -0.176334,0.07665 -0.265066,0.116674 0.04644,0.813322 -0.134043,1.650432 -0.57431,2.411647 -0.438379,0.761215 -1.074613,1.335524 -1.8026,1.701784 0.0099,0.09666 0.01812,0.19257 0.03436,0.288098 0.02153,0.129513 0.04909,0.257893 0.08307,0.384385 0.03436,0.126868 0.07401,0.253738 0.12045,0.376076 0.04493,0.123471 0.09704,0.243922 0.155189,0.362483 1.084429,-0.478402 2.033682,-1.28455 2.668028,-2.384839 0.63548,-1.10142 0.861653,-2.328578 0.733274,-3.506649 l 0,0 z m -6.765602,1.490347 -0.840509,0.487086 c 1.081031,2.167349 0.303957,4.831602 -1.821857,6.059137 -2.115242,1.220738 -4.798375,0.578463 -6.141073,-1.417461 1.74294,2.685776 5.308117,3.566308 8.113209,1.947215 0.679657,-0.39269 1.252833,-0.899034 1.713112,-1.477874 0.468208,0.609046 1.06102,1.138046 1.768995,1.546595 2.808491,1.62098 6.37782,0.737428 8.119629,-1.9559 -1.341566,2.004609 -4.028475,2.653304 -6.14787,1.429545 -2.137897,-1.235088 -2.912706,-3.924639 -1.80109,-6.099539 l -0.873736,-0.504805 c -0.255249,0.284323 -0.625661,0.464054 -1.037987,0.464054 -0.417988,0 -0.794442,-0.18615 -1.050823,-0.478025 l 0,0 z M 40.108574,14.147695 C 36.837917,9.2900389 31.285123,6.0862143 25.000189,6.0862143 c -9.478942,0 -17.2897043,7.2840287 -18.1226606,16.5492557 -0.051354,0.542971 -0.077032,1.09387 -0.077032,1.650433 0,6.115019 3.0316449,11.535657 7.6703006,14.838032 2.974629,2.115997 6.608903,3.361279 10.52901,3.361279 3.762276,0 7.264395,-1.14862 10.16766,-3.112827 4.842175,-3.272546 8.032029,-8.81552 8.032029,-15.086484 0,-3.75057 -1.138802,-7.238341 -3.090926,-10.138208 z m -4.656401,17.603478 c -1.385745,1.687436 -3.452278,2.676714 -5.675132,2.678602 l 4.200654,4.071897 c -2.599685,1.646656 -5.678907,2.601952 -8.977506,2.601952 -3.460207,0 -6.677624,-1.049691 -9.354337,-2.848517 l 3.977499,-3.838925 c -2.139784,-0.174067 -4.090398,-1.251323 -5.371173,-2.978784 l -2.858334,2.71976 C 9.3745106,31.383781 8.1820904,27.971151 8.1820904,24.285903 c 0,-0.515029 0.023788,-1.024393 0.069102,-1.525829 0.2446763,-2.715982 1.1391797,-5.246947 2.5245456,-7.437707 l 5.410821,5.516923 c 0.116296,-0.07476 0.236746,-0.149902 0.359462,-0.220889 0.378719,-0.217489 0.775563,-0.402508 1.184112,-0.550522 -0.07514,-0.426294 -0.114405,-0.862786 -0.114405,-1.303051 0,-1.377816 0.384761,-2.678602 1.057999,-3.787953 l -4.006952,-3.951824 c 2.852291,-2.2285183 6.4405,-3.5572458 10.333421,-3.5572458 3.734712,0 7.189256,1.2237583 9.984154,3.2906698 l -3.920109,3.867244 c 0.80766,1.18449 1.278888,2.611392 1.278888,4.139109 0,0.458012 -0.04078,0.909984 -0.126114,1.354025 0.404395,0.143862 0.797464,0.319816 1.170897,0.536929 l 5.66116,-5.606032 c 1.750115,2.652926 2.768845,5.827298 2.768845,9.236153 0,3.890277 -1.32835,7.477353 -3.554981,10.329267 L 35.45218,31.751173 z"
       id="path4557"
       style="fill:#4d4d4d" />
  </g>
</svg>
