<?xml version="1.0" encoding="UTF-8" standalone="no"?>
<!-- Created with Inkscape (http://www.inkscape.org/) -->

<svg
   xmlns:dc="http://purl.org/dc/elements/1.1/"
   xmlns:cc="http://creativecommons.org/ns#"
   xmlns:rdf="http://www.w3.org/1999/02/22-rdf-syntax-ns#"
   xmlns:svg="http://www.w3.org/2000/svg"
   xmlns="http://www.w3.org/2000/svg"
   xmlns:sodipodi="http://sodipodi.sourceforge.net/DTD/sodipodi-0.dtd"
   xmlns:inkscape="http://www.inkscape.org/namespaces/inkscape"
   version="1.1"
   width="48"
   height="48"
   id="svg28083"
   inkscape:version="0.48.4 r9939"
   sodipodi:docname="budget-culture.svg">
  <sodipodi:namedview
     pagecolor="#ffffff"
     bordercolor="#666666"
     borderopacity="1"
     objecttolerance="10"
     gridtolerance="10"
     guidetolerance="10"
     inkscape:pageopacity="0"
     inkscape:pageshadow="2"
     inkscape:window-width="1855"
     inkscape:window-height="1056"
     id="namedview43"
     showgrid="false"
     inkscape:zoom="4.9166667"
     inkscape:cx="24"
     inkscape:cy="24"
     inkscape:window-x="65"
     inkscape:window-y="24"
     inkscape:window-maximized="1"
     inkscape:current-layer="svg28083" />
  <defs
     id="defs28085">
    <clipPath
       id="clipPath4901">
      <path
         d="m 315.748,1648.19 0.773,0 0,-0.63 -0.773,0 0,0.63 z"
         id="path4903" />
    </clipPath>
    <clipPath
       id="clipPath4905">
      <path
         d="m 315.759,1648.18 0.762,0 0,-0.62 -0.762,0 0,0.62 z"
         id="path4907" />
    </clipPath>
    <clipPath
       id="clipPath4909">
      <path
         d="m 315.748,1648.19 0.011,0 0,-0.01 -0.011,0 0,0.01 z"
         id="path4911" />
    </clipPath>
    <clipPath
       id="clipPath4857">
      <path
         d="m 327.146,1644.07 0.45,0 0,-0.02 -0.45,0 0,0.02 z"
         id="path4859" />
    </clipPath>
    <clipPath
       id="clipPath4861">
      <path
         d="m 327.146,1644.07 0.446,0 0,-0.02 -0.446,0 0,0.02 z"
         id="path4863" />
    </clipPath>
    <clipPath
       id="clipPath4865">
      <path
         d="m 327.592,1644.05 0.004,0 0,0 -0.004,0 z"
         id="path4867" />
    </clipPath>
  </defs>
  <metadata
     id="metadata28088">
    <rdf:RDF>
      <cc:Work
         rdf:about="">
        <dc:format>image/svg+xml</dc:format>
        <dc:type
           rdf:resource="http://purl.org/dc/dcmitype/StillImage" />
        <dc:title />
      </cc:Work>
    </rdf:RDF>
  </metadata>
  <g
     id="g3020">
    <g
       id="g3159"
       transform="matrix(0.46035196,0,0,0.46035196,-23.967478,12.947395)">
      <path
         style="color:#000000;fill:#cfcccd;fill-opacity:1;fill-rule:nonzero;stroke:none;stroke-width:0.87133676;marker:none;visibility:visible;display:inline;overflow:visible;enable-background:accumulate"
         id="path4-3"
         d="m 104.59657,-15.199363 c 0.059,0.623 -0.242,1.266 -1.027,1.471 -3.338,0.871 -7.028999,1.981 -9.855999,3.9949997 -7.936,5.649 1.951,19.048 6.695999,23.3950003 0.57,0.522 0.559,1.53 0,2.058 -1.250999,1.173 -2.553999,2.227 -3.903999,3.283 -1.461,1.139 -3.534,-0.903 -2.058,-2.056 0.959,-0.75 1.884,-1.514 2.792,-2.303 -5.352,-5.4030003 -12.279,-15.8620003 -8.491,-23.2210003 2.447,-4.7509997 9.239,-6.6999997 14.049999,-7.9549997 0.658,-0.171 1.176,0.089 1.485,0.512 -1.206,-3.13 -2.602,-6.201 -4.266,-9.25 -4.135999,7.142 -16.935999,9.921 -23.843999,10.958 -7.501,1.129 -15.106,0.633 -22.648,0.22 3.491,25.033 18.551,54.829 47.741999,51.753 14.428,-3.179 9.952,-25.891 7.935,-36.0760003 -1.175,-5.917 -2.615,-11.443 -4.606,-16.7839997 z m -7.599999,13.0909997 c -0.461,0.656 -0.721,1.17900002 -0.841,1.97100002 -0.283,1.84999998 -3.085,1.062 -2.805,-0.773 0.198,-1.29500002 0.949,-2.73600002 1.931,-3.60000002 2.245,-1.974 5.142999,-1.78 7.804999,-0.792 1.742,0.647 0.989,3.459 -0.773,2.805 -1.566,-0.58 -4.115999,-1.316 -5.316999,0.389 z m -32.66,0.504 c 4.307,-4.364 10.766,-5.707 16.609,-4.405 1.83,0.409 1.053,3.213 -0.773,2.805 -4.835,-1.078 -10.217,0.048 -13.778,3.65800002 -1.32,1.33699998 -3.374,-0.721 -2.058,-2.05800002 z m 16.779,4.882 c -3.029,-0.739 -6.546,0.061 -7.386,3.044 -0.508,1.802 -3.312,1.037 -2.805,-0.773 1.367,-4.85699998 6.558,-6.15199998 10.962,-5.07699998 1.822,0.445 1.051,3.24999998 -0.771,2.80599998 z M 101.50757,28.675637 c -6.440999,4.091 -15.772999,2.636 -19.711999,-2.231 -0.063,-0.079 0.336,-0.834 0.397,-0.843 6.953,-1.032 18.719999,-3.953 24.485999,-7.797 0.308,-0.204 0.733,0.068 0.729,0.418 -0.067,4.44 -2.11,8.047 -5.9,10.453 z" />
      <path
         style="color:#000000;fill:#cfcccd;fill-opacity:1;fill-rule:nonzero;stroke:none;stroke-width:0.87133676;marker:none;visibility:visible;display:inline;overflow:visible;enable-background:accumulate"
         id="path14"
         d="m 153.23557,-18.504363 c 0,0 0,0 -6.41,1.805 -29.171,8.2199997 -36.604,-3.636 -38.365,-2.65 -0.251,0.14 -0.586,1.432 -0.914,3.538 1.426,3.794 2.584,7.6829997 3.531,11.6449997 4.684,-1.041 11.614,-5.419 12.704,2.103 0.528,3.649 0.448,7.477 -0.586,11.048 -0.592,2.0560003 -1.278,4.1800003 -2.423,6.0080003 -0.415,0.659 1.397,1.515 1.823,1.952 1.31,1.341 -0.745,3.399 -2.056,2.056 -0.98,-1.003 -3.652,-1.535 -3.177,-3.514 0.932,-3.88 3.42,-6.9730003 3.732,-11.2120003 0.188,-2.522 0.286,-10.485 -4.443,-7.427 -1.631,1.055 -3.177,1.641 -4.917,1.913 0.13,0.61400002 0.261,1.22600002 0.379,1.84600002 0.188,0.05 0.375,0.134 0.552,0.272 1.723,1.33499998 3.222,1.57799998 4.906,0.071 1.393,-1.247 3.456,0.80299998 2.056,2.05799998 -1.224,1.096 -2.857,2.188 -4.602,1.968 -0.832,-0.106 -1.562,-0.342 -2.253,-0.667 0.38,2.345 0.69,4.711 0.942,7.0930003 0.254,2.396 0.443,5.091 0.43,7.854 2.724,-0.144 5.557,0.85 8.161,1.561 1.689,0.457 3.801,0.958 5.052,2.294 1.265,1.352 4.443,4.631 1.848,6.213 -0.334,0.206 -0.661,0.251 -0.955,0.195 -2.748,0.068 -4.648,-1.257 -6.92,-2.699 -1.796,-1.139 -3.776,-2.007 -5.935,-2.133 -0.436,-0.024 -1.026,0.057 -1.592,0.088 -0.341,2.684 -0.96,5.284 -2.003,7.582 2.271,3.661 5.398,5.804 9.653,5.401 37.317,-3.548 31.782,-56.262 31.782,-56.262 z m -13.968,25.7419997 c -2.943,0.943 -10.733,-0.805 -10.129,-5.031 0.268,-1.85099998 3.067,-1.06 2.806,0.773 0.084,-0.588 0.054,-0.207 0.49,0.063 0.218,0.143 0.443,0.278 0.674,0.399 0.366,0.188 0.731,0.376 1.123,0.506 1.354,0.447 2.854,0.939 4.264,0.487 1.791,-0.577 2.551,2.234 0.772,2.803 z m 3.205,-5.172 c -5.174,-1.007 -10.073,-1.67699998 -14.354,-4.985 -1.481,-1.146 0.594,-3.191 2.059,-2.058 3.782,2.926 8.532,3.355 13.069,4.23800002 1.84,0.36 1.057,3.15999998 -0.774,2.80499998 z" />
    </g>
    <g
       id="g3135"
       transform="matrix(0.4908369,0,0,0.4908369,43.347908,21.381791)">
      <g
         style="color:#000000;fill:#cfcccd;fill-opacity:1;fill-rule:nonzero;stroke:none;stroke-width:0.69706941;marker:none;visibility:visible;display:inline;overflow:visible;enable-background:accumulate"
         id="g506"
         transform="matrix(1.25,0,0,-1.25,-37.512015,34.789854)">
        <path
           style="color:#000000;fill:#cfcccd;fill-opacity:1;fill-rule:nonzero;stroke:none;stroke-width:0.69706941;marker:none;visibility:visible;display:inline;overflow:visible;enable-background:accumulate"
           id="path508"
           d="m 0,0 c -0.012,-0.025 -0.018,-0.051 -0.029,-0.078 -0.108,-0.218 -0.219,-0.426 -0.338,-0.629 0,-0.002 0,-0.003 -0.002,-0.005 0.031,-0.138 0.035,-0.29 -0.004,-0.456 -0.119,-0.531 -0.34,-1.074 -0.643,-1.575 -0.236,-2.631 -2.472,-4.692 -5.199,-4.692 -2.885,0 -5.223,2.309 -5.223,5.156 0,0.243 0.018,0.481 0.053,0.717 -0.414,0.62 -0.769,1.266 -0.924,1.869 -0.347,-0.794 -0.543,-1.667 -0.543,-2.586 0,-3.618 2.973,-6.549 6.637,-6.549 3.666,0 6.635,2.931 6.635,6.549 C 0.42,-1.476 0.271,-0.71 0,0" />
      </g>
      <g
         style="color:#000000;fill:#cfcccd;fill-opacity:1;fill-rule:nonzero;stroke:none;stroke-width:0.69706941;marker:none;visibility:visible;display:inline;overflow:visible;enable-background:accumulate"
         id="g510"
         transform="matrix(1.25,0,0,-1.25,-37.685215,38.216354)">
        <path
           style="color:#000000;fill:#cfcccd;fill-opacity:1;fill-rule:nonzero;stroke:none;stroke-width:0.69706941;marker:none;visibility:visible;display:inline;overflow:visible;enable-background:accumulate"
           id="path512"
           d="m 0,0 c -0.117,-0.685 -0.445,-1.366 -0.676,-2.025 -0.045,-0.125 -0.109,-0.239 -0.185,-0.338 0.002,-0.055 0.009,-0.106 0.009,-0.16 0,-2.748 -2.339,-4.976 -5.224,-4.976 -2.885,0 -5.223,2.228 -5.223,4.976 0,0.18 0.012,0.359 0.031,0.535 -0.441,0.642 -0.763,1.456 -0.759,2.244 -0.436,-0.838 -0.686,-1.777 -0.686,-2.779 0,-3.493 2.973,-6.323 6.637,-6.323 3.666,0 6.635,2.83 6.635,6.323 C 0.559,-1.624 0.357,-0.771 0,0" />
      </g>
      <g
         style="color:#000000;fill:#cfcccd;fill-opacity:1;fill-rule:nonzero;stroke:none;stroke-width:0.69706941;marker:none;visibility:visible;display:inline;overflow:visible;enable-background:accumulate"
         id="g514"
         transform="matrix(1.25,0,0,-1.25,-37.565615,42.006654)">
        <path
           style="color:#000000;fill:#cfcccd;fill-opacity:1;fill-rule:nonzero;stroke:none;stroke-width:0.69706941;marker:none;visibility:visible;display:inline;overflow:visible;enable-background:accumulate"
           id="path516"
           d="m 0,0 c 0.092,-0.969 -0.217,-1.94 -0.816,-2.773 -0.053,-0.072 -0.116,-0.131 -0.18,-0.187 -0.334,-2.442 -2.52,-4.33 -5.176,-4.33 -2.678,0 -4.879,1.917 -5.185,4.388 -0.239,0.264 -0.446,0.563 -0.616,0.885 -0.172,0.115 -0.304,0.304 -0.355,0.589 -0.055,0.314 -0.119,0.616 -0.203,0.923 -0.182,-0.573 -0.278,-1.181 -0.278,-1.808 0,-3.494 2.973,-6.324 6.637,-6.324 3.666,0 6.635,2.83 6.635,6.324 C 0.463,-1.497 0.297,-0.717 0,0" />
      </g>
      <g
         style="color:#000000;fill:#cfcccd;fill-opacity:1;fill-rule:nonzero;stroke:none;stroke-width:0.69706941;marker:none;visibility:visible;display:inline;overflow:visible;enable-background:accumulate"
         id="g518"
         transform="matrix(1.25,0,0,-1.25,-45.280515,40.276954)">
        <path
           style="color:#000000;fill:#cfcccd;fill-opacity:1;fill-rule:nonzero;stroke:none;stroke-width:0.69706941;marker:none;visibility:visible;display:inline;overflow:visible;enable-background:accumulate"
           id="path520"
           d="M 0,0 C -2.885,0 -5.223,2.307 -5.223,5.154 -5.223,8 -2.885,10.309 0,10.309 2.885,10.309 5.225,8 5.225,5.154 5.225,2.307 2.885,0 0,0 m 0,11.702 c -3.664,0 -6.637,-2.931 -6.637,-6.548 0,-3.616 2.973,-6.548 6.637,-6.548 3.666,0 6.635,2.932 6.635,6.548 0,3.617 -2.969,6.548 -6.635,6.548" />
      </g>
      <g
         style="color:#000000;fill:#cfcccd;fill-opacity:1;fill-rule:nonzero;stroke:none;stroke-width:0.69706941;marker:none;visibility:visible;display:inline;overflow:visible;enable-background:accumulate"
         id="g526"
         transform="matrix(1.25,0,0,-1.25,-19.357615,31.187554)">
        <path
           style="color:#000000;fill:#cfcccd;fill-opacity:1;fill-rule:nonzero;stroke:none;stroke-width:0.69706941;marker:none;visibility:visible;display:inline;overflow:visible;enable-background:accumulate"
           id="path528"
           d="m 0,0 c -0.012,-0.025 -0.018,-0.051 -0.029,-0.077 -0.11,-0.217 -0.221,-0.425 -0.338,-0.629 0,-0.002 -0.002,-0.004 -0.002,-0.004 0.031,-0.14 0.035,-0.29 -0.004,-0.457 -0.121,-0.532 -0.342,-1.075 -0.643,-1.576 -0.238,-2.63 -2.474,-4.691 -5.199,-4.691 -2.885,0 -5.224,2.307 -5.224,5.155 0,0.244 0.019,0.483 0.054,0.717 -0.414,0.62 -0.769,1.268 -0.922,1.869 -0.349,-0.794 -0.545,-1.666 -0.545,-2.586 0,-3.617 2.973,-6.549 6.637,-6.549 3.664,0 6.637,2.932 6.637,6.549 C 0.422,-1.476 0.268,-0.71 0,0" />
      </g>
      <g
         style="color:#000000;fill:#cfcccd;fill-opacity:1;fill-rule:nonzero;stroke:none;stroke-width:0.69706941;marker:none;visibility:visible;display:inline;overflow:visible;enable-background:accumulate"
         id="g530"
         transform="matrix(1.25,0,0,-1.25,-19.531015,34.612854)">
        <path
           style="color:#000000;fill:#cfcccd;fill-opacity:1;fill-rule:nonzero;stroke:none;stroke-width:0.69706941;marker:none;visibility:visible;display:inline;overflow:visible;enable-background:accumulate"
           id="path532"
           d="m 0,0 c -0.117,-0.685 -0.443,-1.365 -0.678,-2.024 -0.043,-0.127 -0.107,-0.241 -0.183,-0.342 0.002,-0.051 0.007,-0.105 0.007,-0.157 0,-2.749 -2.337,-4.978 -5.222,-4.978 -2.885,0 -5.225,2.229 -5.225,4.978 0,0.179 0.012,0.358 0.033,0.533 -0.441,0.642 -0.763,1.458 -0.757,2.245 -0.44,-0.837 -0.688,-1.778 -0.688,-2.778 0,-3.493 2.973,-6.323 6.637,-6.323 3.664,0 6.637,2.83 6.637,6.323 C 0.561,-1.624 0.357,-0.772 0,0" />
      </g>
      <g
         style="color:#000000;fill:#cfcccd;fill-opacity:1;fill-rule:nonzero;stroke:none;stroke-width:0.69706941;marker:none;visibility:visible;display:inline;overflow:visible;enable-background:accumulate"
         id="g534"
         transform="matrix(1.25,0,0,-1.25,-19.416215,38.404254)">
        <path
           style="color:#000000;fill:#cfcccd;fill-opacity:1;fill-rule:nonzero;stroke:none;stroke-width:0.69706941;marker:none;visibility:visible;display:inline;overflow:visible;enable-background:accumulate"
           id="path536"
           d="m 0,0 c 0.094,-0.97 -0.211,-1.94 -0.812,-2.772 -0.053,-0.071 -0.114,-0.132 -0.182,-0.187 -0.332,-2.443 -2.52,-4.33 -5.174,-4.33 -2.676,0 -4.879,1.916 -5.184,4.387 -0.242,0.263 -0.445,0.562 -0.617,0.884 -0.172,0.116 -0.306,0.306 -0.357,0.59 -0.053,0.314 -0.119,0.617 -0.203,0.923 -0.178,-0.573 -0.276,-1.18 -0.276,-1.808 0,-3.494 2.973,-6.322 6.637,-6.322 3.664,0 6.637,2.828 6.637,6.322 C 0.469,-1.496 0.301,-0.717 0,0" />
      </g>
      <g
         style="color:#000000;fill:#cfcccd;fill-opacity:1;fill-rule:nonzero;stroke:none;stroke-width:0.69706941;marker:none;visibility:visible;display:inline;overflow:visible;enable-background:accumulate"
         id="g538"
         transform="matrix(1.25,0,0,-1.25,-19.416215,42.006654)">
        <path
           style="color:#000000;fill:#cfcccd;fill-opacity:1;fill-rule:nonzero;stroke:none;stroke-width:0.69706941;marker:none;visibility:visible;display:inline;overflow:visible;enable-background:accumulate"
           id="path540"
           d="m 0,0 c 0.094,-0.969 -0.211,-1.94 -0.812,-2.773 -0.053,-0.072 -0.114,-0.131 -0.182,-0.187 -0.332,-2.442 -2.52,-4.33 -5.174,-4.33 -2.676,0 -4.879,1.917 -5.184,4.388 -0.242,0.264 -0.445,0.563 -0.617,0.885 -0.172,0.115 -0.306,0.304 -0.357,0.589 -0.053,0.314 -0.119,0.616 -0.203,0.923 -0.178,-0.573 -0.276,-1.181 -0.276,-1.808 0,-3.494 2.973,-6.324 6.637,-6.324 3.664,0 6.637,2.83 6.637,6.324 C 0.469,-1.497 0.301,-0.717 0,0" />
      </g>
      <g
         style="color:#000000;fill:#cfcccd;fill-opacity:1;fill-rule:nonzero;stroke:none;stroke-width:0.69706941;marker:none;visibility:visible;display:inline;overflow:visible;enable-background:accumulate"
         id="g542"
         transform="matrix(1.25,0,0,-1.25,-27.126215,36.674554)">
        <path
           style="color:#000000;fill:#cfcccd;fill-opacity:1;fill-rule:nonzero;stroke:none;stroke-width:0.69706941;marker:none;visibility:visible;display:inline;overflow:visible;enable-background:accumulate"
           id="path544"
           d="m 0,0 c -2.885,0 -5.225,2.309 -5.225,5.154 0,2.847 2.34,5.156 5.225,5.156 2.885,0 5.223,-2.309 5.223,-5.156 C 5.223,2.309 2.885,0 0,0 m 0,11.704 c -3.664,0 -6.637,-2.933 -6.637,-6.55 0,-3.616 2.973,-6.547 6.637,-6.547 3.664,0 6.637,2.931 6.637,6.547 0,3.617 -2.973,6.55 -6.637,6.55" />
      </g>
      <g
         style="font-size:23.02468109px;font-style:normal;font-weight:normal;line-height:125%;letter-spacing:0px;word-spacing:0px;color:#000000;fill:#cfcccd;fill-opacity:1;fill-rule:nonzero;stroke:none;stroke-width:1.63744032;marker:none;visibility:visible;display:inline;overflow:visible;enable-background:accumulate;font-family:Sans"
         id="text3888"
         transform="matrix(0.53213344,0,0,0.53213344,-56.747388,-19.094877)">
        <path
           style="font-variant:normal;font-stretch:normal;color:#000000;fill:#cfcccd;fill-opacity:1;fill-rule:nonzero;stroke:none;stroke-width:1.63744032;marker:none;visibility:visible;display:inline;overflow:visible;enable-background:accumulate;font-family:Montserrat;-inkscape-font-specification:Montserrat"
           id="path3893"
           d="m 46.219081,92.018714 0,-1.980123 2.394566,0 c 0.506539,-1.642414 1.404501,-2.962495 2.693888,-3.960245 1.289375,-0.99772 2.755278,-1.496588 4.397714,-1.496604 2.440603,1.6e-5 4.374675,0.882628 5.80222,2.647838 l -1.634753,2.072221 c -0.675404,-0.721427 -1.320095,-1.22797 -1.934073,-1.519629 -0.598654,-0.291632 -1.343118,-0.437455 -2.233394,-0.437469 -0.890297,1.4e-5 -1.69616,0.237936 -2.417591,0.713766 -0.706098,0.460506 -1.235665,1.120546 -1.588703,1.980122 l 5.479874,0 0,1.980123 -5.963393,0 c -0.01536,0.184206 -0.02303,0.468177 -0.02302,0.851913 -6e-6,0.368403 0.02302,0.721447 0.06907,1.059135 l 5.917343,0 0,1.980123 -5.295677,0 c 0.828881,1.596381 2.079887,2.394569 3.753023,2.394567 0.828877,2e-6 1.534967,-0.153495 2.118271,-0.460494 0.598628,-0.322342 1.227969,-0.82121 1.888024,-1.496604 l 1.634752,1.980122 c -1.427545,1.765224 -3.307892,2.647834 -5.641047,2.647834 -1.596387,0 -3.016241,-0.45281 -4.259566,-1.358452 -1.227988,-0.920984 -2.1106,-2.156641 -2.647838,-3.706973 l -2.50969,0 0,-1.980123 2.072221,0 c -0.04605,-0.368387 -0.06908,-0.736782 -0.06907,-1.105185 -3e-6,-0.368386 0.0077,-0.637007 0.02302,-0.805863 l -2.026172,0" />
      </g>
      <g
         style="font-size:23.02468109px;font-style:normal;font-weight:normal;line-height:125%;letter-spacing:0px;word-spacing:0px;color:#000000;fill:#cfcccd;fill-opacity:1;fill-rule:nonzero;stroke:none;stroke-width:1.63744032;marker:none;visibility:visible;display:inline;overflow:visible;enable-background:accumulate;font-family:Sans"
         id="g3090"
         transform="matrix(0.53213344,0,0,0.53213344,-74.950778,-15.501657)">
        <path
           style="font-variant:normal;font-stretch:normal;color:#000000;fill:#cfcccd;fill-opacity:1;fill-rule:nonzero;stroke:none;stroke-width:1.63744032;marker:none;visibility:visible;display:inline;overflow:visible;enable-background:accumulate;font-family:Montserrat;-inkscape-font-specification:Montserrat"
           id="path3092"
           d="m 46.219081,92.018714 0,-1.980123 2.394566,0 c 0.506539,-1.642414 1.404501,-2.962495 2.693888,-3.960245 1.289375,-0.99772 2.755278,-1.496588 4.397714,-1.496604 2.440603,1.6e-5 4.374675,0.882628 5.80222,2.647838 l -1.634753,2.072221 c -0.675404,-0.721427 -1.320095,-1.22797 -1.934073,-1.519629 -0.598654,-0.291632 -1.343118,-0.437455 -2.233394,-0.437469 -0.890297,1.4e-5 -1.69616,0.237936 -2.417591,0.713766 -0.706098,0.460506 -1.235665,1.120546 -1.588703,1.980122 l 5.479874,0 0,1.980123 -5.963393,0 c -0.01536,0.184206 -0.02303,0.468177 -0.02302,0.851913 -6e-6,0.368403 0.02302,0.721447 0.06907,1.059135 l 5.917343,0 0,1.980123 -5.295677,0 c 0.828881,1.596381 2.079887,2.394569 3.753023,2.394567 0.828877,2e-6 1.534967,-0.153495 2.118271,-0.460494 0.598628,-0.322342 1.227969,-0.82121 1.888024,-1.496604 l 1.634752,1.980122 c -1.427545,1.765224 -3.307892,2.647834 -5.641047,2.647834 -1.596387,0 -3.016241,-0.45281 -4.259566,-1.358452 -1.227988,-0.920984 -2.1106,-2.156641 -2.647838,-3.706973 l -2.50969,0 0,-1.980123 2.072221,0 c -0.04605,-0.368387 -0.06908,-0.736782 -0.06907,-1.105185 -3e-6,-0.368386 0.0077,-0.637007 0.02302,-0.805863 l -2.026172,0" />
      </g>
    </g>
  </g>
</svg>
