<?xml version="1.0" encoding="UTF-8" standalone="no"?>
<!-- Created with Inkscape (http://www.inkscape.org/) -->

<svg
   xmlns:dc="http://purl.org/dc/elements/1.1/"
   xmlns:cc="http://creativecommons.org/ns#"
   xmlns:rdf="http://www.w3.org/1999/02/22-rdf-syntax-ns#"
   xmlns:svg="http://www.w3.org/2000/svg"
   xmlns="http://www.w3.org/2000/svg"
   xmlns:sodipodi="http://sodipodi.sourceforge.net/DTD/sodipodi-0.dtd"
   xmlns:inkscape="http://www.inkscape.org/namespaces/inkscape"
   width="48px"
   height="48px"
   id="svg28083"
   version="1.1"
   inkscape:version="0.48.4 r9939"
   sodipodi:docname="bulldozer.svg">
  <defs
     id="defs28085">
    <clipPath
       clipPathUnits="userSpaceOnUse"
       id="clipPath4901">
      <path
         inkscape:connector-curvature="0"
         d="m 315.748,1648.19 0.773,0 0,-0.63 -0.773,0 0,0.63 z"
         id="path4903" />
    </clipPath>
    <clipPath
       clipPathUnits="userSpaceOnUse"
       id="clipPath4905">
      <path
         inkscape:connector-curvature="0"
         d="m 315.759,1648.18 0.762,0 0,-0.62 -0.762,0 0,0.62 z"
         id="path4907" />
    </clipPath>
    <clipPath
       clipPathUnits="userSpaceOnUse"
       id="clipPath4909">
      <path
         inkscape:connector-curvature="0"
         d="m 315.748,1648.19 0.011,0 0,-0.01 -0.011,0 0,0.01 z"
         id="path4911" />
    </clipPath>
    <clipPath
       clipPathUnits="userSpaceOnUse"
       id="clipPath4857">
      <path
         inkscape:connector-curvature="0"
         d="m 327.146,1644.07 0.45,0 0,-0.02 -0.45,0 0,0.02 z"
         id="path4859" />
    </clipPath>
    <clipPath
       clipPathUnits="userSpaceOnUse"
       id="clipPath4861">
      <path
         inkscape:connector-curvature="0"
         d="m 327.146,1644.07 0.446,0 0,-0.02 -0.446,0 0,0.02 z"
         id="path4863" />
    </clipPath>
    <clipPath
       clipPathUnits="userSpaceOnUse"
       id="clipPath4865">
      <path
         inkscape:connector-curvature="0"
         d="m 327.592,1644.05 0.004,0 0,0 -0.004,0 z"
         id="path4867" />
    </clipPath>
  </defs>
  <sodipodi:namedview
     id="base"
     pagecolor="#ffffff"
     bordercolor="#666666"
     borderopacity="1.0"
     inkscape:pageopacity="0.0"
     inkscape:pageshadow="2"
     inkscape:zoom="7"
     inkscape:cx="26.60379"
     inkscape:cy="10.456341"
     inkscape:current-layer="layer1"
     showgrid="true"
     inkscape:grid-bbox="true"
     inkscape:document-units="px"
     inkscape:window-width="651"
     inkscape:window-height="653"
     inkscape:window-x="2123"
     inkscape:window-y="311"
     inkscape:window-maximized="0" />
  <metadata
     id="metadata28088">
    <rdf:RDF>
      <cc:Work
         rdf:about="">
        <dc:format>image/svg+xml</dc:format>
        <dc:type
           rdf:resource="http://purl.org/dc/dcmitype/StillImage" />
        <dc:title />
      </cc:Work>
    </rdf:RDF>
  </metadata>
  <g
     id="layer1"
     inkscape:label="Layer 1"
     inkscape:groupmode="layer">
    <g
       id="g3000">
      <g
         style="fill:#cfcccd"
         id="g6745"
         transform="matrix(0.70589279,0,0,-0.70589279,21.207678,24.029839)">
        <path
           d="M 0,0 0,9.047 4.036,8.866 c 0,0 0.769,0.16 1.026,-1.86 L 6.628,-2.039 C 3.149,-0.997 0.311,-0.158 0,0 m -0.776,0.23 c -0.632,0.09 -2.143,0.237 -4.069,-0.053 0,0 -0.675,-0.222 -0.739,0.352 l 0.77,8.047 c 0,0 0.224,0.675 1.73,0.611 l 2.308,-0.103 0,-8.854 z m 29.891,-7.314 c -1.208,-0.717 -2.02,-1.395 -2.566,-2.005 l -3.043,4.631 c -0.868,1.348 -2.148,1.88 -3.147,2.089 -0.15,0.515 -0.259,0.849 -0.259,0.849 -0.188,0.364 -0.586,0.601 -0.942,0.749 C 19.05,0.312 18.147,1.16 17.035,1.16 l -1.555,0 c -0.638,0 -1.205,-0.285 -1.599,-0.728 L 11.125,1.03 10.358,9.081 C 10.334,9.315 10.074,9.48 9.771,9.452 9.469,9.424 9.242,9.211 9.263,8.978 L 9.997,1.275 8.107,1.685 C 7.466,1.845 7.209,2.613 7.209,2.613 7.241,2.966 6.184,7.006 6.184,7.006 8.396,9.123 6.055,10.245 6.055,10.245 4.516,11.461 -7.25,10.789 -7.25,10.789 -9.433,10.629 -7.7,8.739 -7.7,8.739 -7.38,8.641 -7.603,8.033 -7.603,8.033 L -8.514,4.648 c -1.827,1.658 -7.895,7.218 -7.528,7.639 0,0 0.435,2.351 -2.658,1.237 l -7.052,-14.352 c 0,0 -0.436,-5.01 5.382,-4.517 0,0 3.216,0.619 3.4,6.311 0,0 -4.7,-2.598 -6.309,-1.671 l 6.125,8.539 c 0,0 4.581,-6.561 7.24,-8.386 1.082,0.594 2.338,0.449 2.338,0.449 l 6.075,-1.322 c 0.462,-0.04 0.876,-0.157 1.268,-0.311 l 5.358,-1.292 -0.094,0 14.608,-3.58 c 0.619,-0.071 1.127,-0.23 1.562,-0.44 0.01,0.236 0.007,0.49 -0.014,0.772 1.5,-0.838 3.334,-2.865 4.468,-4.232 -0.314,-0.873 -0.059,-1.411 -0.059,-1.411 2.387,-4.295 10.32,-2.923 10.32,-2.923 -3.64,1.909 -6.801,7.758 -6.801,7.758"
           style="fill:#cfcccd;fill-opacity:1;fill-rule:nonzero;stroke:none"
           id="path6747"
           inkscape:connector-curvature="0" />
      </g>
      <g
         style="fill:#cfcccd"
         id="g6749"
         transform="matrix(0.70589279,0,0,-0.70589279,20.719624,28.50232)">
        <path
           d="m 0,0 c 0.622,-0.866 0.997,-1.924 0.997,-3.072 0,-1.638 -0.759,-3.082 -1.926,-4.054 l 19.009,0 c -0.177,0.33 -0.287,0.698 -0.287,1.099 0,0.577 0.217,1.095 0.561,1.505 L 0,0 z"
           style="fill:#cfcccd;fill-opacity:1;fill-rule:nonzero;stroke:none"
           id="path6751"
           inkscape:connector-curvature="0" />
      </g>
      <g
         style="fill:#cfcccd"
         id="g6753"
         transform="matrix(0.70589279,0,0,-0.70589279,34.935034,34.410698)">
        <path
           d="m 0,0 c -0.241,0 -0.467,0.046 -0.686,0.113 l -22.667,0 C -23.705,0.04 -24.069,0 -24.44,0 c -2.926,0 -5.298,2.371 -5.298,5.298 0,2.927 2.372,5.299 5.298,5.299 0.857,0 1.655,-0.225 2.374,-0.587 L -0.328,4.653 C -0.219,4.669 -0.112,4.687 0,4.687 1.292,4.687 2.342,3.637 2.342,2.343 2.342,1.049 1.292,0 0,0 m 0.147,6.911 -24.316,5.02 c 0,0 -4.004,1.008 -6.428,-2.847 l -0.349,-0.712 -0.301,-0.923 -0.146,-0.957 -0.078,-0.89 -0.019,-0.989 0.155,-1.085 0.253,-0.994 c 0,0 0.719,-3.521 5.225,-4.164 L 0.076,-1.664 c 0,0 3.48,0.156 3.903,4.216 0,0 0.143,3.912 -3.832,4.359"
           style="fill:#cfcccd;fill-opacity:1;fill-rule:nonzero;stroke:none"
           id="path6755"
           inkscape:connector-curvature="0" />
      </g>
    </g>
  </g>
</svg>
