<?xml version="1.0" encoding="UTF-8" standalone="no"?>
<!-- Created with Inkscape (http://www.inkscape.org/) -->

<svg
   xmlns:dc="http://purl.org/dc/elements/1.1/"
   xmlns:cc="http://creativecommons.org/ns#"
   xmlns:rdf="http://www.w3.org/1999/02/22-rdf-syntax-ns#"
   xmlns:svg="http://www.w3.org/2000/svg"
   xmlns="http://www.w3.org/2000/svg"
   xmlns:sodipodi="http://sodipodi.sourceforge.net/DTD/sodipodi-0.dtd"
   xmlns:inkscape="http://www.inkscape.org/namespaces/inkscape"
   width="48px"
   height="48px"
   id="svg28083"
   version="1.1"
   inkscape:version="0.48.4 r9943 custom"
   sodipodi:docname="homme.svg">
  <defs
     id="defs28085">
    <clipPath
       clipPathUnits="userSpaceOnUse"
       id="clipPath4901">
      <path
         inkscape:connector-curvature="0"
         d="m 315.748,1648.19 0.773,0 0,-0.63 -0.773,0 0,0.63 z"
         id="path4903" />
    </clipPath>
    <clipPath
       clipPathUnits="userSpaceOnUse"
       id="clipPath4905">
      <path
         inkscape:connector-curvature="0"
         d="m 315.759,1648.18 0.762,0 0,-0.62 -0.762,0 0,0.62 z"
         id="path4907" />
    </clipPath>
    <clipPath
       clipPathUnits="userSpaceOnUse"
       id="clipPath4909">
      <path
         inkscape:connector-curvature="0"
         d="m 315.748,1648.19 0.011,0 0,-0.01 -0.011,0 0,0.01 z"
         id="path4911" />
    </clipPath>
    <clipPath
       clipPathUnits="userSpaceOnUse"
       id="clipPath4857">
      <path
         inkscape:connector-curvature="0"
         d="m 327.146,1644.07 0.45,0 0,-0.02 -0.45,0 0,0.02 z"
         id="path4859" />
    </clipPath>
    <clipPath
       clipPathUnits="userSpaceOnUse"
       id="clipPath4861">
      <path
         inkscape:connector-curvature="0"
         d="m 327.146,1644.07 0.446,0 0,-0.02 -0.446,0 0,0.02 z"
         id="path4863" />
    </clipPath>
    <clipPath
       clipPathUnits="userSpaceOnUse"
       id="clipPath4865">
      <path
         inkscape:connector-curvature="0"
         d="m 327.592,1644.05 0.004,0 0,0 -0.004,0 z"
         id="path4867" />
    </clipPath>
  </defs>
  <sodipodi:namedview
     id="base"
     pagecolor="#ffffff"
     bordercolor="#666666"
     borderopacity="1.0"
     inkscape:pageopacity="0.0"
     inkscape:pageshadow="2"
     inkscape:zoom="7"
     inkscape:cx="26.60379"
     inkscape:cy="24"
     inkscape:current-layer="layer1"
     showgrid="true"
     inkscape:grid-bbox="true"
     inkscape:document-units="px"
     inkscape:window-width="651"
     inkscape:window-height="653"
     inkscape:window-x="1333"
     inkscape:window-y="295"
     inkscape:window-maximized="0" />
  <metadata
     id="metadata28088">
    <rdf:RDF>
      <cc:Work
         rdf:about="">
        <dc:format>image/svg+xml</dc:format>
        <dc:type
           rdf:resource="http://purl.org/dc/dcmitype/StillImage" />
        <dc:title></dc:title>
      </cc:Work>
    </rdf:RDF>
  </metadata>
  <g
     id="layer1"
     inkscape:label="Layer 1"
     inkscape:groupmode="layer">
    <g
       transform="matrix(0.73036133,0,0,-0.73036133,38.942626,28.967957)"
       id="g6553">
      <path
         inkscape:connector-curvature="0"
         id="path6555"
         style="fill:#cfcccd;fill-opacity:1;fill-rule:nonzero;stroke:none"
         d="m 0,0 c -1.105,0 -1.998,-0.893 -1.998,-2 0,-1.103 0.893,-1.999 1.998,-1.999 1.104,0 2,0.896 2,1.999 0,1.107 -0.896,2 -2,2" />
    </g>
    <g
       transform="matrix(0.73036133,0,0,-0.73036133,14.719462,28.967957)"
       id="g6557">
      <path
         inkscape:connector-curvature="0"
         id="path6559"
         style="fill:#cfcccd;fill-opacity:1;fill-rule:nonzero;stroke:none"
         d="m 0,0 c -1.107,0 -2.004,-0.893 -2.004,-2 0,-1.103 0.897,-1.999 2.004,-1.999 1.104,0 1.998,0.896 1.998,1.999 0,1.107 -0.894,2 -1.998,2" />
    </g>
    <g
       transform="matrix(0.73036133,0,0,-0.73036133,9.875121,28.967957)"
       id="g6561">
      <path
         inkscape:connector-curvature="0"
         id="path6563"
         style="fill:#cfcccd;fill-opacity:1;fill-rule:nonzero;stroke:none"
         d="m 0,0 c -1.109,0 -2,-0.893 -2,-2 0,-1.103 0.891,-1.999 2,-1.999 1.102,0 1.998,0.896 1.998,1.999 0,1.107 -0.896,2 -1.998,2" />
    </g>
    <g
       transform="matrix(0.73036133,0,0,-0.73036133,41.303521,23.284793)"
       id="g6565">
      <path
         inkscape:connector-curvature="0"
         id="path6567"
         style="fill:#cfcccd;fill-opacity:1;fill-rule:nonzero;stroke:none"
         d="m 0,0 -3.203,0.001 0,6.287 C -1.193,5.261 -0.236,3.19 0.154,0 L 0,0 z m -10.678,0.001 0,7.012 4.776,0 C -5.297,6.961 -4.766,6.845 -4.27,6.701 l 0,-6.7 -6.408,0 z m -23.25,0.005 0,7.007 7.237,0 0,-7.01 -7.237,0.003 z m -8.308,7.007 7.238,0 0,-7.007 -7.238,0 0,7.007 z m -0.266,-10.66 -5.691,0 c -0.229,0 -0.414,0.115 -0.414,0.252 0,0.139 0.185,0.253 0.414,0.253 l 5.691,0 c 0.227,0 0.414,-0.114 0.414,-0.253 0,-0.137 -0.187,-0.252 -0.414,-0.252 m 0,-1.242 -5.691,0 c -0.229,0 -0.414,0.112 -0.414,0.253 0,0.139 0.185,0.251 0.414,0.251 l 5.691,0 c 0.227,0 0.414,-0.112 0.414,-0.251 0,-0.141 -0.187,-0.253 -0.414,-0.253 m 0,-1.243 -5.691,0 c -0.229,0 -0.414,0.113 -0.414,0.254 0,0.137 0.185,0.251 0.414,0.251 l 5.691,0 c 0.227,0 0.414,-0.114 0.414,-0.251 0,-0.141 -0.187,-0.254 -0.414,-0.254 m -0.803,13.101 0,-6.963 -5.05,0.001 c 0.158,0.686 0.417,6.49 5.05,6.962 m 24.086,-6.967 -6.406,0.001 0,7.01 6.406,0 0,-7.011 z m 1.069,7.011 6.406,0 0,-7.011 -6.406,0 0,7.011 z M 1.9,-0.12 c 0,2.638 -2.755,8.817 -6.513,8.817 l -0.455,0 c 0.05,0.132 0.078,0.278 0.078,0.428 0,0.601 -0.418,1.088 -0.934,1.088 l -2.588,0 c -0.509,0 -0.927,-0.487 -0.927,-1.088 0,-0.15 0.027,-0.296 0.076,-0.428 l -34.7,0 c -6.269,0.044 -6.804,-2.138 -6.804,-4.778 l 0,-8.813 c 0,-2.169 2.058,-3.996 4.881,-4.579 0.156,1.476 1.402,2.625 2.922,2.625 1.584,0 2.873,-1.254 2.933,-2.823 l 0.852,0 c 0.066,1.569 1.351,2.823 2.939,2.823 1.582,0 2.871,-1.254 2.932,-2.823 l 27.265,0 c 0.063,1.569 1.352,2.823 2.934,2.823 1.234,0 2.289,-0.761 2.725,-1.838 1.623,0.874 2.402,2.217 2.402,3.763 L 1.9,-0.12 z" />
    </g>
  </g>
</svg>
