<?xml version="1.0" encoding="UTF-8" standalone="no"?>
<!-- Created with Inkscape (http://www.inkscape.org/) -->

<svg
   xmlns:dc="http://purl.org/dc/elements/1.1/"
   xmlns:cc="http://creativecommons.org/ns#"
   xmlns:rdf="http://www.w3.org/1999/02/22-rdf-syntax-ns#"
   xmlns:svg="http://www.w3.org/2000/svg"
   xmlns="http://www.w3.org/2000/svg"
   xmlns:sodipodi="http://sodipodi.sourceforge.net/DTD/sodipodi-0.dtd"
   xmlns:inkscape="http://www.inkscape.org/namespaces/inkscape"
   width="48px"
   height="48px"
   id="svg3210"
   version="1.1"
   inkscape:version="0.48.4 r9943 custom"
   sodipodi:docname="Nouveau document 2">
  <defs
     id="defs3212" />
  <sodipodi:namedview
     id="base"
     pagecolor="#ffffff"
     bordercolor="#666666"
     borderopacity="1.0"
     inkscape:pageopacity="0.0"
     inkscape:pageshadow="2"
     inkscape:zoom="7"
     inkscape:cx="24"
     inkscape:cy="24"
     inkscape:current-layer="layer1"
     showgrid="true"
     inkscape:grid-bbox="true"
     inkscape:document-units="px"
     inkscape:window-width="605"
     inkscape:window-height="601"
     inkscape:window-x="2595"
     inkscape:window-y="1104"
     inkscape:window-maximized="0" />
  <metadata
     id="metadata3215">
    <rdf:RDF>
      <cc:Work
         rdf:about="">
        <dc:format>image/svg+xml</dc:format>
        <dc:type
           rdf:resource="http://purl.org/dc/dcmitype/StillImage" />
        <dc:title></dc:title>
      </cc:Work>
    </rdf:RDF>
  </metadata>
  <g
     id="layer1"
     inkscape:label="Layer 1"
     inkscape:groupmode="layer">
    <g
       id="g15848"
       transform="matrix(1.1437712,0,0,-1.1437712,12.045938,28.014808)">
      <path
         d="M 0,0 20.033,0 21.432,11.536 -2.793,8.438 0,0 z m 20.564,-1.207 -20.998,0 c -0.263,0 -0.492,0.165 -0.576,0.413 l -3.16,9.55 c -0.059,0.169 -0.035,0.357 0.061,0.512 0.097,0.151 0.257,0.253 0.435,0.277 l 25.721,3.287 c 0.189,0.027 0.371,-0.038 0.504,-0.169 0.135,-0.131 0.197,-0.318 0.174,-0.502 L 21.166,-0.677 c -0.037,-0.302 -0.293,-0.53 -0.602,-0.53"
         style="fill:#cfcccd;fill-opacity:1;fill-rule:nonzero;stroke:none"
         id="path15850"
         inkscape:connector-curvature="0" />
    </g>
    <g
       id="g15852"
       transform="matrix(1.1437712,0,0,-1.1437712,37.919322,14.418572)">
      <path
         d="m 0,0 -0.994,0.69 c 0.041,0.059 1.006,1.422 2.816,1.808 L 2.07,1.315 C 0.748,1.034 0.006,0.012 0,0"
         style="fill:#cfcccd;fill-opacity:1;fill-rule:nonzero;stroke:none"
         id="path15854"
         inkscape:connector-curvature="0" />
    </g>
    <g
       id="g15856"
       transform="matrix(1.1437712,0,0,-1.1437712,42.617294,12.096442)">
      <path
         d="m 0,0 c 0,-0.918 -0.746,-1.661 -1.664,-1.661 -0.916,0 -1.658,0.743 -1.658,1.661 0,0.917 0.742,1.66 1.658,1.66 C -0.746,1.66 0,0.917 0,0"
         style="fill:#cfcccd;fill-opacity:1;fill-rule:nonzero;stroke:none"
         id="path15858"
         inkscape:connector-curvature="0" />
    </g>
    <g
       id="g15860"
       transform="matrix(1.1437712,0,0,-1.1437712,8.100842,34.578682)">
      <path
         d="m 0,0 c -0.154,0 -0.309,0.06 -0.426,0.175 -0.238,0.236 -0.24,0.62 -0.004,0.855 1.26,1.271 3.176,1.286 3.254,1.286 l 21.699,0 -1.066,2.588 c -0.127,0.309 0.02,0.663 0.326,0.788 0.311,0.13 0.662,-0.018 0.791,-0.327 L 25.986,1.941 C 26.061,1.757 26.043,1.542 25.928,1.375 25.816,1.209 25.629,1.106 25.426,1.106 l -22.602,0 C 2.814,1.106 1.328,1.088 0.43,0.179 0.311,0.06 0.154,0 0,0"
         style="fill:#cfcccd;fill-opacity:1;fill-rule:nonzero;stroke:none"
         id="path15862"
         inkscape:connector-curvature="0" />
    </g>
    <g
       id="g15864"
       transform="matrix(1.1437712,0,0,-1.1437712,37.068174,36.841611)">
      <path
         d="m 0,0 c 0,-1.067 -0.865,-1.934 -1.936,-1.934 -1.066,0 -1.933,0.867 -1.933,1.934 0,1.07 0.867,1.935 1.933,1.935 C -0.865,1.935 0,1.07 0,0"
         style="fill:#cfcccd;fill-opacity:1;fill-rule:nonzero;stroke:none"
         id="path15866"
         inkscape:connector-curvature="0" />
    </g>
    <g
       id="g15868"
       transform="matrix(1.1437712,0,0,-1.1437712,15.457121,36.841611)">
      <path
         d="m 0,0 c 0,-1.067 -0.865,-1.934 -1.934,-1.934 -1.068,0 -1.933,0.867 -1.933,1.934 0,1.07 0.865,1.935 1.933,1.935 C -0.865,1.935 0,1.07 0,0"
         style="fill:#cfcccd;fill-opacity:1;fill-rule:nonzero;stroke:none"
         id="path15870"
         inkscape:connector-curvature="0" />
    </g>
    <g
       id="g15872"
       transform="matrix(1.1437712,0,0,-1.1437712,8.940736,21.063974)">
      <path
         d="M 0,0 -0.064,0.601 24.662,3.209 24.725,2.608 0,0 z"
         style="fill:#cfcccd;fill-opacity:1;fill-rule:nonzero;stroke:none"
         id="path15874"
         inkscape:connector-curvature="0" />
    </g>
    <g
       id="g15876"
       transform="matrix(1.1437712,0,0,-1.1437712,10.113605,23.605708)">
      <path
         d="M 0,0 -0.041,0.601 23.545,2.177 23.586,1.574 0,0 z"
         style="fill:#cfcccd;fill-opacity:1;fill-rule:nonzero;stroke:none"
         id="path15878"
         inkscape:connector-curvature="0" />
    </g>
    <g
       id="g15880"
       transform="matrix(1.1437712,0,0,-1.1437712,13.676773,28.80401)">
      <path
         d="M 0,0 -2.949,9.849 -2.371,10.022 0.58,0.174 0,0 z"
         style="fill:#cfcccd;fill-opacity:1;fill-rule:nonzero;stroke:none"
         id="path15882"
         inkscape:connector-curvature="0" />
    </g>
    <g
       id="g15884"
       transform="matrix(1.1437712,0,0,-1.1437712,16.078234,28.744168)">
      <path
         d="M 0,0 -2.477,10.143 -1.891,10.287 0.588,0.143 0,0 z"
         style="fill:#cfcccd;fill-opacity:1;fill-rule:nonzero;stroke:none"
         id="path15886"
         inkscape:connector-curvature="0" />
    </g>
    <g
       id="g15888"
       transform="matrix(1.1437712,0,0,-1.1437712,18.481892,28.684509)">
      <path
         d="M 0,0 -2.004,10.435 -1.41,10.549 0.596,0.115 0,0 z"
         style="fill:#cfcccd;fill-opacity:1;fill-rule:nonzero;stroke:none"
         id="path15890"
         inkscape:connector-curvature="0" />
    </g>
    <g
       id="g15892"
       transform="matrix(1.1437712,0,0,-1.1437712,20.890034,28.624667)">
      <path
         d="M 0,0 -1.535,10.727 -0.937,10.812 0.596,0.085 0,0 z"
         style="fill:#cfcccd;fill-opacity:1;fill-rule:nonzero;stroke:none"
         id="path15894"
         inkscape:connector-curvature="0" />
    </g>
    <g
       id="g15896"
       transform="matrix(1.1437712,0,0,-1.1437712,23.291496,28.568302)">
      <path
         d="M 0,0 -1.059,11.02 -0.457,11.078 0.604,0.061 0,0 z"
         style="fill:#cfcccd;fill-opacity:1;fill-rule:nonzero;stroke:none"
         id="path15898"
         inkscape:connector-curvature="0" />
    </g>
    <g
       id="g15900"
       transform="matrix(1.1437712,0,0,-1.1437712,25.699729,28.507453)">
      <path
         d="M 0,0 -0.59,11.309 0.014,11.343 0.602,0.033 0,0 z"
         style="fill:#cfcccd;fill-opacity:1;fill-rule:nonzero;stroke:none"
         id="path15902"
         inkscape:connector-curvature="0" />
    </g>
    <g
       id="g15904"
       transform="matrix(1.1437712,0,0,-1.1437712,28.105674,28.448709)">
      <path
         d="M 0,0 -0.115,11.601 0.488,11.605 0.605,0.006 0,0 z"
         style="fill:#cfcccd;fill-opacity:1;fill-rule:nonzero;stroke:none"
         id="path15906"
         inkscape:connector-curvature="0" />
    </g>
    <g
       id="g15908"
       transform="matrix(1.1437712,0,0,-1.1437712,31.206301,28.413664)">
      <path
         d="M 0,0 -0.604,0.019 -0.248,11.913 0.354,11.894 0,0 z"
         style="fill:#cfcccd;fill-opacity:1;fill-rule:nonzero;stroke:none"
         id="path15910"
         inkscape:connector-curvature="0" />
    </g>
    <g
       id="g15912"
       transform="matrix(1.1437712,0,0,-1.1437712,33.612338,28.383469)">
      <path
         d="M 0,0 -0.604,0.039 0.225,12.227 0.828,12.185 0,0 z"
         style="fill:#cfcccd;fill-opacity:1;fill-rule:nonzero;stroke:none"
         id="path15914"
         inkscape:connector-curvature="0" />
    </g>
    <g
       id="g15916"
       transform="matrix(1.1437712,0,0,-1.1437712,10.645321,26.291374)">
      <path
         d="M 0,0 -0.02,0.605 22.156,1.272 22.176,0.669 0,0 z"
         style="fill:#cfcccd;fill-opacity:1;fill-rule:nonzero;stroke:none"
         id="path15918"
         inkscape:connector-curvature="0" />
    </g>
    <path
       d="m 36.009453,36.841702 -2.310417,0 0,-2.898316 2.310417,0 0,2.898316 z"
       style="fill:#cfcccd;fill-opacity:1;fill-rule:nonzero;stroke:none"
       id="path15920"
       inkscape:connector-curvature="0" />
    <path
       d="m 14.400185,36.841702 -2.30813,0 0,-2.898316 2.30813,0 0,2.898316 z"
       style="fill:#cfcccd;fill-opacity:1;fill-rule:nonzero;stroke:none"
       id="path15922"
       inkscape:connector-curvature="0" />
  </g>
</svg>
