<?xml version="1.0" encoding="UTF-8" standalone="no"?>
<!-- Created with Inkscape (http://www.inkscape.org/) -->

<svg
   xmlns:dc="http://purl.org/dc/elements/1.1/"
   xmlns:cc="http://creativecommons.org/ns#"
   xmlns:rdf="http://www.w3.org/1999/02/22-rdf-syntax-ns#"
   xmlns:svg="http://www.w3.org/2000/svg"
   xmlns="http://www.w3.org/2000/svg"
   xmlns:sodipodi="http://sodipodi.sourceforge.net/DTD/sodipodi-0.dtd"
   xmlns:inkscape="http://www.inkscape.org/namespaces/inkscape"
   width="48px"
   height="48px"
   id="svg3210"
   version="1.1"
   inkscape:version="0.48.4 r9943 custom"
   sodipodi:docname="caddie-augmentation.svg">
  <defs
     id="defs3212" />
  <sodipodi:namedview
     id="base"
     pagecolor="#ffffff"
     bordercolor="#666666"
     borderopacity="1.0"
     inkscape:pageopacity="0.0"
     inkscape:pageshadow="2"
     inkscape:zoom="7"
     inkscape:cx="24"
     inkscape:cy="23.77"
     inkscape:current-layer="layer1"
     showgrid="true"
     inkscape:grid-bbox="true"
     inkscape:document-units="px"
     inkscape:window-width="605"
     inkscape:window-height="601"
     inkscape:window-x="1804"
     inkscape:window-y="319"
     inkscape:window-maximized="0" />
  <metadata
     id="metadata3215">
    <rdf:RDF>
      <cc:Work
         rdf:about="">
        <dc:format>image/svg+xml</dc:format>
        <dc:type
           rdf:resource="http://purl.org/dc/dcmitype/StillImage" />
        <dc:title></dc:title>
      </cc:Work>
    </rdf:RDF>
  </metadata>
  <g
     id="layer1"
     inkscape:label="Layer 1"
     inkscape:groupmode="layer">
    <g
       id="g15848"
       transform="matrix(1.0098305,0,0,-1.0098305,13.62598,33.307508)">
      <path
         d="M 0,0 20.033,0 21.432,11.536 -2.793,8.438 0,0 z m 20.564,-1.207 -20.998,0 c -0.263,0 -0.492,0.165 -0.576,0.413 l -3.16,9.55 c -0.059,0.169 -0.035,0.357 0.061,0.512 0.097,0.151 0.257,0.253 0.435,0.277 l 25.721,3.287 c 0.189,0.027 0.371,-0.038 0.504,-0.169 0.135,-0.131 0.197,-0.318 0.174,-0.502 L 21.166,-0.677 c -0.037,-0.302 -0.293,-0.53 -0.602,-0.53"
         style="fill:#cfcccd;fill-opacity:1;fill-rule:nonzero;stroke:none"
         id="path15850"
         inkscape:connector-curvature="0" />
    </g>
    <g
       id="g15852"
       transform="matrix(1.0098305,0,0,-1.0098305,36.469475,21.303452)">
      <path
         d="m 0,0 -0.994,0.69 c 0.041,0.059 1.006,1.422 2.816,1.808 L 2.07,1.315 C 0.748,1.034 0.006,0.012 0,0"
         style="fill:#cfcccd;fill-opacity:1;fill-rule:nonzero;stroke:none"
         id="path15854"
         inkscape:connector-curvature="0" />
    </g>
    <g
       id="g15856"
       transform="matrix(1.0098305,0,0,-1.0098305,40.617294,19.253253)">
      <path
         d="m 0,0 c 0,-0.918 -0.746,-1.661 -1.664,-1.661 -0.916,0 -1.658,0.743 -1.658,1.661 0,0.917 0.742,1.66 1.658,1.66 C -0.746,1.66 0,0.917 0,0"
         style="fill:#cfcccd;fill-opacity:1;fill-rule:nonzero;stroke:none"
         id="path15858"
         inkscape:connector-curvature="0" />
    </g>
    <g
       id="g15860"
       transform="matrix(1.0098305,0,0,-1.0098305,10.142873,39.102722)">
      <path
         d="m 0,0 c -0.154,0 -0.309,0.06 -0.426,0.175 -0.238,0.236 -0.24,0.62 -0.004,0.855 1.26,1.271 3.176,1.286 3.254,1.286 l 21.699,0 -1.066,2.588 c -0.127,0.309 0.02,0.663 0.326,0.788 0.311,0.13 0.662,-0.018 0.791,-0.327 L 25.986,1.941 C 26.061,1.757 26.043,1.542 25.928,1.375 25.816,1.209 25.629,1.106 25.426,1.106 l -22.602,0 C 2.814,1.106 1.328,1.088 0.43,0.179 0.311,0.06 0.154,0 0,0"
         style="fill:#cfcccd;fill-opacity:1;fill-rule:nonzero;stroke:none"
         id="path15862"
         inkscape:connector-curvature="0" />
    </g>
    <g
       id="g15864"
       transform="matrix(1.0098305,0,0,-1.0098305,35.718001,41.100652)">
      <path
         d="m 0,0 c 0,-1.067 -0.865,-1.934 -1.936,-1.934 -1.066,0 -1.933,0.867 -1.933,1.934 0,1.07 0.867,1.935 1.933,1.935 C -0.865,1.935 0,1.07 0,0"
         style="fill:#cfcccd;fill-opacity:1;fill-rule:nonzero;stroke:none"
         id="path15866"
         inkscape:connector-curvature="0" />
    </g>
    <g
       id="g15868"
       transform="matrix(1.0098305,0,0,-1.0098305,16.637699,41.100652)">
      <path
         d="m 0,0 c 0,-1.067 -0.865,-1.934 -1.934,-1.934 -1.068,0 -1.933,0.867 -1.933,1.934 0,1.07 0.865,1.935 1.933,1.935 C -0.865,1.935 0,1.07 0,0"
         style="fill:#cfcccd;fill-opacity:1;fill-rule:nonzero;stroke:none"
         id="path15870"
         inkscape:connector-curvature="0" />
    </g>
    <g
       id="g15872"
       transform="matrix(1.0098305,0,0,-1.0098305,10.884411,27.170647)">
      <path
         d="M 0,0 -0.064,0.601 24.662,3.209 24.725,2.608 0,0 z"
         style="fill:#cfcccd;fill-opacity:1;fill-rule:nonzero;stroke:none"
         id="path15874"
         inkscape:connector-curvature="0" />
    </g>
    <g
       id="g15876"
       transform="matrix(1.0098305,0,0,-1.0098305,11.919932,29.414733)">
      <path
         d="M 0,0 -0.041,0.601 23.545,2.177 23.586,1.574 0,0 z"
         style="fill:#cfcccd;fill-opacity:1;fill-rule:nonzero;stroke:none"
         id="path15878"
         inkscape:connector-curvature="0" />
    </g>
    <g
       id="g15880"
       transform="matrix(1.0098305,0,0,-1.0098305,15.065837,34.00429)">
      <path
         d="M 0,0 -2.949,9.849 -2.371,10.022 0.58,0.174 0,0 z"
         style="fill:#cfcccd;fill-opacity:1;fill-rule:nonzero;stroke:none"
         id="path15882"
         inkscape:connector-curvature="0" />
    </g>
    <g
       id="g15884"
       transform="matrix(1.0098305,0,0,-1.0098305,17.186077,33.951456)">
      <path
         d="M 0,0 -2.477,10.143 -1.891,10.287 0.588,0.143 0,0 z"
         style="fill:#cfcccd;fill-opacity:1;fill-rule:nonzero;stroke:none"
         id="path15886"
         inkscape:connector-curvature="0" />
    </g>
    <g
       id="g15888"
       transform="matrix(1.0098305,0,0,-1.0098305,19.308255,33.898784)">
      <path
         d="M 0,0 -2.004,10.435 -1.41,10.549 0.596,0.115 0,0 z"
         style="fill:#cfcccd;fill-opacity:1;fill-rule:nonzero;stroke:none"
         id="path15890"
         inkscape:connector-curvature="0" />
    </g>
    <g
       id="g15892"
       transform="matrix(1.0098305,0,0,-1.0098305,21.434393,33.845949)">
      <path
         d="M 0,0 -1.535,10.727 -0.937,10.812 0.596,0.085 0,0 z"
         style="fill:#cfcccd;fill-opacity:1;fill-rule:nonzero;stroke:none"
         id="path15894"
         inkscape:connector-curvature="0" />
    </g>
    <g
       id="g15896"
       transform="matrix(1.0098305,0,0,-1.0098305,23.554633,33.796185)">
      <path
         d="M 0,0 -1.059,11.02 -0.457,11.078 0.604,0.061 0,0 z"
         style="fill:#cfcccd;fill-opacity:1;fill-rule:nonzero;stroke:none"
         id="path15898"
         inkscape:connector-curvature="0" />
    </g>
    <g
       id="g15900"
       transform="matrix(1.0098305,0,0,-1.0098305,25.680851,33.742462)">
      <path
         d="M 0,0 -0.59,11.309 0.014,11.343 0.602,0.033 0,0 z"
         style="fill:#cfcccd;fill-opacity:1;fill-rule:nonzero;stroke:none"
         id="path15902"
         inkscape:connector-curvature="0" />
    </g>
    <g
       id="g15904"
       transform="matrix(1.0098305,0,0,-1.0098305,27.80505,33.690597)">
      <path
         d="M 0,0 -0.115,11.601 0.488,11.605 0.605,0.006 0,0 z"
         style="fill:#cfcccd;fill-opacity:1;fill-rule:nonzero;stroke:none"
         id="path15906"
         inkscape:connector-curvature="0" />
    </g>
    <g
       id="g15908"
       transform="matrix(1.0098305,0,0,-1.0098305,30.542579,33.659656)">
      <path
         d="M 0,0 -0.604,0.019 -0.248,11.913 0.354,11.894 0,0 z"
         style="fill:#cfcccd;fill-opacity:1;fill-rule:nonzero;stroke:none"
         id="path15910"
         inkscape:connector-curvature="0" />
    </g>
    <g
       id="g15912"
       transform="matrix(1.0098305,0,0,-1.0098305,32.666859,33.632997)">
      <path
         d="M 0,0 -0.604,0.039 0.225,12.227 0.828,12.185 0,0 z"
         style="fill:#cfcccd;fill-opacity:1;fill-rule:nonzero;stroke:none"
         id="path15914"
         inkscape:connector-curvature="0" />
    </g>
    <g
       id="g15916"
       transform="matrix(1.0098305,0,0,-1.0098305,12.389382,31.785895)">
      <path
         d="M 0,0 -0.02,0.605 22.156,1.272 22.176,0.669 0,0 z"
         style="fill:#cfcccd;fill-opacity:1;fill-rule:nonzero;stroke:none"
         id="path15918"
         inkscape:connector-curvature="0" />
    </g>
    <path
       d="m 34.783261,41.100733 -2.039857,0 0,-2.558911 2.039857,0 0,2.558911 z"
       style="fill:#cfcccd;fill-opacity:1;fill-rule:nonzero;stroke:none"
       id="path15920"
       inkscape:connector-curvature="0" />
    <path
       d="m 15.704535,41.100733 -2.037838,0 0,-2.558911 2.037838,0 0,2.558911 z"
       style="fill:#cfcccd;fill-opacity:1;fill-rule:nonzero;stroke:none"
       id="path15922"
       inkscape:connector-curvature="0" />
    <g
       transform="matrix(1.0152063,0,0,1.0152063,13.468736,3.4687357)"
       id="g12898"
       style="fill:#4d4d4d">
      <g
         id="g12900"
         style="fill:#4d4d4d">
        <path
           inkscape:connector-curvature="0"
           style="fill:#4d4d4d"
           d="M 2.245,10.496 H 0.272 C 0.122,10.496 0,10.62 0,10.77 v 5.717 c 0,0.15 0.122,0.272 0.272,0.272 h 1.973 c 0.15,0 0.272,-0.122 0.272,-0.272 V 10.77 C 2.518,10.62 2.396,10.496 2.245,10.496 z"
           id="path12902" />
        <path
           inkscape:connector-curvature="0"
           style="fill:#4d4d4d"
           d="m 18.504,10.496 h -1.973 c -0.15,0 -0.271,0.124 -0.271,0.274 v 5.717 c 0,0.15 0.121,0.272 0.271,0.272 h 1.973 c 0.152,0 0.273,-0.122 0.273,-0.272 V 10.77 c 0,-0.15 -0.121,-0.274 -0.273,-0.274 z"
           id="path12904" />
        <path
           inkscape:connector-curvature="0"
           style="fill:#4d4d4d"
           d="M 5.907,7.228 H 3.934 c -0.15,0 -0.273,0.122 -0.273,0.273 v 8.984 c 0,0.15 0.123,0.272 0.273,0.272 h 1.973 c 0.151,0 0.273,-0.122 0.273,-0.272 V 7.501 C 6.18,7.349 6.058,7.228 5.907,7.228 z"
           id="path12906" />
        <path
           inkscape:connector-curvature="0"
           style="fill:#4d4d4d"
           d="m 14.271,7.228 h -1.973 c -0.15,0 -0.271,0.122 -0.271,0.273 v 8.984 c 0,0.15 0.121,0.272 0.271,0.272 h 1.973 c 0.152,0 0.273,-0.122 0.273,-0.272 V 7.501 C 14.545,7.349 14.424,7.228 14.271,7.228 z"
           id="path12908" />
        <path
           inkscape:connector-curvature="0"
           style="fill:#4d4d4d"
           d="M 10.01,9.218 H 8.036 c -0.15,0 -0.272,0.123 -0.272,0.272 v 6.994 c 0,0.15 0.122,0.272 0.272,0.272 h 1.974 c 0.152,0 0.273,-0.122 0.273,-0.272 V 9.49 c 0,-0.149 -0.121,-0.272 -0.273,-0.272 z"
           id="path12910" />
        <path
           inkscape:connector-curvature="0"
           style="fill:#4d4d4d"
           d="M 1.259,6.947 C 1.84,6.947 2.31,6.477 2.31,5.896 2.31,5.795 2.291,5.7 2.264,5.608 L 4.475,4.017 c 0.136,0.064 0.286,0.102 0.446,0.102 0.309,0 0.583,-0.135 0.776,-0.347 L 7.784,4.98 c -0.012,0.062 -0.02,0.126 -0.02,0.19 0,0.58 0.471,1.051 1.051,1.051 0.559,0 1.012,-0.438 1.044,-0.989 l 2.814,-0.823 c 0.191,0.262 0.498,0.435 0.848,0.435 0.232,0 0.443,-0.077 0.617,-0.205 l 2.365,1.604 c -0.02,0.083 -0.037,0.17 -0.037,0.26 0,0.581 0.471,1.052 1.051,1.052 0.58,0 1.053,-0.471 1.053,-1.052 0,-0.581 -0.473,-1.051 -1.053,-1.051 -0.232,0 -0.443,0.077 -0.617,0.204 L 14.537,4.055 c 0.02,-0.084 0.035,-0.17 0.035,-0.26 0,-0.581 -0.469,-1.051 -1.051,-1.051 -0.559,0 -1.012,0.438 -1.045,0.989 L 9.663,4.555 C 9.472,4.292 9.164,4.12 8.815,4.12 8.556,4.12 8.323,4.216 8.14,4.371 L 5.968,3.112 c 0,-0.015 0.004,-0.028 0.004,-0.042 0,-0.581 -0.47,-1.052 -1.051,-1.052 -0.581,0 -1.051,0.47 -1.051,1.051 0,0.158 0.038,0.306 0.1,0.441 L 1.855,5.032 C 1.686,4.914 1.481,4.845 1.259,4.845 c -0.581,0 -1.051,0.471 -1.051,1.051 0,0.581 0.47,1.051 1.051,1.051 z"
           id="path12912" />
      </g>
    </g>
  </g>
</svg>
