<?xml version="1.0" encoding="UTF-8" standalone="no"?>
<!-- Created with Inkscape (http://www.inkscape.org/) -->

<svg
   xmlns:dc="http://purl.org/dc/elements/1.1/"
   xmlns:cc="http://creativecommons.org/ns#"
   xmlns:rdf="http://www.w3.org/1999/02/22-rdf-syntax-ns#"
   xmlns:svg="http://www.w3.org/2000/svg"
   xmlns="http://www.w3.org/2000/svg"
   xmlns:sodipodi="http://sodipodi.sourceforge.net/DTD/sodipodi-0.dtd"
   xmlns:inkscape="http://www.inkscape.org/namespaces/inkscape"
   width="48px"
   height="48px"
   id="svg28083"
   version="1.1"
   inkscape:version="0.48.4 r9943 custom"
   sodipodi:docname="personnes.svg">
  <defs
     id="defs28085" />
  <sodipodi:namedview
     id="base"
     pagecolor="#ffffff"
     bordercolor="#666666"
     borderopacity="1.0"
     inkscape:pageopacity="0.0"
     inkscape:pageshadow="2"
     inkscape:zoom="7"
     inkscape:cx="32.318076"
     inkscape:cy="24"
     inkscape:current-layer="layer1"
     showgrid="true"
     inkscape:grid-bbox="true"
     inkscape:document-units="px"
     inkscape:window-width="651"
     inkscape:window-height="653"
     inkscape:window-x="1333"
     inkscape:window-y="295"
     inkscape:window-maximized="0" />
  <metadata
     id="metadata28088">
    <rdf:RDF>
      <cc:Work
         rdf:about="">
        <dc:format>image/svg+xml</dc:format>
        <dc:type
           rdf:resource="http://purl.org/dc/dcmitype/StillImage" />
        <dc:title></dc:title>
      </cc:Work>
    </rdf:RDF>
  </metadata>
  <g
     id="layer1"
     inkscape:label="Layer 1"
     inkscape:groupmode="layer">
    <g
       transform="matrix(1.25,0,0,-1.25,34.507857,32.597071)"
       id="g14371">
      <path
         inkscape:connector-curvature="0"
         id="path14373"
         style="fill:#cfcccd;fill-opacity:1;fill-rule:nonzero;stroke:none"
         d="m 0,0 c 0,-1.514 -0.383,-2.672 -2.09,-2.736 l -13.83,0 c -1.801,-0.062 -2.088,1.222 -2.088,2.736 l 0,10.641 c 0,1.514 0.332,2.838 2.088,2.74 l 13.83,0 C -0.297,13.479 0,12.155 0,10.641 L 0,0 z m 0.135,17.025 -1.086,0 0,-0.296 c 0,-0.825 -0.672,-1.493 -1.496,-1.493 -0.826,0 -1.494,0.668 -1.494,1.493 l 0,0.296 -1.186,0 0,-0.296 c 0,-0.825 -0.668,-1.493 -1.494,-1.493 -0.824,0 -1.496,0.668 -1.496,1.493 l 0,0.296 -1.182,0 0,-0.296 c 0,-0.825 -0.666,-1.493 -1.49,-1.493 -0.828,0 -1.498,0.668 -1.498,1.493 l 0,0.296 -1.184,0 0,-0.296 c 0,-0.825 -0.67,-1.493 -1.492,-1.493 -0.828,0 -1.496,0.668 -1.496,1.493 l 0,0.296 -1.857,0 c -1.539,0 -2.786,-1.756 -2.786,-3.923 l 0,-15.248 c 0,-2.166 1.247,-3.921 2.786,-3.921 l 18.451,0 c 1.537,0 2.783,1.755 2.783,3.921 l 0,15.248 c 0,2.167 -1.246,3.923 -2.783,3.923" />
    </g>
    <g
       transform="matrix(1.25,0,0,-1.25,31.485457,12.730071)"
       id="g14375">
      <path
         inkscape:connector-curvature="0"
         id="path14377"
         style="fill:#cfcccd;fill-opacity:1;fill-rule:nonzero;stroke:none"
         d="m 0,0 c 0.484,0 0.877,0.394 0.877,0.879 l 0,1.487 C 0.877,2.85 0.484,3.243 0,3.243 -0.486,3.243 -0.881,2.85 -0.881,2.366 l 0,-1.487 C -0.881,0.394 -0.486,0 0,0" />
    </g>
    <g
       transform="matrix(1.25,0,0,-1.25,26.258357,12.730071)"
       id="g14379">
      <path
         inkscape:connector-curvature="0"
         id="path14381"
         style="fill:#cfcccd;fill-opacity:1;fill-rule:nonzero;stroke:none"
         d="m 0,0 c 0.486,0 0.875,0.394 0.875,0.879 l 0,1.487 C 0.875,2.85 0.486,3.243 0,3.243 -0.486,3.243 -0.879,2.85 -0.879,2.366 l 0,-1.487 C -0.879,0.394 -0.486,0 0,0" />
    </g>
    <g
       transform="matrix(1.25,0,0,-1.25,21.116657,12.730071)"
       id="g14383">
      <path
         inkscape:connector-curvature="0"
         id="path14385"
         style="fill:#cfcccd;fill-opacity:1;fill-rule:nonzero;stroke:none"
         d="m 0,0 c 0.484,0 0.877,0.394 0.877,0.879 l 0,1.487 C 0.877,2.85 0.484,3.243 0,3.243 -0.486,3.243 -0.881,2.85 -0.881,2.366 l 0,-1.487 C -0.881,0.394 -0.486,0 0,0" />
    </g>
    <g
       transform="matrix(1.25,0,0,-1.25,15.718857,12.815571)"
       id="g14387">
      <path
         inkscape:connector-curvature="0"
         id="path14389"
         style="fill:#cfcccd;fill-opacity:1;fill-rule:nonzero;stroke:none"
         d="m 0,0 c 0.484,0 0.877,0.394 0.877,0.88 l 0,1.484 C 0.877,2.85 0.484,3.242 0,3.242 -0.484,3.242 -0.877,2.85 -0.877,2.364 l 0,-1.484 C -0.877,0.394 -0.484,0 0,0" />
    </g>
    <g
       transform="matrix(1.25,0,0,-1.25,22.877057,24.830951)"
       id="g14391">
      <path
         inkscape:connector-curvature="0"
         id="path14393"
         style="fill:#cfcccd;fill-opacity:1;fill-rule:nonzero;stroke:none"
         d="m 0,0 c 0.467,0 0.869,0.137 1.207,0.412 0.338,0.273 0.506,0.666 0.506,1.18 0,0.39 -0.135,0.726 -0.404,1.01 C 1.041,2.882 0.678,3.021 0.221,3.021 -0.09,3.021 -0.344,2.979 -0.545,2.893 -0.746,2.808 -0.904,2.691 -1.02,2.55 -1.139,2.408 -1.248,2.226 -1.352,2.002 -1.457,1.779 -1.551,1.568 -1.637,1.368 -1.687,1.264 -1.779,1.18 -1.912,1.118 c -0.131,-0.06 -0.283,-0.09 -0.455,-0.09 -0.205,0 -0.391,0.081 -0.563,0.247 -0.17,0.163 -0.252,0.385 -0.252,0.66 0,0.261 0.078,0.541 0.239,0.833 0.16,0.293 0.394,0.569 0.699,0.835 0.308,0.262 0.689,0.475 1.148,0.634 0.455,0.16 0.967,0.24 1.53,0.24 0.494,0 0.941,-0.066 1.349,-0.201 C 2.186,4.141 2.539,3.946 2.842,3.692 3.141,3.439 3.367,3.145 3.518,2.811 3.67,2.475 3.746,2.115 3.746,1.728 3.746,1.221 3.637,0.786 3.414,0.423 3.193,0.059 2.879,-0.295 2.467,-0.64 2.863,-0.853 3.195,-1.098 3.469,-1.37 3.74,-1.646 3.943,-1.948 4.082,-2.281 4.217,-2.613 4.287,-2.973 4.287,-3.358 4.287,-3.82 4.195,-4.267 4.01,-4.698 3.822,-5.131 3.551,-5.516 3.191,-5.854 2.83,-6.19 2.404,-6.453 1.908,-6.645 1.414,-6.836 0.867,-6.929 0.268,-6.929 c -0.612,0 -1.157,0.108 -1.637,0.325 -0.485,0.219 -0.881,0.492 -1.195,0.82 -0.309,0.326 -0.547,0.665 -0.706,1.015 -0.162,0.351 -0.24,0.641 -0.24,0.87 0,0.295 0.094,0.531 0.283,0.711 0.192,0.181 0.43,0.272 0.713,0.272 0.143,0 0.282,-0.043 0.412,-0.127 0.131,-0.082 0.217,-0.184 0.26,-0.301 0.264,-0.706 0.547,-1.229 0.85,-1.572 0.301,-0.344 0.724,-0.514 1.275,-0.514 0.315,0 0.615,0.076 0.908,0.232 0.293,0.154 0.534,0.384 0.723,0.689 0.191,0.305 0.287,0.657 0.287,1.059 0,0.595 -0.164,1.059 -0.488,1.397 -0.324,0.339 -0.777,0.506 -1.356,0.506 -0.101,0 -0.257,-0.011 -0.472,-0.029 -0.211,-0.021 -0.35,-0.03 -0.41,-0.03 -0.282,0 -0.495,0.068 -0.649,0.209 -0.152,0.139 -0.228,0.333 -0.228,0.581 0,0.245 0.093,0.441 0.275,0.589 C -0.945,-0.076 -0.674,0 -0.314,0 L 0,0 z" />
    </g>
  </g>
</svg>
