<?xml version="1.0" encoding="UTF-8" standalone="no"?>
<!-- Created with Inkscape (http://www.inkscape.org/) -->

<svg
   xmlns:dc="http://purl.org/dc/elements/1.1/"
   xmlns:cc="http://creativecommons.org/ns#"
   xmlns:rdf="http://www.w3.org/1999/02/22-rdf-syntax-ns#"
   xmlns:svg="http://www.w3.org/2000/svg"
   xmlns="http://www.w3.org/2000/svg"
   xmlns:sodipodi="http://sodipodi.sourceforge.net/DTD/sodipodi-0.dtd"
   xmlns:inkscape="http://www.inkscape.org/namespaces/inkscape"
   width="48px"
   height="48px"
   id="svg3210"
   version="1.1"
   inkscape:version="0.48.4 r9939"
   sodipodi:docname="caravanne.svg">
  <defs
     id="defs3212" />
  <sodipodi:namedview
     id="base"
     pagecolor="#ffffff"
     bordercolor="#666666"
     borderopacity="1.0"
     inkscape:pageopacity="0.0"
     inkscape:pageshadow="2"
     inkscape:zoom="7"
     inkscape:cx="24"
     inkscape:cy="24"
     inkscape:current-layer="layer1"
     showgrid="true"
     inkscape:grid-bbox="true"
     inkscape:document-units="px"
     inkscape:window-width="1680"
     inkscape:window-height="1026"
     inkscape:window-x="1920"
     inkscape:window-y="24"
     inkscape:window-maximized="1" />
  <metadata
     id="metadata3215">
    <rdf:RDF>
      <cc:Work
         rdf:about="">
        <dc:format>image/svg+xml</dc:format>
        <dc:type
           rdf:resource="http://purl.org/dc/dcmitype/StillImage" />
        <dc:title />
      </cc:Work>
    </rdf:RDF>
  </metadata>
  <g
     id="layer1"
     inkscape:label="Layer 1"
     inkscape:groupmode="layer">
    <g
       id="g2990">
      <g
         style="fill:#cfcccd"
         transform="matrix(1.153797,0,0,-1.153797,17.309862,37.57833)"
         id="g11694">
        <path
           inkscape:connector-curvature="0"
           id="path11696"
           style="fill:#cfcccd;fill-opacity:1;fill-rule:nonzero;stroke:none"
           d="m 0,0 c -1.799,0 -3.258,-1.459 -3.258,-3.259 0,-1.799 1.459,-3.259 3.258,-3.259 1.797,0 3.258,1.46 3.258,3.259 C 3.258,-1.459 1.797,0 0,0" />
      </g>
      <g
         style="fill:#cfcccd"
         transform="matrix(1.153797,0,0,-1.153797,35.497394,36.90119)"
         id="g11698">
        <path
           inkscape:connector-curvature="0"
           id="path11700"
           style="fill:#cfcccd;fill-opacity:1;fill-rule:nonzero;stroke:none"
           d="m 0,0 c 0,-0.052 -0.012,-2.035 -0.015,-2.085 l -1.02,0 c 0.005,0.694 0.009,1.929 0.009,1.961 l 0,13.175 c 0,1.178 -0.402,2.238 -1.58,2.238 l -2.362,0 c -1.179,0 -1.537,-1.06 -1.537,-2.238 l 0,-13.175 c 0,-0.032 0.005,-1.267 0.011,-1.961 l -1.064,0 C -7.561,-2.035 -7.573,-0.052 -7.573,0 l 0,13.883 c 0,1.346 1.09,2.436 2.437,2.436 l 2.698,0 C -1.092,16.319 0,15.229 0,13.883 L 0,0 z m -9.74,9.298 c 0,-1.522 -1.239,-2.761 -2.76,-2.761 l -7.003,0 c -1.522,0 -2.761,1.239 -2.761,2.761 l 0,4.585 c 0,1.52 1.239,2.76 2.761,2.76 l 7.003,0 c 1.521,0 2.76,-1.24 2.76,-2.76 l 0,-4.585 z m 16.476,-9.182 -0.045,0 0,0.605 c 0.311,0.135 0.53,0.444 0.53,0.804 0,0.488 -0.395,0.881 -0.881,0.881 -0.487,0 -0.882,-0.393 -0.882,-0.881 0,-0.322 0.182,-0.591 0.441,-0.745 l 0,-0.664 -2.553,0 0,17.878 c 0,1.604 -1.092,2.904 -2.437,2.904 l -23.657,0 c -1.345,0 -2.437,-1.3 -2.437,-2.904 l 0,-18.847 c 0,-1.604 1.092,-2.906 2.437,-2.906 l 2.591,0 c 0.049,2.39 1.993,4.316 4.394,4.316 2.403,0 4.346,-1.926 4.394,-4.316 l 12.278,0 c 1.194,0 2.183,1.027 2.393,2.378 l 3.434,0 c 0.414,0 0.748,0.335 0.748,0.749 0,0.413 -0.334,0.748 -0.748,0.748" />
      </g>
      <g
         style="fill:#cfcccd"
         transform="matrix(1.153797,0,0,-1.153797,17.166791,5.3576731)"
         id="g11702">
        <path
           inkscape:connector-curvature="0"
           id="path11704"
           style="fill:#cfcccd;fill-opacity:1;fill-rule:nonzero;stroke:none"
           d="m 0,0 -5.39,0 c -1.056,0 -1.946,-0.674 -2.284,-1.612 l 9.959,0 C 1.945,-0.674 1.056,0 0,0" />
      </g>
      <g
         style="fill:#cfcccd"
         transform="matrix(1.153797,0,0,-1.153797,10.948176,12.241133)"
         id="g11706">
        <path
           inkscape:connector-curvature="0"
           id="path11708"
           style="fill:#cfcccd;fill-opacity:1;fill-rule:nonzero;stroke:none"
           d="m 0,0 5.39,0 c 1.347,0 2.437,1.091 2.437,2.438 l 0,1.089 c 0,0.1 -0.017,0.194 -0.028,0.288 l -10.208,0 C -2.42,3.721 -2.439,3.627 -2.439,3.527 l 0,-1.089 C -2.439,1.091 -1.347,0 0,0" />
      </g>
    </g>
  </g>
</svg>
