<?xml version="1.0" encoding="UTF-8" standalone="no"?>
<!-- Created with Inkscape (http://www.inkscape.org/) -->

<svg
   xmlns:dc="http://purl.org/dc/elements/1.1/"
   xmlns:cc="http://creativecommons.org/ns#"
   xmlns:rdf="http://www.w3.org/1999/02/22-rdf-syntax-ns#"
   xmlns:svg="http://www.w3.org/2000/svg"
   xmlns="http://www.w3.org/2000/svg"
   xmlns:sodipodi="http://sodipodi.sourceforge.net/DTD/sodipodi-0.dtd"
   xmlns:inkscape="http://www.inkscape.org/namespaces/inkscape"
   width="48px"
   height="48px"
   id="svg28083"
   version="1.1"
   inkscape:version="0.48.4 r9939"
   sodipodi:docname="cardio.svg">
  <defs
     id="defs28085">
    <clipPath
       clipPathUnits="userSpaceOnUse"
       id="clipPath4901">
      <path
         inkscape:connector-curvature="0"
         d="m 315.748,1648.19 0.773,0 0,-0.63 -0.773,0 0,0.63 z"
         id="path4903" />
    </clipPath>
    <clipPath
       clipPathUnits="userSpaceOnUse"
       id="clipPath4905">
      <path
         inkscape:connector-curvature="0"
         d="m 315.759,1648.18 0.762,0 0,-0.62 -0.762,0 0,0.62 z"
         id="path4907" />
    </clipPath>
    <clipPath
       clipPathUnits="userSpaceOnUse"
       id="clipPath4909">
      <path
         inkscape:connector-curvature="0"
         d="m 315.748,1648.19 0.011,0 0,-0.01 -0.011,0 0,0.01 z"
         id="path4911" />
    </clipPath>
    <clipPath
       clipPathUnits="userSpaceOnUse"
       id="clipPath4857">
      <path
         inkscape:connector-curvature="0"
         d="m 327.146,1644.07 0.45,0 0,-0.02 -0.45,0 0,0.02 z"
         id="path4859" />
    </clipPath>
    <clipPath
       clipPathUnits="userSpaceOnUse"
       id="clipPath4861">
      <path
         inkscape:connector-curvature="0"
         d="m 327.146,1644.07 0.446,0 0,-0.02 -0.446,0 0,0.02 z"
         id="path4863" />
    </clipPath>
    <clipPath
       clipPathUnits="userSpaceOnUse"
       id="clipPath4865">
      <path
         inkscape:connector-curvature="0"
         d="m 327.592,1644.05 0.004,0 0,0 -0.004,0 z"
         id="path4867" />
    </clipPath>
  </defs>
  <sodipodi:namedview
     id="base"
     pagecolor="#ffffff"
     bordercolor="#666666"
     borderopacity="1.0"
     inkscape:pageopacity="0.0"
     inkscape:pageshadow="2"
     inkscape:zoom="7"
     inkscape:cx="26.60379"
     inkscape:cy="18.285714"
     inkscape:current-layer="layer1"
     showgrid="true"
     inkscape:grid-bbox="true"
     inkscape:document-units="px"
     inkscape:window-width="651"
     inkscape:window-height="653"
     inkscape:window-x="1269"
     inkscape:window-y="273"
     inkscape:window-maximized="0" />
  <metadata
     id="metadata28088">
    <rdf:RDF>
      <cc:Work
         rdf:about="">
        <dc:format>image/svg+xml</dc:format>
        <dc:type
           rdf:resource="http://purl.org/dc/dcmitype/StillImage" />
        <dc:title />
      </cc:Work>
    </rdf:RDF>
  </metadata>
  <g
     id="layer1"
     inkscape:label="Layer 1"
     inkscape:groupmode="layer">
    <g
       id="g2998">
      <g
         style="fill:#cfcccd"
         id="g7705"
         transform="matrix(1.25,0,0,-1.25,14.848279,24.706175)">
        <path
           d="M 0,0 C 0.314,0.477 0.992,2.538 1.482,4.317 1.529,4.481 1.672,4.6 1.842,4.611 2.01,4.623 2.17,4.53 2.24,4.373 L 3.686,1.15 5.4,8.004 C 5.445,8.19 5.617,8.321 5.803,8.311 5.994,8.304 6.154,8.167 6.189,7.979 l 2.065,-11.253 3.605,7.728 c 0.067,0.14 0.205,0.23 0.358,0.233 0.152,0.008 0.297,-0.081 0.367,-0.218 l 1.811,-3.48 4.982,0 c 1.883,3.253 1.721,5.74 1.721,5.74 -0.395,7.256 -6.739,7.176 -6.739,7.176 -4.201,0.193 -6.478,-3.717 -6.578,-3.895 -0.105,0.178 -2.383,4.088 -6.58,3.895 0,0 -6.349,0.08 -6.742,-7.176 0,0 -0.195,-3.005 2.346,-6.729 L 0,0 z"
           style="fill:#cfcccd;fill-opacity:1;fill-rule:nonzero;stroke:none"
           id="path7707"
           inkscape:connector-curvature="0" />
      </g>
      <g
         style="fill:#cfcccd"
         id="g7709"
         transform="matrix(1.25,0,0,-1.25,32.53378,24.479075)">
        <path
           d="m 0,0 c -0.15,0 -0.287,0.085 -0.357,0.218 l -1.547,2.97 -3.793,-8.132 c -0.069,-0.143 -0.211,-0.234 -0.367,-0.234 -0.016,0 -0.034,0.002 -0.051,0.004 -0.176,0.023 -0.315,0.154 -0.346,0.327 L -8.418,5.819 -9.963,-0.36 c -0.041,-0.166 -0.183,-0.289 -0.355,-0.304 -0.172,-0.016 -0.334,0.079 -0.405,0.237 l -1.468,3.278 c -0.684,-2.33 -1.223,-3.607 -1.606,-3.797 -0.057,-0.028 -0.117,-0.042 -0.182,-0.042 l -2.779,0 c 0.555,-0.72 1.211,-1.456 1.996,-2.2 l 8.387,-7.48 0.002,-0.01 0.006,0.003 0.002,-0.003 0.002,0.01 8.384,7.48 C 3.172,-2.1 4.053,-1.021 4.729,0 L 0,0 z"
           style="fill:#cfcccd;fill-opacity:1;fill-rule:nonzero;stroke:none"
           id="path7711"
           inkscape:connector-curvature="0" />
      </g>
    </g>
  </g>
</svg>
