<?xml version="1.0" encoding="UTF-8" standalone="no"?>
<!-- Created with Inkscape (http://www.inkscape.org/) -->

<svg
   xmlns:dc="http://purl.org/dc/elements/1.1/"
   xmlns:cc="http://creativecommons.org/ns#"
   xmlns:rdf="http://www.w3.org/1999/02/22-rdf-syntax-ns#"
   xmlns:svg="http://www.w3.org/2000/svg"
   xmlns="http://www.w3.org/2000/svg"
   xmlns:sodipodi="http://sodipodi.sourceforge.net/DTD/sodipodi-0.dtd"
   xmlns:inkscape="http://www.inkscape.org/namespaces/inkscape"
   width="48px"
   height="48px"
   id="svg28083"
   version="1.1"
   inkscape:version="0.48.4 r9943 custom"
   sodipodi:docname="chimie.svg">
  <defs
     id="defs28085" />
  <sodipodi:namedview
     id="base"
     pagecolor="#ffffff"
     bordercolor="#666666"
     borderopacity="1.0"
     inkscape:pageopacity="0.0"
     inkscape:pageshadow="2"
     inkscape:zoom="7"
     inkscape:cx="32.318076"
     inkscape:cy="24"
     inkscape:current-layer="layer1"
     showgrid="true"
     inkscape:grid-bbox="true"
     inkscape:document-units="px"
     inkscape:window-width="651"
     inkscape:window-height="653"
     inkscape:window-x="1333"
     inkscape:window-y="295"
     inkscape:window-maximized="0" />
  <metadata
     id="metadata28088">
    <rdf:RDF>
      <cc:Work
         rdf:about="">
        <dc:format>image/svg+xml</dc:format>
        <dc:type
           rdf:resource="http://purl.org/dc/dcmitype/StillImage" />
        <dc:title></dc:title>
      </cc:Work>
    </rdf:RDF>
  </metadata>
  <g
     id="layer1"
     inkscape:label="Layer 1"
     inkscape:groupmode="layer">
    <g
       transform="matrix(1.25,0,0,-1.25,15.479679,34.756227)"
       id="g5297">
      <path
         inkscape:connector-curvature="0"
         id="path5299"
         style="fill:#cfcccd;fill-opacity:1;fill-rule:nonzero;stroke:none"
         d="m 0,0 c 1.535,-1.337 3.951,-2.938 6.752,-2.971 3.207,-0.039 6.275,1.945 9.127,5.893 -0.119,0.479 -0.57,0.839 -1.109,0.839 l -16.344,0 c -0.541,0 -0.99,-0.36 -1.108,-0.84 C -2.498,2.659 -1.518,1.325 0,0" />
    </g>
    <g
       transform="matrix(1.25,0,0,-1.25,24.034429,39.357107)"
       id="g5301">
      <path
         inkscape:connector-curvature="0"
         id="path5303"
         style="fill:#cfcccd;fill-opacity:1;fill-rule:nonzero;stroke:none"
         d="M 0,0 C -0.035,0 -0.068,0.004 -0.104,0.004 -2.494,0.03 -4.992,1.122 -7.322,3.16 -8.316,4.028 -9.076,4.885 -9.557,5.476 l -0.002,-3.216 0.002,0 0,-2.619 c 0,-0.602 0.51,-1.088 1.139,-1.088 l 16.344,0 c 0.629,0 1.14,0.486 1.14,1.088 l 0,4.492 -0.002,0 0.002,1.33 C 6.248,1.837 3.201,0 0,0" />
    </g>
    <g
       transform="matrix(1.25,0,0,-1.25,37.537799,41.667857)"
       id="g5305">
      <path
         inkscape:connector-curvature="0"
         id="path5307"
         style="fill:#cfcccd;fill-opacity:1;fill-rule:nonzero;stroke:none"
         d="m 0,0 c 0.002,-0.001 0.031,-0.165 -0.084,-0.305 -0.098,-0.114 -0.441,-0.382 -1.559,-0.382 l -18.832,0 c -1.099,0 -1.449,0.261 -1.55,0.373 -0.118,0.133 -0.098,0.282 -0.092,0.32 l 0.029,0.07 -0.008,0.111 c -0.457,7.669 0.373,12.962 1.758,16.622 0.25,-1.354 1.117,-3.026 3.871,-3.112 l 0,-1.847 c 0,-0.656 0.707,-1.169 1.606,-1.169 0.902,0 1.607,0.513 1.607,1.169 l 0,1.842 4.588,0 0,-1.842 c 0,-0.656 0.707,-1.169 1.605,-1.169 0.903,0 1.608,0.513 1.608,1.169 l 0,1.842 0.67,0 c 0,0 2.681,0.132 3.465,1.762 1.101,-3.577 1.701,-8.497 1.297,-15.267 L -0.027,0.093 0,0 z m -15.715,13.692 1.707,0 0,-1.842 c 0,-0.165 -0.338,-0.415 -0.853,-0.415 -0.514,0 -0.854,0.25 -0.854,0.415 l 0,1.842 z m 0.01,2.868 c 0,0.218 0.203,0.406 0.496,0.49 0.102,0.028 0.221,0.045 0.348,0.045 0.144,0 0.271,-0.021 0.384,-0.054 0.274,-0.09 0.463,-0.271 0.463,-0.481 l 0,-2.062 -1.691,0 0,2.062 z m 4.793,10.8 0.01,0 c 0.349,0 1.211,0.046 2.293,-1.66 -0.621,0.194 -0.954,0.286 -1.399,0.342 l -0.226,0.035 -0.573,0.036 c -0.015,0 -0.101,0.006 -0.25,0.003 -0.154,0.003 -0.238,-0.003 -0.252,-0.003 l -0.564,-0.057 -0.221,-0.03 c -0.357,-0.045 -0.578,-0.094 -1.052,-0.221 0.554,0.812 1.435,1.546 2.234,1.555 m 3,-13.668 1.705,0 0,-1.842 c 0,-0.165 -0.338,-0.415 -0.854,-0.415 -0.513,0 -0.851,0.25 -0.851,0.415 l 0,1.842 z m 0,2.881 c 0.006,0.184 0.15,0.343 0.373,0.439 0.131,0.048 0.293,0.083 0.478,0.083 0.122,0 0.233,-0.016 0.331,-0.039 0.298,-0.085 0.507,-0.275 0.507,-0.496 l 0,-2.062 -1.689,0 0,2.075 z m 4.67,5.376 c -1.467,1.807 -3.059,2.831 -4.444,3.415 l 0.381,-0.288 c -1.076,1.937 -1.988,3.204 -3.631,3.204 -2.515,0 -3.418,-2.73 -3.556,-3.02 l 0.146,0.138 c -1.406,-0.578 -3.031,-1.604 -4.529,-3.449 -3.566,-4.389 -5.078,-11.709 -4.49,-21.753 -0.041,-0.224 -0.069,-0.726 0.324,-1.197 0.465,-0.556 1.328,-0.839 2.566,-0.839 l 18.832,0 c 1.239,0 2.104,0.283 2.569,0.839 0.388,0.471 0.361,0.973 0.322,1.197 0.586,10.044 -0.924,17.364 -4.49,21.753" />
    </g>
  </g>
</svg>
