<?xml version="1.0" encoding="UTF-8" standalone="no"?>
<!-- Created with Inkscape (http://www.inkscape.org/) -->

<svg
   xmlns:dc="http://purl.org/dc/elements/1.1/"
   xmlns:cc="http://creativecommons.org/ns#"
   xmlns:rdf="http://www.w3.org/1999/02/22-rdf-syntax-ns#"
   xmlns:svg="http://www.w3.org/2000/svg"
   xmlns="http://www.w3.org/2000/svg"
   xmlns:sodipodi="http://sodipodi.sourceforge.net/DTD/sodipodi-0.dtd"
   xmlns:inkscape="http://www.inkscape.org/namespaces/inkscape"
   width="48px"
   height="48px"
   id="svg28083"
   version="1.1"
   inkscape:version="0.48.4 r9939"
   sodipodi:docname="cascade.svg">
  <defs
     id="defs28085">
    <clipPath
       clipPathUnits="userSpaceOnUse"
       id="clipPath4901">
      <path
         inkscape:connector-curvature="0"
         d="m 315.748,1648.19 0.773,0 0,-0.63 -0.773,0 0,0.63 z"
         id="path4903" />
    </clipPath>
    <clipPath
       clipPathUnits="userSpaceOnUse"
       id="clipPath4905">
      <path
         inkscape:connector-curvature="0"
         d="m 315.759,1648.18 0.762,0 0,-0.62 -0.762,0 0,0.62 z"
         id="path4907" />
    </clipPath>
    <clipPath
       clipPathUnits="userSpaceOnUse"
       id="clipPath4909">
      <path
         inkscape:connector-curvature="0"
         d="m 315.748,1648.19 0.011,0 0,-0.01 -0.011,0 0,0.01 z"
         id="path4911" />
    </clipPath>
    <clipPath
       clipPathUnits="userSpaceOnUse"
       id="clipPath4857">
      <path
         inkscape:connector-curvature="0"
         d="m 327.146,1644.07 0.45,0 0,-0.02 -0.45,0 0,0.02 z"
         id="path4859" />
    </clipPath>
    <clipPath
       clipPathUnits="userSpaceOnUse"
       id="clipPath4861">
      <path
         inkscape:connector-curvature="0"
         d="m 327.146,1644.07 0.446,0 0,-0.02 -0.446,0 0,0.02 z"
         id="path4863" />
    </clipPath>
    <clipPath
       clipPathUnits="userSpaceOnUse"
       id="clipPath4865">
      <path
         inkscape:connector-curvature="0"
         d="m 327.592,1644.05 0.004,0 0,0 -0.004,0 z"
         id="path4867" />
    </clipPath>
  </defs>
  <sodipodi:namedview
     id="base"
     pagecolor="#ffffff"
     bordercolor="#666666"
     borderopacity="1.0"
     inkscape:pageopacity="0.0"
     inkscape:pageshadow="2"
     inkscape:zoom="7"
     inkscape:cx="21.676997"
     inkscape:cy="12.571428"
     inkscape:current-layer="layer1"
     showgrid="true"
     inkscape:grid-bbox="true"
     inkscape:document-units="px"
     inkscape:window-width="887"
     inkscape:window-height="690"
     inkscape:window-x="2026"
     inkscape:window-y="245"
     inkscape:window-maximized="0" />
  <metadata
     id="metadata28088">
    <rdf:RDF>
      <cc:Work
         rdf:about="">
        <dc:format>image/svg+xml</dc:format>
        <dc:type
           rdf:resource="http://purl.org/dc/dcmitype/StillImage" />
        <dc:title />
      </cc:Work>
    </rdf:RDF>
  </metadata>
  <g
     id="layer1"
     inkscape:label="Layer 1"
     inkscape:groupmode="layer">
    <g
       id="g3002">
      <path
         style="fill:#cfcccd;fill-rule:evenodd"
         inkscape:connector-curvature="0"
         id="path4782"
         d="m 31.359545,8.3677699 c 0.266538,0.1374776 0.382506,0.2744869 0.158521,0.6780347 -1.861089,3.3985894 -3.643151,6.6517534 -4.9562,10.4108704 -1.292007,3.730126 -2.193558,8.051309 -2.764042,12.09941 -0.02198,0.367073 -0.20154,0.433474 -0.425525,0.411497 -0.25251,-0.02198 -0.476495,-0.114563 -0.433475,-0.519515 0.382505,-3.506608 1.537034,-8.801825 2.807063,-12.308431 1.290604,-3.599663 3.368662,-7.445289 4.978177,-10.4538918 0.180029,-0.3390173 0.339017,-0.4764938 0.635481,-0.3179743"
         clip-rule="evenodd" />
      <path
         style="fill:#cfcccd;fill-rule:evenodd"
         inkscape:connector-curvature="0"
         id="path4784"
         d="m 30.746041,34.679253 c -0.295997,1.177909 -2.445133,1.494949 -3.391576,1.270495 -1.04464,-0.273551 -0.476027,-1.378046 0.288984,-1.111509 0.729003,0.275424 2.26557,-0.179561 2.086008,-0.764074 0,-1.471568 -0.274955,-2.986626 -0.339953,-4.819657 -0.136542,-3.463119 0.08698,-7.178281 0.76501,-9.53036 1.111509,-3.845625 2.539123,-7.575751 3.48463,-10.8803514 0.13701,-0.4760267 0.338549,-0.613036 0.613505,-0.5410242 0.317507,0.04349 0.454984,0.223517 0.454984,0.7000119 -0.02198,1.7605517 -2.24406,7.0772787 -3.14608,10.9303847 -0.887056,3.687105 -1.133487,6.557763 -0.952522,9.162351 2.172049,-0.274487 5.000622,-0.706558 9.818876,1.854542 4.884654,2.626566 6.67373,5.245182 6.536721,8.094798 -0.02197,0.866481 -1.08205,0.887523 -1.08205,0.07248 0,-1.717531 -1.176507,-3.736672 -2.352546,-4.776637 -1.809651,-1.579586 -6.045731,-3.910154 -8.441296,-4.24964 1.717531,0.859 2.945008,1.422002 4.596606,3.232121 2.576064,2.829041 1.558544,7.64823 -1.724546,10.180806 -3.116153,2.424091 -5.540243,2.963713 -8.094797,2.900118 -0.995542,-0.02197 -1.176507,-1.205967 0.129995,-1.227477 2.87814,-0.04255 4.003678,-0.404482 6.90473,-2.372653 2.872062,-1.970509 4.524127,-6.854696 0.901553,-9.703377 -3.232121,-2.540057 -5.288202,-2.721022 -6.240724,-2.922562 0.90202,0.700012 5.115186,2.06216 5.115186,5.995696 0,4.18324 -6.269716,6.493233 -12.741906,6.493233 -6.449745,0 -11.695393,-2.078059 -13.029018,-5.562689 -1.5159914,-3.96206 2.935657,-6.356691 2.935657,-6.356691 0,0 -1.313049,-0.02853 -3.570672,1.854541 -2.2875475,1.897562 -2.2655691,4.79768 -0.5190465,7.077747 1.7385745,2.286145 6.4927645,4.184174 9.8399175,4.459128 0.744436,0.04349 0.656993,1.109639 0.02198,1.109639 -1.948064,0 -9.415328,-1.355133 -11.651907,-6.15328 -2.2651025,-4.819657 1.2700288,-7.762794 4.884655,-9.321807 -2.013061,0.404483 -4.1116947,1.176507 -5.6057092,2.279599 -1.8620232,1.385997 -3.0810826,3.124102 -2.9431376,5.389673 0.064998,0.952055 -0.9305442,1.131617 -1.0605398,0.317507 -0.4984722,-3.123635 1.6950866,-5.973718 4.3642041,-7.466328 1.1760398,-0.656993 6.0387175,-2.244996 9.4803255,-1.905044 0.584045,-2.258089 2.055614,-6.176193 3.664192,-9.249795 1.811054,-3.484629 4.30061,-7.445287 6.472659,-10.3599008 0.403079,-0.5480385 0.880509,-0.4980039 1.738574,-0.4764938 1.31258,0.04349 0.815512,0.9015517 0.339484,1.8105856 -1.355601,2.554087 -3.643617,5.923684 -5.361148,9.588812 -1.608112,3.484631 -2.965116,7.720242 -3.845158,11.702877 -0.07154,0.309557 -0.252509,0.381102 -0.476494,0.359125 -0.223518,-0.0491 -0.433008,-0.179563 -0.382038,-0.546636 0.447502,-3.457042 2.417544,-8.911245 3.95411,-12.150381 1.724546,-3.686169 3.556175,-6.197235 4.869224,-9.003831 -2.380135,3.059105 -4.162197,6.067709 -6.045263,9.682801 -1.803572,3.46312 -3.23212,7.719307 -4.36514,11.630865 -0.202008,0.771089 -0.223985,1.203628 0.635015,1.016584 0.772959,-0.15244 0.858532,0.231467 0.72199,1.204564 -0.108021,0.859 1.24805,0.859 2.200573,0.541493 1.176039,-0.361463 1.443044,0.743032 0.447969,1.038094 -1.443044,0.4129 -4.026122,0.253445 -3.550562,-1.67311 -1.947128,-0.115504 -1.947128,-1.854073 -1.515057,-2.416607 -3.57815,0.497068 -5.093207,3.166187 -4.913177,4.725198 1.407974,4.638692 7.266191,5.476182 11.450833,5.656211 4.480173,0.180965 10.81395,-0.836554 12.350985,-4.545169 0,-3.873681 -3.52765,-5.209176 -4.99922,-5.793688 0.358657,1.081582 0.495199,2.669118 0.272149,3.548693"
         clip-rule="evenodd" />
      <path
         style="fill:#cfcccd;fill-rule:evenodd"
         inkscape:connector-curvature="0"
         id="path4786"
         d="m 33.112615,8.3172682 c 0.281034,0.1159686 0.403081,0.2459624 0.209022,0.6635389 -1.601565,3.5211029 -3.146547,6.9047299 -4.184642,10.7433409 -1.00957,3.816166 -1.544516,8.578774 -1.811053,12.65493 0,0.360528 -0.173017,0.4461 -0.403081,0.439086 -0.245963,-0.0065 -0.476962,-0.07902 -0.461998,-0.490523 0.122514,-3.519701 0.836554,-9.270368 1.846592,-12.856471 1.017519,-3.686637 2.814544,-7.676286 4.19867,-10.7933743 0.151973,-0.3530461 0.30348,-0.497538 0.60649,-0.3605275"
         clip-rule="evenodd" />
      <path
         style="fill:#cfcccd;fill-rule:evenodd"
         inkscape:connector-curvature="0"
         id="path4788"
         d="m 22.304745,34.932696 c 0.115968,1.49308 2.828573,1.630557 3.802137,1.104028 0.9745,-0.519047 0.180965,-1.443512 -0.49707,-0.995542 -0.678969,0.454517 -1.970041,0.15852 -2.265571,-0.20341 0.114563,-1.197082 -1.241504,-0.951586 -1.039496,0.09493"
         clip-rule="evenodd" />
      <path
         style="fill:#cfcccd;fill-rule:evenodd"
         inkscape:connector-curvature="0"
         id="path4790"
         d="m 15.248042,32.783093 c 0.404482,-0.433006 1.039964,0.108021 0.744434,0.54009 -0.425525,0.591994 -0.585448,0.974499 -0.585448,1.609046 0.06546,1.919539 2.33057,2.828105 3.392044,2.987093 0.771557,0.108486 0.591059,1.061475 -0.06546,0.973565 -1.248519,-0.208554 -2.222083,-0.569082 -3.081083,-1.340638 -0.836554,-0.721991 -1.290602,-1.695554 -1.241503,-2.828574 0.04442,-0.808498 0.360993,-1.400492 0.837021,-1.940582"
         clip-rule="evenodd" />
      <path
         style="fill:#cfcccd;fill-rule:evenodd"
         inkscape:connector-curvature="0"
         id="path4792"
         d="m 31.243578,33.864207 c -0.518579,-0.446099 0.08744,-1.125069 0.722458,-0.562067 0.432071,0.382506 0.749578,1.01752 0.698608,1.767099 -0.08604,1.241037 -1.262079,2.013061 -2.351143,2.48301 -1.471568,0.65512 -2.987559,0.973563 -4.841634,1.022662 -1.262079,0.02291 -2.46711,-0.02852 -3.729658,-0.272616 -0.656991,-0.115027 -0.498472,-1.061008 0.108022,-0.974967 1.247584,0.158519 2.308591,0.317507 3.44161,0.317507 1.355601,-0.02058 2.762172,-0.20154 4.004145,-0.676632 0.836554,-0.339485 1.493547,-0.56347 2.063562,-1.218592 0.309559,-0.390921 0.743033,-1.156399 -0.115968,-1.885404"
         clip-rule="evenodd" />
      <path
         style="fill:#cfcccd;fill-rule:evenodd"
         inkscape:connector-curvature="0"
         id="path4794"
         d="m 34.345704,8.3027724 c 0.520449,0.04349 0.945974,-0.3390173 1.335026,-0.8875241 0.382505,-0.5405571 2.373588,-0.5630026 3.824582,-0.4975368 1.421067,0.072479 5.180185,1.8615547 4.862677,5.2311535 -0.360527,3.866667 1.038094,7.964802 1.874648,10.316881 0.838425,2.352545 -1.132083,4.047632 -1.398621,5.952208 -0.27402,1.897562 2.459629,5.699698 1.716129,8.253785 -0.749579,-2.151007 -3.72919,-4.52366 -7.243279,-6.175727 -2.711671,-1.270028 -5.923217,-1.854541 -8.685857,-1.378982 -0.223986,-1.968638 -0.08744,-6.24727 0.930544,-9.86891 1.514589,-5.426147 3.84469,-11.0388696 2.784151,-10.9453476"
         clip-rule="evenodd" />
      <path
         style="fill:#cfcccd;fill-rule:evenodd"
         inkscape:connector-curvature="0"
         id="path4796"
         d="m 4.4766452,11.448385 c 0,-1.385061 1.4000245,-2.9651159 2.5115336,-3.1236354 0.908099,-0.1374775 2.532108,0.065461 3.6861692,0.1080213 4.524126,0.1875122 4.054645,-0.5630026 5.887677,-1.198017 2.099101,-0.721522 3.708616,-0.6345461 6.471256,-0.5840444 1.306035,0.021042 3.95411,0.8370212 4.588189,1.7390411 -0.857596,1.4065711 -4.436215,6.2477384 -6.607797,10.6124104 -2.055614,4.141155 -2.959037,6.586755 -3.708148,9.364359 -8.0742209,0.253909 -12.2364179,2.670049 -13.8889519,6.788759 -1.1765069,-2.84868 0.02151,-11.71597 -0.3385497,-15.655116 0.06453,-2.373121 1.3986218,-5.454204 1.3986218,-8.051778"
         clip-rule="evenodd" />
    </g>
  </g>
</svg>
