<?xml version="1.0" encoding="UTF-8" standalone="no"?>
<!-- Created with Inkscape (http://www.inkscape.org/) -->

<svg
   xmlns:dc="http://purl.org/dc/elements/1.1/"
   xmlns:cc="http://creativecommons.org/ns#"
   xmlns:rdf="http://www.w3.org/1999/02/22-rdf-syntax-ns#"
   xmlns:svg="http://www.w3.org/2000/svg"
   xmlns="http://www.w3.org/2000/svg"
   version="1.1"
   width="48"
   height="48"
   id="svg28083">
  <defs
     id="defs28085">
    <clipPath
       id="clipPath4901">
      <path
         d="m 315.748,1648.19 0.773,0 0,-0.63 -0.773,0 0,0.63 z"
         id="path4903" />
    </clipPath>
    <clipPath
       id="clipPath4905">
      <path
         d="m 315.759,1648.18 0.762,0 0,-0.62 -0.762,0 0,0.62 z"
         id="path4907" />
    </clipPath>
    <clipPath
       id="clipPath4909">
      <path
         d="m 315.748,1648.19 0.011,0 0,-0.01 -0.011,0 0,0.01 z"
         id="path4911" />
    </clipPath>
    <clipPath
       id="clipPath4857">
      <path
         d="m 327.146,1644.07 0.45,0 0,-0.02 -0.45,0 0,0.02 z"
         id="path4859" />
    </clipPath>
    <clipPath
       id="clipPath4861">
      <path
         d="m 327.146,1644.07 0.446,0 0,-0.02 -0.446,0 0,0.02 z"
         id="path4863" />
    </clipPath>
    <clipPath
       id="clipPath4865">
      <path
         d="m 327.592,1644.05 0.004,0 0,0 -0.004,0 z"
         id="path4867" />
    </clipPath>
  </defs>
  <metadata
     id="metadata28088">
    <rdf:RDF>
      <cc:Work
         rdf:about="">
        <dc:format>image/svg+xml</dc:format>
        <dc:type
           rdf:resource="http://purl.org/dc/dcmitype/StillImage" />
        <dc:title></dc:title>
      </cc:Work>
    </rdf:RDF>
  </metadata>
  <path
     d="m 23.901453,28.654371 c -0.70629,-0.960117 -2.82422,-1.880187 -2.75359,-1.858431 -0.30522,-0.775661 -0.50166,-1.675868 -0.4468,-2.720487 0.0816,-1.543752 0.25161,-3.469659 0.29576,-5.870421 0.006,-0.298597 -0.009,-0.600664 -0.0426,-0.899577 -0.0132,-0.115087 -0.0287,-0.229859 -0.0479,-0.343686 -0.11287,-0.674131 -0.34431,-1.322722 -0.69021,-1.926222 -0.25382,-0.441433 -0.57259,-0.847551 -0.94655,-1.20921 -0.12013,-0.116033 -0.24499,-0.227338 -0.37585,-0.334227 -0.24783,-0.201798 -0.51079,-0.381209 -0.82358,-0.489675 -0.2119,-0.07348 -0.44837,-0.09459 -0.67729,-0.09491 -0.0397,0 -0.0794,0 -0.11856,0.0011 -0.008,0 -0.17215,-0.180673 -0.19012,-0.194862 -0.11352,-0.08955 -0.24248,-0.163961 -0.3787,-0.226707 -0.44773,-0.205581 -0.99196,-0.274003 -1.46996,-0.230805 -2.0577,0.185085 -3.84992,1.175155 -4.80846,2.85386 -0.40328,0.706292 -0.6590005,1.534924 -0.7239505,2.477066 -0.0138,0.200853 -0.0199,0.406749 -0.0157,0.617691 0.0422,2.301756 0.2103,4.149781 0.28566,5.634886 0.058902,1.158446 -0.17909,2.146308 -0.52687,2.987552 l 3.1e-4,-3.15e-4 c -1.10011,0.372065 -2.01388,0.946872 -2.6609,1.8269 -0.14535,0.197698 0.62936,1.90352 0.82265,3.231915 0.20684,1.42299 -0.0974,4.013569 0.84376,6.677298 0.39446,1.117456 0.86553,2.206533 1.38957,3.201332 h 5.5008705 5.50309 c 0.52406,-0.994799 0.99449,-2.083876 1.38989,-3.201332 0.94025,-2.663413 0.6366,-5.254308 0.84377,-6.677298 0.19265,-1.327134 0.96736,-3.033901 0.82231,-3.2316 z M 11.185673,17.556442 c 0.86963,-0.176573 1.92937,-0.575124 2.99764,-1.165382 1.45863,-0.80593 2.56851,-1.766361 3.0276,-2.540444 0.003,0.03027 0.007,0.06085 0.0119,0.09269 0.0817,0.449945 0.43512,1.058808 1.01876,1.683119 0.3172,0.338642 0.66499,0.642915 1.01497,0.896739 0.24752,0.700301 0.38626,1.501186 0.38626,2.383105 0,2.501029 -1.26975,4.583646 -2.79458,5.440656 0.0135,0.75075 0.13463,1.752486 0.27589,2.528146 0.51995,-0.01797 1.02949,-0.04162 1.52357,-0.06968 -2.64985,3.391463 -3.30538,8.633159 -3.30538,8.633159 0,0 -0.72931,-5.241696 -3.30475,-8.633159 0.51049,0.0287 1.0361,0.05391 1.57371,0.07189 0.14567,-0.796471 0.26896,-1.831946 0.27747,-2.588371 -1.44222,-0.891379 -2.81886,-2.936789 -2.81886,-5.382639 -6.4e-4,-0.474856 0.0407,-0.925117 0.11571,-1.349838 z m 7.80137,13.913322 0.76872,0.545169 -0.0199,0.07473 c -0.23867,0.905253 -0.46634,1.662309 -0.67665,2.251306 -1.04019,2.90368 -3.51663,6.800267 -3.62163,6.965174 l -0.0952,0.14851 -0.0946,-0.14851 c -0.105,-0.164276 -2.58143,-4.061494 -3.62165,-6.965174 -0.21062,-0.58805 -0.43858,-1.346053 -0.67696,-2.251306 l -0.0198,-0.07473 0.84881,-0.60224 0.78259,-0.554944 -2.08356,-0.553683 0.0177,-0.100899 c 0.2305,-1.323351 0.4859,-2.678233 0.64355,-3.500559 0.0763,0.0022 0.15198,0.0057 0.22672,0.01072 -0.15293,0.797101 -0.40266,2.120453 -0.63094,3.426147 l 2.1813,0.579854 0.1668,0.04446 -1.89563,1.344162 c 0.22954,0.865839 0.44836,1.591995 0.65112,2.157344 0.93078,2.598146 3.02695,6.008212 3.50464,6.769998 0.47802,-0.761786 2.5742,-4.171221 3.50498,-6.769998 0.20306,-0.565349 0.42188,-1.291505 0.65111,-2.157344 l -1.89595,-1.344162 0.13148,-0.03468 2.21663,-0.588683 c -0.22954,-1.307584 -0.47895,-2.632513 -0.63156,-3.429298 0.0744,-0.0048 0.15072,-0.0075 0.22702,-0.0089 0.15765,0.822011 0.41305,2.176893 0.64355,3.50119 l 0.0177,0.100899 -2.08327,0.553682 0.86301,0.6117 z"
     id="path4"
     style="color:#000000;fill:#4f4c4d;fill-opacity:1;fill-rule:nonzero;stroke:none;stroke-width:0.76458687;marker:none;visibility:visible;display:inline;overflow:visible;enable-background:accumulate" />
  <path
     d="m 44.922064,24.255736 a 21.241003,21.241003 0 0 1 -42.4820015,0 21.241003,21.241003 0 1 1 42.4820015,0 z"
     id="path3047"
     style="color:#000000;fill:none;stroke:#4f4c4d;stroke-width:2.19115925;stroke-miterlimit:4;stroke-opacity:1;stroke-dasharray:none;marker:none;visibility:visible;display:inline;overflow:visible;enable-background:accumulate" />
  <g
     transform="matrix(0.71853615,0,0,0.71853615,6.5399625,6.2258365)"
     id="g3049">
    <path
       d="m 75.050846,53.389832 a 26.135593,26.135593 0 1 1 -52.271187,0 26.135593,26.135593 0 1 1 52.271187,0 z"
       transform="matrix(0.33831203,0,0,0.33831203,20.447268,-4.6248568)"
       id="path3051"
       style="color:#000000;fill:none;stroke:#4f4c4d;stroke-width:4.43536568;stroke-miterlimit:4;stroke-opacity:1;stroke-dasharray:none;marker:none;visibility:visible;display:inline;overflow:visible;enable-background:accumulate" />
    <g
       transform="matrix(1,0,0,0.8727911,-117.62052,-12.914281)"
       id="g3053">
      <g
         transform="matrix(1.25,0,0,-1.25,154.08317,29.906286)"
         id="g3055">
        <path
           d="m 0,0 c -0.455,0.007 -0.83,-0.355 -0.838,-0.812 -0.006,-0.455 0.358,-0.831 0.813,-0.836 0.457,-0.006 0.83,0.357 0.837,0.813 C 0.816,-0.381 0.455,-0.006 0,0"
           id="path3057"
           style="fill:#4f4c4d;fill-opacity:1;fill-rule:nonzero;stroke:none" />
      </g>
      <g
         transform="matrix(1.25,0,0,-1.25,160.19407,30.640986)"
         id="g3059">
        <path
           d="m 0,0 -3.566,0.052 c -0.149,0.002 -0.27,-0.136 -0.272,-0.309 -0.002,-0.171 0.115,-0.311 0.264,-0.311 L -0.01,-0.62 C 0.139,-0.624 0.262,-0.486 0.262,-0.315 0.266,-0.143 0.148,-0.004 0,0"
           id="path3061"
           style="fill:#4f4c4d;fill-opacity:1;fill-rule:nonzero;stroke:none" />
      </g>
      <g
         transform="matrix(1.25,0,0,-1.25,154.10277,29.666886)"
         id="g3063">
        <path
           d="M 0,0 C 0.172,-0.002 0.314,0.154 0.316,0.351 L 0.385,5.04 C 0.387,5.234 0.25,5.394 0.08,5.396 -0.092,5.399 -0.23,5.243 -0.234,5.048 L -0.301,0.359 C -0.305,0.164 -0.168,0.004 0,0"
           id="path3065"
           style="fill:#4f4c4d;fill-opacity:1;fill-rule:nonzero;stroke:none" />
      </g>
    </g>
  </g>
  <path
     d="M 7.4748225,10.181701 38.197893,40.904768"
     id="path3067"
     style="color:#000000;fill:none;stroke:#4f4c4d;stroke-width:2.0999999;stroke-linecap:butt;stroke-linejoin:miter;stroke-miterlimit:4;stroke-opacity:1;stroke-dasharray:none;stroke-dashoffset:0;marker:none;visibility:visible;display:inline;overflow:visible;enable-background:accumulate" />
</svg>
