<?xml version="1.0" encoding="UTF-8" standalone="no"?>
<!-- Created with Inkscape (http://www.inkscape.org/) -->

<svg
   xmlns:dc="http://purl.org/dc/elements/1.1/"
   xmlns:cc="http://creativecommons.org/ns#"
   xmlns:rdf="http://www.w3.org/1999/02/22-rdf-syntax-ns#"
   xmlns:svg="http://www.w3.org/2000/svg"
   xmlns="http://www.w3.org/2000/svg"
   xmlns:sodipodi="http://sodipodi.sourceforge.net/DTD/sodipodi-0.dtd"
   xmlns:inkscape="http://www.inkscape.org/namespaces/inkscape"
   width="48px"
   height="48px"
   id="svg11187"
   version="1.1"
   inkscape:version="0.48.4 r9943 custom"
   sodipodi:docname="pomme.svg">
  <defs
     id="defs11189" />
  <sodipodi:namedview
     id="base"
     pagecolor="#ffffff"
     bordercolor="#666666"
     borderopacity="1.0"
     inkscape:pageopacity="0.0"
     inkscape:pageshadow="2"
     inkscape:zoom="7"
     inkscape:cx="24"
     inkscape:cy="24"
     inkscape:current-layer="layer1"
     showgrid="true"
     inkscape:grid-bbox="true"
     inkscape:document-units="px"
     inkscape:window-width="599"
     inkscape:window-height="555"
     inkscape:window-x="2601"
     inkscape:window-y="499"
     inkscape:window-maximized="0" />
  <metadata
     id="metadata11192">
    <rdf:RDF>
      <cc:Work
         rdf:about="">
        <dc:format>image/svg+xml</dc:format>
        <dc:type
           rdf:resource="http://purl.org/dc/dcmitype/StillImage" />
        <dc:title></dc:title>
      </cc:Work>
    </rdf:RDF>
  </metadata>
  <g
     id="layer1"
     inkscape:label="Layer 1"
     inkscape:groupmode="layer">
    <g
       id="g15164"
       transform="matrix(1.25,0,0,-1.25,22.112661,31.390816)">
      <path
         d="m 0,0 c 0,-1.667 1.355,-3.019 3.023,-3.019 1.67,0 3.02,1.352 3.02,3.019 0,1.67 -1.35,3.023 -3.02,3.023 C 1.355,3.023 0,1.67 0,0"
         style="fill:#cfcccd;fill-opacity:1;fill-rule:nonzero;stroke:none"
         id="path15166"
         inkscape:connector-curvature="0" />
    </g>
    <g
       id="g15168"
       transform="matrix(1.25,0,0,-1.25,40.301161,23.263446)">
      <path
         d="m 0,0 c -0.119,1.467 -1.014,2.715 -2.271,3.339 -0.458,-0.485 -1.1,-0.792 -1.817,-0.792 -0.719,0 -1.361,0.307 -1.816,0.792 C -7.164,2.715 -8.055,1.467 -8.178,0 l 3.09,0 c 0.615,-1.142 0.967,-2.445 0.967,-3.831 0,-2.586 -1.219,-4.88 -3.108,-6.36 -0.458,0.439 -0.972,0.818 -1.548,1.104 -0.69,-0.735 -1.662,-1.2 -2.75,-1.2 -1.09,0 -2.063,0.465 -2.748,1.2 -0.579,-0.287 -1.1,-0.672 -1.563,-1.115 -1.947,1.477 -3.215,3.807 -3.215,6.442 0,1.381 0.348,2.68 0.959,3.818 l 7.612,0 C -10.717,2.94 -12.473,5.392 -14.943,6.611 -15.84,5.66 -17.1,5.06 -18.51,5.06 c -1.41,0 -2.672,0.6 -3.566,1.551 -2.471,-1.219 -4.223,-3.671 -4.463,-6.553 l 6.098,0 c -0.473,-1.183 -0.743,-2.467 -0.743,-3.818 0,-3.341 1.614,-6.288 4.088,-8.156 -0.338,-0.684 -0.558,-1.433 -0.625,-2.23 l 12.389,0 c -0.068,0.801 -0.289,1.558 -0.635,2.244 2.414,1.87 3.975,4.782 3.975,8.071 0,1.354 -0.268,2.646 -0.75,3.831 L 0,0 z"
         style="fill:#cfcccd;fill-opacity:1;fill-rule:nonzero;stroke:none"
         id="path15170"
         inkscape:connector-curvature="0" />
    </g>
    <g
       id="g15172"
       transform="matrix(1.25,0,0,-1.25,35.191281,19.447446)">
      <path
         d="M 0,0 C 1.102,0 1.99,0.895 1.99,1.994 1.99,3.097 1.102,3.988 0,3.988 -1.102,3.988 -1.992,3.097 -1.992,1.994 -1.992,0.895 -1.102,0 0,0"
         style="fill:#cfcccd;fill-opacity:1;fill-rule:nonzero;stroke:none"
         id="path15174"
         inkscape:connector-curvature="0" />
    </g>
    <g
       id="g15176"
       transform="matrix(1.25,0,0,-1.25,17.163901,15.697446)">
      <path
         d="M 0,0 C 2.16,0 3.914,1.753 3.914,3.915 3.914,6.077 2.16,7.829 0,7.829 -2.162,7.829 -3.914,6.077 -3.914,3.915 -3.914,1.753 -2.162,0 0,0"
         style="fill:#cfcccd;fill-opacity:1;fill-rule:nonzero;stroke:none"
         id="path15178"
         inkscape:connector-curvature="0" />
    </g>
  </g>
</svg>
