<?xml version="1.0" encoding="UTF-8" standalone="no"?>
<!-- Created with Inkscape (http://www.inkscape.org/) -->

<svg
   xmlns:dc="http://purl.org/dc/elements/1.1/"
   xmlns:cc="http://creativecommons.org/ns#"
   xmlns:rdf="http://www.w3.org/1999/02/22-rdf-syntax-ns#"
   xmlns:svg="http://www.w3.org/2000/svg"
   xmlns="http://www.w3.org/2000/svg"
   xmlns:sodipodi="http://sodipodi.sourceforge.net/DTD/sodipodi-0.dtd"
   xmlns:inkscape="http://www.inkscape.org/namespaces/inkscape"
   width="48px"
   height="48px"
   id="svg28083"
   version="1.1"
   inkscape:version="0.48.4 r9943 custom"
   sodipodi:docname="clef.svg">
  <defs
     id="defs28085">
    <clipPath
       clipPathUnits="userSpaceOnUse"
       id="clipPath4901">
      <path
         inkscape:connector-curvature="0"
         d="m 315.748,1648.19 0.773,0 0,-0.63 -0.773,0 0,0.63 z"
         id="path4903" />
    </clipPath>
    <clipPath
       clipPathUnits="userSpaceOnUse"
       id="clipPath4905">
      <path
         inkscape:connector-curvature="0"
         d="m 315.759,1648.18 0.762,0 0,-0.62 -0.762,0 0,0.62 z"
         id="path4907" />
    </clipPath>
    <clipPath
       clipPathUnits="userSpaceOnUse"
       id="clipPath4909">
      <path
         inkscape:connector-curvature="0"
         d="m 315.748,1648.19 0.011,0 0,-0.01 -0.011,0 0,0.01 z"
         id="path4911" />
    </clipPath>
    <clipPath
       clipPathUnits="userSpaceOnUse"
       id="clipPath4857">
      <path
         inkscape:connector-curvature="0"
         d="m 327.146,1644.07 0.45,0 0,-0.02 -0.45,0 0,0.02 z"
         id="path4859" />
    </clipPath>
    <clipPath
       clipPathUnits="userSpaceOnUse"
       id="clipPath4861">
      <path
         inkscape:connector-curvature="0"
         d="m 327.146,1644.07 0.446,0 0,-0.02 -0.446,0 0,0.02 z"
         id="path4863" />
    </clipPath>
    <clipPath
       clipPathUnits="userSpaceOnUse"
       id="clipPath4865">
      <path
         inkscape:connector-curvature="0"
         d="m 327.592,1644.05 0.004,0 0,0 -0.004,0 z"
         id="path4867" />
    </clipPath>
  </defs>
  <sodipodi:namedview
     id="base"
     pagecolor="#ffffff"
     bordercolor="#666666"
     borderopacity="1.0"
     inkscape:pageopacity="0.0"
     inkscape:pageshadow="2"
     inkscape:zoom="7"
     inkscape:cx="26.60379"
     inkscape:cy="24"
     inkscape:current-layer="layer1"
     showgrid="true"
     inkscape:grid-bbox="true"
     inkscape:document-units="px"
     inkscape:window-width="651"
     inkscape:window-height="653"
     inkscape:window-x="1333"
     inkscape:window-y="273"
     inkscape:window-maximized="0" />
  <metadata
     id="metadata28088">
    <rdf:RDF>
      <cc:Work
         rdf:about="">
        <dc:format>image/svg+xml</dc:format>
        <dc:type
           rdf:resource="http://purl.org/dc/dcmitype/StillImage" />
        <dc:title />
      </cc:Work>
    </rdf:RDF>
  </metadata>
  <g
     id="layer1"
     inkscape:label="Layer 1"
     inkscape:groupmode="layer">
    <g
       transform="matrix(1.25,0,0,-1.25,29.803441,11.632143)"
       id="g5741"
       style="fill:#cfcccd">
      <path
         inkscape:connector-curvature="0"
         id="path5743"
         style="fill:#cfcccd;fill-opacity:1;fill-rule:nonzero;stroke:none"
         d="M 0,0 C 1.264,0 2.289,-1.024 2.289,-2.291 2.289,-3.555 1.264,-4.58 0,-4.58 c -1.266,0 -2.289,1.025 -2.289,2.289 C -2.289,-1.024 -1.266,0 0,0 m 8.08,-5.229 0,0 c 0.047,0.339 0.08,0.687 0.08,1.042 0,0.419 -0.043,0.828 -0.107,1.229 0,0 0,0.004 -0.002,0.006 -0.037,0.233 -0.088,0.464 -0.149,0.69 0,0.007 -0.004,0.013 -0.004,0.019 C 7.84,-2.021 7.771,-1.804 7.691,-1.591 7.687,-1.578 7.684,-1.566 7.678,-1.555 7.602,-1.348 7.516,-1.146 7.422,-0.95 7.414,-0.932 7.404,-0.912 7.395,-0.894 7.303,-0.705 7.205,-0.521 7.096,-0.34 7.082,-0.313 7.064,-0.289 7.051,-0.264 6.945,-0.093 6.836,0.074 6.719,0.236 6.695,0.269 6.67,0.301 6.645,0.333 6.533,0.483 6.414,0.633 6.289,0.776 6.256,0.814 6.221,0.852 6.184,0.89 6.066,1.021 5.941,1.15 5.812,1.274 5.766,1.317 5.719,1.359 5.668,1.403 5.545,1.516 5.422,1.626 5.291,1.729 5.23,1.777 5.166,1.821 5.104,1.869 4.98,1.96 4.855,2.052 4.727,2.137 4.65,2.188 4.57,2.232 4.492,2.279 4.369,2.354 4.248,2.428 4.123,2.494 4.029,2.544 3.934,2.588 3.84,2.632 3.719,2.688 3.602,2.745 3.479,2.797 3.367,2.843 3.256,2.879 3.146,2.921 3.029,2.96 2.918,3.004 2.803,3.04 2.674,3.08 2.543,3.108 2.412,3.141 2.305,3.166 2.203,3.198 2.096,3.219 1.939,3.251 1.785,3.269 1.625,3.291 1.537,3.303 1.451,3.319 1.363,3.329 1.355,3.331 1.35,3.331 1.342,3.331 1.1,3.355 0.855,3.367 0.607,3.367 0.355,3.367 0.104,3.354 -0.141,3.329 -0.225,3.321 -0.305,3.305 -0.387,3.293 -0.549,3.272 -0.711,3.251 -0.869,3.219 -0.967,3.202 -1.061,3.175 -1.152,3.152 -1.295,3.118 -1.437,3.086 -1.576,3.044 -1.674,3.012 -1.771,2.976 -1.867,2.943 -1.994,2.897 -2.125,2.854 -2.25,2.803 -2.352,2.763 -2.447,2.715 -2.543,2.672 -2.662,2.614 -2.779,2.562 -2.895,2.5 -2.994,2.449 -3.086,2.394 -3.182,2.337 -3.289,2.274 -3.398,2.211 -3.504,2.141 -3.598,2.082 -3.689,2.016 -3.781,1.951 -3.881,1.879 -3.979,1.807 -4.072,1.732 -4.164,1.66 -4.254,1.586 -4.34,1.51 -4.428,1.432 -4.516,1.352 -4.604,1.271 -4.687,1.19 -4.771,1.106 -4.854,1.021 -4.93,0.937 -5.008,0.852 -5.084,0.765 -5.162,0.675 -5.24,0.582 -5.316,0.487 -5.385,0.399 -5.451,0.309 -5.518,0.219 -5.592,0.118 -5.66,0.018 -5.729,-0.089 -5.787,-0.181 -5.844,-0.273 -5.9,-0.367 c -0.063,-0.11 -0.127,-0.22 -0.188,-0.332 -0.051,-0.096 -0.094,-0.193 -0.137,-0.287 -0.058,-0.12 -0.115,-0.239 -0.164,-0.362 -0.037,-0.092 -0.07,-0.19 -0.105,-0.285 -0.047,-0.129 -0.094,-0.259 -0.135,-0.393 -0.025,-0.091 -0.045,-0.183 -0.072,-0.276 -0.035,-0.14 -0.074,-0.283 -0.102,-0.427 -0.015,-0.081 -0.025,-0.163 -0.037,-0.245 -0.025,-0.159 -0.055,-0.321 -0.07,-0.484 l 0,-0.002 c -0.022,-0.239 -0.035,-0.479 -0.035,-0.727 0,-0.199 0.008,-0.397 0.023,-0.592 0.014,-0.187 0.039,-0.369 0.068,-0.552 l 0,-0.026 0,0.003 c 0.073,-0.465 0.186,-0.923 0.344,-1.369 l -0.097,-0.098 -11.606,-11.605 c -0.101,-0.102 -0.154,-0.241 -0.146,-0.385 l 0.093,-1.795 0.014,-0.244 c 0.014,-0.268 0.238,-0.477 0.504,-0.477 l 0.019,0 4.221,0.142 c 0.221,0.008 0.412,0.157 0.471,0.372 l 0.299,1.077 0.189,0.694 1.908,0.371 c 0.209,0.04 0.368,0.201 0.405,0.408 l 0.3,1.677 0.825,0.2 0,-0.002 0.927,0.224 c 0.215,0.054 0.373,0.238 0.389,0.461 l 0.041,0.663 0.072,1.133 1.071,0.124 0.371,0.044 c 0.215,0.022 0.388,0.182 0.437,0.393 l 0.227,1.036 0.166,0.77 c 0,0 0.056,-0.006 0.154,-0.006 0.026,0 0.047,-0.002 0.074,-0.002 0.403,0 0.985,0.088 1.688,0.423 0.031,0.013 0.06,0.028 0.09,0.041 0.047,0.023 0.091,0.048 0.138,0.072 0.1,0.052 0.2,0.109 0.299,0.17 0.451,-0.242 0.922,-0.433 1.41,-0.58 0.01,-0.002 0.02,-0.006 0.028,-0.006 0.224,-0.066 0.453,-0.124 0.679,-0.171 l 0.01,0 c 0.219,-0.042 0.438,-0.074 0.66,-0.096 0.043,-0.004 0.086,-0.008 0.127,-0.014 0.219,-0.018 0.44,-0.032 0.66,-0.032 0.25,0 0.497,0.014 0.741,0.038 0.084,0.009 0.164,0.024 0.248,0.036 0.158,0.021 0.316,0.042 0.47,0.072 0.098,0.019 0.196,0.045 0.293,0.069 0.133,0.032 0.268,0.062 0.399,0.102 0.107,0.032 0.207,0.069 0.312,0.105 0.118,0.04 0.233,0.082 0.35,0.127 0.109,0.046 0.217,0.093 0.324,0.142 0.102,0.046 0.203,0.096 0.305,0.147 0.111,0.059 0.222,0.118 0.33,0.18 0.088,0.054 0.174,0.105 0.26,0.16 0.113,0.073 0.228,0.149 0.338,0.226 0.07,0.05 0.138,0.104 0.207,0.156 0.117,0.09 0.236,0.181 0.349,0.28 0.049,0.044 0.098,0.088 0.145,0.133 0.125,0.114 0.25,0.23 0.365,0.35 0.023,0.024 0.043,0.047 0.064,0.072 1.045,1.111 1.754,2.533 1.973,4.115 l 0,0.002 z" />
    </g>
  </g>
</svg>
