<?xml version="1.0" encoding="UTF-8" standalone="no"?>
<!-- Created with Inkscape (http://www.inkscape.org/) -->

<svg
   xmlns:dc="http://purl.org/dc/elements/1.1/"
   xmlns:cc="http://creativecommons.org/ns#"
   xmlns:rdf="http://www.w3.org/1999/02/22-rdf-syntax-ns#"
   xmlns:svg="http://www.w3.org/2000/svg"
   xmlns="http://www.w3.org/2000/svg"
   xmlns:sodipodi="http://sodipodi.sourceforge.net/DTD/sodipodi-0.dtd"
   xmlns:inkscape="http://www.inkscape.org/namespaces/inkscape"
   width="48px"
   height="48px"
   id="svg28083"
   version="1.1"
   inkscape:version="0.48.4 r9943 custom"
   sodipodi:docname="voiture.svg">
  <defs
     id="defs28085">
    <clipPath
       clipPathUnits="userSpaceOnUse"
       id="clipPath4901">
      <path
         inkscape:connector-curvature="0"
         d="m 315.748,1648.19 0.773,0 0,-0.63 -0.773,0 0,0.63 z"
         id="path4903" />
    </clipPath>
    <clipPath
       clipPathUnits="userSpaceOnUse"
       id="clipPath4905">
      <path
         inkscape:connector-curvature="0"
         d="m 315.759,1648.18 0.762,0 0,-0.62 -0.762,0 0,0.62 z"
         id="path4907" />
    </clipPath>
    <clipPath
       clipPathUnits="userSpaceOnUse"
       id="clipPath4909">
      <path
         inkscape:connector-curvature="0"
         d="m 315.748,1648.19 0.011,0 0,-0.01 -0.011,0 0,0.01 z"
         id="path4911" />
    </clipPath>
    <clipPath
       clipPathUnits="userSpaceOnUse"
       id="clipPath4857">
      <path
         inkscape:connector-curvature="0"
         d="m 327.146,1644.07 0.45,0 0,-0.02 -0.45,0 0,0.02 z"
         id="path4859" />
    </clipPath>
    <clipPath
       clipPathUnits="userSpaceOnUse"
       id="clipPath4861">
      <path
         inkscape:connector-curvature="0"
         d="m 327.146,1644.07 0.446,0 0,-0.02 -0.446,0 0,0.02 z"
         id="path4863" />
    </clipPath>
    <clipPath
       clipPathUnits="userSpaceOnUse"
       id="clipPath4865">
      <path
         inkscape:connector-curvature="0"
         d="m 327.592,1644.05 0.004,0 0,0 -0.004,0 z"
         id="path4867" />
    </clipPath>
  </defs>
  <sodipodi:namedview
     id="base"
     pagecolor="#ffffff"
     bordercolor="#666666"
     borderopacity="1.0"
     inkscape:pageopacity="0.0"
     inkscape:pageshadow="2"
     inkscape:zoom="7"
     inkscape:cx="26.60379"
     inkscape:cy="24"
     inkscape:current-layer="layer1"
     showgrid="true"
     inkscape:grid-bbox="true"
     inkscape:document-units="px"
     inkscape:window-width="651"
     inkscape:window-height="653"
     inkscape:window-x="2360"
     inkscape:window-y="159"
     inkscape:window-maximized="0" />
  <metadata
     id="metadata28088">
    <rdf:RDF>
      <cc:Work
         rdf:about="">
        <dc:format>image/svg+xml</dc:format>
        <dc:type
           rdf:resource="http://purl.org/dc/dcmitype/StillImage" />
        <dc:title></dc:title>
      </cc:Work>
    </rdf:RDF>
  </metadata>
  <g
     id="layer1"
     inkscape:label="Layer 1"
     inkscape:groupmode="layer">
    <g
       transform="matrix(0.69016723,0,0,-0.71779947,27.462596,26.320653)"
       id="g6505">
      <path
         inkscape:connector-curvature="0"
         id="path6507"
         style="fill:#cfcccd;fill-opacity:1;fill-rule:nonzero;stroke:none"
         d="m 0,0 -11.154,0.317 -1.037,4.641 c 0.05,0.789 0.74,0.641 0.74,0.641 C -2.121,5.647 0.1,1.454 0.1,1.454 0.93,-0.095 0,0 0,0 m -23.887,0.614 c -0.297,1.627 1.282,3.652 1.282,3.652 0.939,1.531 2.371,1.381 2.371,1.381 0,0 4.836,0.1 5.578,0.05 0.738,-0.05 0.687,-0.493 0.687,-0.493 l 0.348,-4.887 -10.266,0.297 z m 38.151,-5.775 c -0.147,0.642 -0.938,1.432 -0.938,1.432 -1.629,2.96 -8.392,4.244 -8.392,4.244 L -2.605,5.12 -3.047,5.335 -3.555,5.539 -4.088,5.722 -4.59,5.846 c -3.732,0.98 -17.127,0.839 -17.127,0.839 -2.121,-0.051 -2.812,-1.186 -2.812,-1.186 L -28.33,0.761 c -1.135,-1.086 -0.74,-4.343 -0.74,-4.343 0.148,-0.493 -0.297,-0.593 -0.297,-0.593 -0.543,0 -0.838,-0.74 -0.838,-0.74 0,-4.294 2.172,-3.948 2.172,-3.948 0.295,4.837 4.342,4.146 4.342,4.146 3.849,0.099 3.951,-4.886 3.951,-4.886 l 21.912,0 c 0.543,6.022 4.887,5.084 4.887,5.084 3.849,-0.197 3.355,-5.232 3.355,-5.232 l 2.221,0.198 c 2.023,0.197 1.629,4.392 1.629,4.392" />
    </g>
    <g
       transform="matrix(0.69016723,0,0,-0.71779947,31.883973,34.027879)"
       id="g6509">
      <path
         inkscape:connector-curvature="0"
         id="path6511"
         style="fill:#cfcccd;fill-opacity:1;fill-rule:nonzero;stroke:none"
         d="m 0,0 c -0.926,0 -1.678,0.751 -1.678,1.677 0,0.927 0.752,1.678 1.678,1.678 0.928,0 1.68,-0.751 1.68,-1.678 C 1.68,0.751 0.928,0 0,0 m 0,4.984 c -1.824,0 -3.307,-1.479 -3.307,-3.307 0,-1.825 1.483,-3.306 3.307,-3.306 1.826,0 3.307,1.481 3.307,3.306 0,1.828 -1.481,3.307 -3.307,3.307" />
    </g>
    <g
       transform="matrix(0.69016723,0,0,-0.71779947,11.044181,34.027879)"
       id="g6513">
      <path
         inkscape:connector-curvature="0"
         id="path6515"
         style="fill:#cfcccd;fill-opacity:1;fill-rule:nonzero;stroke:none"
         d="m 0,0 c -0.926,0 -1.678,0.751 -1.678,1.677 0,0.927 0.752,1.678 1.678,1.678 0.928,0 1.678,-0.751 1.678,-1.678 C 1.678,0.751 0.928,0 0,0 m 0,4.984 c -1.826,0 -3.307,-1.479 -3.307,-3.307 0,-1.825 1.481,-3.306 3.307,-3.306 1.828,0 3.309,1.481 3.309,3.306 0,1.828 -1.481,3.307 -3.309,3.307" />
    </g>
    <g
       transform="matrix(0.62496639,0,0,-0.63815822,30.720518,16.953031)"
       id="g13711">
      <path
         inkscape:connector-curvature="0"
         id="path13713"
         style="fill:#cfcccd;fill-opacity:1;fill-rule:nonzero;stroke:none"
         d="M 0,0 C 1.324,0 2.396,1.072 2.396,2.396 2.396,3.717 1.324,4.791 0,4.791 -1.322,4.791 -2.395,3.717 -2.395,2.396 -2.395,1.072 -1.322,0 0,0 m 5.703,-0.224 c 1.561,0 2.83,1.267 2.83,2.829 0,1.562 -1.269,2.83 -2.83,2.83 -1.562,0 -2.828,-1.268 -2.828,-2.83 0,-1.562 1.266,-2.829 2.828,-2.829 m 7.067,-0.647 c 2.144,0 3.886,1.738 3.886,3.886 0,2.146 -1.742,3.885 -3.886,3.885 -2.145,0 -3.883,-1.739 -3.883,-3.885 0,-2.148 1.738,-3.886 3.883,-3.886 m 0.035,-0.743 c -1.391,0 -2.651,-0.542 -3.588,-1.422 -0.594,1.338 -1.932,2.271 -3.49,2.271 -1.159,0 -2.194,-0.516 -2.895,-1.332 -0.557,0.979 -1.607,1.639 -2.809,1.639 -1.785,0 -3.232,-1.444 -3.232,-3.23 l 0,-5.919 5.121,0 0,-1.962 5.65,0 0,-4.893 10.485,0 0,9.606 c 0,2.896 -2.352,5.242 -5.242,5.242" />
    </g>
  </g>
</svg>
