<?xml version="1.0" encoding="UTF-8" standalone="no"?>
<!-- Created with Inkscape (http://www.inkscape.org/) -->

<svg
   xmlns:dc="http://purl.org/dc/elements/1.1/"
   xmlns:cc="http://creativecommons.org/ns#"
   xmlns:rdf="http://www.w3.org/1999/02/22-rdf-syntax-ns#"
   xmlns:svg="http://www.w3.org/2000/svg"
   xmlns="http://www.w3.org/2000/svg"
   version="1.2"
   width="48"
   height="48"
   id="svg11187">
  <defs
     id="defs11189" />
  <metadata
     id="metadata11192">
    <rdf:RDF>
      <cc:Work
         rdf:about="">
        <dc:format>image/svg+xml</dc:format>
        <dc:type
           rdf:resource="http://purl.org/dc/dcmitype/StillImage" />
        <dc:title></dc:title>
      </cc:Work>
    </rdf:RDF>
  </metadata>
  <g
     id="layer1">
    <g
       id="g3002">
      <g
         transform="matrix(1.25,0,0,-1.25,14.111691,43.117201)"
         id="g11874" />
      <flowRoot
         id="flowRoot11476"
         xml:space="preserve"
         style="font-size:22px;font-style:normal;font-weight:normal;text-align:center;line-height:125%;letter-spacing:0px;word-spacing:0px;text-anchor:middle;fill:#000000;fill-opacity:1;stroke:none;font-family:Sans"><flowRegion
           id="flowRegion11478"><rect
             width="46.714287"
             height="39.285713"
             x="0.85714287"
             y="8.7142859"
             id="rect11480" /></flowRegion><flowPara
           id="flowPara11482" /></flowRoot>      <g
         transform="matrix(-0.66470035,0,0,-0.6909003,29.593059,19.873633)"
         id="g16188"
         style="fill:#cfcccd">
        <path
           d="m 0,0 c 0,1.545 -1.252,2.798 -2.799,2.798 -1.543,0 -2.799,-1.253 -2.799,-2.798 0,-1.548 1.256,-2.801 2.799,-2.801 C -1.252,-2.801 0,-1.548 0,0"
           id="path16190"
           style="fill:#cfcccd;fill-opacity:1;fill-rule:nonzero;stroke:none" />
      </g>
      <g
         transform="matrix(-0.66470035,0,0,-0.6909003,25.046746,27.63073)"
         id="g16192"
         style="fill:#cfcccd">
        <path
           d="m 0,0 c 0,0 0.402,4.772 -0.742,5.344 -1.143,0.57 -8.912,2.169 -8.912,2.169 L -20.195,2.001 c 0,0 -1.114,-0.658 -0.657,-1.343 0.457,-0.685 1.659,-0.282 1.659,-0.282 l 6.689,2.252 0.438,-4.824 c 0,0 -2.914,-2.938 -3.372,-3.281 -0.458,-0.343 -1.949,-7.624 -1.949,-7.624 0,0 -0.379,-1.496 0.604,-1.806 1.31,-0.414 1.701,0.517 1.701,0.517 l 2.25,6.648 3.6,3.281 5.767,-9.518 c 0,0 0.824,-1.605 2.037,-0.901 1.051,0.61 0.303,1.998 0.303,1.998 l -4.646,10.227 0.144,6.469 3.242,-0.612 c 0,0 0.092,-1.73 0.26,-3.325 0,0 0.313,-0.814 1.189,-0.75 C -0.187,-0.82 -0.062,-0.499 0,0"
           id="path16194"
           style="fill:#cfcccd;fill-opacity:1;fill-rule:nonzero;stroke:none" />
      </g>
      <g
         transform="matrix(0.47819259,0,0,-0.47819259,24.623809,35.447755)"
         id="g8463"
         style="fill:#cfcccd">
        <path
           d="m 0,0 c -5.078,0 -9.197,4.118 -9.197,9.196 0,2.867 1.31,5.423 3.361,7.109 l 4.914,-7.59 c 0.156,-0.244 0.443,-0.156 0.639,0.198 0.197,0.353 0.228,0.839 0.07,1.084 l -4.566,7.057 c 1.392,0.85 3.029,1.342 4.779,1.342 5.082,0 9.199,-4.119 9.199,-9.2 C 9.199,4.118 5.082,0 0,0 m -14.994,11.849 c -0.27,0.099 -0.559,0.156 -0.861,0.156 -0.372,0 -0.725,-0.083 -1.043,-0.231 l -5.166,8.596 12.757,0 -5.687,-8.521 z m -4.924,-1.547 c -0.328,3.112 -2.033,5.811 -4.494,7.484 l 1.199,1.851 5.295,-8.727 c -0.123,-0.188 -0.223,-0.393 -0.295,-0.608 l -1.705,0 z M -30.234,0 c -5.08,0 -9.2,4.118 -9.2,9.196 0,5.081 4.12,9.2 9.2,9.2 1.459,0 2.839,-0.341 4.066,-0.95 L -30.99,9.997 c -0.158,-0.245 -0.127,-0.731 0.068,-1.084 0.01,-0.017 0.02,-0.033 0.029,-0.05 l 2.039,0 0.297,0 7.512,-0.016 C -21.23,3.931 -25.273,0 -30.234,0 m 5.181,16.794 c 2.137,-1.459 3.625,-3.797 3.949,-6.492 l -8.15,0 4.201,6.492 z M 0,19.574 c -1.984,0 -3.842,-0.561 -5.42,-1.529 l -1.85,2.856 -0.707,1.416 c 0,0 -0.572,1.414 -0.878,1.949 -0.688,1.95 -3.018,2.026 -3.018,2.026 l 0,-0.004 -0.115,0.028 0.021,0.267 -0.263,0.023 -0.022,-0.254 -2.42,0.323 c -0.098,0.012 -0.182,-0.199 -0.189,-0.48 -0.008,-0.273 0.068,-0.508 0.166,-0.522 l 2.353,-0.318 -0.019,-0.218 0.263,-0.021 0.02,0.204 0.23,-0.042 0,-0.003 c 0.008,-0.002 0.018,-0.003 0.03,-0.006 l 0.058,-0.01 c 0.018,-0.002 0.086,-0.015 0.186,-0.035 1.183,-0.268 1.496,-1.11 1.496,-1.11 l 1.01,-2.277 -13.668,0 -0.996,1.957 2.98,0.078 c 0,0 1.141,0.98 -0.814,1.631 -1.955,0.65 -5.051,1.139 -5.051,1.139 0,0 -2.444,0 -2.279,-1.629 0.162,-1.628 1.955,-1.303 1.955,-1.303 l 1.666,0.047 1.402,-2.759 -1.652,-2.556 c -1.414,0.721 -3.014,1.132 -4.709,1.132 -5.733,0 -10.377,-4.646 -10.377,-10.378 0,-5.731 4.644,-10.376 10.377,-10.376 5.611,0 10.179,4.456 10.367,10.024 l 1.623,-0.003 c 0.297,-1.043 1.252,-1.806 2.389,-1.806 1.373,0 2.486,1.111 2.486,2.486 0,0.56 -0.188,1.076 -0.502,1.488 l 5.693,8.919 1.699,-2.628 C -8.854,15.397 -10.375,12.476 -10.375,9.196 -10.375,3.465 -5.73,-1.18 0,-1.18 c 5.732,0 10.377,4.645 10.377,10.376 0,5.732 -4.645,10.378 -10.377,10.378"
           id="path8465"
           style="fill:#cfcccd;fill-opacity:1;fill-rule:nonzero;stroke:none" />
      </g>
      <path
         d="m 19.063924,12.823824 c -0.03987,0.304666 -8.69005,-5.0199265 -8.69005,-5.0199265 -0.312858,-0.1810216 -0.8219496,-0.176965 -1.1317649,0.00811 l -3.3653789,2.0130417 0,-2.0323095 -2.0667899,0 0,3.2670093 -1.3893533,0.831077 -0.00101,0 -1.5460354,0.924376 c -0.3098159,0.185585 -0.2672213,0.33669 0.093302,0.33669 l 1.4527354,0 0,7.17748 14.770752,0 0,-7.17748 1.784862,0 c 0.36103,0 0.40058,-0.147555 0.08874,-0.32807"
         id="path11424"
         style="fill:#cfcccd;fill-opacity:1;fill-rule:nonzero;stroke:none" />
      <g
         transform="matrix(0.52264441,0,0,-0.52264441,42.839467,13.993577)"
         id="g14187"
         style="fill:#cfcccd">
        <path
           d="M 0,0 C 0.652,-0.699 1.561,-0.914 2.02,-0.48 L 8.781,5.867 C 9.242,6.299 9.086,7.216 8.432,7.912 L 7.846,8.537 C 7.191,9.234 6.287,9.447 5.824,9.016 L -0.936,2.67 C -1.398,2.237 -1.242,1.32 -0.588,0.624 L 0,0 z"
           id="path14189"
           style="fill:#cfcccd;fill-opacity:1;fill-rule:nonzero;stroke:none" />
      </g>
      <g
         transform="matrix(0.52264441,0,0,-0.52264441,40.996915,13.668776)"
         id="g14191"
         style="fill:#cfcccd">
        <path
           d="M 0,0 C 0.186,0.692 0.271,1.425 0.238,2.18 0.053,6.105 -3.277,9.14 -7.203,8.956 -7.748,8.931 -8.273,8.838 -8.777,8.697 L -3.734,4.615 C -2.92,3.953 -2.807,2.734 -3.488,1.894 L -5.945,-1.14 C -6.627,-1.98 -7.84,-2.125 -8.658,-1.465 l -5.26,4.261 c -0.057,-0.419 -0.084,-0.847 -0.062,-1.282 0.183,-3.925 3.515,-6.959 7.441,-6.776 1.437,0.068 2.756,0.563 3.842,1.349 l 11.511,-8.934 c 0.831,-0.646 2.024,-0.493 2.67,0.336 l 0.575,0.74 c 0.644,0.831 0.496,2.026 -0.336,2.67 L 0,0 z"
           id="path14193"
           style="fill:#cfcccd;fill-opacity:1;fill-rule:nonzero;stroke:none" />
      </g>
      <g
         transform="matrix(0.52264441,0,0,-0.52264441,40.337505,16.281192)"
         id="g14195"
         style="fill:#cfcccd">
        <path
           d="m 0,0 c -0.271,0.292 -0.854,0.187 -1.297,-0.228 l -5.109,-4.794 -1.514,-0.659 -0.947,-1.838 0.875,-0.994 2.097,0.777 0.666,1.353 -0.001,0.003 5.164,4.843 c 0.443,0.416 0.58,0.99 0.308,1.279 L 0,0 z"
           id="path14197"
           style="fill:#cfcccd;fill-opacity:1;fill-rule:nonzero;stroke:none" />
      </g>
      <g
         transform="matrix(0,0.65320758,0.65320758,0,31.067764,15.603868)"
         id="g4038"
         style="fill:#cfcccd">
        <path
           d="M 0,0 -1.611,2.792 -3.223,0 l -1.611,-2.791 1.822,0 0,-13.886 2.631,0 0,13.886 1.992,0 L 0,0 z"
           id="path4040"
           style="fill:#cfcccd;fill-opacity:1;fill-rule:nonzero;stroke:none" />
      </g>
    </g>
  </g>
</svg>
