<?xml version="1.0" encoding="UTF-8" standalone="no"?>
<!-- Created with Inkscape (http://www.inkscape.org/) -->

<svg
   xmlns:dc="http://purl.org/dc/elements/1.1/"
   xmlns:cc="http://creativecommons.org/ns#"
   xmlns:rdf="http://www.w3.org/1999/02/22-rdf-syntax-ns#"
   xmlns:svg="http://www.w3.org/2000/svg"
   xmlns="http://www.w3.org/2000/svg"
   xmlns:sodipodi="http://sodipodi.sourceforge.net/DTD/sodipodi-0.dtd"
   xmlns:inkscape="http://www.inkscape.org/namespaces/inkscape"
   width="48px"
   height="48px"
   id="svg3210"
   version="1.1"
   inkscape:version="0.48.4 r9943 custom"
   sodipodi:docname="parking-payant.svg">
  <defs
     id="defs3212" />
  <sodipodi:namedview
     id="base"
     pagecolor="#ffffff"
     bordercolor="#666666"
     borderopacity="1.0"
     inkscape:pageopacity="0.0"
     inkscape:pageshadow="2"
     inkscape:zoom="7"
     inkscape:cx="24"
     inkscape:cy="24"
     inkscape:current-layer="layer1"
     showgrid="true"
     inkscape:grid-bbox="true"
     inkscape:document-units="px"
     inkscape:window-width="605"
     inkscape:window-height="601"
     inkscape:window-x="2638"
     inkscape:window-y="1104"
     inkscape:window-maximized="0" />
  <metadata
     id="metadata3215">
    <rdf:RDF>
      <cc:Work
         rdf:about="">
        <dc:format>image/svg+xml</dc:format>
        <dc:type
           rdf:resource="http://purl.org/dc/dcmitype/StillImage" />
        <dc:title></dc:title>
      </cc:Work>
    </rdf:RDF>
  </metadata>
  <g
     id="layer1"
     inkscape:label="Layer 1"
     inkscape:groupmode="layer">
    <g
       id="g17368"
       transform="matrix(1.25,0,0,-1.25,27.777226,30.019821)">
      <path
         d="m 0,0 c -0.649,-0.83 -0.897,-0.695 -0.552,0.301 l 2.623,7.568 c 0.346,0.994 1.49,1.809 2.543,1.809 l 1.032,0 C 6.7,9.678 7.03,8.998 6.382,8.169 L 0,0 z m -2.509,-1.589 c -0.345,-0.995 -0.909,-0.995 -1.256,0 l -3.276,9.458 c -0.346,0.994 0.088,1.809 0.964,1.809 l 2.941,0 2.941,0 c 0.875,0 1.31,-0.815 0.964,-1.809 l -3.278,-9.458 z m -10.146,9.758 c -0.648,0.829 -0.318,1.509 0.736,1.509 l 1.033,0 c 1.054,0 2.198,-0.815 2.542,-1.809 L -5.72,0.301 C -5.375,-0.695 -5.624,-0.83 -6.272,0 l -6.383,8.169 z m 0.787,4.661 c 0.728,0.76 1.577,0.654 1.886,-0.234 0.308,-0.892 -0.301,-1.619 -1.354,-1.619 l -0.392,0 c -1.053,0 -1.318,0.622 -0.591,1.382 l 0.451,0.471 z m 5.012,1.901 c 1.053,0 1.279,-0.58 0.499,-1.289 L -6.93,12.918 c -0.778,-0.707 -1.657,-0.591 -1.953,0.263 -0.295,0.852 0.324,1.55 1.377,1.55 l 0.65,0 z m 6.354,-2.465 c 0.778,-0.709 0.808,-1.289 0.065,-1.289 l -2.699,0 -2.699,0 c -0.743,0 -0.714,0.58 0.065,1.289 l 1.217,1.109 c 0.779,0.709 2.054,0.709 2.832,0 l 1.219,-1.109 z m 1.735,2.465 c 1.053,0 1.673,-0.698 1.377,-1.55 -0.296,-0.854 -1.174,-0.97 -1.953,-0.262 l -0.574,0.523 c -0.778,0.709 -0.554,1.289 0.5,1.289 l 0.65,0 z M 3.71,12.596 c 0.308,0.888 1.157,0.994 1.885,0.234 l 0.45,-0.471 c 0.729,-0.76 0.464,-1.382 -0.59,-1.382 l -0.392,0 c -1.052,0 -1.662,0.727 -1.353,1.619 m 5.704,-2.115 c -0.068,0.17 -0.719,0.932 -1.447,1.691 l -2.181,2.279 c -0.728,0.76 -1.354,1.409 -1.39,1.441 -0.037,0.032 -0.152,0.095 -0.152,0.095 0,0 -0.003,0 -0.006,10e-4 -0.003,0.002 -0.012,0.005 -0.012,0.005 0,0 -0.033,0.009 -0.072,0.019 -0.04,0.009 -1.005,0.017 -2.058,0.017 l -1.969,0 -3.263,0 -3.263,0 -1.97,0 c -1.052,0 -1.946,-0.002 -1.986,-0.004 -0.04,-0.003 -0.144,-0.031 -0.144,-0.031 0,-10e-4 -10e-4,-0.002 -0.005,-0.004 -0.004,0 -0.013,-0.003 -0.014,-0.003 0,0 -0.035,-0.021 -0.078,-0.045 -0.044,-0.024 -0.735,-0.731 -1.463,-1.491 l -2.181,-2.279 c -0.728,-0.759 -1.379,-1.521 -1.446,-1.691 -0.068,-0.17 0.611,-1.249 1.259,-2.078 L -4.938,-3.74 c 0.648,-0.83 1.311,-1.614 1.472,-1.743 l 0.177,0 0.051,0 c 0.056,0.011 0.149,0.011 0.204,0 l 0.05,0 0.178,0 c 0.16,0.129 0.823,0.913 1.472,1.743 L 8.155,8.403 c 0.647,0.829 1.326,1.908 1.259,2.078"
         style="fill:#cfcccd;fill-opacity:1;fill-rule:nonzero;stroke:none"
         id="path17370"
         inkscape:connector-curvature="0" />
    </g>
  </g>
</svg>
