<?xml version="1.0" encoding="UTF-8" standalone="no"?>
<!-- Created with Inkscape (http://www.inkscape.org/) -->

<svg
   xmlns:dc="http://purl.org/dc/elements/1.1/"
   xmlns:cc="http://creativecommons.org/ns#"
   xmlns:rdf="http://www.w3.org/1999/02/22-rdf-syntax-ns#"
   xmlns:svg="http://www.w3.org/2000/svg"
   xmlns="http://www.w3.org/2000/svg"
   xmlns:sodipodi="http://sodipodi.sourceforge.net/DTD/sodipodi-0.dtd"
   xmlns:inkscape="http://www.inkscape.org/namespaces/inkscape"
   width="48px"
   height="48px"
   id="svg3210"
   version="1.1"
   inkscape:version="0.48.4 r9939"
   sodipodi:docname="diamant-pourcent.svg">
  <defs
     id="defs3212" />
  <sodipodi:namedview
     id="base"
     pagecolor="#ffffff"
     bordercolor="#666666"
     borderopacity="1.0"
     inkscape:pageopacity="0.0"
     inkscape:pageshadow="2"
     inkscape:zoom="7"
     inkscape:cx="31.173598"
     inkscape:cy="24"
     inkscape:current-layer="layer1"
     showgrid="true"
     inkscape:grid-bbox="true"
     inkscape:document-units="px"
     inkscape:window-width="605"
     inkscape:window-height="601"
     inkscape:window-x="2191"
     inkscape:window-y="274"
     inkscape:window-maximized="0" />
  <metadata
     id="metadata3215">
    <rdf:RDF>
      <cc:Work
         rdf:about="">
        <dc:format>image/svg+xml</dc:format>
        <dc:type
           rdf:resource="http://purl.org/dc/dcmitype/StillImage" />
        <dc:title />
      </cc:Work>
    </rdf:RDF>
  </metadata>
  <g
     id="layer1"
     inkscape:label="Layer 1"
     inkscape:groupmode="layer">
    <g
       id="g2986">
      <g
         style="fill:#cfcccd"
         transform="matrix(1.25,0,0,-1.25,29.777226,36.019821)"
         id="g17368">
        <path
           inkscape:connector-curvature="0"
           id="path17370"
           style="fill:#cfcccd;fill-opacity:1;fill-rule:nonzero;stroke:none"
           d="m 0,0 c -0.649,-0.83 -0.897,-0.695 -0.552,0.301 l 2.623,7.568 c 0.346,0.994 1.49,1.809 2.543,1.809 l 1.032,0 C 6.7,9.678 7.03,8.998 6.382,8.169 L 0,0 z m -2.509,-1.589 c -0.345,-0.995 -0.909,-0.995 -1.256,0 l -3.276,9.458 c -0.346,0.994 0.088,1.809 0.964,1.809 l 2.941,0 2.941,0 c 0.875,0 1.31,-0.815 0.964,-1.809 l -3.278,-9.458 z m -10.146,9.758 c -0.648,0.829 -0.318,1.509 0.736,1.509 l 1.033,0 c 1.054,0 2.198,-0.815 2.542,-1.809 L -5.72,0.301 C -5.375,-0.695 -5.624,-0.83 -6.272,0 l -6.383,8.169 z m 0.787,4.661 c 0.728,0.76 1.577,0.654 1.886,-0.234 0.308,-0.892 -0.301,-1.619 -1.354,-1.619 l -0.392,0 c -1.053,0 -1.318,0.622 -0.591,1.382 l 0.451,0.471 z m 5.012,1.901 c 1.053,0 1.279,-0.58 0.499,-1.289 L -6.93,12.918 c -0.778,-0.707 -1.657,-0.591 -1.953,0.263 -0.295,0.852 0.324,1.55 1.377,1.55 l 0.65,0 z m 6.354,-2.465 c 0.778,-0.709 0.808,-1.289 0.065,-1.289 l -2.699,0 -2.699,0 c -0.743,0 -0.714,0.58 0.065,1.289 l 1.217,1.109 c 0.779,0.709 2.054,0.709 2.832,0 l 1.219,-1.109 z m 1.735,2.465 c 1.053,0 1.673,-0.698 1.377,-1.55 -0.296,-0.854 -1.174,-0.97 -1.953,-0.262 l -0.574,0.523 c -0.778,0.709 -0.554,1.289 0.5,1.289 l 0.65,0 z M 3.71,12.596 c 0.308,0.888 1.157,0.994 1.885,0.234 l 0.45,-0.471 c 0.729,-0.76 0.464,-1.382 -0.59,-1.382 l -0.392,0 c -1.052,0 -1.662,0.727 -1.353,1.619 m 5.704,-2.115 c -0.068,0.17 -0.719,0.932 -1.447,1.691 l -2.181,2.279 c -0.728,0.76 -1.354,1.409 -1.39,1.441 -0.037,0.032 -0.152,0.095 -0.152,0.095 0,0 -0.003,0 -0.006,10e-4 -0.003,0.002 -0.012,0.005 -0.012,0.005 0,0 -0.033,0.009 -0.072,0.019 -0.04,0.009 -1.005,0.017 -2.058,0.017 l -1.969,0 -3.263,0 -3.263,0 -1.97,0 c -1.052,0 -1.946,-0.002 -1.986,-0.004 -0.04,-0.003 -0.144,-0.031 -0.144,-0.031 0,-10e-4 -10e-4,-0.002 -0.005,-0.004 -0.004,0 -0.013,-0.003 -0.014,-0.003 0,0 -0.035,-0.021 -0.078,-0.045 -0.044,-0.024 -0.735,-0.731 -1.463,-1.491 l -2.181,-2.279 c -0.728,-0.759 -1.379,-1.521 -1.446,-1.691 -0.068,-0.17 0.611,-1.249 1.259,-2.078 L -4.938,-3.74 c 0.648,-0.83 1.311,-1.614 1.472,-1.743 l 0.177,0 0.051,0 c 0.056,0.011 0.149,0.011 0.204,0 l 0.05,0 0.178,0 c 0.16,0.129 0.823,0.913 1.472,1.743 L 8.155,8.403 c 0.647,0.829 1.326,1.908 1.259,2.078" />
      </g>
      <g
         id="text3485"
         style="font-size:16.11310959000000054px;font-style:normal;font-variant:normal;font-weight:bold;font-stretch:normal;text-align:center;line-height:125%;letter-spacing:0px;word-spacing:0px;text-anchor:middle;fill:#cfcccd;fill-opacity:1;stroke:none;font-family:STIXSizeFourSym;-inkscape-font-specification:STIXSizeFourSym Bold"
         transform="scale(0.96419705,1.0371324)">
        <path
           id="path3531"
           style="fill:#cfcccd;font-family:Sans;-inkscape-font-specification:Sans Bold"
           d="m 14.484861,13.828917 c -0.372418,5e-6 -0.660901,0.162604 -0.86545,0.487799 -0.204573,0.319958 -0.306853,0.778909 -0.306842,1.376853 -1.1e-5,0.603194 0.09965,1.06739 0.298974,1.392588 0.204549,0.319955 0.495655,0.479932 0.873318,0.479931 0.377638,1e-6 0.666121,-0.159976 0.86545,-0.479931 0.199303,-0.325198 0.29896,-0.789394 0.298974,-1.392588 -1.4e-5,-0.597944 -0.102294,-1.056895 -0.306841,-1.376853 -0.199329,-0.325195 -0.48519,-0.487794 -0.857583,-0.487799 m 0,-1.321779 c 0.975585,6e-6 1.743999,0.283244 2.305245,0.849715 0.561216,0.566481 0.841831,1.345386 0.841847,2.336716 -1.6e-5,0.991335 -0.280631,1.775485 -0.841847,2.352451 -0.561246,0.571721 -1.32966,0.857582 -2.305245,0.857582 -0.97561,0 -1.746647,-0.285861 -2.313112,-0.857582 -0.561241,-0.576966 -0.841857,-1.361116 -0.841847,-2.352451 -1e-5,-0.986085 0.280606,-1.762367 0.841847,-2.328848 0.566465,-0.571716 1.337502,-0.857577 2.313112,-0.857583 m -7.2147077,6.396464 -1.7387682,0 7.3405919,-12.1871126 1.746635,0 L 7.2701533,18.903602 M 5.6572688,6.7164894 c 0.9755938,1.2e-5 1.7413854,0.2858725 2.297377,0.8575825 0.5612248,0.566487 0.8418402,1.3453915 0.841847,2.3367156 -6.8e-6,0.9913415 -0.2806222,1.7728685 -0.841847,2.3445835 -0.5559916,0.571727 -1.3217832,0.857588 -2.297377,0.857582 -0.9756011,6e-6 -1.7440152,-0.285855 -2.3052447,-0.857582 C 2.7960371,11.683656 2.5180443,10.902129 2.5180448,9.9107875 2.5180443,8.9194634 2.7960371,8.1405589 3.3520241,7.5740719 3.9132536,7.0023619 4.6816677,6.7165014 5.6572688,6.7164894 m 0,1.3217785 c -0.3776543,1.07e-5 -0.66876,0.1626102 -0.8733179,0.4877992 -0.2045636,0.3252093 -0.306844,0.7867823 -0.3068415,1.3847204 -2.5e-6,0.6032005 0.1022779,1.0700185 0.3068415,1.4004555 0.2045579,0.325207 0.4956636,0.487806 0.8733179,0.4878 0.377647,6e-6 0.6661301,-0.162593 0.8654502,-0.4878 C 6.7272753,10.980806 6.8295557,10.513988 6.8295605,9.9107875 6.8295557,9.3128494 6.7272753,8.8512764 6.522719,8.5260671 6.3181538,8.2008781 6.0296706,8.0382786 5.6572688,8.0382679" />
      </g>
    </g>
  </g>
</svg>
