<?xml version="1.0" encoding="UTF-8" standalone="no"?>
<!-- Created with Inkscape (http://www.inkscape.org/) -->

<svg
   xmlns:dc="http://purl.org/dc/elements/1.1/"
   xmlns:cc="http://creativecommons.org/ns#"
   xmlns:rdf="http://www.w3.org/1999/02/22-rdf-syntax-ns#"
   xmlns:svg="http://www.w3.org/2000/svg"
   xmlns="http://www.w3.org/2000/svg"
   xmlns:sodipodi="http://sodipodi.sourceforge.net/DTD/sodipodi-0.dtd"
   xmlns:inkscape="http://www.inkscape.org/namespaces/inkscape"
   width="48px"
   height="48px"
   id="svg28083"
   version="1.1"
   inkscape:version="0.48.4 r9943 custom"
   sodipodi:docname="diplome.svg">
  <defs
     id="defs28085" />
  <sodipodi:namedview
     id="base"
     pagecolor="#ffffff"
     bordercolor="#666666"
     borderopacity="1.0"
     inkscape:pageopacity="0.0"
     inkscape:pageshadow="2"
     inkscape:zoom="7"
     inkscape:cx="31.053876"
     inkscape:cy="24"
     inkscape:current-layer="layer1"
     showgrid="true"
     inkscape:grid-bbox="true"
     inkscape:document-units="px"
     inkscape:window-width="651"
     inkscape:window-height="653"
     inkscape:window-x="1333"
     inkscape:window-y="273"
     inkscape:window-maximized="0" />
  <metadata
     id="metadata28088">
    <rdf:RDF>
      <cc:Work
         rdf:about="">
        <dc:format>image/svg+xml</dc:format>
        <dc:type
           rdf:resource="http://purl.org/dc/dcmitype/StillImage" />
        <dc:title />
      </cc:Work>
    </rdf:RDF>
  </metadata>
  <g
     id="layer1"
     inkscape:label="Layer 1"
     inkscape:groupmode="layer">
    <g
       transform="matrix(1.25,0,0,-1.25,25.171071,17.016964)"
       id="g5293"
       style="fill:#cfcccd">
      <path
         inkscape:connector-curvature="0"
         id="path5295"
         style="fill:#cfcccd;fill-opacity:1;fill-rule:nonzero;stroke:none"
         d="m 0,0 c -5.465,0 -9.893,0.8 -9.893,1.784 0,0.987 4.428,1.787 9.893,1.787 5.463,0 9.894,-0.8 9.894,-1.787 C 9.894,0.8 5.463,0 0,0 M 17.118,1.54 0.132,5.889 -16.706,1.576 l 0.112,-1.114 6.69,-1.746 0.074,-8.253 c 1.45,-4.683 9.701,-4.795 9.701,-4.795 9.552,0.037 10.408,4.795 10.408,4.795 l 0.038,8.178 0.398,0.1 c 0.432,-1.065 0.859,-3.042 0.632,-6.589 -0.315,-4.94 -0.361,-6.412 -0.324,-7.206 -0.612,-0.096 -1.08,-0.627 -1.08,-1.265 0,-0.594 0.403,-1.091 0.949,-1.238 -0.146,-0.591 -0.635,-2.389 -1.633,-4.525 l 0.475,-0.16 c 0,0 0.594,1.329 0.721,1.8 -0.08,-0.371 -0.345,-1.631 -0.407,-1.8 l 0.475,-0.05 c 0,0 0.275,1.134 0.264,1.313 0,0 0.011,-1.263 0.069,-1.303 l 0.465,-0.037 c 0,0 -0.094,1.104 -0.008,1.351 0,0 0.209,-0.77 0.209,-1.351 l 0.456,0.009 c 0,0 -0.104,1.286 -0.219,1.58 0,0 0.409,-0.798 0.487,-1.457 l 0.39,0.059 c 0,0 -0.743,3.666 -1.024,4.585 0.52,0.165 0.898,0.65 0.898,1.224 0,0.59 -0.403,1.09 -0.947,1.237 -0.041,0.757 0,2.148 0.322,7.201 0.187,2.935 -0.028,5.204 -0.64,6.754 l 5.761,1.439 0.112,1.228 z" />
    </g>
  </g>
</svg>
