<?xml version="1.0" encoding="UTF-8" standalone="no"?>
<!-- Created with Inkscape (http://www.inkscape.org/) -->

<svg
   xmlns:dc="http://purl.org/dc/elements/1.1/"
   xmlns:cc="http://creativecommons.org/ns#"
   xmlns:rdf="http://www.w3.org/1999/02/22-rdf-syntax-ns#"
   xmlns:svg="http://www.w3.org/2000/svg"
   xmlns="http://www.w3.org/2000/svg"
   xmlns:sodipodi="http://sodipodi.sourceforge.net/DTD/sodipodi-0.dtd"
   xmlns:inkscape="http://www.inkscape.org/namespaces/inkscape"
   width="48px"
   height="48px"
   id="svg28083"
   version="1.1"
   inkscape:version="0.48.4 r9939"
   sodipodi:docname="diplome-homme-pourcent.svg">
  <defs
     id="defs28085" />
  <sodipodi:namedview
     id="base"
     pagecolor="#ffffff"
     bordercolor="#666666"
     borderopacity="1.0"
     inkscape:pageopacity="0.0"
     inkscape:pageshadow="2"
     inkscape:zoom="7"
     inkscape:cx="32.318076"
     inkscape:cy="24"
     inkscape:current-layer="layer1"
     showgrid="true"
     inkscape:grid-bbox="true"
     inkscape:document-units="px"
     inkscape:window-width="651"
     inkscape:window-height="653"
     inkscape:window-x="2370"
     inkscape:window-y="221"
     inkscape:window-maximized="0" />
  <metadata
     id="metadata28088">
    <rdf:RDF>
      <cc:Work
         rdf:about="">
        <dc:format>image/svg+xml</dc:format>
        <dc:type
           rdf:resource="http://purl.org/dc/dcmitype/StillImage" />
        <dc:title />
      </cc:Work>
    </rdf:RDF>
  </metadata>
  <g
     id="layer1"
     inkscape:label="Layer 1"
     inkscape:groupmode="layer">
    <g
       transform="matrix(1.25,0,0,-1.25,21.140479,25.453036)"
       id="g5273"
       style="fill:#cfcccd">
      <path
         style="fill:#cfcccd;fill-opacity:1;fill-rule:nonzero;stroke:none"
         d="M 16.6875 3.90625 L 10.1875 10.40625 L 12.5625 10.625 L 12.65625 11.84375 C 12.5975 11.89125 12.52875 11.98375 12.53125 12.0625 L 11 21.875 C 11.005 22.01375 13.05 22.8475 13.1875 22.84375 C 13.32625 22.83625 15.005 22.72875 15 22.59375 L 13.03125 12.03125 C 13.02875 11.95375 12.99375 11.8875 12.9375 11.84375 L 12.875 10.65625 L 17.34375 11.0625 L 17.8125 15.03125 C 17.34125 16.07125 17.0625 17.225 17.0625 18.46875 C 17.0625 21.12 18.29375 23.48 20.125 24.84375 C 19.43625 26.04 17.49 26.27875 17.46875 26.28125 L 17.375 26.3125 C 17.36125 26.3125 17.35375 26.31 17.34375 26.3125 C 16.29875 26.15375 11.17625 26.1575 9.03125 40.78125 C 8.875 42.595 10.58875 43.5 12.25 43.5 L 35.4375 43.5 C 37.10375 43.5 38.85125 42.75125 38.6875 40.78125 C 36.525 26.05375 31.3325 26.15375 30.34375 26.3125 C 30.33125 26.31125 30.31875 26.31625 30.3125 26.3125 C 29.13 26.01875 28.04125 24.70125 28.03125 24.6875 L 27.96875 24.59375 C 27.95375 24.5775 27.95375 24.5775 27.9375 24.5625 C 29.5825 23.175 30.65625 20.955 30.65625 18.46875 C 30.65625 17.71125 30.52625 17.00125 30.34375 16.3125 L 30.65625 12.09375 L 38.3125 5.78125 L 16.6875 3.90625 z M 22.15625 14.03125 C 24.634883 13.920566 27.085 14.781875 28.65625 15.5 C 29.09 16.38125 29.34375 17.39125 29.34375 18.46875 C 29.34375 21.86125 26.9 24.625 23.875 24.625 C 20.855 24.625 18.375 21.86125 18.375 18.46875 C 18.375 16.95625 18.87625 15.5725 19.6875 14.5 C 20.486875 14.202188 21.330039 14.068145 22.15625 14.03125 z M 27 25.25 C 27.57625 25.84875 28.87 27.07625 29.90625 27.375 C 29.95 27.51625 30.035 27.93 29.96875 29 C 29.9625 29.12875 29.9475 29.26875 29.9375 29.40625 C 29.01 33.07375 26.53125 38.0625 26.53125 38.0625 L 24.59375 31.53125 L 25.8125 29.5 L 24.0625 27.8125 L 23.90625 27.65625 L 23.875 27.6875 L 23.84375 27.65625 L 23.6875 27.8125 L 21.84375 29.40625 L 23.125 31.53125 L 21.1875 38.0625 C 21.1875 38.0625 17.6625 30.9925 17.4375 27.5 C 18.20125 27.355 20.1625 26.85375 21.125 25.4375 C 21.96 25.8475 22.9075 26.09375 23.875 26.09375 C 25.0025 26.09375 26.0625 25.795 27 25.25 z M 30.4375 33.90625 C 30.969822 33.906258 31.38413 34.065713 31.6875 34.4375 C 31.993726 34.80589 32.156246 35.324085 32.15625 35.96875 C 32.156246 36.613427 31.993726 37.12821 31.6875 37.5 C 31.38413 37.871799 30.969822 38.062504 30.4375 38.0625 C 29.905175 38.062504 29.493728 37.871799 29.1875 37.5 C 28.884132 37.12821 28.71875 36.613427 28.71875 35.96875 C 28.71875 35.324085 28.884132 34.80589 29.1875 34.4375 C 29.493728 34.065713 29.905175 33.906258 30.4375 33.90625 z M 34.375 33.90625 L 35.34375 33.90625 L 31.3125 41.8125 L 30.375 41.8125 L 34.375 33.90625 z M 30.4375 34.75 C 30.231438 34.750007 30.080365 34.851024 29.96875 35.0625 C 29.857132 35.273986 29.812499 35.579906 29.8125 35.96875 C 29.812499 36.361015 29.857137 36.660115 29.96875 36.875 C 30.080365 37.086484 30.231438 37.187504 30.4375 37.1875 C 30.643559 37.187504 30.797493 37.086487 30.90625 36.875 C 31.017864 36.660115 31.093747 36.361015 31.09375 35.96875 C 31.093747 35.579906 31.017863 35.273986 30.90625 35.0625 C 30.794631 34.851027 30.640697 34.750007 30.4375 34.75 z M 35.25 37.65625 C 35.782316 37.656254 36.225013 37.85037 36.53125 38.21875 C 36.837471 38.587137 36.968741 39.074081 36.96875 39.71875 C 36.968741 40.363422 36.837471 40.874796 36.53125 41.25 C 36.225013 41.621795 35.782316 41.8125 35.25 41.8125 C 34.717669 41.8125 34.309085 41.621795 34 41.25 C 33.693765 40.874796 33.531245 40.363422 33.53125 39.71875 C 33.531245 39.077491 33.693765 38.587136 34 38.21875 C 34.309085 37.846959 34.717669 37.656254 35.25 37.65625 z M 35.25 38.53125 C 35.046794 38.531253 34.892859 38.632273 34.78125 38.84375 C 34.669628 39.051821 34.624994 39.329903 34.625 39.71875 C 34.624994 40.111012 34.672492 40.413522 34.78125 40.625 C 34.89286 40.83307 35.043932 40.9375 35.25 40.9375 C 35.456054 40.9375 35.641238 40.833074 35.75 40.625 C 35.858747 40.413522 35.906243 40.111012 35.90625 39.71875 C 35.906243 39.329903 35.830354 39.051821 35.71875 38.84375 C 35.609988 38.632273 35.453192 38.531253 35.25 38.53125 z "
         transform="matrix(0.8,0,0,-0.8,-16.912383,20.362429)"
         id="path5275" />
    </g>
    <g
       transform="scale(0.91599551,1.0917084)"
       style="font-size:9.59822845px;font-style:normal;font-variant:normal;font-weight:bold;font-stretch:normal;text-align:center;line-height:125%;letter-spacing:0px;word-spacing:0px;text-anchor:middle;fill:#ffffff;fill-opacity:1;stroke:none;font-family:STIXSizeFourSym;-inkscape-font-specification:STIXSizeFourSym Bold"
       id="text3485" />
  </g>
</svg>
