<?xml version="1.0" encoding="UTF-8" standalone="no"?>
<!-- Created with Inkscape (http://www.inkscape.org/) -->

<svg
   xmlns:dc="http://purl.org/dc/elements/1.1/"
   xmlns:cc="http://creativecommons.org/ns#"
   xmlns:rdf="http://www.w3.org/1999/02/22-rdf-syntax-ns#"
   xmlns:svg="http://www.w3.org/2000/svg"
   xmlns="http://www.w3.org/2000/svg"
   xmlns:sodipodi="http://sodipodi.sourceforge.net/DTD/sodipodi-0.dtd"
   xmlns:inkscape="http://www.inkscape.org/namespaces/inkscape"
   width="48px"
   height="48px"
   id="svg28083"
   version="1.1"
   inkscape:version="0.48.4 r9943 custom"
   sodipodi:docname="diplome-femme.svg">
  <defs
     id="defs28085" />
  <sodipodi:namedview
     id="base"
     pagecolor="#ffffff"
     bordercolor="#666666"
     borderopacity="1.0"
     inkscape:pageopacity="0.0"
     inkscape:pageshadow="2"
     inkscape:zoom="7"
     inkscape:cx="15.074962"
     inkscape:cy="1.5955212"
     inkscape:current-layer="layer1"
     showgrid="true"
     inkscape:grid-bbox="true"
     inkscape:document-units="px"
     inkscape:window-width="651"
     inkscape:window-height="653"
     inkscape:window-x="1333"
     inkscape:window-y="273"
     inkscape:window-maximized="0" />
  <metadata
     id="metadata28088">
    <rdf:RDF>
      <cc:Work
         rdf:about="">
        <dc:format>image/svg+xml</dc:format>
        <dc:type
           rdf:resource="http://purl.org/dc/dcmitype/StillImage" />
        <dc:title />
      </cc:Work>
    </rdf:RDF>
  </metadata>
  <g
     id="layer1"
     inkscape:label="Layer 1"
     inkscape:groupmode="layer">
    <g
       transform="matrix(1.25,0,0,-1.25,22.004361,25.825268)"
       id="g5277"
       style="fill:#cfcccd">
      <path
         inkscape:connector-curvature="0"
         id="path5279"
         style="fill:#cfcccd;fill-opacity:1;fill-rule:nonzero;stroke:none"
         d="m 0,0 c 0.666,-0.327 1.4,-0.513 2.174,-0.513 0.902,0 1.75,0.25 2.498,0.688 0.463,-0.481 1.515,-1.472 2.344,-1.71 C 7.051,-1.648 7.115,-1.98 7.066,-2.836 7.055,-3.011 7.037,-3.201 7.02,-3.402 6.268,-6.334 4.305,-10.291 4.305,-10.291 l -4.28,0 c 0,0 -2.949,5.938 -3.004,8.656 C -2.379,-1.521 -0.781,-1.146 0,0 M 6.004,7.952 C 6.354,7.249 6.553,6.437 6.553,5.576 6.553,2.863 4.594,0.663 2.174,0.663 c -2.416,0 -4.377,2.2 -4.377,4.913 0,1.213 0.392,2.319 1.041,3.176 2.558,0.956 5.492,-0.034 7.166,-0.8 m 7.939,-19.879 0.002,0 c -0.007,0.051 -0.015,0.103 -0.023,0.156 -0.008,0.062 -0.014,0.122 -0.026,0.189 l -0.001,0.002 C 12.281,-1.102 8.777,-0.661 7.613,-0.822 7.535,-0.761 7.451,-0.708 7.35,-0.683 6.625,-0.503 5.947,0.158 5.662,0.465 l 2.561,0 c 0,0 1.98,5.493 -0.784,7.78 l 0.174,2.438 6.127,5.057 -17.316,1.485 -5.195,-5.184 1.908,-0.18 0.064,-0.987 c -0.047,-0.038 -0.08,-0.093 -0.076,-0.157 L -8.104,2.853 c 0.006,-0.11 1.637,-0.773 1.747,-0.77 0.111,0.005 1.447,0.096 1.441,0.202 l -1.561,8.447 c -0.003,0.06 -0.035,0.112 -0.082,0.146 l -0.058,0.963 3.574,-0.334 0.244,-1.998 C -3.725,8.216 -5.609,4.799 -3.58,0.465 l 2.74,0 C -1.408,-0.464 -2.932,-0.67 -2.947,-0.671 L -3.014,-0.68 c -0.074,-0.01 -0.14,-0.046 -0.189,-0.104 L -3.225,-0.81 c -1.101,0.255 -4.718,0.194 -6.332,-10.77 l -0.004,-0.002 c -0.361,-1.659 1.122,-2.494 2.538,-2.494 l 18.546,0 c 1.323,0 2.545,0.6 2.42,2.149" />
    </g>
  </g>
</svg>
