<?xml version="1.0" encoding="UTF-8" standalone="no"?>
<!-- Created with Inkscape (http://www.inkscape.org/) -->

<svg
   xmlns:dc="http://purl.org/dc/elements/1.1/"
   xmlns:cc="http://creativecommons.org/ns#"
   xmlns:rdf="http://www.w3.org/1999/02/22-rdf-syntax-ns#"
   xmlns:svg="http://www.w3.org/2000/svg"
   xmlns="http://www.w3.org/2000/svg"
   xmlns:sodipodi="http://sodipodi.sourceforge.net/DTD/sodipodi-0.dtd"
   xmlns:inkscape="http://www.inkscape.org/namespaces/inkscape"
   width="48px"
   height="48px"
   id="svg28083"
   version="1.1"
   inkscape:version="0.48.4 r9939"
   sodipodi:docname="diplome-homme-femme-pourcent.svg">
  <defs
     id="defs28085" />
  <sodipodi:namedview
     id="base"
     pagecolor="#ffffff"
     bordercolor="#666666"
     borderopacity="1.0"
     inkscape:pageopacity="0.0"
     inkscape:pageshadow="2"
     inkscape:zoom="3.5"
     inkscape:cx="2.6527557"
     inkscape:cy="16.100608"
     inkscape:current-layer="layer1"
     showgrid="true"
     inkscape:grid-bbox="true"
     inkscape:document-units="px"
     inkscape:window-width="960"
     inkscape:window-height="998"
     inkscape:window-x="2240"
     inkscape:window-y="24"
     inkscape:window-maximized="0" />
  <metadata
     id="metadata28088">
    <rdf:RDF>
      <cc:Work
         rdf:about="">
        <dc:format>image/svg+xml</dc:format>
        <dc:type
           rdf:resource="http://purl.org/dc/dcmitype/StillImage" />
        <dc:title />
      </cc:Work>
    </rdf:RDF>
  </metadata>
  <g
     id="layer1"
     inkscape:label="Layer 1"
     inkscape:groupmode="layer">
    <g
       transform="matrix(1.0284662,0,0,-1.0379922,10.992287,28.515276)"
       id="g5273"
       style="fill:#cfcccd">
      <path
         style="fill:#cfcccd;fill-opacity:1;fill-rule:nonzero;stroke:none"
         d="M 7.3125 10.625 L 1.96875 16.03125 L 3.9375 16.21875 L 4 17.21875 C 3.9516621 17.258194 3.9041931 17.340856 3.90625 17.40625 L 2.65625 25.5625 C 2.6603639 25.677717 4.3556187 26.346864 4.46875 26.34375 C 4.5829097 26.337522 5.9416139 26.268353 5.9375 26.15625 L 4.34375 17.375 C 4.3416931 17.310644 4.296281 17.25508 4.25 17.21875 L 4.1875 16.21875 L 7.875 16.5625 L 8.25 19.84375 C 7.8622682 20.70736 7.65625 21.685948 7.65625 22.71875 C 7.65625 24.920331 8.649547 26.867551 10.15625 28 C 9.5895651 28.993359 7.9862339 29.216674 7.96875 29.21875 L 7.90625 29.21875 C 7.8949369 29.21875 7.8832277 29.216674 7.875 29.21875 C 7.0152023 29.086925 2.796098 29.106529 1.03125 41.25 C 0.90269173 42.756127 2.3206684 43.5 3.6875 43.5 L 22.75 43.5 C 23.341928 43.5 23.953256 43.390159 24.4375 43.125 C 24.873945 43.328516 25.375439 43.4375 25.875 43.4375 L 44.9375 43.4375 C 46.298161 43.4375 47.566058 42.8266 47.4375 41.21875 C 47.430301 41.165812 47.414478 41.086264 47.40625 41.03125 C 47.398022 40.966894 47.387342 40.913295 47.375 40.84375 C 45.715056 29.967668 42.134635 29.520383 40.9375 29.6875 C 40.85728 29.624182 40.760125 29.5572 40.65625 29.53125 C 39.910612 29.344411 39.199363 28.662414 38.90625 28.34375 L 41.5625 28.34375 C 41.5625 28.34375 43.592681 22.655138 40.75 20.28125 L 40.9375 17.75 L 47.21875 12.5 L 29.40625 10.9375 L 24.0625 16.3125 L 26.03125 16.5 L 26.09375 17.53125 C 26.045412 17.570694 26.027136 17.621068 26.03125 17.6875 L 24.75 25.875 C 24.756171 25.989179 26.449369 26.659364 26.5625 26.65625 C 26.67666 26.65106 28.037421 26.547527 28.03125 26.4375 L 26.4375 17.6875 C 26.434415 17.62522 26.392088 17.566542 26.34375 17.53125 L 26.28125 16.53125 L 29.96875 16.875 L 30.21875 18.96875 C 29.26639 20.310874 27.319492 23.845092 29.40625 28.34375 L 32.21875 28.34375 C 31.634581 29.308045 30.077927 29.530212 30.0625 29.53125 L 30 29.53125 C 29.923894 29.54163 29.862895 29.564796 29.8125 29.625 L 29.78125 29.65625 C 28.846655 29.437786 26.128174 29.467762 24.28125 35.875 C 22.244792 29.077269 19.232179 29.110233 18.5625 29.21875 C 17.589571 28.974822 16.695728 27.886418 16.6875 27.875 L 16.625 27.8125 C 16.612658 27.799006 16.60712 27.793706 16.59375 27.78125 C 17.947212 26.629079 18.8125 24.783316 18.8125 22.71875 C 18.8125 22.089727 18.712656 21.478184 18.5625 20.90625 L 18.8125 17.4375 L 25.125 12.1875 L 7.3125 10.625 z M 11.8125 19.03125 C 13.851852 18.939339 15.863468 19.653673 17.15625 20.25 C 17.513128 20.981785 17.71875 21.824001 17.71875 22.71875 C 17.71875 25.535861 15.707638 27.8125 13.21875 27.8125 C 10.733976 27.8125 8.71875 25.535861 8.71875 22.71875 C 8.71875 21.462779 9.1450254 20.328097 9.8125 19.4375 C 10.470204 19.190198 11.132716 19.061887 11.8125 19.03125 z M 33.90625 19.34375 C 35.945506 19.251401 37.990011 19.966173 39.28125 20.5625 C 39.641213 21.292209 39.84375 22.137539 39.84375 23.03125 C 39.84375 25.847323 37.832638 28.125 35.34375 28.125 C 32.858976 28.125 30.84375 25.847323 30.84375 23.03125 C 30.84375 21.772165 31.238775 20.639559 31.90625 19.75 C 32.563954 19.50192 33.226498 19.374533 33.90625 19.34375 z M 15.8125 28.34375 C 16.286623 28.840948 17.366152 29.84567 18.21875 30.09375 C 18.254746 30.211043 18.304509 30.580229 18.25 31.46875 C 18.244858 31.575663 18.258228 31.667071 18.25 31.78125 C 17.486878 34.826719 15.4375 39 15.4375 39 L 13.8125 33.5625 L 14.84375 31.875 L 13.375 30.46875 L 13.25 30.34375 L 13.21875 30.375 L 13.09375 30.46875 L 11.5625 31.8125 L 12.625 33.5625 L 11.03125 39 C 11.03125 39 8.1226239 33.1189 7.9375 30.21875 C 8.5658928 30.098343 10.208081 29.676045 11 28.5 C 11.687015 28.840461 12.422717 29.0625 13.21875 29.0625 C 14.146427 29.0625 15.04115 28.796315 15.8125 28.34375 z M 37.90625 28.65625 C 38.38243 29.155524 39.459902 30.159208 40.3125 30.40625 C 40.348496 30.523543 40.425395 30.892729 40.375 31.78125 C 40.363687 31.962899 40.329984 32.135114 40.3125 32.34375 C 39.539093 35.387143 37.53125 39.5 37.53125 39.5 L 33.125 39.5 C 33.125 39.5 30.087816 33.352513 30.03125 30.53125 C 30.64833 30.412919 32.290518 30.002039 33.09375 28.8125 C 33.778708 29.151923 34.547717 29.34375 35.34375 29.34375 C 36.271427 29.34375 37.136957 29.110891 37.90625 28.65625 z M 21.71875 34.96875 C 22.251072 34.968758 22.69663 35.159463 23 35.53125 C 23.306226 35.89964 23.437496 36.386584 23.4375 37.03125 C 23.437496 37.675926 23.306226 38.19071 23 38.5625 C 22.69663 38.934298 22.251072 39.125003 21.71875 39.125 C 21.186425 39.125003 20.774978 38.934298 20.46875 38.5625 C 20.165382 38.19071 20.031249 37.675926 20.03125 37.03125 C 20.031249 36.386584 20.165382 35.89964 20.46875 35.53125 C 20.774978 35.159463 21.186425 34.968758 21.71875 34.96875 z M 25.65625 34.96875 L 26.625 34.96875 L 22.625 42.90625 L 21.65625 42.90625 L 25.65625 34.96875 z M 21.71875 35.8125 C 21.512688 35.812508 21.361615 35.944773 21.25 36.15625 C 21.138382 36.367736 21.093748 36.642406 21.09375 37.03125 C 21.093748 37.423515 21.138379 37.753864 21.25 37.96875 C 21.361615 38.180234 21.512688 38.281254 21.71875 38.28125 C 21.924809 38.281254 22.109993 38.180237 22.21875 37.96875 C 22.330363 37.753864 22.374997 37.423515 22.375 37.03125 C 22.374997 36.642406 22.330363 36.367736 22.21875 36.15625 C 22.107131 35.944777 21.921947 35.812508 21.71875 35.8125 z M 26.5625 38.71875 C 27.094817 38.718754 27.506263 38.912869 27.8125 39.28125 C 28.118722 39.649636 28.281242 40.167832 28.28125 40.8125 C 28.281242 41.457172 28.118722 41.968545 27.8125 42.34375 C 27.506263 42.715544 27.094817 42.90625 26.5625 42.90625 C 26.03017 42.90625 25.590335 42.715544 25.28125 42.34375 C 24.975015 41.968545 24.812495 41.457172 24.8125 40.8125 C 24.812495 40.171242 24.975015 39.649637 25.28125 39.28125 C 25.590335 38.90946 26.03017 38.718754 26.5625 38.71875 z M 26.5625 39.59375 C 26.359295 39.593753 26.174109 39.694774 26.0625 39.90625 C 25.950877 40.114321 25.906244 40.423653 25.90625 40.8125 C 25.906244 41.204762 25.953742 41.507272 26.0625 41.71875 C 26.174109 41.926819 26.356433 42.031251 26.5625 42.03125 C 26.768554 42.031251 26.922488 41.926823 27.03125 41.71875 C 27.139997 41.507272 27.187493 41.204762 27.1875 40.8125 C 27.187493 40.423653 27.142862 40.114321 27.03125 39.90625 C 26.922488 39.694774 26.765693 39.593753 26.5625 39.59375 z "
         transform="matrix(0.9723217,0,0,-0.96339838,-10.688039,27.471571)"
         id="path5275" />
    </g>
    <g
       transform="matrix(1.0284662,0,0,-1.0379922,33.095163,28.824375)"
       id="g5277"
       style="fill:#cfcccd" />
    <g
       transform="scale(0.9159955,1.0917084)"
       style="font-size:9.59822845px;font-style:normal;font-variant:normal;font-weight:bold;font-stretch:normal;text-align:center;line-height:125%;letter-spacing:0px;word-spacing:0px;text-anchor:middle;fill:#ffffff;fill-opacity:1;stroke:none;font-family:STIXSizeFourSym;-inkscape-font-specification:STIXSizeFourSym Bold"
       id="text3485" />
  </g>
</svg>
