<?xml version="1.0" encoding="UTF-8" standalone="no"?>
<!-- Created with Inkscape (http://www.inkscape.org/) -->

<svg
   xmlns:dc="http://purl.org/dc/elements/1.1/"
   xmlns:cc="http://creativecommons.org/ns#"
   xmlns:rdf="http://www.w3.org/1999/02/22-rdf-syntax-ns#"
   xmlns:svg="http://www.w3.org/2000/svg"
   xmlns="http://www.w3.org/2000/svg"
   xmlns:sodipodi="http://sodipodi.sourceforge.net/DTD/sodipodi-0.dtd"
   xmlns:inkscape="http://www.inkscape.org/namespaces/inkscape"
   width="48px"
   height="48px"
   id="svg28083"
   version="1.1"
   inkscape:version="0.48.4 r9943 custom"
   sodipodi:docname="diplome-homme.svg">
  <defs
     id="defs28085" />
  <sodipodi:namedview
     id="base"
     pagecolor="#ffffff"
     bordercolor="#666666"
     borderopacity="1.0"
     inkscape:pageopacity="0.0"
     inkscape:pageshadow="2"
     inkscape:zoom="7"
     inkscape:cx="32.318076"
     inkscape:cy="24"
     inkscape:current-layer="layer1"
     showgrid="true"
     inkscape:grid-bbox="true"
     inkscape:document-units="px"
     inkscape:window-width="651"
     inkscape:window-height="653"
     inkscape:window-x="1333"
     inkscape:window-y="273"
     inkscape:window-maximized="0" />
  <metadata
     id="metadata28088">
    <rdf:RDF>
      <cc:Work
         rdf:about="">
        <dc:format>image/svg+xml</dc:format>
        <dc:type
           rdf:resource="http://purl.org/dc/dcmitype/StillImage" />
        <dc:title></dc:title>
      </cc:Work>
    </rdf:RDF>
  </metadata>
  <g
     id="layer1"
     inkscape:label="Layer 1"
     inkscape:groupmode="layer">
    <g
       transform="matrix(1.25,0,0,-1.25,21.140479,25.453036)"
       id="g5273">
      <path
         inkscape:connector-curvature="0"
         id="path5275"
         style="fill:#cfcccd;fill-opacity:1;fill-rule:nonzero;stroke:none"
         d="m 0,0 c 0.668,-0.328 1.402,-0.513 2.176,-0.513 0.902,0 1.75,0.251 2.5,0.687 0.461,-0.479 1.513,-1.47 2.342,-1.709 0.035,-0.113 0.099,-0.444 0.046,-1.3 C 7.059,-2.938 7.053,-3.043 7.045,-3.153 6.303,-6.087 4.316,-10.093 4.316,-10.093 L 2.754,-4.851 3.73,-3.233 2.33,-1.881 2.209,-1.769 2.18,-1.787 2.154,-1.769 2.033,-1.881 0.551,-3.164 1.598,-4.851 0.035,-10.093 c 0,0 -2.812,5.668 -2.992,8.462 C -2.346,-1.515 -0.77,-1.133 0,0 m -2.201,5.577 c 0,1.21 0.392,2.318 1.041,3.176 2.558,0.953 5.492,-0.034 7.168,-0.8 0.347,-0.705 0.545,-1.514 0.545,-2.376 0,-2.714 -1.957,-4.913 -4.377,-4.913 -2.416,0 -4.377,2.199 -4.377,4.913 m 16.236,-17.838 0.008,0 C 12.313,-0.479 8.162,-0.563 7.371,-0.69 7.361,-0.689 7.355,-0.685 7.35,-0.682 6.404,-0.447 5.531,0.612 5.523,0.623 L 5.475,0.685 C 5.463,0.698 5.447,0.704 5.434,0.716 c 1.316,1.11 2.17,2.872 2.17,4.861 0,0.606 -0.083,1.191 -0.229,1.742 l 0.24,3.364 6.129,5.057 -17.318,1.486 -5.197,-5.185 1.912,-0.18 0.062,-0.986 C -6.844,10.837 -6.877,10.78 -6.875,10.717 L -8.102,2.854 c 0.004,-0.111 1.637,-0.774 1.747,-0.771 0.111,0.006 1.445,0.096 1.441,0.204 l -1.563,8.443 c -0.002,0.062 -0.033,0.114 -0.078,0.149 l -0.058,0.962 3.57,-0.334 0.389,-3.164 C -3.031,7.511 -3.25,6.572 -3.25,5.577 -3.25,3.456 -2.281,1.59 -0.816,0.499 -1.367,-0.458 -2.928,-0.67 -2.945,-0.672 l -0.067,-0.009 c -0.011,0 -0.017,-0.006 -0.025,-0.008 -0.836,0.127 -4.938,0.127 -6.654,-11.572 l 0.002,0 c -0.125,-1.451 1.255,-2.183 2.584,-2.183 l 18.543,0 c 1.333,0 2.728,0.607 2.597,2.183" />
    </g>
    <text
       xml:space="preserve"
       style="font-size:9.59822845px;font-style:normal;font-variant:normal;font-weight:bold;font-stretch:normal;text-align:center;line-height:125%;letter-spacing:0px;word-spacing:0px;text-anchor:middle;fill:#ffffff;fill-opacity:1;stroke:none;font-family:STIXSizeFourSym;-inkscape-font-specification:STIXSizeFourSym Bold"
       x="35.868073"
       y="38.17086"
       id="text3485"
       sodipodi:linespacing="125%"
       transform="scale(0.91599551,1.0917084)"><tspan
         sodipodi:role="line"
         id="tspan3487"
         x="35.868073"
         y="38.17086"
         style="font-style:normal;font-variant:normal;font-weight:bold;font-stretch:normal;fill:#ffffff;font-family:Sans;-inkscape-font-specification:Sans Bold">%</tspan></text>
  </g>
</svg>
