<?xml version="1.0" encoding="UTF-8" standalone="no"?>
<!-- Created with Inkscape (http://www.inkscape.org/) -->

<svg
   xmlns:dc="http://purl.org/dc/elements/1.1/"
   xmlns:cc="http://creativecommons.org/ns#"
   xmlns:rdf="http://www.w3.org/1999/02/22-rdf-syntax-ns#"
   xmlns:svg="http://www.w3.org/2000/svg"
   xmlns="http://www.w3.org/2000/svg"
   xmlns:sodipodi="http://sodipodi.sourceforge.net/DTD/sodipodi-0.dtd"
   xmlns:inkscape="http://www.inkscape.org/namespaces/inkscape"
   width="48px"
   height="48px"
   id="svg28083"
   version="1.1"
   inkscape:version="0.48.4 r9943 custom"
   sodipodi:docname="outils.svg">
  <defs
     id="defs28085" />
  <sodipodi:namedview
     id="base"
     pagecolor="#ffffff"
     bordercolor="#666666"
     borderopacity="1.0"
     inkscape:pageopacity="0.0"
     inkscape:pageshadow="2"
     inkscape:zoom="7"
     inkscape:cx="32.318076"
     inkscape:cy="24"
     inkscape:current-layer="layer1"
     showgrid="true"
     inkscape:grid-bbox="true"
     inkscape:document-units="px"
     inkscape:window-width="651"
     inkscape:window-height="653"
     inkscape:window-x="1333"
     inkscape:window-y="295"
     inkscape:window-maximized="0" />
  <metadata
     id="metadata28088">
    <rdf:RDF>
      <cc:Work
         rdf:about="">
        <dc:format>image/svg+xml</dc:format>
        <dc:type
           rdf:resource="http://purl.org/dc/dcmitype/StillImage" />
        <dc:title></dc:title>
      </cc:Work>
    </rdf:RDF>
  </metadata>
  <g
     id="layer1"
     inkscape:label="Layer 1"
     inkscape:groupmode="layer">
    <g
       transform="matrix(1.25,0,0,-1.25,34.690536,21.311607)"
       id="g14529">
      <path
         inkscape:connector-curvature="0"
         id="path14531"
         style="fill:#cfcccd;fill-opacity:1;fill-rule:nonzero;stroke:none"
         d="m 0,0 c -0.836,0 -1.516,0.68 -1.516,1.518 0,0.839 0.68,1.519 1.516,1.519 0.838,0 1.518,-0.68 1.518,-1.519 C 1.518,0.68 0.838,0 0,0 m -5.514,0 c -0.836,0 -1.515,0.68 -1.515,1.518 0,0.839 0.679,1.519 1.515,1.519 0.842,0 1.522,-0.68 1.522,-1.519 C -3.992,0.68 -4.672,0 -5.514,0 m -1.677,-9.597 -4.493,0 -0.17,-0.225 c -1.164,-1.53 -3.343,-3.958 -5.9,-4.7 0.783,1.144 1.774,2.93 1.604,4.419 l -0.059,0.506 -3.391,0 c -1.744,0 -3.166,1.421 -3.166,3.168 l 0,8.657 c 0,1.747 1.422,3.168 3.166,3.168 l 3.006,0 0,-8.897 c 0,-2.217 1.793,-4.012 4.012,-4.012 l 4.518,0 c 0.443,-0.583 1.017,-1.277 1.691,-1.972 -0.26,-0.07 -0.535,-0.112 -0.818,-0.112 m -3.836,12.634 c 0.839,0 1.519,-0.68 1.519,-1.519 0,-0.838 -0.68,-1.518 -1.519,-1.518 -0.834,0 -1.516,0.68 -1.516,1.518 0,0.839 0.682,1.519 1.516,1.519 m 11.761,6.764 -13.316,0 c -1.961,0 -3.588,-1.405 -3.939,-3.263 l -3.079,0 c -2.375,0 -4.306,-1.934 -4.306,-4.31 l 0,-8.657 c 0,-2.377 1.931,-4.309 4.306,-4.309 l 2.311,0 c -0.166,-1.516 -1.604,-3.498 -2.207,-4.202 l -0.852,-0.991 1.305,0.047 c 3.453,0.126 6.383,3.178 7.924,5.146 l 3.928,0 c 0.619,0 1.207,0.134 1.738,0.369 1.557,-1.388 3.496,-2.59 5.613,-2.667 0,0 -2.781,3.23 -2.519,5.523 l 3.093,0 c 2.215,0 4.01,1.795 4.01,4.012 l 0,9.291 c 0,2.217 -1.795,4.011 -4.01,4.011" />
    </g>
  </g>
</svg>
