<?xml version="1.0" encoding="UTF-8" standalone="no"?>
<!-- Created with Inkscape (http://www.inkscape.org/) -->

<svg
   xmlns:dc="http://purl.org/dc/elements/1.1/"
   xmlns:cc="http://creativecommons.org/ns#"
   xmlns:rdf="http://www.w3.org/1999/02/22-rdf-syntax-ns#"
   xmlns:svg="http://www.w3.org/2000/svg"
   xmlns="http://www.w3.org/2000/svg"
   xmlns:sodipodi="http://sodipodi.sourceforge.net/DTD/sodipodi-0.dtd"
   xmlns:inkscape="http://www.inkscape.org/namespaces/inkscape"
   width="48px"
   height="48px"
   id="svg28083"
   version="1.1"
   inkscape:version="0.48.4 r9943 custom"
   sodipodi:docname="parking-couvert.svg">
  <defs
     id="defs28085">
    <clipPath
       clipPathUnits="userSpaceOnUse"
       id="clipPath4901">
      <path
         inkscape:connector-curvature="0"
         d="m 315.748,1648.19 0.773,0 0,-0.63 -0.773,0 0,0.63 z"
         id="path4903" />
    </clipPath>
    <clipPath
       clipPathUnits="userSpaceOnUse"
       id="clipPath4905">
      <path
         inkscape:connector-curvature="0"
         d="m 315.759,1648.18 0.762,0 0,-0.62 -0.762,0 0,0.62 z"
         id="path4907" />
    </clipPath>
    <clipPath
       clipPathUnits="userSpaceOnUse"
       id="clipPath4909">
      <path
         inkscape:connector-curvature="0"
         d="m 315.748,1648.19 0.011,0 0,-0.01 -0.011,0 0,0.01 z"
         id="path4911" />
    </clipPath>
    <clipPath
       clipPathUnits="userSpaceOnUse"
       id="clipPath4857">
      <path
         inkscape:connector-curvature="0"
         d="m 327.146,1644.07 0.45,0 0,-0.02 -0.45,0 0,0.02 z"
         id="path4859" />
    </clipPath>
    <clipPath
       clipPathUnits="userSpaceOnUse"
       id="clipPath4861">
      <path
         inkscape:connector-curvature="0"
         d="m 327.146,1644.07 0.446,0 0,-0.02 -0.446,0 0,0.02 z"
         id="path4863" />
    </clipPath>
    <clipPath
       clipPathUnits="userSpaceOnUse"
       id="clipPath4865">
      <path
         inkscape:connector-curvature="0"
         d="m 327.592,1644.05 0.004,0 0,0 -0.004,0 z"
         id="path4867" />
    </clipPath>
  </defs>
  <sodipodi:namedview
     id="base"
     pagecolor="#ffffff"
     bordercolor="#666666"
     borderopacity="1.0"
     inkscape:pageopacity="0.0"
     inkscape:pageshadow="2"
     inkscape:zoom="7"
     inkscape:cx="26.60379"
     inkscape:cy="15.274454"
     inkscape:current-layer="layer1"
     showgrid="true"
     inkscape:grid-bbox="true"
     inkscape:document-units="px"
     inkscape:window-width="651"
     inkscape:window-height="653"
     inkscape:window-x="1333"
     inkscape:window-y="295"
     inkscape:window-maximized="0" />
  <metadata
     id="metadata28088">
    <rdf:RDF>
      <cc:Work
         rdf:about="">
        <dc:format>image/svg+xml</dc:format>
        <dc:type
           rdf:resource="http://purl.org/dc/dcmitype/StillImage" />
        <dc:title></dc:title>
      </cc:Work>
    </rdf:RDF>
  </metadata>
  <g
     id="layer1"
     inkscape:label="Layer 1"
     inkscape:groupmode="layer">
    <g
       transform="matrix(1.0012804,0,0,-1.0012804,26.57285,21.283091)"
       id="g10255">
      <path
         inkscape:connector-curvature="0"
         id="path10257"
         style="fill:#cfcccd;fill-opacity:1;fill-rule:nonzero;stroke:none"
         d="M 0,0 -9.779,8.955 -9.449,9.313 0.33,0.359 0,0 z" />
    </g>
    <g
       transform="matrix(1.0012804,0,0,-1.0012804,20.999323,21.349576)"
       id="g10259">
      <path
         inkscape:connector-curvature="0"
         id="path10261"
         style="fill:#cfcccd;fill-opacity:1;fill-rule:nonzero;stroke:none"
         d="M 0,0 -5.537,8.248 -5.133,8.521 0.404,0.273 0,0 z" />
    </g>
    <g
       transform="matrix(1.0012804,0,0,-1.0012804,16.722333,21.40725)"
       id="g10263">
      <path
         inkscape:connector-curvature="0"
         id="path10265"
         style="fill:#cfcccd;fill-opacity:1;fill-rule:nonzero;stroke:none"
         d="M 0,0 -2.592,7.776 -2.129,7.93 0.463,0.154 0,0 z" />
    </g>
    <g
       transform="matrix(1.0012804,0,0,-1.0012804,41.813019,22.876889)"
       id="g10267">
      <path
         inkscape:connector-curvature="0"
         id="path10269"
         style="fill:#cfcccd;fill-opacity:1;fill-rule:nonzero;stroke:none"
         d="m 0,0 -31.141,0 0,11.09 -0.002,0.039 c 0,0 0.006,0.591 0.336,0.931 0.075,0.076 0.297,0.305 0.95,0.305 0.246,0 0.765,-0.069 0.925,-0.608 l -0.045,-0.032 c -0.507,-0.352 -0.634,-1.049 -0.283,-1.557 0.352,-0.508 1.047,-0.636 1.557,-0.283 l 1.842,1.271 c 0.507,0.352 0.634,1.05 0.283,1.558 -0.346,0.5 -1.024,0.629 -1.529,0.3 -0.623,1.084 -1.844,1.515 -2.75,1.515 -1.305,0 -2.088,-0.527 -2.518,-0.967 -0.926,-0.958 -0.949,-2.244 -0.943,-2.487 l 0,-11.075 -2.243,0 c -0.625,0 -1.132,-0.504 -1.132,-1.125 0,-0.622 0.507,-1.126 1.132,-1.126 l 0.627,0 C -35,-2.402 -35.045,-2.559 -35.045,-2.729 l 1.783,-8.132 c 0.518,-1.583 1.803,-2.766 3.84,-3.253 -0.322,-0.24 -0.531,-0.623 -0.531,-1.054 0,-0.728 0.594,-1.319 1.328,-1.319 0.73,0 1.326,0.591 1.326,1.319 0,0.31 -0.107,0.593 -0.287,0.818 0.135,-0.004 0.268,-0.009 0.408,-0.009 l 17.69,0 c -0.174,-0.225 -0.28,-0.504 -0.28,-0.809 0,-0.728 0.596,-1.319 1.329,-1.319 0.732,0 1.328,0.591 1.328,1.319 0,0.361 -0.149,0.689 -0.387,0.928 3.297,0.735 4.066,2.477 4.65,4.076 l 2.059,7.506 c 0,0.142 -0.029,0.277 -0.072,0.407 l 0.861,0 c 0.625,0 1.133,0.504 1.133,1.126 C 1.133,-0.504 0.625,0 0,0" />
    </g>
  </g>
</svg>
