<?xml version="1.0" encoding="UTF-8" standalone="no"?>
<!-- Created with Inkscape (http://www.inkscape.org/) -->

<svg
   xmlns:dc="http://purl.org/dc/elements/1.1/"
   xmlns:cc="http://creativecommons.org/ns#"
   xmlns:rdf="http://www.w3.org/1999/02/22-rdf-syntax-ns#"
   xmlns:svg="http://www.w3.org/2000/svg"
   xmlns="http://www.w3.org/2000/svg"
   xmlns:sodipodi="http://sodipodi.sourceforge.net/DTD/sodipodi-0.dtd"
   xmlns:inkscape="http://www.inkscape.org/namespaces/inkscape"
   version="1.1"
   width="48"
   height="48"
   id="svg28083"
   inkscape:version="0.48.4 r9939"
   sodipodi:docname="ecole-primaire.svg">
  <sodipodi:namedview
     pagecolor="#ffffff"
     bordercolor="#666666"
     borderopacity="1"
     objecttolerance="10"
     gridtolerance="10"
     guidetolerance="10"
     inkscape:pageopacity="0"
     inkscape:pageshadow="2"
     inkscape:window-width="1855"
     inkscape:window-height="1056"
     id="namedview44"
     showgrid="false"
     inkscape:zoom="4.9166667"
     inkscape:cx="33.627933"
     inkscape:cy="4.4765787"
     inkscape:window-x="65"
     inkscape:window-y="24"
     inkscape:window-maximized="1"
     inkscape:current-layer="svg28083" />
  <defs
     id="defs28085">
    <clipPath
       id="clipPath4901">
      <path
         d="m 315.748,1648.19 0.773,0 0,-0.63 -0.773,0 0,0.63 z"
         id="path4903" />
    </clipPath>
    <clipPath
       id="clipPath4905">
      <path
         d="m 315.759,1648.18 0.762,0 0,-0.62 -0.762,0 0,0.62 z"
         id="path4907" />
    </clipPath>
    <clipPath
       id="clipPath4909">
      <path
         d="m 315.748,1648.19 0.011,0 0,-0.01 -0.011,0 0,0.01 z"
         id="path4911" />
    </clipPath>
    <clipPath
       id="clipPath4857">
      <path
         d="m 327.146,1644.07 0.45,0 0,-0.02 -0.45,0 0,0.02 z"
         id="path4859" />
    </clipPath>
    <clipPath
       id="clipPath4861">
      <path
         d="m 327.146,1644.07 0.446,0 0,-0.02 -0.446,0 0,0.02 z"
         id="path4863" />
    </clipPath>
    <clipPath
       id="clipPath4865">
      <path
         d="m 327.592,1644.05 0.004,0 0,0 -0.004,0 z"
         id="path4867" />
    </clipPath>
  </defs>
  <metadata
     id="metadata28088">
    <rdf:RDF>
      <cc:Work
         rdf:about="">
        <dc:format>image/svg+xml</dc:format>
        <dc:type
           rdf:resource="http://purl.org/dc/dcmitype/StillImage" />
        <dc:title />
      </cc:Work>
    </rdf:RDF>
  </metadata>
  <g
     id="g3025">
    <g
       transform="matrix(0.91273423,0,0,0.91273423,5.32034,3.2458079)"
       id="g3065">
      <g
         id="g12430"
         transform="matrix(0.99334833,0,0,-0.99334833,17.734137,28.550247)">
        <path
           inkscape:connector-curvature="0"
           d="M 0,0 C 1.444,0 2.617,1.171 2.617,2.616 2.617,4.062 1.444,5.233 0,5.233 -1.444,5.233 -2.616,4.062 -2.616,2.616 -2.616,1.171 -1.444,0 0,0"
           style="fill:#cfcccd;fill-opacity:1;fill-rule:nonzero;stroke:none"
           id="path12432" />
      </g>
      <g
         id="g12434"
         transform="matrix(0.99334833,0,0,-0.99334833,25.397716,34.603473)">
        <path
           inkscape:connector-curvature="0"
           d="m 0,0 c 0,0 -0.093,0.417 -0.293,1.454 -0.504,2.658 -7.473,4.039 -7.473,4.039 l -7.323,-4.107 c 0,0 -0.945,-0.561 -0.556,-1.143 0.388,-0.583 1.406,-0.237 1.406,-0.237 l 4.051,1.335 C -10.33,1.308 -12.78,-3.62 -12.78,-3.62 l 1.362,-0.039 c -0.408,-0.564 -0.71,-1.25 -0.912,-1.632 -0.363,-0.697 -0.611,-2.42 -1.159,-4.687 0,0 -0.323,-1.271 0.511,-1.534 1.116,-0.353 1.447,0.44 1.447,0.44 l 1.397,4.983 2.266,2.332 0.516,-0.016 3.941,-6.705 c 0,0 0.701,-1.363 1.732,-0.765 0.892,0.52 0.258,1.699 0.258,1.699 l -2.362,5.674 1.387,-0.041 -1.948,6.263 2.165,-0.79 c 0,0 0.298,-0.737 0.492,-1.502 0.192,-0.757 0.502,-1.088 1.052,-0.997 C 0.161,-0.802 0,0 0,0"
           style="fill:#cfcccd;fill-opacity:1;fill-rule:nonzero;stroke:none"
           id="path12436" />
      </g>
      <g
         id="g12438"
         transform="matrix(0.99334833,0,0,-0.99334833,34.407688,23.517547)">
        <path
           inkscape:connector-curvature="0"
           d="m 0,0 c 0,1.532 -1.243,2.777 -2.778,2.777 -1.535,0 -2.78,-1.245 -2.78,-2.777 0,-1.538 1.245,-2.781 2.78,-2.781 C -1.243,-2.781 0,-1.538 0,0"
           style="fill:#cfcccd;fill-opacity:1;fill-rule:nonzero;stroke:none"
           id="path12440" />
      </g>
      <g
         id="g12442"
         transform="matrix(0.99334833,0,0,-0.99334833,35.20843,30.233297)">
        <path
           inkscape:connector-curvature="0"
           d="m 0,0 0.795,-4.561 3.132,-9.212 c 0,0 0.677,-1.256 -0.273,-1.807 -1.095,-0.635 -1.839,0.813 -1.839,0.813 l -5.209,8.596 -3.251,-2.964 -2.034,-6.002 c 0,0 -0.351,-0.842 -1.537,-0.466 -0.885,0.28 -0.544,1.631 -0.544,1.631 0,0 1.347,6.575 1.759,6.884 0.414,0.311 3.044,2.963 3.044,2.963 l -0.255,3.055 -4.305,-1.422 c 0,0 -1.083,-0.365 -1.496,0.253 -0.411,0.619 0.592,1.215 0.592,1.215 l 7.782,4.366 c 0,0 7.406,-1.467 7.945,-4.292 0.209,-1.109 0.311,-1.548 0.311,-1.548 0,0 0.168,-0.856 -0.677,-0.996 C 3.356,-3.593 3.028,-3.241 2.822,-2.434 2.615,-1.622 2.299,-0.84 2.299,-0.84 L 0,0 z"
           style="fill:#cfcccd;fill-opacity:1;fill-rule:nonzero;stroke:none"
           id="path12444" />
      </g>
      <path
         inkscape:connector-curvature="0"
         d="m 35.380772,37.876715 7.780897,0 0,-4.769066 -7.780897,0 0,4.769066 z"
         style="fill:#cfcccd;fill-opacity:1;fill-rule:nonzero;stroke:none"
         id="path12446" />
    </g>
    <g
       id="g3"
       transform="matrix(0.10448724,0,0,0.10448724,-4.992268,-5.4277414)">
      <path
         style="font-size:medium;font-style:normal;font-variant:normal;font-weight:normal;font-stretch:normal;text-indent:0;text-align:start;text-decoration:none;line-height:normal;letter-spacing:normal;word-spacing:normal;text-transform:none;direction:ltr;block-progression:tb;writing-mode:lr-tb;text-anchor:start;baseline-shift:baseline;color:#000000;fill:#cfcccd;fill-opacity:1;stroke:none;stroke-width:8.02479935;marker:none;visibility:visible;display:inline;overflow:visible;enable-background:accumulate;font-family:Sans;-inkscape-font-specification:Sans"
         d="m 256,106.875 -2.5,2 -160,128 -1.5,1.1875 0,1.9375 0,208 0,4 4,0 320,0 4,0 0,-4 0,-208 0,-1.9375 -1.5,-1.1875 -160,-128 -2.5,-2 z m 0,10.25 L 412,241.9375 412,444 100,444 100,241.9375 256,117.125 z"
         id="path5"
         inkscape:connector-curvature="0" />
      <path
         sodipodi:nodetypes="ccccccc"
         style="color:#000000;fill:#cfcccd;fill-opacity:1;fill-rule:nonzero;stroke:none;stroke-width:8.02479935;marker:none;visibility:visible;display:inline;overflow:visible;enable-background:accumulate"
         id="path7"
         d="M 256,75.463606 64,228.9616 75.51,240.3456 256,95.953603 436.49,240.3466 448,228.9616 z"
         inkscape:connector-curvature="0" />
    </g>
  </g>
</svg>
