<?xml version="1.0" encoding="UTF-8" standalone="no"?>
<!-- Created with Inkscape (http://www.inkscape.org/) -->

<svg
   xmlns:dc="http://purl.org/dc/elements/1.1/"
   xmlns:cc="http://creativecommons.org/ns#"
   xmlns:rdf="http://www.w3.org/1999/02/22-rdf-syntax-ns#"
   xmlns:svg="http://www.w3.org/2000/svg"
   xmlns="http://www.w3.org/2000/svg"
   xmlns:sodipodi="http://sodipodi.sourceforge.net/DTD/sodipodi-0.dtd"
   xmlns:inkscape="http://www.inkscape.org/namespaces/inkscape"
   width="48px"
   height="48px"
   id="svg28083"
   version="1.1"
   inkscape:version="0.48.4 r9939"
   sodipodi:docname="egout.svg">
  <defs
     id="defs28085">
    <clipPath
       clipPathUnits="userSpaceOnUse"
       id="clipPath4901">
      <path
         inkscape:connector-curvature="0"
         d="m 315.748,1648.19 0.773,0 0,-0.63 -0.773,0 0,0.63 z"
         id="path4903" />
    </clipPath>
    <clipPath
       clipPathUnits="userSpaceOnUse"
       id="clipPath4905">
      <path
         inkscape:connector-curvature="0"
         d="m 315.759,1648.18 0.762,0 0,-0.62 -0.762,0 0,0.62 z"
         id="path4907" />
    </clipPath>
    <clipPath
       clipPathUnits="userSpaceOnUse"
       id="clipPath4909">
      <path
         inkscape:connector-curvature="0"
         d="m 315.748,1648.19 0.011,0 0,-0.01 -0.011,0 0,0.01 z"
         id="path4911" />
    </clipPath>
    <clipPath
       clipPathUnits="userSpaceOnUse"
       id="clipPath4857">
      <path
         inkscape:connector-curvature="0"
         d="m 327.146,1644.07 0.45,0 0,-0.02 -0.45,0 0,0.02 z"
         id="path4859" />
    </clipPath>
    <clipPath
       clipPathUnits="userSpaceOnUse"
       id="clipPath4861">
      <path
         inkscape:connector-curvature="0"
         d="m 327.146,1644.07 0.446,0 0,-0.02 -0.446,0 0,0.02 z"
         id="path4863" />
    </clipPath>
    <clipPath
       clipPathUnits="userSpaceOnUse"
       id="clipPath4865">
      <path
         inkscape:connector-curvature="0"
         d="m 327.592,1644.05 0.004,0 0,0 -0.004,0 z"
         id="path4867" />
    </clipPath>
  </defs>
  <sodipodi:namedview
     id="base"
     pagecolor="#ffffff"
     bordercolor="#666666"
     borderopacity="1.0"
     inkscape:pageopacity="0.0"
     inkscape:pageshadow="2"
     inkscape:zoom="6.09"
     inkscape:cx="20.57613"
     inkscape:cy="24"
     inkscape:current-layer="layer1"
     showgrid="true"
     inkscape:grid-bbox="true"
     inkscape:document-units="px"
     inkscape:window-width="901"
     inkscape:window-height="883"
     inkscape:window-x="2098"
     inkscape:window-y="112"
     inkscape:window-maximized="0" />
  <metadata
     id="metadata28088">
    <rdf:RDF>
      <cc:Work
         rdf:about="">
        <dc:format>image/svg+xml</dc:format>
        <dc:type
           rdf:resource="http://purl.org/dc/dcmitype/StillImage" />
        <dc:title />
      </cc:Work>
    </rdf:RDF>
  </metadata>
  <g
     id="layer1"
     inkscape:label="Layer 1"
     inkscape:groupmode="layer">
    <g
       id="g3014">
      <g
         transform="matrix(-0.35712565,0,0,0.35712565,-80.698233,-85.332725)"
         style="fill:#cfcccd"
         id="g4036">
        <path
           inkscape:connector-curvature="0"
           style="fill:#cfcccd"
           id="path4038"
           d="m -327.794,319.122 c 0.815,0 1.482,-0.662 1.482,-1.484 0,-0.815 -0.667,-1.479 -1.482,-1.479 -0.82,0 -1.484,0.663 -1.484,1.479 0,0.822 0.664,1.484 1.484,1.484" />
        <path
           inkscape:connector-curvature="0"
           style="fill:#cfcccd"
           id="path4040"
           d="m -337.205,325.218 c 0.819,0 1.483,-0.662 1.483,-1.48 0,-0.819 -0.664,-1.48 -1.483,-1.48 -0.82,0 -1.482,0.661 -1.482,1.48 0,0.818 0.663,1.48 1.482,1.48" />
        <path
           inkscape:connector-curvature="0"
           style="fill:#cfcccd"
           id="path4042"
           d="m -332.855,328.836 c 0.819,0 1.483,-0.66 1.483,-1.479 0,-0.819 -0.664,-1.481 -1.483,-1.481 -0.815,0 -1.48,0.662 -1.48,1.481 0,0.819 0.665,1.479 1.48,1.479" />
        <path
           inkscape:connector-curvature="0"
           style="fill:#cfcccd"
           id="path4044"
           d="m -337.033,331.316 c 0.819,0 1.484,-0.661 1.484,-1.482 0,-0.815 -0.665,-1.479 -1.484,-1.479 -0.816,0 -1.479,0.663 -1.479,1.479 0,0.821 0.663,1.482 1.479,1.482" />
        <path
           inkscape:connector-curvature="0"
           style="fill:#cfcccd"
           id="path4046"
           d="m -344.348,324.696 c 0.818,0 1.482,-0.662 1.482,-1.484 0,-0.814 -0.665,-1.478 -1.482,-1.478 -0.817,0 -1.482,0.663 -1.482,1.478 -0.001,0.822 0.664,1.484 1.482,1.484" />
        <path
           inkscape:connector-curvature="0"
           style="fill:#cfcccd"
           id="path4048"
           d="m -327.942,344.88 c 0.812,0 1.48,-0.66 1.48,-1.482 0,-0.816 -0.668,-1.479 -1.48,-1.479 -0.819,0 -1.484,0.662 -1.484,1.479 0,0.822 0.664,1.482 1.484,1.482" />
        <path
           inkscape:connector-curvature="0"
           style="fill:#cfcccd"
           id="path4050"
           d="m -327.97,326.788 c 0.816,0 1.48,-0.663 1.48,-1.484 0,-0.815 -0.665,-1.477 -1.48,-1.477 -0.815,0 -1.483,0.661 -1.483,1.477 0,0.821 0.668,1.484 1.483,1.484" />
        <path
           inkscape:connector-curvature="0"
           style="fill:#cfcccd"
           id="path4052"
           d="m -304.966,336.42 c 0.816,0 1.48,-0.661 1.48,-1.483 0,-0.815 -0.665,-1.478 -1.48,-1.478 -0.815,0 -1.484,0.662 -1.484,1.478 0,0.822 0.668,1.483 1.484,1.483" />
        <path
           inkscape:connector-curvature="0"
           style="fill:#cfcccd"
           id="path4054"
           d="m -299.982,346.628 c 0.815,0 1.48,-0.662 1.48,-1.483 0,-0.816 -0.665,-1.478 -1.48,-1.478 -0.815,0 -1.484,0.661 -1.484,1.478 0,0.821 0.668,1.483 1.484,1.483" />
        <path
           inkscape:connector-curvature="0"
           style="fill:#cfcccd"
           id="path4056"
           d="m -299.503,336.42 c 0.816,0 1.48,-0.661 1.48,-1.483 0,-0.815 -0.665,-1.478 -1.48,-1.478 -0.815,0 -1.484,0.662 -1.484,1.478 0,0.822 0.669,1.483 1.484,1.483" />
        <path
           inkscape:connector-curvature="0"
           style="fill:#cfcccd"
           id="path4058"
           d="m -301.803,331.819 c 0.815,0 1.48,-0.662 1.48,-1.483 0,-0.815 -0.665,-1.477 -1.48,-1.477 -0.816,0 -1.484,0.661 -1.484,1.477 0,0.821 0.668,1.483 1.484,1.483" />
        <path
           inkscape:connector-curvature="0"
           style="fill:#cfcccd"
           id="path4060"
           d="m -294.04,333.401 c 0.816,0 1.48,-0.662 1.48,-1.484 0,-0.815 -0.664,-1.478 -1.48,-1.478 -0.815,0 -1.483,0.662 -1.483,1.478 0,0.822 0.668,1.484 1.483,1.484" />
        <path
           inkscape:connector-curvature="0"
           style="fill:#cfcccd"
           id="path4062"
           d="m -331.456,323.477 c 0.82,0 1.484,-0.662 1.484,-1.483 0,-0.815 -0.664,-1.478 -1.484,-1.478 -0.818,0 -1.482,0.662 -1.482,1.478 0,0.82 0.664,1.483 1.482,1.483" />
        <path
           inkscape:connector-curvature="0"
           style="fill:#cfcccd"
           id="path4064"
           d="m -343.214,348.915 c -0.154,0 -0.311,-0.026 -0.465,-0.08 -0.726,-0.257 -1.107,-1.054 -0.85,-1.779 0.12,-0.34 1.242,-3.348 3.7,-4.462 1.807,-0.817 3.523,-0.9 5.104,-0.245 2.831,1.174 4.045,4.345 4.096,4.479 0.27,0.721 -0.096,1.525 -0.816,1.794 -0.724,0.271 -1.525,-0.094 -1.795,-0.815 -0.006,-0.017 -0.857,-2.185 -2.566,-2.886 -0.848,-0.348 -1.787,-0.278 -2.872,0.214 -1.181,0.534 -2.021,2.28 -2.222,2.85 -0.203,0.571 -0.74,0.93 -1.314,0.93 l 0,0 z" />
      </g>
      <g
         transform="matrix(-0.35712565,0,0,0.35712565,-80.698233,-85.332725)"
         style="fill:#cfcccd"
         id="g4066">
        <path
           inkscape:connector-curvature="0"
           style="fill:#cfcccd"
           id="path4068"
           d="m -266.604,346.596 c -2.495,0 -4.784,-1.638 -6.438,-4.501 -1.652,2.863 -3.941,4.501 -6.438,4.501 -2.497,0 -4.786,-1.638 -6.439,-4.501 -1.654,2.863 -3.942,4.501 -6.439,4.501 -0.763,0 -1.381,-0.618 -1.381,-1.382 0,-0.762 0.618,-1.38 1.381,-1.38 1.985,0 3.952,-2.122 5.135,-5.539 0.192,-0.556 0.716,-0.93 1.305,-0.93 0.589,0 1.111,0.374 1.305,0.93 1.182,3.417 3.148,5.539 5.135,5.539 1.984,0 3.952,-2.122 5.134,-5.539 0.193,-0.556 0.717,-0.93 1.305,-0.93 0.588,0 1.112,0.374 1.305,0.93 1.184,3.417 3.149,5.539 5.134,5.539 1.986,0 3.954,-2.122 5.136,-5.539 0.193,-0.556 0.716,-0.93 1.306,-0.93 0.587,0 1.112,0.374 1.303,0.93 1.116,3.224 2.975,5.341 4.853,5.524 0.759,0.074 1.312,0.749 1.238,1.509 -0.075,0.758 -0.747,1.308 -1.509,1.238 -2.306,-0.225 -4.364,-1.813 -5.889,-4.467 -1.657,2.862 -3.946,4.497 -6.442,4.497 l 0,0 z" />
        <g
           style="fill:#cfcccd"
           id="g4070">
          <path
             inkscape:connector-curvature="0"
             style="fill:#cfcccd"
             id="path4072"
             d="m -290.597,275.185 h -5.815 v 27.717 c -5.251,0.991 -13.895,3.981 -21.249,12.963 -3.765,4.599 -6.015,11.68 -6.974,15.257 -0.91,-0.551 -2.123,-1.024 -3.6,-1.024 -3.098,0 -4.651,1.46 -4.817,1.627 -0.545,0.544 -0.546,1.427 -0.002,1.972 0.545,0.546 1.427,0.544 1.972,0.002 0.008,-0.009 0.934,-0.813 2.848,-0.813 2.035,0 3.268,1.53 3.313,1.587 0.267,0.349 0.679,0.547 1.107,0.547 0.102,0 0.205,-0.011 0.308,-0.034 0.531,-0.12 0.944,-0.539 1.057,-1.071 0.022,-0.105 2.281,-10.582 6.947,-16.282 6.517,-7.958 14.247,-10.816 19.091,-11.845 v 3.207 c -3.981,0.888 -9.71,3.415 -15.325,10.326 -5.078,6.252 -7.549,15.583 -8.683,21.631 -1.313,-2.503 -3.465,-4.855 -6.912,-4.855 -0.03,0 -0.062,0 -0.093,0.002 -2.16,0.023 -4.087,1.152 -5.352,2.127 -1.197,-2.106 -3.481,-4.315 -7,-3.754 -5.256,0.841 -6.164,5.104 -6.2,5.284 -0.15,0.756 0.34,1.489 1.095,1.64 0.754,0.156 1.489,-0.34 1.64,-1.094 0.005,-0.025 0.543,-2.538 3.905,-3.076 3.408,-0.557 4.664,3.546 4.714,3.715 0.141,0.487 0.535,0.859 1.029,0.972 0.496,0.116 1.01,-0.052 1.349,-0.429 0.023,-0.025 2.372,-2.568 4.852,-2.598 0.017,0 0.035,0 0.052,0 4.802,0 6.05,8.245 6.062,8.33 0.099,0.687 0.689,1.193 1.379,1.193 0.013,0 0.026,0 0.039,0 0.707,-0.019 1.288,-0.564 1.351,-1.268 0.016,-0.171 1.594,-17.021 8.938,-26.062 2.938,-3.616 5.871,-5.896 8.494,-7.34 -2.473,2.054 -4.568,4.538 -6.24,7.474 -5.841,10.257 -4.931,26.425 -4.89,27.107 0.038,0.619 0.502,1.127 1.116,1.222 0.067,0.011 0.133,0.015 0.2,0.015 0.539,0 1.033,-0.331 1.23,-0.848 0.019,-0.048 1.897,-4.876 5.403,-6.628 3.472,-1.735 6.76,-0.791 6.787,-0.782 0.693,0.209 1.433,-0.177 1.647,-0.871 0.215,-0.695 -0.177,-1.432 -0.872,-1.646 -0.174,-0.055 -4.293,-1.279 -8.74,0.943 -1.735,0.867 -3.122,2.252 -4.173,3.63 0.151,-5.493 0.991,-14.533 4.582,-20.839 2.173,-3.818 5.031,-6.741 8.616,-8.882 v 7.437 h 5.815 v -4.734 h 0.028 v -36.532 h -0.028 v -4.62 z" />
          <polygon
             style="fill:#cfcccd"
             id="polygon4074"
             points="-249.633,316.335 -249.633,354.999 -246,354.999 -246,259.083 -249.633,259.083 -249.633,279.803 -288.303,279.803 -288.303,316.335 " />
        </g>
      </g>
    </g>
  </g>
</svg>
