<?xml version="1.0" encoding="UTF-8" standalone="no"?>
<!-- Created with Inkscape (http://www.inkscape.org/) -->

<svg
   xmlns:dc="http://purl.org/dc/elements/1.1/"
   xmlns:cc="http://creativecommons.org/ns#"
   xmlns:rdf="http://www.w3.org/1999/02/22-rdf-syntax-ns#"
   xmlns:svg="http://www.w3.org/2000/svg"
   xmlns="http://www.w3.org/2000/svg"
   xmlns:sodipodi="http://sodipodi.sourceforge.net/DTD/sodipodi-0.dtd"
   xmlns:inkscape="http://www.inkscape.org/namespaces/inkscape"
   version="1.1"
   width="48"
   height="48"
   id="svg28083"
   inkscape:version="0.48.4 r9939"
   sodipodi:docname="emploi-55-64.svg">
  <sodipodi:namedview
     pagecolor="#ffffff"
     bordercolor="#666666"
     borderopacity="1"
     objecttolerance="10"
     gridtolerance="10"
     guidetolerance="10"
     inkscape:pageopacity="0"
     inkscape:pageshadow="2"
     inkscape:window-width="1855"
     inkscape:window-height="1056"
     id="namedview32"
     showgrid="false"
     inkscape:zoom="9.8333333"
     inkscape:cx="23.495894"
     inkscape:cy="11.812502"
     inkscape:window-x="65"
     inkscape:window-y="24"
     inkscape:window-maximized="1"
     inkscape:current-layer="g3006" />
  <defs
     id="defs28085">
    <clipPath
       id="clipPath4901">
      <path
         d="m 315.748,1648.19 0.773,0 0,-0.63 -0.773,0 0,0.63 z"
         id="path4903" />
    </clipPath>
    <clipPath
       id="clipPath4905">
      <path
         d="m 315.759,1648.18 0.762,0 0,-0.62 -0.762,0 0,0.62 z"
         id="path4907" />
    </clipPath>
    <clipPath
       id="clipPath4909">
      <path
         d="m 315.748,1648.19 0.011,0 0,-0.01 -0.011,0 0,0.01 z"
         id="path4911" />
    </clipPath>
    <clipPath
       id="clipPath4857">
      <path
         d="m 327.146,1644.07 0.45,0 0,-0.02 -0.45,0 0,0.02 z"
         id="path4859" />
    </clipPath>
    <clipPath
       id="clipPath4861">
      <path
         d="m 327.146,1644.07 0.446,0 0,-0.02 -0.446,0 0,0.02 z"
         id="path4863" />
    </clipPath>
    <clipPath
       id="clipPath4865">
      <path
         d="m 327.592,1644.05 0.004,0 0,0 -0.004,0 z"
         id="path4867" />
    </clipPath>
  </defs>
  <metadata
     id="metadata28088">
    <rdf:RDF>
      <cc:Work
         rdf:about="">
        <dc:format>image/svg+xml</dc:format>
        <dc:type
           rdf:resource="http://purl.org/dc/dcmitype/StillImage" />
        <dc:title />
      </cc:Work>
    </rdf:RDF>
  </metadata>
  <path
     d="m 28.867295,43.85445 -0.03204,-0.261758 c -0.0089,-0.124288 -0.02498,-0.254695 -0.04233,-0.37757 -0.09087,-0.763616 -0.301298,-2.236706 -0.501859,-3.655658 -0.105448,-0.734427 -0.206202,-1.453788 -0.285291,-2.050745 -0.06165,-0.453369 -0.109692,-0.838001 -0.138885,-1.104466 -0.01459,-0.149239 -0.03204,-0.288122 -0.05272,-0.417116 -0.184548,-1.139304 -0.627555,-1.56207 -1.996606,-1.94529 -1.388346,-0.38887 -2.782347,-0.767853 -4.168813,-1.149662 -0.365799,-0.09934 -0.731597,-0.200554 -1.095515,-0.301303 -0.222216,-0.0645 -0.443015,-0.124287 -0.66099,-0.182664 -0.283884,0.658159 -2.497047,7.258585 -2.564373,7.258585 -0.0089,-0.02354 -0.02636,-0.09369 -0.04989,-0.200554 -0.16383,-0.762204 -0.63462,-3.365653 -0.668512,-3.652362 l -0.01321,-0.140295 v -0.01365 c 0,-0.01884 0.0044,-0.0466 0.0089,-0.0612 l 0.0044,-0.02778 c 0.01881,-0.04238 0.03812,-0.08944 0.06593,-0.125701 l 0.02353,-0.03201 c 0.179843,-0.279177 0.368631,-0.565887 0.548466,-0.854478 0.03674,-0.05838 0.04663,-0.159598 0.02498,-0.223623 -0.06165,-0.177016 -0.124288,-0.355444 -0.185956,-0.53246 l -0.07016,-0.195848 c -0.07439,-0.209029 -0.149241,-0.419941 -0.219384,-0.62897 -0.02353,-0.0659 -0.05838,-0.06732 -0.136059,-0.102627 -0.225506,-0.104044 -2.341695,-0.104044 -2.508821,0 -0.07152,0.04378 -0.112516,0.03672 -0.136059,0.102627 -0.07016,0.209029 -0.144999,0.419941 -0.219384,0.62897 l -0.07016,0.195848 c -0.06165,0.177016 -0.124288,0.355444 -0.185957,0.53246 -0.02214,0.0645 -0.01177,0.165246 0.02498,0.223623 0.179834,0.288121 0.368622,0.57483 0.548465,0.854478 l 0.02353,0.03201 c 0.02774,0.03672 0.04663,0.08332 0.06594,0.125701 l 0.0044,0.02778 c 0.0044,0.01459 0.009,0.04238 0.009,0.0612 v 0.01318 l -0.01313,0.140296 c -0.0334,0.286708 -0.504685,2.890627 -0.669929,3.65236 -0.02353,0.106868 -0.04096,0.177017 -0.04989,0.200556 -0.06593,0 -2.279075,-6.599956 -2.562958,-7.258587 -0.21939,0.05838 -0.438774,0.118638 -0.66287,0.182665 -0.3629747,0.100746 -0.7268917,0.200556 -1.0912808,0.299892 -1.3883531,0.383219 -2.7823486,0.762202 -4.1735264,1.151073 -1.3690434,0.383219 -1.812523,0.805985 -1.9966061,1.945289 -0.020697,0.128524 -0.038125,0.267878 -0.052722,0.417117 -0.029193,0.267877 -0.077681,0.653921 -0.1388847,1.110114 -0.080506,0.593662 -0.179842,1.307845 -0.2838839,2.036152 -0.200553,1.421776 -0.412413,2.899103 -0.5032744,3.664132 -0.017428,0.122876 -0.033405,0.253283 -0.042337,0.37757 l -0.032025,0.261758 c -0.1713602,1.452376 0.3206075,2.61616 1.9354095,2.672655 1.767332,0.06168 21.1910408,0.04048 23.0534668,0 1.615275,-0.03437 2.106299,-1.218866 1.935403,-2.671715 z"
     id="path6"
     style="color:#000000;fill:#4f4c4d;fill-opacity:1;fill-rule:nonzero;stroke:none;marker:none;visibility:visible;display:inline;overflow:visible;enable-background:accumulate" />
  <path
     d="m 37.672667,33.590135 c -0.121556,0 -0.24684,0.04331 -0.334864,0.130872 -0.08802,0.08802 -0.130871,0.213305 -0.130871,0.334863 v 0.931471 h -5.355959 c -0.139721,0 -0.232867,0.09315 -0.232867,0.232868 v 3.493016 c 0,0.232868 0.326015,0.465736 0.698602,0.465736 h 4.890224 v -0.378644 c 0,-0.326013 0.273852,-0.553292 0.553293,-0.553292 h 2.561546 c 0.326015,0 0.567731,0.273852 0.567731,0.553292 v 0.378644 h 4.890224 c 0.372588,0 0.698602,-0.232868 0.698602,-0.465736 v -3.638792 c -0.04052,-0.05635 -0.106187,-0.08756 -0.189087,-0.08756 h -5.355959 v -0.93147 c 0,-0.121558 -0.04331,-0.24684 -0.130872,-0.334863 -0.08802,-0.08803 -0.213308,-0.130873 -0.334864,-0.130873 h -2.794413 z m 0,0.465735 h 2.794414 v 0.931471 H 37.672667 V 34.05587 z m 0.08756,4.657355 c -0.04656,0 -0.08756,0.04098 -0.08756,0.08755 v 1.222556 c 0,0.04656 0.04098,0.08756 0.08756,0.08756 h 2.561546 c 0.04656,0 0.101996,-0.04099 0.101996,-0.08756 v -1.222556 c 0,-0.04656 -0.05542,-0.08755 -0.101996,-0.08755 h -2.56155 z m -6.142123,0.742382 v 6.476518 c 0,0.139722 0.09315,0.232869 0.232867,0.232869 h 14.437803 c 0.13972,0 0.232866,-0.09315 0.232866,-0.232869 v -6.476518 c -0.186294,0.09315 -0.419162,0.189091 -0.698602,0.189091 h -4.890223 v 0.378641 c 0,0.326016 -0.273388,0.553294 -0.553294,0.553294 h -2.561546 c -0.326014,0 -0.567732,-0.273852 -0.567732,-0.553294 v -0.378641 h -4.934002 c -0.27944,0 -0.512309,-0.09594 -0.698602,-0.189091 z"
     id="path4"
     style="color:#000000;fill:#4f4c4d;fill-opacity:1;fill-rule:nonzero;stroke:none;stroke-width:1.12710536;marker:none;visibility:visible;display:inline;overflow:visible;enable-background:accumulate" />
  <g
     transform="matrix(0.44084847,0,0,0.44084847,24.395508,3.2648184)"
     id="g8"
     style="stroke:#ffffff;stroke-width:1.0007292;stroke-miterlimit:4;stroke-opacity:1;stroke-dasharray:none">
    <g
       id="g10"
       style="stroke:#ffffff;stroke-width:1.0007292;stroke-miterlimit:4;stroke-opacity:1;stroke-dasharray:none">
      <g
         id="g12"
         style="stroke:#ffffff;stroke-width:1.0007292;stroke-miterlimit:4;stroke-opacity:1;stroke-dasharray:none">
        <path
           d="m 45.168,14.609 2.286,-6.101 -1.858,0.57 C 45.389,9.141 45.223,9.192 45.057,9.243 45.03,9.251 45.003,9.26 44.976,9.268 44.219,7.547 43.256,6.119 42.038,4.909 38.99,1.881 35.492,0.345 31.641,0.345 c -1.351,0 -2.759,0.193 -4.185,0.573 -3.622,0.966 -6.697,3.223 -8.658,6.357 -1.95,3.114 -2.668,6.876 -2.021,10.593 0.591,3.395 2.403,6.501 5.102,8.746 2.676,2.225 6.031,3.451 9.447,3.451 0.607,0 1.22,-0.039 1.823,-0.116 3.81,-0.486 7.021,-2.215 9.542,-5.141 1.031,-1.197 1.822,-2.496 2.351,-3.86 0.182,-0.468 0.118,-1.222 -0.302,-1.624 -0.329,-0.315 -0.817,-0.427 -1.164,-0.427 -0.14,0 -0.274,0.017 -0.397,0.05 -0.559,0.149 -0.88,0.708 -1.021,1.028 C 40.271,24.242 36.026,27 31.344,27 30.587,27 29.827,26.925 29.084,26.777 25.973,26.158 23.296,24.355 21.548,21.701 19.794,19.038 19.193,15.852 19.857,12.73 20.926,7.704 25.334,3.809 30.34,3.468 c 0.335,-0.023 0.67,-0.034 0.995,-0.034 3.709,0 6.83,1.509 9.276,4.485 0.584,0.711 1.059,1.472 1.438,2.311 l -2.348,0.816 5.467,3.563 z"
           id="path14"
           style="fill:#4f4c4d;fill-opacity:1;stroke:#ffffff;stroke-width:1.0007292;stroke-miterlimit:4;stroke-opacity:1;stroke-dasharray:none" />
      </g>
      <g
         id="g16"
         style="stroke:#ffffff;stroke-width:1.0007292;stroke-miterlimit:4;stroke-opacity:1;stroke-dasharray:none">
        <g
           id="g18"
           style="stroke:#ffffff;stroke-width:1.0007292;stroke-miterlimit:4;stroke-opacity:1;stroke-dasharray:none">
          <path
             d="m 37.175,19.416 -2.85,-3.23 c 0.021,-0.141 0.031,-0.281 0.031,-0.419 0,-0.937 -0.467,-1.821 -1.232,-2.358 L 32.762,7.467 C 32.755,6.763 32.18,6.193 31.474,6.193 c -0.705,0 -1.28,0.571 -1.287,1.274 l -0.363,5.942 c -0.765,0.537 -1.232,1.421 -1.232,2.358 0,1.589 1.293,2.882 2.882,2.882 0.216,0 0.431,-0.024 0.64,-0.072 l 3.313,2.731 c 0.237,0.212 0.541,0.328 0.858,0.328 0.001,0 0.001,0 0.001,0 0.358,0 0.704,-0.151 0.947,-0.415 0.233,-0.252 0.355,-0.581 0.34,-0.925 -0.014,-0.336 -0.155,-0.648 -0.398,-0.88 z m -4.443,-3.649 c 0,0.693 -0.564,1.258 -1.259,1.258 -0.693,0 -1.258,-0.564 -1.258,-1.258 0,-0.693 0.564,-1.258 1.258,-1.258 0.695,0 1.259,0.564 1.259,1.258 z"
             id="path20"
             style="fill:#4f4c4d;fill-opacity:1;stroke:#ffffff;stroke-width:1.0007292;stroke-miterlimit:4;stroke-opacity:1;stroke-dasharray:none" />
        </g>
      </g>
    </g>
  </g>
  <g
     transform="matrix(0.2315864,0,0,0.2315864,4.0553279,10.245243)"
     id="g3006"
     style="color:#000000;fill:#4f4c4d;fill-opacity:1;fill-rule:nonzero;stroke:none;marker:none;visibility:visible;display:inline;overflow:visible;enable-background:accumulate">
    <path
       d="m 56.613,77.049981 c -0.002,-0.123948 -0.024,-0.245329 -0.057,-0.364877 -0.023,-0.08251 -0.208,-0.154385 -0.476,-0.185188 -1.797,-0.207192 -3.73,-0.312071 -5.779,-0.312071 -2.269,0.0011 -4.498,0.14045 -6.448,0.402648 -0.253,0.0341 -0.421,0.104879 -0.437,0.184822 -0.019,0.09278 -0.029,0.186656 -0.029,0.282367 0.005,0.747723 0.632,1.459141 1.762,2.003706 1.258,0.606539 2.985,0.940612 4.861,0.940612 0.001,0 0.008,0 0.008,0 3.341,-0.0018 6.086,-1.071528 6.528,-2.543137 l 0,-3.66e-4 c 0,0 0,0 0,-3.67e-4 0.046,-0.156952 0.067,-0.286401 0.067,-0.408149 z M 44.922,76.932267 c 1.647,-0.200224 3.499,-0.306203 5.412,-0.30767 1.653,0 3.241,0.07811 4.729,0.231761 0.012,0.06417 0.02,0.129082 0.02,0.194357 0,0.05831 -0.005,0.119181 -0.017,0.185555 -0.161,0.0048 -0.317,0.01393 -0.477,0.02017 -0.177,0.007 -0.354,0.01357 -0.53,0.02237 -0.301,0.01504 -0.599,0.03484 -0.894,0.05574 -0.153,0.011 -0.308,0.0198 -0.46,0.03227 -0.381,0.03117 -0.757,0.06747 -1.128,0.10818 -0.06,0.0066 -0.123,0.01137 -0.183,0.01834 -0.429,0.04914 -0.85,0.105246 -1.265,0.166853 -0.126,0.0187 -0.247,0.04071 -0.371,0.06051 -0.287,0.04584 -0.572,0.09314 -0.851,0.145217 -0.15,0.02787 -0.296,0.05831 -0.443,0.08801 -0.248,0.04987 -0.493,0.101579 -0.734,0.156219 -0.151,0.0341 -0.299,0.06968 -0.447,0.105613 -0.232,0.05684 -0.459,0.116247 -0.684,0.177487 -0.142,0.03887 -0.285,0.07774 -0.424,0.118448 -0.066,0.01944 -0.136,0.0363 -0.201,0.05611 -0.683,-0.434919 -1.054,-0.960415 -1.058,-1.510481 0,-0.0418 0.002,-0.08361 0.006,-0.125048 z"
       id="path4-6"
       style="color:#000000;fill:#4f4c4d;fill-opacity:1;fill-rule:nonzero;stroke:none;marker:none;visibility:visible;display:inline;overflow:visible;enable-background:accumulate"
       inkscape:connector-curvature="0" />
    <path
       d="m 50,7.704 c -22.199,0 -37.114,14.915 -37.114,37.114 0,26.622 16.039,47.478 36.513,47.478 22.207,0 37.716,-19.523 37.716,-47.478 C 87.114,21.925 72.892,7.704 50,7.704 z M 49.398,89.258 C 31.477,89.258 17.274,71.461 16.023,48.164 L 26.645,36.118 c 0,0 25.983,6.308 46.109,0 L 84.018,47.569 C 83.051,72.254 69.091,89.258 49.398,89.258 z"
       id="path6-7"
       style="color:#000000;fill:#4f4c4d;fill-opacity:1;fill-rule:nonzero;stroke:none;marker:none;visibility:visible;display:inline;overflow:visible;enable-background:accumulate" />
    <circle
       cx="34.921001"
       cy="58.765999"
       r="3.25"
       id="circle12"
       style="color:#000000;fill:#4f4c4d;fill-opacity:1;fill-rule:nonzero;stroke:none;marker:none;visibility:visible;display:inline;overflow:visible;enable-background:accumulate"
       d="m 38.171001,58.765999 c 0,1.794925 -1.455074,3.25 -3.25,3.25 -1.794925,0 -3.25,-1.455075 -3.25,-3.25 0,-1.794926 1.455075,-3.25 3.25,-3.25 1.794926,0 3.25,1.455074 3.25,3.25 z" />
    <circle
       d="m 38.171001,58.765999 c 0,1.794925 -1.455074,3.25 -3.25,3.25 -1.794925,0 -3.25,-1.455075 -3.25,-3.25 0,-1.794926 1.455075,-3.25 3.25,-3.25 1.794926,0 3.25,1.455074 3.25,3.25 z"
       style="color:#000000;fill:#4f4c4d;fill-opacity:1;fill-rule:nonzero;stroke:none;marker:none;visibility:visible;display:inline;overflow:visible;enable-background:accumulate"
       id="circle3009"
       r="3.25"
       cy="58.765999"
       cx="34.921001"
       sodipodi:cx="34.921001"
       sodipodi:cy="58.765999"
       sodipodi:rx="3.25"
       sodipodi:ry="3.25"
       transform="translate(30.738611,0)" />
    <path
       style="color:#000000;fill:#ffffff;fill-opacity:1;fill-rule:nonzero;stroke:none;marker:none;visibility:visible;display:inline;overflow:visible;enable-background:accumulate"
       d="M 48.112112,9.7490832 C 32.497342,9.5877818 17.981966,21.646256 16.26805,37.391922 c -0.08846,2.276653 -1.887512,11.069395 1.47914,5.877995 3.861175,-2.603913 5.982593,-10.454184 11.033202,-9.50079 14.422565,2.827898 29.737864,3.929315 43.960637,-0.517542 3.628137,3.022624 8.854813,10.236626 11.477258,10.716167 C 84.962942,29.381003 75.96924,14.258208 61.111553,11.058161 56.883687,9.9593116 52.475784,9.5919438 48.112112,9.7490832 z"
       id="path3011"
       inkscape:connector-curvature="0" />
  </g>
</svg>
