<?xml version="1.0" encoding="UTF-8" standalone="no"?>
<!-- Created with Inkscape (http://www.inkscape.org/) -->

<svg
   xmlns:dc="http://purl.org/dc/elements/1.1/"
   xmlns:cc="http://creativecommons.org/ns#"
   xmlns:rdf="http://www.w3.org/1999/02/22-rdf-syntax-ns#"
   xmlns:svg="http://www.w3.org/2000/svg"
   xmlns="http://www.w3.org/2000/svg"
   xmlns:sodipodi="http://sodipodi.sourceforge.net/DTD/sodipodi-0.dtd"
   xmlns:inkscape="http://www.inkscape.org/namespaces/inkscape"
   width="48px"
   height="48px"
   id="svg11187"
   version="1.1"
   inkscape:version="0.48.4 r9943 custom"
   sodipodi:docname="circuit-court.svg">
  <defs
     id="defs11189" />
  <sodipodi:namedview
     id="base"
     pagecolor="#ffffff"
     bordercolor="#666666"
     borderopacity="1.0"
     inkscape:pageopacity="0.0"
     inkscape:pageshadow="2"
     inkscape:zoom="7"
     inkscape:cx="29.714286"
     inkscape:cy="23.953973"
     inkscape:current-layer="layer1"
     showgrid="true"
     inkscape:grid-bbox="true"
     inkscape:document-units="px"
     inkscape:window-width="599"
     inkscape:window-height="555"
     inkscape:window-x="2601"
     inkscape:window-y="499"
     inkscape:window-maximized="0" />
  <metadata
     id="metadata11192">
    <rdf:RDF>
      <cc:Work
         rdf:about="">
        <dc:format>image/svg+xml</dc:format>
        <dc:type
           rdf:resource="http://purl.org/dc/dcmitype/StillImage" />
        <dc:title></dc:title>
      </cc:Work>
    </rdf:RDF>
  </metadata>
  <g
     id="layer1"
     inkscape:label="Layer 1"
     inkscape:groupmode="layer">
    <g
       id="g11874"
       transform="matrix(1.25,0,0,-1.25,14.111691,43.117201)" />
    <g
       id="g11457"
       transform="matrix(1.0679214,0,0,1.0679214,-3.1049227,-9.096299)">
      <path
         inkscape:connector-curvature="0"
         id="path11876"
         style="fill:#cfcccd;fill-opacity:1;fill-rule:nonzero;stroke:none"
         d="m 0,0 c 0,0 -3.01,1.825 -4.619,7.952 0,0 -1.18,3.616 0.92,6.276 2.099,2.66 5.195,2.394 5.867,2.489 0,0 3.783,-0.042 4.289,-4.528 0,0 0.121,-1.802 -2.242,-2.16 0,0 -2.994,-0.445 -2.111,-3.595 0,0 0.824,-1.862 1.709,-2.412 0,0 3.646,-3.765 -0.94,-4.575 0,0 -1.707,-0.184 -2.873,0.553"
         transform="matrix(1.25,0,0,-1.25,14.111691,43.117201)" />
      <g
         transform="matrix(1.25,0,0,-1.25,25.515391,18.805701)"
         id="g11878">
        <path
           inkscape:connector-curvature="0"
           id="path11880"
           style="fill:#cfcccd;fill-opacity:1;fill-rule:nonzero;stroke:none"
           d="m 0,0 c 0.289,-1.432 -0.6,-2.821 -1.988,-3.103 -1.391,-0.282 -2.75,0.649 -3.041,2.082 C -5.32,0.41 -4.43,1.8 -3.041,2.082 -1.652,2.363 -0.291,1.431 0,0" />
      </g>
      <g
         transform="matrix(1.25,0,0,-1.25,18.242591,19.217101)"
         id="g11882">
        <path
           inkscape:connector-curvature="0"
           id="path11884"
           style="fill:#cfcccd;fill-opacity:1;fill-rule:nonzero;stroke:none"
           d="m 0,0 c 0.158,-0.787 -0.332,-1.55 -1.098,-1.704 -0.763,-0.155 -1.509,0.355 -1.672,1.142 -0.158,0.786 0.332,1.549 1.096,1.703 C -0.91,1.297 -0.16,0.784 0,0" />
      </g>
      <g
         transform="matrix(1.25,0,0,-1.25,14.001791,20.079001)"
         id="g11886">
        <path
           inkscape:connector-curvature="0"
           id="path11888"
           style="fill:#cfcccd;fill-opacity:1;fill-rule:nonzero;stroke:none"
           d="M 0,0 C 0.168,-0.828 -0.211,-1.606 -0.846,-1.733 -1.48,-1.862 -2.133,-1.296 -2.301,-0.466 -2.469,0.361 -2.09,1.139 -1.455,1.268 -0.82,1.396 -0.17,0.83 0,0" />
      </g>
      <g
         transform="matrix(1.25,0,0,-1.25,10.659591,21.491201)"
         id="g11890">
        <path
           inkscape:connector-curvature="0"
           id="path11892"
           style="fill:#cfcccd;fill-opacity:1;fill-rule:nonzero;stroke:none"
           d="m 0,0 c 0.355,-0.62 0.168,-1.393 -0.414,-1.725 -0.582,-0.331 -1.34,-0.098 -1.695,0.524 -0.354,0.619 -0.168,1.391 0.414,1.722 C -1.113,0.854 -0.355,0.622 0,0" />
      </g>
      <g
         transform="matrix(1.25,0,0,-1.25,8.1815908,24.454001)"
         id="g11894">
        <path
           inkscape:connector-curvature="0"
           id="path11896"
           style="fill:#cfcccd;fill-opacity:1;fill-rule:nonzero;stroke:none"
           d="m 0,0 c 0.326,-0.572 0.197,-1.261 -0.289,-1.54 -0.488,-0.278 -1.148,-0.037 -1.475,0.533 -0.328,0.572 -0.195,1.263 0.291,1.54 C -0.986,0.812 -0.326,0.573 0,0" />
      </g>
    </g>
    <text
       xml:space="preserve"
       style="font-size:23.49427032px;font-style:normal;font-weight:normal;text-align:center;line-height:125%;letter-spacing:0px;word-spacing:0px;text-anchor:middle;fill:#000000;fill-opacity:1;stroke:none;font-family:Sans"
       x="32.28904"
       y="33.315437"
       id="text11470"
       sodipodi:linespacing="125%"><tspan
         sodipodi:role="line"
         id="tspan11472"
         x="32.28904"
         y="33.315437"
         style="font-size:14.95089912px;font-style:normal;font-variant:normal;font-weight:bold;font-stretch:normal;fill:#4d4d4d;font-family:Arial;-inkscape-font-specification:Arial Bold">CO<tspan
   style="font-size:9.71822166px;baseline-shift:super"
   id="tspan11474">2</tspan></tspan></text>
    <flowRoot
       xml:space="preserve"
       id="flowRoot11476"
       style="fill:black;stroke:none;stroke-opacity:1;stroke-width:1px;stroke-linejoin:miter;stroke-linecap:butt;fill-opacity:1;font-family:Sans;font-style:normal;font-weight:normal;font-size:22px;line-height:125%;letter-spacing:0px;word-spacing:0px;text-anchor:middle;text-align:center"><flowRegion
         id="flowRegion11478"><rect
           id="rect11480"
           width="46.714287"
           height="39.285713"
           x="0.85714287"
           y="8.7142859" /></flowRegion><flowPara
         id="flowPara11482"></flowPara></flowRoot>  </g>
</svg>
