<?xml version="1.0" encoding="UTF-8" standalone="no"?>
<!-- Created with Inkscape (http://www.inkscape.org/) -->

<svg
   xmlns:dc="http://purl.org/dc/elements/1.1/"
   xmlns:cc="http://creativecommons.org/ns#"
   xmlns:rdf="http://www.w3.org/1999/02/22-rdf-syntax-ns#"
   xmlns:svg="http://www.w3.org/2000/svg"
   xmlns="http://www.w3.org/2000/svg"
   xmlns:sodipodi="http://sodipodi.sourceforge.net/DTD/sodipodi-0.dtd"
   xmlns:inkscape="http://www.inkscape.org/namespaces/inkscape"
   width="48px"
   height="48px"
   id="svg28083"
   version="1.1"
   inkscape:version="0.48.4 r9939"
   sodipodi:docname="energie-renouvelable.svg">
  <defs
     id="defs28085">
    <clipPath
       clipPathUnits="userSpaceOnUse"
       id="clipPath4901">
      <path
         inkscape:connector-curvature="0"
         d="m 315.748,1648.19 0.773,0 0,-0.63 -0.773,0 0,0.63 z"
         id="path4903" />
    </clipPath>
    <clipPath
       clipPathUnits="userSpaceOnUse"
       id="clipPath4905">
      <path
         inkscape:connector-curvature="0"
         d="m 315.759,1648.18 0.762,0 0,-0.62 -0.762,0 0,0.62 z"
         id="path4907" />
    </clipPath>
    <clipPath
       clipPathUnits="userSpaceOnUse"
       id="clipPath4909">
      <path
         inkscape:connector-curvature="0"
         d="m 315.748,1648.19 0.011,0 0,-0.01 -0.011,0 0,0.01 z"
         id="path4911" />
    </clipPath>
    <clipPath
       clipPathUnits="userSpaceOnUse"
       id="clipPath4857">
      <path
         inkscape:connector-curvature="0"
         d="m 327.146,1644.07 0.45,0 0,-0.02 -0.45,0 0,0.02 z"
         id="path4859" />
    </clipPath>
    <clipPath
       clipPathUnits="userSpaceOnUse"
       id="clipPath4861">
      <path
         inkscape:connector-curvature="0"
         d="m 327.146,1644.07 0.446,0 0,-0.02 -0.446,0 0,0.02 z"
         id="path4863" />
    </clipPath>
    <clipPath
       clipPathUnits="userSpaceOnUse"
       id="clipPath4865">
      <path
         inkscape:connector-curvature="0"
         d="m 327.592,1644.05 0.004,0 0,0 -0.004,0 z"
         id="path4867" />
    </clipPath>
  </defs>
  <sodipodi:namedview
     id="base"
     pagecolor="#ffffff"
     bordercolor="#666666"
     borderopacity="1.0"
     inkscape:pageopacity="0.0"
     inkscape:pageshadow="2"
     inkscape:zoom="7"
     inkscape:cx="26.60379"
     inkscape:cy="24"
     inkscape:current-layer="layer1"
     showgrid="true"
     inkscape:grid-bbox="true"
     inkscape:document-units="px"
     inkscape:window-width="651"
     inkscape:window-height="653"
     inkscape:window-x="2192"
     inkscape:window-y="276"
     inkscape:window-maximized="0" />
  <metadata
     id="metadata28088">
    <rdf:RDF>
      <cc:Work
         rdf:about="">
        <dc:format>image/svg+xml</dc:format>
        <dc:type
           rdf:resource="http://purl.org/dc/dcmitype/StillImage" />
        <dc:title />
      </cc:Work>
    </rdf:RDF>
  </metadata>
  <g
     id="layer1"
     inkscape:label="Layer 1"
     inkscape:groupmode="layer">
    <g
       id="g3040">
      <g
         style="fill:#cfcccd"
         id="g4829"
         transform="matrix(1.25,0,0,-1.25,28.654893,42.484966)">
        <path
           d="m 0,0 -7.511,0 c 0,0 -0.273,-0.031 -0.273,-0.45 0,-0.419 0.481,-0.33 0.481,-0.33 l 0.406,0 0,0.015 6.222,0 0.598,0 c 0,0 0.362,0.045 0.362,0.359 C 0.285,-0.09 0,0 0,0"
           style="fill:#cfcccd;fill-opacity:1;fill-rule:nonzero;stroke:none"
           id="path4831"
           inkscape:connector-curvature="0" />
      </g>
      <g
         style="fill:#cfcccd"
         id="g4833"
         transform="matrix(1.25,0,0,-1.25,29.068143,40.911476)">
        <path
           d="m 0,0 -8.158,0 c 0,0 -0.344,-0.044 -0.344,-0.479 0,-0.435 0.661,-0.344 0.661,-0.344 l 7.51,0 0.27,0 c 0,0 0.374,0.027 0.374,0.434 C 0.313,0.016 0,0 0,0"
           style="fill:#cfcccd;fill-opacity:1;fill-rule:nonzero;stroke:none"
           id="path4835"
           inkscape:connector-curvature="0" />
      </g>
      <g
         style="fill:#cfcccd"
         id="g4837"
         transform="matrix(1.25,0,0,-1.25,27.810773,44.117096)">
        <path
           d="m 0,0 -6.222,0 c 0,0 -0.166,0 -0.166,-0.194 0,-0.195 0.391,-0.21 0.391,-0.21 l 5.877,0 c 0,0 0.284,0 0.284,0.21 C 0.164,0.016 0,0 0,0"
           style="fill:#cfcccd;fill-opacity:1;fill-rule:nonzero;stroke:none"
           id="path4839"
           inkscape:connector-curvature="0" />
      </g>
      <g
         style="fill:#cfcccd"
         id="g4841"
         transform="matrix(1.25,0,0,-1.25,29.160903,39.336726)">
        <path
           d="m 0,0 -8.306,0 c 0,0 -0.286,-0.105 -0.286,-0.465 0,-0.358 0.36,-0.389 0.36,-0.389 l 8.158,0 c 0,0 0.313,0.058 0.313,0.478 C 0.225,-0.045 0,0 0,0"
           style="fill:#cfcccd;fill-opacity:1;fill-rule:nonzero;stroke:none"
           id="path4843"
           inkscape:connector-curvature="0" />
      </g>
      <g
         style="fill:#cfcccd"
         id="g4845"
         transform="matrix(1.25,0,0,-1.25,18.491903,38.037976)">
        <path
           d="m 0,0 c -0.041,-0.076 -0.071,-0.176 -0.071,-0.304 0,-0.33 0.3,-0.33 0.3,-0.33 l 8.306,0 c 0,0 0.33,0.06 0.33,0.463 0,0.073 -0.016,0.125 -0.038,0.171 L 0,0 z"
           style="fill:#cfcccd;fill-opacity:1;fill-rule:nonzero;stroke:none"
           id="path4847"
           inkscape:connector-curvature="0" />
      </g>
      <g
         style="fill:#cfcccd"
         id="g4849"
         transform="matrix(1.25,0,0,-1.25,18.529773,36.947846)">
        <path
           d="m 0,0 0.43,-0.422 7.734,0 L 8.625,0.036 0,0 z"
           style="fill:#cfcccd;fill-opacity:1;fill-rule:nonzero;stroke:none"
           id="path4851"
           inkscape:connector-curvature="0" />
      </g>
      <g
         style="fill:#cfcccd"
         id="g4853"
         transform="matrix(1.25,0,0,-1.25,-377.83923,2075.6356)">
        <g
           style="fill:#cfcccd"
           id="g4855" />
        <g
           style="fill:#cfcccd"
           id="g4869">
          <g
             style="fill:#cfcccd"
             clip-path="url(#clipPath4857)"
             id="g4871">
            <g
               style="fill:#cfcccd"
               id="g4873">
              <g
                 style="fill:#cfcccd"
                 id="g4875" />
              <g
                 style="fill:#cfcccd"
                 id="g4877">
                <g
                   clip-path="url(#clipPath4861)"
                   id="g4879"
                   style="opacity:0.41999798999999999;fill:#cfcccd">
                  <g
                     style="fill:#cfcccd"
                     transform="translate(327.146,1644.0557)"
                     id="g4881">
                    <path
                       d="M 0,0 C 0.25,0.011 0.415,-0.003 0.446,-0.007 0.327,0.015 0.173,0.015 0,0"
                       style="fill:#cfcccd;fill-opacity:1;fill-rule:nonzero;stroke:none"
                       id="path4883"
                       inkscape:connector-curvature="0" />
                  </g>
                </g>
              </g>
            </g>
            <g
               style="fill:#cfcccd"
               id="g4885">
              <g
                 style="fill:#cfcccd"
                 id="g4887" />
              <g
                 style="fill:#cfcccd"
                 id="g4889">
                <g
                   clip-path="url(#clipPath4865)"
                   id="g4891"
                   style="opacity:0.41999798999999999;fill:#cfcccd">
                  <g
                     style="fill:#cfcccd"
                     transform="translate(327.5918,1644.0488)"
                     id="g4893">
                    <path
                       d="M 0,0 C 0.001,0 0.004,0 0.004,-0.002 0.004,-0.002 0.004,0 0,0"
                       style="fill:#cfcccd;fill-opacity:1;fill-rule:nonzero;stroke:none"
                       id="path4895"
                       inkscape:connector-curvature="0" />
                  </g>
                </g>
              </g>
            </g>
          </g>
        </g>
      </g>
      <g
         style="fill:#cfcccd"
         id="g4897"
         transform="matrix(1.25,0,0,-1.25,-377.83923,2075.6356)">
        <g
           style="fill:#cfcccd"
           id="g4899" />
        <g
           style="fill:#cfcccd"
           id="g4913">
          <g
             style="fill:#cfcccd"
             clip-path="url(#clipPath4901)"
             id="g4915">
            <g
               style="fill:#cfcccd"
               id="g4917">
              <g
                 style="fill:#cfcccd"
                 id="g4919" />
              <g
                 style="fill:#cfcccd"
                 id="g4921">
                <g
                   clip-path="url(#clipPath4905)"
                   id="g4923"
                   style="opacity:0.41999798999999999;fill:#cfcccd">
                  <g
                     style="fill:#cfcccd"
                     transform="translate(316.521,1647.5566)"
                     id="g4925">
                    <path
                       d="M 0,0 C -0.416,0.365 -0.705,0.581 -0.762,0.622 -0.54,0.474 -0.279,0.259 0,0"
                       style="fill:#cfcccd;fill-opacity:1;fill-rule:nonzero;stroke:none"
                       id="path4927"
                       inkscape:connector-curvature="0" />
                  </g>
                </g>
              </g>
            </g>
            <g
               style="fill:#cfcccd"
               id="g4929">
              <g
                 style="fill:#cfcccd"
                 id="g4931" />
              <g
                 style="fill:#cfcccd"
                 id="g4933">
                <g
                   clip-path="url(#clipPath4909)"
                   id="g4935"
                   style="opacity:0.41999798999999999;fill:#cfcccd">
                  <g
                     style="fill:#cfcccd"
                     transform="translate(315.7588,1648.1787)"
                     id="g4937">
                    <path
                       d="m 0,0 c -0.003,0.002 -0.008,0.003 -0.011,0.005 0,0.003 0.003,0 0.011,-0.005"
                       style="fill:#cfcccd;fill-opacity:1;fill-rule:nonzero;stroke:none"
                       id="path4939"
                       inkscape:connector-curvature="0" />
                  </g>
                </g>
              </g>
            </g>
          </g>
        </g>
      </g>
      <g
         style="fill:#cfcccd"
         id="g4941"
         transform="matrix(1.25,0,0,-1.25,35.697143,17.941476)">
        <path
           d="m 0,0 c -0.144,-2.755 -1.178,-4.656 -2.27,-6.669 -0.162,-0.297 -0.32,-0.591 -0.478,-0.888 -0.116,-0.218 -0.234,-0.439 -0.358,-0.664 -0.51,-0.939 -1.037,-1.911 -1.399,-2.977 -0.161,-0.468 -0.243,-1.002 -0.323,-1.521 -0.113,-0.738 -0.229,-1.501 -0.558,-1.969 l -3.182,0 0.024,7.245 c 0,0 -0.074,0.874 0.351,1.419 0.799,-0.429 2.278,-0.328 3.165,1.29 0.887,1.618 1.435,2.31 2.1,2.543 -1.047,0.35 -3.196,1.253 -4.573,-0.635 -1.075,-1.472 -0.93,-2.981 -0.93,-2.981 0,0 -0.346,-0.882 -0.31,-1.647 l 0,-7.234 -0.994,0 0,5.828 c 0,0.69 -0.192,0.911 -0.192,0.911 0,0 1.496,0.995 1.174,3.549 -0.456,3.588 -4.84,5.659 -6.917,6.773 0.942,-1.184 1.288,-2.629 1.427,-5.305 0.13,-2.471 2.267,-4.297 3.79,-4.904 l 0.078,-0.024 c 0.396,-0.234 0.295,-0.903 0.295,-0.903 l 0,-5.925 -3.412,0 c -0.366,0.385 -0.557,0.726 -0.615,1.08 -0.04,0.256 -0.075,0.533 -0.105,0.8 -0.064,0.515 -0.128,1.048 -0.253,1.536 -0.3,1.146 -0.883,2.139 -1.397,3.014 -0.13,0.223 -0.259,0.441 -0.378,0.654 l -0.211,0.375 c -0.55,0.976 -1.117,1.986 -1.612,3.042 -0.511,1.083 -0.792,2.395 -0.883,4.131 l 0,0.626 c 0.042,1.301 0.319,2.49 0.845,3.635 0.487,1.06 1.196,1.848 1.889,2.54 1.735,1.736 3.745,2.623 6.12,2.715 l 0.723,0 C -6.632,9.313 -4.41,8.405 -2.77,6.765 -0.99,4.985 -0.083,2.851 0,0.259 L 0,0 z m 1.05,0.274 c -0.093,2.891 -1.1,5.255 -3.08,7.234 -1.831,1.832 -4.285,2.841 -7.297,3 l -0.027,0 -0.757,0 c -2.673,-0.102 -4.911,-1.088 -6.844,-3.02 -0.761,-0.761 -1.543,-1.635 -2.1,-2.843 -0.587,-1.277 -0.895,-2.598 -0.939,-4.057 l 0,-0.659 0,-0.027 c 0.099,-1.881 0.41,-3.322 0.979,-4.536 0.515,-1.092 1.093,-2.117 1.65,-3.109 l 0.21,-0.373 c 0.123,-0.222 0.253,-0.445 0.388,-0.673 0.503,-0.857 1.022,-1.743 1.284,-2.747 0.108,-0.418 0.168,-0.895 0.228,-1.398 0.032,-0.276 0.067,-0.562 0.11,-0.839 0.132,-0.828 0.674,-1.432 1.069,-1.817 0.1,-0.095 0.23,-0.148 0.367,-0.148 l 8.567,0 c 0.144,0 0.279,0.056 0.378,0.158 0.662,0.683 0.822,1.708 0.976,2.701 0.074,0.495 0.147,0.963 0.275,1.344 0.335,0.98 0.842,1.913 1.329,2.812 0.124,0.229 0.246,0.453 0.363,0.676 0.157,0.294 0.314,0.584 0.472,0.877 1.104,2.031 2.244,4.129 2.399,7.13 l 0,0.028 0,0.286 z"
           style="fill:#cfcccd;fill-opacity:1;fill-rule:nonzero;stroke:none"
           id="path4943"
           inkscape:connector-curvature="0" />
      </g>
    </g>
  </g>
</svg>
