<?xml version="1.0" encoding="UTF-8" standalone="no"?>
<!-- Created with Inkscape (http://www.inkscape.org/) -->

<svg
   xmlns:dc="http://purl.org/dc/elements/1.1/"
   xmlns:cc="http://creativecommons.org/ns#"
   xmlns:rdf="http://www.w3.org/1999/02/22-rdf-syntax-ns#"
   xmlns:svg="http://www.w3.org/2000/svg"
   xmlns="http://www.w3.org/2000/svg"
   xmlns:sodipodi="http://sodipodi.sourceforge.net/DTD/sodipodi-0.dtd"
   xmlns:inkscape="http://www.inkscape.org/namespaces/inkscape"
   width="48px"
   height="48px"
   id="svg28083"
   version="1.1"
   inkscape:version="0.48.4 r9943 custom"
   sodipodi:docname="biohazard.svg">
  <defs
     id="defs28085">
    <clipPath
       clipPathUnits="userSpaceOnUse"
       id="clipPath4901">
      <path
         inkscape:connector-curvature="0"
         d="m 315.748,1648.19 0.773,0 0,-0.63 -0.773,0 0,0.63 z"
         id="path4903" />
    </clipPath>
    <clipPath
       clipPathUnits="userSpaceOnUse"
       id="clipPath4905">
      <path
         inkscape:connector-curvature="0"
         d="m 315.759,1648.18 0.762,0 0,-0.62 -0.762,0 0,0.62 z"
         id="path4907" />
    </clipPath>
    <clipPath
       clipPathUnits="userSpaceOnUse"
       id="clipPath4909">
      <path
         inkscape:connector-curvature="0"
         d="m 315.748,1648.19 0.011,0 0,-0.01 -0.011,0 0,0.01 z"
         id="path4911" />
    </clipPath>
    <clipPath
       clipPathUnits="userSpaceOnUse"
       id="clipPath4857">
      <path
         inkscape:connector-curvature="0"
         d="m 327.146,1644.07 0.45,0 0,-0.02 -0.45,0 0,0.02 z"
         id="path4859" />
    </clipPath>
    <clipPath
       clipPathUnits="userSpaceOnUse"
       id="clipPath4861">
      <path
         inkscape:connector-curvature="0"
         d="m 327.146,1644.07 0.446,0 0,-0.02 -0.446,0 0,0.02 z"
         id="path4863" />
    </clipPath>
    <clipPath
       clipPathUnits="userSpaceOnUse"
       id="clipPath4865">
      <path
         inkscape:connector-curvature="0"
         d="m 327.592,1644.05 0.004,0 0,0 -0.004,0 z"
         id="path4867" />
    </clipPath>
  </defs>
  <sodipodi:namedview
     id="base"
     pagecolor="#ffffff"
     bordercolor="#666666"
     borderopacity="1.0"
     inkscape:pageopacity="0.0"
     inkscape:pageshadow="2"
     inkscape:zoom="7"
     inkscape:cx="21.676997"
     inkscape:cy="12.571428"
     inkscape:current-layer="layer1"
     showgrid="true"
     inkscape:grid-bbox="true"
     inkscape:document-units="px"
     inkscape:window-width="887"
     inkscape:window-height="690"
     inkscape:window-x="391"
     inkscape:window-y="23"
     inkscape:window-maximized="0" />
  <metadata
     id="metadata28088">
    <rdf:RDF>
      <cc:Work
         rdf:about="">
        <dc:format>image/svg+xml</dc:format>
        <dc:type
           rdf:resource="http://purl.org/dc/dcmitype/StillImage" />
        <dc:title></dc:title>
      </cc:Work>
    </rdf:RDF>
  </metadata>
  <g
     id="layer1"
     inkscape:label="Layer 1"
     inkscape:groupmode="layer">
    <g
       transform="matrix(0.4040118,0,0,0.4040118,4.1418639,4.1282377)"
       id="g4619">
      <path
         style="fill:#000000"
         inkscape:connector-curvature="0"
         d="m 71.2,64.1 v -13 l -22.8,13 v -13 L 26,64.1 22.7,38.7 h -12 L 4.6,95 H 93.9 V 51.1 l -22.7,13 z M 40.7,78.2 h -6.6 v -8.9 h 6.6 v 8.9 z m 22.5,0 h -6.6 v -8.9 h 6.6 v 8.9 z m 22.6,0 h -6.6 v -8.9 h 6.6 v 8.9 z"
         id="path4621" />
    </g>
    <path
       style="fill:#000000"
       inkscape:connector-curvature="0"
       d="m 13.110926,12.248875 c 0,0.0404 -0.0404,0.0404 -0.0404,0.0404 0,0 0.0404,0 0.0404,-0.0404 z"
       id="path4623" />
    <path
       inkscape:connector-curvature="0"
       d="m 15.009781,11.117641 c 0,0 0,0 0,0 -1.333238,0 -1.818052,0.888827 -1.939256,1.131234 0,0 0,0.0404 -0.0404,0.0404 0,0 0,0 0.0404,-0.0404 0.404011,-1.01003 0.161604,-2.7068801 -1.212037,-3.1916941 -1.010028,-0.3636103 -1.050431,-1.252437 -1.010028,-1.696849 0,-0.080799 -0.0404,-0.1211979 -0.0808,-0.1211979 -0.0404,0 -0.0404,0 -0.0808,0.040399 -1.0908311,0.9292274 -0.444412,2.0200589 -0.444412,2.6260769 0,0.2828071 -0.161605,0.6464181 -0.5656171,0.6464181 -0.646419,0 -0.727221,-0.7272211 -0.727221,-1.0908321 0,-0.0404 -0.0404,-0.121198 -0.1211976,-0.121198 0,0 -0.040399,0 -0.040399,0 -1.535245,1.1312341 -0.242407,2.8684841 -0.1616042,3.7977121 0.040399,0.36361 -0.242407,0.565617 -0.5656169,0.565617 -0.484814,0 -0.6464197,-0.363611 -0.7272211,-0.606019 0,-0.0404 -0.040399,-0.0808 -0.1211979,-0.0808 -0.040399,0 -0.080799,0 -0.080799,0.0404 -0.4040112,0.767622 -0.3232098,2.06046 -0.3232098,2.06046 0,1.898856 1.3736408,3.434101 3.1108915,3.797711 -0.484814,-0.242407 -0.808023,-0.727221 -0.929227,-1.252437 h 0 c -0.0404,-0.888825 0.282808,-1.858453 0.767622,-2.262466 0,0 -0.323209,1.171634 0.3232101,1.212035 0.36361,0.0404 0.484814,-0.323208 0.444413,-0.686819 -0.242407,-1.252437 0.727221,-1.737251 0.68682,-1.656448 -0.121197,0.323208 -0.202006,0.888826 0.444412,1.454442 0.686821,0.606017 0.808024,1.535245 0.727222,1.939256 -0.0808,0.565617 -0.444414,1.050431 -0.969629,1.292838 0,0.0404 -0.0404,0.0404 -0.0808,0.0808 1.656447,-0.282808 2.989686,-1.69685 3.191692,-3.3937 l 0,0 c 0,0 0,0 0,0 0,-0.121198 0.0404,-0.282808 0.0404,-0.444412 0,-0.484816 -0.0808,-0.929228 -0.242407,-1.333239 -0.0404,-0.0808 -0.0404,-0.161605 -0.0404,-0.202006 0,-0.0808 -0.0404,-0.121198 -0.0404,-0.202006 l 0,0 c -0.161606,-1.171635 0.444413,-1.939257 0.767621,-2.222066 0.161606,0 0.121198,-0.121198 0,-0.121198 z"
       id="path4625" />
    <path
       inkscape:connector-curvature="0"
       d="m 38.402064,6.4311045 c -0.646418,0 -1.292838,0.1616056 -1.818052,0.4848141 -0.28281,0.1616056 -0.606018,0.1616056 -0.848425,0 -0.727223,-0.4848141 -1.616048,-0.7676218 -2.585676,-0.7676218 -1.050431,0 -2.020059,0.3232098 -2.828083,0.8888253 -0.242407,0.1616056 -0.525215,0.2020063 -0.767622,0.080799 -0.68682,-0.3232098 -1.494844,-0.484814 -2.302867,-0.484814 -1.535245,0 -2.908886,0.6060176 -3.959316,1.5756457 -0.202007,0.2020063 -0.484815,0.2828091 -0.767622,0.1616056 -0.404012,-0.121198 -0.848425,-0.2020063 -1.292838,-0.2020063 -1.979659,0 -3.636107,1.2928368 -4.201723,3.0300879 -0.0404,0.161604 -0.202006,0.242407 -0.323209,0.282809 -0.808024,0.0808 -1.494843,0.484814 -1.939257,1.131232 -0.121198,0.363611 -0.121198,0.767623 0.0404,1.212035 0.161604,0.404013 0.242407,0.929228 0.242407,1.454444 0,0.282808 -0.0404,0.565615 -0.0808,0.848423 0.525215,0.565617 1.292838,0.929228 2.100862,0.888827 0.484813,0 0.969628,-0.161604 1.373639,-0.404013 0.242407,-0.161604 0.525215,-0.161604 0.767622,-0.0404 0.606019,0.323211 1.33324,0.525216 2.060461,0.525216 0.606018,0 1.212035,-0.121198 1.73725,-0.36361 0.282809,-0.121198 0.565617,-0.0808 0.808024,0.0808 0.969628,0.727221 2.141263,1.171633 3.434101,1.171633 1.696849,0 3.191693,-0.727219 4.242123,-1.898854 0.202006,-0.202006 0.484814,-0.282809 0.727222,-0.242407 0.323209,0.0808 0.606018,0.0808 0.929226,0.0808 1.656449,0 3.110892,-0.808023 3.999718,-2.06046 0.161605,-0.242407 0.444413,-0.404011 0.767623,-0.363611 0.161604,0.0404 0.323208,0.0404 0.484813,0.0404 2.020059,0 3.676507,-1.656447 3.595706,-3.7169081 -0.0404,-1.818053 -1.656451,-3.3937001 -3.595708,-3.3937001 z"
       id="path4627" />
  </g>
</svg>
