<?xml version="1.0" encoding="UTF-8" standalone="no"?>
<!-- Created with Inkscape (http://www.inkscape.org/) -->

<svg
   xmlns:dc="http://purl.org/dc/elements/1.1/"
   xmlns:cc="http://creativecommons.org/ns#"
   xmlns:rdf="http://www.w3.org/1999/02/22-rdf-syntax-ns#"
   xmlns:svg="http://www.w3.org/2000/svg"
   xmlns="http://www.w3.org/2000/svg"
   xmlns:sodipodi="http://sodipodi.sourceforge.net/DTD/sodipodi-0.dtd"
   xmlns:inkscape="http://www.inkscape.org/namespaces/inkscape"
   width="48px"
   height="48px"
   id="svg28083"
   version="1.1"
   inkscape:version="0.48.4 r9939"
   sodipodi:docname="engrenages.svg">
  <defs
     id="defs28085" />
  <sodipodi:namedview
     id="base"
     pagecolor="#ffffff"
     bordercolor="#666666"
     borderopacity="1.0"
     inkscape:pageopacity="0.0"
     inkscape:pageshadow="2"
     inkscape:zoom="7"
     inkscape:cx="32.318076"
     inkscape:cy="24"
     inkscape:current-layer="layer1"
     showgrid="true"
     inkscape:grid-bbox="true"
     inkscape:document-units="px"
     inkscape:window-width="651"
     inkscape:window-height="653"
     inkscape:window-x="2254"
     inkscape:window-y="314"
     inkscape:window-maximized="0" />
  <metadata
     id="metadata28088">
    <rdf:RDF>
      <cc:Work
         rdf:about="">
        <dc:format>image/svg+xml</dc:format>
        <dc:type
           rdf:resource="http://purl.org/dc/dcmitype/StillImage" />
        <dc:title />
      </cc:Work>
    </rdf:RDF>
  </metadata>
  <g
     id="layer1"
     inkscape:label="Layer 1"
     inkscape:groupmode="layer">
    <g
       id="g2986">
      <g
         style="fill:#cfcccd"
         id="g14103"
         transform="matrix(1.25,0,0,-1.25,18.809966,32.644694)">
        <path
           d="m 0,0 c -2.506,0 -4.539,2.029 -4.539,4.54 0,2.504 2.033,4.535 4.539,4.535 2.508,0 4.539,-2.031 4.539,-4.535 C 4.539,2.029 2.508,0 0,0 m 9.334,6.515 -1.123,0 C 8.031,7.266 7.748,7.979 7.385,8.636 l 0.73,0.754 c 0.26,0.269 0.254,0.698 -0.015,0.957 l -2.082,2.007 c -0.27,0.261 -0.7,0.253 -0.959,-0.016 L 4.455,11.714 C 3.838,12.096 3.17,12.4 2.463,12.619 l 0,0.767 c 0,0.374 -0.301,0.677 -0.678,0.677 l -2.892,0 c -0.373,0 -0.678,-0.303 -0.678,-0.677 l 0,-0.595 c -0.895,-0.19 -1.74,-0.526 -2.5,-0.978 l -0.369,0.353 c -0.27,0.26 -0.701,0.253 -0.961,-0.016 L -7.627,10.07 C -7.885,9.801 -7.875,9.37 -7.609,9.109 L -7.287,8.804 C -7.699,8.097 -8.014,7.329 -8.207,6.515 l -0.447,0 c -0.373,0 -0.68,-0.302 -0.68,-0.676 l 0,-2.894 c 0,-0.372 0.307,-0.676 0.68,-0.676 l 0.521,0 c 0.242,-0.878 0.627,-1.7 1.119,-2.438 l -0.422,-0.435 c -0.261,-0.27 -0.253,-0.698 0.02,-0.959 l 2.078,-2.008 c 0.272,-0.259 0.699,-0.256 0.961,0.014 l 0.543,0.568 c 0.641,-0.326 1.328,-0.574 2.049,-0.728 l 0,-0.884 c 0,-0.375 0.305,-0.679 0.678,-0.679 l 2.892,0 c 0.377,0 0.678,0.304 0.678,0.679 l 0,1.06 c 0.734,0.223 1.424,0.542 2.058,0.945 l 0.813,-0.785 c 0.27,-0.262 0.699,-0.256 0.961,0.014 l 2.01,2.082 c 0.259,0.269 0.25,0.699 -0.018,0.959 L 7.422,0.505 C 7.723,1.06 7.961,1.649 8.135,2.269 l 1.199,0 c 0.375,0 0.68,0.304 0.68,0.676 l 0,2.894 c 0,0.374 -0.305,0.676 -0.68,0.676"
           style="fill:#cfcccd;fill-opacity:1;fill-rule:nonzero;stroke:none"
           id="path14105"
           inkscape:connector-curvature="0" />
      </g>
      <g
         style="fill:#cfcccd"
         id="g14107"
         transform="matrix(1.25,0,0,-1.25,36.551766,23.407694)">
        <path
           d="M 0,0 C -1.26,-0.398 -2.605,0.303 -3.006,1.562 -3.402,2.825 -2.703,4.17 -1.441,4.568 -0.178,4.965 1.166,4.265 1.562,3.007 1.963,1.744 1.264,0.399 0,0 M 3.664,4.761 3.098,4.582 C 2.887,4.934 2.635,5.245 2.346,5.521 L 2.594,6.012 C 2.684,6.191 2.611,6.405 2.432,6.497 L 1.066,7.175 C 0.889,7.261 0.674,7.192 0.584,7.011 L 0.383,6.604 C 0.014,6.698 -0.375,6.744 -0.764,6.741 L -0.885,7.129 C -0.943,7.317 -1.15,7.421 -1.334,7.363 L -2.791,6.901 C -2.979,6.843 -3.086,6.643 -3.023,6.454 L -2.93,6.153 C -3.35,5.913 -3.721,5.614 -4.031,5.266 l -0.246,0.12 C -4.451,5.473 -4.668,5.399 -4.758,5.224 L -5.437,3.856 C -5.523,3.681 -5.453,3.463 -5.273,3.375 L -5.068,3.273 C -5.162,2.851 -5.197,2.415 -5.164,1.975 L -5.389,1.903 C -5.58,1.846 -5.684,1.643 -5.623,1.455 l 0.459,-1.457 c 0.059,-0.189 0.258,-0.294 0.447,-0.231 l 0.262,0.084 c 0.264,-0.407 0.582,-0.758 0.951,-1.05 l -0.142,-0.286 c -0.088,-0.178 -0.016,-0.395 0.162,-0.481 l 1.365,-0.682 c 0.174,-0.086 0.392,-0.017 0.48,0.165 l 0.186,0.368 c 0.369,-0.062 0.758,-0.075 1.146,-0.041 l 0.141,-0.447 c 0.057,-0.187 0.264,-0.29 0.447,-0.233 l 1.457,0.461 c 0.188,0.059 0.295,0.26 0.235,0.45 l -0.17,0.533 c 0.334,0.23 0.631,0.498 0.885,0.803 l 0.533,-0.267 c 0.177,-0.09 0.396,-0.019 0.484,0.16 l 0.68,1.367 C 4.473,0.848 4.402,1.063 4.223,1.153 L 3.656,1.434 c 0.065,0.326 0.09,0.662 0.08,0.998 L 4.34,2.624 C 4.527,2.683 4.631,2.886 4.57,3.071 L 4.113,4.527 C 4.053,4.718 3.854,4.82 3.664,4.761"
           style="fill:#cfcccd;fill-opacity:1;fill-rule:nonzero;stroke:none"
           id="path14109"
           inkscape:connector-curvature="0" />
      </g>
    </g>
  </g>
</svg>
