<?xml version="1.0" encoding="UTF-8" standalone="no"?>
<!-- Created with Inkscape (http://www.inkscape.org/) -->

<svg
   xmlns:dc="http://purl.org/dc/elements/1.1/"
   xmlns:cc="http://creativecommons.org/ns#"
   xmlns:rdf="http://www.w3.org/1999/02/22-rdf-syntax-ns#"
   xmlns:svg="http://www.w3.org/2000/svg"
   xmlns="http://www.w3.org/2000/svg"
   xmlns:sodipodi="http://sodipodi.sourceforge.net/DTD/sodipodi-0.dtd"
   xmlns:inkscape="http://www.inkscape.org/namespaces/inkscape"
   width="48px"
   height="48px"
   id="svg28083"
   version="1.1"
   inkscape:version="0.48.4 r9939"
   sodipodi:docname="eolienne.svg">
  <defs
     id="defs28085" />
  <sodipodi:namedview
     id="base"
     pagecolor="#ffffff"
     bordercolor="#666666"
     borderopacity="1.0"
     inkscape:pageopacity="0.0"
     inkscape:pageshadow="2"
     inkscape:zoom="7"
     inkscape:cx="32.318076"
     inkscape:cy="24"
     inkscape:current-layer="layer1"
     showgrid="true"
     inkscape:grid-bbox="true"
     inkscape:document-units="px"
     inkscape:window-width="651"
     inkscape:window-height="653"
     inkscape:window-x="2231"
     inkscape:window-y="274"
     inkscape:window-maximized="0" />
  <metadata
     id="metadata28088">
    <rdf:RDF>
      <cc:Work
         rdf:about="">
        <dc:format>image/svg+xml</dc:format>
        <dc:type
           rdf:resource="http://purl.org/dc/dcmitype/StillImage" />
        <dc:title />
      </cc:Work>
    </rdf:RDF>
  </metadata>
  <g
     id="layer1"
     inkscape:label="Layer 1"
     inkscape:groupmode="layer">
    <g
       id="g2990">
      <g
         style="fill:#cfcccd"
         id="g5109"
         transform="matrix(1.25,0,0,-1.25,26.710899,16.481683)">
        <path
           d="M 0,0 C 0.643,-0.371 0.865,-1.199 0.492,-1.845 0.119,-2.492 -0.707,-2.713 -1.354,-2.342 -2,-1.969 -2.221,-1.14 -1.85,-0.494 -1.475,0.153 -0.646,0.373 0,0 M 15.074,1.341 6.285,2.856 C 5.514,2.988 4.418,2.735 3.789,2.282 L 1.201,0.405 C 1.021,0.62 0.811,0.813 0.553,0.962 -0.154,1.369 -0.979,1.38 -1.672,1.074 l -7.133,11.384 c -0.25,0.402 -0.422,0.551 -0.627,0.546 L -9.648,12.979 -9.74,12.821 c -0.073,-0.126 -0.092,-0.304 0.035,-0.766 l 2.41,-8.59 c 0.211,-0.754 0.91,-1.634 1.592,-2.005 l 2.828,-1.546 c -0.549,-1.112 -0.182,-2.459 0.861,-3.139 l -5.334,-12.379 c -0.117,-0.273 -0.314,-0.725 0.012,-0.924 0.322,-0.2 0.643,0.185 0.834,0.414 l 5.697,6.862 c 0.088,0.106 0.174,0.225 0.25,0.362 0.362,0.626 0.563,1.467 0.496,2.087 l -0.336,3.199 c 0.749,0.087 1.446,0.505 1.848,1.205 0.221,0.38 0.315,0.797 0.317,1.211 l 13.283,1.543 c 0.447,0.052 0.65,0.133 0.75,0.302 l 0.082,0.181 -0.069,0.151 c -0.084,0.179 -0.285,0.276 -0.742,0.352"
           style="fill:#cfcccd;fill-opacity:1;fill-rule:nonzero;stroke:none"
           id="path5111"
           inkscape:connector-curvature="0" />
      </g>
      <g
         style="fill:#cfcccd"
         id="g5113"
         transform="matrix(1.25,0,0,-1.25,27.540899,21.582933)">
        <path
           d="m 0,0 -0.234,-0.164 c -0.528,-0.361 -1.252,-0.355 -1.78,0.039 L -2.24,0.049 -2.395,-0.193 c -0.156,-0.244 -0.236,-0.52 -0.236,-0.803 l 0,-18.693 c 0,-0.824 0.668,-1.492 1.49,-1.492 0.823,0 1.493,0.668 1.493,1.492 l 0,18.693 c 0,0.261 -0.071,0.513 -0.206,0.748 L 0,0 z"
           style="fill:#cfcccd;fill-opacity:1;fill-rule:nonzero;stroke:none"
           id="path5115"
           inkscape:connector-curvature="0" />
      </g>
      <g
         style="fill:#cfcccd"
         id="g5117"
         transform="matrix(1.25,0,0,-1.25,9.9407991,26.831933)">
        <path
           d="M 0,0 C 0.473,0.086 0.928,-0.228 1.016,-0.698 1.102,-1.171 0.787,-1.628 0.314,-1.713 -0.158,-1.801 -0.613,-1.487 -0.699,-1.016 -0.787,-0.544 -0.475,-0.087 0,0 m -4.717,-10.411 0.078,-0.074 0.129,0.009 c 0.123,0.025 0.217,0.129 0.346,0.391 l 3.805,7.735 c 0.25,-0.087 0.523,-0.119 0.806,-0.067 0.508,0.094 0.912,0.427 1.129,0.86 L 3.445,-2.45 c 0.364,-0.173 0.916,-0.234 1.377,-0.149 0.1,0.017 0.19,0.041 0.274,0.075 l 5.398,1.98 c 0.182,0.065 0.483,0.179 0.432,0.418 -0.051,0.238 -0.369,0.218 -0.561,0.206 L 1.693,-0.489 C 1.506,0.289 0.77,0.807 -0.027,0.712 L -0.354,2.765 C -0.434,3.257 -0.818,3.873 -1.23,4.163 L -5.926,7.479 C -6.182,7.66 -6.295,7.686 -6.387,7.667 L -6.502,7.647 -6.561,7.52 c -0.048,-0.124 0.004,-0.259 0.194,-0.5 l 5.375,-6.79 c -0.336,-0.356 -0.506,-0.857 -0.412,-1.375 0.035,-0.188 0.107,-0.357 0.199,-0.513 L -2.904,-2.826 C -3.316,-3.109 -3.707,-3.721 -3.793,-4.218 L -4.77,-9.885 c -0.05,-0.294 -0.035,-0.436 0.053,-0.526"
           style="fill:#cfcccd;fill-opacity:1;fill-rule:nonzero;stroke:none"
           id="path5119"
           inkscape:connector-curvature="0" />
      </g>
      <g
         style="fill:#cfcccd"
         id="g5121"
         transform="matrix(1.25,0,0,-1.25,9.3206991,30.502683)">
        <path
           d="m 0,0 0.154,-0.107 c 0.338,-0.234 0.805,-0.228 1.143,0.027 l 0.148,0.11 0.1,-0.157 c 0.1,-0.153 0.152,-0.334 0.152,-0.517 l 0,-12.052 c 0,-0.531 -0.429,-0.962 -0.961,-0.962 -0.529,0 -0.963,0.431 -0.963,0.962 l 0,12.052 c 0,0.169 0.045,0.332 0.135,0.481 L 0,0 z"
           style="fill:#cfcccd;fill-opacity:1;fill-rule:nonzero;stroke:none"
           id="path5123"
           inkscape:connector-curvature="0" />
      </g>
    </g>
  </g>
</svg>
