<?xml version="1.0" encoding="UTF-8" standalone="no"?>
<!-- Created with Inkscape (http://www.inkscape.org/) -->

<svg
   xmlns:dc="http://purl.org/dc/elements/1.1/"
   xmlns:cc="http://creativecommons.org/ns#"
   xmlns:rdf="http://www.w3.org/1999/02/22-rdf-syntax-ns#"
   xmlns:svg="http://www.w3.org/2000/svg"
   xmlns="http://www.w3.org/2000/svg"
   xmlns:sodipodi="http://sodipodi.sourceforge.net/DTD/sodipodi-0.dtd"
   xmlns:inkscape="http://www.inkscape.org/namespaces/inkscape"
   width="48px"
   height="48px"
   id="svg3210"
   version="1.1"
   inkscape:version="0.48.4 r9939"
   sodipodi:docname="ete.svg">
  <defs
     id="defs3212" />
  <sodipodi:namedview
     id="base"
     pagecolor="#ffffff"
     bordercolor="#666666"
     borderopacity="1.0"
     inkscape:pageopacity="0.0"
     inkscape:pageshadow="2"
     inkscape:zoom="7"
     inkscape:cx="24"
     inkscape:cy="25.954102"
     inkscape:current-layer="layer1"
     showgrid="true"
     inkscape:grid-bbox="true"
     inkscape:document-units="px"
     inkscape:window-width="605"
     inkscape:window-height="601"
     inkscape:window-x="2231"
     inkscape:window-y="350"
     inkscape:window-maximized="0" />
  <metadata
     id="metadata3215">
    <rdf:RDF>
      <cc:Work
         rdf:about="">
        <dc:format>image/svg+xml</dc:format>
        <dc:type
           rdf:resource="http://purl.org/dc/dcmitype/StillImage" />
        <dc:title />
      </cc:Work>
    </rdf:RDF>
  </metadata>
  <g
     id="layer1"
     inkscape:label="Layer 1"
     inkscape:groupmode="layer">
    <g
       id="g2988">
      <g
         style="fill:#cfcccd"
         transform="matrix(1.103864,0,0,-1.103864,9.4372794,20.047715)"
         id="g11678">
        <path
           inkscape:connector-curvature="0"
           id="path11680"
           style="fill:#cfcccd;fill-opacity:1;fill-rule:nonzero;stroke:none"
           d="M 0,0 C -0.986,-1.072 -1.521,0.198 -1.521,0.198 2.008,11.21 14.438,10.879 14.438,10.879 2.775,9.546 0,0 0,0 M 16.766,11.269 C 8.137,13.403 -0.568,8.3 -3.002,-0.174 l 0.029,-0.008 c -0.16,-0.829 0.371,-1.655 1.227,-1.866 0.857,-0.213 1.711,0.271 1.957,1.079 L 0.229,-0.974 C 0.07,-1.803 0.6,-2.629 1.457,-2.84 2.313,-3.052 3.166,-2.57 3.412,-1.762 L 3.43,-1.766 c -0.159,-0.829 0.371,-1.656 1.228,-1.867 0.824,-0.204 1.649,0.239 1.926,0.999 -0.107,-0.801 0.412,-1.577 1.238,-1.782 0.856,-0.213 1.711,0.27 1.957,1.079 l 0.018,-0.005 c -0.158,-0.829 0.371,-1.654 1.226,-1.867 0.407,-0.1 0.807,-0.041 1.149,0.131 l -4.152,-16.77 1.031,-0.255 4.164,16.824 c 0.223,-0.347 0.574,-0.615 1.012,-0.723 0.855,-0.211 1.709,0.271 1.955,1.08 l 0.017,-0.005 c -0.16,-0.831 0.371,-1.655 1.227,-1.868 0.828,-0.204 1.65,0.241 1.928,1.003 -0.11,-0.803 0.41,-1.582 1.238,-1.786 0.826,-0.204 1.648,0.241 1.928,1.002 -0.11,-0.803 0.41,-1.58 1.238,-1.785 0.855,-0.211 1.709,0.27 1.957,1.08 l 0.015,-0.005 c -0.158,-0.83 0.372,-1.656 1.229,-1.868 0.877,-0.217 1.758,0.294 1.978,1.14 L 28.92,-8.009 C 30.684,0.598 25.373,9.138 16.766,11.269" />
      </g>
      <g
         style="fill:#cfcccd"
         transform="matrix(1.103864,0,0,-1.103864,25.973692,33.672488)"
         id="g11682">
        <path
           inkscape:connector-curvature="0"
           id="path11684"
           style="fill:#cfcccd;fill-opacity:1;fill-rule:nonzero;stroke:none"
           d="m 0,0 c 0.119,0.128 0.322,0.193 0.602,0.193 l 4.134,0 0.295,0 2.069,0 c 0.281,0 0.482,-0.065 0.599,-0.193 0.182,-0.197 0.17,-0.525 0.17,-0.529 l 0,-0.2 c -0.24,0.058 -0.486,0.098 -0.744,0.098 l -6.551,0 c -0.258,0 -0.502,-0.04 -0.742,-0.098 l 0,0.2 c 0,0.004 -0.01,0.332 0.168,0.529 m -2.582,-3.484 12.865,0 c -0.097,0.917 -0.588,1.711 -1.289,2.228 l 0,0.681 C 8.998,-0.539 9.043,0.202 8.529,0.762 8.293,1.016 7.857,1.32 7.1,1.32 l -2.069,0 -0.295,0 -4.134,0 c -0.758,0 -1.196,-0.304 -1.428,-0.558 -0.516,-0.56 -0.471,-1.301 -0.467,-1.337 l 0,-0.681 c -0.703,-0.517 -1.191,-1.311 -1.289,-2.228" />
      </g>
      <g
         style="fill:#cfcccd"
         transform="matrix(1.103864,0,0,-1.103864,30.225335,40.127354)"
         id="g11686">
        <path
           inkscape:connector-curvature="0"
           id="path11688"
           style="fill:#cfcccd;fill-opacity:1;fill-rule:nonzero;stroke:none"
           d="m 0,0 c 0.674,0 1.223,-0.548 1.223,-1.223 0,-0.674 -0.549,-1.22 -1.223,-1.22 -0.676,0 -1.225,0.546 -1.225,1.22 C -1.225,-0.548 -0.676,0 0,0 m -6.469,-0.721 c 0,-1.762 1.43,-3.191 3.192,-3.191 l 6.55,0 c 1.766,0 3.194,1.429 3.194,3.191 l 0,2.38 -12.936,0 0,-2.38 z" />
      </g>
    </g>
  </g>
</svg>
