<?xml version="1.0" encoding="UTF-8" standalone="no"?>
<!-- Created with Inkscape (http://www.inkscape.org/) -->

<svg
   xmlns:dc="http://purl.org/dc/elements/1.1/"
   xmlns:cc="http://creativecommons.org/ns#"
   xmlns:rdf="http://www.w3.org/1999/02/22-rdf-syntax-ns#"
   xmlns:svg="http://www.w3.org/2000/svg"
   xmlns="http://www.w3.org/2000/svg"
   xmlns:sodipodi="http://sodipodi.sourceforge.net/DTD/sodipodi-0.dtd"
   xmlns:inkscape="http://www.inkscape.org/namespaces/inkscape"
   width="48px"
   height="48px"
   id="svg3210"
   version="1.1"
   inkscape:version="0.48.4 r9939"
   sodipodi:docname="etiquette-euro.svg">
  <defs
     id="defs3212" />
  <sodipodi:namedview
     id="base"
     pagecolor="#ffffff"
     bordercolor="#666666"
     borderopacity="1.0"
     inkscape:pageopacity="0.0"
     inkscape:pageshadow="2"
     inkscape:zoom="4.9497475"
     inkscape:cx="23.402942"
     inkscape:cy="36.715835"
     inkscape:current-layer="g2984"
     showgrid="true"
     inkscape:grid-bbox="true"
     inkscape:document-units="px"
     inkscape:window-width="605"
     inkscape:window-height="601"
     inkscape:window-x="2271"
     inkscape:window-y="365"
     inkscape:window-maximized="0" />
  <metadata
     id="metadata3215">
    <rdf:RDF>
      <cc:Work
         rdf:about="">
        <dc:format>image/svg+xml</dc:format>
        <dc:type
           rdf:resource="http://purl.org/dc/dcmitype/StillImage" />
        <dc:title />
      </cc:Work>
    </rdf:RDF>
  </metadata>
  <g
     id="layer1"
     inkscape:label="Layer 1"
     inkscape:groupmode="layer">
    <g
       id="g2984">
      <path
         sodipodi:nodetypes="ccccccccccccccccccccccc"
         d="m 30.646854,27.294693 -11.19434,7.1579 c -1.32719,0.84795 -2.71896,1.46396 -3.93303,-0.86604 l -4.10261,-6.41505 c -1.5708304,-2.23902 -0.46139,-3.08684 0.86529,-3.93203 l 11.19259,-7.15766 c 1.32619,-0.8487 3.08709,-0.45964 3.93354,0.8633 l 4.1046,6.41655 c 0.8467,1.32469 0.45689,3.08658 -0.86604,3.93303 m 5.3136,-9.86929 c 0.12094,0.88985 -0.18732,1.50597 -0.9918,2.02017 -1.10278,0.70408 -2.56686,0.38238 -3.27146,-0.71765 -0.70608,-1.10428 -0.38287,-2.57036 0.71716,-3.27495 1.10527,-0.70533 2.56836,-0.38438 3.27444,0.7199 0.0485,0.0727 0.0261,0.0297 0.064,0.10614 4.17707,-0.16231 4.15785,0.0727 1.94432,-3.33243 -0.84471,-1.32318 -9.58652,-2.01077 -10.9112,-1.16407 L 9.2887236,22.971083 c -1.3259299,0.8442 -1.7129899,2.6066 -0.8660399,3.93303 l 6.0819703,9.5135 c 0.85045,1.32595 2.61109,1.71325 3.93478,0.8658 l 17.49918,-11.18707 c 7.79256,-10.75139 0.23038,-16.08882 0.0219,-8.67094 z"
         style="fill:#cfcccd;fill-opacity:1;fill-rule:nonzero;stroke:none"
         id="path11796"
         inkscape:connector-curvature="0" />
      <path
         sodipodi:nodetypes="ccccccccccccccccccccc"
         inkscape:connector-curvature="0"
         id="path4606-4"
         style="fill:#cfcccd;fill-opacity:1;fill-rule:nonzero;stroke:none"
         d="m 24.069767,23.606952 -0.324694,0.972778 -3.57098,0 c -0.101702,0.188434 0.01835,0.529421 0.01835,0.529421 l 3.569025,0 -0.204726,0.905622 -3.244984,0 c 1.008638,3.449708 3.997388,1.469597 3.997388,1.469597 l 0.204074,1.418091 c -4.850848,1.689321 -5.585647,-2.90464 -5.585647,-2.90464 l -0.920619,0 0.220376,-0.871066 0.563977,0 c 0.01835,-0.136927 0.03454,-0.665688 0.03454,-0.665688 l -0.785655,0 0.221679,-0.854115 0.649388,0 c 1.502848,-4.610914 5.704962,-2.579948 5.704962,-2.579948 l -0.410106,1.367888 C 21.217367,20.737519 20.33,23.606952 20.33,23.606952 z" />
    </g>
  </g>
</svg>
