<?xml version="1.0" encoding="UTF-8" standalone="no"?>
<!-- Created with Inkscape (http://www.inkscape.org/) -->

<svg
   xmlns:dc="http://purl.org/dc/elements/1.1/"
   xmlns:cc="http://creativecommons.org/ns#"
   xmlns:rdf="http://www.w3.org/1999/02/22-rdf-syntax-ns#"
   xmlns:svg="http://www.w3.org/2000/svg"
   xmlns="http://www.w3.org/2000/svg"
   xmlns:sodipodi="http://sodipodi.sourceforge.net/DTD/sodipodi-0.dtd"
   xmlns:inkscape="http://www.inkscape.org/namespaces/inkscape"
   width="48px"
   height="48px"
   id="svg28083"
   version="1.1"
   inkscape:version="0.48.4 r9943 custom"
   sodipodi:docname="euro-evolution.svg">
  <defs
     id="defs28085">
    <clipPath
       clipPathUnits="userSpaceOnUse"
       id="clipPath4901">
      <path
         inkscape:connector-curvature="0"
         d="m 315.748,1648.19 0.773,0 0,-0.63 -0.773,0 0,0.63 z"
         id="path4903" />
    </clipPath>
    <clipPath
       clipPathUnits="userSpaceOnUse"
       id="clipPath4905">
      <path
         inkscape:connector-curvature="0"
         d="m 315.759,1648.18 0.762,0 0,-0.62 -0.762,0 0,0.62 z"
         id="path4907" />
    </clipPath>
    <clipPath
       clipPathUnits="userSpaceOnUse"
       id="clipPath4909">
      <path
         inkscape:connector-curvature="0"
         d="m 315.748,1648.19 0.011,0 0,-0.01 -0.011,0 0,0.01 z"
         id="path4911" />
    </clipPath>
    <clipPath
       clipPathUnits="userSpaceOnUse"
       id="clipPath4857">
      <path
         inkscape:connector-curvature="0"
         d="m 327.146,1644.07 0.45,0 0,-0.02 -0.45,0 0,0.02 z"
         id="path4859" />
    </clipPath>
    <clipPath
       clipPathUnits="userSpaceOnUse"
       id="clipPath4861">
      <path
         inkscape:connector-curvature="0"
         d="m 327.146,1644.07 0.446,0 0,-0.02 -0.446,0 0,0.02 z"
         id="path4863" />
    </clipPath>
    <clipPath
       clipPathUnits="userSpaceOnUse"
       id="clipPath4865">
      <path
         inkscape:connector-curvature="0"
         d="m 327.592,1644.05 0.004,0 0,0 -0.004,0 z"
         id="path4867" />
    </clipPath>
  </defs>
  <sodipodi:namedview
     id="base"
     pagecolor="#ffffff"
     bordercolor="#666666"
     borderopacity="1.0"
     inkscape:pageopacity="0.0"
     inkscape:pageshadow="2"
     inkscape:zoom="7"
     inkscape:cx="26.60379"
     inkscape:cy="18.285714"
     inkscape:current-layer="layer1"
     showgrid="true"
     inkscape:grid-bbox="true"
     inkscape:document-units="px"
     inkscape:window-width="651"
     inkscape:window-height="653"
     inkscape:window-x="1333"
     inkscape:window-y="273"
     inkscape:window-maximized="0" />
  <metadata
     id="metadata28088">
    <rdf:RDF>
      <cc:Work
         rdf:about="">
        <dc:format>image/svg+xml</dc:format>
        <dc:type
           rdf:resource="http://purl.org/dc/dcmitype/StillImage" />
        <dc:title></dc:title>
      </cc:Work>
    </rdf:RDF>
  </metadata>
  <g
     id="layer1"
     inkscape:label="Layer 1"
     inkscape:groupmode="layer">
    <g
       transform="matrix(1.0897079,0,0,-1.0897079,15.525474,35.583726)"
       id="g3461">
      <path
         inkscape:connector-curvature="0"
         id="path3463"
         style="fill:#cfcccd;fill-opacity:1;fill-rule:nonzero;stroke:none"
         d="m -0.476,15.014 c 0.16,1.002 0.655,2.267 1.636,3.051 1.329,1.063 -0.887,0.975 -2.392,0.797 -1.506,-0.177 -4.782,0.709 -5.491,0.089 -0.708,-0.619 -0.443,-1.595 0.354,-2.125 0.465,-0.31 1.018,-1.161 1.4,-1.816 -4.523,-1.634 -7.9,-8.078 -7.9,-15.785 0,-0.984 0.057,-1.945 0.163,-2.88 0.192,-0.639 0.803,-2.125 2.341,-2.125 l 15.035,0 c 0,0 2.166,0.068 2.574,1.858 0.028,0.22 0.053,0.44 0.074,0.662 0.002,0.099 0.01,0.186 0.021,0.26 0.064,0.728 0.098,1.47 0.098,2.225 0,7.713 -3.383,14.162 -7.913,15.789"
         sodipodi:nodetypes="ccccccscsccccsc" />
      <path
         d="m 0.4541295,5.6214081 -0.42501136,-1.2733273 -4.67427204,0 C -4.77829,4.1014377 -4.6212579,3.6550904 -4.6212579,3.6550904 l 4.67171174,0 -0.2679791,-1.1854233 -4.24755374,0 C -3.1448123,-2.0458654 0.76734046,0.54602128 0.76734046,0.54602128 L 1.0344663,-1.3102031 c -6.3495678,-2.2112538 -7.3113908,3.8020596 -7.3113908,3.8020596 l -1.2050523,0 0.2884615,1.1401911 0.7382226,0 c 0.023896,0.1792217 0.045232,0.8713587 0.045232,0.8713587 l -1.0283909,0 0.2901684,1.1180018 0.8500227,0 c 1.9671711,6.0355029 7.4675697,3.3770478 7.4675697,3.3770478 L 0.63249773,7.2079461 C -3.2796551,9.3773816 -4.4411826,5.6214081 -4.4411826,5.6214081 z"
         style="fill:#ffffff;fill-opacity:1;fill-rule:nonzero;stroke:none"
         id="path4606"
         inkscape:connector-curvature="0"
         sodipodi:nodetypes="ccccccccccccccccccccc" />
    </g>
    <g
       transform="matrix(1.0897079,0,0,-1.0897079,33.864831,31.105724)"
       id="g3473">
      <path
         inkscape:connector-curvature="0"
         id="path3475"
         style="fill:#cfcccd;fill-opacity:1;fill-rule:nonzero;stroke:none"
         d="m 0,0 c -0.008,-0.021 -0.014,-0.043 -0.025,-0.064 -0.091,-0.184 -0.185,-0.358 -0.283,-0.53 0,-0.002 -0.002,-0.003 -0.002,-0.003 0.025,-0.116 0.027,-0.246 -0.003,-0.383 -0.102,-0.45 -0.289,-0.905 -0.54,-1.327 -0.2,-2.211 -2.082,-3.944 -4.374,-3.944 -2.425,0 -4.392,1.94 -4.392,4.334 0,0.205 0.015,0.407 0.044,0.605 -0.345,0.52 -0.645,1.064 -0.773,1.57 -0.294,-0.667 -0.46,-1.401 -0.46,-2.175 0,-3.04 2.498,-5.505 5.581,-5.505 3.081,0 5.582,2.465 5.582,5.505 C 0.355,-1.242 0.226,-0.597 0,0" />
    </g>
    <g
       transform="matrix(1.0897079,0,0,-1.0897079,33.736568,33.617195)"
       id="g3477">
      <path
         inkscape:connector-curvature="0"
         id="path3479"
         style="fill:#cfcccd;fill-opacity:1;fill-rule:nonzero;stroke:none"
         d="m 0,0 c -0.096,-0.576 -0.373,-1.148 -0.568,-1.701 -0.036,-0.107 -0.091,-0.203 -0.156,-0.285 0.002,-0.046 0.01,-0.09 0.01,-0.135 0,-2.312 -1.969,-4.186 -4.395,-4.186 -2.426,0 -4.392,1.874 -4.392,4.186 0,0.152 0.009,0.302 0.026,0.449 -0.37,0.54 -0.641,1.225 -0.637,1.887 -0.367,-0.704 -0.578,-1.495 -0.578,-2.336 0,-2.938 2.498,-5.316 5.581,-5.316 3.081,0 5.582,2.378 5.582,5.316 C 0.473,-1.365 0.301,-0.648 0,0" />
    </g>
    <g
       transform="matrix(1.0897079,0,0,-1.0897079,28.168814,35.126135)"
       id="g3481">
      <path
         inkscape:connector-curvature="0"
         id="path3483"
         style="fill:#cfcccd;fill-opacity:1;fill-rule:nonzero;stroke:none"
         d="m 0,0 c -2.425,0 -4.392,1.939 -4.392,4.334 0,2.393 1.967,4.333 4.392,4.333 2.427,0 4.395,-1.94 4.395,-4.333 C 4.395,1.939 2.427,0 0,0 m 0,9.84 c -3.083,0 -5.581,-2.466 -5.581,-5.506 0,-3.042 2.498,-5.506 5.581,-5.506 3.082,0 5.582,2.464 5.582,5.506 0,3.04 -2.5,5.506 -5.582,5.506" />
    </g>
    <path
       d="m 29.61047,29.283415 -0.231896,0.694756 -2.550386,0 c -0.07264,0.134579 0.0131,0.378111 0.0131,0.378111 l 2.548991,0 -0.146215,0.646794 -2.317561,0 c 0.720367,2.463774 2.854926,1.049583 2.854926,1.049583 l 0.14575,1.012798 c -3.464467,1.20651 -3.989259,-2.074488 -3.989259,-2.074488 l -0.657504,0 0.157392,-0.622114 0.402791,0 c 0.0131,-0.09779 0.02467,-0.475433 0.02467,-0.475433 l -0.561113,0 0.158322,-0.610007 0.463792,0 c 1.073331,-3.293106 4.074473,-1.842594 4.074473,-1.842594 l -0.292897,0.976943 c -2.134558,-1.183693 -2.768314,0.865651 -2.768314,0.865651 z"
       style="fill:#4d4d4d;fill-opacity:1;fill-rule:nonzero;stroke:none"
       id="path4606-4"
       inkscape:connector-curvature="0"
       sodipodi:nodetypes="ccccccccccccccccccccc" />
    <g
       transform="matrix(0.87363568,0,0,-0.87363568,28.232783,14.505174)"
       id="g13711">
      <path
         inkscape:connector-curvature="0"
         id="path13713"
         style="fill:#cfcccd;fill-opacity:1;fill-rule:nonzero;stroke:none"
         d="M 0,0 C 1.324,0 2.396,1.072 2.396,2.396 2.396,3.717 1.324,4.791 0,4.791 -1.322,4.791 -2.395,3.717 -2.395,2.396 -2.395,1.072 -1.322,0 0,0 m 5.703,-0.224 c 1.561,0 2.83,1.267 2.83,2.829 0,1.562 -1.269,2.83 -2.83,2.83 -1.562,0 -2.828,-1.268 -2.828,-2.83 0,-1.562 1.266,-2.829 2.828,-2.829 m 7.067,-0.647 c 2.144,0 3.886,1.738 3.886,3.886 0,2.146 -1.742,3.885 -3.886,3.885 -2.145,0 -3.883,-1.739 -3.883,-3.885 0,-2.148 1.738,-3.886 3.883,-3.886 m 0.035,-0.743 c -1.391,0 -2.651,-0.542 -3.588,-1.422 -0.594,1.338 -1.932,2.271 -3.49,2.271 -1.159,0 -2.194,-0.516 -2.895,-1.332 -0.557,0.979 -1.607,1.639 -2.809,1.639 -1.785,0 -3.232,-1.444 -3.232,-3.23 l 0,-5.919 5.121,0 0,-1.962 5.65,0 0,-4.893 10.485,0 0,9.606 c 0,2.896 -2.352,5.242 -5.242,5.242" />
    </g>
  </g>
</svg>
