<?xml version="1.0" encoding="UTF-8" standalone="no"?>
<!-- Created with Inkscape (http://www.inkscape.org/) -->

<svg
   xmlns:dc="http://purl.org/dc/elements/1.1/"
   xmlns:cc="http://creativecommons.org/ns#"
   xmlns:rdf="http://www.w3.org/1999/02/22-rdf-syntax-ns#"
   xmlns:svg="http://www.w3.org/2000/svg"
   xmlns="http://www.w3.org/2000/svg"
   xmlns:sodipodi="http://sodipodi.sourceforge.net/DTD/sodipodi-0.dtd"
   xmlns:inkscape="http://www.inkscape.org/namespaces/inkscape"
   width="48px"
   height="48px"
   id="svg28083"
   version="1.1"
   inkscape:version="0.48.4 r9939"
   sodipodi:docname="euro.svg">
  <defs
     id="defs28085">
    <clipPath
       clipPathUnits="userSpaceOnUse"
       id="clipPath4901">
      <path
         inkscape:connector-curvature="0"
         d="m 315.748,1648.19 0.773,0 0,-0.63 -0.773,0 0,0.63 z"
         id="path4903" />
    </clipPath>
    <clipPath
       clipPathUnits="userSpaceOnUse"
       id="clipPath4905">
      <path
         inkscape:connector-curvature="0"
         d="m 315.759,1648.18 0.762,0 0,-0.62 -0.762,0 0,0.62 z"
         id="path4907" />
    </clipPath>
    <clipPath
       clipPathUnits="userSpaceOnUse"
       id="clipPath4909">
      <path
         inkscape:connector-curvature="0"
         d="m 315.748,1648.19 0.011,0 0,-0.01 -0.011,0 0,0.01 z"
         id="path4911" />
    </clipPath>
    <clipPath
       clipPathUnits="userSpaceOnUse"
       id="clipPath4857">
      <path
         inkscape:connector-curvature="0"
         d="m 327.146,1644.07 0.45,0 0,-0.02 -0.45,0 0,0.02 z"
         id="path4859" />
    </clipPath>
    <clipPath
       clipPathUnits="userSpaceOnUse"
       id="clipPath4861">
      <path
         inkscape:connector-curvature="0"
         d="m 327.146,1644.07 0.446,0 0,-0.02 -0.446,0 0,0.02 z"
         id="path4863" />
    </clipPath>
    <clipPath
       clipPathUnits="userSpaceOnUse"
       id="clipPath4865">
      <path
         inkscape:connector-curvature="0"
         d="m 327.592,1644.05 0.004,0 0,0 -0.004,0 z"
         id="path4867" />
    </clipPath>
  </defs>
  <sodipodi:namedview
     id="base"
     pagecolor="#ffffff"
     bordercolor="#666666"
     borderopacity="1.0"
     inkscape:pageopacity="0.0"
     inkscape:pageshadow="2"
     inkscape:zoom="7"
     inkscape:cx="26.60379"
     inkscape:cy="18.285714"
     inkscape:current-layer="layer1"
     showgrid="true"
     inkscape:grid-bbox="true"
     inkscape:document-units="px"
     inkscape:window-width="1680"
     inkscape:window-height="1026"
     inkscape:window-x="1920"
     inkscape:window-y="24"
     inkscape:window-maximized="1" />
  <metadata
     id="metadata28088">
    <rdf:RDF>
      <cc:Work
         rdf:about="">
        <dc:format>image/svg+xml</dc:format>
        <dc:type
           rdf:resource="http://purl.org/dc/dcmitype/StillImage" />
        <dc:title />
      </cc:Work>
    </rdf:RDF>
  </metadata>
  <g
     id="layer1"
     inkscape:label="Layer 1"
     inkscape:groupmode="layer">
    <g
       id="g3005">
      <g
         id="g3461"
         transform="matrix(1.25,0,0,-1.25,21.588274,30.657237)">
        <path
           id="path3463"
           transform="matrix(0.8,0,0,-0.8,-17.270619,24.52579)"
           d="M 14.375 6.6875 C 13.837051 6.6961133 13.409062 6.775 13.1875 6.96875 C 12.3025 7.7425 12.62875 8.9625 13.625 9.625 C 14.20625 10.0125 14.8975 11.0875 15.375 11.90625 C 9.72125 13.94875 5.5 21.99125 5.5 31.625 C 5.5 32.855 5.58625 34.05 5.71875 35.21875 C 5.95875 36.0175 6.7025 37.875 8.625 37.875 L 27.4375 37.875 C 27.4375 37.875 30.14625 37.8 30.65625 35.5625 C 30.69125 35.2875 30.72375 34.99625 30.75 34.71875 C 30.7525 34.595 30.73625 34.49875 30.75 34.40625 C 30.83 33.49625 30.875 32.56875 30.875 31.625 C 30.875 21.98375 26.6625 13.90875 21 11.875 C 21.2 10.6225 21.805 9.0425 23.03125 8.0625 C 24.6925 6.73375 21.94375 6.87125 20.0625 7.09375 C 18.650625 7.2596875 15.988848 6.6616602 14.375 6.6875 z M 19.3125 18.6875 C 21.338745 18.57522 23.0625 19.40625 23.0625 19.40625 L 22.375 21.65625 C 17.484809 18.944456 16.03125 23.625 16.03125 23.625 L 22.15625 23.625 L 21.625 25.21875 L 15.78125 25.21875 C 15.61483 25.527054 15.8125 26.09375 15.8125 26.09375 L 21.65625 26.09375 L 21.3125 27.5625 L 16 27.5625 C 17.650333 33.206916 22.5625 29.96875 22.5625 29.96875 L 22.875 32.28125 C 14.93804 35.045317 13.75 27.53125 13.75 27.53125 L 12.25 27.53125 L 12.59375 26.125 L 13.53125 26.125 C 13.56112 25.900973 13.5625 25.03125 13.5625 25.03125 L 12.28125 25.03125 L 12.65625 23.625 L 13.71875 23.625 C 14.948232 19.852811 17.286255 18.79978 19.3125 18.6875 z "
           style="fill:#cfcccd;fill-opacity:1;fill-rule:nonzero;stroke:none" />
      </g>
      <g
         style="fill:#cfcccd"
         id="g3473"
         transform="matrix(1.25,0,0,-1.25,42.625284,25.520537)">
        <path
           d="m 0,0 c -0.008,-0.021 -0.014,-0.043 -0.025,-0.064 -0.091,-0.184 -0.185,-0.358 -0.283,-0.53 0,-0.002 -0.002,-0.003 -0.002,-0.003 0.025,-0.116 0.027,-0.246 -0.003,-0.383 -0.102,-0.45 -0.289,-0.905 -0.54,-1.327 -0.2,-2.211 -2.082,-3.944 -4.374,-3.944 -2.425,0 -4.392,1.94 -4.392,4.334 0,0.205 0.015,0.407 0.044,0.605 -0.345,0.52 -0.645,1.064 -0.773,1.57 -0.294,-0.667 -0.46,-1.401 -0.46,-2.175 0,-3.04 2.498,-5.505 5.581,-5.505 3.081,0 5.582,2.465 5.582,5.505 C 0.355,-1.242 0.226,-0.597 0,0"
           style="fill:#cfcccd;fill-opacity:1;fill-rule:nonzero;stroke:none"
           id="path3475"
           inkscape:connector-curvature="0" />
      </g>
      <g
         style="fill:#cfcccd"
         id="g3477"
         transform="matrix(1.25,0,0,-1.25,42.478154,28.401437)">
        <path
           d="m 0,0 c -0.096,-0.576 -0.373,-1.148 -0.568,-1.701 -0.036,-0.107 -0.091,-0.203 -0.156,-0.285 0.002,-0.046 0.01,-0.09 0.01,-0.135 0,-2.312 -1.969,-4.186 -4.395,-4.186 -2.426,0 -4.392,1.874 -4.392,4.186 0,0.152 0.009,0.302 0.026,0.449 -0.37,0.54 -0.641,1.225 -0.637,1.887 -0.367,-0.704 -0.578,-1.495 -0.578,-2.336 0,-2.938 2.498,-5.316 5.581,-5.316 3.081,0 5.582,2.378 5.582,5.316 C 0.473,-1.365 0.301,-0.648 0,0"
           style="fill:#cfcccd;fill-opacity:1;fill-rule:nonzero;stroke:none"
           id="path3479"
           inkscape:connector-curvature="0" />
      </g>
      <g
         style="fill:#cfcccd"
         id="g3481"
         transform="matrix(1.25,0,0,-1.25,36.091404,30.132337)">
        <path
           d="m 0,0 c -2.425,0 -4.392,1.939 -4.392,4.334 0,2.393 1.967,4.333 4.392,4.333 2.427,0 4.395,-1.94 4.395,-4.333 C 4.395,1.939 2.427,0 0,0 m 0,9.84 c -3.083,0 -5.581,-2.466 -5.581,-5.506 0,-3.042 2.498,-5.506 5.581,-5.506 3.082,0 5.582,2.464 5.582,5.506 0,3.04 -2.5,5.506 -5.582,5.506"
           style="fill:#cfcccd;fill-opacity:1;fill-rule:nonzero;stroke:none"
           id="path3483"
           inkscape:connector-curvature="0" />
      </g>
      <path
         sodipodi:nodetypes="ccccccccccccccccccccc"
         inkscape:connector-curvature="0"
         id="path4606-4"
         style="fill:#cfcccd;fill-opacity:1;fill-rule:nonzero;stroke:none"
         d="m 37.745122,23.430173 -0.266007,0.796952 -2.925539,0 c -0.08332,0.154375 0.01503,0.43373 0.01503,0.43373 l 2.923938,0 -0.167723,0.741935 -2.658466,0 c 0.826331,2.826187 3.274876,1.203973 3.274876,1.203973 l 0.167189,1.161777 c -3.974077,1.383983 -4.576064,-2.379638 -4.576064,-2.379638 l -0.754221,0 0.180544,-0.713625 0.46204,0 c 0.01503,-0.112178 0.0283,-0.545367 0.0283,-0.545367 l -0.643651,0 0.181611,-0.699737 0.532014,0 c 1.231214,-3.77751 4.673813,-2.113633 4.673813,-2.113633 l -0.335981,1.120648 c -2.448544,-1.35781 -3.175523,0.992985 -3.175523,0.992985 z" />
    </g>
  </g>
</svg>
