<?xml version="1.0" encoding="UTF-8" standalone="no"?>
<!-- Created with Inkscape (http://www.inkscape.org/) -->

<svg
   xmlns:dc="http://purl.org/dc/elements/1.1/"
   xmlns:cc="http://creativecommons.org/ns#"
   xmlns:rdf="http://www.w3.org/1999/02/22-rdf-syntax-ns#"
   xmlns:svg="http://www.w3.org/2000/svg"
   xmlns="http://www.w3.org/2000/svg"
   xmlns:sodipodi="http://sodipodi.sourceforge.net/DTD/sodipodi-0.dtd"
   xmlns:inkscape="http://www.inkscape.org/namespaces/inkscape"
   width="48px"
   height="48px"
   id="svg28083"
   version="1.1"
   inkscape:version="0.48.4 r9939"
   sodipodi:docname="euro-personnes.svg">
  <defs
     id="defs28085">
    <clipPath
       clipPathUnits="userSpaceOnUse"
       id="clipPath4901">
      <path
         inkscape:connector-curvature="0"
         d="m 315.748,1648.19 0.773,0 0,-0.63 -0.773,0 0,0.63 z"
         id="path4903" />
    </clipPath>
    <clipPath
       clipPathUnits="userSpaceOnUse"
       id="clipPath4905">
      <path
         inkscape:connector-curvature="0"
         d="m 315.759,1648.18 0.762,0 0,-0.62 -0.762,0 0,0.62 z"
         id="path4907" />
    </clipPath>
    <clipPath
       clipPathUnits="userSpaceOnUse"
       id="clipPath4909">
      <path
         inkscape:connector-curvature="0"
         d="m 315.748,1648.19 0.011,0 0,-0.01 -0.011,0 0,0.01 z"
         id="path4911" />
    </clipPath>
    <clipPath
       clipPathUnits="userSpaceOnUse"
       id="clipPath4857">
      <path
         inkscape:connector-curvature="0"
         d="m 327.146,1644.07 0.45,0 0,-0.02 -0.45,0 0,0.02 z"
         id="path4859" />
    </clipPath>
    <clipPath
       clipPathUnits="userSpaceOnUse"
       id="clipPath4861">
      <path
         inkscape:connector-curvature="0"
         d="m 327.146,1644.07 0.446,0 0,-0.02 -0.446,0 0,0.02 z"
         id="path4863" />
    </clipPath>
    <clipPath
       clipPathUnits="userSpaceOnUse"
       id="clipPath4865">
      <path
         inkscape:connector-curvature="0"
         d="m 327.592,1644.05 0.004,0 0,0 -0.004,0 z"
         id="path4867" />
    </clipPath>
  </defs>
  <sodipodi:namedview
     id="base"
     pagecolor="#ffffff"
     bordercolor="#666666"
     borderopacity="1.0"
     inkscape:pageopacity="0.0"
     inkscape:pageshadow="2"
     inkscape:zoom="7"
     inkscape:cx="26.60379"
     inkscape:cy="18.285714"
     inkscape:current-layer="layer1"
     showgrid="true"
     inkscape:grid-bbox="true"
     inkscape:document-units="px"
     inkscape:window-width="1855"
     inkscape:window-height="1056"
     inkscape:window-x="65"
     inkscape:window-y="24"
     inkscape:window-maximized="1" />
  <metadata
     id="metadata28088">
    <rdf:RDF>
      <cc:Work
         rdf:about="">
        <dc:format>image/svg+xml</dc:format>
        <dc:type
           rdf:resource="http://purl.org/dc/dcmitype/StillImage" />
        <dc:title />
      </cc:Work>
    </rdf:RDF>
  </metadata>
  <g
     id="layer1"
     inkscape:label="Layer 1"
     inkscape:groupmode="layer">
    <g
       id="g3006">
      <path
         id="path3463"
         d="M 9.21875 14.6875 C 8.749784 14.695009 8.3806507 14.768594 8.1875 14.9375 C 7.4159868 15.612029 7.7252528 16.672455 8.59375 17.25 C 9.1004642 17.587809 9.708732 18.504992 10.125 19.21875 C 5.1962516 20.999333 1.5 28.039121 1.5 36.4375 C 1.5 37.509772 1.5719906 38.543623 1.6875 39.5625 C 1.8967239 40.258824 2.5427793 41.875 4.21875 41.875 L 20.625 41.875 C 20.625 41.875 22.961649 41.794328 23.40625 39.84375 C 23.43676 39.604015 23.47712 39.366915 23.5 39.125 C 23.5022 39.017119 23.51927 38.924388 23.53125 38.84375 C 23.60099 38.050442 23.625 37.260229 23.625 36.4375 C 23.625 28.032583 19.936377 20.991704 15 19.21875 C 15.174353 18.126862 15.712247 16.760581 16.78125 15.90625 C 18.229472 14.74789 15.82751 14.837282 14.1875 15.03125 C 12.956675 15.175909 10.625648 14.664972 9.21875 14.6875 z M 13.53125 25.15625 C 15.297662 25.058368 16.8125 25.78125 16.8125 25.78125 L 16.21875 27.71875 C 11.955646 25.354699 10.6875 29.46875 10.6875 29.46875 L 16.03125 29.46875 L 15.5625 30.84375 L 10.46875 30.84375 C 10.323671 31.112519 10.5 31.59375 10.5 31.59375 L 15.59375 31.59375 L 15.28125 32.90625 L 10.65625 32.90625 C 12.094955 37.826862 16.375 35 16.375 35 L 16.65625 37 C 9.7370759 39.40962 8.6875 32.875 8.6875 32.875 L 7.375 32.875 L 7.6875 31.625 L 8.5 31.625 C 8.52604 31.429701 8.53125 30.6875 8.53125 30.6875 L 7.40625 30.6875 L 7.75 29.46875 L 8.65625 29.46875 C 9.7280711 26.180283 11.764838 25.254132 13.53125 25.15625 z "
         style="fill:#cfcccd;fill-opacity:1;fill-rule:nonzero;stroke:none" />
      <g
         style="fill:#cfcccd"
         id="g3473"
         transform="matrix(1.0897079,0,0,-1.0897079,33.864831,31.105724)">
        <path
           d="m 0,0 c -0.008,-0.021 -0.014,-0.043 -0.025,-0.064 -0.091,-0.184 -0.185,-0.358 -0.283,-0.53 0,-0.002 -0.002,-0.003 -0.002,-0.003 0.025,-0.116 0.027,-0.246 -0.003,-0.383 -0.102,-0.45 -0.289,-0.905 -0.54,-1.327 -0.2,-2.211 -2.082,-3.944 -4.374,-3.944 -2.425,0 -4.392,1.94 -4.392,4.334 0,0.205 0.015,0.407 0.044,0.605 -0.345,0.52 -0.645,1.064 -0.773,1.57 -0.294,-0.667 -0.46,-1.401 -0.46,-2.175 0,-3.04 2.498,-5.505 5.581,-5.505 3.081,0 5.582,2.465 5.582,5.505 C 0.355,-1.242 0.226,-0.597 0,0"
           style="fill:#cfcccd;fill-opacity:1;fill-rule:nonzero;stroke:none"
           id="path3475"
           inkscape:connector-curvature="0" />
      </g>
      <g
         style="fill:#cfcccd"
         id="g3477"
         transform="matrix(1.0897079,0,0,-1.0897079,33.736568,33.617195)">
        <path
           d="m 0,0 c -0.096,-0.576 -0.373,-1.148 -0.568,-1.701 -0.036,-0.107 -0.091,-0.203 -0.156,-0.285 0.002,-0.046 0.01,-0.09 0.01,-0.135 0,-2.312 -1.969,-4.186 -4.395,-4.186 -2.426,0 -4.392,1.874 -4.392,4.186 0,0.152 0.009,0.302 0.026,0.449 -0.37,0.54 -0.641,1.225 -0.637,1.887 -0.367,-0.704 -0.578,-1.495 -0.578,-2.336 0,-2.938 2.498,-5.316 5.581,-5.316 3.081,0 5.582,2.378 5.582,5.316 C 0.473,-1.365 0.301,-0.648 0,0"
           style="fill:#cfcccd;fill-opacity:1;fill-rule:nonzero;stroke:none"
           id="path3479"
           inkscape:connector-curvature="0" />
      </g>
      <g
         style="fill:#cfcccd"
         id="g3481"
         transform="matrix(1.0897079,0,0,-1.0897079,28.168814,35.126135)">
        <path
           d="m 0,0 c -2.425,0 -4.392,1.939 -4.392,4.334 0,2.393 1.967,4.333 4.392,4.333 2.427,0 4.395,-1.94 4.395,-4.333 C 4.395,1.939 2.427,0 0,0 m 0,9.84 c -3.083,0 -5.581,-2.466 -5.581,-5.506 0,-3.042 2.498,-5.506 5.581,-5.506 3.082,0 5.582,2.464 5.582,5.506 0,3.04 -2.5,5.506 -5.582,5.506"
           style="fill:#cfcccd;fill-opacity:1;fill-rule:nonzero;stroke:none"
           id="path3483"
           inkscape:connector-curvature="0" />
      </g>
      <path
         sodipodi:nodetypes="ccccccccccccccccccccc"
         inkscape:connector-curvature="0"
         id="path4606-4"
         style="fill:#cfcccd;fill-opacity:1;fill-rule:nonzero;stroke:none"
         d="m 29.61047,29.283415 -0.231896,0.694756 -2.550386,0 c -0.07264,0.134579 0.0131,0.378111 0.0131,0.378111 l 2.548991,0 -0.146215,0.646794 -2.317561,0 c 0.720367,2.463774 2.854926,1.049583 2.854926,1.049583 l 0.14575,1.012798 c -3.464467,1.20651 -3.989259,-2.074488 -3.989259,-2.074488 l -0.657504,0 0.157392,-0.622114 0.402791,0 c 0.0131,-0.09779 0.02467,-0.475433 0.02467,-0.475433 l -0.561113,0 0.158322,-0.610007 0.463792,0 c 1.073331,-3.293106 4.074473,-1.842594 4.074473,-1.842594 l -0.292897,0.976943 c -2.134558,-1.183693 -2.768314,0.865651 -2.768314,0.865651 z" />
      <g
         style="fill:#cfcccd"
         id="g13711"
         transform="matrix(0.87363568,0,0,-0.87363568,28.232783,14.505174)">
        <path
           d="M 0,0 C 1.324,0 2.396,1.072 2.396,2.396 2.396,3.717 1.324,4.791 0,4.791 -1.322,4.791 -2.395,3.717 -2.395,2.396 -2.395,1.072 -1.322,0 0,0 m 5.703,-0.224 c 1.561,0 2.83,1.267 2.83,2.829 0,1.562 -1.269,2.83 -2.83,2.83 -1.562,0 -2.828,-1.268 -2.828,-2.83 0,-1.562 1.266,-2.829 2.828,-2.829 m 7.067,-0.647 c 2.144,0 3.886,1.738 3.886,3.886 0,2.146 -1.742,3.885 -3.886,3.885 -2.145,0 -3.883,-1.739 -3.883,-3.885 0,-2.148 1.738,-3.886 3.883,-3.886 m 0.035,-0.743 c -1.391,0 -2.651,-0.542 -3.588,-1.422 -0.594,1.338 -1.932,2.271 -3.49,2.271 -1.159,0 -2.194,-0.516 -2.895,-1.332 -0.557,0.979 -1.607,1.639 -2.809,1.639 -1.785,0 -3.232,-1.444 -3.232,-3.23 l 0,-5.919 5.121,0 0,-1.962 5.65,0 0,-4.893 10.485,0 0,9.606 c 0,2.896 -2.352,5.242 -5.242,5.242"
           style="fill:#cfcccd;fill-opacity:1;fill-rule:nonzero;stroke:none"
           id="path13713"
           inkscape:connector-curvature="0" />
      </g>
    </g>
  </g>
</svg>
