<?xml version="1.0" encoding="UTF-8" standalone="no"?>
<!-- Created with Inkscape (http://www.inkscape.org/) -->

<svg
   xmlns:dc="http://purl.org/dc/elements/1.1/"
   xmlns:cc="http://creativecommons.org/ns#"
   xmlns:rdf="http://www.w3.org/1999/02/22-rdf-syntax-ns#"
   xmlns:svg="http://www.w3.org/2000/svg"
   xmlns="http://www.w3.org/2000/svg"
   xmlns:sodipodi="http://sodipodi.sourceforge.net/DTD/sodipodi-0.dtd"
   xmlns:inkscape="http://www.inkscape.org/namespaces/inkscape"
   width="48px"
   height="48px"
   id="svg28083"
   version="1.1"
   inkscape:version="0.48.4 r9943 custom"
   sodipodi:docname="dollar-temps-diminution.svg">
  <defs
     id="defs28085">
    <clipPath
       clipPathUnits="userSpaceOnUse"
       id="clipPath4901">
      <path
         inkscape:connector-curvature="0"
         d="m 315.748,1648.19 0.773,0 0,-0.63 -0.773,0 0,0.63 z"
         id="path4903" />
    </clipPath>
    <clipPath
       clipPathUnits="userSpaceOnUse"
       id="clipPath4905">
      <path
         inkscape:connector-curvature="0"
         d="m 315.759,1648.18 0.762,0 0,-0.62 -0.762,0 0,0.62 z"
         id="path4907" />
    </clipPath>
    <clipPath
       clipPathUnits="userSpaceOnUse"
       id="clipPath4909">
      <path
         inkscape:connector-curvature="0"
         d="m 315.748,1648.19 0.011,0 0,-0.01 -0.011,0 0,0.01 z"
         id="path4911" />
    </clipPath>
    <clipPath
       clipPathUnits="userSpaceOnUse"
       id="clipPath4857">
      <path
         inkscape:connector-curvature="0"
         d="m 327.146,1644.07 0.45,0 0,-0.02 -0.45,0 0,0.02 z"
         id="path4859" />
    </clipPath>
    <clipPath
       clipPathUnits="userSpaceOnUse"
       id="clipPath4861">
      <path
         inkscape:connector-curvature="0"
         d="m 327.146,1644.07 0.446,0 0,-0.02 -0.446,0 0,0.02 z"
         id="path4863" />
    </clipPath>
    <clipPath
       clipPathUnits="userSpaceOnUse"
       id="clipPath4865">
      <path
         inkscape:connector-curvature="0"
         d="m 327.592,1644.05 0.004,0 0,0 -0.004,0 z"
         id="path4867" />
    </clipPath>
  </defs>
  <sodipodi:namedview
     id="base"
     pagecolor="#ffffff"
     bordercolor="#666666"
     borderopacity="1.0"
     inkscape:pageopacity="0.0"
     inkscape:pageshadow="2"
     inkscape:zoom="7"
     inkscape:cx="26.60379"
     inkscape:cy="29.714285"
     inkscape:current-layer="layer1"
     showgrid="true"
     inkscape:grid-bbox="true"
     inkscape:document-units="px"
     inkscape:window-width="651"
     inkscape:window-height="653"
     inkscape:window-x="2303"
     inkscape:window-y="373"
     inkscape:window-maximized="0" />
  <metadata
     id="metadata28088">
    <rdf:RDF>
      <cc:Work
         rdf:about="">
        <dc:format>image/svg+xml</dc:format>
        <dc:type
           rdf:resource="http://purl.org/dc/dcmitype/StillImage" />
        <dc:title></dc:title>
      </cc:Work>
    </rdf:RDF>
  </metadata>
  <g
     id="layer1"
     inkscape:label="Layer 1"
     inkscape:groupmode="layer">
    <g
       id="g4600"
       transform="matrix(1.25,0,0,-1.25,23.714286,38.909017)">
      <path
         d="m 0,0 c -6.703,0 -12.158,5.402 -12.158,12.042 0,6.639 5.455,12.04 12.158,12.04 6.703,0 12.158,-5.401 12.158,-12.04 C 12.158,5.402 6.703,0 0,0 m 0,25.789 c -7.668,0 -13.887,-6.156 -13.887,-13.747 0,-7.594 6.219,-13.748 13.887,-13.748 7.668,0 13.887,6.154 13.887,13.748 0,7.591 -6.219,13.747 -13.887,13.747"
         style="fill:#cfcccd;fill-opacity:1;fill-rule:nonzero;stroke:none"
         id="path4602"
         inkscape:connector-curvature="0" />
    </g>
    <g
       id="g4604"
       transform="matrix(1.25,0,0,-1.25,27.478886,21.019717)">
      <path
         d="m 0,0 -0.498,-1.492 -5.477,0 c -0.156,-0.289 0.028,-0.812 0.028,-0.812 l 5.474,0 -0.314,-1.389 -4.977,0 c 1.547,-5.291 6.131,-2.254 6.131,-2.254 L 0.68,-8.122 c -7.44,-2.591 -8.567,4.455 -8.567,4.455 l -1.412,0 0.338,1.336 0.865,0 c 0.028,0.21 0.053,1.021 0.053,1.021 l -1.205,0 0.34,1.31 0.996,0 c 2.305,7.072 8.75,3.957 8.75,3.957 L 0.209,1.859 C -4.375,4.401 -5.736,0 -5.736,0 L 0,0 z m -3.012,8.795 c -6.166,0 -11.183,-4.964 -11.183,-11.065 0,-6.103 5.017,-11.067 11.183,-11.067 6.166,0 11.18,4.964 11.18,11.067 0,6.101 -5.014,11.065 -11.18,11.065"
         style="fill:#cfcccd;fill-opacity:1;fill-rule:nonzero;stroke:none"
         id="path4606"
         inkscape:connector-curvature="0" />
    </g>
  </g>
</svg>
