<?xml version="1.0" encoding="UTF-8" standalone="no"?>
<!-- Created with Inkscape (http://www.inkscape.org/) -->

<svg
   xmlns:dc="http://purl.org/dc/elements/1.1/"
   xmlns:cc="http://creativecommons.org/ns#"
   xmlns:rdf="http://www.w3.org/1999/02/22-rdf-syntax-ns#"
   xmlns:svg="http://www.w3.org/2000/svg"
   xmlns="http://www.w3.org/2000/svg"
   xmlns:sodipodi="http://sodipodi.sourceforge.net/DTD/sodipodi-0.dtd"
   xmlns:inkscape="http://www.inkscape.org/namespaces/inkscape"
   width="48px"
   height="48px"
   id="svg28083"
   version="1.1"
   inkscape:version="0.48.4 r9943 custom"
   sodipodi:docname="dollar-temps-diminution.svg">
  <defs
     id="defs28085">
    <clipPath
       clipPathUnits="userSpaceOnUse"
       id="clipPath4901">
      <path
         inkscape:connector-curvature="0"
         d="m 315.748,1648.19 0.773,0 0,-0.63 -0.773,0 0,0.63 z"
         id="path4903" />
    </clipPath>
    <clipPath
       clipPathUnits="userSpaceOnUse"
       id="clipPath4905">
      <path
         inkscape:connector-curvature="0"
         d="m 315.759,1648.18 0.762,0 0,-0.62 -0.762,0 0,0.62 z"
         id="path4907" />
    </clipPath>
    <clipPath
       clipPathUnits="userSpaceOnUse"
       id="clipPath4909">
      <path
         inkscape:connector-curvature="0"
         d="m 315.748,1648.19 0.011,0 0,-0.01 -0.011,0 0,0.01 z"
         id="path4911" />
    </clipPath>
    <clipPath
       clipPathUnits="userSpaceOnUse"
       id="clipPath4857">
      <path
         inkscape:connector-curvature="0"
         d="m 327.146,1644.07 0.45,0 0,-0.02 -0.45,0 0,0.02 z"
         id="path4859" />
    </clipPath>
    <clipPath
       clipPathUnits="userSpaceOnUse"
       id="clipPath4861">
      <path
         inkscape:connector-curvature="0"
         d="m 327.146,1644.07 0.446,0 0,-0.02 -0.446,0 0,0.02 z"
         id="path4863" />
    </clipPath>
    <clipPath
       clipPathUnits="userSpaceOnUse"
       id="clipPath4865">
      <path
         inkscape:connector-curvature="0"
         d="m 327.592,1644.05 0.004,0 0,0 -0.004,0 z"
         id="path4867" />
    </clipPath>
  </defs>
  <sodipodi:namedview
     id="base"
     pagecolor="#ffffff"
     bordercolor="#666666"
     borderopacity="1.0"
     inkscape:pageopacity="0.0"
     inkscape:pageshadow="2"
     inkscape:zoom="11.372114"
     inkscape:cx="26.599598"
     inkscape:cy="23.996219"
     inkscape:current-layer="layer1"
     showgrid="true"
     inkscape:grid-bbox="true"
     inkscape:document-units="px"
     inkscape:window-width="651"
     inkscape:window-height="653"
     inkscape:window-x="1829"
     inkscape:window-y="362"
     inkscape:window-maximized="0" />
  <metadata
     id="metadata28088">
    <rdf:RDF>
      <cc:Work
         rdf:about="">
        <dc:format>image/svg+xml</dc:format>
        <dc:type
           rdf:resource="http://purl.org/dc/dcmitype/StillImage" />
        <dc:title />
      </cc:Work>
    </rdf:RDF>
  </metadata>
  <g
     id="layer1"
     inkscape:label="Layer 1"
     inkscape:groupmode="layer">
    <g
       transform="matrix(0.93514044,0,0,-0.93514044,26.284819,34.191411)"
       id="g3461">
      <path
         inkscape:connector-curvature="0"
         id="path3463"
         style="fill:#cfcccd;fill-opacity:1;fill-rule:nonzero;stroke:none"
         d="m -0.476,15.014 c 0.16,1.002 0.655,2.267 1.636,3.051 1.329,1.063 -0.887,0.975 -2.392,0.797 -1.506,-0.177 -4.782,0.709 -5.491,0.089 -0.708,-0.619 -0.443,-1.595 0.354,-2.125 0.465,-0.31 1.018,-1.161 1.4,-1.816 -4.523,-1.634 -7.9,-8.078 -7.9,-15.785 0,-0.984 0.057,-1.945 0.163,-2.88 0.192,-0.639 0.803,-2.125 2.341,-2.125 l 15.035,0 c 0,0 2.166,0.068 2.574,1.858 0.028,0.22 0.053,0.44 0.074,0.662 0.002,0.099 0.01,0.186 0.021,0.26 0.064,0.728 0.098,1.47 0.098,2.225 0,7.713 -3.383,14.162 -7.913,15.789"
         sodipodi:nodetypes="ccccccscsccccsc" />
    </g>
    <g
       transform="matrix(0.93514044,0,0,-0.93514044,24.073025,30.136717)"
       id="g3465" />
    <g
       transform="matrix(0.93514044,0,0,-0.93514044,21.68449,26.894772)"
       id="g3469" />
    <g
       transform="matrix(0.93514044,0,0,-0.93514044,42.022866,30.348583)"
       id="g3473">
      <path
         inkscape:connector-curvature="0"
         id="path3475"
         style="fill:#cfcccd;fill-opacity:1;fill-rule:nonzero;stroke:none"
         d="m 0,0 c -0.008,-0.021 -0.014,-0.043 -0.025,-0.064 -0.091,-0.184 -0.185,-0.358 -0.283,-0.53 0,-0.002 -0.002,-0.003 -0.002,-0.003 0.025,-0.116 0.027,-0.246 -0.003,-0.383 -0.102,-0.45 -0.289,-0.905 -0.54,-1.327 -0.2,-2.211 -2.082,-3.944 -4.374,-3.944 -2.425,0 -4.392,1.94 -4.392,4.334 0,0.205 0.015,0.407 0.044,0.605 -0.345,0.52 -0.645,1.064 -0.773,1.57 -0.294,-0.667 -0.46,-1.401 -0.46,-2.175 0,-3.04 2.498,-5.505 5.581,-5.505 3.081,0 5.582,2.465 5.582,5.505 C 0.355,-1.242 0.226,-0.597 0,0" />
    </g>
    <g
       transform="matrix(0.93514044,0,0,-0.93514044,41.912797,32.503819)"
       id="g3477">
      <path
         inkscape:connector-curvature="0"
         id="path3479"
         style="fill:#cfcccd;fill-opacity:1;fill-rule:nonzero;stroke:none"
         d="m 0,0 c -0.096,-0.576 -0.373,-1.148 -0.568,-1.701 -0.036,-0.107 -0.091,-0.203 -0.156,-0.285 0.002,-0.046 0.01,-0.09 0.01,-0.135 0,-2.312 -1.969,-4.186 -4.395,-4.186 -2.426,0 -4.392,1.874 -4.392,4.186 0,0.152 0.009,0.302 0.026,0.449 -0.37,0.54 -0.641,1.225 -0.637,1.887 -0.367,-0.704 -0.578,-1.495 -0.578,-2.336 0,-2.938 2.498,-5.316 5.581,-5.316 3.081,0 5.582,2.378 5.582,5.316 C 0.473,-1.365 0.301,-0.648 0,0" />
    </g>
    <g
       transform="matrix(0.93514044,0,0,-0.93514044,37.13479,33.798727)"
       id="g3481">
      <path
         inkscape:connector-curvature="0"
         id="path3483"
         style="fill:#cfcccd;fill-opacity:1;fill-rule:nonzero;stroke:none"
         d="m 0,0 c -2.425,0 -4.392,1.939 -4.392,4.334 0,2.393 1.967,4.333 4.392,4.333 2.427,0 4.395,-1.94 4.395,-4.333 C 4.395,1.939 2.427,0 0,0 m 0,9.84 c -3.083,0 -5.581,-2.466 -5.581,-5.506 0,-3.042 2.498,-5.506 5.581,-5.506 3.082,0 5.582,2.464 5.582,5.506 0,3.04 -2.5,5.506 -5.582,5.506" />
    </g>
    <g
       transform="matrix(1.25,0,0,-1.25,11.283582,9.9545536)"
       id="g10447">
      <path
         inkscape:connector-curvature="0"
         id="path10449"
         style="fill:#cfcccd;fill-opacity:1;fill-rule:nonzero;stroke:none"
         d="m 0,0 c -0.059,0 -0.117,-0.003 -0.178,-0.005 l 0,-1.458 c 0.061,0.002 0.119,0.006 0.178,0.006 2.555,0 4.635,-2.08 4.635,-4.637 0,-2.553 -2.08,-4.634 -4.635,-4.634 -1.607,0 -3.025,0.824 -3.857,2.07 0.128,0.037 0.253,0.147 0.33,0.304 l 0.132,0.283 c 0.12,0.248 0.065,0.52 -0.121,0.607 L -5.02,-6.75 c -0.046,0.022 -0.099,0.029 -0.152,0.024 -0.183,0.025 -0.353,-0.042 -0.418,-0.179 l -0.703,-1.508 c -0.086,-0.186 0.047,-0.43 0.297,-0.545 l 0.281,-0.132 c 0.153,-0.071 0.309,-0.076 0.432,-0.031 1.053,-1.829 3.025,-3.066 5.283,-3.066 3.361,0 6.094,2.734 6.094,6.093 C 6.094,-2.733 3.361,0 0,0" />
    </g>
    <g
       transform="matrix(1.25,0,0,-1.25,9.9822124,17.142054)"
       id="g10451">
      <path
         inkscape:connector-curvature="0"
         id="path10453"
         style="fill:#cfcccd;fill-opacity:1;fill-rule:nonzero;stroke:none"
         d="M 0,0 C 0.062,-0.066 0.146,-0.106 0.238,-0.118 0.207,-0.204 0.189,-0.294 0.186,-0.387 0.174,-0.628 0.26,-0.857 0.422,-1.033 0.592,-1.22 0.834,-1.325 1.084,-1.325 l 0.002,0 c 0.225,0 0.441,0.083 0.609,0.236 0.26,0.24 0.346,0.6 0.252,0.919 0.071,0.002 0.131,0.025 0.182,0.068 l 1.342,1.14 C 3.529,1.088 3.564,1.16 3.568,1.242 3.572,1.342 3.529,1.442 3.449,1.523 3.313,1.662 3.096,1.69 2.969,1.583 L 1.629,0.442 C 1.596,0.415 1.57,0.382 1.555,0.343 1.414,0.429 1.252,0.476 1.084,0.476 0.949,0.476 0.814,0.443 0.695,0.386 0.68,0.449 0.65,0.507 0.605,0.556 L -1.156,2.458 C -1.23,2.537 -1.334,2.582 -1.443,2.582 -1.549,2.582 -1.65,2.543 -1.727,2.473 -1.809,2.396 -1.859,2.293 -1.863,2.184 -1.869,2.078 -1.832,1.979 -1.762,1.902 L 0,0 z" />
    </g>
    <g
       transform="matrix(0.77352515,0,0,-0.77352515,29.892956,11.492038)"
       id="g3549">
      <path
         inkscape:connector-curvature="0"
         id="path3551"
         style="fill:#cfcccd;fill-opacity:1;fill-rule:nonzero;stroke:none"
         d="M 0,0 -1.303,-2.518 -2.492,-5.115 0.496,-5.233 3.482,-5.352 2.32,-3.842 16.006,4.271 16.139,7.621 1.268,-1.65 0,0 z" />
    </g>
    <g
       transform="matrix(0.77352515,0,0,-0.77352515,42.213479,23.981746)"
       id="g3553">
      <path
         inkscape:connector-curvature="0"
         id="path3555"
         style="fill:#cfcccd;fill-opacity:1;fill-rule:nonzero;stroke:none"
         d="m 0,0 c 0,-0.897 -0.729,-1.624 -1.625,-1.624 l -1.709,0 c -0.896,0 -1.625,0.727 -1.625,1.624 l 0,14.415 c 0,0.898 0.729,1.624 1.625,1.624 l 1.709,0 C -0.729,16.039 0,15.313 0,14.415 L 0,0 z" />
    </g>
    <g
       transform="matrix(0.77352515,0,0,-0.77352515,37.099426,23.981746)"
       id="g3557">
      <path
         inkscape:connector-curvature="0"
         id="path3559"
         style="fill:#cfcccd;fill-opacity:1;fill-rule:nonzero;stroke:none"
         d="m 0,0 c 0,-0.897 -0.729,-1.624 -1.625,-1.624 l -1.711,0 c -0.898,0 -1.625,0.727 -1.625,1.624 l 0,10.732 c 0,0.898 0.727,1.624 1.625,1.624 l 1.711,0 C -0.729,12.356 0,11.63 0,10.732 L 0,0 z" />
    </g>
    <g
       transform="matrix(0.77352515,0,0,-0.77352515,29.335461,17.76644)"
       id="g3561">
      <path
         inkscape:connector-curvature="0"
         id="path3563"
         style="fill:#cfcccd;fill-opacity:1;fill-rule:nonzero;stroke:none"
         d="m 0,0 c -0.67,0 -1.217,-0.547 -1.217,-1.22 l 0,-6.815 c 0,-0.671 0.547,-1.22 1.217,-1.22 l 1.711,0 c 0.672,0 1.219,0.549 1.219,1.22 l 0,6.815 C 2.93,-0.547 2.383,0 1.711,0 L 0,0 z m 1.711,-10.065 -1.711,0 c -1.119,0 -2.029,0.911 -2.029,2.03 l 0,6.815 c 0,1.12 0.91,2.032 2.029,2.032 l 1.711,0 c 1.119,0 2.031,-0.912 2.031,-2.032 l 0,-6.815 c 0,-1.119 -0.912,-2.03 -2.031,-2.03" />
    </g>
    <path
       d="m 26.902638,29.326153 -0.423782,1.269646 -4.660754,0 c -0.132752,0.24593 0.02383,0.690986 0.02383,0.690986 l 4.658202,0 -0.267204,1.181995 -4.23527,0 c 1.316448,4.502475 5.217287,1.918083 5.217287,1.918083 l 0.266354,1.850857 c -6.331206,2.204859 -7.290248,-3.791065 -7.290248,-3.791065 l -1.201567,0 0.287628,-1.136894 0.736087,0 c 0.02383,-0.178703 0.0451,-0.868838 0.0451,-0.868838 l -1.025417,0 0.289329,-1.11477 0.847565,0 c 1.961483,-6.018049 7.445975,-3.367282 7.445975,-3.367282 l -0.535259,1.785332 c -3.90084,-2.163162 -5.059008,1.58195 -5.059008,1.58195 z"
       style="fill:#ffffff;fill-opacity:1;fill-rule:nonzero;stroke:none"
       id="path4606"
       inkscape:connector-curvature="0"
       sodipodi:nodetypes="ccccccccccccccccccccc" />
    <path
       d="m 38.311412,28.897059 -0.196523,0.588778 -2.161354,0 c -0.06156,0.114047 0.01105,0.320435 0.01105,0.320435 l 2.16017,0 -0.123912,0.548132 -1.964043,0 c 0.610484,2.087954 2.419439,0.889482 2.419439,0.889482 l 0.123517,0.858307 c -2.935999,1.022469 -3.38074,-1.758049 -3.38074,-1.758049 l -0.557209,0 0.133383,-0.527217 0.341349,0 c 0.01105,-0.08287 0.02092,-0.402911 0.02092,-0.402911 l -0.475522,0 0.134172,-0.516957 0.393045,0 c 0.909608,-2.79078 3.452958,-1.561526 3.452958,-1.561526 l -0.248218,0.82792 c -1.808956,-1.003134 -2.346039,0.733606 -2.346039,0.733606 z"
       style="fill:#4d4d4d;fill-opacity:1;fill-rule:nonzero;stroke:none"
       id="path4606-4"
       inkscape:connector-curvature="0"
       sodipodi:nodetypes="ccccccccccccccccccccc" />
  </g>
</svg>
