<?xml version="1.0" encoding="UTF-8" standalone="no"?>
<!-- Created with Inkscape (http://www.inkscape.org/) -->

<svg
   xmlns:dc="http://purl.org/dc/elements/1.1/"
   xmlns:cc="http://creativecommons.org/ns#"
   xmlns:rdf="http://www.w3.org/1999/02/22-rdf-syntax-ns#"
   xmlns:svg="http://www.w3.org/2000/svg"
   xmlns="http://www.w3.org/2000/svg"
   xmlns:sodipodi="http://sodipodi.sourceforge.net/DTD/sodipodi-0.dtd"
   xmlns:inkscape="http://www.inkscape.org/namespaces/inkscape"
   width="48px"
   height="48px"
   id="svg28083"
   version="1.1"
   inkscape:version="0.48.4 r9939"
   sodipodi:docname="euro-signe.svg">
  <defs
     id="defs28085">
    <clipPath
       clipPathUnits="userSpaceOnUse"
       id="clipPath4901">
      <path
         inkscape:connector-curvature="0"
         d="m 315.748,1648.19 0.773,0 0,-0.63 -0.773,0 0,0.63 z"
         id="path4903" />
    </clipPath>
    <clipPath
       clipPathUnits="userSpaceOnUse"
       id="clipPath4905">
      <path
         inkscape:connector-curvature="0"
         d="m 315.759,1648.18 0.762,0 0,-0.62 -0.762,0 0,0.62 z"
         id="path4907" />
    </clipPath>
    <clipPath
       clipPathUnits="userSpaceOnUse"
       id="clipPath4909">
      <path
         inkscape:connector-curvature="0"
         d="m 315.748,1648.19 0.011,0 0,-0.01 -0.011,0 0,0.01 z"
         id="path4911" />
    </clipPath>
    <clipPath
       clipPathUnits="userSpaceOnUse"
       id="clipPath4857">
      <path
         inkscape:connector-curvature="0"
         d="m 327.146,1644.07 0.45,0 0,-0.02 -0.45,0 0,0.02 z"
         id="path4859" />
    </clipPath>
    <clipPath
       clipPathUnits="userSpaceOnUse"
       id="clipPath4861">
      <path
         inkscape:connector-curvature="0"
         d="m 327.146,1644.07 0.446,0 0,-0.02 -0.446,0 0,0.02 z"
         id="path4863" />
    </clipPath>
    <clipPath
       clipPathUnits="userSpaceOnUse"
       id="clipPath4865">
      <path
         inkscape:connector-curvature="0"
         d="m 327.592,1644.05 0.004,0 0,0 -0.004,0 z"
         id="path4867" />
    </clipPath>
  </defs>
  <sodipodi:namedview
     id="base"
     pagecolor="#ffffff"
     bordercolor="#666666"
     borderopacity="1.0"
     inkscape:pageopacity="0.0"
     inkscape:pageshadow="2"
     inkscape:zoom="7"
     inkscape:cx="26.60379"
     inkscape:cy="29.714285"
     inkscape:current-layer="layer1"
     showgrid="true"
     inkscape:grid-bbox="true"
     inkscape:document-units="px"
     inkscape:window-width="651"
     inkscape:window-height="653"
     inkscape:window-x="2303"
     inkscape:window-y="351"
     inkscape:window-maximized="0" />
  <metadata
     id="metadata28088">
    <rdf:RDF>
      <cc:Work
         rdf:about="">
        <dc:format>image/svg+xml</dc:format>
        <dc:type
           rdf:resource="http://purl.org/dc/dcmitype/StillImage" />
        <dc:title />
      </cc:Work>
    </rdf:RDF>
  </metadata>
  <g
     id="layer1"
     inkscape:label="Layer 1"
     inkscape:groupmode="layer">
    <g
       id="g2997">
      <g
         style="fill:#cfcccd"
         transform="matrix(1.25,0,0,-1.25,23.714286,38.909017)"
         id="g4600">
        <path
           inkscape:connector-curvature="0"
           id="path4602"
           style="fill:#cfcccd;fill-opacity:1;fill-rule:nonzero;stroke:none"
           d="m 0,0 c -6.703,0 -12.158,5.402 -12.158,12.042 0,6.639 5.455,12.04 12.158,12.04 6.703,0 12.158,-5.401 12.158,-12.04 C 12.158,5.402 6.703,0 0,0 m 0,25.789 c -7.668,0 -13.887,-6.156 -13.887,-13.747 0,-7.594 6.219,-13.748 13.887,-13.748 7.668,0 13.887,6.154 13.887,13.748 0,7.591 -6.219,13.747 -13.887,13.747" />
      </g>
      <path
         d="m 27.478886,21.019717 -0.6225,1.865 -6.84625,0 c -0.195,0.36125 0.035,1.015 0.035,1.015 l 6.8425,0 -0.3925,1.73625 -6.22125,0 c 1.93375,6.61375 7.66375,2.8175 7.66375,2.8175 l 0.39125,2.71875 c -9.3,3.23875 -10.70875,-5.56875 -10.70875,-5.56875 l -1.765,0 0.4225,-1.67 1.08125,0 c 0.035,-0.2625 0.06625,-1.27625 0.06625,-1.27625 l -1.50625,0 0.425,-1.6375 1.245,0 c 2.88125,-8.84 10.9375,-4.94625 10.9375,-4.94625 l -0.78625,2.6225 c -5.73,-3.1775 -7.43125,2.32375 -7.43125,2.32375 l 7.17,0 z m -3.765,-10.99375 c -7.7075,0 -13.97875,6.205 -13.97875,13.83125 0,7.62875 6.27125,13.83375 13.97875,13.83375 7.7075,0 13.975,-6.205 13.975,-13.83375 0,-7.62625 -6.2675,-13.83125 -13.975,-13.83125"
         style="fill:#cfcccd;fill-opacity:1;fill-rule:nonzero;stroke:none"
         id="path4606"
         inkscape:connector-curvature="0" />
    </g>
  </g>
</svg>
