<?xml version="1.0" encoding="UTF-8" standalone="no"?>
<!-- Created with Inkscape (http://www.inkscape.org/) -->

<svg
   xmlns:dc="http://purl.org/dc/elements/1.1/"
   xmlns:cc="http://creativecommons.org/ns#"
   xmlns:rdf="http://www.w3.org/1999/02/22-rdf-syntax-ns#"
   xmlns:svg="http://www.w3.org/2000/svg"
   xmlns="http://www.w3.org/2000/svg"
   xmlns:sodipodi="http://sodipodi.sourceforge.net/DTD/sodipodi-0.dtd"
   xmlns:inkscape="http://www.inkscape.org/namespaces/inkscape"
   width="48px"
   height="48px"
   id="svg28083"
   version="1.1"
   inkscape:version="0.48.4 r9943 custom"
   sodipodi:docname="evolution.svg">
  <defs
     id="defs28085">
    <clipPath
       clipPathUnits="userSpaceOnUse"
       id="clipPath4901">
      <path
         inkscape:connector-curvature="0"
         d="m 315.748,1648.19 0.773,0 0,-0.63 -0.773,0 0,0.63 z"
         id="path4903" />
    </clipPath>
    <clipPath
       clipPathUnits="userSpaceOnUse"
       id="clipPath4905">
      <path
         inkscape:connector-curvature="0"
         d="m 315.759,1648.18 0.762,0 0,-0.62 -0.762,0 0,0.62 z"
         id="path4907" />
    </clipPath>
    <clipPath
       clipPathUnits="userSpaceOnUse"
       id="clipPath4909">
      <path
         inkscape:connector-curvature="0"
         d="m 315.748,1648.19 0.011,0 0,-0.01 -0.011,0 0,0.01 z"
         id="path4911" />
    </clipPath>
    <clipPath
       clipPathUnits="userSpaceOnUse"
       id="clipPath4857">
      <path
         inkscape:connector-curvature="0"
         d="m 327.146,1644.07 0.45,0 0,-0.02 -0.45,0 0,0.02 z"
         id="path4859" />
    </clipPath>
    <clipPath
       clipPathUnits="userSpaceOnUse"
       id="clipPath4861">
      <path
         inkscape:connector-curvature="0"
         d="m 327.146,1644.07 0.446,0 0,-0.02 -0.446,0 0,0.02 z"
         id="path4863" />
    </clipPath>
    <clipPath
       clipPathUnits="userSpaceOnUse"
       id="clipPath4865">
      <path
         inkscape:connector-curvature="0"
         d="m 327.592,1644.05 0.004,0 0,0 -0.004,0 z"
         id="path4867" />
    </clipPath>
  </defs>
  <sodipodi:namedview
     id="base"
     pagecolor="#ffffff"
     bordercolor="#666666"
     borderopacity="1.0"
     inkscape:pageopacity="0.0"
     inkscape:pageshadow="2"
     inkscape:zoom="7"
     inkscape:cx="26.60379"
     inkscape:cy="29.714285"
     inkscape:current-layer="layer1"
     showgrid="true"
     inkscape:grid-bbox="true"
     inkscape:document-units="px"
     inkscape:window-width="738"
     inkscape:window-height="634"
     inkscape:window-x="2236"
     inkscape:window-y="91"
     inkscape:window-maximized="0" />
  <metadata
     id="metadata28088">
    <rdf:RDF>
      <cc:Work
         rdf:about="">
        <dc:format>image/svg+xml</dc:format>
        <dc:type
           rdf:resource="http://purl.org/dc/dcmitype/StillImage" />
        <dc:title />
      </cc:Work>
    </rdf:RDF>
  </metadata>
  <g
     id="layer1"
     inkscape:label="Layer 1"
     inkscape:groupmode="layer">
    <g
       transform="matrix(1.814056,0,0,1.814056,7.0400713,6.5401636)"
       id="g12898"
       style="fill:#cfcccd">
      <g
         id="g12900"
         style="fill:#cfcccd">
        <path
           inkscape:connector-curvature="0"
           style="fill:#cfcccd"
           d="M 2.245,10.496 H 0.272 C 0.122,10.496 0,10.62 0,10.77 v 5.717 c 0,0.15 0.122,0.272 0.272,0.272 h 1.973 c 0.15,0 0.272,-0.122 0.272,-0.272 V 10.77 C 2.518,10.62 2.396,10.496 2.245,10.496 z"
           id="path12902" />
        <path
           inkscape:connector-curvature="0"
           style="fill:#cfcccd"
           d="m 18.504,10.496 h -1.973 c -0.15,0 -0.271,0.124 -0.271,0.274 v 5.717 c 0,0.15 0.121,0.272 0.271,0.272 h 1.973 c 0.152,0 0.273,-0.122 0.273,-0.272 V 10.77 c 0,-0.15 -0.121,-0.274 -0.273,-0.274 z"
           id="path12904" />
        <path
           inkscape:connector-curvature="0"
           style="fill:#cfcccd"
           d="M 5.907,7.228 H 3.934 c -0.15,0 -0.273,0.122 -0.273,0.273 v 8.984 c 0,0.15 0.123,0.272 0.273,0.272 h 1.973 c 0.151,0 0.273,-0.122 0.273,-0.272 V 7.501 C 6.18,7.349 6.058,7.228 5.907,7.228 z"
           id="path12906" />
        <path
           inkscape:connector-curvature="0"
           style="fill:#cfcccd"
           d="m 14.271,7.228 h -1.973 c -0.15,0 -0.271,0.122 -0.271,0.273 v 8.984 c 0,0.15 0.121,0.272 0.271,0.272 h 1.973 c 0.152,0 0.273,-0.122 0.273,-0.272 V 7.501 C 14.545,7.349 14.424,7.228 14.271,7.228 z"
           id="path12908" />
        <path
           inkscape:connector-curvature="0"
           style="fill:#cfcccd"
           d="M 10.01,9.218 H 8.036 c -0.15,0 -0.272,0.123 -0.272,0.272 v 6.994 c 0,0.15 0.122,0.272 0.272,0.272 h 1.974 c 0.152,0 0.273,-0.122 0.273,-0.272 V 9.49 c 0,-0.149 -0.121,-0.272 -0.273,-0.272 z"
           id="path12910" />
        <path
           inkscape:connector-curvature="0"
           style="fill:#cfcccd"
           d="M 1.259,6.947 C 1.84,6.947 2.31,6.477 2.31,5.896 2.31,5.795 2.291,5.7 2.264,5.608 L 4.475,4.017 c 0.136,0.064 0.286,0.102 0.446,0.102 0.309,0 0.583,-0.135 0.776,-0.347 L 7.784,4.98 c -0.012,0.062 -0.02,0.126 -0.02,0.19 0,0.58 0.471,1.051 1.051,1.051 0.559,0 1.012,-0.438 1.044,-0.989 l 2.814,-0.823 c 0.191,0.262 0.498,0.435 0.848,0.435 0.232,0 0.443,-0.077 0.617,-0.205 l 2.365,1.604 c -0.02,0.083 -0.037,0.17 -0.037,0.26 0,0.581 0.471,1.052 1.051,1.052 0.58,0 1.053,-0.471 1.053,-1.052 0,-0.581 -0.473,-1.051 -1.053,-1.051 -0.232,0 -0.443,0.077 -0.617,0.204 L 14.537,4.055 c 0.02,-0.084 0.035,-0.17 0.035,-0.26 0,-0.581 -0.469,-1.051 -1.051,-1.051 -0.559,0 -1.012,0.438 -1.045,0.989 L 9.663,4.555 C 9.472,4.292 9.164,4.12 8.815,4.12 8.556,4.12 8.323,4.216 8.14,4.371 L 5.968,3.112 c 0,-0.015 0.004,-0.028 0.004,-0.042 0,-0.581 -0.47,-1.052 -1.051,-1.052 -0.581,0 -1.051,0.47 -1.051,1.051 0,0.158 0.038,0.306 0.1,0.441 L 1.855,5.032 C 1.686,4.914 1.481,4.845 1.259,4.845 c -0.581,0 -1.051,0.471 -1.051,1.051 0,0.581 0.47,1.051 1.051,1.051 z"
           id="path12912" />
      </g>
    </g>
  </g>
</svg>
