<?xml version="1.0" encoding="UTF-8" standalone="no"?>
<!-- Created with Inkscape (http://www.inkscape.org/) -->

<svg
   xmlns:dc="http://purl.org/dc/elements/1.1/"
   xmlns:cc="http://creativecommons.org/ns#"
   xmlns:rdf="http://www.w3.org/1999/02/22-rdf-syntax-ns#"
   xmlns:svg="http://www.w3.org/2000/svg"
   xmlns="http://www.w3.org/2000/svg"
   xmlns:sodipodi="http://sodipodi.sourceforge.net/DTD/sodipodi-0.dtd"
   xmlns:inkscape="http://www.inkscape.org/namespaces/inkscape"
   width="48px"
   height="48px"
   id="svg28083"
   version="1.1"
   inkscape:version="0.48.4 r9943 custom"
   sodipodi:docname="institution.svg">
  <defs
     id="defs28085">
    <clipPath
       clipPathUnits="userSpaceOnUse"
       id="clipPath4901">
      <path
         inkscape:connector-curvature="0"
         d="m 315.748,1648.19 0.773,0 0,-0.63 -0.773,0 0,0.63 z"
         id="path4903" />
    </clipPath>
    <clipPath
       clipPathUnits="userSpaceOnUse"
       id="clipPath4905">
      <path
         inkscape:connector-curvature="0"
         d="m 315.759,1648.18 0.762,0 0,-0.62 -0.762,0 0,0.62 z"
         id="path4907" />
    </clipPath>
    <clipPath
       clipPathUnits="userSpaceOnUse"
       id="clipPath4909">
      <path
         inkscape:connector-curvature="0"
         d="m 315.748,1648.19 0.011,0 0,-0.01 -0.011,0 0,0.01 z"
         id="path4911" />
    </clipPath>
    <clipPath
       clipPathUnits="userSpaceOnUse"
       id="clipPath4857">
      <path
         inkscape:connector-curvature="0"
         d="m 327.146,1644.07 0.45,0 0,-0.02 -0.45,0 0,0.02 z"
         id="path4859" />
    </clipPath>
    <clipPath
       clipPathUnits="userSpaceOnUse"
       id="clipPath4861">
      <path
         inkscape:connector-curvature="0"
         d="m 327.146,1644.07 0.446,0 0,-0.02 -0.446,0 0,0.02 z"
         id="path4863" />
    </clipPath>
    <clipPath
       clipPathUnits="userSpaceOnUse"
       id="clipPath4865">
      <path
         inkscape:connector-curvature="0"
         d="m 327.592,1644.05 0.004,0 0,0 -0.004,0 z"
         id="path4867" />
    </clipPath>
  </defs>
  <sodipodi:namedview
     id="base"
     pagecolor="#ffffff"
     bordercolor="#666666"
     borderopacity="1.0"
     inkscape:pageopacity="0.0"
     inkscape:pageshadow="2"
     inkscape:zoom="7"
     inkscape:cx="26.60379"
     inkscape:cy="18.285714"
     inkscape:current-layer="layer1"
     showgrid="true"
     inkscape:grid-bbox="true"
     inkscape:document-units="px"
     inkscape:window-width="651"
     inkscape:window-height="653"
     inkscape:window-x="1333"
     inkscape:window-y="295"
     inkscape:window-maximized="0" />
  <metadata
     id="metadata28088">
    <rdf:RDF>
      <cc:Work
         rdf:about="">
        <dc:format>image/svg+xml</dc:format>
        <dc:type
           rdf:resource="http://purl.org/dc/dcmitype/StillImage" />
        <dc:title></dc:title>
      </cc:Work>
    </rdf:RDF>
  </metadata>
  <g
     id="layer1"
     inkscape:label="Layer 1"
     inkscape:groupmode="layer">
    <g
       transform="matrix(1.25,0,0,-1.25,38.907232,12.748456)"
       id="g10561">
      <path
         inkscape:connector-curvature="0"
         id="path10563"
         style="fill:#cfcccd;fill-opacity:1;fill-rule:nonzero;stroke:none"
         d="m 0,0 -12.395,4.928 c -0.07,0.026 -0.143,0.038 -0.217,0.033 -0.074,0.005 -0.146,-0.007 -0.216,-0.033 L -25.223,0 c -0.33,-0.132 -0.461,-0.581 -0.292,-1.005 l 0.277,-0.697 c 0.169,-0.425 0.573,-0.661 0.903,-0.53 l 11.723,4.66 11.724,-4.66 c 0.331,-0.131 0.734,0.105 0.903,0.53 l 0.277,0.697 C 0.461,-0.581 0.33,-0.132 0,0" />
    </g>
    <g
       transform="matrix(1.25,0,0,-1.25,33.968972,25.609856)"
       id="g10565">
      <path
         inkscape:connector-curvature="0"
         id="path10567"
         style="fill:#cfcccd;fill-opacity:1;fill-rule:nonzero;stroke:none"
         d="M 0,0 C 0.65,0 1.177,0.526 1.177,1.177 1.177,1.826 0.65,2.353 0,2.353 -0.65,2.353 -1.176,1.826 -1.176,1.177 -1.176,0.526 -0.65,0 0,0" />
    </g>
    <g
       transform="matrix(1.25,0,0,-1.25,37.333852,32.705856)"
       id="g10569">
      <path
         inkscape:connector-curvature="0"
         id="path10571"
         style="fill:#cfcccd;fill-opacity:1;fill-rule:nonzero;stroke:none"
         d="m 0,0 0,3.817 c 0,1.575 -1.305,1.528 -1.305,1.528 l -2.609,0 c -1.388,0 -1.4,-1.31 -1.4,-1.31 0,0 -0.108,-3.494 -0.108,-3.685 0,-0.193 -0.072,-0.709 0.443,-0.709 0.553,0 0.565,0.385 0.565,0.385 0,0 0.144,2.976 0.144,3.193 0,0.217 0,0.3 0.096,0.3 0.097,0 0.097,-0.167 0.097,-0.167 l 0.012,-9.137 c 0,0 -0.122,-0.708 0.575,-0.708 0.697,0 0.672,0.554 0.672,0.554 l 0,5.376 c 0,0 0,0.194 0.121,0.194 0.121,0 0.108,-0.204 0.108,-0.204 0,0 0.072,-4.923 0.072,-5.392 0,-0.469 0.264,-0.576 0.721,-0.576 0.455,0 0.527,0.361 0.527,0.361 l 0,0.599 c 0,0 0.061,8.596 0.061,8.933 0,0.336 0.126,0.275 0.126,0.275 0,0 0.115,-3.223 0.125,-3.541 0.012,-0.349 0.225,-0.47 0.591,-0.451 C 0.016,-0.348 0,0 0,0" />
    </g>
    <g
       transform="matrix(1.25,0,0,-1.25,24.458472,17.488456)"
       id="g10573">
      <path
         inkscape:connector-curvature="0"
         id="path10575"
         style="fill:#cfcccd;fill-opacity:1;fill-rule:nonzero;stroke:none"
         d="m 0,0 c 0.996,0 1.802,0.806 1.802,1.803 0,0.994 -0.806,1.8 -1.802,1.8 -0.996,0 -1.801,-0.806 -1.801,-1.8 C -1.801,0.806 -0.996,0 0,0" />
    </g>
    <g
       transform="matrix(1.25,0,0,-1.25,29.612852,28.357756)"
       id="g10577">
      <path
         inkscape:connector-curvature="0"
         id="path10579"
         style="fill:#cfcccd;fill-opacity:1;fill-rule:nonzero;stroke:none"
         d="m 0,0 0,5.848 c 0,2.41 -1.999,2.338 -1.999,2.338 l -3.996,0 c -2.127,0 -2.145,-2.005 -2.145,-2.005 0,0 -0.165,-5.352 -0.165,-5.646 0,-0.293 -0.111,-1.085 0.68,-1.085 0.846,0 0.864,0.589 0.864,0.589 0,0 0.221,4.561 0.221,4.891 0,0.332 0,0.46 0.147,0.46 0.147,0 0.147,-0.256 0.147,-0.256 l 0.019,-13.995 c 0,0 -0.184,-1.084 0.883,-1.084 1.066,0 1.029,0.845 1.029,0.845 l 0,8.238 c 0,0 0,0.295 0.184,0.295 0.184,0 0.166,-0.313 0.166,-0.313 0,0 0.111,-7.538 0.111,-8.256 0,-0.718 0.403,-0.884 1.103,-0.884 0.698,0 0.808,0.552 0.808,0.552 l 0,0.919 c 0,0 0.092,13.166 0.092,13.683 0,0.513 0.194,0.421 0.194,0.421 0,0 0.175,-4.938 0.193,-5.424 0.017,-0.533 0.344,-0.718 0.902,-0.692 C 0.025,-0.532 0,0 0,0" />
    </g>
    <g
       transform="matrix(1.25,0,0,-1.25,12.896603,20.327856)"
       id="g10581">
      <path
         inkscape:connector-curvature="0"
         id="path10583"
         style="fill:#cfcccd;fill-opacity:1;fill-rule:nonzero;stroke:none"
         d="M 0,0 C 0.875,0 1.584,0.708 1.584,1.582 1.584,2.456 0.875,3.165 0,3.165 -0.874,3.165 -1.582,2.456 -1.582,1.582 -1.582,0.708 -0.874,0 0,0" />
    </g>
    <g
       transform="matrix(1.25,0,0,-1.25,18.666852,28.745856)"
       id="g10585">
      <path
         inkscape:connector-curvature="0"
         id="path10587"
         style="fill:#cfcccd;fill-opacity:1;fill-rule:nonzero;stroke:none"
         d="m 0,0 c 0,0 -0.763,2.859 -1.394,4.881 -0.548,1.757 -2.58,1.533 -2.58,1.533 L -4.551,6.41 -5.125,6.414 c 0,0 -2.032,0.224 -2.581,-1.533 C -8.336,2.859 -9.099,0 -9.099,0 c 0,0 -0.07,-0.627 0.349,-0.769 0,0 0.645,-0.397 0.997,0.793 0.35,1.194 1.156,3.927 1.156,3.927 l 0.139,0.386 0.141,-3.26 -1.577,-3.751 c 0,0 -0.351,-0.701 0.351,-0.736 0.49,-0.024 0.861,-0.015 1.04,-0.008 l 0.005,-5.272 c 0,0 -0.16,-0.955 0.776,-0.955 0.938,0 0.905,0.745 0.905,0.745 l -10e-4,5.49 0.333,0 c 0.029,-2.008 0.072,-5.102 0.072,-5.523 0,-0.631 0.357,-0.776 0.969,-0.776 0.614,0 0.712,0.485 0.712,0.485 l 0,0.807 c 0,0 0.016,2.37 0.034,5.006 0.08,-0.005 0.51,-0.032 1.143,10e-4 0.701,0.035 0.349,0.736 0.349,0.736 l -1.575,3.751 0.139,3.26 0.14,-0.386 c 0,0 0.805,-2.733 1.158,-3.927 0.35,-1.19 0.996,-0.793 0.996,-0.793 C 0.071,-0.627 0,0 0,0" />
    </g>
  </g>
</svg>
