<?xml version="1.0" encoding="UTF-8" standalone="no"?>
<!-- Created with Inkscape (http://www.inkscape.org/) -->

<svg
   xmlns:dc="http://purl.org/dc/elements/1.1/"
   xmlns:cc="http://creativecommons.org/ns#"
   xmlns:rdf="http://www.w3.org/1999/02/22-rdf-syntax-ns#"
   xmlns:svg="http://www.w3.org/2000/svg"
   xmlns="http://www.w3.org/2000/svg"
   xmlns:sodipodi="http://sodipodi.sourceforge.net/DTD/sodipodi-0.dtd"
   xmlns:inkscape="http://www.inkscape.org/namespaces/inkscape"
   width="48px"
   height="48px"
   id="svg28083"
   version="1.1"
   inkscape:version="0.48.4 r9943 custom"
   sodipodi:docname="cardio.svg">
  <defs
     id="defs28085">
    <clipPath
       clipPathUnits="userSpaceOnUse"
       id="clipPath4901">
      <path
         inkscape:connector-curvature="0"
         d="m 315.748,1648.19 0.773,0 0,-0.63 -0.773,0 0,0.63 z"
         id="path4903" />
    </clipPath>
    <clipPath
       clipPathUnits="userSpaceOnUse"
       id="clipPath4905">
      <path
         inkscape:connector-curvature="0"
         d="m 315.759,1648.18 0.762,0 0,-0.62 -0.762,0 0,0.62 z"
         id="path4907" />
    </clipPath>
    <clipPath
       clipPathUnits="userSpaceOnUse"
       id="clipPath4909">
      <path
         inkscape:connector-curvature="0"
         d="m 315.748,1648.19 0.011,0 0,-0.01 -0.011,0 0,0.01 z"
         id="path4911" />
    </clipPath>
    <clipPath
       clipPathUnits="userSpaceOnUse"
       id="clipPath4857">
      <path
         inkscape:connector-curvature="0"
         d="m 327.146,1644.07 0.45,0 0,-0.02 -0.45,0 0,0.02 z"
         id="path4859" />
    </clipPath>
    <clipPath
       clipPathUnits="userSpaceOnUse"
       id="clipPath4861">
      <path
         inkscape:connector-curvature="0"
         d="m 327.146,1644.07 0.446,0 0,-0.02 -0.446,0 0,0.02 z"
         id="path4863" />
    </clipPath>
    <clipPath
       clipPathUnits="userSpaceOnUse"
       id="clipPath4865">
      <path
         inkscape:connector-curvature="0"
         d="m 327.592,1644.05 0.004,0 0,0 -0.004,0 z"
         id="path4867" />
    </clipPath>
  </defs>
  <sodipodi:namedview
     id="base"
     pagecolor="#ffffff"
     bordercolor="#666666"
     borderopacity="1.0"
     inkscape:pageopacity="0.0"
     inkscape:pageshadow="2"
     inkscape:zoom="7"
     inkscape:cx="26.60379"
     inkscape:cy="18.285714"
     inkscape:current-layer="layer1"
     showgrid="true"
     inkscape:grid-bbox="true"
     inkscape:document-units="px"
     inkscape:window-width="651"
     inkscape:window-height="653"
     inkscape:window-x="1333"
     inkscape:window-y="295"
     inkscape:window-maximized="0" />
  <metadata
     id="metadata28088">
    <rdf:RDF>
      <cc:Work
         rdf:about="">
        <dc:format>image/svg+xml</dc:format>
        <dc:type
           rdf:resource="http://purl.org/dc/dcmitype/StillImage" />
        <dc:title></dc:title>
      </cc:Work>
    </rdf:RDF>
  </metadata>
  <g
     id="layer1"
     inkscape:label="Layer 1"
     inkscape:groupmode="layer">
    <g
       transform="matrix(1.25,0,0,-1.25,41.778504,24.899598)"
       id="g8881">
      <path
         inkscape:connector-curvature="0"
         id="path8883"
         style="fill:#cfcccd;fill-opacity:1;fill-rule:nonzero;stroke:none"
         d="m 0,0 1.077,0 c 0.475,0 0.862,0.386 0.862,0.861 0,0.478 -0.387,0.862 -0.862,0.862 l -1.249,0 2.154,2.156 c 0.336,0.336 0.336,0.882 0,1.219 -0.337,0.336 -0.881,0.336 -1.219,0 l -3.373,-3.375 -1.785,0 2.154,2.156 c 0.337,0.336 0.337,0.882 0,1.219 -0.336,0.336 -0.882,0.336 -1.218,0 l -3.374,-3.375 -5.502,0 4.063,4.064 4.527,-0.002 c 0.476,0.002 0.861,0.386 0.861,0.863 0,0.476 -0.385,0.862 -0.861,0.862 l -2.804,0 1.263,1.262 4.527,0 c 0.475,0 0.862,0.386 0.862,0.863 0,0.475 -0.387,0.859 -0.862,0.859 l -2.804,0 0.763,0.763 c 0.336,0.339 0.336,0.882 0,1.219 -0.338,0.338 -0.883,0.338 -1.22,0 l -0.882,-0.882 0,3.045 c 0,0.477 -0.388,0.861 -0.863,0.861 -0.476,0 -0.861,-0.384 -0.861,-0.861 l 0,-4.77 -1.262,-1.263 0,3.048 c 0,0.476 -0.388,0.862 -0.863,0.862 -0.476,0 -0.861,-0.386 -0.861,-0.862 l 0,-4.771 -4.063,-4.064 0,5.747 3.373,3.373 c 0.337,0.337 0.337,0.882 0,1.219 -0.336,0.336 -0.882,0.336 -1.219,0 l -2.154,-2.154 0,1.785 3.373,3.375 c 0.337,0.336 0.337,0.88 0,1.219 -0.336,0.334 -0.882,0.334 -1.219,0 l -2.154,-2.156 0,1.216 c 0,0.478 -0.386,0.864 -0.862,0.864 -0.477,0 -0.861,-0.386 -0.861,-0.864 l 0,-1.046 -1.983,1.986 c -0.337,0.334 -0.883,0.334 -1.219,0 -0.336,-0.339 -0.336,-0.883 0,-1.219 l 3.202,-3.202 0,-1.785 -1.983,1.981 c -0.337,0.336 -0.883,0.336 -1.219,0 -0.336,-0.337 -0.336,-0.882 0,-1.219 l 3.202,-3.199 0,-5.748 -3.892,3.893 0,4.769 c 0,0.476 -0.385,0.862 -0.861,0.862 -0.476,0 -0.862,-0.386 -0.862,-0.862 l 0,-3.048 -1.262,1.263 0,4.77 c 0,0.477 -0.386,0.861 -0.862,0.861 -0.476,0 -0.862,-0.384 -0.862,-0.861 l 0,-3.045 -0.861,0.859 c -0.337,0.338 -0.882,0.338 -1.219,0 -0.336,-0.337 -0.336,-0.883 0,-1.219 l 0.739,-0.74 -2.803,0 c -0.476,0 -0.861,-0.384 -0.861,-0.859 0,-0.477 0.385,-0.863 0.861,-0.863 l 4.528,0 1.261,-1.262 -2.803,0 c -0.476,0 -0.862,-0.386 -0.862,-0.862 0,-0.477 0.386,-0.861 0.862,-0.861 l 4.527,0 4.062,-4.064 -5.502,0 -3.373,3.375 c -0.336,0.336 -0.882,0.336 -1.218,0 -0.337,-0.337 -0.337,-0.883 0,-1.219 l 2.153,-2.156 -1.784,0 -3.374,3.375 c -0.337,0.336 -0.882,0.336 -1.218,0 -0.337,-0.337 -0.337,-0.883 0,-1.219 l 2.155,-2.156 -1.218,0 c -0.477,0 -0.864,-0.384 -0.864,-0.862 0,-0.475 0.387,-0.861 0.864,-0.861 l 1.046,0 -1.983,-1.982 c -0.337,-0.337 -0.337,-0.883 0,-1.219 0.336,-0.337 0.881,-0.337 1.218,0 l 3.202,3.201 1.785,0 -1.982,-1.982 c -0.337,-0.337 -0.337,-0.883 0,-1.219 0.336,-0.337 0.882,-0.337 1.218,0 l 3.201,3.201 5.746,0 -3.89,-3.892 -4.772,0 c -0.475,0 -0.861,-0.385 -0.861,-0.861 0,-0.476 0.386,-0.861 0.861,-0.861 l 3.048,0 -1.262,-1.263 -4.771,0 c -0.476,0 -0.861,-0.386 -0.861,-0.862 0,-0.476 0.385,-0.86 0.861,-0.86 l 3.047,0 -0.861,-0.863 c -0.336,-0.337 -0.336,-0.882 0,-1.219 0.337,-0.337 0.882,-0.337 1.218,0 l 0.74,0.74 0,-2.804 c 0,-0.476 0.386,-0.859 0.861,-0.859 0.477,0 0.863,0.383 0.863,0.859 l 0,4.528 1.262,1.263 0,-2.803 c 0,-0.477 0.385,-0.863 0.862,-0.863 0.476,0 0.861,0.386 0.861,0.863 l 0,4.525 3.892,3.892 0,-5.502 -3.202,-3.202 c -0.336,-0.337 -0.336,-0.882 0,-1.219 0.336,-0.336 0.882,-0.336 1.219,0 l 1.983,1.982 0,-1.785 -3.202,-3.201 c -0.336,-0.336 -0.336,-0.881 0,-1.218 0.336,-0.336 0.882,-0.336 1.219,0 l 1.983,1.983 0,-1.078 c 0,-0.476 0.384,-0.861 0.861,-0.861 0.476,0 0.862,0.385 0.862,0.861 l 0,1.249 2.154,-2.154 c 0.337,-0.336 0.883,-0.336 1.219,0 0.337,0.337 0.337,0.882 0,1.218 l -3.373,3.373 0,1.786 2.154,-2.155 c 0.337,-0.336 0.883,-0.336 1.219,0 0.337,0.337 0.337,0.882 0,1.219 l -3.373,3.373 0,5.504 4.064,-4.065 -10e-4,-4.525 c 10e-4,-0.477 0.385,-0.863 0.861,-0.863 0.477,0 0.863,0.386 0.863,0.863 l 0,2.803 1.262,-1.263 0,-4.528 c 0,-0.476 0.385,-0.859 0.862,-0.859 0.475,0 0.862,0.383 0.862,0.859 l 0,2.806 0.76,-0.762 c 0.337,-0.337 0.883,-0.337 1.22,0 0.337,0.336 0.337,0.882 0,1.218 l -0.883,0.884 3.046,0 c 0.475,0 0.862,0.384 0.862,0.86 0,0.476 -0.386,0.862 -0.862,0.862 l -4.771,0 -1.262,1.263 3.047,0 c 0.476,0 0.861,0.385 0.861,0.861 0,0.476 -0.385,0.861 -0.861,0.861 l -4.771,0 -3.89,3.892 5.745,0 3.202,-3.201 c 0.336,-0.337 0.882,-0.337 1.218,0 0.337,0.336 0.337,0.882 0,1.219 L -4.223,0 -2.438,0 0.763,-3.201 c 0.338,-0.337 0.882,-0.337 1.219,0 0.336,0.336 0.336,0.882 0,1.219 L 0,0 z" />
    </g>
  </g>
</svg>
