<?xml version="1.0" encoding="UTF-8" standalone="no"?>
<!-- Created with Inkscape (http://www.inkscape.org/) -->

<svg
   xmlns:dc="http://purl.org/dc/elements/1.1/"
   xmlns:cc="http://creativecommons.org/ns#"
   xmlns:rdf="http://www.w3.org/1999/02/22-rdf-syntax-ns#"
   xmlns:svg="http://www.w3.org/2000/svg"
   xmlns="http://www.w3.org/2000/svg"
   xmlns:sodipodi="http://sodipodi.sourceforge.net/DTD/sodipodi-0.dtd"
   xmlns:inkscape="http://www.inkscape.org/namespaces/inkscape"
   width="48px"
   height="48px"
   id="svg3210"
   version="1.1"
   inkscape:version="0.48.4 r9939"
   sodipodi:docname="foncier-interrogation.svg">
  <defs
     id="defs3212" />
  <sodipodi:namedview
     id="base"
     pagecolor="#ffffff"
     bordercolor="#666666"
     borderopacity="1.0"
     inkscape:pageopacity="0.0"
     inkscape:pageshadow="2"
     inkscape:zoom="7.04"
     inkscape:cx="37.193808"
     inkscape:cy="26.812944"
     inkscape:current-layer="layer1"
     showgrid="true"
     inkscape:grid-bbox="true"
     inkscape:document-units="px"
     inkscape:window-width="790"
     inkscape:window-height="601"
     inkscape:window-x="2259"
     inkscape:window-y="340"
     inkscape:window-maximized="0" />
  <metadata
     id="metadata3215">
    <rdf:RDF>
      <cc:Work
         rdf:about="">
        <dc:format>image/svg+xml</dc:format>
        <dc:type
           rdf:resource="http://purl.org/dc/dcmitype/StillImage" />
        <dc:title />
      </cc:Work>
    </rdf:RDF>
  </metadata>
  <g
     id="layer1"
     inkscape:label="Layer 1"
     inkscape:groupmode="layer">
    <g
       id="g3006">
      <g
         style="fill:#cfcccd"
         transform="matrix(1.25,0,0,-1.25,15.382886,13.37621)"
         id="g11082">
        <path
           inkscape:connector-curvature="0"
           id="path11084"
           style="fill:#cfcccd;fill-opacity:1;fill-rule:nonzero;stroke:none"
           d="M 0,0 -4.623,2.672 C -4.789,2.767 -5.061,2.767 -5.225,2.668 l -1.791,-1.072 0,1.082 -1.097,0 0,-1.739 -0.741,-0.442 -0.822,-0.491 c -0.166,-0.099 -0.142,-0.179 0.049,-0.179 l 0.773,0 0,-3.262 7.858,0 0,3.262 0.947,0 C 0.145,-0.173 0.166,-0.095 0,0" />
      </g>
      <g
         style="fill:#cfcccd"
         transform="matrix(1.25,0,0,-1.25,29.550386,7.4813096)"
         id="g11086">
        <path
           inkscape:connector-curvature="0"
           id="path11088"
           style="fill:#cfcccd;fill-opacity:1;fill-rule:nonzero;stroke:none"
           d="M 0,0 -4.623,2.671 C -4.789,2.766 -5.059,2.764 -5.225,2.665 l -1.791,-1.07 0,1.082 -1.097,0 0,-1.74 -0.741,-0.441 -0.822,-0.493 c -0.166,-0.097 -0.142,-0.177 0.051,-0.177 l 0.771,0 0,-3.26 7.858,0 0,3.26 0.949,0 C 0.145,-0.174 0.164,-0.096 0,0" />
      </g>
      <g
         style="fill:#cfcccd"
         transform="matrix(1.25,0,0,-1.25,43.795986,18.677609)"
         id="g11090">
        <path
           inkscape:connector-curvature="0"
           id="path11092"
           style="fill:#cfcccd;fill-opacity:1;fill-rule:nonzero;stroke:none"
           d="M 0,0 -4.621,2.669 C -4.789,2.765 -5.059,2.765 -5.223,2.666 l -1.791,-1.071 0,1.08 -1.099,0 0,-1.738 -0.739,-0.441 -0.002,0 -0.82,-0.492 c -0.166,-0.099 -0.142,-0.179 0.049,-0.179 l 0.771,0 0,-3.261 7.858,0 0,3.261 0.949,0 C 0.146,-0.175 0.166,-0.097 0,0" />
      </g>
      <path
         inkscape:connector-curvature="0"
         id="path11094"
         style="fill:#cfcccd;fill-opacity:1;fill-rule:nonzero;stroke:none"
         d="m 14.137786,22.972149 -9.8212001,0 0,-4.0762 9.8212001,0 0,4.0762 z" />
      <path
         inkscape:connector-curvature="0"
         id="path11096"
         style="fill:#cfcccd;fill-opacity:1;fill-rule:nonzero;stroke:none"
         d="m 14.137786,28.195949 -9.8212001,0 0,-4.0763 9.8212001,0 0,4.0763 z" />
      <path
         inkscape:connector-curvature="0"
         id="path11098"
         style="fill:#cfcccd;fill-opacity:1;fill-rule:nonzero;stroke:none"
         d="m 14.137786,33.713449 -9.8212001,0 0,-4.075 9.8212001,0 0,4.075 z" />
      <path
         inkscape:connector-curvature="0"
         id="path11100"
         style="fill:#cfcccd;fill-opacity:1;fill-rule:nonzero;stroke:none"
         d="m 14.137786,39.229649 -9.8212001,0 0,-4.0762 9.8212001,0 0,4.0762 z" />
      <path
         inkscape:connector-curvature="0"
         id="path11102"
         style="fill:#cfcccd;fill-opacity:1;fill-rule:nonzero;stroke:none"
         d="m 28.300286,17.080949 -9.8212,0 0,-4.076299 9.8212,0 0,4.076299 z" />
      <path
         inkscape:connector-curvature="0"
         id="path11104"
         style="fill:#cfcccd;fill-opacity:1;fill-rule:nonzero;stroke:none"
         d="m 28.300286,22.302149 -9.8212,0 0,-4.0762 9.8212,0 0,4.0762 z" />
      <path
         inkscape:connector-curvature="0"
         id="path11106"
         style="fill:#cfcccd;fill-opacity:1;fill-rule:nonzero;stroke:none"
         d="m 28.300286,27.819649 -9.8212,0 0,-4.0762 9.8212,0 0,4.0762 z" />
      <g
         style="fill:#cfcccd"
         transform="matrix(1.25,0,0,-1.25,28.300386,30.612409)"
         id="g11108">
        <path
           inkscape:connector-curvature="0"
           id="path11110"
           style="fill:#cfcccd;fill-opacity:1;fill-rule:nonzero;stroke:none"
           d="m 0,0 0,1.08 -7.857,0 0,-3.261 6.98,0 C -0.699,-1.4 -0.4,-0.667 0,0" />
      </g>
      <g
         style="fill:#cfcccd"
         transform="matrix(1.25,0,0,-1.25,36.493686,26.006809)"
         id="g11112">
        <path
           inkscape:connector-curvature="0"
           id="path11114"
           style="fill:#cfcccd;fill-opacity:1;fill-rule:nonzero;stroke:none"
           d="m 0,0 c 1.836,0 3.518,-0.639 4.834,-1.703 l 0,3.148 -7.857,0 0,-2.061 C -2.096,-0.221 -1.074,0 0,0" />
      </g>
      <g
         style="fill:#cfcccd"
         transform="matrix(1.25,0,0,-1.25,26.969686,35.402609)"
         id="g11116">
        <path
           inkscape:connector-curvature="0"
           id="path11118"
           style="fill:#cfcccd;fill-opacity:1;fill-rule:nonzero;stroke:none"
           d="m 0,0 c 0,0.087 0.004,0.177 0.008,0.264 l -6.801,0 0,-3.261 7.424,0 C 0.227,-2.078 0,-1.065 0,0" />
      </g>
      <g
         style="fill:#cfcccd"
         transform="matrix(0.71978747,0,0,-0.73361778,38.240507,33.476811)"
         id="g4604">
        <path
           inkscape:connector-curvature="0"
           id="path4606"
           style="fill:#cfcccd;fill-opacity:1;fill-rule:nonzero;stroke:none"
           d="m 0,0 -0.498,-1.492 -5.477,0 c -0.156,-0.289 0.028,-0.812 0.028,-0.812 l 5.474,0 -0.314,-1.389 -4.977,0 c 1.547,-5.291 6.131,-2.254 6.131,-2.254 L 0.68,-8.122 c -7.44,-2.591 -8.567,4.455 -8.567,4.455 l -1.412,0 0.338,1.336 0.865,0 c 0.028,0.21 0.053,1.021 0.053,1.021 l -1.205,0 0.34,1.31 0.996,0 c 2.305,7.072 8.75,3.957 8.75,3.957 L 0.209,1.859 C -4.375,4.401 -5.736,0 -5.736,0 L 0,0 z m -3.012,8.795 c -6.166,0 -11.183,-4.964 -11.183,-11.065 0,-6.103 5.017,-11.067 11.183,-11.067 6.166,0 11.18,4.964 11.18,11.067 0,6.101 -5.014,11.065 -11.18,11.065" />
      </g>
      <g
         transform="matrix(0.6674954,0,0,-0.75169851,18.130475,39.424618)"
         id="g6208">
        <text
           transform="scale(1.0612011,-0.94232844)"
           sodipodi:linespacing="125%"
           id="text16596"
           y="-33.41433"
           x="32.759026"
           style="font-size:31.05822944999999891px;font-style:normal;font-weight:normal;text-align:center;line-height:125%;letter-spacing:0px;word-spacing:0px;text-anchor:middle;fill:#cfcccd;fill-opacity:1;stroke:none;font-family:Sans"
           xml:space="preserve"><tspan
             style="font-size:22.58780478999999985px;font-style:normal;font-variant:normal;font-weight:bold;font-stretch:normal;font-family:Arial;-inkscape-font-specification:Arial Bold;fill:#cfcccd"
             y="-33.41433"
             x="32.759026"
             id="tspan16598"
             sodipodi:role="line">?</tspan></text>
      </g>
    </g>
  </g>
</svg>
