<?xml version="1.0" encoding="UTF-8" standalone="no"?>
<!-- Created with Inkscape (http://www.inkscape.org/) -->

<svg
   xmlns:dc="http://purl.org/dc/elements/1.1/"
   xmlns:cc="http://creativecommons.org/ns#"
   xmlns:rdf="http://www.w3.org/1999/02/22-rdf-syntax-ns#"
   xmlns:svg="http://www.w3.org/2000/svg"
   xmlns="http://www.w3.org/2000/svg"
   xmlns:sodipodi="http://sodipodi.sourceforge.net/DTD/sodipodi-0.dtd"
   xmlns:inkscape="http://www.inkscape.org/namespaces/inkscape"
   width="48px"
   height="48px"
   id="svg28083"
   version="1.1"
   inkscape:version="0.48.4 r9943 custom"
   sodipodi:docname="pourcent-piste-classee.svg">
  <defs
     id="defs28085">
    <clipPath
       clipPathUnits="userSpaceOnUse"
       id="clipPath4901">
      <path
         inkscape:connector-curvature="0"
         d="m 315.748,1648.19 0.773,0 0,-0.63 -0.773,0 0,0.63 z"
         id="path4903" />
    </clipPath>
    <clipPath
       clipPathUnits="userSpaceOnUse"
       id="clipPath4905">
      <path
         inkscape:connector-curvature="0"
         d="m 315.759,1648.18 0.762,0 0,-0.62 -0.762,0 0,0.62 z"
         id="path4907" />
    </clipPath>
    <clipPath
       clipPathUnits="userSpaceOnUse"
       id="clipPath4909">
      <path
         inkscape:connector-curvature="0"
         d="m 315.748,1648.19 0.011,0 0,-0.01 -0.011,0 0,0.01 z"
         id="path4911" />
    </clipPath>
    <clipPath
       clipPathUnits="userSpaceOnUse"
       id="clipPath4857">
      <path
         inkscape:connector-curvature="0"
         d="m 327.146,1644.07 0.45,0 0,-0.02 -0.45,0 0,0.02 z"
         id="path4859" />
    </clipPath>
    <clipPath
       clipPathUnits="userSpaceOnUse"
       id="clipPath4861">
      <path
         inkscape:connector-curvature="0"
         d="m 327.146,1644.07 0.446,0 0,-0.02 -0.446,0 0,0.02 z"
         id="path4863" />
    </clipPath>
    <clipPath
       clipPathUnits="userSpaceOnUse"
       id="clipPath4865">
      <path
         inkscape:connector-curvature="0"
         d="m 327.592,1644.05 0.004,0 0,0 -0.004,0 z"
         id="path4867" />
    </clipPath>
  </defs>
  <sodipodi:namedview
     id="base"
     pagecolor="#ffffff"
     bordercolor="#666666"
     borderopacity="1.0"
     inkscape:pageopacity="0.0"
     inkscape:pageshadow="2"
     inkscape:zoom="7"
     inkscape:cx="31.175219"
     inkscape:cy="18.285714"
     inkscape:current-layer="layer1"
     showgrid="true"
     inkscape:grid-bbox="true"
     inkscape:document-units="px"
     inkscape:window-width="887"
     inkscape:window-height="690"
     inkscape:window-x="444"
     inkscape:window-y="163"
     inkscape:window-maximized="0" />
  <metadata
     id="metadata28088">
    <rdf:RDF>
      <cc:Work
         rdf:about="">
        <dc:format>image/svg+xml</dc:format>
        <dc:type
           rdf:resource="http://purl.org/dc/dcmitype/StillImage" />
        <dc:title></dc:title>
      </cc:Work>
    </rdf:RDF>
  </metadata>
  <g
     id="layer1"
     inkscape:label="Layer 1"
     inkscape:groupmode="layer">
    <path
       d="m 46.076352,43.308413 c -0.03448,0 -0.06897,0.003 -0.102972,0.0058 -0.01311,-9.73e-4 -0.02429,-0.0039 -0.03692,-0.0039 h -7.919496 l -0.139885,-4.805611 6.275856,0.01115 c 1.138504,0.0088 1.500357,-0.148142 1.520271,-0.898564 0.01214,-0.473567 -0.590623,-1.10936 -0.590623,-1.10936 0,0 -2.17258,-2.604861 -3.710821,-4.178561 h 1.35513 c 1.138989,0.0088 1.500357,-0.149599 1.519786,-0.899049 0.01214,-0.472595 -0.589652,-1.109847 -0.589652,-1.109847 0,0 -2.006954,-1.843754 -3.528682,-3.384425 l 0.04322,-0.198654 1.295874,0.01263 c 1.139475,0.0093 1.500358,-0.148627 1.520271,-0.898563 0.0136,-0.473081 -0.590623,-1.110331 -0.590623,-1.110331 0,0 -3.654965,-3.663224 -4.838155,-5.099953 -0.177283,-0.215656 -0.347768,-0.376425 -0.50708,-0.496881 v -0.01068 c 0,0 -0.288026,-0.314254 -0.761107,-0.294341 -0.474053,-0.01991 -0.760136,0.294341 -0.760136,0.294341 v 0.01068 c -0.16077,0.120456 -0.329797,0.281225 -0.506596,0.496881 -1.18416,1.436729 -4.83961,5.099953 -4.83961,5.099953 0,0 -0.907306,0.63725 -0.894679,1.110331 0.01991,0.74945 0.685338,0.907791 1.823355,0.898563 l 1.296845,-0.01263 0.04322,0.198654 c -1.520756,1.540186 -3.527224,3.384425 -3.527224,3.384425 0,0 -0.604222,0.637252 -0.591108,1.109847 0.01991,0.74945 0.381767,0.907307 1.520756,0.899049 h 1.353673 c -0.473081,0.484738 -1.006389,1.009305 -1.518328,1.502785 0.425968,0.396825 0.69068,0.641137 0.699907,0.64988 l 0.03061,0.02768 0.02914,0.03108 c 2.518405,2.518892 0.807249,3.969221 0.807249,3.969221 l 3.447569,-0.0058 -0.140371,4.805612 H 18.158243 l -0.201569,-4.834755 9.865735,0.01652 c 1.767012,0.01409 2.327522,-0.230712 2.35812,-1.393987 0.01942,-0.733907 -0.916048,-1.721842 -0.916048,-1.721842 0,0 -3.370825,-3.098826 -5.757117,-5.539518 h 2.102152 c 1.767498,0.01409 2.327035,-0.230712 2.358606,-1.393015 0.01846,-0.734879 -0.916533,-1.722813 -0.916533,-1.722813 0,0 -3.113399,-2.86083 -5.472492,-5.250522 l 0.06655,-0.309396 2.010353,0.0204 c 1.767982,0.01408 2.328005,-0.230712 2.359577,-1.393987 0.01846,-0.733907 -0.91702,-1.722326 -0.91702,-1.722326 0,0 -5.671146,-5.51572 -7.507129,-7.745127 C 17.316999,9.985812 17.05326,9.7356714 16.804576,9.549644 v -0.017009 c 0,0 -0.446367,-0.4881385 -1.180761,-0.456568 -0.734392,-0.031575 -1.180274,0.456568 -1.180274,0.456568 v 0.017009 c -0.248684,0.1865132 -0.511937,0.436168 -0.786849,0.769851 -1.835984,2.229407 -7.5076156,7.746098 -7.5076156,7.746098 0,0 -0.9354768,0.988419 -0.9165341,1.722327 0.0306,1.163274 0.5920801,1.407586 2.3586059,1.393986 l 2.0108375,-0.0204 0.067036,0.309398 c -2.360549,2.389691 -5.4739477,5.250523 -5.4739477,5.250523 0,0 -0.9354769,0.987932 -0.9160485,1.722811 0.0306,1.16279 0.5915943,1.407101 2.359092,1.393015 h 2.1011726 c -2.3843495,2.440166 -5.7561463,5.538994 -5.7561463,5.538994 0,0 -0.9345054,0.987933 -0.9155627,1.721841 0.030113,1.163759 0.5911086,1.408071 2.3586063,1.393987 l 9.8220213,-0.01652 -0.20157,4.834755 H 2.6344756 c -0.012142,0 -0.0238,0.003 -0.036428,0.0039 -0.034486,-0.003 -0.068486,-0.0058 -0.1029703,-0.0058 -1.0102763,0 -1.82918276,0.819392 -1.82918276,1.829668 0,1.00979 0.81939226,1.828697 1.82918276,1.828697 0.054885,0 0.1083136,-0.0035 0.1617414,-0.0088 H 45.915096 c 0.05246,0.0053 0.106853,0.0088 0.161256,0.0088 1.00979,0 1.829183,-0.818907 1.829183,-1.828697 0,-1.010276 -0.819393,-1.829668 -1.829183,-1.829668 z"
       id="path4895"
       style="fill:#333333"
       inkscape:connector-curvature="0" />
    <text
       xml:space="preserve"
       style="font-size:10.37742615px;font-style:normal;font-weight:normal;line-height:125%;letter-spacing:0px;word-spacing:0px;fill:#000000;fill-opacity:1;stroke:none;font-family:Sans"
       x="7.2497516"
       y="31.037304"
       id="text4364"
       sodipodi:linespacing="125%"><tspan
         sodipodi:role="line"
         id="tspan4366"
         x="7.2497516"
         y="31.037304"
         style="font-style:normal;font-variant:normal;font-weight:bold;font-stretch:normal;fill:#ffffff;font-family:Arial;-inkscape-font-specification:Arial Bold">%</tspan></text>
    <g
       id="g4496"
       transform="matrix(0.14000151,-0.18813516,0.18813516,0.14000151,9.6420268,32.194357)"
       style="fill:#ffffff">
      <path
         d="m 52.966,26.059 -0.418,-1.564 -1.615,0.146 c -5.647,0.516 -11.324,0.836 -17.009,0.962 -1.493,-1.306 -3.442,-2.104 -5.579,-2.104 -2.137,0 -4.087,0.799 -5.582,2.105 C 17.078,25.477 11.403,25.157 5.758,24.641 L 4.14,24.488 3.724,26.058 c -0.557,2.096 -0.825,4.341 -0.796,6.67 l 0.018,1.994 1.21,-0.058 c 0.121,1.317 0.337,2.621 0.672,3.882 l 0.17,0.637 0.656,-0.062 c 4.255,-0.39 8.537,-0.645 12.829,-0.81 l -3.072,3.076 h 5.355 v 5.357 l 6.063,-6.071 0.288,-0.285 c 0.4,0.059 0.81,0.095 1.228,0.095 0.414,0 0.82,-0.036 1.219,-0.094 l 6.357,6.355 v -5.357 h 5.363 l -3.072,-3.076 c 4.29,0.163 8.572,0.42 12.826,0.81 l 0.656,0.061 0.17,-0.636 c 0.335,-1.261 0.55,-2.564 0.671,-3.881 l 1.21,0.057 0.021,-1.997 c 0.024,-2.345 -0.245,-4.588 -0.8,-6.666 z m -1.893,0.134 0.306,-0.026 0.078,0.294 c 0.52,1.941 0.771,4.044 0.75,6.248 L 52.203,33.088 51.83,33.07 c -4.985,-0.237 -10.012,-0.39 -15.023,-0.477 0.016,-0.2 0.031,-0.4 0.031,-0.604 0,-1.812 -0.575,-3.488 -1.545,-4.868 5.274,-0.146 10.54,-0.447 15.78,-0.928 z M 5.232,26.459 5.31,26.166 5.614,26.193 c 5.239,0.48 10.506,0.781 15.779,0.928 -0.971,1.38 -1.546,3.057 -1.546,4.868 0,0.204 0.017,0.404 0.031,0.604 -5.01,0.087 -10.034,0.239 -15.019,0.476 L 4.489,33.088 4.486,32.712 C 4.461,30.522 4.711,28.418 5.232,26.459 z M 6.178,37.508 C 5.959,36.563 5.812,35.585 5.721,34.596 c 4.788,-0.22 9.608,-0.363 14.417,-0.445 0.166,0.631 0.407,1.231 0.706,1.797 l -0.737,0.738 c -4.655,0.152 -9.313,0.412 -13.929,0.822 z m 12.8,2.4 2.687,-2.688 c 0.971,1.239 2.277,2.201 3.781,2.75 l -3.202,3.204 v -3.267 h -3.266 z m 8.163,-1.015 -0.815,-0.248 C 24.888,38.212 23.607,37.297 22.72,36.068 l -0.533,-0.73 c -0.543,-0.995 -0.852,-2.136 -0.852,-3.348 0,-3.868 3.145,-7.015 7.011,-7.015 3.868,0 7.016,3.146 7.016,7.015 0,1.206 -0.307,2.341 -0.844,3.334 l -0.55,0.745 c -0.882,1.227 -2.161,2.142 -3.604,2.576 l -0.82,0.249 c -0.39,0.067 -0.788,0.11 -1.197,0.11 -0.413,0 -0.815,-0.043 -1.206,-0.111 z m 7.882,-1.675 2.686,2.69 h -3.263 v 3.267 L 31.24,39.971 c 1.505,-0.549 2.814,-1.512 3.783,-2.753 z m 15.491,0.29 C 45.899,37.099 41.242,36.839 36.589,36.687 l -0.743,-0.745 c 0.297,-0.564 0.537,-1.161 0.702,-1.791 4.81,0.082 9.633,0.226 14.423,0.446 -0.092,0.989 -0.24,1.966 -0.457,2.911 z"
         id="path4498"
         inkscape:connector-curvature="0"
         style="fill:#ffffff" />
      <path
         d="m 29.13,36.712 c 2.272,-0.378 4.016,-2.344 4.016,-4.723 0,-2.648 -2.154,-4.803 -4.801,-4.803 -2.648,0 -4.804,2.154 -4.804,4.803 0,2.379 1.743,4.345 4.019,4.723 0.254,0.048 0.516,0.079 0.785,0.079 0.269,0 0.529,-0.031 0.785,-0.079 z m -4.109,-4.723 c 0,-1.832 1.491,-3.324 3.324,-3.324 1.832,0 3.323,1.492 3.323,3.324 0,1.832 -1.491,3.323 -3.323,3.323 -1.833,0 -3.324,-1.491 -3.324,-3.323 z"
         id="path4500"
         inkscape:connector-curvature="0"
         style="fill:#ffffff" />
    </g>
  </g>
</svg>
