<?xml version="1.0" encoding="UTF-8" standalone="no"?>
<!-- Created with Inkscape (http://www.inkscape.org/) -->

<svg
   xmlns:dc="http://purl.org/dc/elements/1.1/"
   xmlns:cc="http://creativecommons.org/ns#"
   xmlns:rdf="http://www.w3.org/1999/02/22-rdf-syntax-ns#"
   xmlns:svg="http://www.w3.org/2000/svg"
   xmlns="http://www.w3.org/2000/svg"
   version="1.1"
   width="48"
   height="48"
   id="svg28083">
  <defs
     id="defs28085">
    <clipPath
       id="clipPath4901">
      <path
         d="m 315.748,1648.19 0.773,0 0,-0.63 -0.773,0 0,0.63 z"
         id="path4903" />
    </clipPath>
    <clipPath
       id="clipPath4905">
      <path
         d="m 315.759,1648.18 0.762,0 0,-0.62 -0.762,0 0,0.62 z"
         id="path4907" />
    </clipPath>
    <clipPath
       id="clipPath4909">
      <path
         d="m 315.748,1648.19 0.011,0 0,-0.01 -0.011,0 0,0.01 z"
         id="path4911" />
    </clipPath>
    <clipPath
       id="clipPath4857">
      <path
         d="m 327.146,1644.07 0.45,0 0,-0.02 -0.45,0 0,0.02 z"
         id="path4859" />
    </clipPath>
    <clipPath
       id="clipPath4861">
      <path
         d="m 327.146,1644.07 0.446,0 0,-0.02 -0.446,0 0,0.02 z"
         id="path4863" />
    </clipPath>
    <clipPath
       id="clipPath4865">
      <path
         d="m 327.592,1644.05 0.004,0 0,0 -0.004,0 z"
         id="path4867" />
    </clipPath>
  </defs>
  <metadata
     id="metadata28088">
    <rdf:RDF>
      <cc:Work
         rdf:about="">
        <dc:format>image/svg+xml</dc:format>
        <dc:type
           rdf:resource="http://purl.org/dc/dcmitype/StillImage" />
        <dc:title></dc:title>
      </cc:Work>
    </rdf:RDF>
  </metadata>
  <g
     id="layer1">
    <path
       d="m 46.076352,43.308413 c -0.03448,0 -0.06897,0.003 -0.102972,0.0058 -0.01311,-9.73e-4 -0.02429,-0.0039 -0.03692,-0.0039 h -7.919496 l -0.139885,-4.805611 6.275856,0.01115 c 1.138504,0.0088 1.500357,-0.148142 1.520271,-0.898564 0.01214,-0.473567 -0.590623,-1.10936 -0.590623,-1.10936 0,0 -2.17258,-2.604861 -3.710821,-4.178561 h 1.35513 c 1.138989,0.0088 1.500357,-0.149599 1.519786,-0.899049 0.01214,-0.472595 -0.589652,-1.109847 -0.589652,-1.109847 0,0 -2.006954,-1.843754 -3.528682,-3.384425 l 0.04322,-0.198654 1.295874,0.01263 c 1.139475,0.0093 1.500358,-0.148627 1.520271,-0.898563 0.0136,-0.473081 -0.590623,-1.110331 -0.590623,-1.110331 0,0 -3.654965,-3.663224 -4.838155,-5.099953 -0.177283,-0.215656 -0.347768,-0.376425 -0.50708,-0.496881 v -0.01068 c 0,0 -0.288026,-0.314254 -0.761107,-0.294341 -0.474053,-0.01991 -0.760136,0.294341 -0.760136,0.294341 v 0.01068 c -0.16077,0.120456 -0.329797,0.281225 -0.506596,0.496881 -1.18416,1.436729 -4.83961,5.099953 -4.83961,5.099953 0,0 -0.907306,0.63725 -0.894679,1.110331 0.01991,0.74945 0.685338,0.907791 1.823355,0.898563 l 1.296845,-0.01263 0.04322,0.198654 c -1.520756,1.540186 -3.527224,3.384425 -3.527224,3.384425 0,0 -0.604222,0.637252 -0.591108,1.109847 0.01991,0.74945 0.381767,0.907307 1.520756,0.899049 h 1.353673 c -0.473081,0.484738 -1.006389,1.009305 -1.518328,1.502785 0.425968,0.396825 0.69068,0.641137 0.699907,0.64988 l 0.03061,0.02768 0.02914,0.03108 c 2.518405,2.518892 0.807249,3.969221 0.807249,3.969221 l 3.447569,-0.0058 -0.140371,4.805612 H 18.158243 l -0.201569,-4.834755 9.865735,0.01652 c 1.767012,0.01409 2.327522,-0.230712 2.35812,-1.393987 0.01942,-0.733907 -0.916048,-1.721842 -0.916048,-1.721842 0,0 -3.370825,-3.098826 -5.757117,-5.539518 h 2.102152 c 1.767498,0.01409 2.327035,-0.230712 2.358606,-1.393015 0.01846,-0.734879 -0.916533,-1.722813 -0.916533,-1.722813 0,0 -3.113399,-2.86083 -5.472492,-5.250522 l 0.06655,-0.309396 2.010353,0.0204 c 1.767982,0.01408 2.328005,-0.230712 2.359577,-1.393987 0.01846,-0.733907 -0.91702,-1.722326 -0.91702,-1.722326 0,0 -5.671146,-5.51572 -7.507129,-7.745127 C 17.316999,9.985812 17.05326,9.7356714 16.804576,9.549644 V 9.532635 c 0,0 -0.446367,-0.4881385 -1.180761,-0.456568 -0.734392,-0.031575 -1.180274,0.456568 -1.180274,0.456568 v 0.017009 c -0.248684,0.1865132 -0.511937,0.436168 -0.786849,0.769851 -1.835984,2.229407 -7.5076156,7.746098 -7.5076156,7.746098 0,0 -0.9354768,0.988419 -0.9165341,1.722327 0.0306,1.163274 0.5920801,1.407586 2.3586059,1.393986 l 2.0108375,-0.0204 0.067036,0.309398 c -2.360549,2.389691 -5.4739477,5.250523 -5.4739477,5.250523 0,0 -0.9354769,0.987932 -0.9160485,1.722811 0.0306,1.16279 0.5915943,1.407101 2.359092,1.393015 h 2.1011726 c -2.3843495,2.440166 -5.7561463,5.538994 -5.7561463,5.538994 0,0 -0.9345054,0.987933 -0.9155627,1.721841 0.030113,1.163759 0.5911086,1.408071 2.3586063,1.393987 l 9.8220216,-0.01652 -0.20157,4.834755 H 2.6344756 c -0.012142,0 -0.0238,0.003 -0.036428,0.0039 -0.034486,-0.003 -0.068486,-0.0058 -0.1029703,-0.0058 -1.0102763,0 -1.82918276,0.819392 -1.82918276,1.829668 0,1.00979 0.81939226,1.828697 1.82918276,1.828697 0.054885,0 0.1083136,-0.0035 0.1617414,-0.0088 H 45.915096 c 0.05246,0.0053 0.106853,0.0088 0.161256,0.0088 1.00979,0 1.829183,-0.818907 1.829183,-1.828697 0,-1.010276 -0.819393,-1.829668 -1.829183,-1.829668 z"
       id="path4895"
       style="fill:#333333" />
  </g>
</svg>
