<?xml version="1.0" encoding="UTF-8" standalone="no"?>
<!-- Created with Inkscape (http://www.inkscape.org/) -->

<svg
   xmlns:dc="http://purl.org/dc/elements/1.1/"
   xmlns:cc="http://creativecommons.org/ns#"
   xmlns:rdf="http://www.w3.org/1999/02/22-rdf-syntax-ns#"
   xmlns:svg="http://www.w3.org/2000/svg"
   xmlns="http://www.w3.org/2000/svg"
   xmlns:sodipodi="http://sodipodi.sourceforge.net/DTD/sodipodi-0.dtd"
   xmlns:inkscape="http://www.inkscape.org/namespaces/inkscape"
   width="48px"
   height="48px"
   id="svg28083"
   version="1.1"
   inkscape:version="0.48.4 r9939"
   sodipodi:docname="foret-protegee-pourcent.svg">
  <defs
     id="defs28085">
    <clipPath
       clipPathUnits="userSpaceOnUse"
       id="clipPath4901">
      <path
         inkscape:connector-curvature="0"
         d="m 315.748,1648.19 0.773,0 0,-0.63 -0.773,0 0,0.63 z"
         id="path4903" />
    </clipPath>
    <clipPath
       clipPathUnits="userSpaceOnUse"
       id="clipPath4905">
      <path
         inkscape:connector-curvature="0"
         d="m 315.759,1648.18 0.762,0 0,-0.62 -0.762,0 0,0.62 z"
         id="path4907" />
    </clipPath>
    <clipPath
       clipPathUnits="userSpaceOnUse"
       id="clipPath4909">
      <path
         inkscape:connector-curvature="0"
         d="m 315.748,1648.19 0.011,0 0,-0.01 -0.011,0 0,0.01 z"
         id="path4911" />
    </clipPath>
    <clipPath
       clipPathUnits="userSpaceOnUse"
       id="clipPath4857">
      <path
         inkscape:connector-curvature="0"
         d="m 327.146,1644.07 0.45,0 0,-0.02 -0.45,0 0,0.02 z"
         id="path4859" />
    </clipPath>
    <clipPath
       clipPathUnits="userSpaceOnUse"
       id="clipPath4861">
      <path
         inkscape:connector-curvature="0"
         d="m 327.146,1644.07 0.446,0 0,-0.02 -0.446,0 0,0.02 z"
         id="path4863" />
    </clipPath>
    <clipPath
       clipPathUnits="userSpaceOnUse"
       id="clipPath4865">
      <path
         inkscape:connector-curvature="0"
         d="m 327.592,1644.05 0.004,0 0,0 -0.004,0 z"
         id="path4867" />
    </clipPath>
  </defs>
  <sodipodi:namedview
     id="base"
     pagecolor="#ffffff"
     bordercolor="#666666"
     borderopacity="1.0"
     inkscape:pageopacity="0.0"
     inkscape:pageshadow="2"
     inkscape:zoom="4.9497475"
     inkscape:cx="18.265463"
     inkscape:cy="33.364893"
     inkscape:current-layer="layer1"
     showgrid="true"
     inkscape:grid-bbox="true"
     inkscape:document-units="px"
     inkscape:window-width="887"
     inkscape:window-height="690"
     inkscape:window-x="1920"
     inkscape:window-y="79"
     inkscape:window-maximized="0" />
  <metadata
     id="metadata28088">
    <rdf:RDF>
      <cc:Work
         rdf:about="">
        <dc:format>image/svg+xml</dc:format>
        <dc:type
           rdf:resource="http://purl.org/dc/dcmitype/StillImage" />
        <dc:title />
      </cc:Work>
    </rdf:RDF>
  </metadata>
  <g
     id="layer1"
     inkscape:label="Layer 1"
     inkscape:groupmode="layer">
    <path
       style="fill:#cfcccd"
       d="M 15.625 9.0625 C 14.890608 9.030925 14.4375 9.53125 14.4375 9.53125 L 14.4375 9.5625 C 14.188816 9.7490132 13.931162 9.978817 13.65625 10.3125 C 11.820266 12.541907 6.15625 18.0625 6.15625 18.0625 C 6.15625 18.0625 5.1998073 19.047342 5.21875 19.78125 C 5.24935 20.944524 5.8272242 21.2011 7.59375 21.1875 L 9.59375 21.15625 L 9.65625 21.46875 C 7.295701 23.858441 4.1875 26.71875 4.1875 26.71875 C 4.1875 26.71875 3.2618216 27.702621 3.28125 28.4375 C 3.31185 29.60029 3.8575023 29.857836 5.625 29.84375 L 7.75 29.84375 C 5.3656505 32.283916 1.96875 35.375 1.96875 35.375 C 1.96875 35.375 1.0435573 36.359842 1.0625 37.09375 C 1.092613 38.257509 1.6700023 38.514084 3.4375 38.5 L 13.25 38.46875 L 13.03125 43.3125 L 2.625 43.3125 C 2.612858 43.3125 2.606378 43.3116 2.59375 43.3125 C 2.559264 43.3095 2.5344843 43.3125 2.5 43.3125 C 1.4897237 43.3125 0.65625 44.114724 0.65625 45.125 C 0.65625 46.13479 1.4902095 46.96875 2.5 46.96875 C 2.554885 46.96875 2.6028222 46.97405 2.65625 46.96875 L 45.90625 46.96875 C 45.95871 46.97405 46.008097 46.96875 46.0625 46.96875 C 47.07229 46.96875 47.90625 46.13479 47.90625 45.125 C 47.90625 44.114724 47.07229 43.3125 46.0625 43.3125 C 46.02802 43.3125 46.002752 43.3097 45.96875 43.3125 C 45.95564 43.311527 45.95013 43.3125 45.9375 43.3125 L 38.03125 43.3125 L 37.875 38.5 L 44.15625 38.53125 C 45.294754 38.54005 45.667586 38.375422 45.6875 37.625 C 45.69964 37.151433 45.09375 36.5 45.09375 36.5 C 45.09375 36.5 42.913241 33.91745 41.375 32.34375 L 42.71875 32.34375 C 43.857739 32.35255 44.230571 32.18695 44.25 31.4375 C 44.26214 30.964905 43.65625 30.3125 43.65625 30.3125 C 43.65625 30.3125 41.646728 28.478171 40.125 26.9375 L 40.15625 26.75 L 41.46875 26.75 C 42.608225 26.7593 42.980087 26.593686 43 25.84375 C 43.0136 25.370669 42.40625 24.75 42.40625 24.75 C 42.40625 24.75 38.74569 21.092979 37.5625 19.65625 C 37.385217 19.440594 37.221812 19.276706 37.0625 19.15625 L 37.0625 19.125 C 37.0625 19.125 36.754331 18.823837 36.28125 18.84375 C 35.807197 18.82384 35.53125 19.125 35.53125 19.125 L 35.53125 19.15625 C 35.37048 19.276706 35.208049 19.440594 35.03125 19.65625 C 33.84709 21.092979 30.1875 24.75 30.1875 24.75 C 30.1875 24.75 29.268623 25.370669 29.28125 25.84375 C 29.30116 26.5932 29.986983 26.759228 31.125 26.75 L 32.40625 26.75 L 32.46875 26.9375 C 30.947994 28.477686 28.9375 30.3125 28.9375 30.3125 C 28.9375 30.3125 28.330636 30.964905 28.34375 31.4375 C 28.36366 32.18695 28.704761 32.352008 29.84375 32.34375 L 31.21875 32.34375 C 30.745669 32.828488 30.199439 33.35027 29.6875 33.84375 C 30.113468 34.240575 30.397023 34.460007 30.40625 34.46875 L 30.40625 34.5 L 30.4375 34.53125 C 32.955905 37.050142 31.25 38.5 31.25 38.5 L 34.71875 38.5 L 34.5625 43.3125 L 18.15625 43.3125 L 17.96875 38.46875 L 27.8125 38.5 C 29.579512 38.51409 30.156902 38.257025 30.1875 37.09375 C 30.20692 36.359843 29.25 35.375 29.25 35.375 C 29.25 35.375 25.886292 32.284442 23.5 29.84375 L 25.625 29.84375 C 27.392498 29.85784 27.937179 29.599803 27.96875 28.4375 C 27.98721 27.702621 27.0625 26.71875 27.0625 26.71875 C 27.0625 26.71875 23.952843 23.858442 21.59375 21.46875 L 21.65625 21.15625 L 23.65625 21.1875 C 25.424232 21.20158 25.968428 20.944525 26 19.78125 C 26.01846 19.047343 25.09375 18.0625 25.09375 18.0625 C 25.09375 18.0625 19.429733 12.541907 17.59375 10.3125 C 17.319321 9.978855 17.061184 9.7485274 16.8125 9.5625 L 16.8125 9.53125 C 16.8125 9.53125 16.359394 9.0309295 15.625 9.0625 z M 9.3125 23.46875 C 9.8293419 23.468757 10.240733 23.647841 10.53125 23.96875 C 10.825139 24.286295 10.968746 24.768648 10.96875 25.4375 C 10.968746 26.102984 10.825139 26.616588 10.53125 26.9375 C 10.240733 27.25842 9.8437015 27.406254 9.34375 27.40625 C 8.8269039 27.406254 8.4188908 27.255042 8.125 26.9375 C 7.8344855 26.616588 7.6874995 26.106362 7.6875 25.4375 C 7.6874995 24.772026 7.8344855 24.289673 8.125 23.96875 C 8.4188908 23.647841 8.8125443 23.468757 9.3125 23.46875 z M 13.3125 23.46875 L 14.34375 23.46875 L 10.40625 31.3125 L 9.34375 31.3125 L 13.3125 23.46875 z M 9.3125 24.28125 C 9.1638631 24.281257 9.0531999 24.347144 8.96875 24.46875 C 8.8572721 24.634281 8.8124984 24.954443 8.8125 25.4375 C 8.8124984 25.920569 8.8572726 26.24073 8.96875 26.40625 C 9.0532 26.527865 9.1638631 26.593754 9.3125 26.59375 C 9.4645109 26.593754 9.603046 26.527866 9.6875 26.40625 C 9.7955957 26.24073 9.8437474 25.920569 9.84375 25.4375 C 9.8437474 24.954443 9.7955953 24.630904 9.6875 24.46875 C 9.603046 24.343768 9.4645109 24.281257 9.3125 24.28125 z M 21.59375 25.75 L 21.96875 25.875 C 22.437396 26.061508 22.874683 26.323431 23.3125 26.65625 L 23.6875 26.9375 L 23.53125 27.15625 C 23.762084 27.363396 23.965912 27.604183 24.15625 27.84375 L 24.25 27.96875 L 24.15625 28.0625 C 23.487311 28.808226 22.818773 29.59072 22.1875 30.375 L 23.21875 30.21875 L 22.46875 31.21875 L 23.46875 31.96875 L 21.375 32.28125 C 21.330051 32.364436 21.276711 32.453362 21.21875 32.53125 C 21.160229 32.60989 21.098351 32.683006 21.03125 32.75 L 21.0625 32.84375 L 21.34375 34.84375 L 20.34375 34.09375 L 19.59375 35.09375 L 19.4375 34.09375 C 18.867656 34.924326 18.303584 35.738634 17.78125 36.59375 L 17.71875 36.75 L 17.5625 36.6875 C 17.278361 36.573983 17.014714 36.411618 16.75 36.25 L 16.59375 36.5 L 16.21875 36.21875 C 15.776523 35.898142 15.37885 35.554484 15.0625 35.15625 L 14.84375 34.84375 L 15.09375 34.5625 C 15.981136 33.572718 16.836448 32.551768 17.65625 31.5 C 17.619848 31.035896 17.732067 30.558295 18.03125 30.15625 C 18.330433 29.754205 18.764023 29.504294 19.21875 29.40625 C 19.990954 28.319061 20.712739 27.19714 21.40625 26.0625 L 21.59375 25.75 z M 21.75 26.1875 L 21.71875 26.25 C 21.075635 27.303169 20.3984 28.331085 19.6875 29.34375 C 20.082928 29.354461 20.471599 29.496317 20.8125 29.75 C 20.85088 29.77856 20.902113 29.81274 20.9375 29.84375 C 21.655415 28.913185 22.382504 27.967173 23.125 27.0625 L 23.1875 27 L 23.09375 26.9375 C 22.68204 26.624986 22.250471 26.392663 21.8125 26.21875 L 21.75 26.1875 z M 14.34375 27.40625 C 14.853831 27.406254 15.271978 27.585337 15.5625 27.90625 C 15.856383 28.22717 15.999991 28.709523 16 29.375 C 15.999991 30.043859 15.856383 30.522834 15.5625 30.84375 C 15.271978 31.164667 14.874946 31.34375 14.375 31.34375 C 13.858149 31.34375 13.450136 31.164667 13.15625 30.84375 C 12.865731 30.522834 12.718745 30.043859 12.71875 29.375 C 12.718745 28.709523 12.865731 28.22717 13.15625 27.90625 C 13.450136 27.585337 13.837033 27.406254 14.34375 27.40625 z M 23.28125 27.4375 C 22.569253 28.307867 21.876334 29.2003 21.1875 30.09375 C 21.282925 30.212993 21.372972 30.333913 21.4375 30.46875 L 21.65625 30.4375 C 22.336274 29.583387 23.058196 28.748483 23.78125 27.9375 C 23.633843 27.764373 23.454436 27.59327 23.28125 27.4375 z M 14.34375 28.21875 C 14.19173 28.218752 14.081067 28.284645 14 28.40625 C 13.888517 28.571778 13.812493 28.891938 13.8125 29.375 C 13.812493 29.858065 13.888516 30.181603 14 30.34375 C 14.08444 30.468739 14.195108 30.531251 14.34375 30.53125 C 14.495756 30.531251 14.606419 30.465365 14.6875 30.34375 C 14.798969 30.178225 14.843742 29.858065 14.84375 29.375 C 14.843742 28.891938 14.795588 28.571778 14.6875 28.40625 C 14.60304 28.284643 14.495756 28.218752 14.34375 28.21875 z M 19.71875 29.6875 C 19.190927 29.66369 18.650954 29.888933 18.3125 30.34375 C 17.771254 31.071081 17.928543 32.114724 18.65625 32.65625 C 18.88427 32.825932 19.143035 32.931606 19.40625 32.96875 L 19.59375 32.96875 C 19.949149 32.973936 20.310965 32.866168 20.59375 32.65625 L 20.75 32.53125 C 20.817534 32.467209 20.879679 32.3902 20.9375 32.3125 C 20.994761 32.235553 21.051754 32.176503 21.09375 32.09375 L 21.15625 31.90625 C 21.276622 31.57401 21.294861 31.181467 21.1875 30.84375 L 21.125 30.65625 C 21.013363 30.4162 20.851891 30.200092 20.625 30.03125 C 20.352039 29.828125 20.035444 29.701786 19.71875 29.6875 z M 19.46875 30.21875 C 19.754094 30.176956 20.063409 30.252138 20.3125 30.4375 C 20.760074 30.770564 20.871968 31.363386 20.625 31.84375 C 20.59819 31.898633 20.56891 31.949392 20.53125 32 C 20.49359 32.050608 20.450841 32.115184 20.40625 32.15625 C 20.016491 32.531525 19.416324 32.583064 18.96875 32.25 C 18.47038 31.879136 18.348026 31.154432 18.71875 30.65625 C 18.904042 30.407253 19.183406 30.260544 19.46875 30.21875 z M 19.5 30.5625 C 19.302497 30.591429 19.128241 30.702668 19 30.875 C 18.743377 31.219852 18.811586 31.712267 19.15625 31.96875 C 19.500914 32.225233 19.993377 32.157352 20.25 31.8125 C 20.506483 31.467836 20.438414 30.975233 20.09375 30.71875 C 19.921418 30.590509 19.697503 30.533571 19.5 30.5625 z M 22.4375 30.6875 L 21.5625 30.8125 C 21.660314 31.168545 21.638666 31.546246 21.53125 31.90625 L 22.59375 31.75 L 21.96875 31.3125 L 22.4375 30.6875 z M 17.75 31.96875 C 16.984116 32.940206 16.167523 33.894061 15.34375 34.8125 L 15.3125 34.84375 L 15.34375 34.90625 C 15.639366 35.278531 16.021984 35.6356 16.4375 35.9375 L 16.5 35.96875 L 16.53125 35.90625 C 17.184569 34.935216 17.87746 33.985987 18.5625 33.03125 C 18.522913 33.005884 18.47588 32.96606 18.4375 32.9375 C 18.096787 32.683957 17.873685 32.344631 17.75 31.96875 z M 20.71875 33 C 20.404902 33.206094 20.056541 33.334533 19.6875 33.34375 L 19.8125 34.21875 L 20.25 33.59375 L 20.875 34.0625 L 20.71875 33 z M 18.875 33.1875 C 18.21716 34.103722 17.566437 35.037159 16.9375 35.96875 C 17.136306 36.090091 17.354052 36.19015 17.5625 36.28125 C 18.131612 35.355417 18.72064 34.459549 19.34375 33.5625 L 19.3125 33.3125 C 19.164155 33.289512 19.016954 33.244611 18.875 33.1875 z "
       id="path4895" />
    <g
       style="font-size:10.37742614999999979px;font-style:normal;font-weight:normal;line-height:125%;letter-spacing:0px;word-spacing:0px;fill:#ffffff;fill-opacity:1;stroke:none;font-family:Sans"
       id="text4364" />
    <g
       id="g4496"
       transform="matrix(0.14000151,-0.18813516,0.18813516,0.14000151,9.6420268,32.194357)"
       style="fill:#ffffff" />
  </g>
</svg>
