<?xml version="1.0" encoding="UTF-8" standalone="no"?>
<!-- Created with Inkscape (http://www.inkscape.org/) -->

<svg
   xmlns:dc="http://purl.org/dc/elements/1.1/"
   xmlns:cc="http://creativecommons.org/ns#"
   xmlns:rdf="http://www.w3.org/1999/02/22-rdf-syntax-ns#"
   xmlns:svg="http://www.w3.org/2000/svg"
   xmlns="http://www.w3.org/2000/svg"
   xmlns:sodipodi="http://sodipodi.sourceforge.net/DTD/sodipodi-0.dtd"
   xmlns:inkscape="http://www.inkscape.org/namespaces/inkscape"
   width="48px"
   height="48px"
   id="svg28083"
   version="1.1"
   inkscape:version="0.48.4 r9943 custom"
   sodipodi:docname="jeux-video.svg">
  <defs
     id="defs28085">
    <clipPath
       clipPathUnits="userSpaceOnUse"
       id="clipPath4901">
      <path
         inkscape:connector-curvature="0"
         d="m 315.748,1648.19 0.773,0 0,-0.63 -0.773,0 0,0.63 z"
         id="path4903" />
    </clipPath>
    <clipPath
       clipPathUnits="userSpaceOnUse"
       id="clipPath4905">
      <path
         inkscape:connector-curvature="0"
         d="m 315.759,1648.18 0.762,0 0,-0.62 -0.762,0 0,0.62 z"
         id="path4907" />
    </clipPath>
    <clipPath
       clipPathUnits="userSpaceOnUse"
       id="clipPath4909">
      <path
         inkscape:connector-curvature="0"
         d="m 315.748,1648.19 0.011,0 0,-0.01 -0.011,0 0,0.01 z"
         id="path4911" />
    </clipPath>
    <clipPath
       clipPathUnits="userSpaceOnUse"
       id="clipPath4857">
      <path
         inkscape:connector-curvature="0"
         d="m 327.146,1644.07 0.45,0 0,-0.02 -0.45,0 0,0.02 z"
         id="path4859" />
    </clipPath>
    <clipPath
       clipPathUnits="userSpaceOnUse"
       id="clipPath4861">
      <path
         inkscape:connector-curvature="0"
         d="m 327.146,1644.07 0.446,0 0,-0.02 -0.446,0 0,0.02 z"
         id="path4863" />
    </clipPath>
    <clipPath
       clipPathUnits="userSpaceOnUse"
       id="clipPath4865">
      <path
         inkscape:connector-curvature="0"
         d="m 327.592,1644.05 0.004,0 0,0 -0.004,0 z"
         id="path4867" />
    </clipPath>
  </defs>
  <sodipodi:namedview
     id="base"
     pagecolor="#ffffff"
     bordercolor="#666666"
     borderopacity="1.0"
     inkscape:pageopacity="0.0"
     inkscape:pageshadow="2"
     inkscape:zoom="7"
     inkscape:cx="26.60379"
     inkscape:cy="24"
     inkscape:current-layer="layer1"
     showgrid="true"
     inkscape:grid-bbox="true"
     inkscape:document-units="px"
     inkscape:window-width="651"
     inkscape:window-height="653"
     inkscape:window-x="1333"
     inkscape:window-y="295"
     inkscape:window-maximized="0" />
  <metadata
     id="metadata28088">
    <rdf:RDF>
      <cc:Work
         rdf:about="">
        <dc:format>image/svg+xml</dc:format>
        <dc:type
           rdf:resource="http://purl.org/dc/dcmitype/StillImage" />
        <dc:title></dc:title>
      </cc:Work>
    </rdf:RDF>
  </metadata>
  <g
     id="layer1"
     inkscape:label="Layer 1"
     inkscape:groupmode="layer">
    <g
       transform="matrix(1.0481426,0,0,-1.0481426,21.54599,38.129405)"
       id="g8829">
      <path
         inkscape:connector-curvature="0"
         id="path8831"
         style="fill:#cfcccd;fill-opacity:1;fill-rule:nonzero;stroke:none"
         d="M 0,0 -7.961,5.082 -7.842,5.27 0.121,0.187 0,0 z m -0.459,-0.722 -7.963,5.083 0.358,0.561 7.962,-5.084 -0.357,-0.56 z M 2.24,15.114 2.139,14.962 C 0.719,15.175 -0.758,14.559 -1.58,13.271 -2.695,11.524 -2.184,9.206 -0.437,8.091 1.309,6.977 3.629,7.488 4.744,9.233 5.574,10.536 5.5,12.157 4.686,13.359 4.717,13.409 4.748,13.46 4.781,13.513 5.67,12.252 5.766,10.526 4.883,9.145 3.719,7.322 1.297,6.788 -0.525,7.951 c -1.825,1.165 -2.358,3.586 -1.196,5.408 0.875,1.37 2.457,2.012 3.961,1.755 M 3.746,9.871 C 2.984,8.675 1.395,8.324 0.199,9.088 c -1.195,0.763 -1.547,2.351 -0.783,3.547 0.512,0.802 1.395,1.22 2.281,1.182 C 2.172,13.72 3.162,13.453 3.883,12.388 4.266,11.608 4.248,10.656 3.746,9.871 M 1.799,14.332 4.23,12.778 4.117,12.594 1.68,14.15 1.799,14.332 z M 2.221,14.97 4.633,13.431 4.52,13.249 2.104,14.792 2.221,14.97 z m 0.435,0.658 2.391,-1.525 -0.111,-0.178 -2.395,1.529 0.115,0.174 z M 3.145,16.366 5.51,14.855 5.402,14.682 3.033,16.195 3.145,16.366 z M 3.643,17.12 5.984,15.626 5.879,15.455 3.533,16.952 3.643,17.12 z M 4.17,17.914 6.484,16.438 6.381,16.27 4.062,17.751 4.17,17.914 z m 0.476,0.721 2.29,-1.462 -0.1,-0.162 -2.295,1.465 0.105,0.159 z m 0.561,0.847 2.262,-1.445 -0.1,-0.159 -2.265,1.447 0.103,0.157 z m 0.508,0.77 2.236,-1.428 -0.094,-0.156 -2.242,1.432 0.1,0.152 z m 0.57,0.86 2.209,-1.409 -0.096,-0.152 -2.212,1.412 0.099,0.149 z m 0.588,0.89 2.18,-1.392 -0.092,-0.147 -2.182,1.394 0.094,0.145 z m 0.592,0.892 2.148,-1.373 -0.09,-0.143 -2.152,1.374 0.094,0.142 z m 0.59,0.891 2.119,-1.353 -0.086,-0.14 -2.123,1.356 0.09,0.137 z m 0.621,0.94 2.088,-1.333 -0.082,-0.136 -2.094,1.336 0.088,0.133 z m 0.681,1.027 2.053,-1.311 -0.08,-0.131 -2.059,1.313 0.086,0.129 z m 0.657,0.993 2.021,-1.29 -0.078,-0.126 -2.025,1.293 0.082,0.123 z m 0.695,1.05 1.986,-1.268 -0.076,-0.123 -1.99,1.271 0.08,0.12 z m 0.67,1.015 1.953,-1.248 -0.074,-0.119 -1.957,1.249 0.078,0.118 z m 0.516,0.806 1.953,-1.247 -0.073,-0.119 -1.959,1.25 0.079,0.116 z m 2.746,4.273 c 0.084,0.134 0.265,0.175 0.4,0.089 0.135,-0.087 0.176,-0.267 0.09,-0.403 l -2.213,-3.466 c -0.088,-0.135 -0.268,-0.175 -0.404,-0.088 -0.135,0.086 -0.174,0.266 -0.086,0.402 l 2.213,3.466 z m 1.531,-0.979 c 0.086,0.134 0.265,0.175 0.402,0.088 0.137,-0.086 0.176,-0.267 0.088,-0.401 l -2.211,-3.466 c -0.088,-0.137 -0.267,-0.175 -0.402,-0.089 -0.135,0.087 -0.176,0.267 -0.09,0.401 l 2.213,3.467 z M 5.779,1.425 c 0.035,1.963 -0.386,4.097 1.131,5.372 0.918,0.769 3.569,1.518 3.658,5.258 0.065,2.717 -2.156,4.574 -3.379,5.387 2.893,4.726 6.659,10.9 6.659,10.9 l 0.769,0.035 0.692,1.027 0.004,0.006 0.609,0.903 -0.024,0.014 0.235,0.366 0.031,-0.019 0.607,0.901 -0.054,0.035 0.234,0.368 0.063,-0.041 0.896,1.33 -1.015,1.857 -2.131,0.133 -0.854,-1.338 0.002,-10e-4 -0.234,-0.367 -0.002,10e-4 -0.586,-0.916 0.002,-0.002 -0.233,-0.366 -0.002,10e-4 -0.586,-0.916 0.002,-0.002 -0.234,-0.367 -0.002,10e-4 -0.398,-0.627 0.259,-0.666 L 4.795,18.97 c -1.268,0.768 -3.858,1.962 -6.268,0.772 -3.355,-1.655 -2.918,-4.375 -3.232,-5.531 -0.516,-1.912 -2.629,-2.428 -4.397,-3.287 -2.734,-1.332 -6,-3.766 -5.056,-8.862 0.722,-3.919 3.66,-6.03 5.115,-6.967 l 0.012,0.019 0.427,-0.299 c 1.737,-1.102 4.612,-2.702 8.471,-1.709 5.022,1.29 5.854,5.278 5.912,8.319" />
    </g>
    <g
       transform="matrix(1.0481426,0,0,-1.0481426,35.061243,2.7095224)"
       id="g8833">
      <path
         inkscape:connector-curvature="0"
         id="path8835"
         style="fill:#cfcccd;fill-opacity:1;fill-rule:nonzero;stroke:none"
         d="M 0,0 C 0.309,-0.209 0.434,-0.064 0.553,0.122 L 0.592,0.183 C 0.809,0.534 0.656,0.617 0.469,0.736 0.283,0.854 0.146,0.965 -0.082,0.614 L -0.121,0.554 C -0.336,0.238 -0.186,0.119 0,0" />
    </g>
    <g
       transform="matrix(1.0481426,0,0,-1.0481426,35.783875,2.3604909)"
       id="g8837">
      <path
         inkscape:connector-curvature="0"
         id="path8839"
         style="fill:#cfcccd;fill-opacity:1;fill-rule:nonzero;stroke:none"
         d="M 0,0 -0.232,-0.367 0.092,-0.574 0.326,-0.207 0,0 z" />
    </g>
    <g
       transform="matrix(1.0481426,0,0,-1.0481426,34.203444,4.0545996)"
       id="g8841">
      <path
         inkscape:connector-curvature="0"
         id="path8843"
         style="fill:#cfcccd;fill-opacity:1;fill-rule:nonzero;stroke:none"
         d="M 0,0 C 0.307,-0.21 0.432,-0.064 0.553,0.122 L 0.592,0.184 C 0.809,0.533 0.654,0.618 0.469,0.736 0.283,0.855 0.146,0.965 -0.082,0.614 L -0.123,0.553 C -0.336,0.236 -0.187,0.119 0,0" />
    </g>
    <g
       transform="matrix(1.0481426,0,0,-1.0481426,34.926159,3.7054675)"
       id="g8845">
      <path
         inkscape:connector-curvature="0"
         id="path8847"
         style="fill:#cfcccd;fill-opacity:1;fill-rule:nonzero;stroke:none"
         d="M 0,0 -0.234,-0.366 0.092,-0.574 0.324,-0.207 0,0 z" />
    </g>
    <g
       transform="matrix(1.0481426,0,0,-1.0481426,33.343631,5.3995846)"
       id="g8849">
      <path
         inkscape:connector-curvature="0"
         id="path8851"
         style="fill:#cfcccd;fill-opacity:1;fill-rule:nonzero;stroke:none"
         d="M 0,0 C 0.309,-0.209 0.434,-0.064 0.553,0.123 L 0.592,0.184 C 0.809,0.533 0.656,0.617 0.469,0.735 0.283,0.854 0.146,0.965 -0.082,0.614 L -0.121,0.554 C -0.334,0.237 -0.186,0.119 0,0" />
    </g>
    <g
       transform="matrix(1.0481426,0,0,-1.0481426,34.066347,5.0504441)"
       id="g8853">
      <path
         inkscape:connector-curvature="0"
         id="path8855"
         style="fill:#cfcccd;fill-opacity:1;fill-rule:nonzero;stroke:none"
         d="M 0,0 -0.232,-0.366 0.092,-0.574 0.326,-0.207 0,0 z" />
    </g>
    <g
       transform="matrix(1.0481426,0,0,-1.0481426,39.644813,5.634989)"
       id="g8857">
      <path
         inkscape:connector-curvature="0"
         id="path8859"
         style="fill:#cfcccd;fill-opacity:1;fill-rule:nonzero;stroke:none"
         d="M 0,0 C 0.186,-0.118 0.355,-0.205 0.553,0.122 L 0.592,0.183 C 0.812,0.538 0.656,0.616 0.469,0.736 0.283,0.854 0.143,0.959 -0.084,0.613 L -0.121,0.553 C -0.242,0.366 -0.32,0.19 0,0" />
    </g>
    <g
       transform="matrix(1.0481426,0,0,-1.0481426,39.411454,5.2162603)"
       id="g8861">
      <path
         inkscape:connector-curvature="0"
         id="path8863"
         style="fill:#cfcccd;fill-opacity:1;fill-rule:nonzero;stroke:none"
         d="M 0,0 0.234,0.367 -0.031,0.535 -0.273,0.174 0,0 z" />
    </g>
    <g
       transform="matrix(1.0481426,0,0,-1.0481426,38.785001,6.979966)"
       id="g8865">
      <path
         inkscape:connector-curvature="0"
         id="path8867"
         style="fill:#cfcccd;fill-opacity:1;fill-rule:nonzero;stroke:none"
         d="M 0,0 C 0.187,-0.119 0.355,-0.205 0.553,0.122 L 0.592,0.184 C 0.814,0.539 0.656,0.617 0.471,0.736 0.283,0.854 0.145,0.958 -0.082,0.614 L -0.121,0.553 C -0.24,0.365 -0.318,0.19 0,0" />
    </g>
    <g
       transform="matrix(1.0481426,0,0,-1.0481426,38.551642,6.561346)"
       id="g8869">
      <path
         inkscape:connector-curvature="0"
         id="path8871"
         style="fill:#cfcccd;fill-opacity:1;fill-rule:nonzero;stroke:none"
         d="M 0,0 0.234,0.366 -0.061,0.556 -0.303,0.195 0,0 z" />
    </g>
    <g
       transform="matrix(1.0481426,0,0,-1.0481426,37.927285,8.32589)"
       id="g8873">
      <path
         inkscape:connector-curvature="0"
         id="path8875"
         style="fill:#cfcccd;fill-opacity:1;fill-rule:nonzero;stroke:none"
         d="M 0,0 C 0.186,-0.118 0.355,-0.204 0.553,0.123 L 0.592,0.184 C 0.812,0.54 0.656,0.618 0.469,0.737 0.283,0.855 0.143,0.958 -0.084,0.615 L -0.121,0.554 C -0.242,0.367 -0.32,0.191 0,0" />
    </g>
    <g
       transform="matrix(1.0481426,0,0,-1.0481426,37.349968,7.687252)"
       id="g8877">
      <path
         inkscape:connector-curvature="0"
         id="path8879"
         style="fill:#cfcccd;fill-opacity:1;fill-rule:nonzero;stroke:none"
         d="M 0,0 0.328,-0.209 0.562,0.157 0.234,0.366 0.23,0.36 0,0 z" />
    </g>
  </g>
</svg>
