<?xml version="1.0" encoding="UTF-8" standalone="no"?>
<!-- Created with Inkscape (http://www.inkscape.org/) -->

<svg
   xmlns:dc="http://purl.org/dc/elements/1.1/"
   xmlns:cc="http://creativecommons.org/ns#"
   xmlns:rdf="http://www.w3.org/1999/02/22-rdf-syntax-ns#"
   xmlns:svg="http://www.w3.org/2000/svg"
   xmlns="http://www.w3.org/2000/svg"
   xmlns:sodipodi="http://sodipodi.sourceforge.net/DTD/sodipodi-0.dtd"
   xmlns:inkscape="http://www.inkscape.org/namespaces/inkscape"
   width="48px"
   height="48px"
   id="svg28083"
   version="1.1"
   inkscape:version="0.48.4 r9939"
   sodipodi:docname="homme.svg">
  <defs
     id="defs28085">
    <clipPath
       clipPathUnits="userSpaceOnUse"
       id="clipPath4901">
      <path
         inkscape:connector-curvature="0"
         d="m 315.748,1648.19 0.773,0 0,-0.63 -0.773,0 0,0.63 z"
         id="path4903" />
    </clipPath>
    <clipPath
       clipPathUnits="userSpaceOnUse"
       id="clipPath4905">
      <path
         inkscape:connector-curvature="0"
         d="m 315.759,1648.18 0.762,0 0,-0.62 -0.762,0 0,0.62 z"
         id="path4907" />
    </clipPath>
    <clipPath
       clipPathUnits="userSpaceOnUse"
       id="clipPath4909">
      <path
         inkscape:connector-curvature="0"
         d="m 315.748,1648.19 0.011,0 0,-0.01 -0.011,0 0,0.01 z"
         id="path4911" />
    </clipPath>
    <clipPath
       clipPathUnits="userSpaceOnUse"
       id="clipPath4857">
      <path
         inkscape:connector-curvature="0"
         d="m 327.146,1644.07 0.45,0 0,-0.02 -0.45,0 0,0.02 z"
         id="path4859" />
    </clipPath>
    <clipPath
       clipPathUnits="userSpaceOnUse"
       id="clipPath4861">
      <path
         inkscape:connector-curvature="0"
         d="m 327.146,1644.07 0.446,0 0,-0.02 -0.446,0 0,0.02 z"
         id="path4863" />
    </clipPath>
    <clipPath
       clipPathUnits="userSpaceOnUse"
       id="clipPath4865">
      <path
         inkscape:connector-curvature="0"
         d="m 327.592,1644.05 0.004,0 0,0 -0.004,0 z"
         id="path4867" />
    </clipPath>
  </defs>
  <sodipodi:namedview
     id="base"
     pagecolor="#ffffff"
     bordercolor="#666666"
     borderopacity="1.0"
     inkscape:pageopacity="0.0"
     inkscape:pageshadow="2"
     inkscape:zoom="7"
     inkscape:cx="26.60379"
     inkscape:cy="24"
     inkscape:current-layer="layer1"
     showgrid="true"
     inkscape:grid-bbox="true"
     inkscape:document-units="px"
     inkscape:window-width="651"
     inkscape:window-height="653"
     inkscape:window-x="1999"
     inkscape:window-y="301"
     inkscape:window-maximized="0" />
  <metadata
     id="metadata28088">
    <rdf:RDF>
      <cc:Work
         rdf:about="">
        <dc:format>image/svg+xml</dc:format>
        <dc:type
           rdf:resource="http://purl.org/dc/dcmitype/StillImage" />
        <dc:title />
      </cc:Work>
    </rdf:RDF>
  </metadata>
  <g
     id="layer1"
     inkscape:label="Layer 1"
     inkscape:groupmode="layer">
    <g
       id="g2998">
      <g
         style="fill:#cfcccd"
         id="g6877"
         transform="matrix(1.25,0,0,-1.25,23.124857,10.857315)">
        <path
           d="M 0,0 C 1.201,0 2.176,0.975 2.176,2.176 2.176,3.377 1.201,4.353 0,4.353 -1.201,4.353 -2.178,3.377 -2.178,2.176 -2.178,0.975 -1.201,0 0,0"
           style="fill:#cfcccd;fill-opacity:1;fill-rule:nonzero;stroke:none"
           id="path6879"
           inkscape:connector-curvature="0" />
      </g>
      <g
         style="fill:#cfcccd"
         id="g6881"
         transform="matrix(1.25,0,0,-1.25,29.614107,13.862685)">
        <path
           d="m 0,0 c -0.045,1.009 -0.775,1.814 -1.68,1.814 l -6.994,0 c -0.875,0 -1.586,-0.752 -1.672,-1.715 -0.043,-0.114 -0.074,-0.236 -0.074,-0.363 l 0,-7.921 c 0,-0.582 0.473,-1.056 1.055,-1.056 0.584,0 1.054,0.474 1.054,1.056 l 0,6.182 0.428,0 0,-6.296 0,-1.084 0,-3.018 0,-3.818 0,-4.105 c 0,-0.58 0.471,-1.053 1.053,-1.053 0.582,0 1.055,0.473 1.055,1.053 l 0,4.105 0,3.818 0,1.074 c 0.181,-0.149 0.402,-0.248 0.654,-0.248 0.252,0 0.475,0.099 0.656,0.248 l 0,-1.074 0,-3.818 0,-4.105 c 0,-0.58 0.473,-1.053 1.053,-1.053 0.582,0 1.055,0.473 1.055,1.053 l 0,4.105 0,3.818 0,3.018 0,1.084 0,6.296 0.314,0 0,-6.238 c 0,-0.583 0.473,-1.056 1.055,-1.056 0.58,0 1.054,0.473 1.054,1.056 l 0,7.919 C 0.066,-0.208 0.033,-0.104 0,0"
           style="fill:#cfcccd;fill-opacity:1;fill-rule:nonzero;stroke:none"
           id="path6883"
           inkscape:connector-curvature="0" />
      </g>
    </g>
  </g>
</svg>
