<?xml version="1.0" encoding="UTF-8" standalone="no"?>
<!-- Created with Inkscape (http://www.inkscape.org/) -->

<svg
   xmlns:dc="http://purl.org/dc/elements/1.1/"
   xmlns:cc="http://creativecommons.org/ns#"
   xmlns:rdf="http://www.w3.org/1999/02/22-rdf-syntax-ns#"
   xmlns:svg="http://www.w3.org/2000/svg"
   xmlns="http://www.w3.org/2000/svg"
   xmlns:sodipodi="http://sodipodi.sourceforge.net/DTD/sodipodi-0.dtd"
   xmlns:inkscape="http://www.inkscape.org/namespaces/inkscape"
   width="48px"
   height="48px"
   id="svg28083"
   version="1.1"
   inkscape:version="0.48.4 r9939"
   sodipodi:docname="idee.svg">
  <defs
     id="defs28085">
    <clipPath
       clipPathUnits="userSpaceOnUse"
       id="clipPath4901">
      <path
         inkscape:connector-curvature="0"
         d="m 315.748,1648.19 0.773,0 0,-0.63 -0.773,0 0,0.63 z"
         id="path4903" />
    </clipPath>
    <clipPath
       clipPathUnits="userSpaceOnUse"
       id="clipPath4905">
      <path
         inkscape:connector-curvature="0"
         d="m 315.759,1648.18 0.762,0 0,-0.62 -0.762,0 0,0.62 z"
         id="path4907" />
    </clipPath>
    <clipPath
       clipPathUnits="userSpaceOnUse"
       id="clipPath4909">
      <path
         inkscape:connector-curvature="0"
         d="m 315.748,1648.19 0.011,0 0,-0.01 -0.011,0 0,0.01 z"
         id="path4911" />
    </clipPath>
    <clipPath
       clipPathUnits="userSpaceOnUse"
       id="clipPath4857">
      <path
         inkscape:connector-curvature="0"
         d="m 327.146,1644.07 0.45,0 0,-0.02 -0.45,0 0,0.02 z"
         id="path4859" />
    </clipPath>
    <clipPath
       clipPathUnits="userSpaceOnUse"
       id="clipPath4861">
      <path
         inkscape:connector-curvature="0"
         d="m 327.146,1644.07 0.446,0 0,-0.02 -0.446,0 0,0.02 z"
         id="path4863" />
    </clipPath>
    <clipPath
       clipPathUnits="userSpaceOnUse"
       id="clipPath4865">
      <path
         inkscape:connector-curvature="0"
         d="m 327.592,1644.05 0.004,0 0,0 -0.004,0 z"
         id="path4867" />
    </clipPath>
  </defs>
  <sodipodi:namedview
     id="base"
     pagecolor="#ffffff"
     bordercolor="#666666"
     borderopacity="1.0"
     inkscape:pageopacity="0.0"
     inkscape:pageshadow="2"
     inkscape:zoom="7"
     inkscape:cx="26.60379"
     inkscape:cy="18.285714"
     inkscape:current-layer="layer1"
     showgrid="true"
     inkscape:grid-bbox="true"
     inkscape:document-units="px"
     inkscape:window-width="651"
     inkscape:window-height="653"
     inkscape:window-x="2127"
     inkscape:window-y="274"
     inkscape:window-maximized="0" />
  <metadata
     id="metadata28088">
    <rdf:RDF>
      <cc:Work
         rdf:about="">
        <dc:format>image/svg+xml</dc:format>
        <dc:type
           rdf:resource="http://purl.org/dc/dcmitype/StillImage" />
        <dc:title />
      </cc:Work>
    </rdf:RDF>
  </metadata>
  <g
     id="layer1"
     inkscape:label="Layer 1"
     inkscape:groupmode="layer">
    <g
       id="g3014">
      <g
         style="fill:#cfcccd"
         id="g3855"
         transform="matrix(1.25,0,0,-1.25,16.92171,25.258857)">
        <path
           d="M 0,0 C 2.266,0.078 4.042,1.944 3.966,4.167 3.89,6.393 1.991,8.133 -0.275,8.057 -2.542,7.979 -4.315,6.111 -4.24,3.887 -4.164,1.662 -2.264,-0.077 0,0"
           style="fill:#cfcccd;fill-opacity:1;fill-rule:nonzero;stroke:none"
           id="path3857"
           inkscape:connector-curvature="0" />
      </g>
      <g
         style="fill:#cfcccd"
         id="g3859"
         transform="matrix(1.25,0,0,-1.25,21.54383,27.824957)">
        <path
           d="m 0,0 -3.359,-5.396 -3.82,5.32 c -2.755,-1.069 -4.621,-3.277 -4.536,-5.768 l 0.226,-6.647 16.187,0 -0.245,7.2 C 4.373,-2.938 2.574,-0.955 0,0"
           style="fill:#cfcccd;fill-opacity:1;fill-rule:nonzero;stroke:none"
           id="path3861"
           inkscape:connector-curvature="0" />
      </g>
      <g
         style="fill:#cfcccd"
         id="g3863"
         transform="matrix(1.25,0,0,-1.25,33.43345,17.481957)">
        <path
           d="m 0,0 c -0.247,-0.29 -0.443,-0.674 -0.578,-1.141 -0.099,-0.336 -0.129,-0.594 -0.135,-0.623 l -0.002,-0.035 0,-0.038 c 0.008,-0.189 -0.106,-0.346 -0.123,-0.37 l -0.109,-0.116 c -0.291,-0.074 -0.561,-0.12 -0.813,-0.144 l 0.034,2.144 c 0,0.083 -0.025,0.158 -0.067,0.224 l 1.316,3.537 -0.108,0.041 C -0.589,3.49 -0.589,3.503 -0.591,3.517 -0.666,3.782 -0.901,3.834 -1.131,3.78 -1.154,3.824 -1.19,3.859 -1.236,3.884 -1.397,3.973 -1.608,3.922 -1.76,3.81 -1.901,3.852 -2.078,3.842 -2.206,3.812 -2.35,3.935 -2.595,3.876 -2.77,3.748 -2.896,3.816 -3.059,3.835 -3.148,3.758 -3.164,3.743 -3.177,3.727 -3.192,3.711 -3.417,4.022 -3.66,3.626 -3.688,3.391 l -0.126,-0.05 1.337,-3.451 c -0.038,-0.059 -0.059,-0.127 -0.059,-0.202 l -0.032,-2.166 c -0.354,0.03 -0.634,0.098 -0.826,0.162 l 0.006,0.045 -0.112,0.143 c 0,0.002 -0.12,0.174 -0.101,0.375 l 0.004,0.036 0,0.037 c -0.004,0.028 -0.019,0.286 -0.099,0.627 -0.108,0.475 -0.281,0.87 -0.51,1.175 -0.051,0.075 -0.336,0.532 -0.591,1.145 -0.245,0.595 -0.502,1.457 -0.338,2.181 l 0.002,0.009 0.002,0.01 c 0.006,0.025 0.15,0.726 0.616,1.394 0.606,0.865 1.466,1.287 2.557,1.254 0.007,0.002 0.017,0 0.024,0 l 0.004,0 0.004,0 0.023,0 C -0.812,6.084 0.023,5.612 0.578,4.717 1.008,4.021 1.11,3.315 1.112,3.286 L 1.116,3.27 C 1.346,1.893 0.11,0.154 0,0 M -1.544,3.552 C -1.549,3.589 -1.553,3.624 -1.57,3.661 -1.576,3.68 -1.591,3.693 -1.601,3.707 -1.521,3.711 -1.445,3.704 -1.382,3.681 -1.447,3.643 -1.5,3.599 -1.544,3.552 m 0.462,0.049 C -1.064,3.599 -1.047,3.596 -1.03,3.589 -1.051,3.564 -1.072,3.539 -1.085,3.516 c 0.003,0.029 0.003,0.056 0.003,0.085 M -3.12,3.548 c 0.061,0.079 0.141,0.115 0.245,0.104 -0.114,-0.131 -0.152,-0.294 -0.005,-0.423 0.174,-0.161 0.276,0.173 0.283,0.278 0.002,0.031 -0.006,0.061 -0.019,0.09 0.023,0.002 0.05,0.005 0.082,0.007 -0.17,-0.281 0.445,-0.56 0.445,-0.121 0,0.069 -0.01,0.123 -0.025,0.172 0.076,0.009 0.135,0.015 0.152,0.017 0.019,0 0.042,0.002 0.066,0.006 C -1.897,3.674 -1.901,3.672 -1.903,3.669 -1.975,3.562 -2.072,3.059 -1.772,3.171 -1.698,3.198 -1.646,3.24 -1.608,3.29 -1.599,3.274 -1.591,3.26 -1.576,3.245 -1.394,3.062 -1.226,3.159 -1.141,3.332 -1.133,3.25 -1.076,3.194 -0.998,3.167 L -2.137,0.103 -3.336,3.198 c 0.249,-0.094 0.272,0.155 0.216,0.35 M -3.409,3.388 C -3.399,3.392 -3.39,3.395 -3.38,3.397 -3.386,3.376 -3.386,3.354 -3.388,3.333 L -3.409,3.388 z M 2.049,3.417 C 2.036,3.524 1.907,4.347 1.401,5.18 0.899,6.01 -0.076,7.009 -1.875,7.06 c -0.011,0 -0.019,0.001 -0.028,0.001 -0.01,0 -0.017,0.001 -0.027,0 C -3.728,7.113 -4.761,6.171 -5.31,5.372 -5.863,4.57 -6.038,3.759 -6.057,3.652 -6.156,3.219 -6.158,2.729 -6.061,2.199 c 0.074,-0.407 0.206,-0.843 0.39,-1.293 0.31,-0.754 0.669,-1.296 0.684,-1.319 l 0.008,-0.013 0.011,-0.014 c 0.297,-0.383 0.402,-1.016 0.424,-1.266 -0.024,-0.355 0.093,-0.651 0.187,-0.826 -0.058,-0.794 -0.052,-1.447 0.013,-1.947 0.055,-0.423 0.152,-0.732 0.296,-0.947 l 0.076,-0.112 0.124,-0.056 c 0.236,-0.103 0.74,-0.279 1.479,-0.299 l 0,-0.001 c 0.529,-0.017 1.084,0.054 1.645,0.206 l 0.158,0.042 0.098,0.133 c 0.155,0.206 0.266,0.512 0.343,0.933 0.093,0.49 0.135,1.138 0.121,1.922 0.105,0.171 0.238,0.458 0.234,0.815 0.036,0.248 0.179,0.873 0.496,1.239 l 0.01,0.013 0.011,0.013 C 0.764,-0.556 1.152,-0.037 1.506,0.701 1.715,1.14 1.871,1.565 1.97,1.97 2.093,2.491 2.122,2.979 2.049,3.417"
           style="fill:#cfcccd;fill-opacity:1;fill-rule:nonzero;stroke:none"
           id="path3865"
           inkscape:connector-curvature="0" />
      </g>
      <g
         style="fill:#cfcccd"
         id="g3867"
         transform="matrix(1.25,0,0,-1.25,23.19783,21.324657)">
        <path
           d="M 0,0 C 0.104,-0.106 0.274,-0.111 0.382,-0.01 L 2.568,2.089 C 2.679,2.192 2.681,2.362 2.578,2.472 2.476,2.577 2.304,2.581 2.198,2.479 L 0.008,0.38 C -0.099,0.277 -0.103,0.107 0,0"
           style="fill:#cfcccd;fill-opacity:1;fill-rule:nonzero;stroke:none"
           id="path3869"
           inkscape:connector-curvature="0" />
      </g>
      <g
         style="fill:#cfcccd"
         id="g3871"
         transform="matrix(1.25,0,0,-1.25,35.94996,9.5680564)">
        <path
           d="M 0,0 2.188,2.099 C 2.295,2.2 2.299,2.369 2.196,2.479 2.091,2.586 1.922,2.59 1.814,2.486 L -0.375,0.389 C -0.481,0.286 -0.485,0.115 -0.382,0.008 -0.279,-0.1 -0.108,-0.104 0,0"
           style="fill:#cfcccd;fill-opacity:1;fill-rule:nonzero;stroke:none"
           id="path3873"
           inkscape:connector-curvature="0" />
      </g>
      <g
         style="fill:#cfcccd"
         id="g3875"
         transform="matrix(1.25,0,0,-1.25,25.9597,9.5521564)">
        <path
           d="M 0,0 C 0.106,-0.103 0.279,-0.101 0.38,0.008 0.483,0.114 0.481,0.284 0.375,0.389 L -1.806,2.494 C -1.915,2.597 -2.084,2.594 -2.188,2.486 -2.291,2.379 -2.289,2.21 -2.181,2.106 L 0,0 z"
           style="fill:#cfcccd;fill-opacity:1;fill-rule:nonzero;stroke:none"
           id="path3877"
           inkscape:connector-curvature="0" />
      </g>
      <g
         style="fill:#cfcccd"
         id="g3879"
         transform="matrix(1.25,0,0,-1.25,35.93595,18.243557)">
        <path
           d="m 0,0 c -0.11,0.104 -0.277,0.101 -0.382,-0.006 -0.105,-0.107 -0.101,-0.278 0.007,-0.382 l 2.179,-2.105 c 0.109,-0.104 0.278,-0.1 0.383,0.006 0.102,0.107 0.1,0.278 -0.008,0.383 L 0,0 z"
           style="fill:#cfcccd;fill-opacity:1;fill-rule:nonzero;stroke:none"
           id="path3881"
           inkscape:connector-curvature="0" />
      </g>
      <g
         style="fill:#cfcccd"
         id="g3883"
         transform="matrix(1.25,0,0,-1.25,20.54595,13.946657)">
        <path
           d="M 0,0 3.03,-0.082 C 3.179,-0.089 3.302,0.029 3.306,0.179 3.31,0.328 3.192,0.45 3.046,0.454 L 0.013,0.539 C -0.135,0.543 -0.259,0.425 -0.262,0.277 -0.266,0.129 -0.148,0.005 0,0"
           style="fill:#cfcccd;fill-opacity:1;fill-rule:nonzero;stroke:none"
           id="path3885"
           inkscape:connector-curvature="0" />
      </g>
      <g
         style="fill:#cfcccd"
         id="g3887"
         transform="matrix(1.25,0,0,-1.25,41.34971,13.849057)">
        <path
           d="m 0,0 -3.031,0.084 c -0.15,0.004 -0.273,-0.113 -0.277,-0.261 -0.004,-0.151 0.112,-0.274 0.262,-0.278 l 3.03,-0.084 C 0.131,-0.543 0.256,-0.425 0.26,-0.277 0.264,-0.128 0.146,-0.003 0,0"
           style="fill:#cfcccd;fill-opacity:1;fill-rule:nonzero;stroke:none"
           id="path3889"
           inkscape:connector-curvature="0" />
      </g>
      <g
         style="fill:#cfcccd"
         id="g3891"
         transform="matrix(1.25,0,0,-1.25,31.1092,7.8797564)">
        <path
           d="M 0,0 C 0.15,-0.005 0.274,0.113 0.278,0.263 L 0.361,3.292 C 0.367,3.441 0.249,3.563 0.099,3.569 -0.049,3.572 -0.171,3.455 -0.177,3.308 L -0.262,0.276 C -0.264,0.128 -0.146,0.004 0,0"
           style="fill:#cfcccd;fill-opacity:1;fill-rule:nonzero;stroke:none"
           id="path3893"
           inkscape:connector-curvature="0" />
      </g>
    </g>
  </g>
</svg>
