<?xml version="1.0" encoding="UTF-8" standalone="no"?>
<!-- Created with Inkscape (http://www.inkscape.org/) -->

<svg
   xmlns:dc="http://purl.org/dc/elements/1.1/"
   xmlns:cc="http://creativecommons.org/ns#"
   xmlns:rdf="http://www.w3.org/1999/02/22-rdf-syntax-ns#"
   xmlns:svg="http://www.w3.org/2000/svg"
   xmlns="http://www.w3.org/2000/svg"
   xmlns:sodipodi="http://sodipodi.sourceforge.net/DTD/sodipodi-0.dtd"
   xmlns:inkscape="http://www.inkscape.org/namespaces/inkscape"
   width="48px"
   height="48px"
   id="svg28083"
   version="1.1"
   inkscape:version="0.48.4 r9943 custom"
   sodipodi:docname="institution.svg">
  <defs
     id="defs28085">
    <clipPath
       clipPathUnits="userSpaceOnUse"
       id="clipPath4901">
      <path
         inkscape:connector-curvature="0"
         d="m 315.748,1648.19 0.773,0 0,-0.63 -0.773,0 0,0.63 z"
         id="path4903" />
    </clipPath>
    <clipPath
       clipPathUnits="userSpaceOnUse"
       id="clipPath4905">
      <path
         inkscape:connector-curvature="0"
         d="m 315.759,1648.18 0.762,0 0,-0.62 -0.762,0 0,0.62 z"
         id="path4907" />
    </clipPath>
    <clipPath
       clipPathUnits="userSpaceOnUse"
       id="clipPath4909">
      <path
         inkscape:connector-curvature="0"
         d="m 315.748,1648.19 0.011,0 0,-0.01 -0.011,0 0,0.01 z"
         id="path4911" />
    </clipPath>
    <clipPath
       clipPathUnits="userSpaceOnUse"
       id="clipPath4857">
      <path
         inkscape:connector-curvature="0"
         d="m 327.146,1644.07 0.45,0 0,-0.02 -0.45,0 0,0.02 z"
         id="path4859" />
    </clipPath>
    <clipPath
       clipPathUnits="userSpaceOnUse"
       id="clipPath4861">
      <path
         inkscape:connector-curvature="0"
         d="m 327.146,1644.07 0.446,0 0,-0.02 -0.446,0 0,0.02 z"
         id="path4863" />
    </clipPath>
    <clipPath
       clipPathUnits="userSpaceOnUse"
       id="clipPath4865">
      <path
         inkscape:connector-curvature="0"
         d="m 327.592,1644.05 0.004,0 0,0 -0.004,0 z"
         id="path4867" />
    </clipPath>
  </defs>
  <sodipodi:namedview
     id="base"
     pagecolor="#ffffff"
     bordercolor="#666666"
     borderopacity="1.0"
     inkscape:pageopacity="0.0"
     inkscape:pageshadow="2"
     inkscape:zoom="7"
     inkscape:cx="26.60379"
     inkscape:cy="18.285714"
     inkscape:current-layer="layer1"
     showgrid="true"
     inkscape:grid-bbox="true"
     inkscape:document-units="px"
     inkscape:window-width="651"
     inkscape:window-height="653"
     inkscape:window-x="1333"
     inkscape:window-y="273"
     inkscape:window-maximized="0" />
  <metadata
     id="metadata28088">
    <rdf:RDF>
      <cc:Work
         rdf:about="">
        <dc:format>image/svg+xml</dc:format>
        <dc:type
           rdf:resource="http://purl.org/dc/dcmitype/StillImage" />
        <dc:title />
      </cc:Work>
    </rdf:RDF>
  </metadata>
  <g
     id="layer1"
     inkscape:label="Layer 1"
     inkscape:groupmode="layer">
    <g
       transform="matrix(1.25,0,0,-1.25,33.800186,15.651875)"
       id="g3923"
       style="fill:#cfcccd">
      <path
         inkscape:connector-curvature="0"
         id="path3925"
         style="fill:#cfcccd;fill-opacity:1;fill-rule:nonzero;stroke:none"
         d="m 0,0 0,-14.244 -2.646,0 0,14.244 c 0,0.062 -0.01,0.123 -0.02,0.183 l 2.684,0 C 0.008,0.123 0,0.062 0,0 M -12.088,0.183 C -12.098,0.123 -12.107,0.062 -12.107,0 l 0,-14.244 -2.647,0 0,14.244 c 0,0.062 -0.01,0.123 -0.019,0.183 l 2.685,0 z m 6.053,0 C -6.045,0.123 -6.055,0.062 -6.055,0 l 0,-14.244 -2.646,0 0,14.244 c 0,0.062 -0.008,0.123 -0.018,0.183 l 2.684,0 z M 5.693,0.968 1.383,3.132 C 0.523,3.563 -0.883,4.27 -1.74,4.701 l -4.311,2.164 c -0.859,0.432 -2.263,0.432 -3.123,0 l -4.31,-2.164 c -0.86,-0.431 -2.264,-1.138 -3.123,-1.569 l -4.311,-2.164 c -0.857,-0.432 -0.775,-0.785 0.188,-0.785 l 2.587,0 C -18.15,0.123 -18.16,0.062 -18.16,0 l 0,-14.421 c -0.295,-0.19 -0.49,-0.517 -0.49,-0.889 l 0,-0.496 c -0.471,-0.144 -0.813,-0.574 -0.813,-1.085 l 0,-0.911 c 0,-0.63 0.52,-1.144 1.16,-1.144 l 21.522,0 c 0.642,0 1.16,0.514 1.16,1.144 l 0,0.911 c 0,0.431 -0.244,0.802 -0.604,0.997 l 0,0.584 c 0,0.319 -0.144,0.6 -0.371,0.795 L 3.404,0 c 0,0.062 -0.008,0.123 -0.017,0.183 l 2.121,0 c 0.961,0 1.045,0.353 0.185,0.785" />
    </g>
  </g>
</svg>
