<?xml version="1.0" encoding="UTF-8" standalone="no"?>
<!-- Created with Inkscape (http://www.inkscape.org/) -->

<svg
   xmlns:dc="http://purl.org/dc/elements/1.1/"
   xmlns:cc="http://creativecommons.org/ns#"
   xmlns:rdf="http://www.w3.org/1999/02/22-rdf-syntax-ns#"
   xmlns:svg="http://www.w3.org/2000/svg"
   xmlns="http://www.w3.org/2000/svg"
   xmlns:sodipodi="http://sodipodi.sourceforge.net/DTD/sodipodi-0.dtd"
   xmlns:inkscape="http://www.inkscape.org/namespaces/inkscape"
   width="48px"
   height="48px"
   id="svg28083"
   version="1.1"
   inkscape:version="0.48.4 r9943 custom"
   sodipodi:docname="jeux-video.svg">
  <defs
     id="defs28085">
    <clipPath
       clipPathUnits="userSpaceOnUse"
       id="clipPath4901">
      <path
         inkscape:connector-curvature="0"
         d="m 315.748,1648.19 0.773,0 0,-0.63 -0.773,0 0,0.63 z"
         id="path4903" />
    </clipPath>
    <clipPath
       clipPathUnits="userSpaceOnUse"
       id="clipPath4905">
      <path
         inkscape:connector-curvature="0"
         d="m 315.759,1648.18 0.762,0 0,-0.62 -0.762,0 0,0.62 z"
         id="path4907" />
    </clipPath>
    <clipPath
       clipPathUnits="userSpaceOnUse"
       id="clipPath4909">
      <path
         inkscape:connector-curvature="0"
         d="m 315.748,1648.19 0.011,0 0,-0.01 -0.011,0 0,0.01 z"
         id="path4911" />
    </clipPath>
    <clipPath
       clipPathUnits="userSpaceOnUse"
       id="clipPath4857">
      <path
         inkscape:connector-curvature="0"
         d="m 327.146,1644.07 0.45,0 0,-0.02 -0.45,0 0,0.02 z"
         id="path4859" />
    </clipPath>
    <clipPath
       clipPathUnits="userSpaceOnUse"
       id="clipPath4861">
      <path
         inkscape:connector-curvature="0"
         d="m 327.146,1644.07 0.446,0 0,-0.02 -0.446,0 0,0.02 z"
         id="path4863" />
    </clipPath>
    <clipPath
       clipPathUnits="userSpaceOnUse"
       id="clipPath4865">
      <path
         inkscape:connector-curvature="0"
         d="m 327.592,1644.05 0.004,0 0,0 -0.004,0 z"
         id="path4867" />
    </clipPath>
  </defs>
  <sodipodi:namedview
     id="base"
     pagecolor="#ffffff"
     bordercolor="#666666"
     borderopacity="1.0"
     inkscape:pageopacity="0.0"
     inkscape:pageshadow="2"
     inkscape:zoom="7"
     inkscape:cx="26.60379"
     inkscape:cy="24"
     inkscape:current-layer="layer1"
     showgrid="true"
     inkscape:grid-bbox="true"
     inkscape:document-units="px"
     inkscape:window-width="651"
     inkscape:window-height="653"
     inkscape:window-x="1333"
     inkscape:window-y="273"
     inkscape:window-maximized="0" />
  <metadata
     id="metadata28088">
    <rdf:RDF>
      <cc:Work
         rdf:about="">
        <dc:format>image/svg+xml</dc:format>
        <dc:type
           rdf:resource="http://purl.org/dc/dcmitype/StillImage" />
        <dc:title />
      </cc:Work>
    </rdf:RDF>
  </metadata>
  <g
     id="layer1"
     inkscape:label="Layer 1"
     inkscape:groupmode="layer">
    <g
       transform="matrix(1.25,0,0,-1.25,37.18125,27.502092)"
       id="g5613"
       style="fill:#cfcccd">
      <path
         inkscape:connector-curvature="0"
         id="path5615"
         style="fill:#cfcccd;fill-opacity:1;fill-rule:nonzero;stroke:none"
         d="m 0,0 -0.911,-0.012 0.012,-0.909 c 0.005,-0.491 -0.388,-0.893 -0.878,-0.9 -0.495,-0.006 -0.898,0.387 -0.902,0.879 l -0.011,0.911 -0.911,-0.011 c -0.492,-0.008 -0.893,0.387 -0.901,0.88 -0.004,0.49 0.39,0.892 0.88,0.898 l 0.911,0.012 -0.011,0.909 c -0.006,0.491 0.388,0.894 0.88,0.9 0.49,0.006 0.893,-0.388 0.901,-0.877 l 0.009,-0.91 0.913,0.01 C 0.47,1.784 0.873,1.393 0.878,0.898 0.884,0.409 0.493,0.006 0,0 m -16.658,0.092 c -0.55,-0.008 -0.998,0.432 -1.006,0.981 -0.007,0.548 0.434,0.998 0.981,1.004 0.552,0.008 1,-0.431 1.006,-0.979 0.008,-0.549 -0.433,-0.998 -0.981,-1.006 m -1.656,-1.696 c -0.549,-0.006 -1,0.434 -1.006,0.982 -0.005,0.549 0.434,0.997 0.983,1.005 0.548,0.005 0.999,-0.434 1.002,-0.983 0.008,-0.547 -0.432,-0.998 -0.979,-1.004 m -2.702,2.637 c -0.005,0.55 0.434,0.998 0.981,1.004 0.55,0.008 1,-0.432 1.006,-0.98 0.006,-0.547 -0.433,-0.998 -0.981,-1.005 -0.549,-0.005 -0.998,0.432 -1.006,0.981 m 2.638,2.701 c 0.549,0.006 0.998,-0.432 1.003,-0.98 0.008,-0.551 -0.429,-1 -0.979,-1.006 -0.549,-0.007 -0.998,0.434 -1.005,0.982 -0.006,0.548 0.433,0.997 0.981,1.004 M 1.369,7.345 C 0.278,8.79 -1.141,9.579 -2.622,9.563 -4.185,9.542 -5.681,8.585 -6.757,6.923 c -1.083,0.27 -2.226,0.404 -3.401,0.419 -0.127,1.026 -0.048,2.007 0.667,2.861 0.715,0.853 1.957,1.205 2.959,1.587 2.025,0.774 2.38,2.261 2,4.291 -0.147,0.796 -1.398,0.651 -1.249,-0.146 0.209,-1.125 0.391,-2.235 -0.785,-2.798 -0.879,-0.418 -1.826,-0.652 -2.668,-1.162 -1.798,-1.095 -2.367,-2.742 -2.179,-4.663 -1.053,-0.068 -2.091,-0.243 -3.051,-0.51 -1.129,1.671 -2.639,2.588 -4.217,2.57 -3.319,-0.041 -5.873,-4.045 -5.814,-9.117 0.033,-2.618 0.774,-5.081 2.037,-6.757 l 10e-4,0 c 1.09,-1.449 2.51,-2.236 3.993,-2.219 1.96,0.022 3.69,1.412 4.772,3.821 2.086,-0.436 4.352,-0.418 6.435,0.046 0.261,-0.539 0.557,-1.03 0.886,-1.465 1.086,-1.445 2.495,-2.23 3.962,-2.211 3.32,0.039 5.873,4.045 5.814,9.117 C 3.373,3.204 2.631,5.666 1.369,7.345" />
    </g>
  </g>
</svg>
