<?xml version="1.0" encoding="UTF-8" standalone="no"?>
<!-- Created with Inkscape (http://www.inkscape.org/) -->

<svg
   xmlns:dc="http://purl.org/dc/elements/1.1/"
   xmlns:cc="http://creativecommons.org/ns#"
   xmlns:rdf="http://www.w3.org/1999/02/22-rdf-syntax-ns#"
   xmlns:svg="http://www.w3.org/2000/svg"
   xmlns="http://www.w3.org/2000/svg"
   xmlns:sodipodi="http://sodipodi.sourceforge.net/DTD/sodipodi-0.dtd"
   xmlns:inkscape="http://www.inkscape.org/namespaces/inkscape"
   width="48px"
   height="48px"
   id="svg28083"
   version="1.1"
   inkscape:version="0.48.4 r9939"
   sodipodi:docname="job.svg">
  <defs
     id="defs28085">
    <clipPath
       clipPathUnits="userSpaceOnUse"
       id="clipPath4901">
      <path
         inkscape:connector-curvature="0"
         d="m 315.748,1648.19 0.773,0 0,-0.63 -0.773,0 0,0.63 z"
         id="path4903" />
    </clipPath>
    <clipPath
       clipPathUnits="userSpaceOnUse"
       id="clipPath4905">
      <path
         inkscape:connector-curvature="0"
         d="m 315.759,1648.18 0.762,0 0,-0.62 -0.762,0 0,0.62 z"
         id="path4907" />
    </clipPath>
    <clipPath
       clipPathUnits="userSpaceOnUse"
       id="clipPath4909">
      <path
         inkscape:connector-curvature="0"
         d="m 315.748,1648.19 0.011,0 0,-0.01 -0.011,0 0,0.01 z"
         id="path4911" />
    </clipPath>
    <clipPath
       clipPathUnits="userSpaceOnUse"
       id="clipPath4857">
      <path
         inkscape:connector-curvature="0"
         d="m 327.146,1644.07 0.45,0 0,-0.02 -0.45,0 0,0.02 z"
         id="path4859" />
    </clipPath>
    <clipPath
       clipPathUnits="userSpaceOnUse"
       id="clipPath4861">
      <path
         inkscape:connector-curvature="0"
         d="m 327.146,1644.07 0.446,0 0,-0.02 -0.446,0 0,0.02 z"
         id="path4863" />
    </clipPath>
    <clipPath
       clipPathUnits="userSpaceOnUse"
       id="clipPath4865">
      <path
         inkscape:connector-curvature="0"
         d="m 327.592,1644.05 0.004,0 0,0 -0.004,0 z"
         id="path4867" />
    </clipPath>
  </defs>
  <sodipodi:namedview
     id="base"
     pagecolor="#ffffff"
     bordercolor="#666666"
     borderopacity="1.0"
     inkscape:pageopacity="0.0"
     inkscape:pageshadow="2"
     inkscape:zoom="7"
     inkscape:cx="26.60379"
     inkscape:cy="18.285714"
     inkscape:current-layer="layer1"
     showgrid="true"
     inkscape:grid-bbox="true"
     inkscape:document-units="px"
     inkscape:window-width="651"
     inkscape:window-height="653"
     inkscape:window-x="2164"
     inkscape:window-y="303"
     inkscape:window-maximized="0" />
  <metadata
     id="metadata28088">
    <rdf:RDF>
      <cc:Work
         rdf:about="">
        <dc:format>image/svg+xml</dc:format>
        <dc:type
           rdf:resource="http://purl.org/dc/dcmitype/StillImage" />
        <dc:title />
      </cc:Work>
    </rdf:RDF>
  </metadata>
  <g
     id="layer1"
     inkscape:label="Layer 1"
     inkscape:groupmode="layer">
    <g
       id="g3004">
      <g
         style="fill:#cfcccd"
         id="g3061"
         transform="matrix(1.25,0,0,-1.25,16.295872,25.021442)">
        <path
           d="M 0,0 C -2.451,3.261 -1.832,7.919 1.381,10.403 4.594,12.891 9.186,12.262 11.637,9.002 14.084,5.741 13.467,1.083 10.254,-1.402 7.039,-3.889 2.447,-3.26 0,0 m 18.666,-10.773 -6.371,8.48 c -0.063,0.084 -0.135,0.155 -0.213,0.221 3.248,3.177 3.707,8.388 0.904,12.117 -3.019,4.018 -8.675,4.791 -12.632,1.728 -3.959,-3.06 -4.723,-8.799 -1.706,-12.817 2.706,-3.6 7.526,-4.593 11.35,-2.558 0.043,-0.115 0.098,-0.228 0.176,-0.332 l 6.371,-8.481 c 0.449,-0.595 1.285,-0.708 1.871,-0.257 0.586,0.454 0.697,1.304 0.25,1.899"
           style="fill:#cfcccd;fill-opacity:1;fill-rule:nonzero;stroke:none"
           id="path3063"
           inkscape:connector-curvature="0" />
      </g>
      <g
         style="fill:#cfcccd"
         id="g3065"
         transform="matrix(1.25,0,0,-1.25,29.843242,14.199742)">
        <path
           d="m 0,0 c -0.016,0.022 -0.031,0.043 -0.045,0.065 -0.953,1.266 -2.287,2.062 -3.715,2.35 0.014,-0.014 0.022,-0.023 0.022,-0.023 0,0 -0.916,-0.33 -0.274,-1.131 1.17,-0.23 2.26,-0.877 3.039,-1.912 0.037,-0.051 0.073,-0.103 0.11,-0.154 C -0.803,-0.812 0.135,-0.873 0,0"
           style="fill:#cfcccd;fill-opacity:1;fill-rule:nonzero;stroke:none"
           id="path3067"
           inkscape:connector-curvature="0" />
      </g>
      <g
         style="fill:#cfcccd"
         id="g3069"
         transform="matrix(1.25,0,0,-1.25,10.268122,39.129042)">
        <path
           d="m 0,0 c 0,-0.357 -0.027,-0.614 -0.08,-0.768 -0.045,-0.135 -0.129,-0.241 -0.252,-0.321 -0.133,-0.084 -0.285,-0.124 -0.471,-0.124 -0.242,0 -0.427,0.072 -0.56,0.223 -0.096,0.105 -0.213,0.352 -0.237,0.925 l -0.007,0.184 -1.094,-0.152 -0.004,-0.144 c -0.012,-0.696 0.148,-1.234 0.48,-1.597 0.332,-0.367 0.815,-0.552 1.428,-0.552 0.408,0 0.772,0.087 1.08,0.258 0.317,0.176 0.549,0.435 0.696,0.771 0.142,0.325 0.21,0.767 0.21,1.346 l 0,4.648 L 0,4.697 0,0 z"
           style="fill:#cfcccd;fill-opacity:1;fill-rule:nonzero;stroke:none"
           id="path3071"
           inkscape:connector-curvature="0" />
      </g>
      <g
         style="fill:#cfcccd"
         id="g3073"
         transform="matrix(1.25,0,0,-1.25,18.678742,39.889542)">
        <path
           d="m 0,0 c -0.389,-0.428 -0.869,-0.636 -1.473,-0.636 -0.59,0 -1.066,0.206 -1.457,0.63 -0.388,0.422 -0.584,1.013 -0.584,1.757 0,0.937 0.201,1.608 0.606,1.997 0.408,0.396 0.883,0.588 1.449,0.588 0.395,0 0.754,-0.103 1.066,-0.305 C -0.076,3.832 0.166,3.543 0.328,3.177 0.498,2.802 0.582,2.354 0.582,1.846 0.582,1.047 0.385,0.426 0,0 m 0.238,4.963 c -0.502,0.306 -1.074,0.459 -1.701,0.459 -0.955,0 -1.748,-0.329 -2.357,-0.979 -0.604,-0.646 -0.91,-1.548 -0.91,-2.679 0,-0.599 0.128,-1.176 0.388,-1.714 0.26,-0.545 0.649,-0.98 1.153,-1.295 0.503,-0.314 1.084,-0.473 1.722,-0.473 0.588,0 1.145,0.144 1.653,0.426 0.513,0.286 0.916,0.714 1.195,1.267 0.277,0.548 0.418,1.175 0.418,1.866 0,0.68 -0.133,1.3 -0.397,1.839 C 1.137,4.226 0.746,4.657 0.238,4.963"
           style="fill:#cfcccd;fill-opacity:1;fill-rule:nonzero;stroke:none"
           id="path3075"
           inkscape:connector-curvature="0" />
      </g>
      <g
         style="fill:#cfcccd"
         id="g3077"
         transform="matrix(1.25,0,0,-1.25,26.715872,39.895642)">
        <path
           d="m 0,0 c -0.072,-0.135 -0.16,-0.233 -0.268,-0.302 -0.115,-0.072 -0.261,-0.126 -0.437,-0.157 -0.102,-0.018 -0.287,-0.029 -0.553,-0.029 l -1.447,0 0,1.924 1.33,0 c 0.395,0 0.695,-0.035 0.898,-0.102 C -0.291,1.271 -0.15,1.169 -0.047,1.017 0.059,0.862 0.107,0.686 0.107,0.474 0.107,0.293 0.072,0.134 0,0 m -2.705,4.196 1.129,0 c 0.447,0 0.76,-0.027 0.935,-0.084 0.155,-0.049 0.268,-0.137 0.352,-0.269 0.086,-0.14 0.129,-0.299 0.129,-0.487 0,-0.194 -0.045,-0.35 -0.135,-0.473 C -0.385,2.76 -0.518,2.673 -0.701,2.617 -0.85,2.571 -1.109,2.548 -1.473,2.548 l -1.232,0 0,1.648 z M 0.322,2.102 c 0.186,0.134 0.334,0.294 0.444,0.475 0.166,0.275 0.25,0.57 0.25,0.883 0,0.331 -0.094,0.654 -0.278,0.957 -0.187,0.304 -0.449,0.533 -0.779,0.68 -0.318,0.142 -0.742,0.214 -1.258,0.214 l -2.597,0 0,-6.913 2.638,0 c 0.424,0 0.787,0.04 1.086,0.117 0.303,0.077 0.561,0.197 0.768,0.353 0.209,0.158 0.384,0.385 0.523,0.672 0.139,0.286 0.211,0.602 0.211,0.934 0,0.418 -0.119,0.788 -0.351,1.097 -0.167,0.223 -0.385,0.4 -0.657,0.531"
           style="fill:#cfcccd;fill-opacity:1;fill-rule:nonzero;stroke:none"
           id="path3079"
           inkscape:connector-curvature="0" />
      </g>
    </g>
  </g>
</svg>
