<?xml version="1.0" encoding="UTF-8" standalone="no"?>
<!-- Created with Inkscape (http://www.inkscape.org/) -->

<svg
   xmlns:dc="http://purl.org/dc/elements/1.1/"
   xmlns:cc="http://creativecommons.org/ns#"
   xmlns:rdf="http://www.w3.org/1999/02/22-rdf-syntax-ns#"
   xmlns:svg="http://www.w3.org/2000/svg"
   xmlns="http://www.w3.org/2000/svg"
   xmlns:sodipodi="http://sodipodi.sourceforge.net/DTD/sodipodi-0.dtd"
   xmlns:inkscape="http://www.inkscape.org/namespaces/inkscape"
   width="48px"
   height="48px"
   id="svg28083"
   version="1.1"
   inkscape:version="0.48.4 r9943 custom"
   sodipodi:docname="job.svg">
  <defs
     id="defs28085">
    <clipPath
       clipPathUnits="userSpaceOnUse"
       id="clipPath4901">
      <path
         inkscape:connector-curvature="0"
         d="m 315.748,1648.19 0.773,0 0,-0.63 -0.773,0 0,0.63 z"
         id="path4903" />
    </clipPath>
    <clipPath
       clipPathUnits="userSpaceOnUse"
       id="clipPath4905">
      <path
         inkscape:connector-curvature="0"
         d="m 315.759,1648.18 0.762,0 0,-0.62 -0.762,0 0,0.62 z"
         id="path4907" />
    </clipPath>
    <clipPath
       clipPathUnits="userSpaceOnUse"
       id="clipPath4909">
      <path
         inkscape:connector-curvature="0"
         d="m 315.748,1648.19 0.011,0 0,-0.01 -0.011,0 0,0.01 z"
         id="path4911" />
    </clipPath>
    <clipPath
       clipPathUnits="userSpaceOnUse"
       id="clipPath4857">
      <path
         inkscape:connector-curvature="0"
         d="m 327.146,1644.07 0.45,0 0,-0.02 -0.45,0 0,0.02 z"
         id="path4859" />
    </clipPath>
    <clipPath
       clipPathUnits="userSpaceOnUse"
       id="clipPath4861">
      <path
         inkscape:connector-curvature="0"
         d="m 327.146,1644.07 0.446,0 0,-0.02 -0.446,0 0,0.02 z"
         id="path4863" />
    </clipPath>
    <clipPath
       clipPathUnits="userSpaceOnUse"
       id="clipPath4865">
      <path
         inkscape:connector-curvature="0"
         d="m 327.592,1644.05 0.004,0 0,0 -0.004,0 z"
         id="path4867" />
    </clipPath>
  </defs>
  <sodipodi:namedview
     id="base"
     pagecolor="#ffffff"
     bordercolor="#666666"
     borderopacity="1.0"
     inkscape:pageopacity="0.0"
     inkscape:pageshadow="2"
     inkscape:zoom="7"
     inkscape:cx="26.60379"
     inkscape:cy="18.285714"
     inkscape:current-layer="layer1"
     showgrid="true"
     inkscape:grid-bbox="true"
     inkscape:document-units="px"
     inkscape:window-width="651"
     inkscape:window-height="653"
     inkscape:window-x="1333"
     inkscape:window-y="295"
     inkscape:window-maximized="0" />
  <metadata
     id="metadata28088">
    <rdf:RDF>
      <cc:Work
         rdf:about="">
        <dc:format>image/svg+xml</dc:format>
        <dc:type
           rdf:resource="http://purl.org/dc/dcmitype/StillImage" />
        <dc:title></dc:title>
      </cc:Work>
    </rdf:RDF>
  </metadata>
  <g
     id="layer1"
     inkscape:label="Layer 1"
     inkscape:groupmode="layer">
    <g
       transform="matrix(1.25,0,0,-1.25,30.659107,21.701875)"
       id="g3581">
      <path
         inkscape:connector-curvature="0"
         id="path3583"
         style="fill:#cfcccd;fill-opacity:1;fill-rule:nonzero;stroke:none"
         d="M 0,0 3.793,8.088 7.541,0 0,0 z m -17.994,0 3.791,8.088 3.75,-8.088 -7.541,0 z M 8.51,0 4.348,8.977 c 0.191,0.152 0.314,0.356 0.314,0.581 l 0,0.595 c 0,0.47 -0.516,0.85 -1.148,0.85 l -7.119,0 0,1.475 c 0,0.926 -0.557,1.679 -1.245,1.679 l -0.871,0 c -0.687,0 -1.246,-0.753 -1.246,-1.679 l 0,-1.475 -6.998,0 c -0.633,0 -1.146,-0.38 -1.146,-0.85 l 0,-0.595 c 0,-0.237 0.131,-0.451 0.341,-0.606 L -18.965,0 -19.057,0 c 0.006,-2.67 2.174,-4.833 4.846,-4.833 2.672,0 4.84,2.163 4.846,4.833 l -0.119,0 -4.039,8.709 6.556,0 0,-19.445 -2.131,0 c -0.568,0 -1.027,-0.461 -1.027,-1.029 l 0,-0.299 c 0,-0.307 0.137,-0.579 0.35,-0.766 l -1.028,0 c -0.82,0 -1.482,-0.667 -1.482,-1.485 l 0,-0.436 c 0,-0.819 0.662,-1.483 1.482,-1.483 l 11.082,0 c 0.821,0 1.483,0.664 1.483,1.483 l 0,0.436 c 0,0.818 -0.662,1.485 -1.483,1.485 l -1.027,0 c 0.213,0.187 0.348,0.459 0.348,0.766 l 0,0.299 c 0,0.568 -0.459,1.029 -1.026,1.029 l -2.179,0 0,19.445 6.716,0 L -0.969,0 -1.061,0 c 0.008,-2.67 2.172,-4.833 4.844,-4.833 2.676,0 4.84,2.163 4.848,4.833 L 8.51,0 z" />
    </g>
  </g>
</svg>
