<?xml version="1.0" encoding="UTF-8" standalone="no"?>
<!-- Created with Inkscape (http://www.inkscape.org/) -->

<svg
   xmlns:dc="http://purl.org/dc/elements/1.1/"
   xmlns:cc="http://creativecommons.org/ns#"
   xmlns:rdf="http://www.w3.org/1999/02/22-rdf-syntax-ns#"
   xmlns:svg="http://www.w3.org/2000/svg"
   xmlns="http://www.w3.org/2000/svg"
   xmlns:sodipodi="http://sodipodi.sourceforge.net/DTD/sodipodi-0.dtd"
   xmlns:inkscape="http://www.inkscape.org/namespaces/inkscape"
   version="1.1"
   width="48"
   height="48"
   id="svg28083"
   inkscape:version="0.48.4 r9939"
   sodipodi:docname="label-ecologie.svg">
  <sodipodi:namedview
     pagecolor="#ffffff"
     bordercolor="#666666"
     borderopacity="1"
     objecttolerance="10"
     gridtolerance="10"
     guidetolerance="10"
     inkscape:pageopacity="0"
     inkscape:pageshadow="2"
     inkscape:window-width="1680"
     inkscape:window-height="1026"
     id="namedview44"
     showgrid="false"
     inkscape:zoom="19.666667"
     inkscape:cx="14.437164"
     inkscape:cy="12.53423"
     inkscape:window-x="1920"
     inkscape:window-y="24"
     inkscape:window-maximized="1"
     inkscape:current-layer="svg28083" />
  <defs
     id="defs28085">
    <clipPath
       id="clipPath4901">
      <path
         d="m 315.748,1648.19 0.773,0 0,-0.63 -0.773,0 0,0.63 z"
         id="path4903" />
    </clipPath>
    <clipPath
       id="clipPath4905">
      <path
         d="m 315.759,1648.18 0.762,0 0,-0.62 -0.762,0 0,0.62 z"
         id="path4907" />
    </clipPath>
    <clipPath
       id="clipPath4909">
      <path
         d="m 315.748,1648.19 0.011,0 0,-0.01 -0.011,0 0,0.01 z"
         id="path4911" />
    </clipPath>
    <clipPath
       id="clipPath4857">
      <path
         d="m 327.146,1644.07 0.45,0 0,-0.02 -0.45,0 0,0.02 z"
         id="path4859" />
    </clipPath>
    <clipPath
       id="clipPath4861">
      <path
         d="m 327.146,1644.07 0.446,0 0,-0.02 -0.446,0 0,0.02 z"
         id="path4863" />
    </clipPath>
    <clipPath
       id="clipPath4865">
      <path
         d="m 327.592,1644.05 0.004,0 0,0 -0.004,0 z"
         id="path4867" />
    </clipPath>
  </defs>
  <metadata
     id="metadata28088">
    <rdf:RDF>
      <cc:Work
         rdf:about="">
        <dc:format>image/svg+xml</dc:format>
        <dc:type
           rdf:resource="http://purl.org/dc/dcmitype/StillImage" />
        <dc:title />
      </cc:Work>
    </rdf:RDF>
  </metadata>
  <g
     id="layer1">
    <g
       transform="matrix(1.25,0,0,-1.25,18.208765,12.874464)"
       id="g13764">
      <path
         d="M 7.007117,1.1832147 C 5.4353072,1.2029489 4.1450594,-0.05655918 4.1253061,-1.6296409 4.1055522,-3.2027231 5.363794,-4.4929552 6.935604,-4.5126903 8.509956,-4.5324543 9.800188,-3.2742204 9.81994,-1.7011389 9.8397,-0.12805679 8.58147,1.1634481 7.007117,1.1832147 M 8.91348,-9.7714794 C 8.332245,-10.175002 7.624646,-10.411594 6.861633,-10.402012 c -1.2017495,0.01508 -2.254803,0.6286415 -2.886766,1.5536086 -1.1027277,-0.2023732 -2.2816004,0.1151394 -3.13842,0.9602532 -0.9045534,0.8927787 -1.2271124,2.148369 -0.9696732,3.3038303 -0.992965,0.6382374 -1.6491769,1.7593818 -1.6332411,3.0285293 0.01646,1.31111365 0.7429464,2.44415101 1.8074648,3.0476533 -0.244432,1.1973747 0.1355552,2.4899332 1.1118994,3.3641835 0.8695179,0.7738574 2.0112112,1.0406112 3.0718382,0.8276077 0.6581148,0.85408 1.6940026,1.4057934 2.8563289,1.3912005 1.206835,-0.015154 2.259874,-0.6299783 2.891852,-1.5536749 1.097599,0.1986524 2.27649,-0.1175877 3.13585,-0.9627379 0.90202,-0.8927025 1.224578,-2.1482935 0.969715,-3.3012427 0.995459,-0.64208451 1.649158,-1.7606535 1.633192,-3.0323447 -0.01645,-1.3111139 -0.744218,-2.4441344 -1.80999,-3.0463496 0.247006,-1.1948635 -0.132998,-2.4886946 -1.111883,-3.3629142 -0.693346,-0.6208782 -1.564408,-0.9101095 -2.426551,-0.894197"
         id="path13766-3-6"
         style="fill:#cfcccd;fill-opacity:1;fill-rule:nonzero;stroke:none"
         inkscape:connector-curvature="0"
         sodipodi:nodetypes="csssccscccscccscccsccc" />
      <path
         style="font-size:medium;font-style:normal;font-variant:normal;font-weight:normal;font-stretch:normal;text-indent:0;text-align:start;text-decoration:none;line-height:normal;letter-spacing:normal;word-spacing:normal;text-transform:none;direction:ltr;block-progression:tb;writing-mode:lr-tb;text-anchor:start;baseline-shift:baseline;color:#000000;fill:#cfcccd;fill-opacity:1;stroke:none;stroke-width:0.87133676;marker:none;visibility:visible;display:inline;overflow:visible;enable-background:accumulate;font-family:Sans;-inkscape-font-specification:Sans"
         d="m 5.6501596,-11.188017 c -1.9479978,-0.737375 -3.6516412,-1.542031 -4.85304676,-2.301796 -0.60070311,-0.379884 -1.09105249,-0.758551 -1.42436441,-1.111194 -0.16665577,-0.176322 -0.28531321,-0.334896 -0.37485163,-0.535162 -0.089538,-0.200267 -0.1491286,-0.460943 -0.056583,-0.700703 0.0925454,-0.23976 0.31252553,-0.394611 0.51412789,-0.484672 0.20160236,-0.09006 0.40885739,-0.161019 0.65178652,-0.182301 0.48585786,-0.04256 1.09420249,0.03041 1.79762449,0.144178 1.4068425,0.227534 3.2301464,0.722181 5.1781442,1.459557 1.9479978,0.737375 3.6396004,1.573225 4.8410064,2.33299 0.600703,0.379884 1.103093,0.727357 1.436405,1.08 0.166656,0.176322 0.273272,0.36609 0.362811,0.566356 0.08954,0.200267 0.149128,0.460943 0.05658,0.700703 -0.09254,0.2397601 -0.312525,0.3946107 -0.514128,0.4846717 -0.201602,0.090061 -0.396817,0.1298252 -0.639746,0.151107 -0.485858,0.042563 -1.106243,7.834e-4 -1.809665,-0.1129834 C 9.4094206,-9.9247998 7.5981574,-10.450641 5.6501596,-11.188017 z m 0.3371381,-0.873433 c 1.8984499,0.71862 3.6634758,1.206483 4.9758663,1.41874 0.656196,0.106129 1.201344,0.153237 1.5516,0.122554 0.152676,-0.01337 0.250215,-0.03682 0.313853,-0.05996 -0.02972,-0.05831 -0.0835,-0.135665 -0.193446,-0.251984 -0.240286,-0.254222 -0.66613,-0.610414 -1.226503,-0.964793 -1.120746,-0.708758 -2.7643596,-1.511167 -4.6628095,-2.229787 -1.8984499,-0.71862 -3.695182,-1.218484 -5.0075727,-1.430742 -0.6561961,-0.106128 -1.18167778,-0.110041 -1.53193448,-0.07936 -0.16025936,0.01404 -0.25243413,0.03614 -0.31385262,0.05996 0.0318301,0.05927 0.08870638,0.14117 0.19344614,0.251984 0.24028572,0.254222 0.64646367,0.567218 1.20683696,0.921598 1.120746,0.708757 2.796066,1.523168 4.6945159,2.241788 z"
         id="path3034"
         inkscape:connector-curvature="0" />
      <path
         style="fill:#ffffff;fill-opacity:1;stroke:none"
         d="m -0.1140218,-13.278127 -0.6857833,-1.154123 0.7861421,-0.719236 0.7192355,-0.317803 1.5890102,0.401434 -1.1541229,1.354841 -0.919953,0.719236 z"
         id="path3804"
         inkscape:connector-curvature="0"
         sodipodi:nodetypes="cccccccc" />
      <g
         id="g3030"
         transform="matrix(-0.28233311,0,0,0.28233311,19.856788,-12.555517)"
         style="color:#000000;fill:#cfcccd;fill-opacity:1;fill-rule:nonzero;stroke:none;marker:none;visibility:visible;display:inline;overflow:visible;enable-background:accumulate">
        <path
           id="path4"
           d="m 80.361096,2.1505612 c -0.3,0.2999998 -0.7072,0.4687998 -1.1312,0.4687998 l -7.2136,0 c -0.424,0 -0.8312,-0.1688 -1.1312,-0.4687998 l -12.8688,-12.8696002 c -0.3,-0.3 -0.4688,-0.7064 -0.4688,-1.1312 l -8e-4,-7.2128 c 0,-0.424 0.1688,-0.8312 0.4688,-1.1312 l 32.9512,-32.9504 c 0.3128,-0.3128 0.7216,-0.4688 1.1312,-0.4688 0.4096,0 0.8184,0.156 1.1312,0.4688 l 20.082404,20.0816 c 0.3,0.3 0.4688,0.7072 0.4688,1.1312 0,0.424 -0.1688,0.8312 -0.4688,1.1312 L 80.361096,2.1505612 z m 11.7376,-51.9016002 -31.352,31.3504 8e-4,5.8872 11.9312,11.93280023 5.888,0 31.350404,-31.35120023 -17.818404,-17.8192 z"
           inkscape:connector-curvature="0"
           style="color:#000000;fill:#cfcccd;fill-opacity:1;fill-rule:nonzero;stroke:none;marker:none;visibility:visible;display:inline;overflow:visible;enable-background:accumulate" />
        <path
           id="path6"
           d="m 71.478696,-6.1118388 c -1.3888,0 -2.6952,-0.5408 -3.6784,-1.5232 -2.0264,-2.028 -2.0256,-5.3264002 8e-4,-7.3544002 0.9824,-0.9824 2.288,-1.5224 3.6776,-1.5224 1.388,0 2.6944,0.5408 3.6768,1.5232 2.0272,2.0272 2.0272,5.3256002 0,7.3544002 -0.9824,0.9816 -2.288,1.5224 -3.6768,1.5224 z m 1.4144,-6.6144002 c -0.7568,-0.7568 -2.0736,-0.7552 -2.8288,0 -0.78,0.78 -0.7792,2.0488 0,2.8288002 0.3776,0.3776 0.8808,0.5856 1.4152,0.5856 0.5344,0 1.0368,-0.208 1.4136,-0.5856 0.7792,-0.7800002 0.7792,-2.0496002 0,-2.8288002 z"
           inkscape:connector-curvature="0"
           style="color:#000000;fill:#cfcccd;fill-opacity:1;fill-rule:nonzero;stroke:none;marker:none;visibility:visible;display:inline;overflow:visible;enable-background:accumulate" />
      </g>
      <path
         inkscape:connector-curvature="0"
         style="fill:#cfcccd;fill-opacity:1;fill-rule:nonzero;stroke:none"
         id="path3834"
         d="m 7.447157,-28.120803 0.04829,-7.55e-4 c 0.557273,1.542789 1.358963,4.173906 1.813524,7.470453 -4.5066777,-0.557719 -4.6972195,4.259299 -4.6972195,4.259299 3.1552005,-0.03962 4.3789905,-1.788743 4.8469225,-3.015428 0.308434,2.958497 1.112046,6.634808 -0.407936,9.9789363 -0.222431,0.8301224 1.375538,1.5450334 1.77719,0.849353 -0.579868,-2.2060593 0.697947,-4.3899443 0.745692,-6.4236583 0.817625,2.161615 3.02481,5.4704588 8.848833,5.397336 0,0 -0.573221,-8.773872 -8.861917,-7.308678 -0.152067,-4.90938 -1.26614,-8.950711 -2.08775,-11.305609"
         sodipodi:nodetypes="ccccccccccc" />
      <g
         id="g3881"
         transform="matrix(0.30992605,-0.30992605,0.30992605,0.30992605,6.1276174,-21.539496)">
        <path
           style="font-size:medium;font-style:normal;font-variant:normal;font-weight:normal;font-stretch:normal;text-indent:0;text-align:start;text-decoration:none;line-height:normal;letter-spacing:normal;word-spacing:normal;text-transform:none;direction:ltr;block-progression:tb;writing-mode:lr-tb;text-anchor:start;baseline-shift:baseline;color:#000000;fill:#cfcccd;fill-opacity:1;stroke:none;stroke-width:1.79419827;marker:none;visibility:visible;display:inline;overflow:visible;enable-background:accumulate;font-family:Sans;-inkscape-font-specification:Sans"
           d="m -21.6875,-25.0625 -0.65625,0.625 -3.1875,3.1875 1.28125,1.28125 2.5625,-2.5625 6.21875,6.21875 1.25,-1.28125 -6.84375,-6.84375 -0.625,-0.625 z"
           id="path6-6"
           inkscape:connector-curvature="0" />
        <path
           style="font-size:medium;font-style:normal;font-variant:normal;font-weight:normal;font-stretch:normal;text-indent:0;text-align:start;text-decoration:none;line-height:normal;letter-spacing:normal;word-spacing:normal;text-transform:none;direction:ltr;block-progression:tb;writing-mode:lr-tb;text-anchor:start;baseline-shift:baseline;color:#000000;fill:#cfcccd;fill-opacity:1;stroke:none;stroke-width:1.07099998;marker:none;visibility:visible;display:inline;overflow:visible;enable-background:accumulate;font-family:Sans;-inkscape-font-specification:Sans"
           d="m -27.067012,-12.500429 0,-0.425 0,-13.475 0,-0.425 0.425,0 13.625,0 0.425,0 0,0.425 0,13.475 0,0.425 -0.425,0 -13.625,0 -0.425,0 z m 0.85,-0.85 12.775,0 0,-12.625 -12.775,0 0,12.625 z"
           id="rect3862"
           inkscape:connector-curvature="0" />
      </g>
    </g>
  </g>
</svg>
