<?xml version="1.0" encoding="UTF-8" standalone="no"?>
<!-- Created with Inkscape (http://www.inkscape.org/) -->

<svg
   xmlns:dc="http://purl.org/dc/elements/1.1/"
   xmlns:cc="http://creativecommons.org/ns#"
   xmlns:rdf="http://www.w3.org/1999/02/22-rdf-syntax-ns#"
   xmlns:svg="http://www.w3.org/2000/svg"
   xmlns="http://www.w3.org/2000/svg"
   xmlns:sodipodi="http://sodipodi.sourceforge.net/DTD/sodipodi-0.dtd"
   xmlns:inkscape="http://www.inkscape.org/namespaces/inkscape"
   width="48px"
   height="48px"
   id="svg28083"
   version="1.1"
   inkscape:version="0.48.4 r9943 custom"
   sodipodi:docname="wifi.svg">
  <defs
     id="defs28085" />
  <sodipodi:namedview
     id="base"
     pagecolor="#ffffff"
     bordercolor="#666666"
     borderopacity="1.0"
     inkscape:pageopacity="0.0"
     inkscape:pageshadow="2"
     inkscape:zoom="7"
     inkscape:cx="24"
     inkscape:cy="24"
     inkscape:current-layer="layer1"
     showgrid="true"
     inkscape:grid-bbox="true"
     inkscape:document-units="px"
     inkscape:window-width="651"
     inkscape:window-height="653"
     inkscape:window-x="1333"
     inkscape:window-y="295"
     inkscape:window-maximized="0" />
  <metadata
     id="metadata28088">
    <rdf:RDF>
      <cc:Work
         rdf:about="">
        <dc:format>image/svg+xml</dc:format>
        <dc:type
           rdf:resource="http://purl.org/dc/dcmitype/StillImage" />
        <dc:title></dc:title>
      </cc:Work>
    </rdf:RDF>
  </metadata>
  <g
     id="layer1"
     inkscape:label="Layer 1"
     inkscape:groupmode="layer">
    <g
       transform="matrix(1.25,0,0,-1.25,38.219016,14.796357)"
       id="g13855">
      <path
         inkscape:connector-curvature="0"
         id="path13857"
         style="fill:#cfcccd;fill-opacity:1;fill-rule:nonzero;stroke:none"
         d="m 0,0 c 0,0 -0.095,2.09 -2.137,3.584 -2.215,1.62 -4.076,0.601 -4.076,0.601 l 0.448,-1.529 c 0,0 1.467,0.573 2.829,-0.424 1.361,-0.996 1.228,-2.423 1.228,-2.423 L 0,0 z" />
    </g>
    <g
       transform="matrix(1.25,0,0,-1.25,37.778396,5.9512371)"
       id="g13859">
      <path
         inkscape:connector-curvature="0"
         id="path13861"
         style="fill:#cfcccd;fill-opacity:1;fill-rule:nonzero;stroke:none"
         d="m 0,0 c -3.914,2.068 -7.009,0.472 -7.009,0.472 l 0.584,-1.634 c 0,0 3.155,0.976 5.622,-0.83 C 1.665,-3.797 1.89,-7.12 1.89,-7.12 l 1.652,0.15 c 0,0 0.484,4.847 -3.542,6.97" />
    </g>
    <g
       transform="matrix(1.25,0,0,-1.25,31.184766,38.878977)"
       id="g13863">
      <path
         inkscape:connector-curvature="0"
         id="path13865"
         style="fill:#cfcccd;fill-opacity:1;fill-rule:nonzero;stroke:none"
         d="m 0,0 -1.198,1.323 2.737,0 L 2.616,0 0,0 z m -3.78,0 -1.196,1.323 2.735,0 L -1.164,0 -3.78,0 z m -3.774,0 -1.199,1.323 2.737,0 L -4.94,0 -7.554,0 z m -3.778,0 -1.199,1.323 2.739,0 L -8.716,0 -11.332,0 z m -3.094,3.655 2.737,0 1.077,-1.322 -2.616,0 -1.198,1.322 z m -2.311,13.587 15.805,0 0,-11.505 -15.805,0 0,11.505 z m 9.902,-14.909 -2.616,0 -1.199,1.322 2.739,0 1.076,-1.322 z m -0.036,1.322 2.737,0 1.075,-1.322 -2.614,0 -1.198,1.322 z m 7.592,-1.322 -2.617,0 -1.198,1.322 2.738,0 1.077,-1.322 z m 0.875,3.404 0,11.758 c 0,0 0.464,2.276 -2.655,2.276 l -16.83,0 c 0,0 -1.756,0.138 -1.756,-2.114 l 0,-12.933 4.93,-8.091 21.244,0 c 0,0 1.642,1.518 -0.633,4.173 -2.274,2.654 -4.3,4.931 -4.3,4.931" />
    </g>
    <g
       transform="matrix(1.25,0,0,-1.25,20.404766,24.000477)"
       id="g13867">
      <path
         inkscape:connector-curvature="0"
         id="path13869"
         style="fill:#cfcccd;fill-opacity:1;fill-rule:nonzero;stroke:none"
         d="M 0,0 -2.936,-2.937 -2.07,-3.765 0.878,-0.745 1.602,-2.536 3.206,2.669 -1.735,0.4 0,0 z" />
    </g>
  </g>
</svg>
