<?xml version="1.0" encoding="UTF-8" standalone="no"?>
<!-- Created with Inkscape (http://www.inkscape.org/) -->

<svg
   xmlns:dc="http://purl.org/dc/elements/1.1/"
   xmlns:cc="http://creativecommons.org/ns#"
   xmlns:rdf="http://www.w3.org/1999/02/22-rdf-syntax-ns#"
   xmlns:svg="http://www.w3.org/2000/svg"
   xmlns="http://www.w3.org/2000/svg"
   xmlns:sodipodi="http://sodipodi.sourceforge.net/DTD/sodipodi-0.dtd"
   xmlns:inkscape="http://www.inkscape.org/namespaces/inkscape"
   width="48px"
   height="48px"
   id="svg28083"
   version="1.1"
   inkscape:version="0.48.4 r9943 custom"
   sodipodi:docname="lit-dollar-pourcent.svg">
  <defs
     id="defs28085">
    <clipPath
       clipPathUnits="userSpaceOnUse"
       id="clipPath4901">
      <path
         inkscape:connector-curvature="0"
         d="m 315.748,1648.19 0.773,0 0,-0.63 -0.773,0 0,0.63 z"
         id="path4903" />
    </clipPath>
    <clipPath
       clipPathUnits="userSpaceOnUse"
       id="clipPath4905">
      <path
         inkscape:connector-curvature="0"
         d="m 315.759,1648.18 0.762,0 0,-0.62 -0.762,0 0,0.62 z"
         id="path4907" />
    </clipPath>
    <clipPath
       clipPathUnits="userSpaceOnUse"
       id="clipPath4909">
      <path
         inkscape:connector-curvature="0"
         d="m 315.748,1648.19 0.011,0 0,-0.01 -0.011,0 0,0.01 z"
         id="path4911" />
    </clipPath>
    <clipPath
       clipPathUnits="userSpaceOnUse"
       id="clipPath4857">
      <path
         inkscape:connector-curvature="0"
         d="m 327.146,1644.07 0.45,0 0,-0.02 -0.45,0 0,0.02 z"
         id="path4859" />
    </clipPath>
    <clipPath
       clipPathUnits="userSpaceOnUse"
       id="clipPath4861">
      <path
         inkscape:connector-curvature="0"
         d="m 327.146,1644.07 0.446,0 0,-0.02 -0.446,0 0,0.02 z"
         id="path4863" />
    </clipPath>
    <clipPath
       clipPathUnits="userSpaceOnUse"
       id="clipPath4865">
      <path
         inkscape:connector-curvature="0"
         d="m 327.592,1644.05 0.004,0 0,0 -0.004,0 z"
         id="path4867" />
    </clipPath>
  </defs>
  <sodipodi:namedview
     id="base"
     pagecolor="#ffffff"
     bordercolor="#666666"
     borderopacity="1.0"
     inkscape:pageopacity="0.0"
     inkscape:pageshadow="2"
     inkscape:zoom="7"
     inkscape:cx="15.175219"
     inkscape:cy="4.7144249"
     inkscape:current-layer="layer1"
     showgrid="true"
     inkscape:grid-bbox="true"
     inkscape:document-units="px"
     inkscape:window-width="989"
     inkscape:window-height="822"
     inkscape:window-x="2152"
     inkscape:window-y="202"
     inkscape:window-maximized="0" />
  <metadata
     id="metadata28088">
    <rdf:RDF>
      <cc:Work
         rdf:about="">
        <dc:format>image/svg+xml</dc:format>
        <dc:type
           rdf:resource="http://purl.org/dc/dcmitype/StillImage" />
        <dc:title></dc:title>
      </cc:Work>
    </rdf:RDF>
  </metadata>
  <g
     id="layer1"
     inkscape:label="Layer 1"
     inkscape:groupmode="layer">
    <g
       transform="matrix(0.59487829,0,0,-0.59487829,14.173218,31.624346)"
       id="g10363">
      <path
         inkscape:connector-curvature="0"
         id="path10365"
         style="fill:#cfcccd;fill-opacity:1;fill-rule:nonzero;stroke:none"
         d="M 0,0 C 2.271,0 4.113,1.843 4.113,4.114 4.113,6.387 2.271,8.229 0,8.229 -2.271,8.229 -4.115,6.387 -4.115,4.114 -4.115,1.843 -2.271,0 0,0" />
    </g>
    <g
       transform="matrix(0.59487829,0,0,-0.59487829,38.179841,30.388712)"
       id="g10367">
      <path
         inkscape:connector-curvature="0"
         id="path10369"
         style="fill:#cfcccd;fill-opacity:1;fill-rule:nonzero;stroke:none"
         d="m 0,0 -0.572,0 c -0.994,0 -1.819,-0.646 -1.973,-1.489 -1.959,1.334 -5.484,0.672 -5.484,0.672 -2.434,-0.168 -7.557,3.358 -7.557,3.358 -13.855,5.961 -19.144,-0.589 -19.144,-0.589 -0.168,-2.854 -2.229,-4.287 -2.229,-4.287 -0.939,-0.73 -2.117,-1.17 -3.396,-1.17 -2.612,0 -4.795,1.807 -5.381,4.236 C -46.1,0.67 -46.434,0.604 -46.723,0.539 l 0,2.461 c 0,1.268 -1.027,2.297 -2.295,2.297 l -0.658,0 c -1.267,0 -2.295,-1.029 -2.295,-2.297 l 0,-18.758 c 0,-1.268 1.028,-2.295 2.295,-2.295 l 0.658,0 c 1.268,0 2.295,1.027 2.295,2.295 l 0,6.763 c 0.137,-0.004 0.274,-0.008 0.414,-0.008 l 43.012,0 c 0.246,0 0.488,0.008 0.725,0.023 l 0,-7.298 c 0,-0.98 0.896,-1.775 2,-1.775 l 0.572,0 c 1.107,0 2.002,0.795 2.002,1.775 l 0,14.503 C 2.002,-0.795 1.107,0 0,0" />
    </g>
    <g
       transform="matrix(0.53699541,0,0,-0.53699541,33.555475,28.635547)"
       id="g3461">
      <path
         inkscape:connector-curvature="0"
         id="path3463"
         style="fill:#cfcccd;fill-opacity:1;fill-rule:nonzero;stroke:none"
         d="m -0.476,15.014 c 0.16,1.002 0.655,2.267 1.636,3.051 1.329,1.063 -0.887,0.975 -2.392,0.797 -1.506,-0.177 -4.782,0.709 -5.491,0.089 -0.708,-0.619 -0.443,-1.595 0.354,-2.125 0.465,-0.31 1.018,-1.161 1.4,-1.816 -4.523,-1.634 -7.9,-8.078 -7.9,-15.785 0,-0.984 0.057,-1.945 0.163,-2.88 0.192,-0.639 0.803,-2.125 2.341,-2.125 l 15.035,0 c 0,0 2.166,0.068 2.574,1.858 0.028,0.22 0.053,0.44 0.074,0.662 0.002,0.099 0.01,0.186 0.021,0.26 0.064,0.728 0.098,1.47 0.098,2.225 0,7.713 -3.383,14.162 -7.913,15.789"
         sodipodi:nodetypes="ccccccscsccccsc" />
    </g>
    <g
       transform="matrix(0.53699541,0,0,-0.53699541,42.592898,26.428839)"
       id="g3473">
      <path
         inkscape:connector-curvature="0"
         id="path3475"
         style="fill:#cfcccd;fill-opacity:1;fill-rule:nonzero;stroke:none"
         d="m 0,0 c -0.008,-0.021 -0.014,-0.043 -0.025,-0.064 -0.091,-0.184 -0.185,-0.358 -0.283,-0.53 0,-0.002 -0.002,-0.003 -0.002,-0.003 0.025,-0.116 0.027,-0.246 -0.003,-0.383 -0.102,-0.45 -0.289,-0.905 -0.54,-1.327 -0.2,-2.211 -2.082,-3.944 -4.374,-3.944 -2.425,0 -4.392,1.94 -4.392,4.334 0,0.205 0.015,0.407 0.044,0.605 -0.345,0.52 -0.645,1.064 -0.773,1.57 -0.294,-0.667 -0.46,-1.401 -0.46,-2.175 0,-3.04 2.498,-5.505 5.581,-5.505 3.081,0 5.582,2.465 5.582,5.505 C 0.355,-1.242 0.226,-0.597 0,0" />
    </g>
    <g
       transform="matrix(0.53699541,0,0,-0.53699541,42.529691,27.666463)"
       id="g3477">
      <path
         inkscape:connector-curvature="0"
         id="path3479"
         style="fill:#cfcccd;fill-opacity:1;fill-rule:nonzero;stroke:none"
         d="m 0,0 c -0.096,-0.576 -0.373,-1.148 -0.568,-1.701 -0.036,-0.107 -0.091,-0.203 -0.156,-0.285 0.002,-0.046 0.01,-0.09 0.01,-0.135 0,-2.312 -1.969,-4.186 -4.395,-4.186 -2.426,0 -4.392,1.874 -4.392,4.186 0,0.152 0.009,0.302 0.026,0.449 -0.37,0.54 -0.641,1.225 -0.637,1.887 -0.367,-0.704 -0.578,-1.495 -0.578,-2.336 0,-2.938 2.498,-5.316 5.581,-5.316 3.081,0 5.582,2.378 5.582,5.316 C 0.473,-1.365 0.301,-0.648 0,0" />
    </g>
    <g
       transform="matrix(0.53699541,0,0,-0.53699541,39.785967,28.410051)"
       id="g3481">
      <path
         inkscape:connector-curvature="0"
         id="path3483"
         style="fill:#cfcccd;fill-opacity:1;fill-rule:nonzero;stroke:none"
         d="m 0,0 c -2.425,0 -4.392,1.939 -4.392,4.334 0,2.393 1.967,4.333 4.392,4.333 2.427,0 4.395,-1.94 4.395,-4.333 C 4.395,1.939 2.427,0 0,0 m 0,9.84 c -3.083,0 -5.581,-2.466 -5.581,-5.506 0,-3.042 2.498,-5.506 5.581,-5.506 3.082,0 5.582,2.464 5.582,5.506 0,3.04 -2.5,5.506 -5.582,5.506" />
    </g>
    <text
       xml:space="preserve"
       style="font-size:16.11310959000000054px;font-style:normal;font-weight:bold;text-align:center;line-height:125%;letter-spacing:0px;word-spacing:0px;text-anchor:middle;fill:#4d4d4d;fill-opacity:1;stroke:none;font-family:STIXSizeFourSym;-inkscape-font-specification:STIXSizeFourSym Bold;font-stretch:normal;font-variant:normal"
       x="19.998566"
       y="23.488422"
       id="text3485"
       sodipodi:linespacing="125%"
       transform="scale(0.96419705,1.0371324)"><tspan
         sodipodi:role="line"
         id="tspan3487"
         x="19.998566"
         y="23.488422"
         style="font-weight:bold;-inkscape-font-specification:Sans Bold;fill:#4d4d4d;font-family:Sans;font-style:normal;font-stretch:normal;font-variant:normal">%</tspan></text>
    <path
       d="m 33.658398,24.601194 -0.245671,0.714141 -2.701883,0 c -0.07695,0.13833 0.01381,0.388662 0.01381,0.388662 l 2.700404,0 -0.154901,0.66484 -2.455227,0 c 0.763157,2.532521 3.024512,1.07887 3.024512,1.07887 l 0.154407,1.041057 c -3.67026,1.240174 -4.226226,-2.132372 -4.226226,-2.132372 l -0.69656,0 0.16674,-0.639472 0.426717,0 c 0.01381,-0.100515 0.02615,-0.488699 0.02615,-0.488699 l -0.594444,0 0.167727,-0.627027 0.491341,0 c 1.13709,-3.384991 4.316503,-1.894006 4.316503,-1.894006 l -0.310295,1.004201 c -2.261354,-1.21672 -2.932755,0.889805 -2.932755,0.889805 z"
       style="fill:#ffffff;fill-opacity:1;fill-rule:nonzero;stroke:none"
       id="path4606"
       inkscape:connector-curvature="0"
       sodipodi:nodetypes="ccccccccccccccccccccc"
       inkscape:transform-center-x="-0.81081835" />
    <path
       d="m 40.499684,25.623687 -0.09245,0.276985 -1.016789,0 c -0.02896,0.05365 0.0052,0.150746 0.0052,0.150746 l 1.016232,0 -0.05829,0.257863 -0.923966,0 c 0.287197,0.982259 1.138203,0.418449 1.138203,0.418449 l 0.05811,0.403782 c -1.381223,0.481012 -1.590447,-0.827057 -1.590447,-0.827057 l -0.262134,0 0.06275,-0.248025 0.160584,0 c 0.0052,-0.03899 0.0098,-0.189546 0.0098,-0.189546 l -0.223705,0 0.06312,-0.243197 0.184905,0 c 0.427916,-1.312897 1.624412,-0.734606 1.624412,-0.734606 l -0.116772,0.389488 c -0.851007,-0.471915 -1.103672,0.345118 -1.103672,0.345118 z"
       style="fill:#4d4d4d;fill-opacity:1;fill-rule:nonzero;stroke:none"
       id="path4606-4"
       inkscape:connector-curvature="0"
       sodipodi:nodetypes="ccccccccccccccccccccc" />
  </g>
</svg>
