<?xml version="1.0" encoding="UTF-8" standalone="no"?>
<!-- Created with Inkscape (http://www.inkscape.org/) -->

<svg
   xmlns:dc="http://purl.org/dc/elements/1.1/"
   xmlns:cc="http://creativecommons.org/ns#"
   xmlns:rdf="http://www.w3.org/1999/02/22-rdf-syntax-ns#"
   xmlns:svg="http://www.w3.org/2000/svg"
   xmlns="http://www.w3.org/2000/svg"
   xmlns:sodipodi="http://sodipodi.sourceforge.net/DTD/sodipodi-0.dtd"
   xmlns:inkscape="http://www.inkscape.org/namespaces/inkscape"
   width="48px"
   height="48px"
   id="svg28083"
   version="1.1"
   inkscape:version="0.48.4 r9939"
   sodipodi:docname="lit-dollar-pourcent.svg">
  <defs
     id="defs28085">
    <clipPath
       clipPathUnits="userSpaceOnUse"
       id="clipPath4901">
      <path
         inkscape:connector-curvature="0"
         d="m 315.748,1648.19 0.773,0 0,-0.63 -0.773,0 0,0.63 z"
         id="path4903" />
    </clipPath>
    <clipPath
       clipPathUnits="userSpaceOnUse"
       id="clipPath4905">
      <path
         inkscape:connector-curvature="0"
         d="m 315.759,1648.18 0.762,0 0,-0.62 -0.762,0 0,0.62 z"
         id="path4907" />
    </clipPath>
    <clipPath
       clipPathUnits="userSpaceOnUse"
       id="clipPath4909">
      <path
         inkscape:connector-curvature="0"
         d="m 315.748,1648.19 0.011,0 0,-0.01 -0.011,0 0,0.01 z"
         id="path4911" />
    </clipPath>
    <clipPath
       clipPathUnits="userSpaceOnUse"
       id="clipPath4857">
      <path
         inkscape:connector-curvature="0"
         d="m 327.146,1644.07 0.45,0 0,-0.02 -0.45,0 0,0.02 z"
         id="path4859" />
    </clipPath>
    <clipPath
       clipPathUnits="userSpaceOnUse"
       id="clipPath4861">
      <path
         inkscape:connector-curvature="0"
         d="m 327.146,1644.07 0.446,0 0,-0.02 -0.446,0 0,0.02 z"
         id="path4863" />
    </clipPath>
    <clipPath
       clipPathUnits="userSpaceOnUse"
       id="clipPath4865">
      <path
         inkscape:connector-curvature="0"
         d="m 327.592,1644.05 0.004,0 0,0 -0.004,0 z"
         id="path4867" />
    </clipPath>
  </defs>
  <sodipodi:namedview
     id="base"
     pagecolor="#ffffff"
     bordercolor="#666666"
     borderopacity="1.0"
     inkscape:pageopacity="0.0"
     inkscape:pageshadow="2"
     inkscape:zoom="7"
     inkscape:cx="15.175219"
     inkscape:cy="4.7144249"
     inkscape:current-layer="layer1"
     showgrid="true"
     inkscape:grid-bbox="true"
     inkscape:document-units="px"
     inkscape:window-width="989"
     inkscape:window-height="822"
     inkscape:window-x="2152"
     inkscape:window-y="180"
     inkscape:window-maximized="0" />
  <metadata
     id="metadata28088">
    <rdf:RDF>
      <cc:Work
         rdf:about="">
        <dc:format>image/svg+xml</dc:format>
        <dc:type
           rdf:resource="http://purl.org/dc/dcmitype/StillImage" />
        <dc:title />
      </cc:Work>
    </rdf:RDF>
  </metadata>
  <g
     id="layer1"
     inkscape:label="Layer 1"
     inkscape:groupmode="layer">
    <g
       id="g3014">
      <g
         style="fill:#cfcccd"
         id="g10363"
         transform="matrix(0.59487829,0,0,-0.59487829,14.173218,31.624346)">
        <path
           d="M 0,0 C 2.271,0 4.113,1.843 4.113,4.114 4.113,6.387 2.271,8.229 0,8.229 -2.271,8.229 -4.115,6.387 -4.115,4.114 -4.115,1.843 -2.271,0 0,0"
           style="fill:#cfcccd;fill-opacity:1;fill-rule:nonzero;stroke:none"
           id="path10365"
           inkscape:connector-curvature="0" />
      </g>
      <g
         style="fill:#cfcccd"
         id="g10367"
         transform="matrix(0.59487829,0,0,-0.59487829,38.179841,30.388712)">
        <path
           d="m 0,0 -0.572,0 c -0.994,0 -1.819,-0.646 -1.973,-1.489 -1.959,1.334 -5.484,0.672 -5.484,0.672 -2.434,-0.168 -7.557,3.358 -7.557,3.358 -13.855,5.961 -19.144,-0.589 -19.144,-0.589 -0.168,-2.854 -2.229,-4.287 -2.229,-4.287 -0.939,-0.73 -2.117,-1.17 -3.396,-1.17 -2.612,0 -4.795,1.807 -5.381,4.236 C -46.1,0.67 -46.434,0.604 -46.723,0.539 l 0,2.461 c 0,1.268 -1.027,2.297 -2.295,2.297 l -0.658,0 c -1.267,0 -2.295,-1.029 -2.295,-2.297 l 0,-18.758 c 0,-1.268 1.028,-2.295 2.295,-2.295 l 0.658,0 c 1.268,0 2.295,1.027 2.295,2.295 l 0,6.763 c 0.137,-0.004 0.274,-0.008 0.414,-0.008 l 43.012,0 c 0.246,0 0.488,0.008 0.725,0.023 l 0,-7.298 c 0,-0.98 0.896,-1.775 2,-1.775 l 0.572,0 c 1.107,0 2.002,0.795 2.002,1.775 l 0,14.503 C 2.002,-0.795 1.107,0 0,0"
           style="fill:#cfcccd;fill-opacity:1;fill-rule:nonzero;stroke:none"
           id="path10369"
           inkscape:connector-curvature="0" />
      </g>
      <g
         style="fill:#cfcccd"
         id="g3461"
         transform="matrix(0.53699541,0,0,-0.53699541,33.555475,28.635547)">
        <path
           d="m 0,0 c -0.608,-0.641 -1.398,-0.984 -2.365,-1.03 l 0,-1.4 -0.817,0 0,1.385 c -0.691,0.086 -1.254,0.242 -1.687,0.465 -0.432,0.223 -0.807,0.582 -1.122,1.08 -0.315,0.497 -0.499,1.104 -0.551,1.822 l 1.392,0.26 C -5.042,1.839 -4.852,1.294 -4.58,0.945 -4.191,0.454 -3.725,0.18 -3.182,0.123 l 0,4.405 c -0.568,0.108 -1.15,0.328 -1.745,0.66 -0.44,0.248 -0.78,0.588 -1.018,1.023 -0.238,0.435 -0.357,0.932 -0.357,1.484 0,0.985 0.347,1.781 1.045,2.391 0.466,0.41 1.158,0.66 2.075,0.753 l 0,0.661 0.817,0 0,-0.661 c 0.803,-0.076 1.442,-0.313 1.912,-0.707 C 0.152,9.63 0.515,8.94 0.638,8.063 L -0.791,7.849 c -0.083,0.544 -0.251,0.96 -0.511,1.249 -0.259,0.289 -0.615,0.48 -1.063,0.573 l 0,-3.989 C -1.67,5.506 -1.208,5.37 -0.983,5.273 -0.553,5.083 -0.202,4.854 0.069,4.581 0.342,4.309 0.551,3.986 0.697,3.612 0.843,3.238 0.917,2.834 0.917,2.397 0.917,1.438 0.611,0.641 0,0 m -0.476,15.014 c 0.16,1.002 0.655,2.267 1.636,3.051 1.329,1.063 -0.887,0.975 -2.392,0.797 -1.506,-0.177 -4.782,0.709 -5.491,0.089 -0.708,-0.619 -0.443,-1.595 0.354,-2.125 0.465,-0.31 1.018,-1.161 1.4,-1.816 -4.523,-1.634 -7.9,-8.078 -7.9,-15.785 0,-0.984 0.057,-1.945 0.163,-2.88 0.192,-0.639 0.803,-2.125 2.341,-2.125 l 15.035,0 c 0,0 2.166,0.068 2.574,1.858 0.028,0.22 0.053,0.44 0.074,0.662 0.002,0.099 0.01,0.186 0.021,0.26 0.064,0.728 0.098,1.47 0.098,2.225 0,7.713 -3.383,14.162 -7.913,15.789"
           style="fill:#cfcccd;fill-opacity:1;fill-rule:nonzero;stroke:none"
           id="path3463"
           inkscape:connector-curvature="0" />
      </g>
      <g
         style="fill:#cfcccd"
         id="g3465"
         transform="matrix(0.53699541,0,0,-0.53699541,32.285374,26.307177)">
        <path
           d="m 0,0 0,-4.213 c 0.536,0.067 0.981,0.3 1.333,0.701 0.351,0.399 0.526,0.893 0.526,1.483 0,0.502 -0.124,0.905 -0.373,1.21 C 1.236,-0.514 0.741,-0.241 0,0"
           style="fill:#cfcccd;fill-opacity:1;fill-rule:nonzero;stroke:none"
           id="path3467"
           inkscape:connector-curvature="0" />
      </g>
      <g
         style="fill:#cfcccd"
         id="g3469"
         transform="matrix(0.53699541,0,0,-0.53699541,30.91378,24.445522)">
        <path
           d="m 0,0 c 0,-0.472 0.133,-0.866 0.396,-1.185 0.265,-0.317 0.71,-0.572 1.342,-0.759 l 0,3.829 C 1.2,1.802 0.776,1.586 0.465,1.238 0.156,0.889 0,0.477 0,0"
           style="fill:#cfcccd;fill-opacity:1;fill-rule:nonzero;stroke:none"
           id="path3471"
           inkscape:connector-curvature="0" />
      </g>
      <g
         style="fill:#cfcccd"
         id="g3473"
         transform="matrix(0.53699541,0,0,-0.53699541,42.592898,26.428839)">
        <path
           d="m 0,0 c -0.008,-0.021 -0.014,-0.043 -0.025,-0.064 -0.091,-0.184 -0.185,-0.358 -0.283,-0.53 0,-0.002 -0.002,-0.003 -0.002,-0.003 0.025,-0.116 0.027,-0.246 -0.003,-0.383 -0.102,-0.45 -0.289,-0.905 -0.54,-1.327 -0.2,-2.211 -2.082,-3.944 -4.374,-3.944 -2.425,0 -4.392,1.94 -4.392,4.334 0,0.205 0.015,0.407 0.044,0.605 -0.345,0.52 -0.645,1.064 -0.773,1.57 -0.294,-0.667 -0.46,-1.401 -0.46,-2.175 0,-3.04 2.498,-5.505 5.581,-5.505 3.081,0 5.582,2.465 5.582,5.505 C 0.355,-1.242 0.226,-0.597 0,0"
           style="fill:#cfcccd;fill-opacity:1;fill-rule:nonzero;stroke:none"
           id="path3475"
           inkscape:connector-curvature="0" />
      </g>
      <g
         style="fill:#cfcccd"
         id="g3477"
         transform="matrix(0.53699541,0,0,-0.53699541,42.529691,27.666463)">
        <path
           d="m 0,0 c -0.096,-0.576 -0.373,-1.148 -0.568,-1.701 -0.036,-0.107 -0.091,-0.203 -0.156,-0.285 0.002,-0.046 0.01,-0.09 0.01,-0.135 0,-2.312 -1.969,-4.186 -4.395,-4.186 -2.426,0 -4.392,1.874 -4.392,4.186 0,0.152 0.009,0.302 0.026,0.449 -0.37,0.54 -0.641,1.225 -0.637,1.887 -0.367,-0.704 -0.578,-1.495 -0.578,-2.336 0,-2.938 2.498,-5.316 5.581,-5.316 3.081,0 5.582,2.378 5.582,5.316 C 0.473,-1.365 0.301,-0.648 0,0"
           style="fill:#cfcccd;fill-opacity:1;fill-rule:nonzero;stroke:none"
           id="path3479"
           inkscape:connector-curvature="0" />
      </g>
      <g
         style="fill:#cfcccd"
         id="g3481"
         transform="matrix(0.53699541,0,0,-0.53699541,39.785967,28.410051)">
        <path
           d="m 0,0 c -2.425,0 -4.392,1.939 -4.392,4.334 0,2.393 1.967,4.333 4.392,4.333 2.427,0 4.395,-1.94 4.395,-4.333 C 4.395,1.939 2.427,0 0,0 m 0,9.84 c -3.083,0 -5.581,-2.466 -5.581,-5.506 0,-3.042 2.498,-5.506 5.581,-5.506 3.082,0 5.582,2.464 5.582,5.506 0,3.04 -2.5,5.506 -5.582,5.506"
           style="fill:#cfcccd;fill-opacity:1;fill-rule:nonzero;stroke:none"
           id="path3483"
           inkscape:connector-curvature="0" />
      </g>
      <g
         style="fill:#cfcccd"
         id="g3485"
         transform="matrix(0.53699541,0,0,-0.53699541,40.262174,27.048704)">
        <path
           d="m 0,0 c -0.167,-0.187 -0.378,-0.297 -0.633,-0.328 l 0,1.974 C -0.28,1.533 -0.046,1.404 0.073,1.262 0.19,1.119 0.25,0.931 0.25,0.693 0.25,0.419 0.167,0.187 0,0 m -1.02,2.359 c -0.299,0.088 -0.512,0.207 -0.637,0.358 -0.127,0.147 -0.186,0.332 -0.186,0.553 0,0.224 0.071,0.418 0.218,0.58 0.148,0.164 0.35,0.265 0.605,0.302 l 0,-1.793 z M 0.524,1.762 C 0.396,1.889 0.229,1.996 0.023,2.086 -0.083,2.131 -0.303,2.193 -0.633,2.276 l 0,1.87 C -0.418,4.103 -0.251,4.014 -0.127,3.878 -0.003,3.741 0.077,3.546 0.115,3.293 l 0.68,0.1 C 0.735,3.804 0.565,4.126 0.277,4.362 0.052,4.548 -0.251,4.656 -0.633,4.693 l 0,0.31 -0.387,0 0,-0.31 C -1.455,4.651 -1.784,4.532 -2.004,4.34 -2.337,4.055 -2.502,3.682 -2.502,3.221 -2.502,2.96 -2.446,2.729 -2.333,2.524 -2.218,2.32 -2.058,2.161 -1.849,2.047 -1.567,1.891 -1.29,1.787 -1.02,1.736 l 0,-2.064 c -0.257,0.026 -0.48,0.154 -0.664,0.385 -0.128,0.164 -0.219,0.42 -0.271,0.768 l -0.66,-0.122 c 0.025,-0.336 0.111,-0.621 0.261,-0.854 0.15,-0.234 0.329,-0.401 0.534,-0.507 0.205,-0.105 0.47,-0.177 0.8,-0.218 l 0,-0.647 0.387,0 0,0.655 c 0.46,0.02 0.835,0.182 1.125,0.483 0.29,0.299 0.434,0.674 0.434,1.123 0,0.203 -0.035,0.394 -0.104,0.57 C 0.753,1.482 0.653,1.634 0.524,1.762"
           style="fill:#cfcccd;fill-opacity:1;fill-rule:nonzero;stroke:none"
           id="path3487"
           inkscape:connector-curvature="0" />
      </g>
      <g
         id="text3485"
         style="font-size:16.11310959000000054px;font-style:normal;font-variant:normal;font-weight:bold;font-stretch:normal;text-align:center;line-height:125%;letter-spacing:0px;word-spacing:0px;text-anchor:middle;fill:#cfcccd;fill-opacity:1;stroke:none;font-family:STIXSizeFourSym;-inkscape-font-specification:STIXSizeFourSym Bold"
         transform="scale(0.96419705,1.0371324)">
        <path
           id="path3525"
           style="fill:#cfcccd;font-family:Sans;-inkscape-font-specification:Sans Bold"
           d="m 24.412362,18.641901 c -0.372418,5e-6 -0.660901,0.162605 -0.86545,0.487799 -0.204573,0.319959 -0.306853,0.778909 -0.306842,1.376853 -1.1e-5,0.603195 0.09965,1.067391 0.298974,1.392588 0.204549,0.319956 0.495655,0.479933 0.873318,0.479932 0.377638,10e-7 0.666121,-0.159976 0.86545,-0.479932 0.199302,-0.325197 0.29896,-0.789393 0.298974,-1.392588 -1.4e-5,-0.597944 -0.102294,-1.056894 -0.306842,-1.376853 -0.199329,-0.325194 -0.485189,-0.487794 -0.857582,-0.487799 m 0,-1.321778 c 0.975585,6e-6 1.743999,0.283244 2.305244,0.849714 0.561216,0.566482 0.841832,1.345386 0.841848,2.336716 -1.6e-5,0.991336 -0.280632,1.775485 -0.841848,2.352451 -0.561245,0.571722 -1.329659,0.857582 -2.305244,0.857583 -0.97561,-1e-6 -1.746647,-0.285861 -2.313113,-0.857583 -0.561241,-0.576966 -0.841856,-1.361115 -0.841847,-2.352451 -9e-6,-0.986085 0.280606,-1.762367 0.841847,-2.328848 0.566466,-0.571716 1.337503,-0.857576 2.313113,-0.857582 m -7.214708,6.396464 -1.738768,0 7.340591,-12.187113 1.746636,0 -7.348459,12.187113 M 15.58477,11.529474 c 0.975593,1.2e-5 1.741385,0.285872 2.297376,0.857582 0.561225,0.566487 0.841841,1.345392 0.841848,2.336716 -7e-6,0.991342 -0.280623,1.772869 -0.841848,2.344583 -0.555991,0.571728 -1.321783,0.857588 -2.297376,0.857583 -0.975602,5e-6 -1.744016,-0.285855 -2.305245,-0.857583 -0.555987,-0.571714 -0.83398,-1.353241 -0.833979,-2.344583 -1e-6,-0.991324 0.277992,-1.770229 0.833979,-2.336716 0.561229,-0.57171 1.329643,-0.85757 2.305245,-0.857582 m 0,1.321778 c -0.377655,1.1e-5 -0.66876,0.162611 -0.873318,0.4878 -0.204564,0.325209 -0.306844,0.786782 -0.306842,1.38472 -2e-6,0.603201 0.102278,1.070019 0.306842,1.400456 0.204558,0.325206 0.495663,0.487806 0.873318,0.487799 0.377647,7e-6 0.66613,-0.162593 0.86545,-0.487799 0.204556,-0.330437 0.306836,-0.797255 0.306841,-1.400456 -5e-6,-0.597938 -0.102285,-1.059511 -0.306841,-1.38472 -0.204566,-0.325189 -0.493049,-0.487789 -0.86545,-0.4878" />
      </g>
    </g>
  </g>
</svg>
