<?xml version="1.0" encoding="UTF-8" standalone="no"?>
<!-- Created with Inkscape (http://www.inkscape.org/) -->

<svg
   xmlns:dc="http://purl.org/dc/elements/1.1/"
   xmlns:cc="http://creativecommons.org/ns#"
   xmlns:rdf="http://www.w3.org/1999/02/22-rdf-syntax-ns#"
   xmlns:svg="http://www.w3.org/2000/svg"
   xmlns="http://www.w3.org/2000/svg"
   xmlns:sodipodi="http://sodipodi.sourceforge.net/DTD/sodipodi-0.dtd"
   xmlns:inkscape="http://www.inkscape.org/namespaces/inkscape"
   width="48px"
   height="48px"
   id="svg28083"
   version="1.1"
   inkscape:version="0.48.4 r9939"
   sodipodi:docname="lit-euro-pourcent.svg">
  <defs
     id="defs28085">
    <clipPath
       clipPathUnits="userSpaceOnUse"
       id="clipPath4901">
      <path
         inkscape:connector-curvature="0"
         d="m 315.748,1648.19 0.773,0 0,-0.63 -0.773,0 0,0.63 z"
         id="path4903" />
    </clipPath>
    <clipPath
       clipPathUnits="userSpaceOnUse"
       id="clipPath4905">
      <path
         inkscape:connector-curvature="0"
         d="m 315.759,1648.18 0.762,0 0,-0.62 -0.762,0 0,0.62 z"
         id="path4907" />
    </clipPath>
    <clipPath
       clipPathUnits="userSpaceOnUse"
       id="clipPath4909">
      <path
         inkscape:connector-curvature="0"
         d="m 315.748,1648.19 0.011,0 0,-0.01 -0.011,0 0,0.01 z"
         id="path4911" />
    </clipPath>
    <clipPath
       clipPathUnits="userSpaceOnUse"
       id="clipPath4857">
      <path
         inkscape:connector-curvature="0"
         d="m 327.146,1644.07 0.45,0 0,-0.02 -0.45,0 0,0.02 z"
         id="path4859" />
    </clipPath>
    <clipPath
       clipPathUnits="userSpaceOnUse"
       id="clipPath4861">
      <path
         inkscape:connector-curvature="0"
         d="m 327.146,1644.07 0.446,0 0,-0.02 -0.446,0 0,0.02 z"
         id="path4863" />
    </clipPath>
    <clipPath
       clipPathUnits="userSpaceOnUse"
       id="clipPath4865">
      <path
         inkscape:connector-curvature="0"
         d="m 327.592,1644.05 0.004,0 0,0 -0.004,0 z"
         id="path4867" />
    </clipPath>
  </defs>
  <sodipodi:namedview
     id="base"
     pagecolor="#ffffff"
     bordercolor="#666666"
     borderopacity="1.0"
     inkscape:pageopacity="0.0"
     inkscape:pageshadow="2"
     inkscape:zoom="7"
     inkscape:cx="15.175219"
     inkscape:cy="4.7144249"
     inkscape:current-layer="layer1"
     showgrid="true"
     inkscape:grid-bbox="true"
     inkscape:document-units="px"
     inkscape:window-width="989"
     inkscape:window-height="822"
     inkscape:window-x="2152"
     inkscape:window-y="158"
     inkscape:window-maximized="0" />
  <metadata
     id="metadata28088">
    <rdf:RDF>
      <cc:Work
         rdf:about="">
        <dc:format>image/svg+xml</dc:format>
        <dc:type
           rdf:resource="http://purl.org/dc/dcmitype/StillImage" />
        <dc:title />
      </cc:Work>
    </rdf:RDF>
  </metadata>
  <g
     id="layer1"
     inkscape:label="Layer 1"
     inkscape:groupmode="layer">
    <g
       transform="matrix(0.59487829,0,0,-0.59487829,14.173218,31.624346)"
       id="g10363"
       style="fill:#cfcccd">
      <path
         inkscape:connector-curvature="0"
         id="path10365"
         style="fill:#cfcccd;fill-opacity:1;fill-rule:nonzero;stroke:none"
         d="M 0,0 C 2.271,0 4.113,1.843 4.113,4.114 4.113,6.387 2.271,8.229 0,8.229 -2.271,8.229 -4.115,6.387 -4.115,4.114 -4.115,1.843 -2.271,0 0,0" />
    </g>
    <g
       transform="matrix(0.59487829,0,0,-0.59487829,38.179841,30.388712)"
       id="g10367"
       style="fill:#cfcccd">
      <path
         inkscape:connector-curvature="0"
         id="path10369"
         style="fill:#cfcccd;fill-opacity:1;fill-rule:nonzero;stroke:none"
         d="m 0,0 -0.572,0 c -0.994,0 -1.819,-0.646 -1.973,-1.489 -1.959,1.334 -5.484,0.672 -5.484,0.672 -2.434,-0.168 -7.557,3.358 -7.557,3.358 -13.855,5.961 -19.144,-0.589 -19.144,-0.589 -0.168,-2.854 -2.229,-4.287 -2.229,-4.287 -0.939,-0.73 -2.117,-1.17 -3.396,-1.17 -2.612,0 -4.795,1.807 -5.381,4.236 C -46.1,0.67 -46.434,0.604 -46.723,0.539 l 0,2.461 c 0,1.268 -1.027,2.297 -2.295,2.297 l -0.658,0 c -1.267,0 -2.295,-1.029 -2.295,-2.297 l 0,-18.758 c 0,-1.268 1.028,-2.295 2.295,-2.295 l 0.658,0 c 1.268,0 2.295,1.027 2.295,2.295 l 0,6.763 c 0.137,-0.004 0.274,-0.008 0.414,-0.008 l 43.012,0 c 0.246,0 0.488,0.008 0.725,0.023 l 0,-7.298 c 0,-0.98 0.896,-1.775 2,-1.775 l 0.572,0 c 1.107,0 2.002,0.795 2.002,1.775 l 0,14.503 C 2.002,-0.795 1.107,0 0,0" />
    </g>
    <g
       transform="matrix(0.53699541,0,0,-0.53699541,33.555475,28.635547)"
       id="g3461"
       style="fill:#cfcccd">
      <path
         style="fill:#cfcccd;fill-opacity:1;fill-rule:nonzero;stroke:none"
         d="M 30.4375 18.34375 C 30.206399 18.34745 30.032682 18.385516 29.9375 18.46875 C 29.557307 18.80115 29.697015 19.309142 30.125 19.59375 C 30.374703 19.760219 30.669868 20.210768 30.875 20.5625 C 28.44617 21.43995 26.65625 24.923876 26.65625 29.0625 C 26.65625 29.590903 26.661828 30.091659 26.71875 30.59375 C 26.821853 30.93689 27.174101 31.75 28 31.75 L 36.0625 31.75 C 36.0625 31.75 37.218406 31.711222 37.4375 30.75 C 37.452536 30.631861 37.488723 30.494213 37.5 30.375 C 37.501074 30.321837 37.494093 30.289738 37.5 30.25 C 37.534368 29.859067 37.5625 29.467932 37.5625 29.0625 C 37.5625 24.920654 35.745089 21.436192 33.3125 20.5625 C 33.398419 20.024431 33.660708 19.358504 34.1875 18.9375 C 34.901167 18.366674 33.714428 18.404415 32.90625 18.5 C 32.299714 18.571286 31.130803 18.332649 30.4375 18.34375 z M 32.34375 22.375 C 33.280739 22.324622 34.0625 22.71875 34.0625 22.71875 L 33.75 23.71875 C 31.488646 22.50203 30.84375 24.59375 30.84375 24.59375 L 33.65625 24.59375 L 33.40625 25.3125 L 30.71875 25.3125 C 30.6418 25.45083 30.71875 25.71875 30.71875 25.71875 L 33.4375 25.71875 L 33.28125 26.375 L 30.8125 26.375 C 31.575657 28.907521 33.84375 27.4375 33.84375 27.4375 L 34 28.5 C 30.32974 29.740174 29.78125 26.34375 29.78125 26.34375 L 29.0625 26.34375 L 29.25 25.71875 L 29.65625 25.71875 C 29.67006 25.618235 29.6875 25.21875 29.6875 25.21875 L 29.09375 25.21875 L 29.25 24.59375 L 29.75 24.59375 C 30.318545 22.901255 31.406761 22.425378 32.34375 22.375 z "
         transform="matrix(1.8622133,0,0,-1.8622133,-62.487452,53.325497)"
         id="path3463" />
    </g>
    <g
       transform="matrix(0.53699541,0,0,-0.53699541,42.592898,26.428839)"
       id="g3473"
       style="fill:#cfcccd">
      <path
         inkscape:connector-curvature="0"
         id="path3475"
         style="fill:#cfcccd;fill-opacity:1;fill-rule:nonzero;stroke:none"
         d="m 0,0 c -0.008,-0.021 -0.014,-0.043 -0.025,-0.064 -0.091,-0.184 -0.185,-0.358 -0.283,-0.53 0,-0.002 -0.002,-0.003 -0.002,-0.003 0.025,-0.116 0.027,-0.246 -0.003,-0.383 -0.102,-0.45 -0.289,-0.905 -0.54,-1.327 -0.2,-2.211 -2.082,-3.944 -4.374,-3.944 -2.425,0 -4.392,1.94 -4.392,4.334 0,0.205 0.015,0.407 0.044,0.605 -0.345,0.52 -0.645,1.064 -0.773,1.57 -0.294,-0.667 -0.46,-1.401 -0.46,-2.175 0,-3.04 2.498,-5.505 5.581,-5.505 3.081,0 5.582,2.465 5.582,5.505 C 0.355,-1.242 0.226,-0.597 0,0" />
    </g>
    <g
       transform="matrix(0.53699541,0,0,-0.53699541,42.529691,27.666463)"
       id="g3477"
       style="fill:#cfcccd">
      <path
         inkscape:connector-curvature="0"
         id="path3479"
         style="fill:#cfcccd;fill-opacity:1;fill-rule:nonzero;stroke:none"
         d="m 0,0 c -0.096,-0.576 -0.373,-1.148 -0.568,-1.701 -0.036,-0.107 -0.091,-0.203 -0.156,-0.285 0.002,-0.046 0.01,-0.09 0.01,-0.135 0,-2.312 -1.969,-4.186 -4.395,-4.186 -2.426,0 -4.392,1.874 -4.392,4.186 0,0.152 0.009,0.302 0.026,0.449 -0.37,0.54 -0.641,1.225 -0.637,1.887 -0.367,-0.704 -0.578,-1.495 -0.578,-2.336 0,-2.938 2.498,-5.316 5.581,-5.316 3.081,0 5.582,2.378 5.582,5.316 C 0.473,-1.365 0.301,-0.648 0,0" />
    </g>
    <g
       transform="matrix(0.53699541,0,0,-0.53699541,39.785967,28.410051)"
       id="g3481"
       style="fill:#cfcccd">
      <path
         inkscape:connector-curvature="0"
         id="path3483"
         style="fill:#cfcccd;fill-opacity:1;fill-rule:nonzero;stroke:none"
         d="m 0,0 c -2.425,0 -4.392,1.939 -4.392,4.334 0,2.393 1.967,4.333 4.392,4.333 2.427,0 4.395,-1.94 4.395,-4.333 C 4.395,1.939 2.427,0 0,0 m 0,9.84 c -3.083,0 -5.581,-2.466 -5.581,-5.506 0,-3.042 2.498,-5.506 5.581,-5.506 3.082,0 5.582,2.464 5.582,5.506 0,3.04 -2.5,5.506 -5.582,5.506" />
    </g>
    <g
       transform="scale(0.96419705,1.0371324)"
       style="font-size:16.11310959000000054px;font-style:normal;font-variant:normal;font-weight:bold;font-stretch:normal;text-align:center;line-height:125%;letter-spacing:0px;word-spacing:0px;text-anchor:middle;fill:#cfcccd;fill-opacity:1;stroke:none;font-family:STIXSizeFourSym;-inkscape-font-specification:STIXSizeFourSym Bold"
       id="text3485">
      <path
         d="m 24.412362,18.641901 c -0.372418,5e-6 -0.660901,0.162605 -0.86545,0.487799 -0.204573,0.319959 -0.306853,0.778909 -0.306842,1.376853 -1.1e-5,0.603195 0.09965,1.067391 0.298974,1.392588 0.204549,0.319956 0.495655,0.479933 0.873318,0.479932 0.377638,10e-7 0.666121,-0.159976 0.86545,-0.479932 0.199302,-0.325197 0.29896,-0.789393 0.298974,-1.392588 -1.4e-5,-0.597944 -0.102294,-1.056894 -0.306842,-1.376853 -0.199329,-0.325194 -0.485189,-0.487794 -0.857582,-0.487799 m 0,-1.321778 c 0.975585,6e-6 1.743999,0.283244 2.305244,0.849714 0.561216,0.566482 0.841832,1.345386 0.841848,2.336716 -1.6e-5,0.991336 -0.280632,1.775485 -0.841848,2.352451 -0.561245,0.571722 -1.329659,0.857582 -2.305244,0.857583 -0.97561,-1e-6 -1.746647,-0.285861 -2.313113,-0.857583 -0.561241,-0.576966 -0.841856,-1.361115 -0.841847,-2.352451 -9e-6,-0.986085 0.280606,-1.762367 0.841847,-2.328848 0.566466,-0.571716 1.337503,-0.857576 2.313113,-0.857582 m -7.214708,6.396464 -1.738768,0 7.340591,-12.187113 1.746636,0 -7.348459,12.187113 M 15.58477,11.529474 c 0.975593,1.2e-5 1.741385,0.285872 2.297376,0.857582 0.561225,0.566487 0.841841,1.345392 0.841848,2.336716 -7e-6,0.991342 -0.280623,1.772869 -0.841848,2.344583 -0.555991,0.571728 -1.321783,0.857588 -2.297376,0.857583 -0.975602,5e-6 -1.744016,-0.285855 -2.305245,-0.857583 -0.555987,-0.571714 -0.83398,-1.353241 -0.833979,-2.344583 -1e-6,-0.991324 0.277992,-1.770229 0.833979,-2.336716 0.561229,-0.57171 1.329643,-0.85757 2.305245,-0.857582 m 0,1.321778 c -0.377655,1.1e-5 -0.66876,0.162611 -0.873318,0.4878 -0.204564,0.325209 -0.306844,0.786782 -0.306842,1.38472 -2e-6,0.603201 0.102278,1.070019 0.306842,1.400456 0.204558,0.325206 0.495663,0.487806 0.873318,0.487799 0.377647,7e-6 0.66613,-0.162593 0.86545,-0.487799 0.204556,-0.330437 0.306836,-0.797255 0.306841,-1.400456 -5e-6,-0.597938 -0.102285,-1.059511 -0.306841,-1.38472 -0.204566,-0.325189 -0.493049,-0.487789 -0.86545,-0.4878"
         style="fill:#cfcccd;font-family:Sans;-inkscape-font-specification:Sans Bold"
         id="path3522" />
    </g>
    <path
       d="m 40.499684,25.623687 -0.09245,0.276985 -1.016789,0 c -0.02896,0.05365 0.0052,0.150746 0.0052,0.150746 l 1.016232,0 -0.05829,0.257863 -0.923966,0 c 0.287197,0.982259 1.138203,0.418449 1.138203,0.418449 l 0.05811,0.403782 c -1.381223,0.481012 -1.590447,-0.827057 -1.590447,-0.827057 l -0.262134,0 0.06275,-0.248025 0.160584,0 c 0.0052,-0.03899 0.0098,-0.189546 0.0098,-0.189546 l -0.223705,0 0.06312,-0.243197 0.184905,0 c 0.427916,-1.312897 1.624412,-0.734606 1.624412,-0.734606 l -0.116772,0.389488 c -0.851007,-0.471915 -1.103672,0.345118 -1.103672,0.345118 z"
       style="fill:#cfcccd;fill-opacity:1;fill-rule:nonzero;stroke:none"
       id="path4606-4"
       inkscape:connector-curvature="0"
       sodipodi:nodetypes="ccccccccccccccccccccc" />
  </g>
</svg>
