<?xml version="1.0" encoding="UTF-8" standalone="no"?>
<!-- Created with Inkscape (http://www.inkscape.org/) -->

<svg
   xmlns:dc="http://purl.org/dc/elements/1.1/"
   xmlns:cc="http://creativecommons.org/ns#"
   xmlns:rdf="http://www.w3.org/1999/02/22-rdf-syntax-ns#"
   xmlns:svg="http://www.w3.org/2000/svg"
   xmlns="http://www.w3.org/2000/svg"
   xmlns:sodipodi="http://sodipodi.sourceforge.net/DTD/sodipodi-0.dtd"
   xmlns:inkscape="http://www.inkscape.org/namespaces/inkscape"
   width="48px"
   height="48px"
   id="svg3210"
   version="1.1"
   inkscape:version="0.48.4 r9939"
   sodipodi:docname="lit-evolution.svg">
  <defs
     id="defs3212" />
  <sodipodi:namedview
     id="base"
     pagecolor="#ffffff"
     bordercolor="#666666"
     borderopacity="1.0"
     inkscape:pageopacity="0.0"
     inkscape:pageshadow="2"
     inkscape:zoom="7"
     inkscape:cx="24"
     inkscape:cy="35.198571"
     inkscape:current-layer="layer1"
     showgrid="true"
     inkscape:grid-bbox="true"
     inkscape:document-units="px"
     inkscape:window-width="810"
     inkscape:window-height="734"
     inkscape:window-x="1110"
     inkscape:window-y="191"
     inkscape:window-maximized="0" />
  <metadata
     id="metadata3215">
    <rdf:RDF>
      <cc:Work
         rdf:about="">
        <dc:format>image/svg+xml</dc:format>
        <dc:type
           rdf:resource="http://purl.org/dc/dcmitype/StillImage" />
        <dc:title />
      </cc:Work>
    </rdf:RDF>
  </metadata>
  <g
     id="layer1"
     inkscape:label="Layer 1"
     inkscape:groupmode="layer">
    <g
       id="g2994">
      <g
         style="fill:#cfcccd"
         id="g10363"
         transform="matrix(0.74833021,0,0,-0.74833021,12.925973,30.672816)">
        <path
           d="M 0,0 C 2.271,0 4.113,1.843 4.113,4.114 4.113,6.387 2.271,8.229 0,8.229 -2.271,8.229 -4.115,6.387 -4.115,4.114 -4.115,1.843 -2.271,0 0,0"
           style="fill:#cfcccd;fill-opacity:1;fill-rule:nonzero;stroke:none"
           id="path10365"
           inkscape:connector-curvature="0" />
      </g>
      <g
         style="fill:#cfcccd"
         id="g10367"
         transform="matrix(0.74833021,0,0,-0.74833021,43.125227,29.118445)">
        <path
           d="m 0,0 -0.572,0 c -0.994,0 -1.819,-0.646 -1.973,-1.489 -1.959,1.334 -5.484,0.672 -5.484,0.672 -2.434,-0.168 -7.557,3.358 -7.557,3.358 -13.855,5.961 -19.144,-0.589 -19.144,-0.589 -0.168,-2.854 -2.229,-4.287 -2.229,-4.287 -0.939,-0.73 -2.117,-1.17 -3.396,-1.17 -2.612,0 -4.795,1.807 -5.381,4.236 C -46.1,0.67 -46.434,0.604 -46.723,0.539 l 0,2.461 c 0,1.268 -1.027,2.297 -2.295,2.297 l -0.658,0 c -1.267,0 -2.295,-1.029 -2.295,-2.297 l 0,-18.758 c 0,-1.268 1.028,-2.295 2.295,-2.295 l 0.658,0 c 1.268,0 2.295,1.027 2.295,2.295 l 0,6.763 c 0.137,-0.004 0.274,-0.008 0.414,-0.008 l 43.012,0 c 0.246,0 0.488,0.008 0.725,0.023 l 0,-7.298 c 0,-0.98 0.896,-1.775 2,-1.775 l 0.572,0 c 1.107,0 2.002,0.795 2.002,1.775 l 0,14.503 C 2.002,-0.795 1.107,0 0,0"
           style="fill:#cfcccd;fill-opacity:1;fill-rule:nonzero;stroke:none"
           id="path10369"
           inkscape:connector-curvature="0" />
      </g>
      <g
         style="fill:#cfcccd"
         id="g12898"
         transform="matrix(1.2810431,0,0,1.2810431,20.397307,6.0443551)">
        <g
           style="fill:#cfcccd"
           id="g12900">
          <path
             id="path12902"
             d="M 2.245,10.496 H 0.272 C 0.122,10.496 0,10.62 0,10.77 v 5.717 c 0,0.15 0.122,0.272 0.272,0.272 h 1.973 c 0.15,0 0.272,-0.122 0.272,-0.272 V 10.77 C 2.518,10.62 2.396,10.496 2.245,10.496 z"
             style="fill:#cfcccd"
             inkscape:connector-curvature="0" />
          <path
             id="path12904"
             d="m 18.504,10.496 h -1.973 c -0.15,0 -0.271,0.124 -0.271,0.274 v 5.717 c 0,0.15 0.121,0.272 0.271,0.272 h 1.973 c 0.152,0 0.273,-0.122 0.273,-0.272 V 10.77 c 0,-0.15 -0.121,-0.274 -0.273,-0.274 z"
             style="fill:#cfcccd"
             inkscape:connector-curvature="0" />
          <path
             id="path12906"
             d="M 5.907,7.228 H 3.934 c -0.15,0 -0.273,0.122 -0.273,0.273 v 8.984 c 0,0.15 0.123,0.272 0.273,0.272 h 1.973 c 0.151,0 0.273,-0.122 0.273,-0.272 V 7.501 C 6.18,7.349 6.058,7.228 5.907,7.228 z"
             style="fill:#cfcccd"
             inkscape:connector-curvature="0" />
          <path
             id="path12908"
             d="m 14.271,7.228 h -1.973 c -0.15,0 -0.271,0.122 -0.271,0.273 v 8.984 c 0,0.15 0.121,0.272 0.271,0.272 h 1.973 c 0.152,0 0.273,-0.122 0.273,-0.272 V 7.501 C 14.545,7.349 14.424,7.228 14.271,7.228 z"
             style="fill:#cfcccd"
             inkscape:connector-curvature="0" />
          <path
             id="path12910"
             d="M 10.01,9.218 H 8.036 c -0.15,0 -0.272,0.123 -0.272,0.272 v 6.994 c 0,0.15 0.122,0.272 0.272,0.272 h 1.974 c 0.152,0 0.273,-0.122 0.273,-0.272 V 9.49 c 0,-0.149 -0.121,-0.272 -0.273,-0.272 z"
             style="fill:#cfcccd"
             inkscape:connector-curvature="0" />
          <path
             id="path12912"
             d="M 1.259,6.947 C 1.84,6.947 2.31,6.477 2.31,5.896 2.31,5.795 2.291,5.7 2.264,5.608 L 4.475,4.017 c 0.136,0.064 0.286,0.102 0.446,0.102 0.309,0 0.583,-0.135 0.776,-0.347 L 7.784,4.98 c -0.012,0.062 -0.02,0.126 -0.02,0.19 0,0.58 0.471,1.051 1.051,1.051 0.559,0 1.012,-0.438 1.044,-0.989 l 2.814,-0.823 c 0.191,0.262 0.498,0.435 0.848,0.435 0.232,0 0.443,-0.077 0.617,-0.205 l 2.365,1.604 c -0.02,0.083 -0.037,0.17 -0.037,0.26 0,0.581 0.471,1.052 1.051,1.052 0.58,0 1.053,-0.471 1.053,-1.052 0,-0.581 -0.473,-1.051 -1.053,-1.051 -0.232,0 -0.443,0.077 -0.617,0.204 L 14.537,4.055 c 0.02,-0.084 0.035,-0.17 0.035,-0.26 0,-0.581 -0.469,-1.051 -1.051,-1.051 -0.559,0 -1.012,0.438 -1.045,0.989 L 9.663,4.555 C 9.472,4.292 9.164,4.12 8.815,4.12 8.556,4.12 8.323,4.216 8.14,4.371 L 5.968,3.112 c 0,-0.015 0.004,-0.028 0.004,-0.042 0,-0.581 -0.47,-1.052 -1.051,-1.052 -0.581,0 -1.051,0.47 -1.051,1.051 0,0.158 0.038,0.306 0.1,0.441 L 1.855,5.032 C 1.686,4.914 1.481,4.845 1.259,4.845 c -0.581,0 -1.051,0.471 -1.051,1.051 0,0.581 0.47,1.051 1.051,1.051 z"
             style="fill:#cfcccd"
             inkscape:connector-curvature="0" />
        </g>
      </g>
    </g>
  </g>
</svg>
