<?xml version="1.0" encoding="UTF-8" standalone="no"?>
<!-- Created with Inkscape (http://www.inkscape.org/) -->

<svg
   xmlns:dc="http://purl.org/dc/elements/1.1/"
   xmlns:cc="http://creativecommons.org/ns#"
   xmlns:rdf="http://www.w3.org/1999/02/22-rdf-syntax-ns#"
   xmlns:svg="http://www.w3.org/2000/svg"
   xmlns="http://www.w3.org/2000/svg"
   xmlns:sodipodi="http://sodipodi.sourceforge.net/DTD/sodipodi-0.dtd"
   xmlns:inkscape="http://www.inkscape.org/namespaces/inkscape"
   width="48px"
   height="48px"
   id="svg28083"
   version="1.1"
   inkscape:version="0.48.4 r9939"
   sodipodi:docname="lit-euro.svg">
  <defs
     id="defs28085">
    <clipPath
       clipPathUnits="userSpaceOnUse"
       id="clipPath4901">
      <path
         inkscape:connector-curvature="0"
         d="m 315.748,1648.19 0.773,0 0,-0.63 -0.773,0 0,0.63 z"
         id="path4903" />
    </clipPath>
    <clipPath
       clipPathUnits="userSpaceOnUse"
       id="clipPath4905">
      <path
         inkscape:connector-curvature="0"
         d="m 315.759,1648.18 0.762,0 0,-0.62 -0.762,0 0,0.62 z"
         id="path4907" />
    </clipPath>
    <clipPath
       clipPathUnits="userSpaceOnUse"
       id="clipPath4909">
      <path
         inkscape:connector-curvature="0"
         d="m 315.748,1648.19 0.011,0 0,-0.01 -0.011,0 0,0.01 z"
         id="path4911" />
    </clipPath>
    <clipPath
       clipPathUnits="userSpaceOnUse"
       id="clipPath4857">
      <path
         inkscape:connector-curvature="0"
         d="m 327.146,1644.07 0.45,0 0,-0.02 -0.45,0 0,0.02 z"
         id="path4859" />
    </clipPath>
    <clipPath
       clipPathUnits="userSpaceOnUse"
       id="clipPath4861">
      <path
         inkscape:connector-curvature="0"
         d="m 327.146,1644.07 0.446,0 0,-0.02 -0.446,0 0,0.02 z"
         id="path4863" />
    </clipPath>
    <clipPath
       clipPathUnits="userSpaceOnUse"
       id="clipPath4865">
      <path
         inkscape:connector-curvature="0"
         d="m 327.592,1644.05 0.004,0 0,0 -0.004,0 z"
         id="path4867" />
    </clipPath>
  </defs>
  <sodipodi:namedview
     id="base"
     pagecolor="#ffffff"
     bordercolor="#666666"
     borderopacity="1.0"
     inkscape:pageopacity="0.0"
     inkscape:pageshadow="2"
     inkscape:zoom="7"
     inkscape:cx="26.60379"
     inkscape:cy="21.857282"
     inkscape:current-layer="layer1"
     showgrid="true"
     inkscape:grid-bbox="true"
     inkscape:document-units="px"
     inkscape:window-width="651"
     inkscape:window-height="653"
     inkscape:window-x="1920"
     inkscape:window-y="229"
     inkscape:window-maximized="0" />
  <metadata
     id="metadata28088">
    <rdf:RDF>
      <cc:Work
         rdf:about="">
        <dc:format>image/svg+xml</dc:format>
        <dc:type
           rdf:resource="http://purl.org/dc/dcmitype/StillImage" />
        <dc:title />
      </cc:Work>
    </rdf:RDF>
  </metadata>
  <g
     id="layer1"
     inkscape:label="Layer 1"
     inkscape:groupmode="layer">
    <g
       id="g3009">
      <g
         style="fill:#cfcccd"
         id="g10363"
         transform="matrix(0.59487829,0,0,-0.59487829,13.578233,24.510097)">
        <path
           d="M 0,0 C 2.271,0 4.113,1.843 4.113,4.114 4.113,6.387 2.271,8.229 0,8.229 -2.271,8.229 -4.115,6.387 -4.115,4.114 -4.115,1.843 -2.271,0 0,0"
           style="fill:#cfcccd;fill-opacity:1;fill-rule:nonzero;stroke:none"
           id="path10365"
           inkscape:connector-curvature="0" />
      </g>
      <g
         style="fill:#cfcccd"
         id="g10367"
         transform="matrix(0.59487829,0,0,-0.59487829,37.584857,23.274463)">
        <path
           d="m 0,0 -0.572,0 c -0.994,0 -1.819,-0.646 -1.973,-1.489 -1.959,1.334 -5.484,0.672 -5.484,0.672 -2.434,-0.168 -7.557,3.358 -7.557,3.358 -13.855,5.961 -19.144,-0.589 -19.144,-0.589 -0.168,-2.854 -2.229,-4.287 -2.229,-4.287 -0.939,-0.73 -2.117,-1.17 -3.396,-1.17 -2.612,0 -4.795,1.807 -5.381,4.236 C -46.1,0.67 -46.434,0.604 -46.723,0.539 l 0,2.461 c 0,1.268 -1.027,2.297 -2.295,2.297 l -0.658,0 c -1.267,0 -2.295,-1.029 -2.295,-2.297 l 0,-18.758 c 0,-1.268 1.028,-2.295 2.295,-2.295 l 0.658,0 c 1.268,0 2.295,1.027 2.295,2.295 l 0,6.763 c 0.137,-0.004 0.274,-0.008 0.414,-0.008 l 43.012,0 c 0.246,0 0.488,0.008 0.725,0.023 l 0,-7.298 c 0,-0.98 0.896,-1.775 2,-1.775 l 0.572,0 c 1.107,0 2.002,0.795 2.002,1.775 l 0,14.503 C 2.002,-0.795 1.107,0 0,0"
           style="fill:#cfcccd;fill-opacity:1;fill-rule:nonzero;stroke:none"
           id="path10369"
           inkscape:connector-curvature="0" />
      </g>
      <g
         style="fill:#cfcccd"
         id="g3461"
         transform="matrix(0.53699541,0,0,-0.53699541,32.960491,21.521298)">
        <path
           id="path3463"
           transform="matrix(1.8622133,0,0,-1.8622133,-61.379465,40.077248)"
           d="M 29.84375 11.21875 C 29.612649 11.22245 29.438932 11.260516 29.34375 11.34375 C 28.963557 11.67615 29.103265 12.215392 29.53125 12.5 C 29.780953 12.666469 30.076118 13.117018 30.28125 13.46875 C 27.85242 14.3462 26.0625 17.798876 26.0625 21.9375 C 26.0625 22.465903 26.068078 22.966659 26.125 23.46875 C 26.228103 23.81189 26.580351 24.625 27.40625 24.625 L 35.46875 24.625 C 35.46875 24.625 36.624656 24.586222 36.84375 23.625 C 36.858786 23.506861 36.863723 23.400463 36.875 23.28125 C 36.876074 23.228087 36.900343 23.164738 36.90625 23.125 C 36.940618 22.734067 36.96875 22.342932 36.96875 21.9375 C 36.96875 17.795654 35.151339 14.342442 32.71875 13.46875 C 32.804669 12.930681 33.066958 12.233504 33.59375 11.8125 C 34.307417 11.241674 33.120678 11.310665 32.3125 11.40625 C 31.705964 11.477536 30.537053 11.207649 29.84375 11.21875 z M 31.75 15.28125 C 32.68699 15.230872 33.46875 15.59375 33.46875 15.59375 L 33.15625 16.59375 C 30.894896 15.37703 30.21875 17.5 30.21875 17.5 L 33.0625 17.5 L 32.8125 18.1875 L 30.125 18.1875 C 30.04805 18.32583 30.125 18.59375 30.125 18.59375 L 32.84375 18.59375 L 32.6875 19.25 L 30.21875 19.25 C 30.981907 21.782521 33.25 20.34375 33.25 20.34375 L 33.40625 21.375 C 29.73599 22.615174 29.1875 19.25 29.1875 19.25 L 28.46875 19.25 L 28.65625 18.59375 L 29.0625 18.59375 C 29.07631 18.493235 29.09375 18.125 29.09375 18.125 L 28.5 18.125 L 28.65625 17.5 L 29.15625 17.5 C 29.724795 15.807505 30.813011 15.331628 31.75 15.28125 z "
           style="fill:#cfcccd;fill-opacity:1;fill-rule:nonzero;stroke:none" />
      </g>
      <g
         style="fill:#cfcccd"
         id="g3473"
         transform="matrix(0.53699541,0,0,-0.53699541,41.997914,19.31459)">
        <path
           d="m 0,0 c -0.008,-0.021 -0.014,-0.043 -0.025,-0.064 -0.091,-0.184 -0.185,-0.358 -0.283,-0.53 0,-0.002 -0.002,-0.003 -0.002,-0.003 0.025,-0.116 0.027,-0.246 -0.003,-0.383 -0.102,-0.45 -0.289,-0.905 -0.54,-1.327 -0.2,-2.211 -2.082,-3.944 -4.374,-3.944 -2.425,0 -4.392,1.94 -4.392,4.334 0,0.205 0.015,0.407 0.044,0.605 -0.345,0.52 -0.645,1.064 -0.773,1.57 -0.294,-0.667 -0.46,-1.401 -0.46,-2.175 0,-3.04 2.498,-5.505 5.581,-5.505 3.081,0 5.582,2.465 5.582,5.505 C 0.355,-1.242 0.226,-0.597 0,0"
           style="fill:#cfcccd;fill-opacity:1;fill-rule:nonzero;stroke:none"
           id="path3475"
           inkscape:connector-curvature="0" />
      </g>
      <g
         style="fill:#cfcccd"
         id="g3477"
         transform="matrix(0.53699541,0,0,-0.53699541,41.934707,20.552214)">
        <path
           d="m 0,0 c -0.096,-0.576 -0.373,-1.148 -0.568,-1.701 -0.036,-0.107 -0.091,-0.203 -0.156,-0.285 0.002,-0.046 0.01,-0.09 0.01,-0.135 0,-2.312 -1.969,-4.186 -4.395,-4.186 -2.426,0 -4.392,1.874 -4.392,4.186 0,0.152 0.009,0.302 0.026,0.449 -0.37,0.54 -0.641,1.225 -0.637,1.887 -0.367,-0.704 -0.578,-1.495 -0.578,-2.336 0,-2.938 2.498,-5.316 5.581,-5.316 3.081,0 5.582,2.378 5.582,5.316 C 0.473,-1.365 0.301,-0.648 0,0"
           style="fill:#cfcccd;fill-opacity:1;fill-rule:nonzero;stroke:none"
           id="path3479"
           inkscape:connector-curvature="0" />
      </g>
      <g
         style="fill:#cfcccd"
         id="g3481"
         transform="matrix(0.53699541,0,0,-0.53699541,39.190983,21.295802)">
        <path
           d="m 0,0 c -2.425,0 -4.392,1.939 -4.392,4.334 0,2.393 1.967,4.333 4.392,4.333 2.427,0 4.395,-1.94 4.395,-4.333 C 4.395,1.939 2.427,0 0,0 m 0,9.84 c -3.083,0 -5.581,-2.466 -5.581,-5.506 0,-3.042 2.498,-5.506 5.581,-5.506 3.082,0 5.582,2.464 5.582,5.506 0,3.04 -2.5,5.506 -5.582,5.506"
           style="fill:#cfcccd;fill-opacity:1;fill-rule:nonzero;stroke:none"
           id="path3483"
           inkscape:connector-curvature="0" />
      </g>
      <path
         sodipodi:nodetypes="ccccccccccccccccccccc"
         inkscape:connector-curvature="0"
         id="path4606-4"
         style="fill:#cfcccd;fill-opacity:1;fill-rule:nonzero;stroke:none"
         d="m 39.9047,18.509438 -0.09245,0.276985 -1.016789,0 c -0.02896,0.05365 0.0052,0.150746 0.0052,0.150746 l 1.016232,0 -0.05829,0.257863 -0.923966,0 c 0.287197,0.982259 1.138203,0.418449 1.138203,0.418449 l 0.05811,0.403782 c -1.381223,0.481012 -1.590447,-0.827057 -1.590447,-0.827057 l -0.262134,0 0.06275,-0.248025 0.160584,0 c 0.0052,-0.03899 0.0098,-0.189546 0.0098,-0.189546 l -0.223705,0 0.06312,-0.243197 0.184905,0 c 0.427916,-1.312897 1.624412,-0.734606 1.624412,-0.734606 l -0.116772,0.389488 c -0.851007,-0.471915 -1.103672,0.345118 -1.103672,0.345118 z" />
    </g>
  </g>
</svg>
