<?xml version="1.0" encoding="UTF-8" standalone="no"?>
<!-- Created with Inkscape (http://www.inkscape.org/) -->

<svg
   xmlns:dc="http://purl.org/dc/elements/1.1/"
   xmlns:cc="http://creativecommons.org/ns#"
   xmlns:rdf="http://www.w3.org/1999/02/22-rdf-syntax-ns#"
   xmlns:svg="http://www.w3.org/2000/svg"
   xmlns="http://www.w3.org/2000/svg"
   version="1.1"
   width="48"
   height="48"
   id="svg28083">
  <defs
     id="defs28085">
    <clipPath
       id="clipPath4901">
      <path
         d="m 315.748,1648.19 0.773,0 0,-0.63 -0.773,0 0,0.63 z"
         id="path4903" />
    </clipPath>
    <clipPath
       id="clipPath4905">
      <path
         d="m 315.759,1648.18 0.762,0 0,-0.62 -0.762,0 0,0.62 z"
         id="path4907" />
    </clipPath>
    <clipPath
       id="clipPath4909">
      <path
         d="m 315.748,1648.19 0.011,0 0,-0.01 -0.011,0 0,0.01 z"
         id="path4911" />
    </clipPath>
    <clipPath
       id="clipPath4857">
      <path
         d="m 327.146,1644.07 0.45,0 0,-0.02 -0.45,0 0,0.02 z"
         id="path4859" />
    </clipPath>
    <clipPath
       id="clipPath4861">
      <path
         d="m 327.146,1644.07 0.446,0 0,-0.02 -0.446,0 0,0.02 z"
         id="path4863" />
    </clipPath>
    <clipPath
       id="clipPath4865">
      <path
         d="m 327.592,1644.05 0.004,0 0,0 -0.004,0 z"
         id="path4867" />
    </clipPath>
  </defs>
  <metadata
     id="metadata28088">
    <rdf:RDF>
      <cc:Work
         rdf:about="">
        <dc:format>image/svg+xml</dc:format>
        <dc:type
           rdf:resource="http://purl.org/dc/dcmitype/StillImage" />
        <dc:title></dc:title>
      </cc:Work>
    </rdf:RDF>
  </metadata>
  <g
     transform="matrix(1.2574715,0,0,-1.2574715,12.625016,35.242505)"
     id="g7288">
    <path
       d="M 0,0 12.387,7.155 C 12.832,7.413 13.559,7.407 14,7.144 l 4.797,-2.87 0,2.896 2.943,0 0,-4.656 1.983,-1.185 2.205,-1.317 c 0.439,-0.264 0.381,-0.48 -0.135,-0.48 l -2.07,0 0,-8.737 -21.053,0 0,8.737 -2.543,0 C -0.389,-0.468 -0.445,-0.258 0,0"
       id="path7290"
       style="fill:#cfcccd;fill-opacity:1;fill-rule:nonzero;stroke:none" />
  </g>
  <g
     transform="matrix(1.25,0,0,-1.25,107.08896,8.6292822)"
     id="g14032" />
  <g
     transform="matrix(0.69101383,0,0,0.69101383,-51.496071,14.742342)"
     id="g3040">
    <g
       transform="matrix(1.0709797,0,0,1.0709797,-5.5043987,1.3323711)"
       id="g3142">
      <g
         transform="matrix(1.25,0,0,-1.25,84.983842,-13.754918)"
         id="g14016">
        <path
           d="m 0,0 c 0.462,0 0.836,0.375 0.836,0.836 l 0,2.341 c 0,0.462 -0.374,0.836 -0.836,0.836 -0.461,0 -0.834,-0.374 -0.834,-0.836 l 0,-2.341 C -0.834,0.375 -0.461,0 0,0"
           id="path14018"
           style="fill:#cfcccd;fill-opacity:1;fill-rule:nonzero;stroke:none" />
      </g>
      <g
         transform="matrix(1.25,0,0,-1.25,89.373472,-13.754918)"
         id="g14020">
        <path
           d="m 0,0 c 0.462,0 0.835,0.375 0.835,0.836 l 0,2.341 c 0,0.462 -0.373,0.836 -0.835,0.836 -0.461,0 -0.836,-0.374 -0.836,-0.836 l 0,-2.341 C -0.836,0.375 -0.461,0 0,0"
           id="path14022"
           style="fill:#cfcccd;fill-opacity:1;fill-rule:nonzero;stroke:none" />
      </g>
      <g
         transform="matrix(1.25,0,0,-1.25,93.761842,-13.754918)"
         id="g14024">
        <path
           d="m 0,0 c 0.463,0 0.836,0.375 0.836,0.836 l 0,2.341 c 0,0.462 -0.373,0.836 -0.836,0.836 -0.461,0 -0.836,-0.374 -0.836,-0.836 l 0,-2.341 C -0.836,0.375 -0.461,0 0,0"
           id="path14026"
           style="fill:#cfcccd;fill-opacity:1;fill-rule:nonzero;stroke:none" />
      </g>
      <g
         transform="matrix(1.25,0,0,-1.25,98.150962,-13.754918)"
         id="g14028">
        <path
           d="m 0,0 c 0.462,0 0.836,0.375 0.836,0.836 l 0,2.341 c 0,0.462 -0.374,0.836 -0.836,0.836 -0.461,0 -0.835,-0.374 -0.835,-0.836 l 0,-2.341 C -0.835,0.375 -0.461,0 0,0"
           id="path14030"
           style="fill:#cfcccd;fill-opacity:1;fill-rule:nonzero;stroke:none" />
      </g>
      <path
         d="m 0,0 c 0,-0.867 -0.706,-1.572 -1.572,-1.572 l -18.178,0 c -0.868,0 -1.574,0.705 -1.574,1.572 l 0,14.863 c 0,0.867 0.706,1.574 1.574,1.574 l 18.178,0 C -0.706,16.437 0,15.73 0,14.863 L 0,0 z m -1.572,18.745 -0.779,0 0,-0.251 c 0,-0.711 -0.577,-1.289 -1.288,-1.289 -0.713,0 -1.289,0.578 -1.289,1.289 l 0,0.251 -0.933,0 0,-0.251 c 0,-0.711 -0.578,-1.289 -1.289,-1.289 -0.711,0 -1.288,0.578 -1.288,1.289 l 0,0.251 -0.934,0 0,-0.251 c 0,-0.711 -0.578,-1.289 -1.29,-1.289 -0.711,0 -1.288,0.578 -1.288,1.289 l 0,0.251 -0.933,0 0,-0.251 c 0,-0.711 -0.578,-1.289 -1.289,-1.289 -0.712,0 -1.289,0.578 -1.289,1.289 l 0,0.251 -0.933,0 0,-0.251 c 0,-0.711 -0.579,-1.289 -1.29,-1.289 -0.711,0 -1.288,0.578 -1.288,1.289 l 0,0.251 -0.778,0 c -2.141,0 -3.882,-1.74 -3.882,-3.882 l 0,-14.863 c 0,-2.141 1.741,-3.883 3.882,-3.883 l 18.178,0 c 2.14,0 3.882,1.742 3.882,3.883 l 0,14.863 c 0,2.142 -1.742,3.882 -3.882,3.882"
         transform="matrix(1.25,0,0,-1.25,107.08896,8.6292822)"
         id="path14034"
         style="fill:#cfcccd;fill-opacity:1;fill-rule:nonzero;stroke:none" />
      <g
         transform="matrix(1.25,0,0,-1.25,102.53996,-13.754918)"
         id="g14036">
        <path
           d="m 0,0 c 0.462,0 0.836,0.375 0.836,0.836 l 0,2.341 c 0,0.462 -0.374,0.836 -0.836,0.836 -0.462,0 -0.836,-0.374 -0.836,-0.836 l 0,-2.341 C -0.836,0.375 -0.462,0 0,0"
           id="path14038"
           style="fill:#cfcccd;fill-opacity:1;fill-rule:nonzero;stroke:none" />
      </g>
      <g
         transform="matrix(0.69122099,0,0,0.69122099,20.671448,11.797888)"
         id="g3115">
        <rect
           width="4.2203388"
           height="2.7966101"
           x="9.4067793"
           y="8.5423727"
           transform="matrix(1.447149,0,0,1.447149,74.52249,-21.334366)"
           id="rect3057"
           style="color:#000000;fill:#cfcccd;fill-opacity:1;fill-rule:nonzero;stroke:none;stroke-width:0.05674315;marker:none;visibility:visible;display:inline;overflow:visible;enable-background:accumulate" />
        <rect
           width="6.1074591"
           height="4.0471115"
           x="95.371246"
           y="-8.9722795"
           id="rect3061"
           style="color:#000000;fill:#cfcccd;fill-opacity:1;fill-rule:nonzero;stroke:none;stroke-width:0.05674315;marker:none;visibility:visible;display:inline;overflow:visible;enable-background:accumulate" />
        <rect
           width="6.1074591"
           height="4.0471115"
           x="102.60699"
           y="-8.9722795"
           id="rect3063"
           style="color:#000000;fill:#cfcccd;fill-opacity:1;fill-rule:nonzero;stroke:none;stroke-width:0.05674315;marker:none;visibility:visible;display:inline;overflow:visible;enable-background:accumulate" />
        <rect
           width="6.1074591"
           height="4.0471115"
           x="109.84274"
           y="-8.9722795"
           id="rect3071"
           style="color:#000000;fill:#cfcccd;fill-opacity:1;fill-rule:nonzero;stroke:none;stroke-width:0.05674315;marker:none;visibility:visible;display:inline;overflow:visible;enable-background:accumulate" />
        <rect
           width="6.1074591"
           height="4.0471115"
           x="88.135498"
           y="-14.037301"
           id="rect3075"
           style="color:#000000;fill:#cfcccd;fill-opacity:1;fill-rule:nonzero;stroke:none;stroke-width:0.05674315;marker:none;visibility:visible;display:inline;overflow:visible;enable-background:accumulate" />
        <rect
           width="6.1074591"
           height="4.0471115"
           x="95.371246"
           y="-14.037301"
           id="rect3077"
           style="color:#000000;fill:#cfcccd;fill-opacity:1;fill-rule:nonzero;stroke:none;stroke-width:0.05674315;marker:none;visibility:visible;display:inline;overflow:visible;enable-background:accumulate" />
        <rect
           width="6.1074591"
           height="4.0471115"
           x="102.60699"
           y="-14.037301"
           id="rect3079"
           style="color:#000000;fill:#cfcccd;fill-opacity:1;fill-rule:nonzero;stroke:none;stroke-width:0.05674315;marker:none;visibility:visible;display:inline;overflow:visible;enable-background:accumulate" />
        <rect
           width="6.1074591"
           height="4.0471115"
           x="109.84274"
           y="-14.037301"
           id="rect3081"
           style="color:#000000;fill:#cfcccd;fill-opacity:1;fill-rule:nonzero;stroke:none;stroke-width:0.05674315;marker:none;visibility:visible;display:inline;overflow:visible;enable-background:accumulate" />
        <rect
           width="6.1074591"
           height="4.0471115"
           x="117.07849"
           y="-14.037301"
           id="rect3083"
           style="color:#000000;fill:#cfcccd;fill-opacity:1;fill-rule:nonzero;stroke:none;stroke-width:0.05674315;marker:none;visibility:visible;display:inline;overflow:visible;enable-background:accumulate" />
        <rect
           width="6.1074591"
           height="4.0471115"
           x="88.135498"
           y="-19.102324"
           id="rect3085"
           style="color:#000000;fill:#cfcccd;fill-opacity:1;fill-rule:nonzero;stroke:none;stroke-width:0.05674315;marker:none;visibility:visible;display:inline;overflow:visible;enable-background:accumulate" />
        <rect
           width="6.1074591"
           height="4.0471115"
           x="95.371246"
           y="-19.102324"
           id="rect3087"
           style="color:#000000;fill:#cfcccd;fill-opacity:1;fill-rule:nonzero;stroke:none;stroke-width:0.05674315;marker:none;visibility:visible;display:inline;overflow:visible;enable-background:accumulate" />
        <rect
           width="6.1074591"
           height="4.0471115"
           x="102.60699"
           y="-19.102324"
           id="rect3089"
           style="color:#000000;fill:#cfcccd;fill-opacity:1;fill-rule:nonzero;stroke:none;stroke-width:0.05674315;marker:none;visibility:visible;display:inline;overflow:visible;enable-background:accumulate" />
        <rect
           width="6.1074591"
           height="4.0471115"
           x="109.84274"
           y="-19.102324"
           id="rect3091"
           style="color:#000000;fill:#cfcccd;fill-opacity:1;fill-rule:nonzero;stroke:none;stroke-width:0.05674315;marker:none;visibility:visible;display:inline;overflow:visible;enable-background:accumulate" />
        <rect
           width="6.1074591"
           height="4.0471115"
           x="117.07849"
           y="-19.102324"
           id="rect3093"
           style="color:#000000;fill:#cfcccd;fill-opacity:1;fill-rule:nonzero;stroke:none;stroke-width:0.05674315;marker:none;visibility:visible;display:inline;overflow:visible;enable-background:accumulate" />
        <rect
           width="6.1074591"
           height="4.0471115"
           x="88.135498"
           y="-24.167345"
           id="rect3095"
           style="color:#000000;fill:#cfcccd;fill-opacity:1;fill-rule:nonzero;stroke:none;stroke-width:0.05674315;marker:none;visibility:visible;display:inline;overflow:visible;enable-background:accumulate" />
        <rect
           width="6.1074591"
           height="4.0471115"
           x="95.371246"
           y="-24.167345"
           id="rect3097"
           style="color:#000000;fill:#cfcccd;fill-opacity:1;fill-rule:nonzero;stroke:none;stroke-width:0.05674315;marker:none;visibility:visible;display:inline;overflow:visible;enable-background:accumulate" />
        <rect
           width="6.1074591"
           height="4.0471115"
           x="102.60699"
           y="-24.167345"
           id="rect3099"
           style="color:#000000;fill:#cfcccd;fill-opacity:1;fill-rule:nonzero;stroke:none;stroke-width:0.05674315;marker:none;visibility:visible;display:inline;overflow:visible;enable-background:accumulate" />
        <rect
           width="6.1074591"
           height="4.0471115"
           x="109.84274"
           y="-24.167345"
           id="rect3101"
           style="color:#000000;fill:#cfcccd;fill-opacity:1;fill-rule:nonzero;stroke:none;stroke-width:0.05674315;marker:none;visibility:visible;display:inline;overflow:visible;enable-background:accumulate" />
        <rect
           width="6.1074591"
           height="4.0471115"
           x="117.07849"
           y="-24.167345"
           id="rect3103"
           style="color:#000000;fill:#cfcccd;fill-opacity:1;fill-rule:nonzero;stroke:none;stroke-width:0.05674315;marker:none;visibility:visible;display:inline;overflow:visible;enable-background:accumulate" />
        <rect
           width="6.1074591"
           height="4.0471115"
           x="102.60699"
           y="-29.232367"
           id="rect3109"
           style="color:#000000;fill:#cfcccd;fill-opacity:1;fill-rule:nonzero;stroke:none;stroke-width:0.05674315;marker:none;visibility:visible;display:inline;overflow:visible;enable-background:accumulate" />
        <rect
           width="6.1074591"
           height="4.0471115"
           x="109.84274"
           y="-29.232367"
           id="rect3111"
           style="color:#000000;fill:#cfcccd;fill-opacity:1;fill-rule:nonzero;stroke:none;stroke-width:0.05674315;marker:none;visibility:visible;display:inline;overflow:visible;enable-background:accumulate" />
        <rect
           width="6.1074591"
           height="4.0471115"
           x="117.07849"
           y="-29.232367"
           id="rect3113"
           style="color:#000000;fill:#cfcccd;fill-opacity:1;fill-rule:nonzero;stroke:none;stroke-width:0.05674315;marker:none;visibility:visible;display:inline;overflow:visible;enable-background:accumulate" />
      </g>
    </g>
    <g
       transform="matrix(0.88789269,0,0,-0.88789269,132.38167,5.2534643)"
       id="g542"
       style="color:#000000;fill:#cfcccd;fill-opacity:1;fill-rule:nonzero;stroke:none;stroke-width:0.69706941;marker:none;visibility:visible;display:inline;overflow:visible;enable-background:accumulate">
      <path
         d="m 0,0 c -2.885,0 -5.225,2.309 -5.225,5.154 0,2.847 2.34,5.156 5.225,5.156 2.885,0 5.223,-2.309 5.223,-5.156 C 5.223,2.309 2.885,0 0,0 m 0,11.704 c -3.664,0 -6.637,-2.933 -6.637,-6.55 0,-3.616 2.973,-6.547 6.637,-6.547 3.664,0 6.637,2.931 6.637,6.547 0,3.617 -2.973,6.55 -6.637,6.55"
         id="path544"
         style="color:#000000;fill:#cfcccd;fill-opacity:1;fill-rule:nonzero;stroke:none;stroke-width:0.69706941;marker:none;visibility:visible;display:inline;overflow:visible;enable-background:accumulate" />
    </g>
    <g
       transform="matrix(0.37798191,0,0,0.37798191,111.34134,-34.360351)"
       id="text3888"
       style="font-size:23.02468109px;font-style:normal;font-weight:normal;line-height:125%;letter-spacing:0px;word-spacing:0px;color:#000000;fill:#cfcccd;fill-opacity:1;fill-rule:nonzero;stroke:none;stroke-width:1.63744032;marker:none;visibility:visible;display:inline;overflow:visible;enable-background:accumulate;font-family:Sans">
      <path
         d="m 46.219081,92.018714 0,-1.980123 2.394566,0 c 0.506539,-1.642414 1.404501,-2.962495 2.693888,-3.960245 1.289375,-0.99772 2.755278,-1.496588 4.397714,-1.496604 2.440603,1.6e-5 4.374675,0.882628 5.80222,2.647838 l -1.634753,2.072221 c -0.675404,-0.721427 -1.320095,-1.22797 -1.934073,-1.519629 -0.598654,-0.291632 -1.343118,-0.437455 -2.233394,-0.437469 -0.890297,1.4e-5 -1.69616,0.237936 -2.417591,0.713766 -0.706098,0.460506 -1.235665,1.120546 -1.588703,1.980122 l 5.479874,0 0,1.980123 -5.963393,0 c -0.01536,0.184206 -0.02303,0.468177 -0.02302,0.851913 -6e-6,0.368403 0.02302,0.721447 0.06907,1.059135 l 5.917343,0 0,1.980123 -5.295677,0 c 0.828881,1.596381 2.079887,2.394569 3.753023,2.394567 0.828877,2e-6 1.534967,-0.153495 2.118271,-0.460494 0.598628,-0.322342 1.227969,-0.82121 1.888024,-1.496604 l 1.634752,1.980122 c -1.427545,1.765224 -3.307892,2.647834 -5.641047,2.647834 -1.596387,0 -3.016241,-0.45281 -4.259566,-1.358452 -1.227988,-0.920984 -2.1106,-2.156641 -2.647838,-3.706973 l -2.50969,0 0,-1.980123 2.072221,0 c -0.04605,-0.368387 -0.06908,-0.736782 -0.06907,-1.105185 -3e-6,-0.368386 0.0077,-0.637007 0.02302,-0.805863 l -2.026172,0"
         id="path3893"
         style="font-variant:normal;font-stretch:normal;color:#000000;fill:#cfcccd;fill-opacity:1;fill-rule:nonzero;stroke:none;stroke-width:1.63744032;marker:none;visibility:visible;display:inline;overflow:visible;enable-background:accumulate;font-family:Montserrat;-inkscape-font-specification:Montserrat" />
    </g>
  </g>
</svg>
