<?xml version="1.0" encoding="UTF-8" standalone="no"?>
<!-- Created with Inkscape (http://www.inkscape.org/) -->

<svg
   xmlns:dc="http://purl.org/dc/elements/1.1/"
   xmlns:cc="http://creativecommons.org/ns#"
   xmlns:rdf="http://www.w3.org/1999/02/22-rdf-syntax-ns#"
   xmlns:svg="http://www.w3.org/2000/svg"
   xmlns="http://www.w3.org/2000/svg"
   xmlns:sodipodi="http://sodipodi.sourceforge.net/DTD/sodipodi-0.dtd"
   xmlns:inkscape="http://www.inkscape.org/namespaces/inkscape"
   width="48px"
   height="48px"
   id="svg3210"
   version="1.1"
   inkscape:version="0.48.4 r9939"
   sodipodi:docname="luge.svg">
  <defs
     id="defs3212" />
  <sodipodi:namedview
     id="base"
     pagecolor="#ffffff"
     bordercolor="#666666"
     borderopacity="1.0"
     inkscape:pageopacity="0.0"
     inkscape:pageshadow="2"
     inkscape:zoom="7"
     inkscape:cx="24"
     inkscape:cy="24"
     inkscape:current-layer="layer1"
     showgrid="true"
     inkscape:grid-bbox="true"
     inkscape:document-units="px"
     inkscape:window-width="605"
     inkscape:window-height="601"
     inkscape:window-x="1315"
     inkscape:window-y="451"
     inkscape:window-maximized="0" />
  <metadata
     id="metadata3215">
    <rdf:RDF>
      <cc:Work
         rdf:about="">
        <dc:format>image/svg+xml</dc:format>
        <dc:type
           rdf:resource="http://purl.org/dc/dcmitype/StillImage" />
        <dc:title />
      </cc:Work>
    </rdf:RDF>
  </metadata>
  <g
     id="layer1"
     inkscape:label="Layer 1"
     inkscape:groupmode="layer">
    <g
       id="g2986">
      <g
         style="fill:#cfcccd"
         transform="matrix(0.95528433,0,0,-0.95528433,6.2049509,33.116559)"
         id="g11482">
        <path
           inkscape:connector-curvature="0"
           id="path11484"
           style="fill:#cfcccd;fill-opacity:1;fill-rule:nonzero;stroke:none"
           d="M 0,0 C 0.012,-1.496 0.434,-2.658 1.254,-3.451 2.609,-4.767 4.67,-4.732 4.695,-4.733 l 0,-0.002 9.174,0 0,3.92 1.688,0 0,-3.92 15.177,0 0,3.92 1.688,0 0,-3.92 5.355,0 c 0.502,0 0.907,-0.449 0.907,-1.004 0,-0.556 -0.405,-1.006 -0.907,-1.006 l -33.019,0 0,-0.011 c -0.01,0 -0.039,-10e-4 -0.086,-10e-4 -0.5,0 -2.994,0.091 -4.811,1.835 -1.234,1.186 -1.867,2.837 -1.884,4.904 L 0,0 z" />
      </g>
      <g
         style="fill:#cfcccd"
         transform="matrix(0.95528433,0,0,-0.95528433,29.116873,31.158379)"
         id="g11486">
        <path
           inkscape:connector-curvature="0"
           id="path11488"
           style="fill:#cfcccd;fill-opacity:1;fill-rule:nonzero;stroke:none"
           d="m 0,0 -6.389,0 4.032,3.396 2.105,-3.265 C -0.197,0.079 -0.104,0.038 0,0 m 0.809,4.806 -1.86,2.002 c -1.088,1.452 -2.613,0 -2.613,0 L -9.398,1.364 c -2.536,0 -2.385,-1.05 -2.284,-1.364 l -0.711,0 4.584,6.958 C -7.639,6.821 -7.51,6.735 -7.51,6.735 -6.059,5.937 -0.033,8.551 -0.033,8.551 -0.502,6.348 0.623,5.009 0.809,4.806 m 12.855,-6.576 0,0.843 C 13.664,-0.414 12.809,0 11.754,0 L 5.078,0 c 0.336,0.034 0.549,0.057 0.549,0.057 3.486,2.265 0.324,9.92 -1.078,12.887 1.98,-0.273 5.07,-2.506 5.07,-2.506 l -0.072,2.831 c -1.416,1.365 -3.994,1.566 -5.426,1.563 0.252,1.757 -0.891,2.791 -0.891,2.791 -2.902,4.066 -4.716,-0.507 -4.716,-0.507 -1.379,-0.726 0,-1.453 0,-1.453 -0.436,-0.434 0.072,-1.088 0.072,-1.088 l 0.437,-0.073 C -0.76,13.123 -0.396,13.194 -0.396,13.194 -0.76,12.325 0.328,11.89 0.328,11.89 0.328,11.38 -0.324,10.8 -0.324,10.8 -2.285,9.711 -7.437,9.059 -7.437,9.059 -8.457,8.934 -8.779,8.621 -8.771,8.266 L -14.068,0.228 C -14.115,0.157 -14.139,0.079 -14.154,0 l -1.301,0 c -1.055,0 -1.912,-0.414 -1.912,-0.927 l 0,-0.843 c 0,-0.512 0.857,-0.926 1.912,-0.926 l 27.209,0 c 1.055,0 1.91,0.414 1.91,0.926" />
      </g>
    </g>
  </g>
</svg>
