<?xml version="1.0" encoding="UTF-8" standalone="no"?>
<!-- Created with Inkscape (http://www.inkscape.org/) -->

<svg
   xmlns:dc="http://purl.org/dc/elements/1.1/"
   xmlns:cc="http://creativecommons.org/ns#"
   xmlns:rdf="http://www.w3.org/1999/02/22-rdf-syntax-ns#"
   xmlns:svg="http://www.w3.org/2000/svg"
   xmlns="http://www.w3.org/2000/svg"
   xmlns:sodipodi="http://sodipodi.sourceforge.net/DTD/sodipodi-0.dtd"
   xmlns:inkscape="http://www.inkscape.org/namespaces/inkscape"
   width="48px"
   height="48px"
   id="svg28083"
   version="1.1"
   inkscape:version="0.48.4 r9943 custom"
   sodipodi:docname="maison-temps-clef.svg">
  <defs
     id="defs28085">
    <clipPath
       clipPathUnits="userSpaceOnUse"
       id="clipPath4901">
      <path
         inkscape:connector-curvature="0"
         d="m 315.748,1648.19 0.773,0 0,-0.63 -0.773,0 0,0.63 z"
         id="path4903" />
    </clipPath>
    <clipPath
       clipPathUnits="userSpaceOnUse"
       id="clipPath4905">
      <path
         inkscape:connector-curvature="0"
         d="m 315.759,1648.18 0.762,0 0,-0.62 -0.762,0 0,0.62 z"
         id="path4907" />
    </clipPath>
    <clipPath
       clipPathUnits="userSpaceOnUse"
       id="clipPath4909">
      <path
         inkscape:connector-curvature="0"
         d="m 315.748,1648.19 0.011,0 0,-0.01 -0.011,0 0,0.01 z"
         id="path4911" />
    </clipPath>
    <clipPath
       clipPathUnits="userSpaceOnUse"
       id="clipPath4857">
      <path
         inkscape:connector-curvature="0"
         d="m 327.146,1644.07 0.45,0 0,-0.02 -0.45,0 0,0.02 z"
         id="path4859" />
    </clipPath>
    <clipPath
       clipPathUnits="userSpaceOnUse"
       id="clipPath4861">
      <path
         inkscape:connector-curvature="0"
         d="m 327.146,1644.07 0.446,0 0,-0.02 -0.446,0 0,0.02 z"
         id="path4863" />
    </clipPath>
    <clipPath
       clipPathUnits="userSpaceOnUse"
       id="clipPath4865">
      <path
         inkscape:connector-curvature="0"
         d="m 327.592,1644.05 0.004,0 0,0 -0.004,0 z"
         id="path4867" />
    </clipPath>
  </defs>
  <sodipodi:namedview
     id="base"
     pagecolor="#ffffff"
     bordercolor="#666666"
     borderopacity="1.0"
     inkscape:pageopacity="0.0"
     inkscape:pageshadow="2"
     inkscape:zoom="7"
     inkscape:cx="26.60379"
     inkscape:cy="15.274454"
     inkscape:current-layer="layer1"
     showgrid="true"
     inkscape:grid-bbox="true"
     inkscape:document-units="px"
     inkscape:window-width="651"
     inkscape:window-height="653"
     inkscape:window-x="1333"
     inkscape:window-y="295"
     inkscape:window-maximized="0" />
  <metadata
     id="metadata28088">
    <rdf:RDF>
      <cc:Work
         rdf:about="">
        <dc:format>image/svg+xml</dc:format>
        <dc:type
           rdf:resource="http://purl.org/dc/dcmitype/StillImage" />
        <dc:title></dc:title>
      </cc:Work>
    </rdf:RDF>
  </metadata>
  <g
     id="layer1"
     inkscape:label="Layer 1"
     inkscape:groupmode="layer">
    <g
       transform="matrix(0.95329426,0,0,-0.95329426,19.624751,13.906817)"
       id="g10271">
      <path
         inkscape:connector-curvature="0"
         id="path10273"
         style="fill:#cfcccd;fill-opacity:1;fill-rule:nonzero;stroke:none"
         d="M 0,0 12.387,7.155 C 12.832,7.413 13.559,7.407 14,7.144 l 4.797,-2.87 0,2.896 2.943,0 0,-4.656 1.983,-1.185 2.205,-1.317 c 0.439,-0.264 0.381,-0.48 -0.135,-0.48 l -2.07,0 0,-8.737 -21.053,0 0,8.737 -2.543,0 C -0.389,-0.468 -0.445,-0.258 0,0" />
    </g>
    <g
       transform="matrix(0.95329426,0,0,-0.95329426,9.7585367,29.273082)"
       id="g10275">
      <path
         inkscape:connector-curvature="0"
         id="path10277"
         style="fill:#cfcccd;fill-opacity:1;fill-rule:nonzero;stroke:none"
         d="m 0,0 c 0.789,-1.162 0.488,-2.748 -0.68,-3.543 -1.166,-0.796 -2.752,-0.497 -3.547,0.664 -0.791,1.162 -0.486,2.749 0.68,3.543 C -2.379,1.46 -0.791,1.162 0,0 M 35.816,-1.387 31.984,2.007 30.16,2.067 28.225,0.593 25.879,2.807 24.391,2.837 21.973,0.614 19.445,3.016 17.695,1.197 14.598,1.124 14.465,4.322 c 0,0 -0.113,0.55 -0.748,0.171 L 10.896,2.829 C 10.613,3.664 10.229,4.457 9.74,5.176 6.686,9.657 0.887,10.317 -3.455,6.993 -7.416,3.96 -8.334,-2.773 -5.281,-7.255 c 3.052,-4.479 8.775,-5.037 12.898,-2.228 1.453,0.993 2.528,2.551 3.172,4.351 0.152,0.064 0.356,0.072 0.598,-0.11 l 1.824,-1.526 c 0,0 1.111,-0.546 1.16,0.532 l 0.092,1.941 c 0,0 -0.025,0.191 0.539,0.211 l 17.703,0.262 c 0,0 2.99,1.15 3.111,2.435" />
    </g>
  </g>
</svg>
