<?xml version="1.0" encoding="UTF-8" standalone="no"?>
<!-- Created with Inkscape (http://www.inkscape.org/) -->

<svg
   xmlns:dc="http://purl.org/dc/elements/1.1/"
   xmlns:cc="http://creativecommons.org/ns#"
   xmlns:rdf="http://www.w3.org/1999/02/22-rdf-syntax-ns#"
   xmlns:svg="http://www.w3.org/2000/svg"
   xmlns="http://www.w3.org/2000/svg"
   xmlns:sodipodi="http://sodipodi.sourceforge.net/DTD/sodipodi-0.dtd"
   xmlns:inkscape="http://www.inkscape.org/namespaces/inkscape"
   width="48px"
   height="48px"
   id="svg3210"
   version="1.1"
   inkscape:version="0.48.4 r9939"
   sodipodi:docname="maison-check.svg">
  <defs
     id="defs3212" />
  <sodipodi:namedview
     id="base"
     pagecolor="#ffffff"
     bordercolor="#666666"
     borderopacity="1.0"
     inkscape:pageopacity="0.0"
     inkscape:pageshadow="2"
     inkscape:zoom="7"
     inkscape:cx="24"
     inkscape:cy="24"
     inkscape:current-layer="layer1"
     showgrid="true"
     inkscape:grid-bbox="true"
     inkscape:document-units="px"
     inkscape:window-width="605"
     inkscape:window-height="601"
     inkscape:window-x="1315"
     inkscape:window-y="451"
     inkscape:window-maximized="0" />
  <metadata
     id="metadata3215">
    <rdf:RDF>
      <cc:Work
         rdf:about="">
        <dc:format>image/svg+xml</dc:format>
        <dc:type
           rdf:resource="http://purl.org/dc/dcmitype/StillImage" />
        <dc:title />
      </cc:Work>
    </rdf:RDF>
  </metadata>
  <g
     id="layer1"
     inkscape:label="Layer 1"
     inkscape:groupmode="layer">
    <g
       id="g2986">
      <g
         style="fill:#cfcccd"
         transform="matrix(0.99918418,0,0,-0.99918418,37.758782,10.546013)"
         id="g11418">
        <path
           inkscape:connector-curvature="0"
           id="path11420"
           style="fill:#cfcccd;fill-opacity:1;fill-rule:nonzero;stroke:none"
           d="m 0,0 c -1.623,-0.786 -9.648,-9.917 -13.998,-14.2 l -3.327,3.32 c -0.389,0.465 -1.217,1.92 -2.009,0.975 l -1.218,-1.765 c -0.793,-0.946 0.047,-2.496 0.671,-2.982 l 5.353,-6.175 c 0.626,-0.485 1.772,-0.111 2.564,0.834 l 0.673,0.805 0.003,10e-4 L 1.178,-1.39 C 1.971,-0.442 3.825,1.682 0,0" />
      </g>
      <g
         style="fill:#cfcccd"
         transform="matrix(0.99918418,0,0,-0.99918418,42.603026,22.430869)"
         id="g11422">
        <path
           inkscape:connector-curvature="0"
           id="path11424"
           style="fill:#cfcccd;fill-opacity:1;fill-rule:nonzero;stroke:none"
           d="m 0,0 -6.789,3.922 c -1.912,-2.842 -7.658,-11.36 -9.221,-13.395 -1.885,-2.448 -3.721,-0.847 -3.721,-0.847 0,0 -4.536,4.816 -6.361,7.113 -1.555,1.957 -0.628,3.324 -0.628,3.324 0,0 0.393,0.991 1.85,3.147 1.109,1.638 3.324,-1.156 3.324,-1.156 l 2.553,-2.648 7.227,7.337 -5.372,3.103 c -0.617,0.357 -1.621,0.349 -2.232,-0.016 l -6.637,-3.97 0,4.008 -4.076,0 0,-6.443 -2.74,-1.639 -0.002,0 -3.049,-1.823 c -0.611,-0.366 -0.527,-0.664 0.184,-0.664 l 2.865,0 0,-14.155 29.13,0 0,14.155 3.52,0 C 0.537,-0.647 0.615,-0.356 0,0" />
      </g>
    </g>
  </g>
</svg>
