<?xml version="1.0" encoding="UTF-8" standalone="no"?>
<!-- Created with Inkscape (http://www.inkscape.org/) -->

<svg
   xmlns:dc="http://purl.org/dc/elements/1.1/"
   xmlns:cc="http://creativecommons.org/ns#"
   xmlns:rdf="http://www.w3.org/1999/02/22-rdf-syntax-ns#"
   xmlns:svg="http://www.w3.org/2000/svg"
   xmlns="http://www.w3.org/2000/svg"
   xmlns:sodipodi="http://sodipodi.sourceforge.net/DTD/sodipodi-0.dtd"
   xmlns:inkscape="http://www.inkscape.org/namespaces/inkscape"
   width="48px"
   height="48px"
   id="svg28083"
   version="1.1"
   inkscape:version="0.48.4 r9943 custom"
   sodipodi:docname="famille.svg">
  <defs
     id="defs28085">
    <clipPath
       clipPathUnits="userSpaceOnUse"
       id="clipPath4901">
      <path
         inkscape:connector-curvature="0"
         d="m 315.748,1648.19 0.773,0 0,-0.63 -0.773,0 0,0.63 z"
         id="path4903" />
    </clipPath>
    <clipPath
       clipPathUnits="userSpaceOnUse"
       id="clipPath4905">
      <path
         inkscape:connector-curvature="0"
         d="m 315.759,1648.18 0.762,0 0,-0.62 -0.762,0 0,0.62 z"
         id="path4907" />
    </clipPath>
    <clipPath
       clipPathUnits="userSpaceOnUse"
       id="clipPath4909">
      <path
         inkscape:connector-curvature="0"
         d="m 315.748,1648.19 0.011,0 0,-0.01 -0.011,0 0,0.01 z"
         id="path4911" />
    </clipPath>
    <clipPath
       clipPathUnits="userSpaceOnUse"
       id="clipPath4857">
      <path
         inkscape:connector-curvature="0"
         d="m 327.146,1644.07 0.45,0 0,-0.02 -0.45,0 0,0.02 z"
         id="path4859" />
    </clipPath>
    <clipPath
       clipPathUnits="userSpaceOnUse"
       id="clipPath4861">
      <path
         inkscape:connector-curvature="0"
         d="m 327.146,1644.07 0.446,0 0,-0.02 -0.446,0 0,0.02 z"
         id="path4863" />
    </clipPath>
    <clipPath
       clipPathUnits="userSpaceOnUse"
       id="clipPath4865">
      <path
         inkscape:connector-curvature="0"
         d="m 327.592,1644.05 0.004,0 0,0 -0.004,0 z"
         id="path4867" />
    </clipPath>
  </defs>
  <sodipodi:namedview
     id="base"
     pagecolor="#ffffff"
     bordercolor="#666666"
     borderopacity="1.0"
     inkscape:pageopacity="0.0"
     inkscape:pageshadow="2"
     inkscape:zoom="7"
     inkscape:cx="26.60379"
     inkscape:cy="18.285714"
     inkscape:current-layer="layer1"
     showgrid="true"
     inkscape:grid-bbox="true"
     inkscape:document-units="px"
     inkscape:window-width="651"
     inkscape:window-height="653"
     inkscape:window-x="1333"
     inkscape:window-y="295"
     inkscape:window-maximized="0" />
  <metadata
     id="metadata28088">
    <rdf:RDF>
      <cc:Work
         rdf:about="">
        <dc:format>image/svg+xml</dc:format>
        <dc:type
           rdf:resource="http://purl.org/dc/dcmitype/StillImage" />
        <dc:title></dc:title>
      </cc:Work>
    </rdf:RDF>
  </metadata>
  <g
     id="layer1"
     inkscape:label="Layer 1"
     inkscape:groupmode="layer">
    <g
       transform="matrix(1.25,0,0,-1.25,4.6677666,18.90142)"
       id="g10439">
      <path
         inkscape:connector-curvature="0"
         id="path10441"
         style="fill:#cfcccd;fill-opacity:1;fill-rule:nonzero;stroke:none"
         d="M 0,0 6.953,4.017 C 7.203,4.161 7.609,4.158 7.857,4.01 l 2.694,-1.611 0,1.625 1.65,0 0,-2.613 1.113,-0.664 0,-0.001 1.237,-0.739 c 0.248,-0.149 0.215,-0.27 -0.074,-0.27 l -1.163,0 0,-4.903 -11.816,0 0,4.903 -1.428,0 C -0.219,-0.263 -0.25,-0.146 0,0" />
    </g>
    <g
       transform="matrix(1.25,0,0,-1.25,37.053017,33.09822)"
       id="g10443">
      <path
         inkscape:connector-curvature="0"
         id="path10445"
         style="fill:#cfcccd;fill-opacity:1;fill-rule:nonzero;stroke:none"
         d="M 0,0 C -0.594,0.872 -0.365,2.065 0.512,2.663 1.387,3.261 2.58,3.036 3.174,2.163 3.77,1.291 3.541,0.1 2.666,-0.498 1.787,-1.096 0.598,-0.873 0,0 m -26.904,1.044 2.879,-2.55 1.371,-0.047 1.453,1.107 1.762,-1.661 1.117,-0.023 1.818,1.671 1.899,-1.806 1.314,1.367 2.326,0.053 0.1,-2.4 c 0,0 0.086,-0.415 0.56,-0.13 l 2.121,1.251 c 0.211,-0.628 0.502,-1.224 0.87,-1.763 2.293,-3.367 6.65,-3.863 9.91,-1.365 C 5.572,-2.974 6.262,2.085 3.969,5.45 1.674,8.816 -2.623,9.233 -5.721,7.125 -6.812,6.379 -7.619,5.208 -8.104,3.855 -8.219,3.808 -8.371,3.802 -8.553,3.938 l -1.371,1.146 c 0,0 -0.834,0.412 -0.871,-0.397 l -0.068,-1.458 c 0,0 0.019,-0.146 -0.405,-0.16 L -24.566,2.872 c 0,0 -2.246,-0.864 -2.338,-1.828" />
    </g>
    <g
       transform="matrix(1.25,0,0,-1.25,30.810397,3.51442)"
       id="g10447">
      <path
         inkscape:connector-curvature="0"
         id="path10449"
         style="fill:#cfcccd;fill-opacity:1;fill-rule:nonzero;stroke:none"
         d="m 0,0 c -0.059,0 -0.117,-0.003 -0.178,-0.005 l 0,-1.458 c 0.061,0.002 0.119,0.006 0.178,0.006 2.555,0 4.635,-2.08 4.635,-4.637 0,-2.553 -2.08,-4.634 -4.635,-4.634 -1.607,0 -3.025,0.824 -3.857,2.07 0.128,0.037 0.253,0.147 0.33,0.304 l 0.132,0.283 c 0.12,0.248 0.065,0.52 -0.121,0.607 L -5.02,-6.75 c -0.046,0.022 -0.099,0.029 -0.152,0.024 -0.183,0.025 -0.353,-0.042 -0.418,-0.179 l -0.703,-1.508 c -0.086,-0.186 0.047,-0.43 0.297,-0.545 l 0.281,-0.132 c 0.153,-0.071 0.309,-0.076 0.432,-0.031 1.053,-1.829 3.025,-3.066 5.283,-3.066 3.361,0 6.094,2.734 6.094,6.093 C 6.094,-2.733 3.361,0 0,0" />
    </g>
    <g
       transform="matrix(1.25,0,0,-1.25,29.509027,10.70192)"
       id="g10451">
      <path
         inkscape:connector-curvature="0"
         id="path10453"
         style="fill:#cfcccd;fill-opacity:1;fill-rule:nonzero;stroke:none"
         d="M 0,0 C 0.062,-0.066 0.146,-0.106 0.238,-0.118 0.207,-0.204 0.189,-0.294 0.186,-0.387 0.174,-0.628 0.26,-0.857 0.422,-1.033 0.592,-1.22 0.834,-1.325 1.084,-1.325 l 0.002,0 c 0.225,0 0.441,0.083 0.609,0.236 0.26,0.24 0.346,0.6 0.252,0.919 0.071,0.002 0.131,0.025 0.182,0.068 l 1.342,1.14 C 3.529,1.088 3.564,1.16 3.568,1.242 3.572,1.342 3.529,1.442 3.449,1.523 3.313,1.662 3.096,1.69 2.969,1.583 L 1.629,0.442 C 1.596,0.415 1.57,0.382 1.555,0.343 1.414,0.429 1.252,0.476 1.084,0.476 0.949,0.476 0.814,0.443 0.695,0.386 0.68,0.449 0.65,0.507 0.605,0.556 L -1.156,2.458 C -1.23,2.537 -1.334,2.582 -1.443,2.582 -1.549,2.582 -1.65,2.543 -1.727,2.473 -1.809,2.396 -1.859,2.293 -1.863,2.184 -1.869,2.078 -1.832,1.979 -1.762,1.902 L 0,0 z" />
    </g>
  </g>
</svg>
