<?xml version="1.0" encoding="UTF-8" standalone="no"?>
<!-- Created with Inkscape (http://www.inkscape.org/) -->

<svg
   xmlns:dc="http://purl.org/dc/elements/1.1/"
   xmlns:cc="http://creativecommons.org/ns#"
   xmlns:rdf="http://www.w3.org/1999/02/22-rdf-syntax-ns#"
   xmlns:svg="http://www.w3.org/2000/svg"
   xmlns="http://www.w3.org/2000/svg"
   version="1.1"
   width="48"
   height="48"
   id="svg28083">
  <defs
     id="defs28085">
    <clipPath
       id="clipPath4901">
      <path
         d="m 315.748,1648.19 0.773,0 0,-0.63 -0.773,0 0,0.63 z"
         id="path4903" />
    </clipPath>
    <clipPath
       id="clipPath4905">
      <path
         d="m 315.759,1648.18 0.762,0 0,-0.62 -0.762,0 0,0.62 z"
         id="path4907" />
    </clipPath>
    <clipPath
       id="clipPath4909">
      <path
         d="m 315.748,1648.19 0.011,0 0,-0.01 -0.011,0 0,0.01 z"
         id="path4911" />
    </clipPath>
    <clipPath
       id="clipPath4857">
      <path
         d="m 327.146,1644.07 0.45,0 0,-0.02 -0.45,0 0,0.02 z"
         id="path4859" />
    </clipPath>
    <clipPath
       id="clipPath4861">
      <path
         d="m 327.146,1644.07 0.446,0 0,-0.02 -0.446,0 0,0.02 z"
         id="path4863" />
    </clipPath>
    <clipPath
       id="clipPath4865">
      <path
         d="m 327.592,1644.05 0.004,0 0,0 -0.004,0 z"
         id="path4867" />
    </clipPath>
  </defs>
  <metadata
     id="metadata28088">
    <rdf:RDF>
      <cc:Work
         rdf:about="">
        <dc:format>image/svg+xml</dc:format>
        <dc:type
           rdf:resource="http://purl.org/dc/dcmitype/StillImage" />
        <dc:title></dc:title>
      </cc:Work>
    </rdf:RDF>
  </metadata>
  <g
     transform="matrix(0.19096307,0,0,0.19096307,9.3334547,1.8956538)"
     id="g4">
    <ellipse
       cx="134.955"
       cy="55.762001"
       rx="22.495001"
       ry="22.495001"
       transform="matrix(0.3311,-0.9436,0.9436,0.3311,37.656,164.6429)"
       id="ellipse6"
       style="color:#000000;fill:#4f4c4d;fill-opacity:1;fill-rule:nonzero;stroke:none;stroke-width:4.56283617;marker:none;visibility:visible;display:inline;overflow:visible;enable-background:accumulate" />
    <path
       d="m 110.281,170.748 c 1.12,0.107 2.165,0.193 3.138,0.236 0.73,0.146 1.484,0.225 2.256,0.225 8.915,-0.031 16.024,1.91 20.176,5.351 2.136,1.747 3.836,3.869 5.229,7.192 1.372,3.313 2.354,7.923 2.352,14.249 0.002,5.446 -0.735,12.136 -2.489,20.125 -1.359,6.205 2.569,12.337 8.773,13.696 0.829,0.182 1.657,0.269 2.473,0.269 5.285,0 10.045,-3.665 11.223,-9.04 2.028,-9.274 3.02,-17.553 3.022,-25.05 0,-8.674 -1.338,-16.351 -4.093,-23.029 -2.444,-6.045 -6.169,-11.104 -10.588,-15.055 -1.835,1.676 -4.244,2.623 -6.748,2.623 -2.484,0 -4.868,-0.918 -6.712,-2.586 -4.007,-3.608 -7.438,-7.226 -10.38,-10.793 -1.1,-0.183 -2.203,-0.335 -3.307,-0.461 0.104,-1.096 0.228,-2.193 0.373,-3.294 -12.866,-17.408 -14.431,-33.102 -14.373,-40.051 0.004,-6.761 1.289,-11.163 1.546,-11.975 1.334,-4.168 5.162,-6.96 9.526,-6.96 1.03,0 2.056,0.159 3.046,0.476 5.195,1.66 8.115,7.253 6.513,12.466 l -0.02,0.079 c -0.054,0.215 -0.135,0.574 -0.222,1.073 -0.178,1.02 -0.39,2.692 -0.388,4.855 0.043,3.571 0.566,7.118 1.544,10.636 1.038,-3.29 2.049,-6.408 2.937,-9.26 3.933,-9.583 1.492,-21.832 -6.764,-24.873 -8.254,-3.041 -21.061,0.226 -27.652,14.235 -8.953,19.317 -11.831,32.213 -11.669,54.577 1.365,16.347 12.155,19.187 21.278,20.064 z"
       id="path8-3"
       style="color:#000000;fill:#4f4c4d;fill-opacity:1;fill-rule:nonzero;stroke:none;stroke-width:4.56285477;marker:none;visibility:visible;display:inline;overflow:visible;enable-background:accumulate" />
    <path
       d="m 129.023,100.17 c 0.1,-0.567 0.193,-0.973 0.249,-1.197 0.027,-0.112 0.046,-0.18 0.052,-0.199 h -0.001 c 1.288,-4.185 -1.028,-8.636 -5.209,-9.973 -4.209,-1.346 -8.71,0.975 -10.056,5.182 -0.194,0.615 -1.449,4.764 -1.453,11.389 -0.075,8.99 2.491,22.607 12.785,37.211 1.672,2.372 3.55,4.77 5.652,7.179 2.528,2.896 5.373,5.808 8.593,8.707 1.531,1.388 3.452,2.071 5.368,2.071 1.866,0 3.723,-0.654 5.211,-1.933 0.25,-0.216 0.494,-0.444 0.722,-0.695 2.967,-3.273 2.718,-8.331 -0.555,-11.299 -11.067,-10.105 -16.577,-19.481 -19.28,-27.234 -1.969,-5.647 -2.452,-10.435 -2.495,-14.007 -0.001,-2.289 0.22,-4.07 0.417,-5.202 z"
       id="path10-6"
       style="color:#000000;fill:#4f4c4d;fill-opacity:1;fill-rule:nonzero;stroke:none;stroke-width:4.56285477;marker:none;visibility:visible;display:inline;overflow:visible;enable-background:accumulate" />
    <path
       d="m 10.782,141.525 2.731,81.7 c 0.227,6.759 5.775,12.084 12.485,12.084 0.142,0 0.284,-0.002 0.427,-0.007 6.9,-0.23 12.306,-6.011 12.074,-12.91 l -2.896,-86.601 c 0.246,-1.693 0.363,-3.714 0.351,-6.142 C 35.017,117.896 37.46,104.995 40.215,93.59 37.003,91.785 34.358,89.997 32.217,88.355 22.804,81.158 19.793,74.42 19.482,73.677 c -1.049,-2.435 -1.088,-5.151 -0.101,-7.633 0.986,-2.482 2.881,-4.431 5.334,-5.489 1.259,-0.543 2.591,-0.819 3.958,-0.819 3.897,0 7.466,2.291 9.09,5.836 l 0.039,0.06 c 0.093,0.165 0.358,0.609 0.858,1.274 0.971,1.286 2.753,3.297 5.719,5.573 0.268,0.205 0.559,0.415 0.849,0.625 C 46.055,64.778 42.723,56.381 35.882,54.279 27.474,51.695 14.865,55.658 9.051,70.007 1.169,89.786 -0.998,102.82 0.39,125.142 c 1.29,9.268 5.4,13.975 10.392,16.383 z"
       id="path12-7"
       style="color:#000000;fill:#4f4c4d;fill-opacity:1;fill-rule:nonzero;stroke:none;stroke-width:4.56285477;marker:none;visibility:visible;display:inline;overflow:visible;enable-background:accumulate" />
    <path
       d="m 117.731,233.422 h 10.036 l -4.13,-48.251 v -8.416 H 78.471 v 8.428 l -4.129,48.239 h 10.036 l 1.926,-22.5 h 29.502 l 1.925,22.5 z m -31.056,-26.833 1.698,-19.834 h 25.363 l 1.698,19.834 H 86.675 z"
       id="path14"
       style="color:#000000;fill:#4f4c4d;fill-opacity:1;fill-rule:nonzero;stroke:none;stroke-width:4.56285477;marker:none;visibility:visible;display:inline;overflow:visible;enable-background:accumulate" />
    <path
       d="m 88.225,90.038 c 0.01,0.014 0.019,0.029 0.029,0.043 C 85.675,85.568 80.417,78.61 69.915,70.475 69.892,70.398 69.873,70.32 69.84,70.245 65.074,59.495 62.303,49.711 60.696,42.201 c 2.024,-2.172 3.65,-4.781 4.713,-7.753 1.714,-4.794 1.7,-9.784 0.284,-14.293 3.057,-1.575 5.3,-4.594 5.723,-8.267 C 72.09,6.036 67.892,0.746 62.04,0.072 57.588,-0.441 53.468,1.869 51.451,5.578 45.337,3.502 38.93,4.205 33.629,7.034 l 16.677,1.92 c -0.027,0.165 -0.063,0.326 -0.083,0.494 -0.141,1.22 -0.058,2.412 0.195,3.546 L 28.802,10.505 c -2.509,2.36 -4.517,5.33 -5.757,8.796 -4.183,11.698 1.91,24.573 13.608,28.756 1.917,0.686 3.865,1.09 5.801,1.244 4.443,6.706 11.008,14.313 20.571,21.057 8.412,5.927 13.868,11.253 17.401,15.522 0.419,0.067 0.819,0.141 1.246,0.205 2.64,0.399 4.968,1.802 6.553,3.953 z M 52.566,9.843 c 0.024,-0.21 0.064,-0.414 0.103,-0.618 0.19,-0.994 0.554,-1.915 1.056,-2.739 1.631,-2.677 4.709,-4.314 8.028,-3.932 4.549,0.524 7.812,4.636 7.288,9.186 -0.315,2.733 -1.929,4.995 -4.151,6.257 -1.477,0.839 -3.218,1.241 -5.035,1.032 -3.354,-0.386 -6.003,-2.725 -6.957,-5.75 -0.339,-1.078 -0.469,-2.241 -0.332,-3.436 z m -5.345,39.324 c 3.628,-0.49 7.077,-1.86 10.043,-3.966 1.364,5.909 3.402,12.977 6.431,20.694 C 56.42,60.487 51.09,54.59 47.221,49.167 z"
       id="path16"
       style="color:#000000;fill:#4f4c4d;fill-opacity:1;fill-rule:nonzero;stroke:none;stroke-width:4.56285477;marker:none;visibility:visible;display:inline;overflow:visible;enable-background:accumulate" />
    <path
       d="m 90.168,95.655 c 0.018,0.6 -0.012,1.206 -0.104,1.812 -0.427,2.817 -2.044,5.225 -4.28,6.754 0.717,1.015 1.676,1.78 2.84,2.172 3.665,1.232 9.559,-16.304 5.893,-17.536 -2.039,-0.685 -4.271,-0.08 -6.131,1.424 0.564,0.812 0.999,1.688 1.297,2.605 0.292,0.893 0.457,1.823 0.485,2.769 z"
       id="path18"
       style="color:#000000;fill:#4f4c4d;fill-opacity:1;fill-rule:nonzero;stroke:none;stroke-width:4.56285477;marker:none;visibility:visible;display:inline;overflow:visible;enable-background:accumulate" />
    <path
       d="M 37.065,68.112 C 36.539,67.413 36.222,66.899 36.064,66.623 35.998,66.504 35.96,66.432 35.946,66.405 34.142,62.464 29.51,60.669 25.508,62.394 c -4.057,1.748 -5.93,6.454 -4.18,10.511 0.438,1.045 3.414,7.217 12.108,13.865 2.086,1.601 4.505,3.223 7.274,4.812 8.755,5.025 21.105,9.714 38.27,12.3 0.405,0.062 0.808,0.091 1.206,0.091 1.724,0 3.353,-0.56 4.685,-1.526 1.675,-1.214 2.881,-3.071 3.216,-5.277 0.055,-0.366 0.076,-0.729 0.081,-1.088 0.022,-1.579 -0.419,-3.08 -1.219,-4.355 -1.039,-1.655 -2.673,-2.921 -4.657,-3.463 -0.3,-0.082 -0.605,-0.152 -0.92,-0.2 C 62.697,85.228 51.51,79.906 44.9,75.321 44.288,74.897 43.701,74.476 43.165,74.067 40.003,71.644 38.12,69.51 37.065,68.112 z"
       id="path20"
       style="color:#000000;fill:#4f4c4d;fill-opacity:1;fill-rule:nonzero;stroke:none;stroke-width:4.56285477;marker:none;visibility:visible;display:inline;overflow:visible;enable-background:accumulate" />
  </g>
</svg>
