<?xml version="1.0" encoding="UTF-8" standalone="no"?>
<!-- Created with Inkscape (http://www.inkscape.org/) -->

<svg
   xmlns:dc="http://purl.org/dc/elements/1.1/"
   xmlns:cc="http://creativecommons.org/ns#"
   xmlns:rdf="http://www.w3.org/1999/02/22-rdf-syntax-ns#"
   xmlns:svg="http://www.w3.org/2000/svg"
   xmlns="http://www.w3.org/2000/svg"
   xmlns:sodipodi="http://sodipodi.sourceforge.net/DTD/sodipodi-0.dtd"
   xmlns:inkscape="http://www.inkscape.org/namespaces/inkscape"
   width="48px"
   height="48px"
   id="svg28083"
   version="1.1"
   inkscape:version="0.48.4 r9939"
   sodipodi:docname="montagne-telecabine-pourcent.svg">
  <defs
     id="defs28085">
    <clipPath
       clipPathUnits="userSpaceOnUse"
       id="clipPath4901">
      <path
         inkscape:connector-curvature="0"
         d="m 315.748,1648.19 0.773,0 0,-0.63 -0.773,0 0,0.63 z"
         id="path4903" />
    </clipPath>
    <clipPath
       clipPathUnits="userSpaceOnUse"
       id="clipPath4905">
      <path
         inkscape:connector-curvature="0"
         d="m 315.759,1648.18 0.762,0 0,-0.62 -0.762,0 0,0.62 z"
         id="path4907" />
    </clipPath>
    <clipPath
       clipPathUnits="userSpaceOnUse"
       id="clipPath4909">
      <path
         inkscape:connector-curvature="0"
         d="m 315.748,1648.19 0.011,0 0,-0.01 -0.011,0 0,0.01 z"
         id="path4911" />
    </clipPath>
    <clipPath
       clipPathUnits="userSpaceOnUse"
       id="clipPath4857">
      <path
         inkscape:connector-curvature="0"
         d="m 327.146,1644.07 0.45,0 0,-0.02 -0.45,0 0,0.02 z"
         id="path4859" />
    </clipPath>
    <clipPath
       clipPathUnits="userSpaceOnUse"
       id="clipPath4861">
      <path
         inkscape:connector-curvature="0"
         d="m 327.146,1644.07 0.446,0 0,-0.02 -0.446,0 0,0.02 z"
         id="path4863" />
    </clipPath>
    <clipPath
       clipPathUnits="userSpaceOnUse"
       id="clipPath4865">
      <path
         inkscape:connector-curvature="0"
         d="m 327.592,1644.05 0.004,0 0,0 -0.004,0 z"
         id="path4867" />
    </clipPath>
  </defs>
  <sodipodi:namedview
     id="base"
     pagecolor="#ffffff"
     bordercolor="#666666"
     borderopacity="1.0"
     inkscape:pageopacity="0.0"
     inkscape:pageshadow="2"
     inkscape:zoom="7"
     inkscape:cx="26.40694"
     inkscape:cy="24"
     inkscape:current-layer="layer1"
     showgrid="true"
     inkscape:grid-bbox="true"
     inkscape:document-units="px"
     inkscape:window-width="693"
     inkscape:window-height="653"
     inkscape:window-x="1920"
     inkscape:window-y="65"
     inkscape:window-maximized="0" />
  <metadata
     id="metadata28088">
    <rdf:RDF>
      <cc:Work
         rdf:about="">
        <dc:format>image/svg+xml</dc:format>
        <dc:type
           rdf:resource="http://purl.org/dc/dcmitype/StillImage" />
        <dc:title />
      </cc:Work>
    </rdf:RDF>
  </metadata>
  <g
     id="layer1"
     inkscape:label="Layer 1"
     inkscape:groupmode="layer">
    <g
       id="g3007">
      <g
         style="fill:#cfcccd"
         id="g8957"
         transform="matrix(0.79511453,0,0,-0.79511453,35.670672,11.854547)">
        <path
           d="m 0,0 c 0,0 -0.415,0.958 -0.702,0 -0.262,-0.874 -2.696,-7.493 -3.13,-8.673 l -0.931,0.715 3.511,8.949 c 0.493,1.254 1.298,1.254 1.789,0 L 3.364,-6.209 2.73,-7.133 0,0 z"
           style="fill:#cfcccd;fill-opacity:1;fill-rule:nonzero;stroke:none"
           id="path8959"
           inkscape:connector-curvature="0" />
      </g>
      <g
         style="fill:#cfcccd"
         id="g8961"
         transform="matrix(0.79511453,0,0,-0.79511453,19.449299,34.247453)">
        <path
           transform="matrix(1.2576805,0,0,-1.2576805,-24.461003,43.072352)"
           id="path8963"
           d="M 38.6875 17.6875 L 37.96875 18.71875 C 37.862205 18.873002 37.671745 18.949741 37.5 18.875 L 36.25 18.34375 L 34.03125 20.40625 C 33.955714 20.47781 33.877459 20.53125 33.78125 20.53125 C 33.696968 20.53125 33.60281 20.492363 33.53125 20.4375 L 31.59375 18.9375 L 30.96875 20.46875 C 30.614924 21.368025 30.080287 22.780201 29.6875 23.78125 C 29.505419 23.316903 29.296985 22.825756 29.15625 22.46875 L 28.8125 21.59375 L 27.71875 22.4375 C 27.677404 22.469305 27.609412 22.5 27.5625 22.5 C 27.506842 22.5 27.480436 22.477256 27.4375 22.4375 L 26.15625 21.25 L 25.46875 21.5625 C 25.369361 21.605436 25.247929 21.556213 25.1875 21.46875 L 24.78125 20.875 L 24.15625 22.46875 C 23.933618 23.035667 23.567177 23.964333 23.34375 24.53125 L 19.4375 34.25 C 19.214868 34.816917 19.399281 35.28125 19.84375 35.28125 L 25.84375 35.28125 L 26.28125 35.28125 C 26.369508 35.310669 26.488795 35.3125 26.59375 35.3125 L 33.96875 35.3125 L 36.8125 35.3125 L 44.1875 35.3125 C 44.969893 35.3125 45.297446 34.497074 44.90625 33.5 L 41.21875 24.09375 C 40.827554 23.096676 40.174037 21.465029 39.78125 20.46875 L 38.6875 17.6875 z M 29.34375 24.6875 C 29.986728 24.687508 30.508567 24.875955 30.875 25.28125 C 31.244882 25.682842 31.437495 26.234733 31.4375 26.9375 C 31.437495 27.640279 31.244882 28.188451 30.875 28.59375 C 30.508567 28.999057 29.986728 29.218754 29.34375 29.21875 C 28.700767 29.218754 28.213635 28.999057 27.84375 28.59375 C 27.477319 28.188451 27.28125 27.640279 27.28125 26.9375 C 27.28125 26.234733 27.477319 25.682842 27.84375 25.28125 C 28.213635 24.875955 28.700767 24.687508 29.34375 24.6875 z M 34.09375 24.6875 L 35.25 24.6875 L 30.40625 33.3125 L 29.28125 33.3125 L 34.09375 24.6875 z M 29.34375 25.625 C 29.094851 25.625007 28.916066 25.738218 28.78125 25.96875 C 28.646429 26.199296 28.562498 26.513612 28.5625 26.9375 C 28.562498 27.365119 28.646429 27.703248 28.78125 27.9375 C 28.916066 28.168044 29.094851 28.281255 29.34375 28.28125 C 29.592643 28.281255 29.806135 28.168044 29.9375 27.9375 C 30.072315 27.703248 30.124996 27.365119 30.125 26.9375 C 30.124996 26.513612 30.072311 26.199296 29.9375 25.96875 C 29.802678 25.738218 29.589185 25.625007 29.34375 25.625 z M 35.1875 28.78125 C 35.830472 28.781254 36.317604 28.973419 36.6875 29.375 C 37.057377 29.776588 37.24999 30.32848 37.25 31.03125 C 37.24999 31.734024 37.057377 32.309729 36.6875 32.71875 C 36.317604 33.124053 35.830472 33.3125 35.1875 33.3125 C 34.544512 33.3125 34.029586 33.124053 33.65625 32.71875 C 33.286357 32.309729 33.093743 31.734024 33.09375 31.03125 C 33.093743 30.332198 33.286357 29.807838 33.65625 29.40625 C 34.029586 29.000951 34.544512 28.781254 35.1875 28.78125 z M 35.1875 29.71875 C 34.942053 29.718753 34.728561 29.831964 34.59375 30.0625 C 34.458924 30.289324 34.406243 30.607357 34.40625 31.03125 C 34.406243 31.458865 34.462378 31.800712 34.59375 32.03125 C 34.72856 32.258072 34.938596 32.375 35.1875 32.375 C 35.436387 32.375 35.61863 32.258072 35.75 32.03125 C 35.881353 31.800712 35.937491 31.458865 35.9375 31.03125 C 35.937491 30.607357 35.884811 30.289324 35.75 30.0625 C 35.61863 29.831964 35.432931 29.718753 35.1875 29.71875 z "
           style="fill:#cfcccd;fill-opacity:1;fill-rule:nonzero;stroke:none" />
      </g>
      <g
         id="text3485"
         style="font-size:11.01388264px;font-style:normal;font-variant:normal;font-weight:bold;font-stretch:normal;text-align:center;line-height:125%;letter-spacing:0px;word-spacing:0px;text-anchor:middle;fill:#ffffff;fill-opacity:1;stroke:none;font-family:STIXSizeFourSym;-inkscape-font-specification:STIXSizeFourSym Bold"
         transform="scale(0.96419705,1.0371324)" />
      <g
         style="fill:#cfcccd"
         id="g8965"
         transform="matrix(0.79511453,0,0,-0.79511453,27.061885,17.119096)">
        <path
           d="m 0,0 1.997,-5.088 -0.53,-0.405 c -0.246,0.669 -1.631,4.433 -1.779,4.931 -0.163,0.543 -0.4,0 -0.4,0 L -2.263,-4.618 -2.624,-4.094 -1.018,0 C -0.738,0.713 -0.28,0.713 0,0"
           style="fill:#cfcccd;fill-opacity:1;fill-rule:nonzero;stroke:none"
           id="path8967"
           inkscape:connector-curvature="0" />
      </g>
      <g
         style="fill:#cfcccd"
         id="g8969"
         transform="matrix(0.79511453,0,0,-0.79511453,29.955784,13.399741)">
        <path
           d="m 0,0 c -0.11,-0.881 -0.854,-1.565 -1.766,-1.565 -0.466,0 -0.888,0.182 -1.206,0.475 -0.31,-0.53 -0.88,-0.891 -1.539,-0.891 -0.452,0 -0.859,0.172 -1.173,0.447 -0.301,-0.225 -0.67,-0.364 -1.073,-0.364 -0.651,0 -1.215,0.35 -1.527,0.868 -0.126,-0.022 -0.254,-0.036 -0.386,-0.036 -1.173,0 -2.123,0.948 -2.123,2.123 0,1.17 0.95,2.119 2.123,2.119 0.043,0 0.084,-0.003 0.127,-0.005 0.019,0.97 0.808,1.752 1.786,1.752 0.521,0 0.985,-0.227 1.312,-0.581 0.388,0.505 0.996,0.831 1.682,0.831 0.938,0 1.733,-0.61 2.013,-1.454 0.128,0.024 0.263,0.04 0.4,0.04 1.171,0 2.121,-0.949 2.121,-2.122 C 0.771,0.979 0.472,0.39 0,0"
           style="fill:#cfcccd;fill-opacity:1;fill-rule:nonzero;stroke:none"
           id="path8971"
           inkscape:connector-curvature="0" />
      </g>
      <g
         style="fill:#cfcccd"
         id="g6829"
         transform="matrix(0.69658823,0,0,-0.69658823,15.396701,27.360193)">
        <path
           d="m 0,0 0,-2.582 -3.717,0 0,7.249 C -1.59,4.177 0,2.277 0,0 m -15.141,-2.582 0,2.582 c 0,2.422 1.795,4.414 4.125,4.741 l 0,-7.323 -4.125,0 z m 5.371,7.377 4.809,0 0,-7.377 -4.809,0 0,7.377 z M 4.516,16.181 C 4.387,16.476 4.033,16.604 3.727,16.468 L -19.076,6.39 c -0.307,-0.135 -0.449,-0.485 -0.319,-0.778 0.131,-0.293 0.485,-0.424 0.79,-0.287 l 10.591,4.681 C -8.053,9.873 -8.076,9.727 -8.076,9.574 l 0,-1.642 -0.897,0 c -0.632,0 -1.146,-0.514 -1.146,-1.147 0,-0.121 0.023,-0.237 0.06,-0.348 l -0.906,0 c -3.242,0 -5.869,-2.63 -5.869,-5.871 l 0,-6.197 c 0,-3.242 2.627,-5.871 5.869,-5.871 l 6.789,0 c 3.24,0 5.869,2.629 5.869,5.871 l 0,6.197 c 0,3.241 -2.629,5.871 -5.869,5.871 l -0.472,0 c 0.037,0.111 0.06,0.227 0.06,0.348 0,0.633 -0.512,1.147 -1.146,1.147 l -0.848,0 0,1.642 c 0,0.382 -0.137,0.719 -0.346,0.911 l 11.125,4.916 c 0.307,0.137 0.448,0.488 0.319,0.78"
           style="fill:#cfcccd;fill-opacity:1;fill-rule:nonzero;stroke:none"
           id="path6831"
           inkscape:connector-curvature="0" />
      </g>
    </g>
  </g>
</svg>
