<?xml version="1.0" encoding="UTF-8" standalone="no"?>
<!-- Created with Inkscape (http://www.inkscape.org/) -->

<svg
   xmlns:dc="http://purl.org/dc/elements/1.1/"
   xmlns:cc="http://creativecommons.org/ns#"
   xmlns:rdf="http://www.w3.org/1999/02/22-rdf-syntax-ns#"
   xmlns:svg="http://www.w3.org/2000/svg"
   xmlns="http://www.w3.org/2000/svg"
   xmlns:sodipodi="http://sodipodi.sourceforge.net/DTD/sodipodi-0.dtd"
   xmlns:inkscape="http://www.inkscape.org/namespaces/inkscape"
   width="48px"
   height="48px"
   id="svg28083"
   version="1.1"
   inkscape:version="0.48.4 r9943 custom"
   sodipodi:docname="montagne-personnes-pourcent.svg">
  <defs
     id="defs28085">
    <clipPath
       clipPathUnits="userSpaceOnUse"
       id="clipPath4901">
      <path
         inkscape:connector-curvature="0"
         d="m 315.748,1648.19 0.773,0 0,-0.63 -0.773,0 0,0.63 z"
         id="path4903" />
    </clipPath>
    <clipPath
       clipPathUnits="userSpaceOnUse"
       id="clipPath4905">
      <path
         inkscape:connector-curvature="0"
         d="m 315.759,1648.18 0.762,0 0,-0.62 -0.762,0 0,0.62 z"
         id="path4907" />
    </clipPath>
    <clipPath
       clipPathUnits="userSpaceOnUse"
       id="clipPath4909">
      <path
         inkscape:connector-curvature="0"
         d="m 315.748,1648.19 0.011,0 0,-0.01 -0.011,0 0,0.01 z"
         id="path4911" />
    </clipPath>
    <clipPath
       clipPathUnits="userSpaceOnUse"
       id="clipPath4857">
      <path
         inkscape:connector-curvature="0"
         d="m 327.146,1644.07 0.45,0 0,-0.02 -0.45,0 0,0.02 z"
         id="path4859" />
    </clipPath>
    <clipPath
       clipPathUnits="userSpaceOnUse"
       id="clipPath4861">
      <path
         inkscape:connector-curvature="0"
         d="m 327.146,1644.07 0.446,0 0,-0.02 -0.446,0 0,0.02 z"
         id="path4863" />
    </clipPath>
    <clipPath
       clipPathUnits="userSpaceOnUse"
       id="clipPath4865">
      <path
         inkscape:connector-curvature="0"
         d="m 327.592,1644.05 0.004,0 0,0 -0.004,0 z"
         id="path4867" />
    </clipPath>
  </defs>
  <sodipodi:namedview
     id="base"
     pagecolor="#ffffff"
     bordercolor="#666666"
     borderopacity="1.0"
     inkscape:pageopacity="0.0"
     inkscape:pageshadow="2"
     inkscape:zoom="7"
     inkscape:cx="26.40694"
     inkscape:cy="24"
     inkscape:current-layer="layer1"
     showgrid="true"
     inkscape:grid-bbox="true"
     inkscape:document-units="px"
     inkscape:window-width="693"
     inkscape:window-height="653"
     inkscape:window-x="594"
     inkscape:window-y="52"
     inkscape:window-maximized="0" />
  <metadata
     id="metadata28088">
    <rdf:RDF>
      <cc:Work
         rdf:about="">
        <dc:format>image/svg+xml</dc:format>
        <dc:type
           rdf:resource="http://purl.org/dc/dcmitype/StillImage" />
        <dc:title></dc:title>
      </cc:Work>
    </rdf:RDF>
  </metadata>
  <g
     id="layer1"
     inkscape:label="Layer 1"
     inkscape:groupmode="layer">
    <g
       transform="matrix(0.79511453,0,0,-0.79511453,35.670672,11.854547)"
       id="g8957">
      <path
         inkscape:connector-curvature="0"
         id="path8959"
         style="fill:#cfcccd;fill-opacity:1;fill-rule:nonzero;stroke:none"
         d="m 0,0 c 0,0 -0.415,0.958 -0.702,0 -0.262,-0.874 -2.696,-7.493 -3.13,-8.673 l -0.931,0.715 3.511,8.949 c 0.493,1.254 1.298,1.254 1.789,0 L 3.364,-6.209 2.73,-7.133 0,0 z" />
    </g>
    <g
       transform="matrix(0.79511453,0,0,-0.79511453,19.449299,34.247453)"
       id="g8961">
      <path
         inkscape:connector-curvature="0"
         id="path8963"
         style="fill:#cfcccd;fill-opacity:1;fill-rule:nonzero;stroke:none"
         d="m 0,0 4.899,12.223 c 0.281,0.713 0.738,1.878 1.018,2.591 l 0.786,2.003 0.519,-0.754 c 0.076,-0.11 0.218,-0.151 0.343,-0.097 l 0.881,0.382 1.585,-1.487 c 0.054,-0.05 0.122,-0.076 0.192,-0.076 0.059,0 0.119,0.019 0.171,0.059 l 1.391,1.068 0.431,-1.098 c 0.177,-0.449 0.423,-1.08 0.652,-1.664 0.494,1.259 1.192,3.038 1.637,4.169 l 0.758,1.93 2.446,-1.877 c 0.09,-0.069 0.195,-0.102 0.301,-0.102 0.121,0 0.242,0.043 0.337,0.133 l 2.786,2.615 1.553,-0.673 c 0.216,-0.094 0.469,-0.021 0.603,0.173 l 0.912,1.327 1.382,-3.526 c 0.494,-1.253 1.298,-3.303 1.79,-4.557 L 32.018,0.928 c 0.492,-1.254 0.089,-2.281 -0.895,-2.281 l -9.289,0 -3.578,0 -9.29,0 c -0.132,0 -0.252,0.021 -0.363,0.058 l -0.555,0 -7.539,0 C -0.05,-1.295 -0.28,-0.713 0,0" />
    </g>
    <text
       xml:space="preserve"
       style="font-size:11.01388264px;font-style:normal;font-variant:normal;font-weight:bold;font-stretch:normal;text-align:center;line-height:125%;letter-spacing:0px;word-spacing:0px;text-anchor:middle;fill:#ffffff;fill-opacity:1;stroke:none;font-family:STIXSizeFourSym;-inkscape-font-specification:STIXSizeFourSym Bold"
       x="33.460949"
       y="31.970921"
       id="text3485"
       sodipodi:linespacing="125%"
       transform="scale(0.96419705,1.0371324)"><tspan
         sodipodi:role="line"
         id="tspan3487"
         x="33.460949"
         y="31.970921"
         style="font-style:normal;font-variant:normal;font-weight:bold;font-stretch:normal;fill:#ffffff;font-family:Sans;-inkscape-font-specification:Sans Bold">%</tspan></text>
    <g
       transform="matrix(0.79511453,0,0,-0.79511453,27.061885,17.119096)"
       id="g8965">
      <path
         inkscape:connector-curvature="0"
         id="path8967"
         style="fill:#cfcccd;fill-opacity:1;fill-rule:nonzero;stroke:none"
         d="m 0,0 1.997,-5.088 -0.53,-0.405 c -0.246,0.669 -1.631,4.433 -1.779,4.931 -0.163,0.543 -0.4,0 -0.4,0 L -2.263,-4.618 -2.624,-4.094 -1.018,0 C -0.738,0.713 -0.28,0.713 0,0" />
    </g>
    <g
       transform="matrix(0.79511453,0,0,-0.79511453,29.955784,13.399741)"
       id="g8969">
      <path
         inkscape:connector-curvature="0"
         id="path8971"
         style="fill:#cfcccd;fill-opacity:1;fill-rule:nonzero;stroke:none"
         d="m 0,0 c -0.11,-0.881 -0.854,-1.565 -1.766,-1.565 -0.466,0 -0.888,0.182 -1.206,0.475 -0.31,-0.53 -0.88,-0.891 -1.539,-0.891 -0.452,0 -0.859,0.172 -1.173,0.447 -0.301,-0.225 -0.67,-0.364 -1.073,-0.364 -0.651,0 -1.215,0.35 -1.527,0.868 -0.126,-0.022 -0.254,-0.036 -0.386,-0.036 -1.173,0 -2.123,0.948 -2.123,2.123 0,1.17 0.95,2.119 2.123,2.119 0.043,0 0.084,-0.003 0.127,-0.005 0.019,0.97 0.808,1.752 1.786,1.752 0.521,0 0.985,-0.227 1.312,-0.581 0.388,0.505 0.996,0.831 1.682,0.831 0.938,0 1.733,-0.61 2.013,-1.454 0.128,0.024 0.263,0.04 0.4,0.04 1.171,0 2.121,-0.949 2.121,-2.122 C 0.771,0.979 0.472,0.39 0,0" />
    </g>
    <g
       transform="matrix(0.69658823,0,0,-0.69658823,15.396701,27.360193)"
       id="g6829">
      <path
         inkscape:connector-curvature="0"
         id="path6831"
         style="fill:#cfcccd;fill-opacity:1;fill-rule:nonzero;stroke:none"
         d="m 0,0 0,-2.582 -3.717,0 0,7.249 C -1.59,4.177 0,2.277 0,0 m -15.141,-2.582 0,2.582 c 0,2.422 1.795,4.414 4.125,4.741 l 0,-7.323 -4.125,0 z m 5.371,7.377 4.809,0 0,-7.377 -4.809,0 0,7.377 z M 4.516,16.181 C 4.387,16.476 4.033,16.604 3.727,16.468 L -19.076,6.39 c -0.307,-0.135 -0.449,-0.485 -0.319,-0.778 0.131,-0.293 0.485,-0.424 0.79,-0.287 l 10.591,4.681 C -8.053,9.873 -8.076,9.727 -8.076,9.574 l 0,-1.642 -0.897,0 c -0.632,0 -1.146,-0.514 -1.146,-1.147 0,-0.121 0.023,-0.237 0.06,-0.348 l -0.906,0 c -3.242,0 -5.869,-2.63 -5.869,-5.871 l 0,-6.197 c 0,-3.242 2.627,-5.871 5.869,-5.871 l 6.789,0 c 3.24,0 5.869,2.629 5.869,5.871 l 0,6.197 c 0,3.241 -2.629,5.871 -5.869,5.871 l -0.472,0 c 0.037,0.111 0.06,0.227 0.06,0.348 0,0.633 -0.512,1.147 -1.146,1.147 l -0.848,0 0,1.642 c 0,0.382 -0.137,0.719 -0.346,0.911 l 11.125,4.916 c 0.307,0.137 0.448,0.488 0.319,0.78" />
    </g>
  </g>
</svg>
