<?xml version="1.0" encoding="UTF-8" standalone="no"?>
<!-- Created with Inkscape (http://www.inkscape.org/) -->

<svg
   xmlns:dc="http://purl.org/dc/elements/1.1/"
   xmlns:cc="http://creativecommons.org/ns#"
   xmlns:rdf="http://www.w3.org/1999/02/22-rdf-syntax-ns#"
   xmlns:svg="http://www.w3.org/2000/svg"
   xmlns="http://www.w3.org/2000/svg"
   xmlns:sodipodi="http://sodipodi.sourceforge.net/DTD/sodipodi-0.dtd"
   xmlns:inkscape="http://www.inkscape.org/namespaces/inkscape"
   width="48px"
   height="48px"
   id="svg28083"
   version="1.1"
   inkscape:version="0.48.4 r9943 custom"
   sodipodi:docname="avion.svg">
  <defs
     id="defs28085">
    <clipPath
       clipPathUnits="userSpaceOnUse"
       id="clipPath4901">
      <path
         inkscape:connector-curvature="0"
         d="m 315.748,1648.19 0.773,0 0,-0.63 -0.773,0 0,0.63 z"
         id="path4903" />
    </clipPath>
    <clipPath
       clipPathUnits="userSpaceOnUse"
       id="clipPath4905">
      <path
         inkscape:connector-curvature="0"
         d="m 315.759,1648.18 0.762,0 0,-0.62 -0.762,0 0,0.62 z"
         id="path4907" />
    </clipPath>
    <clipPath
       clipPathUnits="userSpaceOnUse"
       id="clipPath4909">
      <path
         inkscape:connector-curvature="0"
         d="m 315.748,1648.19 0.011,0 0,-0.01 -0.011,0 0,0.01 z"
         id="path4911" />
    </clipPath>
    <clipPath
       clipPathUnits="userSpaceOnUse"
       id="clipPath4857">
      <path
         inkscape:connector-curvature="0"
         d="m 327.146,1644.07 0.45,0 0,-0.02 -0.45,0 0,0.02 z"
         id="path4859" />
    </clipPath>
    <clipPath
       clipPathUnits="userSpaceOnUse"
       id="clipPath4861">
      <path
         inkscape:connector-curvature="0"
         d="m 327.146,1644.07 0.446,0 0,-0.02 -0.446,0 0,0.02 z"
         id="path4863" />
    </clipPath>
    <clipPath
       clipPathUnits="userSpaceOnUse"
       id="clipPath4865">
      <path
         inkscape:connector-curvature="0"
         d="m 327.592,1644.05 0.004,0 0,0 -0.004,0 z"
         id="path4867" />
    </clipPath>
  </defs>
  <sodipodi:namedview
     id="base"
     pagecolor="#ffffff"
     bordercolor="#666666"
     borderopacity="1.0"
     inkscape:pageopacity="0.0"
     inkscape:pageshadow="2"
     inkscape:zoom="7"
     inkscape:cx="26.60379"
     inkscape:cy="24"
     inkscape:current-layer="layer1"
     showgrid="true"
     inkscape:grid-bbox="true"
     inkscape:document-units="px"
     inkscape:window-width="651"
     inkscape:window-height="653"
     inkscape:window-x="1333"
     inkscape:window-y="295"
     inkscape:window-maximized="0" />
  <metadata
     id="metadata28088">
    <rdf:RDF>
      <cc:Work
         rdf:about="">
        <dc:format>image/svg+xml</dc:format>
        <dc:type
           rdf:resource="http://purl.org/dc/dcmitype/StillImage" />
        <dc:title></dc:title>
      </cc:Work>
    </rdf:RDF>
  </metadata>
  <g
     id="layer1"
     inkscape:label="Layer 1"
     inkscape:groupmode="layer">
    <g
       transform="matrix(1.25,0,0,-1.25,39.578571,32.62557)"
       id="g6415">
      <path
         inkscape:connector-curvature="0"
         id="path6417"
         style="fill:#cfcccd;fill-opacity:1;fill-rule:nonzero;stroke:none"
         d="m 0,0 c -1.494,0 -2.705,1.21 -2.705,2.705 0,0.703 0.273,1.338 0.715,1.817 0.238,0.263 0.529,0.478 0.855,0.63 0.008,0.006 0.022,0.015 0.033,0.021 0.145,0.064 0.297,0.11 0.45,0.15 0.031,0.008 0.058,0.022 0.086,0.027 C -0.385,5.389 -0.197,5.411 0,5.411 0.154,5.411 0.301,5.389 0.449,5.366 0.582,5.342 0.709,5.307 0.838,5.266 1.92,4.911 2.705,3.906 2.705,2.705 2.705,1.21 1.492,0 0,0 m -21.402,-0.409 c -1.496,0 -2.705,1.213 -2.705,2.708 0,1.306 0.923,2.397 2.16,2.649 L -22.584,3.3 c -0.279,-0.724 -0.055,-1.484 0.479,-1.895 0.347,-0.332 0.962,-0.558 1.668,-0.566 l 1.298,-0.016 c -0.484,-0.742 -1.314,-1.232 -2.263,-1.232 m 2.246,4.212 c 0.131,-0.195 0.224,-0.411 0.301,-0.635 l -0.543,0.005 0.242,0.63 z m 1.927,4.995 2.799,0 c 0.02,0 0.039,0.01 0.059,0.01 C -14.396,8.627 -14.43,8.45 -14.43,8.262 l 0,-3.806 c 0,-0.474 0.104,-0.923 0.258,-1.345 l -1.582,0.019 c -0.225,1.527 -1.037,2.852 -2.219,3.738 l 0.744,1.93 z m 16.608,7.762 c 1.057,-0.028 1.812,-0.814 1.812,-1.653 0,-0.84 -0.744,-1.678 -1.812,-1.691 l 0,3.344 z m 0.482,-8.527 c -0.006,0 -0.013,-10e-4 -0.019,-10e-4 l -1.508,3.623 c 0.014,0.117 0.049,0.228 0.049,0.346 0,0.277 -0.045,0.549 -0.125,0.812 l 1.058,0 c 1.274,0 2.309,0.938 2.309,2.098 0,1.158 -1.035,2.099 -2.309,2.099 l -1.484,0 c -0.371,0 -0.715,-0.087 -1.025,-0.228 -0.147,0.165 -0.323,0.328 -0.516,0.483 l -0.916,0.71 c -0.785,0.609 -1.646,0.817 -1.924,0.462 -0.271,-0.356 0.141,-1.138 0.926,-1.748 l 0.918,-0.71 c 0.133,-0.107 0.271,-0.182 0.404,-0.263 -0.054,-0.122 -0.097,-0.249 -0.127,-0.384 -0.836,0.336 -1.791,0.54 -2.824,0.54 -2.219,0 -4.111,-0.881 -5.035,-2.156 -0.328,1.371 -1.162,2.349 -2.143,2.349 l -11.177,0 c -1.272,0 -2.299,-1.627 -2.299,-3.634 0,-2.008 1.027,-3.633 2.299,-3.633 l 5.146,0 -0.316,-0.827 c -0.211,0.023 -0.414,0.062 -0.625,0.062 -3.17,0 -5.739,-2.569 -5.739,-5.734 0,-3.171 2.569,-5.737 5.739,-5.737 2.638,0 4.84,1.793 5.509,4.223 l 3.977,-0.048 c 0.523,-0.222 1.1,-0.352 1.707,-0.352 2.332,0 4.221,1.823 4.221,4.071 l 0,3.779 c 0.771,0.121 1.476,0.356 2.09,0.67 l 0.746,-1.792 c -1.442,-0.97 -2.387,-2.615 -2.387,-4.481 0,-2.985 2.418,-5.4 5.4,-5.4 2.985,0 5.405,2.415 5.405,5.4 0,2.982 -2.42,5.401 -5.405,5.401" />
    </g>
  </g>
</svg>
