<?xml version="1.0" encoding="UTF-8" standalone="no"?>
<!-- Created with Inkscape (http://www.inkscape.org/) -->

<svg
   xmlns:dc="http://purl.org/dc/elements/1.1/"
   xmlns:cc="http://creativecommons.org/ns#"
   xmlns:rdf="http://www.w3.org/1999/02/22-rdf-syntax-ns#"
   xmlns:svg="http://www.w3.org/2000/svg"
   xmlns="http://www.w3.org/2000/svg"
   xmlns:sodipodi="http://sodipodi.sourceforge.net/DTD/sodipodi-0.dtd"
   xmlns:inkscape="http://www.inkscape.org/namespaces/inkscape"
   width="48px"
   height="48px"
   id="svg28083"
   version="1.1"
   inkscape:version="0.48.4 r9943 custom"
   sodipodi:docname="photo.svg">
  <defs
     id="defs28085" />
  <sodipodi:namedview
     id="base"
     pagecolor="#ffffff"
     bordercolor="#666666"
     borderopacity="1.0"
     inkscape:pageopacity="0.0"
     inkscape:pageshadow="2"
     inkscape:zoom="7"
     inkscape:cx="24"
     inkscape:cy="24"
     inkscape:current-layer="layer1"
     showgrid="true"
     inkscape:grid-bbox="true"
     inkscape:document-units="px"
     inkscape:window-width="651"
     inkscape:window-height="653"
     inkscape:window-x="1333"
     inkscape:window-y="295"
     inkscape:window-maximized="0" />
  <metadata
     id="metadata28088">
    <rdf:RDF>
      <cc:Work
         rdf:about="">
        <dc:format>image/svg+xml</dc:format>
        <dc:type
           rdf:resource="http://purl.org/dc/dcmitype/StillImage" />
        <dc:title></dc:title>
      </cc:Work>
    </rdf:RDF>
  </metadata>
  <g
     id="layer1"
     inkscape:label="Layer 1"
     inkscape:groupmode="layer">
    <g
       transform="matrix(1.25,0,0,-1.25,39.283482,9.254643)"
       id="g14411">
      <path
         inkscape:connector-curvature="0"
         id="path14413"
         style="fill:#cfcccd;fill-opacity:1;fill-rule:nonzero;stroke:none"
         d="m 0,0 -1.195,1.183 -16.852,-5.404 0,-14.315 c -0.547,0.175 -1.15,0.277 -1.787,0.277 -2.426,0 -4.391,-1.407 -4.391,-3.144 0,-1.736 1.965,-3.144 4.391,-3.144 2.422,0 4.387,1.408 4.387,3.144 0,0.189 -0.032,0.373 -0.076,0.552 l 0,11.801 11.808,3.789 0,-8.926 c -0.568,0.193 -1.195,0.309 -1.867,0.309 -2.426,0 -4.389,-1.405 -4.389,-3.144 0,-1.737 1.963,-3.144 4.389,-3.144 2.424,0 4.387,1.407 4.387,3.144 0,0.213 -0.03,0.422 -0.088,0.623 L -1.195,-16.37 0,0 z" />
    </g>
  </g>
</svg>
