<?xml version="1.0" encoding="UTF-8" standalone="no"?>
<!-- Created with Inkscape (http://www.inkscape.org/) -->

<svg
   xmlns:dc="http://purl.org/dc/elements/1.1/"
   xmlns:cc="http://creativecommons.org/ns#"
   xmlns:rdf="http://www.w3.org/1999/02/22-rdf-syntax-ns#"
   xmlns:svg="http://www.w3.org/2000/svg"
   xmlns="http://www.w3.org/2000/svg"
   xmlns:sodipodi="http://sodipodi.sourceforge.net/DTD/sodipodi-0.dtd"
   xmlns:inkscape="http://www.inkscape.org/namespaces/inkscape"
   width="48px"
   height="48px"
   id="svg28083"
   version="1.1"
   inkscape:version="0.48.4 r9943 custom"
   sodipodi:docname="laptop.svg">
  <defs
     id="defs28085" />
  <sodipodi:namedview
     id="base"
     pagecolor="#ffffff"
     bordercolor="#666666"
     borderopacity="1.0"
     inkscape:pageopacity="0.0"
     inkscape:pageshadow="2"
     inkscape:zoom="7"
     inkscape:cx="24"
     inkscape:cy="24"
     inkscape:current-layer="layer1"
     showgrid="true"
     inkscape:grid-bbox="true"
     inkscape:document-units="px"
     inkscape:window-width="651"
     inkscape:window-height="653"
     inkscape:window-x="1333"
     inkscape:window-y="295"
     inkscape:window-maximized="0" />
  <metadata
     id="metadata28088">
    <rdf:RDF>
      <cc:Work
         rdf:about="">
        <dc:format>image/svg+xml</dc:format>
        <dc:type
           rdf:resource="http://purl.org/dc/dcmitype/StillImage" />
        <dc:title></dc:title>
      </cc:Work>
    </rdf:RDF>
  </metadata>
  <g
     id="layer1"
     inkscape:label="Layer 1"
     inkscape:groupmode="layer">
    <g
       transform="matrix(1.25,0,0,-1.25,39.249044,26.729839)"
       id="g13881">
      <path
         inkscape:connector-curvature="0"
         id="path13883"
         style="fill:#cfcccd;fill-opacity:1;fill-rule:nonzero;stroke:none"
         d="m 0,0 c 0,0 -3.065,-1.191 -6.634,-2.654 l -2.288,7.3 -7.498,-2.343 2.53,-8.076 c -0.748,-0.347 -1.419,-0.669 -1.977,-0.957 l -3.925,12.517 -1.094,3.495 18.62,4.286 c 0,0 2.891,-9.22 3.458,-11.038 C 1.764,0.712 0,0 0,0 m -21.533,-5.51 -3.182,10.159 3.217,0.745 3.919,-13.137 1.373,0.835 c -4.367,-2.341 -5.327,1.398 -5.327,1.398 M 2.429,1.851 -1.754,15.202 -23.096,10.677 -22.091,7.357 -27.1,6.034 c 0,0 2.335,-7.451 3.875,-12.364 1.538,-4.911 5.258,-2.58 5.258,-2.58 0,0 16.13,6.786 18.58,7.815 2.308,0.971 1.816,2.946 1.816,2.946" />
    </g>
    <g
       transform="matrix(1.25,0,0,-1.25,37.817164,18.427849)"
       id="g13885">
      <path
         inkscape:connector-curvature="0"
         id="path13887"
         style="fill:#cfcccd;fill-opacity:1;fill-rule:nonzero;stroke:none"
         d="M 0,0 -6.225,-1.976 -5.738,-3.531 0.453,-1.444 0,0 z" />
    </g>
    <g
       transform="matrix(1.25,0,0,-1.25,31.032424,24.077839)"
       id="g13889">
      <path
         inkscape:connector-curvature="0"
         id="path13891"
         style="fill:#cfcccd;fill-opacity:1;fill-rule:nonzero;stroke:none"
         d="M 0,0 0.487,-1.555 6.623,0.711 6.169,2.158 0,0 z" />
    </g>
    <g
       transform="matrix(1.25,0,0,-1.25,20.299414,15.399339)"
       id="g13893">
      <path
         inkscape:connector-curvature="0"
         id="path13895"
         style="fill:#cfcccd;fill-opacity:1;fill-rule:nonzero;stroke:none"
         d="m 0,0 0.39,-1.251 c 0.206,-0.65 0.407,-1.226 0.644,-1.778 L 1.02,-3.033 c -0.354,0.429 -0.776,0.899 -1.183,1.284 l -1.438,1.356 -1.219,-0.3 1.389,-4.431 0.949,0.281 -0.415,1.321 c -0.223,0.717 -0.432,1.33 -0.648,1.908 l 0.026,0.009 c 0.377,-0.458 0.857,-0.941 1.27,-1.335 L 1.218,-4.341 2.243,-4.037 0.907,0.227 0,0 z" />
    </g>
    <g
       transform="matrix(1.25,0,0,-1.25,25.015674,18.822099)"
       id="g13897">
      <path
         inkscape:connector-curvature="0"
         id="path13899"
         style="fill:#cfcccd;fill-opacity:1;fill-rule:nonzero;stroke:none"
         d="M 0,0 -0.311,0.991 1.187,1.402 0.949,2.162 -0.553,1.761 -0.825,2.63 0.77,3.039 0.531,3.8 -2.019,3.172 -0.696,-1.054 1.904,-0.286 1.664,0.475 0,0 z" />
    </g>
    <g
       transform="matrix(1.25,0,0,-1.25,29.944164,16.082219)"
       id="g13901">
      <path
         inkscape:connector-curvature="0"
         id="path13903"
         style="fill:#cfcccd;fill-opacity:1;fill-rule:nonzero;stroke:none"
         d="M 0,0 C -0.036,0.426 -0.095,0.82 -0.167,1.287 L -0.155,1.29 C 0.031,0.847 0.21,0.492 0.406,0.111 L 1.256,-1.508 2.149,-1.243 1.855,2.906 1.022,2.701 1.225,1.024 C 1.298,0.53 1.36,0.049 1.443,-0.405 L 1.433,-0.408 C 1.239,0.015 1.049,0.42 0.821,0.86 L 0.004,2.449 -0.904,2.224 -0.717,0.508 c 0.062,-0.526 0.125,-1.034 0.199,-1.489 l -0.011,-0.001 c -0.192,0.388 -0.435,0.885 -0.674,1.348 L -2.017,1.953 -2.972,1.716 -0.764,-2.103 0.183,-1.824 0,0 z" />
    </g>
    <g
       transform="matrix(1.25,0,0,-1.25,34.697044,14.845089)"
       id="g13905">
      <path
         inkscape:connector-curvature="0"
         id="path13907"
         style="fill:#cfcccd;fill-opacity:1;fill-rule:nonzero;stroke:none"
         d="m 0,0 c 0.459,-0.044 0.666,-0.134 0.74,-0.371 0.076,-0.248 -0.057,-0.464 -0.416,-0.566 -0.33,-0.095 -0.698,-0.07 -0.946,-0.009 l 0.065,-0.763 c 0.236,-0.062 0.665,-0.068 1.061,0.049 0.93,0.277 1.187,0.938 0.99,1.568 -0.165,0.531 -0.548,0.805 -1.224,0.889 -0.509,0.07 -0.733,0.126 -0.809,0.369 -0.061,0.194 0.05,0.413 0.388,0.498 0.33,0.084 0.61,0.041 0.766,0.001 L 0.572,2.392 C 0.335,2.448 0.033,2.463 -0.36,2.367 -1.177,2.167 -1.529,1.543 -1.326,0.883 -1.147,0.322 -0.65,0.072 0,0" />
    </g>
  </g>
</svg>
