<?xml version="1.0" encoding="UTF-8" standalone="no"?>
<!-- Created with Inkscape (http://www.inkscape.org/) -->

<svg
   xmlns:dc="http://purl.org/dc/elements/1.1/"
   xmlns:cc="http://creativecommons.org/ns#"
   xmlns:rdf="http://www.w3.org/1999/02/22-rdf-syntax-ns#"
   xmlns:svg="http://www.w3.org/2000/svg"
   xmlns="http://www.w3.org/2000/svg"
   xmlns:sodipodi="http://sodipodi.sourceforge.net/DTD/sodipodi-0.dtd"
   xmlns:inkscape="http://www.inkscape.org/namespaces/inkscape"
   version="1.1"
   width="48"
   height="48"
   id="svg28083"
   inkscape:version="0.48.4 r9939"
   sodipodi:docname="niveau-education.svg">
  <sodipodi:namedview
     pagecolor="#ffffff"
     bordercolor="#666666"
     borderopacity="1"
     objecttolerance="10"
     gridtolerance="10"
     guidetolerance="10"
     inkscape:pageopacity="0"
     inkscape:pageshadow="2"
     inkscape:window-width="1535"
     inkscape:window-height="876"
     id="namedview44"
     showgrid="false"
     inkscape:zoom="3.4766083"
     inkscape:cx="18.247899"
     inkscape:cy="17.521212"
     inkscape:window-x="65"
     inkscape:window-y="24"
     inkscape:window-maximized="1"
     inkscape:current-layer="svg28083" />
  <defs
     id="defs28085">
    <clipPath
       id="clipPath4901">
      <path
         d="m 315.748,1648.19 0.773,0 0,-0.63 -0.773,0 0,0.63 z"
         id="path4903" />
    </clipPath>
    <clipPath
       id="clipPath4905">
      <path
         d="m 315.759,1648.18 0.762,0 0,-0.62 -0.762,0 0,0.62 z"
         id="path4907" />
    </clipPath>
    <clipPath
       id="clipPath4909">
      <path
         d="m 315.748,1648.19 0.011,0 0,-0.01 -0.011,0 0,0.01 z"
         id="path4911" />
    </clipPath>
    <clipPath
       id="clipPath4857">
      <path
         d="m 327.146,1644.07 0.45,0 0,-0.02 -0.45,0 0,0.02 z"
         id="path4859" />
    </clipPath>
    <clipPath
       id="clipPath4861">
      <path
         d="m 327.146,1644.07 0.446,0 0,-0.02 -0.446,0 0,0.02 z"
         id="path4863" />
    </clipPath>
    <clipPath
       id="clipPath4865">
      <path
         d="m 327.592,1644.05 0.004,0 0,0 -0.004,0 z"
         id="path4867" />
    </clipPath>
  </defs>
  <metadata
     id="metadata28088">
    <rdf:RDF>
      <cc:Work
         rdf:about="">
        <dc:format>image/svg+xml</dc:format>
        <dc:type
           rdf:resource="http://purl.org/dc/dcmitype/StillImage" />
        <dc:title />
      </cc:Work>
    </rdf:RDF>
  </metadata>
  <g
     transform="matrix(0.77927019,0,0,-0.78648805,14.242413,35.381658)"
     id="g5273"
     style="color:#000000;fill:#cfcccd;fill-opacity:1;fill-rule:nonzero;stroke-width:1.27734998000000011;stroke-linecap:butt;stroke-linejoin:miter;stroke-miterlimit:4;stroke-opacity:1;stroke-dasharray:none;stroke-dashoffset:0;marker:none;visibility:visible;display:inline;overflow:visible;enable-background:accumulate;stroke:none">
    <path
       inkscape:connector-curvature="0"
       id="path5275"
       style="fill:#cfcccd;fill-opacity:1;fill-rule:nonzero;stroke:none;color:#000000;stroke-width:1.27734998000000011;stroke-linecap:butt;stroke-linejoin:miter;stroke-miterlimit:4;stroke-opacity:1;stroke-dasharray:none;stroke-dashoffset:0;marker:none;visibility:visible;display:inline;overflow:visible;enable-background:accumulate"
       d="m 0,0 c 0.668,-0.328 1.402,-0.513 2.176,-0.513 0.902,0 1.75,0.251 2.5,0.687 0.461,-0.479 1.513,-1.47 2.342,-1.709 0.035,-0.113 0.099,-0.444 0.046,-1.3 C 7.059,-2.938 7.053,-3.043 7.045,-3.153 6.303,-6.087 4.316,-10.093 4.316,-10.093 L 2.754,-4.851 3.73,-3.233 2.33,-1.881 2.209,-1.769 2.18,-1.787 2.154,-1.769 2.033,-1.881 0.551,-3.164 1.598,-4.851 0.035,-10.093 c 0,0 -2.812,5.668 -2.992,8.462 C -2.346,-1.515 -0.77,-1.133 0,0 m -2.201,5.577 c 0,1.21 0.392,2.318 1.041,3.176 2.558,0.953 5.492,-0.034 7.168,-0.8 0.347,-0.705 0.545,-1.514 0.545,-2.376 0,-2.714 -1.957,-4.913 -4.377,-4.913 -2.416,0 -4.377,2.199 -4.377,4.913 m 16.236,-17.838 0.008,0 C 12.313,-0.479 8.162,-0.563 7.371,-0.69 7.361,-0.689 7.355,-0.685 7.35,-0.682 6.404,-0.447 5.531,0.612 5.523,0.623 L 5.475,0.685 C 5.463,0.698 5.447,0.704 5.434,0.716 c 1.316,1.11 2.17,2.872 2.17,4.861 0,0.606 -0.083,1.191 -0.229,1.742 l 0.24,3.364 6.129,5.057 -17.318,1.486 -5.197,-5.185 1.912,-0.18 0.062,-0.986 C -6.844,10.837 -6.877,10.78 -6.875,10.717 L -8.102,2.854 c 0.004,-0.111 1.637,-0.774 1.747,-0.771 0.111,0.006 1.445,0.096 1.441,0.204 l -1.563,8.443 c -0.002,0.062 -0.033,0.114 -0.078,0.149 l -0.058,0.962 3.57,-0.334 0.389,-3.164 C -3.031,7.511 -3.25,6.572 -3.25,5.577 -3.25,3.456 -2.281,1.59 -0.816,0.499 -1.367,-0.458 -2.928,-0.67 -2.945,-0.672 l -0.067,-0.009 c -0.011,0 -0.017,-0.006 -0.025,-0.008 -0.836,0.127 -4.938,0.127 -6.654,-11.572 l 0.002,0 c -0.125,-1.451 1.255,-2.183 2.584,-2.183 l 18.543,0 c 1.333,0 2.728,0.607 2.597,2.183" />
  </g>
  <g
     transform="matrix(0.77927019,0,0,-0.78648805,30.989792,35.615863)"
     id="g5277"
     style="color:#000000;fill:#cfcccd;fill-opacity:1;fill-rule:nonzero;stroke-width:1.27734998000000011;stroke-linecap:butt;stroke-linejoin:miter;stroke-miterlimit:4;stroke-opacity:1;stroke-dasharray:none;stroke-dashoffset:0;marker:none;visibility:visible;display:inline;overflow:visible;enable-background:accumulate;stroke:none">
    <path
       inkscape:connector-curvature="0"
       id="path5279"
       style="fill:#cfcccd;fill-opacity:1;fill-rule:nonzero;stroke:none;color:#000000;stroke-width:1.27734998000000011;stroke-linecap:butt;stroke-linejoin:miter;stroke-miterlimit:4;stroke-opacity:1;stroke-dasharray:none;stroke-dashoffset:0;marker:none;visibility:visible;display:inline;overflow:visible;enable-background:accumulate"
       d="m 0,0 c 0.666,-0.327 1.4,-0.513 2.174,-0.513 0.902,0 1.75,0.25 2.498,0.688 0.463,-0.481 1.515,-1.472 2.344,-1.71 C 7.051,-1.648 7.115,-1.98 7.066,-2.836 7.055,-3.011 7.037,-3.201 7.02,-3.402 6.268,-6.334 4.305,-10.291 4.305,-10.291 l -4.28,0 c 0,0 -2.949,5.938 -3.004,8.656 C -2.379,-1.521 -0.781,-1.146 0,0 M 6.004,7.952 C 6.354,7.249 6.553,6.437 6.553,5.576 6.553,2.863 4.594,0.663 2.174,0.663 c -2.416,0 -4.377,2.2 -4.377,4.913 0,1.213 0.392,2.319 1.041,3.176 2.558,0.956 5.492,-0.034 7.166,-0.8 m 7.939,-19.879 0.002,0 c -0.007,0.051 -0.015,0.103 -0.023,0.156 -0.008,0.062 -0.014,0.122 -0.026,0.189 l -0.001,0.002 C 12.281,-1.102 8.777,-0.661 7.613,-0.822 7.535,-0.761 7.451,-0.708 7.35,-0.683 6.625,-0.503 5.947,0.158 5.662,0.465 l 2.561,0 c 0,0 1.98,5.493 -0.784,7.78 l 0.174,2.438 6.127,5.057 -17.316,1.485 -5.195,-5.184 1.908,-0.18 0.064,-0.987 c -0.047,-0.038 -0.08,-0.093 -0.076,-0.157 L -8.104,2.853 c 0.006,-0.11 1.637,-0.773 1.747,-0.77 0.111,0.005 1.447,0.096 1.441,0.202 l -1.561,8.447 c -0.003,0.06 -0.035,0.112 -0.082,0.146 l -0.058,0.963 3.574,-0.334 0.244,-1.998 C -3.725,8.216 -5.609,4.799 -3.58,0.465 l 2.74,0 C -1.408,-0.464 -2.932,-0.67 -2.947,-0.671 L -3.014,-0.68 c -0.074,-0.01 -0.14,-0.046 -0.189,-0.104 L -3.225,-0.81 c -1.101,0.255 -4.718,0.194 -6.332,-10.77 l -0.004,-0.002 c -0.361,-1.659 1.122,-2.494 2.538,-2.494 l 18.546,0 c 1.323,0 2.545,0.6 2.42,2.149" />
  </g>
  <g
     transform="matrix(1.1018612,0,0,1.1018612,14.672126,0.05657799)"
     id="g12898"
     style="fill:#cfcccd;color:#000000;fill-opacity:1;fill-rule:nonzero;stroke-width:0.90755532999999999;stroke-linecap:butt;stroke-linejoin:miter;stroke-miterlimit:4;stroke-opacity:1;stroke-dasharray:none;stroke-dashoffset:0;marker:none;visibility:visible;display:inline;overflow:visible;enable-background:accumulate;stroke:none">
    <g
       id="g12900"
       style="fill:#cfcccd;color:#000000;fill-opacity:1;fill-rule:nonzero;stroke-width:0.90755532999999999;stroke-linecap:butt;stroke-linejoin:miter;stroke-miterlimit:4;stroke-opacity:1;stroke-dasharray:none;stroke-dashoffset:0;marker:none;visibility:visible;display:inline;overflow:visible;enable-background:accumulate;stroke:none">
      <path
         inkscape:connector-curvature="0"
         style="fill:#cfcccd;color:#000000;fill-opacity:1;fill-rule:nonzero;stroke-width:0.90755532999999999;stroke-linecap:butt;stroke-linejoin:miter;stroke-miterlimit:4;stroke-opacity:1;stroke-dasharray:none;stroke-dashoffset:0;marker:none;visibility:visible;display:inline;overflow:visible;enable-background:accumulate;stroke:none"
         d="M 2.245,10.496 H 0.272 C 0.122,10.496 0,10.62 0,10.77 v 5.717 c 0,0.15 0.122,0.272 0.272,0.272 h 1.973 c 0.15,0 0.272,-0.122 0.272,-0.272 V 10.77 C 2.518,10.62 2.396,10.496 2.245,10.496 z"
         id="path12902" />
      <path
         inkscape:connector-curvature="0"
         style="fill:#cfcccd;color:#000000;fill-opacity:1;fill-rule:nonzero;stroke-width:0.90755532999999999;stroke-linecap:butt;stroke-linejoin:miter;stroke-miterlimit:4;stroke-opacity:1;stroke-dasharray:none;stroke-dashoffset:0;marker:none;visibility:visible;display:inline;overflow:visible;enable-background:accumulate;stroke:none"
         d="m 18.504,10.496 h -1.973 c -0.15,0 -0.271,0.124 -0.271,0.274 v 5.717 c 0,0.15 0.121,0.272 0.271,0.272 h 1.973 c 0.152,0 0.273,-0.122 0.273,-0.272 V 10.77 c 0,-0.15 -0.121,-0.274 -0.273,-0.274 z"
         id="path12904" />
      <path
         inkscape:connector-curvature="0"
         style="fill:#cfcccd;color:#000000;fill-opacity:1;fill-rule:nonzero;stroke-width:0.90755532999999999;stroke-linecap:butt;stroke-linejoin:miter;stroke-miterlimit:4;stroke-opacity:1;stroke-dasharray:none;stroke-dashoffset:0;marker:none;visibility:visible;display:inline;overflow:visible;enable-background:accumulate;stroke:none"
         d="M 5.907,7.228 H 3.934 c -0.15,0 -0.273,0.122 -0.273,0.273 v 8.984 c 0,0.15 0.123,0.272 0.273,0.272 h 1.973 c 0.151,0 0.273,-0.122 0.273,-0.272 V 7.501 C 6.18,7.349 6.058,7.228 5.907,7.228 z"
         id="path12906" />
      <path
         inkscape:connector-curvature="0"
         style="fill:#cfcccd;color:#000000;fill-opacity:1;fill-rule:nonzero;stroke-width:0.90755532999999999;stroke-linecap:butt;stroke-linejoin:miter;stroke-miterlimit:4;stroke-opacity:1;stroke-dasharray:none;stroke-dashoffset:0;marker:none;visibility:visible;display:inline;overflow:visible;enable-background:accumulate;stroke:none"
         d="m 14.271,7.228 h -1.973 c -0.15,0 -0.271,0.122 -0.271,0.273 v 8.984 c 0,0.15 0.121,0.272 0.271,0.272 h 1.973 c 0.152,0 0.273,-0.122 0.273,-0.272 V 7.501 C 14.545,7.349 14.424,7.228 14.271,7.228 z"
         id="path12908" />
      <path
         inkscape:connector-curvature="0"
         style="fill:#cfcccd;color:#000000;fill-opacity:1;fill-rule:nonzero;stroke-width:0.90755532999999999;stroke-linecap:butt;stroke-linejoin:miter;stroke-miterlimit:4;stroke-opacity:1;stroke-dasharray:none;stroke-dashoffset:0;marker:none;visibility:visible;display:inline;overflow:visible;enable-background:accumulate;stroke:none"
         d="M 10.01,9.218 H 8.036 c -0.15,0 -0.272,0.123 -0.272,0.272 v 6.994 c 0,0.15 0.122,0.272 0.272,0.272 h 1.974 c 0.152,0 0.273,-0.122 0.273,-0.272 V 9.49 c 0,-0.149 -0.121,-0.272 -0.273,-0.272 z"
         id="path12910" />
      <path
         inkscape:connector-curvature="0"
         style="fill:#cfcccd;color:#000000;fill-opacity:1;fill-rule:nonzero;stroke-width:0.90755532999999999;stroke-linecap:butt;stroke-linejoin:miter;stroke-miterlimit:4;stroke-opacity:1;stroke-dasharray:none;stroke-dashoffset:0;marker:none;visibility:visible;display:inline;overflow:visible;enable-background:accumulate;stroke:none"
         d="M 1.259,6.947 C 1.84,6.947 2.31,6.477 2.31,5.896 2.31,5.795 2.291,5.7 2.264,5.608 L 4.475,4.017 c 0.136,0.064 0.286,0.102 0.446,0.102 0.309,0 0.583,-0.135 0.776,-0.347 L 7.784,4.98 c -0.012,0.062 -0.02,0.126 -0.02,0.19 0,0.58 0.471,1.051 1.051,1.051 0.559,0 1.012,-0.438 1.044,-0.989 l 2.814,-0.823 c 0.191,0.262 0.498,0.435 0.848,0.435 0.232,0 0.443,-0.077 0.617,-0.205 l 2.365,1.604 c -0.02,0.083 -0.037,0.17 -0.037,0.26 0,0.581 0.471,1.052 1.051,1.052 0.58,0 1.053,-0.471 1.053,-1.052 0,-0.581 -0.473,-1.051 -1.053,-1.051 -0.232,0 -0.443,0.077 -0.617,0.204 L 14.537,4.055 c 0.02,-0.084 0.035,-0.17 0.035,-0.26 0,-0.581 -0.469,-1.051 -1.051,-1.051 -0.559,0 -1.012,0.438 -1.045,0.989 L 9.663,4.555 C 9.472,4.292 9.164,4.12 8.815,4.12 8.556,4.12 8.323,4.216 8.14,4.371 L 5.968,3.112 c 0,-0.015 0.004,-0.028 0.004,-0.042 0,-0.581 -0.47,-1.052 -1.051,-1.052 -0.581,0 -1.051,0.47 -1.051,1.051 0,0.158 0.038,0.306 0.1,0.441 L 1.855,5.032 C 1.686,4.914 1.481,4.845 1.259,4.845 c -0.581,0 -1.051,0.471 -1.051,1.051 0,0.581 0.47,1.051 1.051,1.051 z"
         id="path12912" />
    </g>
  </g>
</svg>
