<?xml version="1.0" encoding="UTF-8" standalone="no"?>
<!-- Created with Inkscape (http://www.inkscape.org/) -->

<svg
   xmlns:dc="http://purl.org/dc/elements/1.1/"
   xmlns:cc="http://creativecommons.org/ns#"
   xmlns:rdf="http://www.w3.org/1999/02/22-rdf-syntax-ns#"
   xmlns:svg="http://www.w3.org/2000/svg"
   xmlns="http://www.w3.org/2000/svg"
   xmlns:sodipodi="http://sodipodi.sourceforge.net/DTD/sodipodi-0.dtd"
   xmlns:inkscape="http://www.inkscape.org/namespaces/inkscape"
   width="48px"
   height="48px"
   id="svg3210"
   version="1.1"
   inkscape:version="0.48.4 r9939"
   sodipodi:docname="pansement.svg">
  <defs
     id="defs3212" />
  <sodipodi:namedview
     id="base"
     pagecolor="#ffffff"
     bordercolor="#666666"
     borderopacity="1.0"
     inkscape:pageopacity="0.0"
     inkscape:pageshadow="2"
     inkscape:zoom="7"
     inkscape:cx="24"
     inkscape:cy="24"
     inkscape:current-layer="layer1"
     showgrid="true"
     inkscape:grid-bbox="true"
     inkscape:document-units="px"
     inkscape:window-width="605"
     inkscape:window-height="601"
     inkscape:window-x="1315"
     inkscape:window-y="451"
     inkscape:window-maximized="0" />
  <metadata
     id="metadata3215">
    <rdf:RDF>
      <cc:Work
         rdf:about="">
        <dc:format>image/svg+xml</dc:format>
        <dc:type
           rdf:resource="http://purl.org/dc/dcmitype/StillImage" />
        <dc:title />
      </cc:Work>
    </rdf:RDF>
  </metadata>
  <g
     id="layer1"
     inkscape:label="Layer 1"
     inkscape:groupmode="layer">
    <g
       id="g3008">
      <g
         style="fill:#cfcccd"
         transform="matrix(1.1464232,0,0,-1.1464232,8.4985326,26.970995)"
         id="g10990">
        <path
           inkscape:connector-curvature="0"
           id="path10992"
           style="fill:#cfcccd;fill-opacity:1;fill-rule:nonzero;stroke:none"
           d="M 0,0 C -1.246,-0.73 -1.666,-2.338 -0.937,-3.582 L 1.139,-7.13 c 0.73,-1.246 2.338,-1.665 3.582,-0.935 L 27.293,5.149 c 1.246,0.728 1.666,2.336 0.936,3.581 l -2.077,3.547 c -0.726,1.245 -2.336,1.665 -3.582,0.936 L 0,0 z M 28.107,3.759 5.535,-9.455 c -2.014,-1.179 -4.609,-0.5 -5.785,1.512 l -2.076,3.546 c -1.178,2.012 -0.5,4.608 1.512,5.787 l 22.572,13.214 c 2.012,1.177 4.607,0.499 5.785,-1.513 l 2.074,-3.547 c 1.18,-2.012 0.502,-4.607 -1.51,-5.785" />
      </g>
      <g
         style="fill:#cfcccd"
         transform="matrix(1.1464232,0,0,-1.1464232,31.21422,25.182024)"
         id="g10994">
        <path
           inkscape:connector-curvature="0"
           id="path10996"
           style="fill:#cfcccd;fill-opacity:1;fill-rule:nonzero;stroke:none"
           d="M 0,0 1.285,0.753 -2.611,7.406 -3.895,6.654 0,0 z" />
      </g>
      <g
         style="fill:#cfcccd"
         transform="matrix(1.1464232,0,0,-1.1464232,34.371378,22.012393)"
         id="g10998">
        <path
           inkscape:connector-curvature="0"
           id="path11000"
           style="fill:#cfcccd;fill-opacity:1;fill-rule:nonzero;stroke:none"
           d="M 0,0 C 0.137,-0.234 0.437,-0.314 0.674,-0.176 0.906,-0.039 0.986,0.262 0.85,0.496 0.713,0.731 0.41,0.81 0.176,0.673 -0.059,0.535 -0.137,0.233 0,0" />
      </g>
      <g
         style="fill:#cfcccd"
         transform="matrix(1.1464232,0,0,-1.1464232,32.709982,19.180086)"
         id="g11002">
        <path
           inkscape:connector-curvature="0"
           id="path11004"
           style="fill:#cfcccd;fill-opacity:1;fill-rule:nonzero;stroke:none"
           d="M 0,0 C 0.139,-0.232 0.439,-0.312 0.672,-0.175 0.908,-0.037 0.986,0.264 0.85,0.498 0.713,0.733 0.412,0.812 0.176,0.676 -0.057,0.537 -0.137,0.236 0,0" />
      </g>
      <g
         style="fill:#cfcccd"
         transform="matrix(1.1464232,0,0,-1.1464232,36.733652,18.625859)"
         id="g11006">
        <path
           inkscape:connector-curvature="0"
           id="path11008"
           style="fill:#cfcccd;fill-opacity:1;fill-rule:nonzero;stroke:none"
           d="M 0,0 C 0.139,-0.233 0.439,-0.313 0.672,-0.175 0.908,-0.038 0.986,0.263 0.85,0.497 0.711,0.731 0.41,0.812 0.176,0.674 -0.059,0.536 -0.137,0.234 0,0" />
      </g>
      <g
         style="fill:#cfcccd"
         transform="matrix(1.1464232,0,0,-1.1464232,35.307227,16.189664)"
         id="g11010">
        <path
           inkscape:connector-curvature="0"
           id="path11012"
           style="fill:#cfcccd;fill-opacity:1;fill-rule:nonzero;stroke:none"
           d="M 0,0 C 0.137,-0.234 0.437,-0.312 0.672,-0.175 0.906,-0.038 0.986,0.263 0.848,0.499 0.711,0.732 0.41,0.812 0.176,0.674 -0.059,0.536 -0.137,0.236 0,0" />
      </g>
      <g
         style="fill:#cfcccd"
         transform="matrix(1.1464232,0,0,-1.1464232,31.285849,16.742882)"
         id="g11014">
        <path
           inkscape:connector-curvature="0"
           id="path11016"
           style="fill:#cfcccd;fill-opacity:1;fill-rule:nonzero;stroke:none"
           d="M 0,0 C 0.137,-0.233 0.437,-0.312 0.672,-0.175 0.906,-0.038 0.984,0.265 0.848,0.498 0.711,0.731 0.408,0.812 0.176,0.674 -0.061,0.536 -0.139,0.235 0,0" />
      </g>
      <g
         style="fill:#cfcccd"
         transform="matrix(1.1464232,0,0,-1.1464232,21.236762,31.022638)"
         id="g11018">
        <path
           inkscape:connector-curvature="0"
           id="path11020"
           style="fill:#cfcccd;fill-opacity:1;fill-rule:nonzero;stroke:none"
           d="M 0,0 -1.285,-0.754 -5.18,5.9 -3.896,6.653 0,0 z" />
      </g>
      <g
         style="fill:#cfcccd"
         transform="matrix(1.1464232,0,0,-1.1464232,16.928778,32.226199)"
         id="g11022">
        <path
           inkscape:connector-curvature="0"
           id="path11024"
           style="fill:#cfcccd;fill-opacity:1;fill-rule:nonzero;stroke:none"
           d="M 0,0 C 0.137,-0.234 0.059,-0.534 -0.176,-0.673 -0.412,-0.81 -0.713,-0.731 -0.85,-0.497 -0.986,-0.263 -0.908,0.039 -0.674,0.177 -0.437,0.313 -0.139,0.235 0,0" />
      </g>
      <g
         style="fill:#cfcccd"
         transform="matrix(1.1464232,0,0,-1.1464232,15.267382,29.390406)"
         id="g11026">
        <path
           inkscape:connector-curvature="0"
           id="path11028"
           style="fill:#cfcccd;fill-opacity:1;fill-rule:nonzero;stroke:none"
           d="M 0,0 C 0.139,-0.236 0.059,-0.536 -0.174,-0.674 -0.41,-0.812 -0.711,-0.732 -0.848,-0.496 -0.986,-0.263 -0.906,0.037 -0.672,0.177 -0.437,0.313 -0.137,0.235 0,0" />
      </g>
      <g
         style="fill:#cfcccd"
         transform="matrix(1.1464232,0,0,-1.1464232,12.817705,32.626989)"
         id="g11030">
        <path
           inkscape:connector-curvature="0"
           id="path11032"
           style="fill:#cfcccd;fill-opacity:1;fill-rule:nonzero;stroke:none"
           d="M 0,0 C 0.137,-0.234 0.059,-0.536 -0.176,-0.673 -0.41,-0.811 -0.713,-0.732 -0.85,-0.497 -0.986,-0.263 -0.908,0.04 -0.674,0.177 -0.439,0.313 -0.137,0.234 0,0" />
      </g>
      <g
         style="fill:#cfcccd"
         transform="matrix(1.1464232,0,0,-1.1464232,11.391371,30.190885)"
         id="g11034">
        <path
           inkscape:connector-curvature="0"
           id="path11036"
           style="fill:#cfcccd;fill-opacity:1;fill-rule:nonzero;stroke:none"
           d="M 0,0 C 0.137,-0.233 0.059,-0.536 -0.176,-0.673 -0.41,-0.81 -0.713,-0.731 -0.85,-0.496 -0.986,-0.263 -0.908,0.038 -0.674,0.176 -0.437,0.313 -0.137,0.235 0,0" />
      </g>
      <g
         style="fill:#cfcccd"
         transform="matrix(1.1464232,0,0,-1.1464232,13.84325,26.954303)"
         id="g11038">
        <path
           inkscape:connector-curvature="0"
           id="path11040"
           style="fill:#cfcccd;fill-opacity:1;fill-rule:nonzero;stroke:none"
           d="M 0,0 C 0.137,-0.233 0.057,-0.536 -0.176,-0.673 -0.412,-0.81 -0.713,-0.73 -0.852,-0.497 -0.988,-0.262 -0.91,0.04 -0.674,0.176 -0.439,0.313 -0.139,0.234 0,0" />
      </g>
    </g>
  </g>
</svg>
