<?xml version="1.0" encoding="UTF-8" standalone="no"?>
<!-- Created with Inkscape (http://www.inkscape.org/) -->

<svg
   xmlns:dc="http://purl.org/dc/elements/1.1/"
   xmlns:cc="http://creativecommons.org/ns#"
   xmlns:rdf="http://www.w3.org/1999/02/22-rdf-syntax-ns#"
   xmlns:svg="http://www.w3.org/2000/svg"
   xmlns="http://www.w3.org/2000/svg"
   xmlns:sodipodi="http://sodipodi.sourceforge.net/DTD/sodipodi-0.dtd"
   xmlns:inkscape="http://www.inkscape.org/namespaces/inkscape"
   width="48px"
   height="48px"
   id="svg3210"
   version="1.1"
   inkscape:version="0.48.4 r9943 custom"
   sodipodi:docname="coffre-fort.svg">
  <defs
     id="defs3212" />
  <sodipodi:namedview
     id="base"
     pagecolor="#ffffff"
     bordercolor="#666666"
     borderopacity="1.0"
     inkscape:pageopacity="0.0"
     inkscape:pageshadow="2"
     inkscape:zoom="7"
     inkscape:cx="24"
     inkscape:cy="24"
     inkscape:current-layer="layer1"
     showgrid="true"
     inkscape:grid-bbox="true"
     inkscape:document-units="px"
     inkscape:window-width="605"
     inkscape:window-height="601"
     inkscape:window-x="2595"
     inkscape:window-y="1104"
     inkscape:window-maximized="0" />
  <metadata
     id="metadata3215">
    <rdf:RDF>
      <cc:Work
         rdf:about="">
        <dc:format>image/svg+xml</dc:format>
        <dc:type
           rdf:resource="http://purl.org/dc/dcmitype/StillImage" />
        <dc:title></dc:title>
      </cc:Work>
    </rdf:RDF>
  </metadata>
  <g
     id="layer1"
     inkscape:label="Layer 1"
     inkscape:groupmode="layer">
    <g
       id="g4908"
       transform="matrix(1.25,0,0,-1.25,23.316241,6.6403172)">
      <path
         d="m 0,0 c -8.168,-0.05 -14.75,-6.712 -14.701,-14.881 l 0,-0.003 0.004,0 c 0.023,1.774 1.691,3.215 3.756,3.227 1.781,0.011 3.277,-1.044 3.685,-2.476 0.389,1.434 1.873,2.51 3.656,2.521 1.385,0.009 2.588,-0.632 3.252,-1.587 l 0.051,-13.767 c 0,0 -0.267,-1.737 1.746,-1.724 2.014,0.012 1.588,1.606 1.588,1.606 0,0 0.065,0.694 -0.699,0.689 0,0 -0.488,-0.011 -0.483,-0.798 0,0 0.145,-0.754 -0.642,-0.713 -0.572,0.03 -0.662,0.346 -0.662,0.831 -0.002,0.239 -0.03,9.84 -0.053,13.864 0.648,0.974 1.85,1.635 3.242,1.644 1.783,0.01 3.28,-1.046 3.686,-2.475 0.39,1.435 1.875,2.509 3.656,2.521 2.064,0.011 3.75,-1.407 3.795,-3.182 l 0.004,0 0,0.004 C 14.83,-6.529 8.168,0.051 0,0"
         style="fill:#cfcccd;fill-opacity:1;fill-rule:nonzero;stroke:none"
         id="path4910"
         inkscape:connector-curvature="0" />
    </g>
    <g
       id="g4912"
       transform="matrix(1.25,0,0,-1.25,33.123341,36.573217)">
      <path
         d="m 0,0 c -1.939,0 -3.512,1.554 -3.512,3.467 0,1.915 1.573,3.467 3.512,3.467 1.941,0 3.514,-1.552 3.514,-3.467 C 3.514,1.554 1.941,0 0,0 m 0,7.871 c -2.465,0 -4.463,-1.972 -4.463,-4.404 0,-2.432 1.998,-4.404 4.463,-4.404 2.467,0 4.465,1.972 4.465,4.404 0,2.432 -1.998,4.404 -4.465,4.404"
         style="fill:#cfcccd;fill-opacity:1;fill-rule:nonzero;stroke:none"
         id="path4914"
         inkscape:connector-curvature="0" />
    </g>
    <g
       id="g4916"
       transform="matrix(1.25,0,0,-1.25,34.011941,34.036617)">
      <path
         d="m 0,0 c -0.135,-0.149 -0.303,-0.237 -0.506,-0.262 l 0,1.578 C -0.225,1.226 -0.037,1.124 0.059,1.01 0.152,0.896 0.199,0.744 0.199,0.557 0.199,0.335 0.133,0.149 0,0 m -0.816,1.888 c -0.241,0.07 -0.411,0.166 -0.51,0.285 -0.1,0.118 -0.151,0.265 -0.151,0.442 0,0.179 0.059,0.334 0.178,0.464 0.115,0.132 0.278,0.212 0.483,0.242 l 0,-1.433 z M 0.418,1.409 C 0.314,1.51 0.182,1.598 0.018,1.668 -0.068,1.705 -0.242,1.756 -0.506,1.821 l 0,1.496 c 0.17,-0.036 0.305,-0.107 0.402,-0.214 0.1,-0.11 0.165,-0.267 0.196,-0.469 l 0.543,0.08 C 0.588,3.042 0.449,3.301 0.219,3.489 0.041,3.638 -0.203,3.725 -0.506,3.754 l 0,0.247 -0.31,0 0,-0.247 C -1.166,3.719 -1.428,3.625 -1.605,3.472 -1.869,3.243 -2.002,2.944 -2.002,2.575 c 0,-0.207 0.045,-0.392 0.137,-0.555 0.088,-0.164 0.219,-0.291 0.385,-0.383 0.226,-0.125 0.447,-0.208 0.664,-0.248 l 0,-1.651 C -1.023,-0.241 -1.201,-0.139 -1.35,0.046 -1.451,0.177 -1.523,0.381 -1.564,0.66 L -2.092,0.562 c 0.02,-0.27 0.09,-0.497 0.207,-0.682 0.119,-0.187 0.264,-0.322 0.428,-0.405 0.164,-0.083 0.377,-0.143 0.641,-0.175 l 0,-0.52 0.31,0 0,0.526 c 0.367,0.017 0.666,0.145 0.899,0.385 0.23,0.241 0.347,0.54 0.347,0.9 0,0.163 -0.027,0.313 -0.084,0.455 -0.054,0.14 -0.135,0.262 -0.238,0.363"
         style="fill:#cfcccd;fill-opacity:1;fill-rule:nonzero;stroke:none"
         id="path4918"
         inkscape:connector-curvature="0" />
    </g>
    <g
       id="g4920"
       transform="matrix(1.25,0,0,-1.25,13.448041,37.384917)">
      <path
         d="m 0,0 c -2.318,0 -4.197,1.854 -4.197,4.143 0,2.285 1.879,4.14 4.197,4.14 2.318,0 4.197,-1.855 4.197,-4.14 C 4.197,1.854 2.318,0 0,0 m 0,9.402 c -2.943,0 -5.332,-2.356 -5.332,-5.259 0,-2.908 2.389,-5.262 5.332,-5.262 2.943,0 5.332,2.354 5.332,5.262 0,2.903 -2.389,5.259 -5.332,5.259"
         style="fill:#cfcccd;fill-opacity:1;fill-rule:nonzero;stroke:none"
         id="path4922"
         inkscape:connector-curvature="0" />
    </g>
    <g
       id="g4924"
       transform="matrix(1.25,0,0,-1.25,14.507541,34.355117)">
      <path
         d="m 0,0 c -0.16,-0.18 -0.361,-0.283 -0.605,-0.313 l 0,1.885 C -0.268,1.465 -0.045,1.342 0.068,1.206 0.182,1.07 0.238,0.889 0.238,0.664 0.238,0.399 0.16,0.18 0,0 m -0.975,2.254 c -0.287,0.084 -0.49,0.198 -0.609,0.341 -0.119,0.141 -0.18,0.318 -0.18,0.529 0,0.214 0.071,0.398 0.213,0.554 0.139,0.155 0.332,0.253 0.576,0.289 l 0,-1.713 z M 0.5,1.682 C 0.377,1.803 0.219,1.907 0.021,1.992 -0.08,2.036 -0.289,2.097 -0.605,2.175 l 0,1.786 C -0.402,3.919 -0.24,3.833 -0.121,3.705 -0.004,3.574 0.072,3.388 0.109,3.145 L 0.758,3.241 C 0.703,3.635 0.539,3.941 0.264,4.167 0.049,4.344 -0.24,4.448 -0.605,4.483 l 0,0.296 -0.37,0 0,-0.296 C -1.391,4.442 -1.705,4.33 -1.916,4.146 -2.232,3.874 -2.391,3.518 -2.391,3.076 c 0,-0.248 0.055,-0.469 0.162,-0.664 0.108,-0.195 0.262,-0.349 0.463,-0.457 0.27,-0.149 0.534,-0.249 0.791,-0.297 l 0,-1.971 c -0.246,0.025 -0.459,0.148 -0.636,0.367 -0.121,0.157 -0.207,0.401 -0.258,0.733 L -2.498,0.67 c 0.021,-0.32 0.105,-0.593 0.248,-0.815 0.143,-0.221 0.313,-0.383 0.51,-0.484 0.195,-0.1 0.451,-0.169 0.765,-0.208 l 0,-0.62 0.37,0 0,0.627 c 0.439,0.02 0.798,0.175 1.074,0.462 0.277,0.287 0.414,0.643 0.414,1.073 0,0.194 -0.033,0.376 -0.098,0.544 C 0.719,1.416 0.623,1.562 0.5,1.682"
         style="fill:#cfcccd;fill-opacity:1;fill-rule:nonzero;stroke:none"
         id="path4926"
         inkscape:connector-curvature="0" />
    </g>
  </g>
</svg>
