<?xml version="1.0" encoding="UTF-8" standalone="no"?>
<!-- Created with Inkscape (http://www.inkscape.org/) -->

<svg
   xmlns:dc="http://purl.org/dc/elements/1.1/"
   xmlns:cc="http://creativecommons.org/ns#"
   xmlns:rdf="http://www.w3.org/1999/02/22-rdf-syntax-ns#"
   xmlns:svg="http://www.w3.org/2000/svg"
   xmlns="http://www.w3.org/2000/svg"
   xmlns:sodipodi="http://sodipodi.sourceforge.net/DTD/sodipodi-0.dtd"
   xmlns:inkscape="http://www.inkscape.org/namespaces/inkscape"
   width="48px"
   height="48px"
   id="svg3210"
   version="1.1"
   inkscape:version="0.48.4 r9939"
   sodipodi:docname="parking-payant.svg">
  <defs
     id="defs3212" />
  <sodipodi:namedview
     id="base"
     pagecolor="#ffffff"
     bordercolor="#666666"
     borderopacity="1.0"
     inkscape:pageopacity="0.0"
     inkscape:pageshadow="2"
     inkscape:zoom="7"
     inkscape:cx="24"
     inkscape:cy="24"
     inkscape:current-layer="layer1"
     showgrid="true"
     inkscape:grid-bbox="true"
     inkscape:document-units="px"
     inkscape:window-width="605"
     inkscape:window-height="601"
     inkscape:window-x="1315"
     inkscape:window-y="451"
     inkscape:window-maximized="0" />
  <metadata
     id="metadata3215">
    <rdf:RDF>
      <cc:Work
         rdf:about="">
        <dc:format>image/svg+xml</dc:format>
        <dc:type
           rdf:resource="http://purl.org/dc/dcmitype/StillImage" />
        <dc:title />
      </cc:Work>
    </rdf:RDF>
  </metadata>
  <g
     id="layer1"
     inkscape:label="Layer 1"
     inkscape:groupmode="layer">
    <g
       id="g3005">
      <g
         style="fill:#cfcccd"
         transform="matrix(1.0361476,0,0,-1.0361476,19.98643,25.750993)"
         id="g16454">
        <path
           inkscape:connector-curvature="0"
           id="path16456"
           style="fill:#cfcccd;fill-opacity:1;fill-rule:nonzero;stroke:none"
           d="m 0,0 c 0.998,0 1.809,-0.811 1.809,-1.812 0,-1.001 -0.811,-1.809 -1.809,-1.809 -1.002,0 -1.812,0.808 -1.812,1.809 C -1.812,-0.811 -1.002,0 0,0 M 0.223,3.729 1.805,7.604 C 1.877,7.932 2.459,8.027 2.459,8.027 7.59,8.843 14.451,8.074 14.451,8.074 15.301,8.023 15.498,7.582 15.498,7.582 L 17.125,3.635 C 17.344,3.169 16.639,3.354 16.639,3.354 11.604,3.916 0.443,3.473 0.443,3.473 0.051,3.447 0.223,3.729 0.223,3.729 M 18.479,0 c 0.998,0 1.81,-0.811 1.81,-1.812 0,-1.001 -0.812,-1.809 -1.81,-1.809 -1.002,0 -1.813,0.808 -1.813,1.809 0,1.001 0.811,1.812 1.813,1.812 m -3.333,-2.563 c 0,-0.414 -0.333,-0.744 -0.746,-0.744 l -10.113,0 c -0.41,0 -0.744,0.33 -0.744,0.744 l 0,1.765 c 0,0.412 0.334,0.747 0.744,0.747 l 10.113,0 c 0.413,0 0.746,-0.335 0.746,-0.747 l 0,-1.765 z m -18.798,-2.23 25.207,0 0.48,4.969 c 0,0 -0.039,0.523 -0.074,0.617 -0.693,1.801 -3.746,2.408 -3.746,2.408 L 16.406,7.769 C 16.037,8.609 15.381,8.713 15.381,8.713 9.896,9.815 1.969,8.924 1.969,8.924 1.049,8.768 0.893,8.189 0.893,8.189 L -0.945,3.281 C -3.088,2.279 -3.453,1.399 -3.607,1.057 -3.668,0.922 -3.74,0.64 -3.779,0.464 c -0.264,-1.232 0.09,-4.942 0.127,-5.257" />
      </g>
      <g
         style="fill:#cfcccd"
         transform="matrix(1.0361476,0,0,-1.0361476,17.102624,31.376943)"
         id="g16458">
        <path
           inkscape:connector-curvature="0"
           id="path16460"
           style="fill:#cfcccd;fill-opacity:1;fill-rule:nonzero;stroke:none"
           d="m 0,0 c 0.107,-0.181 0.27,-0.415 0.631,-0.84 0.68,-0.814 3.961,-0.892 3.961,-0.892 l 14.752,0 c 3.34,-0.381 4.185,1.401 4.312,1.732 L 0,0 z" />
      </g>
      <g
         style="fill:#cfcccd"
         transform="matrix(1.0361476,0,0,-1.0361476,40.952173,35.446599)"
         id="g16462">
        <path
           inkscape:connector-curvature="0"
           id="path16464"
           style="fill:#cfcccd;fill-opacity:1;fill-rule:nonzero;stroke:none"
           d="m 0,0 c 0,-0.412 -0.332,-0.744 -0.74,-0.744 l -1.451,0 c -0.413,0 -0.747,0.332 -0.747,0.744 l 0,3.08 c 0,0.41 0.334,0.744 0.747,0.744 l 1.451,0 C -0.332,3.824 0,3.49 0,3.08 L 0,0 z" />
      </g>
      <g
         style="fill:#cfcccd"
         transform="matrix(1.0361476,0,0,-1.0361476,20.773571,35.446599)"
         id="g16466">
        <path
           inkscape:connector-curvature="0"
           id="path16468"
           style="fill:#cfcccd;fill-opacity:1;fill-rule:nonzero;stroke:none"
           d="m 0,0 c 0,-0.412 -0.332,-0.744 -0.744,-0.744 l -1.455,0 c -0.408,0 -0.74,0.332 -0.74,0.744 l 0,3.08 c 0,0.41 0.332,0.744 0.74,0.744 l 1.455,0 C -0.332,3.824 0,3.49 0,3.08 L 0,0 z" />
      </g>
      <path
         inkscape:connector-curvature="0"
         id="path16470"
         style="fill:#cfcccd;fill-opacity:1;fill-rule:nonzero;stroke:none"
         d="m 8.7522697,35.151371 -6.0707483,0 0,-10.223626 6.0707483,0 0,10.223626 z" />
      <g
         style="fill:#cfcccd"
         transform="matrix(1.0361476,0,0,-1.0361476,18.290546,22.904572)"
         id="g16472">
        <path
           inkscape:connector-curvature="0"
           id="path16474"
           style="fill:#cfcccd;fill-opacity:1;fill-rule:nonzero;stroke:none"
           d="M 0,0 -10.07,-2.368 -10.627,0 -0.559,2.373 0,0 z" />
      </g>
      <g
         style="fill:#cfcccd"
         transform="matrix(1.0361476,0,0,-1.0361476,22.736698,21.854332)"
         id="g16476">
        <path
           inkscape:connector-curvature="0"
           id="path16478"
           style="fill:#cfcccd;fill-opacity:1;fill-rule:nonzero;stroke:none"
           d="M 0,0 -2.516,-0.592 -3.072,1.777 -0.555,2.37 0,0 z" />
      </g>
      <g
         style="fill:#cfcccd"
         transform="matrix(1.0361476,0,0,-1.0361476,27.263668,20.786769)"
         id="g16480">
        <path
           inkscape:connector-curvature="0"
           id="path16482"
           style="fill:#cfcccd;fill-opacity:1;fill-rule:nonzero;stroke:none"
           d="M 0,0 -2.518,-0.594 -3.074,1.777 -0.559,2.368 0,0 z" />
      </g>
      <g
         style="fill:#cfcccd"
         transform="matrix(1.0361476,0,0,-1.0361476,31.788815,19.721277)"
         id="g16484">
        <path
           inkscape:connector-curvature="0"
           id="path16486"
           style="fill:#cfcccd;fill-opacity:1;fill-rule:nonzero;stroke:none"
           d="M 0,0 -2.516,-0.592 -3.074,1.774 -0.559,2.369 0,0 z" />
      </g>
      <g
         style="fill:#cfcccd"
         transform="matrix(1.0361476,0,0,-1.0361476,36.315785,18.653797)"
         id="g16488">
        <path
           inkscape:connector-curvature="0"
           id="path16490"
           style="fill:#cfcccd;fill-opacity:1;fill-rule:nonzero;stroke:none"
           d="M 0,0 -2.518,-0.593 -3.074,1.774 -0.561,2.367 0,0 z" />
      </g>
      <g
         style="fill:#cfcccd"
         transform="matrix(1.0361476,0,0,-1.0361476,40.838859,17.587227)"
         id="g16492">
        <path
           inkscape:connector-curvature="0"
           id="path16494"
           style="fill:#cfcccd;fill-opacity:1;fill-rule:nonzero;stroke:none"
           d="M 0,0 -2.516,-0.596 -3.074,1.775 -0.557,2.367 0,0 z" />
      </g>
      <g
         style="fill:#cfcccd"
         transform="matrix(1.0361476,0,0,-1.0361476,45.365913,16.519747)"
         id="g16496">
        <path
           inkscape:connector-curvature="0"
           id="path16498"
           style="fill:#cfcccd;fill-opacity:1;fill-rule:nonzero;stroke:none"
           d="M 0,0 -2.516,-0.596 -3.076,1.773 -0.557,2.366 0,0 z" />
      </g>
    </g>
  </g>
</svg>
