<?xml version="1.0" encoding="UTF-8" standalone="no"?>
<!-- Created with Inkscape (http://www.inkscape.org/) -->

<svg
   xmlns:dc="http://purl.org/dc/elements/1.1/"
   xmlns:cc="http://creativecommons.org/ns#"
   xmlns:rdf="http://www.w3.org/1999/02/22-rdf-syntax-ns#"
   xmlns:svg="http://www.w3.org/2000/svg"
   xmlns="http://www.w3.org/2000/svg"
   version="1.1"
   width="48"
   height="48"
   id="svg28083">
  <defs
     id="defs28085">
    <clipPath
       id="clipPath4901">
      <path
         d="m 315.748,1648.19 0.773,0 0,-0.63 -0.773,0 0,0.63 z"
         id="path4903" />
    </clipPath>
    <clipPath
       id="clipPath4905">
      <path
         d="m 315.759,1648.18 0.762,0 0,-0.62 -0.762,0 0,0.62 z"
         id="path4907" />
    </clipPath>
    <clipPath
       id="clipPath4909">
      <path
         d="m 315.748,1648.19 0.011,0 0,-0.01 -0.011,0 0,0.01 z"
         id="path4911" />
    </clipPath>
    <clipPath
       id="clipPath4857">
      <path
         d="m 327.146,1644.07 0.45,0 0,-0.02 -0.45,0 0,0.02 z"
         id="path4859" />
    </clipPath>
    <clipPath
       id="clipPath4861">
      <path
         d="m 327.146,1644.07 0.446,0 0,-0.02 -0.446,0 0,0.02 z"
         id="path4863" />
    </clipPath>
    <clipPath
       id="clipPath4865">
      <path
         d="m 327.592,1644.05 0.004,0 0,0 -0.004,0 z"
         id="path4867" />
    </clipPath>
  </defs>
  <metadata
     id="metadata28088">
    <rdf:RDF>
      <cc:Work
         rdf:about="">
        <dc:format>image/svg+xml</dc:format>
        <dc:type
           rdf:resource="http://purl.org/dc/dcmitype/StillImage" />
        <dc:title></dc:title>
      </cc:Work>
    </rdf:RDF>
  </metadata>
  <g
     transform="matrix(0.75129209,0,0,0.75129209,-40.529627,3.377596)"
     id="g3008"
     style="color:#000000;fill:#cfcccd;fill-opacity:1;fill-rule:nonzero;stroke:none;stroke-width:0.66346431;marker:none;visibility:visible;display:inline;overflow:visible;enable-background:accumulate">
    <path
       d="m 104.07287,34.919012 7.3682,5.66854 c 0.61133,0.42805 1.22863,0.638195 1.84175,0.638195 0.76297,0 1.38147,-0.321784 1.87638,-0.953413 0.4985,-0.642375 0.74506,-1.266839 0.74506,-1.883543 0,-0.709239 -0.28238,-1.269825 -0.84893,-1.700263 l -9.20877,-7.223135 c -0.33253,-0.330739 -0.92655,-0.496706 -1.77369,-0.496706 -0.56656,0 -1.18386,0.06686 -1.84594,0.211936 l -3.89484,1.128335 5.74078,4.610054 z"
       id="path4-3"
       style="color:#000000;fill:#cfcccd;fill-opacity:1;fill-rule:nonzero;stroke:none;stroke-width:0.66346431;marker:none;visibility:visible;display:inline;overflow:visible;enable-background:accumulate" />
    <path
       d="m 81.37483,17.199378 c 0.1982,-2.462636 1.95518,-4.614233 4.49364,-5.155715 3.09963,-0.658494 6.14912,1.316988 6.80941,4.413044 0.61312,2.892477 -1.07759,5.711523 -3.82261,6.614788 l -7.48044,-5.872117 z"
       id="path6"
       style="color:#000000;fill:#cfcccd;fill-opacity:1;fill-rule:nonzero;stroke:none;stroke-width:0.66346431;marker:none;visibility:visible;display:inline;overflow:visible;enable-background:accumulate" />
    <path
       d="m 95.01096,27.85468 -3.78141,-2.930686 10.30605,-7.61835 c 1.02565,-0.761178 2.46443,-0.53969 3.22024,0.482378 0.75759,1.023263 0.53969,2.464427 -0.48238,3.220232 l -9.2625,6.846426 z"
       id="path8"
       style="color:#000000;fill:#cfcccd;fill-opacity:1;fill-rule:nonzero;stroke:none;stroke-width:0.66346431;marker:none;visibility:visible;display:inline;overflow:visible;enable-background:accumulate" />
    <path
       d="m 59.21529,7.8485261 c 1.08475,-1.081172 2.41248,-1.628026 3.96708,-1.628026 1.274,0 2.38562,0.379694 3.3265,1.148036 L 105.0818,38.016858 c 0.9355,0.758791 1.54504,1.776083 1.82563,3.048893 0.23761,0.993412 0.16358,2.034584 -0.20835,3.12292 1.98026,1.23102 2.97009,3.073967 2.97009,5.533617 0,1.747427 -0.62566,3.250682 -1.87817,4.503193 -1.25013,1.250124 -2.74741,1.879364 -4.49782,1.879364 -1.7916,0 -3.32053,-0.629837 -4.57304,-1.879364 -1.25012,-1.252511 -1.87459,-2.750393 -1.87459,-4.499014 0,-1.79041 0.62387,-3.315752 1.87459,-4.567667 1.25191,-1.246541 2.78144,-1.876379 4.57304,-1.876379 0.28059,0 0.70924,0.06627 1.274,0.210742 0.28418,-0.709239 0.35224,-1.368927 0.21373,-1.984436 -0.18865,-0.751627 -0.56655,-1.368927 -1.13669,-1.843544 l -2.33548,-1.838768 -11.90721,3.896636 c -0.46567,0.139698 -0.94267,0.207159 -1.41609,0.207159 -2.21847,0 -3.68232,-1.036396 -4.39096,-3.116353 l -0.21193,-0.634614 -2.551,6.093009 c 2.02922,1.229228 3.04591,3.047101 3.04591,5.454812 0,1.748621 -0.62566,3.246503 -1.87936,4.499014 -1.25251,1.250124 -2.77069,1.879364 -4.56707,1.879364 -1.74922,0 -3.2459,-0.629837 -4.49961,-1.879364 -1.25669,-1.252511 -1.87638,-2.750393 -1.87638,-4.499014 0,-1.79041 0.61909,-3.315752 1.87638,-4.567667 1.2543,-1.246541 2.75039,-1.876379 4.49961,-1.876379 0.3779,0 0.82744,0.06627 1.34564,0.210742 l 3.545,-8.501914 L 76.44299,18.0513 65.24203,9.1267091 c -0.56835,-0.474617 -1.25371,-0.712224 -2.0525,-0.712224 -0.94625,0 -1.74922,0.340291 -2.41249,0.995203 -0.66207,0.6602849 -0.9952,1.4644469 -0.9952,2.4106959 0,1.139081 0.45193,2.051301 1.34982,2.762928 0.57014,0.428051 0.61313,0.944459 0.14149,1.559968 -0.47282,0.519989 -0.99281,0.546855 -1.55937,0.07224 -1.41549,-1.134901 -2.12652,-2.599349 -2.12652,-4.395133 0,-1.55937 0.54327,-2.8853129 1.62803,-3.9718579 z m 44.07789,39.0499399 c -0.80237,0 -1.47519,0.269845 -2.02026,0.811327 -0.54148,0.540884 -0.8167,1.216094 -0.8167,2.016674 0,0.760582 0.27522,1.406538 0.8167,1.953393 0.54507,0.537305 1.21789,0.807747 2.02026,0.807747 0.75401,0 1.40654,-0.269845 1.94862,-0.807747 0.54148,-0.546855 0.81311,-1.192811 0.81311,-1.953393 0,-0.80058 -0.27163,-1.47579 -0.81311,-2.016674 -0.54148,-0.541482 -1.19461,-0.811327 -1.94862,-0.811327 z m -23.84309,0.811327 c -0.54148,-0.541482 -1.21788,-0.811327 -2.02026,-0.811327 -0.75401,0 -1.40892,0.269845 -1.94861,0.811327 -0.54148,0.540884 -0.82207,1.216094 -0.82207,2.016674 0,0.760582 0.28059,1.406538 0.82207,1.953393 0.53909,0.537305 1.1946,0.807747 1.94861,0.807747 0.80238,0 1.47878,-0.269845 2.02026,-0.807747 0.53909,-0.546855 0.81073,-1.192811 0.81073,-1.953393 6e-4,-0.80058 -0.27104,-1.47579 -0.81073,-2.016674 z"
       id="path10"
       style="color:#000000;fill:#cfcccd;fill-opacity:1;fill-rule:nonzero;stroke:none;stroke-width:0.66346431;marker:none;visibility:visible;display:inline;overflow:visible;enable-background:accumulate" />
  </g>
</svg>
