<?xml version="1.0" encoding="UTF-8" standalone="no"?>
<!-- Created with Inkscape (http://www.inkscape.org/) -->

<svg
   xmlns:dc="http://purl.org/dc/elements/1.1/"
   xmlns:cc="http://creativecommons.org/ns#"
   xmlns:rdf="http://www.w3.org/1999/02/22-rdf-syntax-ns#"
   xmlns:svg="http://www.w3.org/2000/svg"
   xmlns="http://www.w3.org/2000/svg"
   xmlns:sodipodi="http://sodipodi.sourceforge.net/DTD/sodipodi-0.dtd"
   xmlns:inkscape="http://www.inkscape.org/namespaces/inkscape"
   width="48px"
   height="48px"
   id="svg28083"
   version="1.1"
   inkscape:version="0.48.4 r9939"
   sodipodi:docname="photo-euro-pourcent.svg">
  <defs
     id="defs28085" />
  <sodipodi:namedview
     id="base"
     pagecolor="#ffffff"
     bordercolor="#666666"
     borderopacity="1.0"
     inkscape:pageopacity="0.0"
     inkscape:pageshadow="2"
     inkscape:zoom="7"
     inkscape:cx="24"
     inkscape:cy="31.312058"
     inkscape:current-layer="layer1"
     showgrid="true"
     inkscape:grid-bbox="true"
     inkscape:document-units="px"
     inkscape:window-width="651"
     inkscape:window-height="653"
     inkscape:window-x="1269"
     inkscape:window-y="186"
     inkscape:window-maximized="0" />
  <metadata
     id="metadata28088">
    <rdf:RDF>
      <cc:Work
         rdf:about="">
        <dc:format>image/svg+xml</dc:format>
        <dc:type
           rdf:resource="http://purl.org/dc/dcmitype/StillImage" />
        <dc:title />
      </cc:Work>
    </rdf:RDF>
  </metadata>
  <g
     id="layer1"
     inkscape:label="Layer 1"
     inkscape:groupmode="layer">
    <g
       id="g3000">
      <path
         d="m 12.199496,10.172992 4.187093,0 0,1.993474 -4.187093,0 0,-1.993474 z m 0.399492,3.189558 3.387311,0 c 1.212032,0 2.192821,-0.982385 2.192821,-2.192025 0,-1.2112343 -0.980789,-2.1920228 -2.192821,-2.1920228 l -3.387311,0 c -1.210437,0 -2.19282,0.9807885 -2.19282,2.1920228 0,1.20964 0.982383,2.192025 2.19282,2.192025"
         style="fill:#cfcccd;fill-opacity:1;fill-rule:nonzero;stroke:none"
         id="path13871"
         inkscape:connector-curvature="0" />
      <g
         style="fill:#cfcccd"
         id="g13873"
         transform="matrix(0.79738949,0,0,-0.79738949,12.647629,25.321956)">
        <path
           d="m 0,0 c -1.774,0 -3.21,1.437 -3.21,3.209 0,1.774 1.436,3.213 3.21,3.213 1.772,0 3.209,-1.439 3.209,-3.213 C 3.209,1.437 1.772,0 0,0 m -0.061,8.288 c -2.761,0 -5,-2.238 -5,-4.999 0,-2.762 2.239,-5 5,-5 2.761,0 5,2.238 5,5 0,2.761 -2.239,4.999 -5,4.999"
           style="fill:#cfcccd;fill-opacity:1;fill-rule:nonzero;stroke:none"
           id="path13875"
           inkscape:connector-curvature="0" />
      </g>
      <g
         style="fill:#cfcccd"
         id="g13877"
         transform="matrix(0.79738949,0,0,-0.79738949,12.599307,28.281387)">
        <path
           d="m 0,0 c -3.867,0 -7,3.136 -7,7 0,3.865 3.133,6.998 7,6.998 C 3.864,13.998 6.997,10.865 6.997,7 6.997,3.136 3.864,0 0,0 m -9.249,10.251 -1.751,0 0,1.748 1.751,0 0,-1.748 z m 18.556,4.997 -2.31,0 c 0,1.519 -1.229,2.751 -2.749,2.751 l -4.248,0 c -1.518,0 -2.75,-1.232 -2.75,-2.751 l -2.999,0 c 0.275,0 0.499,0.224 0.499,0.5 0,0.277 -0.224,0.501 -0.499,0.501 l -3.308,0 c -0.275,0 -0.501,-0.224 -0.501,-0.501 0,-0.276 0.226,-0.5 0.501,-0.5 l -0.501,0 c -2.177,0 -3.942,-1.763 -3.942,-3.94 l 0,-8.367 c 0,-2.176 1.765,-3.939 3.942,-3.939 l 18.865,0 c 2.176,0 3.939,1.763 3.939,3.939 l 0,8.367 c 0,2.177 -1.763,3.94 -3.939,3.94"
           style="fill:#cfcccd;fill-opacity:1;fill-rule:nonzero;stroke:none"
           id="path13879"
           inkscape:connector-curvature="0" />
      </g>
      <g
         style="fill:#cfcccd"
         id="g3461"
         transform="matrix(0.90874065,0,0,-0.90874065,30.842172,36.915431)">
        <path
           id="path3463"
           transform="matrix(1.100424,0,0,-1.100424,-33.939466,40.622625)"
           d="M 25.59375 19.5 C 25.202665 19.506262 24.879824 19.546645 24.71875 19.6875 C 24.075362 20.25001 24.338234 21.143367 25.0625 21.625 C 25.485064 21.90671 25.965361 22.686025 26.3125 23.28125 C 22.202266 24.766132 19.15625 30.621336 19.15625 37.625 C 19.15625 38.519201 19.184923 39.400327 19.28125 40.25 C 19.455728 40.830685 20.039857 42.15625 21.4375 42.15625 L 35.09375 42.15625 C 35.09375 42.15625 37.066734 42.095396 37.4375 40.46875 C 37.462945 40.268827 37.480916 40.07674 37.5 39.875 C 37.501817 39.785035 37.490004 39.723497 37.5 39.65625 C 37.558159 38.994687 37.59375 38.311099 37.59375 37.625 C 37.59375 30.615883 34.522845 24.759771 30.40625 23.28125 C 30.551649 22.370692 31.014775 21.212453 31.90625 20.5 C 33.113966 19.534009 31.086405 19.619494 29.71875 19.78125 C 28.692327 19.901885 26.767005 19.481215 25.59375 19.5 z M 29.375 28.09375 C 30.935281 28.00729 32.25 28.65625 32.25 28.65625 L 31.75 30.375 C 27.984378 28.286822 26.84375 31.90625 26.84375 31.90625 L 31.5625 31.90625 L 31.15625 33.125 L 26.65625 33.125 C 26.528107 33.362406 26.6875 33.8125 26.6875 33.8125 L 31.1875 33.8125 L 30.90625 34.9375 L 26.84375 34.9375 C 28.114565 39.283901 31.875 36.78125 31.875 36.78125 L 32.125 38.59375 C 26.013259 40.72218 25.09375 34.90625 25.09375 34.90625 L 23.9375 34.90625 L 24.21875 33.8125 L 24.90625 33.8125 C 24.92925 33.639993 24.96875 32.96875 24.96875 32.96875 L 23.96875 32.96875 L 24.25 31.90625 L 25.0625 31.90625 C 26.009245 29.00153 27.814719 28.18021 29.375 28.09375 z "
           style="fill:#cfcccd;fill-opacity:1;fill-rule:nonzero;stroke:none" />
      </g>
      <g
         style="fill:#cfcccd"
         id="g3473"
         transform="matrix(0.90874065,0,0,-0.90874065,46.135921,33.181088)">
        <path
           d="m 0,0 c -0.008,-0.021 -0.014,-0.043 -0.025,-0.064 -0.091,-0.184 -0.185,-0.358 -0.283,-0.53 0,-0.002 -0.002,-0.003 -0.002,-0.003 0.025,-0.116 0.027,-0.246 -0.003,-0.383 -0.102,-0.45 -0.289,-0.905 -0.54,-1.327 -0.2,-2.211 -2.082,-3.944 -4.374,-3.944 -2.425,0 -4.392,1.94 -4.392,4.334 0,0.205 0.015,0.407 0.044,0.605 -0.345,0.52 -0.645,1.064 -0.773,1.57 -0.294,-0.667 -0.46,-1.401 -0.46,-2.175 0,-3.04 2.498,-5.505 5.581,-5.505 3.081,0 5.582,2.465 5.582,5.505 C 0.355,-1.242 0.226,-0.597 0,0"
           style="fill:#cfcccd;fill-opacity:1;fill-rule:nonzero;stroke:none"
           id="path3475"
           inkscape:connector-curvature="0" />
      </g>
      <g
         style="fill:#cfcccd"
         id="g3477"
         transform="matrix(0.90874065,0,0,-0.90874065,46.028958,35.275482)">
        <path
           d="m 0,0 c -0.096,-0.576 -0.373,-1.148 -0.568,-1.701 -0.036,-0.107 -0.091,-0.203 -0.156,-0.285 0.002,-0.046 0.01,-0.09 0.01,-0.135 0,-2.312 -1.969,-4.186 -4.395,-4.186 -2.426,0 -4.392,1.874 -4.392,4.186 0,0.152 0.009,0.302 0.026,0.449 -0.37,0.54 -0.641,1.225 -0.637,1.887 -0.367,-0.704 -0.578,-1.495 -0.578,-2.336 0,-2.938 2.498,-5.316 5.581,-5.316 3.081,0 5.582,2.378 5.582,5.316 C 0.473,-1.365 0.301,-0.648 0,0"
           style="fill:#cfcccd;fill-opacity:1;fill-rule:nonzero;stroke:none"
           id="path3479"
           inkscape:connector-curvature="0" />
      </g>
      <g
         style="fill:#cfcccd"
         id="g3481"
         transform="matrix(0.90874065,0,0,-0.90874065,41.385839,36.533832)">
        <path
           d="m 0,0 c -2.425,0 -4.392,1.939 -4.392,4.334 0,2.393 1.967,4.333 4.392,4.333 2.427,0 4.395,-1.94 4.395,-4.333 C 4.395,1.939 2.427,0 0,0 m 0,9.84 c -3.083,0 -5.581,-2.466 -5.581,-5.506 0,-3.042 2.498,-5.506 5.581,-5.506 3.082,0 5.582,2.464 5.582,5.506 0,3.04 -2.5,5.506 -5.582,5.506"
           style="fill:#cfcccd;fill-opacity:1;fill-rule:nonzero;stroke:none"
           id="path3483"
           inkscape:connector-curvature="0" />
      </g>
      <path
         sodipodi:nodetypes="ccccccccccccccccccccc"
         inkscape:connector-curvature="0"
         id="path4606-4"
         style="fill:#cfcccd;fill-opacity:1;fill-rule:nonzero;stroke:none"
         d="m 42.509059,31.841378 -0.161806,0.484779 -1.779582,0 c -0.05069,0.0939 0.0091,0.263835 0.0091,0.263835 l 1.778607,0 -0.102019,0.451311 -1.617123,0 c 0.502652,1.719148 1.992081,0.732369 1.992081,0.732369 l 0.101704,0.706699 c -2.417414,0.841866 -2.783598,-1.447514 -2.783598,-1.447514 l -0.458786,0 0.109825,-0.434093 0.281054,0 c 0.0091,-0.06824 0.01715,-0.331743 0.01715,-0.331743 l -0.391528,0 0.110472,-0.425643 0.32362,0 c 0.748938,-2.29783 2.843043,-1.285706 2.843043,-1.285706 l -0.204374,0.681681 c -1.489431,-0.825944 -1.931645,0.604025 -1.931645,0.604025 z" />
      <g
         id="text3485"
         style="font-size:16.11310959000000054px;font-style:normal;font-variant:normal;font-weight:bold;font-stretch:normal;text-align:center;line-height:125%;letter-spacing:0px;word-spacing:0px;text-anchor:middle;fill:#cfcccd;fill-opacity:1;stroke:none;font-family:STIXSizeFourSym;-inkscape-font-specification:STIXSizeFourSym Bold"
         transform="scale(0.96419705,1.0371324)">
        <path
           id="path3519"
           style="fill:#cfcccd;font-family:Sans;-inkscape-font-specification:Sans Bold"
           d="m 43.820897,18.512161 c -0.372418,5e-6 -0.660901,0.162605 -0.86545,0.4878 -0.204573,0.319958 -0.306853,0.778908 -0.306842,1.376852 -1.1e-5,0.603195 0.09965,1.067391 0.298974,1.392588 0.204549,0.319956 0.495655,0.479933 0.873318,0.479932 0.377638,1e-6 0.666121,-0.159976 0.86545,-0.479932 0.199302,-0.325197 0.29896,-0.789393 0.298974,-1.392588 -1.4e-5,-0.597944 -0.102294,-1.056894 -0.306842,-1.376852 -0.199329,-0.325195 -0.485189,-0.487795 -0.857582,-0.4878 m 0,-1.321778 c 0.975585,6e-6 1.743999,0.283244 2.305244,0.849715 0.561216,0.566481 0.841832,1.345385 0.841848,2.336715 -1.6e-5,0.991336 -0.280632,1.775486 -0.841848,2.352451 -0.561245,0.571722 -1.329659,0.857583 -2.305244,0.857583 -0.97561,0 -1.746647,-0.285861 -2.313113,-0.857583 -0.561241,-0.576965 -0.841856,-1.361115 -0.841847,-2.352451 -9e-6,-0.986085 0.280606,-1.762366 0.841847,-2.328848 0.566466,-0.571715 1.337503,-0.857576 2.313113,-0.857582 m -7.214708,6.396464 -1.738768,0 7.340591,-12.187113 1.746636,0 -7.348459,12.187113 M 34.993305,11.399734 c 0.975593,1.2e-5 1.741385,0.285873 2.297376,0.857583 0.561225,0.566487 0.841841,1.345391 0.841848,2.336715 -7e-6,0.991342 -0.280623,1.772869 -0.841848,2.344584 -0.555991,0.571727 -1.321783,0.857588 -2.297376,0.857582 -0.975602,6e-6 -1.744016,-0.285855 -2.305245,-0.857582 -0.555987,-0.571715 -0.83398,-1.353242 -0.833979,-2.344584 -1e-6,-0.991324 0.277992,-1.770228 0.833979,-2.336715 0.561229,-0.57171 1.329643,-0.857571 2.305245,-0.857583 m 0,1.321779 c -0.377655,10e-6 -0.66876,0.16261 -0.873318,0.487799 -0.204564,0.325209 -0.306844,0.786782 -0.306842,1.38472 -2e-6,0.603201 0.102278,1.070019 0.306842,1.400456 0.204558,0.325207 0.495663,0.487806 0.873318,0.487799 0.377647,7e-6 0.66613,-0.162592 0.86545,-0.487799 0.204556,-0.330437 0.306836,-0.797255 0.306841,-1.400456 -5e-6,-0.597938 -0.102285,-1.059511 -0.306841,-1.38472 -0.204566,-0.325189 -0.493049,-0.487789 -0.86545,-0.487799" />
      </g>
    </g>
  </g>
</svg>
