<?xml version="1.0" encoding="UTF-8" standalone="no"?>
<!-- Created with Inkscape (http://www.inkscape.org/) -->

<svg
   xmlns:dc="http://purl.org/dc/elements/1.1/"
   xmlns:cc="http://creativecommons.org/ns#"
   xmlns:rdf="http://www.w3.org/1999/02/22-rdf-syntax-ns#"
   xmlns:svg="http://www.w3.org/2000/svg"
   xmlns="http://www.w3.org/2000/svg"
   xmlns:sodipodi="http://sodipodi.sourceforge.net/DTD/sodipodi-0.dtd"
   xmlns:inkscape="http://www.inkscape.org/namespaces/inkscape"
   width="48px"
   height="48px"
   id="svg28083"
   version="1.1"
   inkscape:version="0.48.4 r9939"
   sodipodi:docname="photo.svg">
  <defs
     id="defs28085" />
  <sodipodi:namedview
     id="base"
     pagecolor="#ffffff"
     bordercolor="#666666"
     borderopacity="1.0"
     inkscape:pageopacity="0.0"
     inkscape:pageshadow="2"
     inkscape:zoom="7"
     inkscape:cx="24"
     inkscape:cy="24"
     inkscape:current-layer="layer1"
     showgrid="true"
     inkscape:grid-bbox="true"
     inkscape:document-units="px"
     inkscape:window-width="651"
     inkscape:window-height="653"
     inkscape:window-x="1269"
     inkscape:window-y="273"
     inkscape:window-maximized="0" />
  <metadata
     id="metadata28088">
    <rdf:RDF>
      <cc:Work
         rdf:about="">
        <dc:format>image/svg+xml</dc:format>
        <dc:type
           rdf:resource="http://purl.org/dc/dcmitype/StillImage" />
        <dc:title />
      </cc:Work>
    </rdf:RDF>
  </metadata>
  <g
     id="layer1"
     inkscape:label="Layer 1"
     inkscape:groupmode="layer">
    <g
       id="g2987">
      <path
         d="m 24.246286,10.119 6.56375,0 0,3.125 -6.56375,0 0,-3.125 z m 0.62625,5 5.31,0 c 1.9,0 3.4375,-1.54 3.4375,-3.43625 0,-1.89875 -1.5375,-3.43625 -3.4375,-3.43625 l -5.31,0 c -1.8975,0 -3.4375,1.5375 -3.4375,3.43625 0,1.89625 1.54,3.43625 3.4375,3.43625"
         style="fill:#cfcccd;fill-opacity:1;fill-rule:nonzero;stroke:none"
         id="path13871"
         inkscape:connector-curvature="0" />
      <g
         style="fill:#cfcccd"
         id="g13873"
         transform="matrix(1.25,0,0,-1.25,24.948786,33.86675)">
        <path
           d="m 0,0 c -1.774,0 -3.21,1.437 -3.21,3.209 0,1.774 1.436,3.213 3.21,3.213 1.772,0 3.209,-1.439 3.209,-3.213 C 3.209,1.437 1.772,0 0,0 m -0.061,8.288 c -2.761,0 -5,-2.238 -5,-4.999 0,-2.762 2.239,-5 5,-5 2.761,0 5,2.238 5,5 0,2.761 -2.239,4.999 -5,4.999"
           style="fill:#cfcccd;fill-opacity:1;fill-rule:nonzero;stroke:none"
           id="path13875"
           inkscape:connector-curvature="0" />
      </g>
      <g
         style="fill:#cfcccd"
         id="g13877"
         transform="matrix(1.25,0,0,-1.25,24.873036,38.506)">
        <path
           d="m 0,0 c -3.867,0 -7,3.136 -7,7 0,3.865 3.133,6.998 7,6.998 C 3.864,13.998 6.997,10.865 6.997,7 6.997,3.136 3.864,0 0,0 m -9.249,10.251 -1.751,0 0,1.748 1.751,0 0,-1.748 z m 18.556,4.997 -2.31,0 c 0,1.519 -1.229,2.751 -2.749,2.751 l -4.248,0 c -1.518,0 -2.75,-1.232 -2.75,-2.751 l -2.999,0 c 0.275,0 0.499,0.224 0.499,0.5 0,0.277 -0.224,0.501 -0.499,0.501 l -3.308,0 c -0.275,0 -0.501,-0.224 -0.501,-0.501 0,-0.276 0.226,-0.5 0.501,-0.5 l -0.501,0 c -2.177,0 -3.942,-1.763 -3.942,-3.94 l 0,-8.367 c 0,-2.176 1.765,-3.939 3.942,-3.939 l 18.865,0 c 2.176,0 3.939,1.763 3.939,3.939 l 0,8.367 c 0,2.177 -1.763,3.94 -3.939,3.94"
           style="fill:#cfcccd;fill-opacity:1;fill-rule:nonzero;stroke:none"
           id="path13879"
           inkscape:connector-curvature="0" />
      </g>
    </g>
  </g>
</svg>
