<?xml version="1.0" encoding="UTF-8" standalone="no"?>
<!-- Created with Inkscape (http://www.inkscape.org/) -->

<svg
   xmlns:dc="http://purl.org/dc/elements/1.1/"
   xmlns:cc="http://creativecommons.org/ns#"
   xmlns:rdf="http://www.w3.org/1999/02/22-rdf-syntax-ns#"
   xmlns:svg="http://www.w3.org/2000/svg"
   xmlns="http://www.w3.org/2000/svg"
   xmlns:sodipodi="http://sodipodi.sourceforge.net/DTD/sodipodi-0.dtd"
   xmlns:inkscape="http://www.inkscape.org/namespaces/inkscape"
   width="48px"
   height="48px"
   id="svg28083"
   version="1.1"
   inkscape:version="0.48.4 r9943 custom"
   sodipodi:docname="photo-dollar.svg">
  <defs
     id="defs28085" />
  <sodipodi:namedview
     id="base"
     pagecolor="#ffffff"
     bordercolor="#666666"
     borderopacity="1.0"
     inkscape:pageopacity="0.0"
     inkscape:pageshadow="2"
     inkscape:zoom="7"
     inkscape:cx="24"
     inkscape:cy="35.428571"
     inkscape:current-layer="layer1"
     showgrid="true"
     inkscape:grid-bbox="true"
     inkscape:document-units="px"
     inkscape:window-width="651"
     inkscape:window-height="653"
     inkscape:window-x="1491"
     inkscape:window-y="292"
     inkscape:window-maximized="0" />
  <metadata
     id="metadata28088">
    <rdf:RDF>
      <cc:Work
         rdf:about="">
        <dc:format>image/svg+xml</dc:format>
        <dc:type
           rdf:resource="http://purl.org/dc/dcmitype/StillImage" />
        <dc:title></dc:title>
      </cc:Work>
    </rdf:RDF>
  </metadata>
  <g
     id="layer1"
     inkscape:label="Layer 1"
     inkscape:groupmode="layer">
    <path
       inkscape:connector-curvature="0"
       id="path13871"
       style="fill:#cfcccd;fill-opacity:1;fill-rule:nonzero;stroke:none"
       d="m 12.199496,10.172992 4.187093,0 0,1.993474 -4.187093,0 0,-1.993474 z m 0.399492,3.189558 3.387311,0 c 1.212032,0 2.192821,-0.982385 2.192821,-2.192025 0,-1.2112343 -0.980789,-2.1920228 -2.192821,-2.1920228 l -3.387311,0 c -1.210437,0 -2.19282,0.9807885 -2.19282,2.1920228 0,1.20964 0.982383,2.192025 2.19282,2.192025" />
    <g
       transform="matrix(0.79738949,0,0,-0.79738949,12.647629,25.321956)"
       id="g13873">
      <path
         inkscape:connector-curvature="0"
         id="path13875"
         style="fill:#cfcccd;fill-opacity:1;fill-rule:nonzero;stroke:none"
         d="m 0,0 c -1.774,0 -3.21,1.437 -3.21,3.209 0,1.774 1.436,3.213 3.21,3.213 1.772,0 3.209,-1.439 3.209,-3.213 C 3.209,1.437 1.772,0 0,0 m -0.061,8.288 c -2.761,0 -5,-2.238 -5,-4.999 0,-2.762 2.239,-5 5,-5 2.761,0 5,2.238 5,5 0,2.761 -2.239,4.999 -5,4.999" />
    </g>
    <g
       transform="matrix(0.79738949,0,0,-0.79738949,12.599307,28.281387)"
       id="g13877">
      <path
         inkscape:connector-curvature="0"
         id="path13879"
         style="fill:#cfcccd;fill-opacity:1;fill-rule:nonzero;stroke:none"
         d="m 0,0 c -3.867,0 -7,3.136 -7,7 0,3.865 3.133,6.998 7,6.998 C 3.864,13.998 6.997,10.865 6.997,7 6.997,3.136 3.864,0 0,0 m -9.249,10.251 -1.751,0 0,1.748 1.751,0 0,-1.748 z m 18.556,4.997 -2.31,0 c 0,1.519 -1.229,2.751 -2.749,2.751 l -4.248,0 c -1.518,0 -2.75,-1.232 -2.75,-2.751 l -2.999,0 c 0.275,0 0.499,0.224 0.499,0.5 0,0.277 -0.224,0.501 -0.499,0.501 l -3.308,0 c -0.275,0 -0.501,-0.224 -0.501,-0.501 0,-0.276 0.226,-0.5 0.501,-0.5 l -0.501,0 c -2.177,0 -3.942,-1.763 -3.942,-3.94 l 0,-8.367 c 0,-2.176 1.765,-3.939 3.942,-3.939 l 18.865,0 c 2.176,0 3.939,1.763 3.939,3.939 l 0,8.367 c 0,2.177 -1.763,3.94 -3.939,3.94" />
    </g>
    <g
       transform="matrix(0.90874065,0,0,-0.90874065,30.842172,36.915431)"
       id="g3461">
      <path
         inkscape:connector-curvature="0"
         id="path3463"
         style="fill:#cfcccd;fill-opacity:1;fill-rule:nonzero;stroke:none"
         d="m -0.476,15.014 c 0.16,1.002 0.655,2.267 1.636,3.051 1.329,1.063 -0.887,0.975 -2.392,0.797 -1.506,-0.177 -4.782,0.709 -5.491,0.089 -0.708,-0.619 -0.443,-1.595 0.354,-2.125 0.465,-0.31 1.018,-1.161 1.4,-1.816 -4.523,-1.634 -7.9,-8.078 -7.9,-15.785 0,-0.984 0.057,-1.945 0.163,-2.88 0.192,-0.639 0.803,-2.125 2.341,-2.125 l 15.035,0 c 0,0 2.166,0.068 2.574,1.858 0.028,0.22 0.053,0.44 0.074,0.662 0.002,0.099 0.01,0.186 0.021,0.26 0.064,0.728 0.098,1.47 0.098,2.225 0,7.713 -3.383,14.162 -7.913,15.789"
         sodipodi:nodetypes="ccccccscsccccsc" />
    </g>
    <g
       transform="matrix(0.90874065,0,0,-0.90874065,46.135921,33.181088)"
       id="g3473">
      <path
         inkscape:connector-curvature="0"
         id="path3475"
         style="fill:#cfcccd;fill-opacity:1;fill-rule:nonzero;stroke:none"
         d="m 0,0 c -0.008,-0.021 -0.014,-0.043 -0.025,-0.064 -0.091,-0.184 -0.185,-0.358 -0.283,-0.53 0,-0.002 -0.002,-0.003 -0.002,-0.003 0.025,-0.116 0.027,-0.246 -0.003,-0.383 -0.102,-0.45 -0.289,-0.905 -0.54,-1.327 -0.2,-2.211 -2.082,-3.944 -4.374,-3.944 -2.425,0 -4.392,1.94 -4.392,4.334 0,0.205 0.015,0.407 0.044,0.605 -0.345,0.52 -0.645,1.064 -0.773,1.57 -0.294,-0.667 -0.46,-1.401 -0.46,-2.175 0,-3.04 2.498,-5.505 5.581,-5.505 3.081,0 5.582,2.465 5.582,5.505 C 0.355,-1.242 0.226,-0.597 0,0" />
    </g>
    <g
       transform="matrix(0.90874065,0,0,-0.90874065,46.028958,35.275482)"
       id="g3477">
      <path
         inkscape:connector-curvature="0"
         id="path3479"
         style="fill:#cfcccd;fill-opacity:1;fill-rule:nonzero;stroke:none"
         d="m 0,0 c -0.096,-0.576 -0.373,-1.148 -0.568,-1.701 -0.036,-0.107 -0.091,-0.203 -0.156,-0.285 0.002,-0.046 0.01,-0.09 0.01,-0.135 0,-2.312 -1.969,-4.186 -4.395,-4.186 -2.426,0 -4.392,1.874 -4.392,4.186 0,0.152 0.009,0.302 0.026,0.449 -0.37,0.54 -0.641,1.225 -0.637,1.887 -0.367,-0.704 -0.578,-1.495 -0.578,-2.336 0,-2.938 2.498,-5.316 5.581,-5.316 3.081,0 5.582,2.378 5.582,5.316 C 0.473,-1.365 0.301,-0.648 0,0" />
    </g>
    <g
       transform="matrix(0.90874065,0,0,-0.90874065,41.385839,36.533832)"
       id="g3481">
      <path
         inkscape:connector-curvature="0"
         id="path3483"
         style="fill:#cfcccd;fill-opacity:1;fill-rule:nonzero;stroke:none"
         d="m 0,0 c -2.425,0 -4.392,1.939 -4.392,4.334 0,2.393 1.967,4.333 4.392,4.333 2.427,0 4.395,-1.94 4.395,-4.333 C 4.395,1.939 2.427,0 0,0 m 0,9.84 c -3.083,0 -5.581,-2.466 -5.581,-5.506 0,-3.042 2.498,-5.506 5.581,-5.506 3.082,0 5.582,2.464 5.582,5.506 0,3.04 -2.5,5.506 -5.582,5.506" />
    </g>
    <path
       d="m 42.509059,31.841378 -0.161806,0.484779 -1.779582,0 c -0.05069,0.0939 0.0091,0.263835 0.0091,0.263835 l 1.778607,0 -0.102019,0.451311 -1.617123,0 c 0.502652,1.719148 1.992081,0.732369 1.992081,0.732369 l 0.101704,0.706699 c -2.417414,0.841866 -2.783598,-1.447514 -2.783598,-1.447514 l -0.458786,0 0.109825,-0.434093 0.281054,0 c 0.0091,-0.06824 0.01715,-0.331743 0.01715,-0.331743 l -0.391528,0 0.110472,-0.425643 0.32362,0 c 0.748938,-2.29783 2.843043,-1.285706 2.843043,-1.285706 l -0.204374,0.681681 c -1.489431,-0.825944 -1.931645,0.604025 -1.931645,0.604025 z"
       style="fill:#4d4d4d;fill-opacity:1;fill-rule:nonzero;stroke:none"
       id="path4606-4"
       inkscape:connector-curvature="0"
       sodipodi:nodetypes="ccccccccccccccccccccc" />
    <path
       d="m 31.567064,31.906278 -0.409092,1.225634 -4.499193,0 c -0.128143,0.237406 0.023,0.667034 0.023,0.667034 l 4.496729,0 -0.257942,1.141022 -4.088459,0 c 1.270815,4.346401 5.036436,1.851595 5.036436,1.851595 l 0.25712,1.786698 c -6.111741,2.12843 -7.037537,-3.659651 -7.037537,-3.659651 l -1.159917,0 0.277657,-1.097485 0.710571,0 c 0.023,-0.172507 0.04354,-0.838721 0.04354,-0.838721 l -0.989873,0 0.2793,-1.076126 0.818185,0 c 1.893489,-5.80944 7.187867,-3.250559 7.187867,-3.250559 l -0.516704,1.723445 c -3.765622,-2.088178 -4.883643,1.527114 -4.883643,1.527114 z"
       style="fill:#ffffff;fill-opacity:1;fill-rule:nonzero;stroke:none"
       id="path4606"
       inkscape:connector-curvature="0"
       sodipodi:nodetypes="ccccccccccccccccccccc" />
  </g>
</svg>
