<?xml version="1.0" encoding="UTF-8" standalone="no"?>
<!-- Created with Inkscape (http://www.inkscape.org/) -->

<svg
   xmlns:dc="http://purl.org/dc/elements/1.1/"
   xmlns:cc="http://creativecommons.org/ns#"
   xmlns:rdf="http://www.w3.org/1999/02/22-rdf-syntax-ns#"
   xmlns:svg="http://www.w3.org/2000/svg"
   xmlns="http://www.w3.org/2000/svg"
   version="1.1"
   width="48"
   height="48"
   id="svg28083">
  <defs
     id="defs28085">
    <clipPath
       id="clipPath4901">
      <path
         d="m 315.748,1648.19 0.773,0 0,-0.63 -0.773,0 0,0.63 z"
         id="path4903" />
    </clipPath>
    <clipPath
       id="clipPath4905">
      <path
         d="m 315.759,1648.18 0.762,0 0,-0.62 -0.762,0 0,0.62 z"
         id="path4907" />
    </clipPath>
    <clipPath
       id="clipPath4909">
      <path
         d="m 315.748,1648.19 0.011,0 0,-0.01 -0.011,0 0,0.01 z"
         id="path4911" />
    </clipPath>
    <clipPath
       id="clipPath4857">
      <path
         d="m 327.146,1644.07 0.45,0 0,-0.02 -0.45,0 0,0.02 z"
         id="path4859" />
    </clipPath>
    <clipPath
       id="clipPath4861">
      <path
         d="m 327.146,1644.07 0.446,0 0,-0.02 -0.446,0 0,0.02 z"
         id="path4863" />
    </clipPath>
    <clipPath
       id="clipPath4865">
      <path
         d="m 327.592,1644.05 0.004,0 0,0 -0.004,0 z"
         id="path4867" />
    </clipPath>
    <mask
       id="mask3914">
      <rect
         width="44.954487"
         height="39.575321"
         x="-14.851954"
         y="10.034196"
         id="rect3916"
         style="color:#000000;fill:#ffffff;fill-opacity:1;fill-rule:nonzero;stroke:none;stroke-width:0.5614593;marker:none;visibility:visible;display:inline;overflow:visible;enable-background:accumulate" />
    </mask>
  </defs>
  <metadata
     id="metadata28088">
    <rdf:RDF>
      <cc:Work
         rdf:about="">
        <dc:format>image/svg+xml</dc:format>
        <dc:type
           rdf:resource="http://purl.org/dc/dcmitype/StillImage" />
        <dc:title></dc:title>
      </cc:Work>
    </rdf:RDF>
  </metadata>
  <g
     transform="matrix(0.50818414,0,0,0.50818414,-0.69785019,-0.29715017)"
     id="g4"
     style="color:#000000;fill:#000000;fill-opacity:1;fill-rule:nonzero;stroke-width:1.10483432;stroke-linecap:butt;stroke-linejoin:miter;stroke-miterlimit:4;stroke-opacity:1;stroke-dasharray:none;stroke-dashoffset:0;marker:none;visibility:visible;display:inline;overflow:visible;enable-background:accumulate">
    <path
       d="m 49.63,23.683 c 4.769,0 8.649,-3.88 8.649,-8.649 0,-4.77 -3.88,-8.65 -8.649,-8.65 -4.77,0 -8.65,3.88 -8.65,8.65 0,4.769 3.88,8.649 8.65,8.649 z m 0,-15.001 c 3.502,0 6.351,2.849 6.351,6.352 0,3.502 -2.849,6.351 -6.351,6.351 -3.502,0 -6.352,-2.849 -6.352,-6.351 0,-3.502 2.85,-6.352 6.352,-6.352 z"
       id="path6"
       style="color:#000000;fill:#cfcccd;fill-opacity:1;fill-rule:nonzero;stroke:none;stroke-width:1.10483432;marker:none;visibility:visible;display:inline;overflow:visible;enable-background:accumulate" />
    <path
       d="m 73.905,64.96 c 0.634,0 1.149,-0.514 1.149,-1.149 V 40.717 c 0,-0.634 -0.514,-1.149 -1.149,-1.149 H 71.499 C 70.29,34.258 67.317,25.299 59.249,25.299 H 39.437 c -2.623,0 -4.965,-3.549 -6.265,-9.492 -0.51,-2.364 -2.633,-4.08 -5.049,-4.08 -0.366,0 -0.735,0.039 -1.097,0.117 -2.786,0.602 -4.564,3.359 -3.962,6.146 0.637,2.947 4.334,17.65 14.605,17.65 h 0.619 v 3.929 H 27.653 c -0.634,0 -1.149,0.514 -1.149,1.149 v 23.094 c 0,0.634 0.514,1.149 1.149,1.149 h 4.718 v 20.762 h -4.718 c -0.634,0 -1.149,0.514 -1.149,1.149 v 5.595 c 0,0.634 0.514,1.149 1.149,1.149 h 46.252 c 0.634,0 1.149,-0.514 1.149,-1.149 v -5.595 c 0,-0.634 -0.514,-1.149 -1.149,-1.149 H 69.043 V 64.96 h 4.862 z M 39.437,33.341 h -1.768 c -8.505,0 -11.787,-13.193 -12.358,-15.837 -0.334,-1.548 0.654,-3.08 2.201,-3.414 0.203,-0.043 0.408,-0.066 0.612,-0.066 1.341,0 2.519,0.954 2.803,2.27 1.571,7.183 4.673,11.302 8.51,11.302 H 59.25 c 5.863,0 8.478,6.18 9.877,11.971 h -5.739 c -0.429,-1.75 -1.137,-3.374 -2.702,-4.531 -0.348,-0.258 -0.814,-0.298 -1.2,-0.102 -0.388,0.196 -0.632,0.592 -0.632,1.026 v 3.607 H 40.585 V 34.49 c 0,-0.634 -0.514,-1.149 -1.148,-1.149 z M 34.668,85.723 V 47.572 H 66.745 V 85.723 H 34.668 z"
       id="path8"
       style="color:#000000;fill:#cfcccd;fill-opacity:1;fill-rule:nonzero;stroke:none;stroke-width:1.10483432;marker:none;visibility:visible;display:inline;overflow:visible;enable-background:accumulate" />
  </g>
  <g
     transform="matrix(0.56145933,0,0,0.56145933,16.464503,16.838453)"
     mask="url(#mask3914)"
     id="layer1">
    <g
       transform="matrix(1.25,0,0,-1.25,18.208765,12.874464)"
       id="g13764">
      <path
         d="m -12.100161,-20.977308 c 0,0 0.348528,-4.108014 2.118076,-6.329879 0.02434,0.03075 0.05253,0.06278 0.07688,0.09226 -0.488195,1.019957 -1.541467,3.583943 -0.648364,5.156162 0,0 -0.116603,-3.255916 1.1993451,-4.534706 0.1345421,0.139668 0.2729281,0.279335 0.4125958,0.415158 -0.079446,1.18397 -0.3728737,3.541658 -1.4184569,5.165131 0,0 1.549155,-2.161641 2.2949025,-4.384787 0.00508,0.0052 0.010249,0.01025 0.014095,0.01666 -0.2421756,0.999455 -0.8008454,3.617257 -0.3754361,5.209978 0,0 0.1537627,-3.085497 0.9469193,-4.767911 0.1793898,0.131978 0.3626226,0.263958 0.5522623,0.390812 0.2229557,1.077617 0.4215653,2.892012 -0.3395576,4.345065 0,0 0.8200648,-0.570201 1.6862592,-3.517311 0.00771,0.0052 0.015374,0.0064 0.023066,0.01153 -0.049091,7.252127 -1.150543,3.82984 0.3805616,0.203735 0.016662,0.01025 0.034594,0.01794 0.055101,0.02691 -0.2511443,0.940513 -0.067909,1.656788 -0.067909,1.656788 -0.023066,-0.438222 0.2549891,-0.967421 0.5625137,-1.410768 0.044852,0.02179 0.085851,0.04356 0.128135,0.06406 0.1178846,0.644521 0.112759,1.51584 -0.4510355,2.297464 0,0 0.7585601,-0.764967 1.1865318,-1.972 0.017941,0.0051 0.033315,0.01025 0.049976,0.01922 -0.037161,0.470256 0.030748,1.10837 0.5535442,1.528654 0,0 -0.2857417,-0.702182 0.1268535,-1.25957 0.1153217,0.04228 0.225518,0.08457 0.3408396,0.124291 0.030753,0.192203 0.060223,0.440785 0.060223,0.714995 0,0 0.4279717,-0.169139 0.6432389,-0.480507 2.08732272,0.653489 4.3847873,1.017394 6.802699,1.017394 l 1.6657577,-0.06023 c 0,0 3.7466739,-0.494602 5.4342149,-1.050708 0.184514,0.369028 0.693212,0.574045 0.693212,0.574045 0,-0.345965 0.04741,-0.652208 0.08969,-0.852099 0.07432,-0.02947 0.149918,-0.05894 0.225518,-0.08457 0.538168,0.562514 0.21783,1.356953 0.21783,1.356953 0.577889,-0.46385 0.599672,-1.194221 0.535605,-1.669602 0.009,-0.0052 0.01666,-0.009 0.02434,-0.01154 0.412596,1.283915 1.226255,2.105262 1.226255,2.105262 -0.620175,-0.86235 -0.565077,-1.827208 -0.410033,-2.484542 0,-0.0013 0,-0.0013 0.0025,-0.0025 0.334433,0.46385 0.675273,1.055834 0.650927,1.536341 0,0 0.202454,-0.799564 -0.115321,-1.814395 0.01025,-0.0064 0.02179,-0.01282 0.02947,-0.01537 0.588656,6.863076 1.504479,4.662932 0.412596,-0.229362 0.0025,-0.0052 0.0077,-0.0077 0.01282,-0.01025 0.884132,3.091904 1.737513,3.687732 1.737513,3.687732 -0.836723,-1.594002 -0.518947,-3.623664 -0.275491,-4.635932 0.131979,-0.09738 0.262677,-0.194765 0.389531,-0.294711 0.879007,1.628599 1.044302,4.962677 1.044302,4.962677 0.465131,-1.746483 -0.249864,-4.725627 -0.438222,-5.453435 0,-0.0025 0.0025,-0.0052 0.0051,-0.0077 0.706025,2.305153 2.365376,4.619275 2.365376,4.619275 -1.157061,-1.792612 -1.388986,-4.483451 -1.436396,-5.498282 0.07688,-0.08201 0.162732,-0.162732 0.237051,-0.247301 1.569656,1.109651 1.87718,4.447574 1.87718,4.447574 0.506135,-1.287759 -0.90079,-4.388632 -1.268538,-5.163851 0.01282,-0.0141 0.02179,-0.02947 0.03459,-0.04484 1.904089,2.05657 1.909215,3.897873 1.909215,3.897873 0.483069,-3.125218 -1.400518,-4.597491 -1.400518,-4.597491 l -30.951063,0 c 0.06278,0.09738 0.133261,0.190921 0.201172,0.288304"
         id="path13766"
         style="fill:#cfcccd;fill-opacity:1;fill-rule:nonzero;stroke:none" />
      <path
         d="m -4.1970632,-6.1565845 c -0.9604323,-0.2120149 -1.5669877,-1.1632712 -1.3548012,-2.1244807 0.2121864,-0.9612095 1.1626657,-1.5679362 2.123098,-1.3559214 0.9619865,0.212358 1.5687133,1.1628372 1.3565269,2.1240466 -0.2121865,0.9612096 -1.1628372,1.5687135 -2.1248237,1.3563555 m 4.09936496,-15.8790535 0.024089,0.0053 c 0.097578,0.831567 0.1900859,2.232453 0.032697,3.923699 -2.17497906,-0.801202 -2.82977846,1.57071 -2.82977846,1.57071 1.572747,0.347183 2.38435396,-0.379841 2.75954966,-0.935096 -0.1907067,1.506241 -0.595115,3.201632 -1.36304816,4.912119 -0.296598,-0.328691 -0.6939773,-0.573691 -1.1602067,-0.676611 -0.7343112,-0.162099 -1.4633334,0.06161 -1.9801955,0.535066 -0.6429867,-0.280474 -1.406467,-0.255063 -2.0489401,0.137696 -0.6783477,0.414991 -1.0538313,1.133979 -1.0616816,1.874634 -0.6959318,0.247311 -1.2555281,0.8368311 -1.4267181,1.6123259 -0.1768507,0.8011374 0.1042601,1.5949858 0.6667941,2.1143986 -0.3195874,0.6946558 -0.2723153,1.5363041 0.1979064,2.2081009 0.419449,0.5953955 1.076999,0.9206454 1.7535426,0.9420505 0.2792184,0.6141495 0.8316903,1.0979295 1.5419129,1.2547107 0.7374195,0.1627849 1.4666134,-0.061701 1.9833039,-0.5343801 0.6403924,0.2774743 1.4037014,0.2528394 2.04772846,-0.139576 0.6767936,-0.4153341 1.0522771,-1.1343224 1.0613384,-1.8730792 0.6979997,-0.2492998 1.25569884,-0.8376086 1.42723194,-1.6146575 0.1768506,-0.8011375 -0.1050371,-1.5951573 -0.66851904,-2.1139644 0.32079864,-0.692759 0.27369744,-1.5351844 -0.1980777,-2.2073244 -0.3339205,-0.477095 -0.823386,-0.777465 -1.3509114,-0.890656 0.4957646,-1.053444 0.8573227,-2.100657 1.1175233,-3.105867 0.1550181,1.169397 0.86725824,3.070541 3.77031214,3.711389 0,0 0.7352912,-4.427286 -3.55457334,-4.662849 0.49526074,-2.457655 0.41147104,-4.595745 0.2769459,-5.861667"
         id="path13766-3-6"
         style="fill:#cfcccd;fill-opacity:1;fill-rule:nonzero;stroke:none" />
    </g>
  </g>
</svg>
