<?xml version="1.0" encoding="UTF-8" standalone="no"?>
<!-- Created with Inkscape (http://www.inkscape.org/) -->

<svg
   xmlns:dc="http://purl.org/dc/elements/1.1/"
   xmlns:cc="http://creativecommons.org/ns#"
   xmlns:rdf="http://www.w3.org/1999/02/22-rdf-syntax-ns#"
   xmlns:svg="http://www.w3.org/2000/svg"
   xmlns="http://www.w3.org/2000/svg"
   xmlns:sodipodi="http://sodipodi.sourceforge.net/DTD/sodipodi-0.dtd"
   xmlns:inkscape="http://www.inkscape.org/namespaces/inkscape"
   version="1.1"
   width="48"
   height="48"
   id="svg28083"
   inkscape:version="0.48.4 r9939"
   sodipodi:docname="politique-ecologie.svg">
  <sodipodi:namedview
     pagecolor="#ffffff"
     bordercolor="#666666"
     borderopacity="1"
     objecttolerance="10"
     gridtolerance="10"
     guidetolerance="10"
     inkscape:pageopacity="0"
     inkscape:pageshadow="2"
     inkscape:window-width="1680"
     inkscape:window-height="1026"
     id="namedview26"
     showgrid="false"
     inkscape:zoom="9.8333333"
     inkscape:cx="42.283626"
     inkscape:cy="27.388447"
     inkscape:window-x="1920"
     inkscape:window-y="24"
     inkscape:window-maximized="1"
     inkscape:current-layer="g3805" />
  <defs
     id="defs28085">
    <clipPath
       id="clipPath4901">
      <path
         d="m 315.748,1648.19 0.773,0 0,-0.63 -0.773,0 0,0.63 z"
         id="path4903" />
    </clipPath>
    <clipPath
       id="clipPath4905">
      <path
         d="m 315.759,1648.18 0.762,0 0,-0.62 -0.762,0 0,0.62 z"
         id="path4907" />
    </clipPath>
    <clipPath
       id="clipPath4909">
      <path
         d="m 315.748,1648.19 0.011,0 0,-0.01 -0.011,0 0,0.01 z"
         id="path4911" />
    </clipPath>
    <clipPath
       id="clipPath4857">
      <path
         d="m 327.146,1644.07 0.45,0 0,-0.02 -0.45,0 0,0.02 z"
         id="path4859" />
    </clipPath>
    <clipPath
       id="clipPath4861">
      <path
         d="m 327.146,1644.07 0.446,0 0,-0.02 -0.446,0 0,0.02 z"
         id="path4863" />
    </clipPath>
    <clipPath
       id="clipPath4865">
      <path
         d="m 327.592,1644.05 0.004,0 0,0 -0.004,0 z"
         id="path4867" />
    </clipPath>
  </defs>
  <metadata
     id="metadata28088">
    <rdf:RDF>
      <cc:Work
         rdf:about="">
        <dc:format>image/svg+xml</dc:format>
        <dc:type
           rdf:resource="http://purl.org/dc/dcmitype/StillImage" />
        <dc:title />
      </cc:Work>
    </rdf:RDF>
  </metadata>
  <g
     id="g3805">
    <path
       inkscape:connector-curvature="0"
       d="m 24.523329,11.738175 c 2.42353,0 4.395284,-1.9717546 4.395284,-4.3952848 0,-2.4240384 -1.971754,-4.3957928 -4.395284,-4.3957928 -2.424039,0 -4.395793,1.9717544 -4.395793,4.3957928 0,2.4235302 1.971754,4.3952848 4.395793,4.3952848 z m 0,-7.6232705 c 1.779661,0 3.227477,1.4478166 3.227477,3.2279857 0,1.7796608 -1.447816,3.2274778 -3.227477,3.2274778 -1.779661,0 -3.227986,-1.447817 -3.227986,-3.2274778 0,-1.7796609 1.448325,-3.2279857 3.227986,-3.2279857 z"
       id="path6"
       style="color:#000000;fill:#cfcccd;fill-opacity:1;fill-rule:nonzero;stroke:none;stroke-width:1.10483432;marker:none;visibility:visible;display:inline;overflow:visible;enable-background:accumulate" />
    <path
       inkscape:connector-curvature="0"
       d="m 36.859499,32.714492 c 0.322188,0 0.583903,-0.261207 0.583903,-0.583904 V 20.394583 c 0,-0.322188 -0.261206,-0.583903 -0.583903,-0.583903 H 35.636808 C 35.022413,17.112222 33.511582,12.5594 29.411552,12.5594 H 19.343408 c -1.332967,0 -2.523135,-1.803545 -3.183774,-4.8236835 -0.259174,-1.2013473 -1.338049,-2.0733913 -2.565822,-2.0733913 -0.185995,0 -0.373515,0.019819 -0.557478,0.059458 -1.415801,0.3059268 -2.319352,1.7069905 -2.013425,3.1232997 0.323713,1.4976185 2.20247,8.9694505 7.422029,8.9694505 h 0.314566 v 1.996655 h -5.404538 c -0.322189,0 -0.583904,0.261207 -0.583904,0.583904 v 11.736004 c 0,0.322189 0.261207,0.583904 0.583904,0.583904 h 2.397613 v 10.550919 h -2.397613 c -0.322189,0 -0.583904,0.261207 -0.583904,0.583903 v 2.843291 c 0,0.322188 0.261207,0.583903 0.583904,0.583903 h 23.504533 c 0.322188,0 0.583903,-0.261206 0.583903,-0.583903 v -2.843291 c 0,-0.322188 -0.261206,-0.583903 -0.583903,-0.583903 H 34.388707 V 32.714492 h 2.470792 z M 19.343408,16.646217 h -0.89847 c -4.322106,0 -5.989966,-6.7044731 -6.280139,-8.048112 -0.169734,-0.786669 0.332352,-1.5652071 1.118513,-1.7349406 0.103161,-0.021852 0.207339,-0.03354 0.311009,-0.03354 0.681474,0 1.280115,0.4848077 1.42444,1.153578 0.798357,3.6502868 2.374744,5.7434968 4.324647,5.7434968 H 29.41206 c 2.979484,0 4.308385,3.140578 5.019335,6.083473 h -2.916469 c -0.218011,-0.889323 -0.577805,-1.714614 -1.373113,-2.302583 -0.176849,-0.131111 -0.413662,-0.151439 -0.609821,-0.05183 -0.197176,0.0996 -0.321173,0.300845 -0.321173,0.521397 v 1.83302 h -9.284016 v -2.580051 c 0,-0.322189 -0.261207,-0.583904 -0.583395,-0.583904 z m -2.42353,26.619702 V 23.878186 H 33.2209 V 43.265919 H 16.919878 z"
       id="path8"
       style="color:#000000;fill:#cfcccd;fill-opacity:1;fill-rule:nonzero;stroke:none;stroke-width:1.10483432;marker:none;visibility:visible;display:inline;overflow:visible;enable-background:accumulate" />
    <path
       style="color:#000000;fill:#cfcccd;fill-opacity:1;fill-rule:nonzero;stroke:none;stroke-width:0.79999995;marker:none;visibility:visible;display:inline;overflow:visible;enable-background:accumulate"
       d="M 22.53125 37.71875 C 22.44703 37.745439 22.431328 38.649503 22.75 39.75 C 22.702363 38.306362 22.598379 37.697477 22.53125 37.71875 z M 22.75 39.75 C 22.760015 40.0535 22.778632 40.331935 22.78125 40.71875 C 22.173334 38.650397 21.59375 38.25 21.59375 38.25 C 22.127925 39.269788 21.968976 40.524952 21.8125 41.28125 C 21.679406 41.370279 21.5634 41.46987 21.4375 41.5625 C 20.880844 40.381741 20.78125 38.21875 20.78125 38.21875 C 20.482688 39.33656 20.861286 41.173558 21.03125 41.875 C 20.504452 40.324345 19.40625 38.8125 19.40625 38.8125 C 20.140066 39.951893 20.35049 41.606562 20.40625 42.4375 C 20.308228 42.532824 20.21943 42.62073 20.125 42.71875 C 19.20143 41.821264 19.28125 39.5625 19.28125 39.5625 C 18.654449 40.665921 19.407373 42.44042 19.75 43.15625 C 19.73291 43.17694 19.70458 43.19717 19.6875 43.21875 C 19.377022 42.82891 19.135076 42.364576 18.9375 41.875 L 19.34375 43.65625 C 19.296092 43.724595 19.26281 43.80666 19.21875 43.875 L 33.96875 43.875 L 33.96875 39.4375 C 32.729551 39.175219 31.25 38.96875 31.25 38.96875 L 30.0625 38.9375 C 28.365551 38.9375 26.746184 39.197616 25.28125 39.65625 C 25.13017 39.437725 24.84375 39.3125 24.84375 39.3125 C 24.84375 39.504947 24.83408 39.677608 24.8125 39.8125 C 24.731565 39.84038 24.64344 39.87658 24.5625 39.90625 C 24.27293 39.515062 24.46875 39 24.46875 39 C 24.10184 39.294965 24.06767 39.763713 24.09375 40.09375 C 24.08206 40.10004 24.04384 40.09015 24.03125 40.09375 C 23.730889 39.246625 23.21875 38.71875 23.21875 38.71875 C 23.614438 39.267313 23.61398 39.86016 23.53125 40.3125 C 23.50157 40.32689 23.46898 40.35971 23.4375 40.375 C 23.221672 40.063848 23.01506 39.682555 23.03125 39.375 C 23.03125 39.375 22.917491 39.871176 23.09375 40.53125 C 23.07936 40.53755 23.07419 40.5553 23.0625 40.5625 C 22.945413 40.285204 22.826561 40.014392 22.75 39.75 z M 18.1875 38.78125 C 18.1875 38.78125 18.345 40.338229 18.90625 41.78125 L 18.1875 38.78125 z "
       id="path13766" />
    <path
       style="color:#000000;fill:#cfcccd;fill-opacity:1;fill-rule:nonzero;stroke:none;stroke-width:0.79999995;marker:none;visibility:visible;display:inline;overflow:visible;enable-background:accumulate"
       id="path13766-3-6"
       d="m 23.742384,28.387781 c -0.674055,0.148797 -1.09975,0.816412 -0.950832,1.491011 0.148917,0.6746 0.815987,1.100416 1.490041,0.951619 0.675145,-0.149038 1.100961,-0.816107 0.952043,-1.490707 -0.148917,-0.6746 -0.816107,-1.100961 -1.491252,-0.951923 m 2.877033,11.144303 0.01691,-0.0037 c 0.06848,-0.583613 0.133408,-1.566789 0.02295,-2.753746 -1.526453,0.562303 -1.986007,-1.102363 -1.986007,-1.102363 1.103792,-0.243661 1.673397,0.266582 1.936719,0.656273 -0.133843,-1.057116 -0.417666,-2.246982 -0.956621,-3.447443 -0.208159,0.230683 -0.487049,0.40263 -0.81426,0.474861 -0.515358,0.113766 -1.027003,-0.04324 -1.389749,-0.375522 -0.451264,0.196844 -0.987093,0.17901 -1.437996,-0.09664 -0.476079,-0.291265 -0.739603,-0.795868 -0.745112,-1.315678 -0.488422,-0.173568 -0.88116,-0.587308 -1.001305,-1.131569 -0.124119,-0.562257 0.07317,-1.119399 0.467972,-1.483936 -0.224294,-0.487526 -0.191118,-1.078215 0.138895,-1.549698 0.29438,-0.417863 0.755864,-0.646131 1.230679,-0.661154 0.195962,-0.431025 0.5837,-0.770553 1.082152,-0.880586 0.517538,-0.114247 1.029304,0.04331 1.39193,0.37504 0.449443,-0.194738 0.985152,-0.177448 1.437145,0.09796 0.47499,0.291492 0.738514,0.796095 0.744873,1.314572 0.489873,0.174965 0.88128,0.587854 1.001666,1.133206 0.124118,0.562258 -0.07372,1.11952 -0.469182,1.483632 0.225144,0.486194 0.192087,1.077429 -0.139017,1.549153 -0.234353,0.334837 -0.577871,0.545644 -0.948102,0.625084 0.34794,0.739332 0.60169,1.474292 0.784305,2.179773 0.108796,-0.820711 0.608663,-2.15498 2.646097,-2.604743 0,0 0.516045,3.107176 -2.494686,3.2725 0.347586,1.724842 0.288781,3.225405 0.194367,4.113859"
       inkscape:connector-curvature="0" />
  </g>
</svg>
