<?xml version="1.0" encoding="UTF-8" standalone="no"?>
<!-- Created with Inkscape (http://www.inkscape.org/) -->

<svg
   xmlns:dc="http://purl.org/dc/elements/1.1/"
   xmlns:cc="http://creativecommons.org/ns#"
   xmlns:rdf="http://www.w3.org/1999/02/22-rdf-syntax-ns#"
   xmlns:svg="http://www.w3.org/2000/svg"
   xmlns="http://www.w3.org/2000/svg"
   xmlns:sodipodi="http://sodipodi.sourceforge.net/DTD/sodipodi-0.dtd"
   xmlns:inkscape="http://www.inkscape.org/namespaces/inkscape"
   width="48px"
   height="48px"
   id="svg28083"
   version="1.1"
   inkscape:version="0.48.4 r9943 custom"
   sodipodi:docname="energie-fossile.svg">
  <defs
     id="defs28085">
    <clipPath
       clipPathUnits="userSpaceOnUse"
       id="clipPath4901">
      <path
         inkscape:connector-curvature="0"
         d="m 315.748,1648.19 0.773,0 0,-0.63 -0.773,0 0,0.63 z"
         id="path4903" />
    </clipPath>
    <clipPath
       clipPathUnits="userSpaceOnUse"
       id="clipPath4905">
      <path
         inkscape:connector-curvature="0"
         d="m 315.759,1648.18 0.762,0 0,-0.62 -0.762,0 0,0.62 z"
         id="path4907" />
    </clipPath>
    <clipPath
       clipPathUnits="userSpaceOnUse"
       id="clipPath4909">
      <path
         inkscape:connector-curvature="0"
         d="m 315.748,1648.19 0.011,0 0,-0.01 -0.011,0 0,0.01 z"
         id="path4911" />
    </clipPath>
    <clipPath
       clipPathUnits="userSpaceOnUse"
       id="clipPath4857">
      <path
         inkscape:connector-curvature="0"
         d="m 327.146,1644.07 0.45,0 0,-0.02 -0.45,0 0,0.02 z"
         id="path4859" />
    </clipPath>
    <clipPath
       clipPathUnits="userSpaceOnUse"
       id="clipPath4861">
      <path
         inkscape:connector-curvature="0"
         d="m 327.146,1644.07 0.446,0 0,-0.02 -0.446,0 0,0.02 z"
         id="path4863" />
    </clipPath>
    <clipPath
       clipPathUnits="userSpaceOnUse"
       id="clipPath4865">
      <path
         inkscape:connector-curvature="0"
         d="m 327.592,1644.05 0.004,0 0,0 -0.004,0 z"
         id="path4867" />
    </clipPath>
  </defs>
  <sodipodi:namedview
     id="base"
     pagecolor="#ffffff"
     bordercolor="#666666"
     borderopacity="1.0"
     inkscape:pageopacity="0.0"
     inkscape:pageshadow="2"
     inkscape:zoom="7"
     inkscape:cx="21.676997"
     inkscape:cy="12.571428"
     inkscape:current-layer="layer1"
     showgrid="true"
     inkscape:grid-bbox="true"
     inkscape:document-units="px"
     inkscape:window-width="887"
     inkscape:window-height="690"
     inkscape:window-x="391"
     inkscape:window-y="23"
     inkscape:window-maximized="0" />
  <metadata
     id="metadata28088">
    <rdf:RDF>
      <cc:Work
         rdf:about="">
        <dc:format>image/svg+xml</dc:format>
        <dc:type
           rdf:resource="http://purl.org/dc/dcmitype/StillImage" />
        <dc:title></dc:title>
      </cc:Work>
    </rdf:RDF>
  </metadata>
  <g
     id="layer1"
     inkscape:label="Layer 1"
     inkscape:groupmode="layer">
    <g
       id="g4686"
       style="fill:#4d4d4d"
       transform="matrix(0.39431967,0.14068799,-0.14068799,0.39431967,16.771765,5.1592017)">
      <path
         d="M 76.741272,54.126099 C 85.411438,45.455871 89.705139,27.963318 81.564331,19.82251 73.423462,11.681702 55.930908,15.975403 47.260742,24.645569 l 12.97284,12.972839 -5.539246,5.539124 -11.558594,-11.558411 -3.535156,3.535156 11.558594,11.55835 -5.48053,5.480469 -11.558533,-11.55835 -3.535156,3.535156 11.558533,11.55835 -5.480347,5.480286 -8.819397,-8.819397 -3.535156,3.535156 8.819336,8.819336 -3.468933,3.468933 -17.395325,-0.696472 -0.199219,4.996093 16.182617,0.64795 0.647461,16.182128 4.996094,-0.200195 -0.696838,-17.393982 3.469299,-3.469299 8.819336,8.819336 3.535156,-3.535156 -8.819275,-8.819275 5.480408,-5.480347 11.558594,11.558411 3.535156,-3.535157 -11.558594,-11.55841 5.480469,-5.480408 11.558594,11.55835 3.535156,-3.535156 -11.558533,-11.55835 5.539185,-5.539062 12.972534,12.972534 z M 62.217773,26.847656 h 5.364258 v -5.365234 h 3 v 5.365234 h 5.365235 v 3 h -5.365235 v 5.364746 h -3 v -5.364746 h -5.364258 v -3 z"
         id="path4688"
         style="fill:#4d4d4d"
         inkscape:connector-curvature="0" />
    </g>
    <g
       transform="matrix(0.80286087,0,0,-0.80286087,14.06058,26.15919)"
       id="g4969">
      <path
         inkscape:connector-curvature="0"
         id="path4971"
         style="fill:#cfcccd;fill-opacity:1;fill-rule:nonzero;stroke:none"
         d="M 0,0 C -0.727,0.262 -0.926,0.659 0.064,1.253 1.053,1.846 2.57,2.901 4.418,6.335 4.418,6.335 4.09,1.187 0,0 m 0.908,16.945 c -2.178,2.31 -3.205,5.909 -3.205,5.909 0,0 -1.332,-3.555 -3.111,-5.629 C -7.184,15.152 -14.74,6.854 -7.777,0.188 -4.074,-2.923 1.258,-2.479 3.926,0.93 6.592,4.336 7.428,9.833 0.908,16.945" />
    </g>
  </g>
</svg>
