<?xml version="1.0" encoding="UTF-8" standalone="no"?>
<!-- Created with Inkscape (http://www.inkscape.org/) -->

<svg
   xmlns:dc="http://purl.org/dc/elements/1.1/"
   xmlns:cc="http://creativecommons.org/ns#"
   xmlns:rdf="http://www.w3.org/1999/02/22-rdf-syntax-ns#"
   xmlns:svg="http://www.w3.org/2000/svg"
   xmlns="http://www.w3.org/2000/svg"
   xmlns:sodipodi="http://sodipodi.sourceforge.net/DTD/sodipodi-0.dtd"
   xmlns:inkscape="http://www.inkscape.org/namespaces/inkscape"
   width="48px"
   height="48px"
   id="svg28083"
   version="1.1"
   inkscape:version="0.48.4 r9939"
   sodipodi:docname="poubelle-recycle.svg">
  <defs
     id="defs28085" />
  <sodipodi:namedview
     id="base"
     pagecolor="#ffffff"
     bordercolor="#666666"
     borderopacity="1.0"
     inkscape:pageopacity="0.0"
     inkscape:pageshadow="2"
     inkscape:zoom="7"
     inkscape:cx="32.318076"
     inkscape:cy="24"
     inkscape:current-layer="layer1"
     showgrid="true"
     inkscape:grid-bbox="true"
     inkscape:document-units="px"
     inkscape:window-width="651"
     inkscape:window-height="653"
     inkscape:window-x="1920"
     inkscape:window-y="278"
     inkscape:window-maximized="0" />
  <metadata
     id="metadata28088">
    <rdf:RDF>
      <cc:Work
         rdf:about="">
        <dc:format>image/svg+xml</dc:format>
        <dc:type
           rdf:resource="http://purl.org/dc/dcmitype/StillImage" />
        <dc:title />
      </cc:Work>
    </rdf:RDF>
  </metadata>
  <g
     id="layer1"
     inkscape:label="Layer 1"
     inkscape:groupmode="layer">
    <g
       id="g2986">
      <g
         style="fill:#cfcccd"
         id="g4977"
         transform="matrix(1.25,0,0,-1.25,31.679613,27.899161)">
        <path
           d="M 0,0 -1.199,-2.068 C -1.34,-2.313 -1.685,-2.512 -1.965,-2.512 l -2.289,0.006 -0.004,-1.279 -2.547,2.555 2.553,2.547 -0.002,-1.275 1.8,-0.004 1.928,-0.008 c 0.156,0 0.289,0.031 0.39,0.086 0.088,0.049 0.151,0.113 0.192,0.194 L 0.095,0.289 C 0.079,0.185 0.049,0.082 0,0 m -5.896,5.444 -0.893,1.562 -0.954,1.675 c -0.077,0.136 -0.172,0.235 -0.27,0.297 -0.085,0.05 -0.176,0.074 -0.264,0.068 l 0,0.044 c 0.099,0.039 0.201,0.062 0.297,0.062 l 2.393,-0.007 c 0.28,0 0.624,-0.2 0.765,-0.444 l 1.136,-1.984 1.112,0.631 -0.945,-3.483 -3.482,0.945 1.105,0.634 z m -1.443,-6.933 0,-0.93 -3.317,0 -0.181,0.004 c -0.017,0.002 -0.037,0.006 -0.053,0.008 -0.088,0.011 -0.176,0.044 -0.261,0.088 -0.148,0.087 -0.225,0.227 -0.223,0.4 0,0.12 0.039,0.249 0.118,0.385 l 0.971,1.669 2.946,0 0,-1.624 z m -4.192,-0.673 -0.038,-0.023 c -0.083,0.067 -0.158,0.143 -0.203,0.227 l -1.189,2.074 c -0.141,0.243 -0.141,0.643 0.003,0.884 l 1.149,1.979 -1.104,0.646 3.489,0.924 0.924,-3.488 -1.103,0.64 -0.905,-1.553 -0.973,-1.668 c -0.08,-0.134 -0.119,-0.263 -0.122,-0.379 -0.002,-0.099 0.024,-0.189 0.072,-0.263 m 2.555,10.666 0.094,0.157 c 0.008,0.014 0.021,0.029 0.03,0.042 0.058,0.067 0.129,0.132 0.209,0.183 0.149,0.084 0.311,0.08 0.462,-0.011 0.099,-0.06 0.189,-0.16 0.269,-0.295 l 0.955,-1.677 -1.482,-2.548 -1.403,0.816 -0.802,0.468 1.668,2.865 z M -0.142,1.249 -0.05,1.085 C -0.041,1.066 -0.034,1.053 -0.025,1.036 0.006,0.95 0.025,0.855 0.031,0.759 0.031,0.582 -0.053,0.437 -0.21,0.35 -0.314,0.291 -0.45,0.257 -0.612,0.255 l -1.986,-0.008 -1.537,2.612 1.441,0.848 0.825,0.484 1.727,-2.942 z m 1.549,11.821 -15.784,0 c -1.681,0 -2.836,-1.554 -2.598,-3.393 l 2.223,-16.909 c 0.141,-1.099 1.252,-1.96 2.481,-1.96 l 11.571,0 c 1.23,0 2.34,0.861 2.482,1.96 L 4.001,9.677 C 4.243,11.516 3.085,13.07 1.407,13.07"
           style="fill:#cfcccd;fill-opacity:1;fill-rule:nonzero;stroke:none"
           id="path4979"
           inkscape:connector-curvature="0" />
      </g>
      <g
         style="fill:#cfcccd"
         id="g4981"
         transform="matrix(1.25,0,0,-1.25,11.840733,9.5556607)">
        <path
           d="M 0,0 18.771,0 C 19.34,0 19.8,0.415 19.8,0.926 19.8,1.437 19.34,1.85 18.771,1.85 l -7.087,0 c -0.049,0.538 -0.57,0.963 -1.216,0.963 l -2.167,0 C 7.657,2.813 7.136,2.388 7.085,1.85 L 0,1.85 C -0.566,1.85 -1.028,1.437 -1.028,0.926 -1.028,0.415 -0.566,0 0,0"
           style="fill:#cfcccd;fill-opacity:1;fill-rule:nonzero;stroke:none"
           id="path4983"
           inkscape:connector-curvature="0" />
      </g>
    </g>
  </g>
</svg>
