<?xml version="1.0" encoding="UTF-8" standalone="no"?>
<!-- Created with Inkscape (http://www.inkscape.org/) -->

<svg
   xmlns:dc="http://purl.org/dc/elements/1.1/"
   xmlns:cc="http://creativecommons.org/ns#"
   xmlns:rdf="http://www.w3.org/1999/02/22-rdf-syntax-ns#"
   xmlns:svg="http://www.w3.org/2000/svg"
   xmlns="http://www.w3.org/2000/svg"
   xmlns:sodipodi="http://sodipodi.sourceforge.net/DTD/sodipodi-0.dtd"
   xmlns:inkscape="http://www.inkscape.org/namespaces/inkscape"
   width="48px"
   height="48px"
   id="svg28083"
   version="1.1"
   inkscape:version="0.48.4 r9943 custom"
   sodipodi:docname="pourcent-piste-naturelle.svg">
  <defs
     id="defs28085">
    <clipPath
       clipPathUnits="userSpaceOnUse"
       id="clipPath4901">
      <path
         inkscape:connector-curvature="0"
         d="m 315.748,1648.19 0.773,0 0,-0.63 -0.773,0 0,0.63 z"
         id="path4903" />
    </clipPath>
    <clipPath
       clipPathUnits="userSpaceOnUse"
       id="clipPath4905">
      <path
         inkscape:connector-curvature="0"
         d="m 315.759,1648.18 0.762,0 0,-0.62 -0.762,0 0,0.62 z"
         id="path4907" />
    </clipPath>
    <clipPath
       clipPathUnits="userSpaceOnUse"
       id="clipPath4909">
      <path
         inkscape:connector-curvature="0"
         d="m 315.748,1648.19 0.011,0 0,-0.01 -0.011,0 0,0.01 z"
         id="path4911" />
    </clipPath>
    <clipPath
       clipPathUnits="userSpaceOnUse"
       id="clipPath4857">
      <path
         inkscape:connector-curvature="0"
         d="m 327.146,1644.07 0.45,0 0,-0.02 -0.45,0 0,0.02 z"
         id="path4859" />
    </clipPath>
    <clipPath
       clipPathUnits="userSpaceOnUse"
       id="clipPath4861">
      <path
         inkscape:connector-curvature="0"
         d="m 327.146,1644.07 0.446,0 0,-0.02 -0.446,0 0,0.02 z"
         id="path4863" />
    </clipPath>
    <clipPath
       clipPathUnits="userSpaceOnUse"
       id="clipPath4865">
      <path
         inkscape:connector-curvature="0"
         d="m 327.592,1644.05 0.004,0 0,0 -0.004,0 z"
         id="path4867" />
    </clipPath>
  </defs>
  <sodipodi:namedview
     id="base"
     pagecolor="#ffffff"
     bordercolor="#666666"
     borderopacity="1.0"
     inkscape:pageopacity="0.0"
     inkscape:pageshadow="2"
     inkscape:zoom="7"
     inkscape:cx="31.175219"
     inkscape:cy="18.285714"
     inkscape:current-layer="layer1"
     showgrid="true"
     inkscape:grid-bbox="true"
     inkscape:document-units="px"
     inkscape:window-width="887"
     inkscape:window-height="690"
     inkscape:window-x="391"
     inkscape:window-y="23"
     inkscape:window-maximized="0" />
  <metadata
     id="metadata28088">
    <rdf:RDF>
      <cc:Work
         rdf:about="">
        <dc:format>image/svg+xml</dc:format>
        <dc:type
           rdf:resource="http://purl.org/dc/dcmitype/StillImage" />
        <dc:title></dc:title>
      </cc:Work>
    </rdf:RDF>
  </metadata>
  <g
     id="layer1"
     inkscape:label="Layer 1"
     inkscape:groupmode="layer">
    <g
       transform="matrix(1.3604091,0,0,-1.3604091,29.270881,6.6418173)"
       id="g8957">
      <path
         inkscape:connector-curvature="0"
         id="path8959"
         style="fill:#cfcccd;fill-opacity:1;fill-rule:nonzero;stroke:none"
         d="m 0,0 c 0,0 -0.415,0.958 -0.702,0 -0.262,-0.874 -2.696,-7.493 -3.13,-8.673 l -0.931,0.715 3.511,8.949 c 0.493,1.254 1.298,1.254 1.789,0 L 3.364,-6.209 2.73,-7.133 0,0 z" />
    </g>
    <g
       transform="matrix(1.3604091,0,0,-1.3604091,1.5167624,44.955182)"
       id="g8961">
      <path
         inkscape:connector-curvature="0"
         id="path8963"
         style="fill:#cfcccd;fill-opacity:1;fill-rule:nonzero;stroke:none"
         d="m 0,0 4.899,12.223 c 0.281,0.713 0.738,1.878 1.018,2.591 l 0.786,2.003 0.519,-0.754 c 0.076,-0.11 0.218,-0.151 0.343,-0.097 l 0.881,0.382 1.585,-1.487 c 0.054,-0.05 0.122,-0.076 0.192,-0.076 0.059,0 0.119,0.019 0.171,0.059 l 1.391,1.068 0.431,-1.098 c 0.177,-0.449 0.423,-1.08 0.652,-1.664 0.494,1.259 1.192,3.038 1.637,4.169 l 0.758,1.93 2.446,-1.877 c 0.09,-0.069 0.195,-0.102 0.301,-0.102 0.121,0 0.242,0.043 0.337,0.133 l 2.786,2.615 1.553,-0.673 c 0.216,-0.094 0.469,-0.021 0.603,0.173 l 0.912,1.327 1.382,-3.526 c 0.494,-1.253 1.298,-3.303 1.79,-4.557 L 32.018,0.928 c 0.492,-1.254 0.089,-2.281 -0.895,-2.281 l -9.289,0 -3.578,0 -9.29,0 c -0.132,0 -0.252,0.021 -0.363,0.058 l -0.555,0 -7.539,0 C -0.05,-1.295 -0.28,-0.713 0,0" />
    </g>
    <g
       transform="matrix(1.3604091,0,0,-1.3604091,14.54159,15.64925)"
       id="g8965">
      <path
         inkscape:connector-curvature="0"
         id="path8967"
         style="fill:#cfcccd;fill-opacity:1;fill-rule:nonzero;stroke:none"
         d="m 0,0 1.997,-5.088 -0.53,-0.405 c -0.246,0.669 -1.631,4.433 -1.779,4.931 -0.163,0.543 -0.4,0 -0.4,0 L -2.263,-4.618 -2.624,-4.094 -1.018,0 C -0.738,0.713 -0.28,0.713 0,0" />
    </g>
    <g
       transform="matrix(1.3604091,0,0,-1.3604091,19.492935,9.2855819)"
       id="g8969">
      <path
         inkscape:connector-curvature="0"
         id="path8971"
         style="fill:#cfcccd;fill-opacity:1;fill-rule:nonzero;stroke:none"
         d="m 0,0 c -0.11,-0.881 -0.854,-1.565 -1.766,-1.565 -0.466,0 -0.888,0.182 -1.206,0.475 -0.31,-0.53 -0.88,-0.891 -1.539,-0.891 -0.452,0 -0.859,0.172 -1.173,0.447 -0.301,-0.225 -0.67,-0.364 -1.073,-0.364 -0.651,0 -1.215,0.35 -1.527,0.868 -0.126,-0.022 -0.254,-0.036 -0.386,-0.036 -1.173,0 -2.123,0.948 -2.123,2.123 0,1.17 0.95,2.119 2.123,2.119 0.043,0 0.084,-0.003 0.127,-0.005 0.019,0.97 0.808,1.752 1.786,1.752 0.521,0 0.985,-0.227 1.312,-0.581 0.388,0.505 0.996,0.831 1.682,0.831 0.938,0 1.733,-0.61 2.013,-1.454 0.128,0.024 0.263,0.04 0.4,0.04 1.171,0 2.121,-0.949 2.121,-2.122 C 0.771,0.979 0.472,0.39 0,0" />
    </g>
    <path
       style="fill:none;stroke:#ffffff;stroke-width:2.17665458;stroke-linecap:butt;stroke-linejoin:miter;stroke-miterlimit:4;stroke-opacity:1;stroke-dasharray:none"
       d="m 38.593725,26.54318 c 0,0 -9.768665,3.627975 -6.529965,10.883273 3.238701,7.255298 -8.240191,8.084716 -8.240191,8.084716"
       id="path4326"
       inkscape:connector-curvature="0"
       sodipodi:nodetypes="czc" />
    <text
       xml:space="preserve"
       style="font-size:10.37742615px;font-style:normal;font-weight:normal;line-height:125%;letter-spacing:0px;word-spacing:0px;fill:#000000;fill-opacity:1;stroke:none;font-family:Sans"
       x="8.3926086"
       y="37.037304"
       id="text4364"
       sodipodi:linespacing="125%"><tspan
         sodipodi:role="line"
         id="tspan4366"
         x="8.3926086"
         y="37.037304"
         style="font-style:normal;font-variant:normal;font-weight:bold;font-stretch:normal;fill:#ffffff;font-family:Arial;-inkscape-font-specification:Arial Bold">%</tspan></text>
    <g
       id="g4496"
       transform="matrix(0.14000151,-0.18813516,0.18813516,0.14000151,13.784884,33.908643)"
       style="fill:#ffffff">
      <path
         d="m 52.966,26.059 -0.418,-1.564 -1.615,0.146 c -5.647,0.516 -11.324,0.836 -17.009,0.962 -1.493,-1.306 -3.442,-2.104 -5.579,-2.104 -2.137,0 -4.087,0.799 -5.582,2.105 C 17.078,25.477 11.403,25.157 5.758,24.641 L 4.14,24.488 3.724,26.058 c -0.557,2.096 -0.825,4.341 -0.796,6.67 l 0.018,1.994 1.21,-0.058 c 0.121,1.317 0.337,2.621 0.672,3.882 l 0.17,0.637 0.656,-0.062 c 4.255,-0.39 8.537,-0.645 12.829,-0.81 l -3.072,3.076 h 5.355 v 5.357 l 6.063,-6.071 0.288,-0.285 c 0.4,0.059 0.81,0.095 1.228,0.095 0.414,0 0.82,-0.036 1.219,-0.094 l 6.357,6.355 v -5.357 h 5.363 l -3.072,-3.076 c 4.29,0.163 8.572,0.42 12.826,0.81 l 0.656,0.061 0.17,-0.636 c 0.335,-1.261 0.55,-2.564 0.671,-3.881 l 1.21,0.057 0.021,-1.997 c 0.024,-2.345 -0.245,-4.588 -0.8,-6.666 z m -1.893,0.134 0.306,-0.026 0.078,0.294 c 0.52,1.941 0.771,4.044 0.75,6.248 L 52.203,33.088 51.83,33.07 c -4.985,-0.237 -10.012,-0.39 -15.023,-0.477 0.016,-0.2 0.031,-0.4 0.031,-0.604 0,-1.812 -0.575,-3.488 -1.545,-4.868 5.274,-0.146 10.54,-0.447 15.78,-0.928 z M 5.232,26.459 5.31,26.166 5.614,26.193 c 5.239,0.48 10.506,0.781 15.779,0.928 -0.971,1.38 -1.546,3.057 -1.546,4.868 0,0.204 0.017,0.404 0.031,0.604 -5.01,0.087 -10.034,0.239 -15.019,0.476 L 4.489,33.088 4.486,32.712 C 4.461,30.522 4.711,28.418 5.232,26.459 z M 6.178,37.508 C 5.959,36.563 5.812,35.585 5.721,34.596 c 4.788,-0.22 9.608,-0.363 14.417,-0.445 0.166,0.631 0.407,1.231 0.706,1.797 l -0.737,0.738 c -4.655,0.152 -9.313,0.412 -13.929,0.822 z m 12.8,2.4 2.687,-2.688 c 0.971,1.239 2.277,2.201 3.781,2.75 l -3.202,3.204 v -3.267 h -3.266 z m 8.163,-1.015 -0.815,-0.248 C 24.888,38.212 23.607,37.297 22.72,36.068 l -0.533,-0.73 c -0.543,-0.995 -0.852,-2.136 -0.852,-3.348 0,-3.868 3.145,-7.015 7.011,-7.015 3.868,0 7.016,3.146 7.016,7.015 0,1.206 -0.307,2.341 -0.844,3.334 l -0.55,0.745 c -0.882,1.227 -2.161,2.142 -3.604,2.576 l -0.82,0.249 c -0.39,0.067 -0.788,0.11 -1.197,0.11 -0.413,0 -0.815,-0.043 -1.206,-0.111 z m 7.882,-1.675 2.686,2.69 h -3.263 v 3.267 L 31.24,39.971 c 1.505,-0.549 2.814,-1.512 3.783,-2.753 z m 15.491,0.29 C 45.899,37.099 41.242,36.839 36.589,36.687 l -0.743,-0.745 c 0.297,-0.564 0.537,-1.161 0.702,-1.791 4.81,0.082 9.633,0.226 14.423,0.446 -0.092,0.989 -0.24,1.966 -0.457,2.911 z"
         id="path4498"
         inkscape:connector-curvature="0"
         style="fill:#ffffff" />
      <path
         d="m 29.13,36.712 c 2.272,-0.378 4.016,-2.344 4.016,-4.723 0,-2.648 -2.154,-4.803 -4.801,-4.803 -2.648,0 -4.804,2.154 -4.804,4.803 0,2.379 1.743,4.345 4.019,4.723 0.254,0.048 0.516,0.079 0.785,0.079 0.269,0 0.529,-0.031 0.785,-0.079 z m -4.109,-4.723 c 0,-1.832 1.491,-3.324 3.324,-3.324 1.832,0 3.323,1.492 3.323,3.324 0,1.832 -1.491,3.323 -3.323,3.323 -1.833,0 -3.324,-1.491 -3.324,-3.323 z"
         id="path4500"
         inkscape:connector-curvature="0"
         style="fill:#ffffff" />
    </g>
  </g>
</svg>
