<?xml version="1.0" encoding="UTF-8" standalone="no"?>
<!-- Created with Inkscape (http://www.inkscape.org/) -->

<svg
   xmlns:dc="http://purl.org/dc/elements/1.1/"
   xmlns:cc="http://creativecommons.org/ns#"
   xmlns:rdf="http://www.w3.org/1999/02/22-rdf-syntax-ns#"
   xmlns:svg="http://www.w3.org/2000/svg"
   xmlns="http://www.w3.org/2000/svg"
   xmlns:sodipodi="http://sodipodi.sourceforge.net/DTD/sodipodi-0.dtd"
   xmlns:inkscape="http://www.inkscape.org/namespaces/inkscape"
   width="48px"
   height="48px"
   id="svg28083"
   version="1.1"
   inkscape:version="0.48.4 r9939"
   sodipodi:docname="pourcent-piste-classee.svg">
  <defs
     id="defs28085">
    <clipPath
       clipPathUnits="userSpaceOnUse"
       id="clipPath4901">
      <path
         inkscape:connector-curvature="0"
         d="m 315.748,1648.19 0.773,0 0,-0.63 -0.773,0 0,0.63 z"
         id="path4903" />
    </clipPath>
    <clipPath
       clipPathUnits="userSpaceOnUse"
       id="clipPath4905">
      <path
         inkscape:connector-curvature="0"
         d="m 315.759,1648.18 0.762,0 0,-0.62 -0.762,0 0,0.62 z"
         id="path4907" />
    </clipPath>
    <clipPath
       clipPathUnits="userSpaceOnUse"
       id="clipPath4909">
      <path
         inkscape:connector-curvature="0"
         d="m 315.748,1648.19 0.011,0 0,-0.01 -0.011,0 0,0.01 z"
         id="path4911" />
    </clipPath>
    <clipPath
       clipPathUnits="userSpaceOnUse"
       id="clipPath4857">
      <path
         inkscape:connector-curvature="0"
         d="m 327.146,1644.07 0.45,0 0,-0.02 -0.45,0 0,0.02 z"
         id="path4859" />
    </clipPath>
    <clipPath
       clipPathUnits="userSpaceOnUse"
       id="clipPath4861">
      <path
         inkscape:connector-curvature="0"
         d="m 327.146,1644.07 0.446,0 0,-0.02 -0.446,0 0,0.02 z"
         id="path4863" />
    </clipPath>
    <clipPath
       clipPathUnits="userSpaceOnUse"
       id="clipPath4865">
      <path
         inkscape:connector-curvature="0"
         d="m 327.592,1644.05 0.004,0 0,0 -0.004,0 z"
         id="path4867" />
    </clipPath>
  </defs>
  <sodipodi:namedview
     id="base"
     pagecolor="#ffffff"
     bordercolor="#666666"
     borderopacity="1.0"
     inkscape:pageopacity="0.0"
     inkscape:pageshadow="2"
     inkscape:zoom="7"
     inkscape:cx="2.2093868"
     inkscape:cy="25.072686"
     inkscape:current-layer="layer1"
     showgrid="true"
     inkscape:grid-bbox="true"
     inkscape:document-units="px"
     inkscape:window-width="887"
     inkscape:window-height="690"
     inkscape:window-x="2025"
     inkscape:window-y="188"
     inkscape:window-maximized="0" />
  <metadata
     id="metadata28088">
    <rdf:RDF>
      <cc:Work
         rdf:about="">
        <dc:format>image/svg+xml</dc:format>
        <dc:type
           rdf:resource="http://purl.org/dc/dcmitype/StillImage" />
        <dc:title />
      </cc:Work>
    </rdf:RDF>
  </metadata>
  <g
     id="layer1"
     inkscape:label="Layer 1"
     inkscape:groupmode="layer">
    <g
       id="g3010">
      <g
         style="fill:#cfcccd"
         id="g8957"
         transform="matrix(1.3604091,0,0,-1.3604091,29.270881,6.6418173)">
        <path
           d="m 0,0 c 0,0 -0.415,0.958 -0.702,0 -0.262,-0.874 -2.696,-7.493 -3.13,-8.673 l -0.931,0.715 3.511,8.949 c 0.493,1.254 1.298,1.254 1.789,0 L 3.364,-6.209 2.73,-7.133 0,0 z"
           style="fill:#cfcccd;fill-opacity:1;fill-rule:nonzero;stroke:none"
           id="path8959"
           inkscape:connector-curvature="0" />
      </g>
      <g
         style="fill:#cfcccd"
         id="g8961"
         transform="matrix(1.3604091,0,0,-1.3604091,1.5167624,44.955182)">
        <path
           id="path8963"
           transform="matrix(0.735073,0,0,-0.735073,-1.1149311,33.045341)"
           d="M 34.4375 16.59375 L 33.1875 18.40625 C 33.005205 18.670169 32.668848 18.752878 32.375 18.625 L 30.28125 17.71875 L 26.46875 21.28125 C 26.339511 21.403687 26.19586 21.46875 26.03125 21.46875 C 25.887047 21.46875 25.716187 21.406368 25.59375 21.3125 L 22.28125 18.78125 L 21.25 21.40625 C 20.644618 22.944873 19.703292 25.349745 19.03125 27.0625 C 18.719716 26.268021 18.365792 25.423324 18.125 24.8125 L 17.5625 23.3125 L 15.65625 24.75 C 15.585509 24.804416 15.517764 24.84375 15.4375 24.84375 C 15.342271 24.84375 15.229712 24.81802 15.15625 24.75 L 13 22.71875 L 11.8125 23.25 C 11.642449 23.323462 11.447141 23.243395 11.34375 23.09375 L 10.625 22.0625 L 9.5625 24.8125 C 9.1815855 25.782472 8.569775 27.342528 8.1875 28.3125 L 1.53125 44.96875 C 1.1503355 45.938722 1.4582813 46.71875 2.21875 46.71875 L 12.46875 46.71875 L 13.21875 46.71875 C 13.369755 46.769085 13.539176 46.78125 13.71875 46.78125 L 26.34375 46.78125 L 31.21875 46.78125 L 43.84375 46.78125 C 45.182393 46.78125 45.731821 45.393453 45.0625 43.6875 L 38.75 27.59375 C 38.080679 25.887797 36.984542 23.110843 36.3125 21.40625 L 34.4375 16.59375 z M 25.75 27.4375 L 26.09375 27.59375 C 26.562396 27.780258 27.030933 28.042181 27.46875 28.375 L 27.84375 28.65625 L 27.65625 28.875 C 27.887084 29.082146 28.122162 29.322933 28.3125 29.5625 L 28.40625 29.65625 L 28.28125 29.78125 C 27.612311 30.526976 26.975023 31.30947 26.34375 32.09375 L 27.34375 31.9375 L 26.59375 32.9375 L 27.59375 33.6875 L 25.53125 34 C 25.486301 34.083186 25.432961 34.172112 25.375 34.25 C 25.316479 34.32864 25.254601 34.401756 25.1875 34.46875 L 25.1875 34.5625 L 25.5 36.53125 L 24.46875 35.78125 L 23.71875 36.8125 L 23.59375 35.78125 C 23.023906 36.611826 22.459834 37.457384 21.9375 38.3125 L 21.84375 38.46875 L 21.71875 38.40625 C 21.434611 38.292733 21.139714 38.130368 20.875 37.96875 L 20.71875 38.21875 L 20.34375 37.9375 C 19.901523 37.616892 19.5351 37.241984 19.21875 36.84375 L 18.96875 36.5625 L 19.21875 36.28125 C 20.106136 35.291468 20.961448 34.270518 21.78125 33.21875 C 21.744848 32.754646 21.888317 32.277045 22.1875 31.875 C 22.486683 31.472955 22.889023 31.223044 23.34375 31.125 C 24.115954 30.037811 24.868989 28.91589 25.5625 27.78125 L 25.75 27.4375 z M 25.90625 27.90625 L 25.875 27.96875 C 25.231885 29.021919 24.55465 30.049835 23.84375 31.0625 C 24.239178 31.073211 24.627849 31.215067 24.96875 31.46875 C 25.00713 31.49731 25.027113 31.53149 25.0625 31.5625 C 25.780415 30.631935 26.507504 29.685923 27.25 28.78125 L 27.3125 28.71875 L 27.25 28.65625 C 26.83829 28.343736 26.406721 28.111413 25.96875 27.9375 L 25.90625 27.90625 z M 27.4375 29.15625 C 26.725503 30.026617 26.001334 30.91905 25.3125 31.8125 C 25.407925 31.931743 25.497972 32.052663 25.5625 32.1875 L 25.8125 32.15625 C 26.492524 31.302137 27.183196 30.467233 27.90625 29.65625 C 27.758843 29.483123 27.610686 29.31202 27.4375 29.15625 z M 10.46875 29.46875 C 10.985592 29.468757 11.396983 29.647841 11.6875 29.96875 C 11.981389 30.286295 12.124996 30.768648 12.125 31.4375 C 12.124996 32.102984 11.981389 32.616588 11.6875 32.9375 C 11.396983 33.25842 10.999952 33.406254 10.5 33.40625 C 9.9831542 33.406254 9.5751408 33.255042 9.28125 32.9375 C 8.9907355 32.616588 8.8437495 32.106362 8.84375 31.4375 C 8.8437495 30.772026 8.9907355 30.289673 9.28125 29.96875 C 9.5751408 29.647841 9.968794 29.468757 10.46875 29.46875 z M 14.46875 29.46875 L 15.46875 29.46875 L 11.5625 37.3125 L 10.5 37.3125 L 14.46875 29.46875 z M 10.46875 30.28125 C 10.320113 30.281257 10.20945 30.347144 10.125 30.46875 C 10.013522 30.634281 9.9687485 30.954443 9.96875 31.4375 C 9.9687485 31.920569 10.013522 32.24073 10.125 32.40625 C 10.20945 32.527865 10.320113 32.593754 10.46875 32.59375 C 10.620761 32.593754 10.728046 32.527866 10.8125 32.40625 C 10.920596 32.24073 10.999998 31.920569 11 31.4375 C 10.999998 30.954443 10.920597 30.630904 10.8125 30.46875 C 10.72805 30.343768 10.620761 30.281257 10.46875 30.28125 z M 23.84375 31.40625 C 23.315927 31.38244 22.775954 31.607683 22.4375 32.0625 C 21.896254 32.789831 22.053543 33.833474 22.78125 34.375 C 23.00927 34.544682 23.268035 34.650356 23.53125 34.6875 L 23.75 34.6875 C 24.105399 34.692686 24.467215 34.584918 24.75 34.375 L 24.90625 34.25 C 24.973784 34.185959 25.035929 34.10895 25.09375 34.03125 C 25.151011 33.954303 25.208004 33.864003 25.25 33.78125 L 25.3125 33.59375 C 25.432872 33.26151 25.419861 32.900217 25.3125 32.5625 L 25.25 32.375 C 25.138363 32.13495 24.976891 31.918842 24.75 31.75 C 24.477039 31.546875 24.160444 31.420536 23.84375 31.40625 z M 23.59375 31.9375 C 23.879094 31.895706 24.188409 31.970888 24.4375 32.15625 C 24.885074 32.489314 25.028218 33.082136 24.78125 33.5625 C 24.75444 33.617383 24.72516 33.668142 24.6875 33.71875 C 24.64984 33.769358 24.607091 33.833934 24.5625 33.875 C 24.172741 34.250275 23.541324 34.301814 23.09375 33.96875 C 22.59538 33.597886 22.504276 32.873182 22.875 32.375 C 23.060292 32.126003 23.308406 31.979294 23.59375 31.9375 z M 23.65625 32.28125 C 23.458747 32.310179 23.284491 32.421418 23.15625 32.59375 C 22.899627 32.938602 22.967836 33.431017 23.3125 33.6875 C 23.657164 33.943983 24.149627 33.876102 24.40625 33.53125 C 24.662733 33.186586 24.594664 32.693983 24.25 32.4375 C 24.077668 32.309259 23.853753 32.252321 23.65625 32.28125 z M 26.5625 32.40625 L 25.6875 32.53125 C 25.785314 32.887295 25.794916 33.264996 25.6875 33.625 L 26.71875 33.46875 L 26.125 33 L 26.5625 32.40625 z M 15.5 33.40625 C 16.010081 33.406254 16.396978 33.585337 16.6875 33.90625 C 16.981383 34.22717 17.124991 34.709523 17.125 35.375 C 17.124991 36.043859 16.981383 36.522834 16.6875 36.84375 C 16.396978 37.164667 15.999946 37.34375 15.5 37.34375 C 14.983149 37.34375 14.575136 37.164667 14.28125 36.84375 C 13.990731 36.522834 13.843745 36.043859 13.84375 35.375 C 13.843745 34.709523 13.990731 34.22717 14.28125 33.90625 C 14.575136 33.585337 14.993284 33.406254 15.5 33.40625 z M 21.875 33.6875 C 21.109116 34.658956 20.323773 35.612811 19.5 36.53125 L 19.4375 36.5625 L 19.5 36.625 C 19.795616 36.997281 20.146984 37.35435 20.5625 37.65625 L 20.625 37.6875 L 20.6875 37.625 C 21.340819 36.653966 22.00246 35.673487 22.6875 34.71875 C 22.647913 34.693384 22.63213 34.68481 22.59375 34.65625 C 22.253037 34.402707 21.998685 34.063381 21.875 33.6875 z M 15.46875 34.21875 C 15.31673 34.218752 15.206067 34.284645 15.125 34.40625 C 15.013517 34.571778 14.968743 34.891938 14.96875 35.375 C 14.968743 35.858065 15.013516 36.181603 15.125 36.34375 C 15.20945 36.468739 15.320108 36.531251 15.46875 36.53125 C 15.620756 36.531251 15.762669 36.465365 15.84375 36.34375 C 15.955219 36.178225 15.999992 35.858065 16 35.375 C 15.999992 34.891938 15.951838 34.571778 15.84375 34.40625 C 15.75929 34.284643 15.620756 34.218752 15.46875 34.21875 z M 24.875 34.71875 C 24.561152 34.924844 24.181541 35.022033 23.8125 35.03125 L 23.9375 35.9375 L 24.40625 35.3125 L 25.03125 35.78125 L 24.875 34.71875 z M 23.03125 34.90625 C 22.37341 35.822472 21.722687 36.755909 21.09375 37.6875 C 21.292556 37.808841 21.510302 37.9089 21.71875 38 C 22.287862 37.074167 22.87689 36.147049 23.5 35.25 L 23.46875 35.03125 C 23.320405 35.008262 23.173204 34.963361 23.03125 34.90625 z "
           style="fill:#cfcccd;fill-opacity:1;fill-rule:nonzero;stroke:none" />
      </g>
      <g
         style="fill:#cfcccd"
         id="g8965"
         transform="matrix(1.3604091,0,0,-1.3604091,14.54159,15.64925)">
        <path
           d="m 0,0 1.997,-5.088 -0.53,-0.405 c -0.246,0.669 -1.631,4.433 -1.779,4.931 -0.163,0.543 -0.4,0 -0.4,0 L -2.263,-4.618 -2.624,-4.094 -1.018,0 C -0.738,0.713 -0.28,0.713 0,0"
           style="fill:#cfcccd;fill-opacity:1;fill-rule:nonzero;stroke:none"
           id="path8967"
           inkscape:connector-curvature="0" />
      </g>
      <g
         style="fill:#cfcccd"
         id="g8969"
         transform="matrix(1.3604091,0,0,-1.3604091,19.492935,9.2855819)">
        <path
           d="m 0,0 c -0.11,-0.881 -0.854,-1.565 -1.766,-1.565 -0.466,0 -0.888,0.182 -1.206,0.475 -0.31,-0.53 -0.88,-0.891 -1.539,-0.891 -0.452,0 -0.859,0.172 -1.173,0.447 -0.301,-0.225 -0.67,-0.364 -1.073,-0.364 -0.651,0 -1.215,0.35 -1.527,0.868 -0.126,-0.022 -0.254,-0.036 -0.386,-0.036 -1.173,0 -2.123,0.948 -2.123,2.123 0,1.17 0.95,2.119 2.123,2.119 0.043,0 0.084,-0.003 0.127,-0.005 0.019,0.97 0.808,1.752 1.786,1.752 0.521,0 0.985,-0.227 1.312,-0.581 0.388,0.505 0.996,0.831 1.682,0.831 0.938,0 1.733,-0.61 2.013,-1.454 0.128,0.024 0.263,0.04 0.4,0.04 1.171,0 2.121,-0.949 2.121,-2.122 C 0.771,0.979 0.472,0.39 0,0"
           style="fill:#cfcccd;fill-opacity:1;fill-rule:nonzero;stroke:none"
           id="path8971"
           inkscape:connector-curvature="0" />
      </g>
      <path
         sodipodi:nodetypes="czc"
         inkscape:connector-curvature="0"
         id="path4326"
         d="m 38.593725,26.54318 c 0,0 -9.768665,3.627975 -6.529965,10.883273 3.238701,7.255298 -8.240191,8.084716 -8.240191,8.084716"
         style="fill:none;stroke:#ffffff;stroke-width:2.17665458;stroke-linecap:butt;stroke-linejoin:miter;stroke-miterlimit:4;stroke-opacity:1;stroke-dasharray:none" />
      <g
         id="text4364"
         style="font-size:10.37742614999999979px;font-style:normal;font-weight:normal;line-height:125%;letter-spacing:0px;word-spacing:0px;fill:#ffffff;fill-opacity:1;stroke:none;font-family:Sans" />
      <g
         style="fill:#ffffff"
         transform="matrix(0.14000151,-0.18813516,0.18813516,0.14000151,13.784884,33.908643)"
         id="g4496" />
    </g>
  </g>
</svg>
