<?xml version="1.0" encoding="UTF-8" standalone="no"?>
<!-- Created with Inkscape (http://www.inkscape.org/) -->

<svg
   xmlns:dc="http://purl.org/dc/elements/1.1/"
   xmlns:cc="http://creativecommons.org/ns#"
   xmlns:rdf="http://www.w3.org/1999/02/22-rdf-syntax-ns#"
   xmlns:svg="http://www.w3.org/2000/svg"
   xmlns="http://www.w3.org/2000/svg"
   xmlns:sodipodi="http://sodipodi.sourceforge.net/DTD/sodipodi-0.dtd"
   xmlns:inkscape="http://www.inkscape.org/namespaces/inkscape"
   width="48px"
   height="48px"
   id="svg28083"
   version="1.1"
   inkscape:version="0.48.4 r9939"
   sodipodi:docname="pourcent-piste-naturelle.svg">
  <defs
     id="defs28085">
    <clipPath
       clipPathUnits="userSpaceOnUse"
       id="clipPath4901">
      <path
         inkscape:connector-curvature="0"
         d="m 315.748,1648.19 0.773,0 0,-0.63 -0.773,0 0,0.63 z"
         id="path4903" />
    </clipPath>
    <clipPath
       clipPathUnits="userSpaceOnUse"
       id="clipPath4905">
      <path
         inkscape:connector-curvature="0"
         d="m 315.759,1648.18 0.762,0 0,-0.62 -0.762,0 0,0.62 z"
         id="path4907" />
    </clipPath>
    <clipPath
       clipPathUnits="userSpaceOnUse"
       id="clipPath4909">
      <path
         inkscape:connector-curvature="0"
         d="m 315.748,1648.19 0.011,0 0,-0.01 -0.011,0 0,0.01 z"
         id="path4911" />
    </clipPath>
    <clipPath
       clipPathUnits="userSpaceOnUse"
       id="clipPath4857">
      <path
         inkscape:connector-curvature="0"
         d="m 327.146,1644.07 0.45,0 0,-0.02 -0.45,0 0,0.02 z"
         id="path4859" />
    </clipPath>
    <clipPath
       clipPathUnits="userSpaceOnUse"
       id="clipPath4861">
      <path
         inkscape:connector-curvature="0"
         d="m 327.146,1644.07 0.446,0 0,-0.02 -0.446,0 0,0.02 z"
         id="path4863" />
    </clipPath>
    <clipPath
       clipPathUnits="userSpaceOnUse"
       id="clipPath4865">
      <path
         inkscape:connector-curvature="0"
         d="m 327.592,1644.05 0.004,0 0,0 -0.004,0 z"
         id="path4867" />
    </clipPath>
  </defs>
  <sodipodi:namedview
     id="base"
     pagecolor="#ffffff"
     bordercolor="#666666"
     borderopacity="1.0"
     inkscape:pageopacity="0.0"
     inkscape:pageshadow="2"
     inkscape:zoom="7"
     inkscape:cx="30.124419"
     inkscape:cy="18.285714"
     inkscape:current-layer="layer1"
     showgrid="true"
     inkscape:grid-bbox="true"
     inkscape:document-units="px"
     inkscape:window-width="887"
     inkscape:window-height="690"
     inkscape:window-x="2179"
     inkscape:window-y="277"
     inkscape:window-maximized="0" />
  <metadata
     id="metadata28088">
    <rdf:RDF>
      <cc:Work
         rdf:about="">
        <dc:format>image/svg+xml</dc:format>
        <dc:type
           rdf:resource="http://purl.org/dc/dcmitype/StillImage" />
        <dc:title />
      </cc:Work>
    </rdf:RDF>
  </metadata>
  <g
     id="layer1"
     inkscape:label="Layer 1"
     inkscape:groupmode="layer">
    <g
       id="g3009">
      <g
         style="fill:#cfcccd"
         id="g8957"
         transform="matrix(1.3604091,0,0,-1.3604091,29.270881,6.6418173)">
        <path
           d="m 0,0 c 0,0 -0.415,0.958 -0.702,0 -0.262,-0.874 -2.696,-7.493 -3.13,-8.673 l -0.931,0.715 3.511,8.949 c 0.493,1.254 1.298,1.254 1.789,0 L 3.364,-6.209 2.73,-7.133 0,0 z"
           style="fill:#cfcccd;fill-opacity:1;fill-rule:nonzero;stroke:none"
           id="path8959"
           inkscape:connector-curvature="0" />
      </g>
      <g
         style="fill:#cfcccd"
         id="g8961"
         transform="matrix(1.3604091,0,0,-1.3604091,1.5167624,44.955182)">
        <path
           id="path8963"
           transform="matrix(0.735073,0,0,-0.735073,-1.1149311,33.045341)"
           d="M 34.4375 16.59375 L 33.1875 18.40625 C 33.005205 18.670169 32.668848 18.752878 32.375 18.625 L 30.28125 17.71875 L 26.46875 21.28125 C 26.339511 21.403687 26.19586 21.46875 26.03125 21.46875 C 25.887047 21.46875 25.716187 21.406368 25.59375 21.3125 L 22.28125 18.78125 L 21.25 21.40625 C 20.644618 22.944873 19.703292 25.349745 19.03125 27.0625 C 18.719716 26.268021 18.365792 25.423324 18.125 24.8125 L 17.5625 23.3125 L 15.65625 24.75 C 15.585509 24.804416 15.517764 24.84375 15.4375 24.84375 C 15.342271 24.84375 15.229712 24.81802 15.15625 24.75 L 13 22.71875 L 11.8125 23.25 C 11.642449 23.323462 11.447141 23.243395 11.34375 23.09375 L 10.625 22.0625 L 9.5625 24.8125 C 9.1815855 25.782472 8.569775 27.342528 8.1875 28.3125 L 1.53125 44.96875 C 1.1503355 45.938722 1.4582813 46.71875 2.21875 46.71875 L 12.46875 46.71875 L 13.21875 46.71875 C 13.369755 46.769085 13.539176 46.78125 13.71875 46.78125 L 26.34375 46.78125 L 31.21875 46.78125 L 43.84375 46.78125 C 45.182393 46.78125 45.731821 45.393453 45.0625 43.6875 L 38.75 27.59375 C 38.080679 25.887797 36.984542 23.110843 36.3125 21.40625 L 34.4375 16.59375 z M 10.875 27.4375 C 11.525443 27.437509 12.040636 27.658638 12.40625 28.0625 C 12.776106 28.462129 12.968745 29.064505 12.96875 29.90625 C 12.968745 30.743758 12.776106 31.377384 12.40625 31.78125 C 12.040636 32.185126 11.566686 32.375005 10.9375 32.375 C 10.287052 32.375005 9.7761097 32.180875 9.40625 31.78125 C 9.0406393 31.377384 8.8437494 30.748009 8.84375 29.90625 C 8.8437494 29.068756 9.0406393 28.46638 9.40625 28.0625 C 9.7761097 27.658638 10.245809 27.437509 10.875 27.4375 z M 15.90625 27.4375 L 17.1875 27.4375 L 12.25 37.3125 L 10.9375 37.3125 L 15.90625 27.4375 z M 10.875 28.46875 C 10.687942 28.468758 10.54378 28.534461 10.4375 28.6875 C 10.297206 28.895821 10.249998 29.298325 10.25 29.90625 C 10.249998 30.514189 10.297202 30.916694 10.4375 31.125 C 10.54378 31.278052 10.687942 31.375006 10.875 31.375 C 11.066305 31.375006 11.237465 31.278049 11.34375 31.125 C 11.479787 30.916694 11.531247 30.514189 11.53125 29.90625 C 11.531247 29.298325 11.479791 28.891569 11.34375 28.6875 C 11.237465 28.530211 11.066305 28.468758 10.875 28.46875 z M 21.0625 28.84375 C 23.258236 28.96972 25.273318 30.101044 26.53125 31.90625 C 27.244123 32.927739 27.131792 34.307479 26.25 35.1875 C 25.446137 34.841248 24.870367 34.137361 24.6875 33.28125 C 24.598059 33.979954 24.771766 34.674354 25.21875 35.21875 C 26.115597 36.315732 27.74721 36.459347 28.84375 35.5625 C 28.97769 35.452248 29.170998 35.49106 29.28125 35.625 C 29.391059 35.758719 29.385269 35.952248 29.25 36.0625 C 27.98919 37.093287 26.133699 37.016039 24.96875 35.875 C 23.58374 36.177196 22.241467 35.291481 21.9375 33.90625 C 21.863556 33.560219 21.837177 33.221252 21.90625 32.875 C 22.184757 31.474272 21.880975 30.014676 21.0625 28.84375 z M 17.21875 32.40625 C 17.860683 32.406254 18.35313 32.596133 18.71875 33 C 19.088601 33.403875 19.281239 34.037501 19.28125 34.875 C 19.281239 35.716754 19.088601 36.314879 18.71875 36.71875 C 18.35313 37.122621 17.84793 37.34375 17.21875 37.34375 C 16.568297 37.34375 16.057354 37.122621 15.6875 36.71875 C 15.321883 36.314879 15.156243 35.716754 15.15625 34.875 C 15.156243 34.037501 15.321883 33.403875 15.6875 33 C 16.057354 32.596133 16.58105 32.406254 17.21875 32.40625 z M 17.1875 33.40625 C 16.996184 33.406253 16.852022 33.471961 16.75 33.625 C 16.609699 33.833316 16.562492 34.23582 16.5625 34.84375 C 16.562492 35.451684 16.609701 35.85844 16.75 36.0625 C 16.856273 36.219798 17.000435 36.312501 17.1875 36.3125 C 17.378798 36.312501 17.52296 36.246799 17.625 36.09375 C 17.765283 35.885439 17.843741 35.451684 17.84375 34.84375 C 17.843741 34.23582 17.792281 33.833316 17.65625 33.625 C 17.549959 33.471957 17.378798 33.406253 17.1875 33.40625 z "
           style="fill:#cfcccd;fill-opacity:1;fill-rule:nonzero;stroke:none" />
      </g>
      <g
         style="fill:#cfcccd"
         id="g8965"
         transform="matrix(1.3604091,0,0,-1.3604091,14.54159,15.64925)">
        <path
           d="m 0,0 1.997,-5.088 -0.53,-0.405 c -0.246,0.669 -1.631,4.433 -1.779,4.931 -0.163,0.543 -0.4,0 -0.4,0 L -2.263,-4.618 -2.624,-4.094 -1.018,0 C -0.738,0.713 -0.28,0.713 0,0"
           style="fill:#cfcccd;fill-opacity:1;fill-rule:nonzero;stroke:none"
           id="path8967"
           inkscape:connector-curvature="0" />
      </g>
      <g
         style="fill:#cfcccd"
         id="g8969"
         transform="matrix(1.3604091,0,0,-1.3604091,19.492935,9.2855819)">
        <path
           d="m 0,0 c -0.11,-0.881 -0.854,-1.565 -1.766,-1.565 -0.466,0 -0.888,0.182 -1.206,0.475 -0.31,-0.53 -0.88,-0.891 -1.539,-0.891 -0.452,0 -0.859,0.172 -1.173,0.447 -0.301,-0.225 -0.67,-0.364 -1.073,-0.364 -0.651,0 -1.215,0.35 -1.527,0.868 -0.126,-0.022 -0.254,-0.036 -0.386,-0.036 -1.173,0 -2.123,0.948 -2.123,2.123 0,1.17 0.95,2.119 2.123,2.119 0.043,0 0.084,-0.003 0.127,-0.005 0.019,0.97 0.808,1.752 1.786,1.752 0.521,0 0.985,-0.227 1.312,-0.581 0.388,0.505 0.996,0.831 1.682,0.831 0.938,0 1.733,-0.61 2.013,-1.454 0.128,0.024 0.263,0.04 0.4,0.04 1.171,0 2.121,-0.949 2.121,-2.122 C 0.771,0.979 0.472,0.39 0,0"
           style="fill:#cfcccd;fill-opacity:1;fill-rule:nonzero;stroke:none"
           id="path8971"
           inkscape:connector-curvature="0" />
      </g>
      <path
         sodipodi:nodetypes="czc"
         inkscape:connector-curvature="0"
         id="path4326"
         d="m 38.593725,26.54318 c 0,0 -9.768665,3.627975 -6.529965,10.883273 3.238701,7.255298 -8.240191,8.084716 -8.240191,8.084716"
         style="fill:#cfcccd;stroke:#ffffff;stroke-width:2.17665458000000012;stroke-linecap:butt;stroke-linejoin:miter;stroke-miterlimit:4;stroke-opacity:1;stroke-dasharray:none" />
      <g
         id="text4364"
         style="font-size:13.05992698999999924px;font-style:normal;font-weight:normal;line-height:125%;letter-spacing:0px;word-spacing:0px;fill:#ffffff;fill-opacity:1;stroke:none;font-family:Sans" />
      <g
         transform="matrix(-0.22138899,0,0,0.22138899,42.725558,23.524381)"
         style="fill:#ffffff"
         id="g4399" />
    </g>
  </g>
</svg>
