<?xml version="1.0" encoding="UTF-8" standalone="no"?>
<!-- Created with Inkscape (http://www.inkscape.org/) -->

<svg
   xmlns:dc="http://purl.org/dc/elements/1.1/"
   xmlns:cc="http://creativecommons.org/ns#"
   xmlns:rdf="http://www.w3.org/1999/02/22-rdf-syntax-ns#"
   xmlns:svg="http://www.w3.org/2000/svg"
   xmlns="http://www.w3.org/2000/svg"
   xmlns:sodipodi="http://sodipodi.sourceforge.net/DTD/sodipodi-0.dtd"
   xmlns:inkscape="http://www.inkscape.org/namespaces/inkscape"
   width="48px"
   height="48px"
   id="svg28083"
   version="1.1"
   inkscape:version="0.48.4 r9943 custom"
   sodipodi:docname="montagne.svg">
  <defs
     id="defs28085">
    <clipPath
       clipPathUnits="userSpaceOnUse"
       id="clipPath4901">
      <path
         inkscape:connector-curvature="0"
         d="m 315.748,1648.19 0.773,0 0,-0.63 -0.773,0 0,0.63 z"
         id="path4903" />
    </clipPath>
    <clipPath
       clipPathUnits="userSpaceOnUse"
       id="clipPath4905">
      <path
         inkscape:connector-curvature="0"
         d="m 315.759,1648.18 0.762,0 0,-0.62 -0.762,0 0,0.62 z"
         id="path4907" />
    </clipPath>
    <clipPath
       clipPathUnits="userSpaceOnUse"
       id="clipPath4909">
      <path
         inkscape:connector-curvature="0"
         d="m 315.748,1648.19 0.011,0 0,-0.01 -0.011,0 0,0.01 z"
         id="path4911" />
    </clipPath>
    <clipPath
       clipPathUnits="userSpaceOnUse"
       id="clipPath4857">
      <path
         inkscape:connector-curvature="0"
         d="m 327.146,1644.07 0.45,0 0,-0.02 -0.45,0 0,0.02 z"
         id="path4859" />
    </clipPath>
    <clipPath
       clipPathUnits="userSpaceOnUse"
       id="clipPath4861">
      <path
         inkscape:connector-curvature="0"
         d="m 327.146,1644.07 0.446,0 0,-0.02 -0.446,0 0,0.02 z"
         id="path4863" />
    </clipPath>
    <clipPath
       clipPathUnits="userSpaceOnUse"
       id="clipPath4865">
      <path
         inkscape:connector-curvature="0"
         d="m 327.592,1644.05 0.004,0 0,0 -0.004,0 z"
         id="path4867" />
    </clipPath>
  </defs>
  <sodipodi:namedview
     id="base"
     pagecolor="#ffffff"
     bordercolor="#666666"
     borderopacity="1.0"
     inkscape:pageopacity="0.0"
     inkscape:pageshadow="2"
     inkscape:zoom="7"
     inkscape:cx="19.746647"
     inkscape:cy="18.285714"
     inkscape:current-layer="layer1"
     showgrid="true"
     inkscape:grid-bbox="true"
     inkscape:document-units="px"
     inkscape:window-width="887"
     inkscape:window-height="690"
     inkscape:window-x="318"
     inkscape:window-y="46"
     inkscape:window-maximized="0" />
  <metadata
     id="metadata28088">
    <rdf:RDF>
      <cc:Work
         rdf:about="">
        <dc:format>image/svg+xml</dc:format>
        <dc:type
           rdf:resource="http://purl.org/dc/dcmitype/StillImage" />
        <dc:title></dc:title>
      </cc:Work>
    </rdf:RDF>
  </metadata>
  <g
     id="layer1"
     inkscape:label="Layer 1"
     inkscape:groupmode="layer">
    <g
       transform="matrix(1.3604091,0,0,-1.3604091,29.270881,6.6418173)"
       id="g8957">
      <path
         inkscape:connector-curvature="0"
         id="path8959"
         style="fill:#cfcccd;fill-opacity:1;fill-rule:nonzero;stroke:none"
         d="m 0,0 c 0,0 -0.415,0.958 -0.702,0 -0.262,-0.874 -2.696,-7.493 -3.13,-8.673 l -0.931,0.715 3.511,8.949 c 0.493,1.254 1.298,1.254 1.789,0 L 3.364,-6.209 2.73,-7.133 0,0 z" />
    </g>
    <g
       transform="matrix(1.3604091,0,0,-1.3604091,1.5167624,44.955182)"
       id="g8961">
      <path
         inkscape:connector-curvature="0"
         id="path8963"
         style="fill:#cfcccd;fill-opacity:1;fill-rule:nonzero;stroke:none"
         d="m 0,0 4.899,12.223 c 0.281,0.713 0.738,1.878 1.018,2.591 l 0.786,2.003 0.519,-0.754 c 0.076,-0.11 0.218,-0.151 0.343,-0.097 l 0.881,0.382 1.585,-1.487 c 0.054,-0.05 0.122,-0.076 0.192,-0.076 0.059,0 0.119,0.019 0.171,0.059 l 1.391,1.068 0.431,-1.098 c 0.177,-0.449 0.423,-1.08 0.652,-1.664 0.494,1.259 1.192,3.038 1.637,4.169 l 0.758,1.93 2.446,-1.877 c 0.09,-0.069 0.195,-0.102 0.301,-0.102 0.121,0 0.242,0.043 0.337,0.133 l 2.786,2.615 1.553,-0.673 c 0.216,-0.094 0.469,-0.021 0.603,0.173 l 0.912,1.327 1.382,-3.526 c 0.494,-1.253 1.298,-3.303 1.79,-4.557 L 32.018,0.928 c 0.492,-1.254 0.089,-2.281 -0.895,-2.281 l -9.289,0 -3.578,0 -9.29,0 c -0.132,0 -0.252,0.021 -0.363,0.058 l -0.555,0 -7.539,0 C -0.05,-1.295 -0.28,-0.713 0,0" />
    </g>
    <g
       transform="matrix(1.3604091,0,0,-1.3604091,14.54159,15.64925)"
       id="g8965">
      <path
         inkscape:connector-curvature="0"
         id="path8967"
         style="fill:#cfcccd;fill-opacity:1;fill-rule:nonzero;stroke:none"
         d="m 0,0 1.997,-5.088 -0.53,-0.405 c -0.246,0.669 -1.631,4.433 -1.779,4.931 -0.163,0.543 -0.4,0 -0.4,0 L -2.263,-4.618 -2.624,-4.094 -1.018,0 C -0.738,0.713 -0.28,0.713 0,0" />
    </g>
    <g
       transform="matrix(1.3604091,0,0,-1.3604091,19.492935,9.2855819)"
       id="g8969">
      <path
         inkscape:connector-curvature="0"
         id="path8971"
         style="fill:#cfcccd;fill-opacity:1;fill-rule:nonzero;stroke:none"
         d="m 0,0 c -0.11,-0.881 -0.854,-1.565 -1.766,-1.565 -0.466,0 -0.888,0.182 -1.206,0.475 -0.31,-0.53 -0.88,-0.891 -1.539,-0.891 -0.452,0 -0.859,0.172 -1.173,0.447 -0.301,-0.225 -0.67,-0.364 -1.073,-0.364 -0.651,0 -1.215,0.35 -1.527,0.868 -0.126,-0.022 -0.254,-0.036 -0.386,-0.036 -1.173,0 -2.123,0.948 -2.123,2.123 0,1.17 0.95,2.119 2.123,2.119 0.043,0 0.084,-0.003 0.127,-0.005 0.019,0.97 0.808,1.752 1.786,1.752 0.521,0 0.985,-0.227 1.312,-0.581 0.388,0.505 0.996,0.831 1.682,0.831 0.938,0 1.733,-0.61 2.013,-1.454 0.128,0.024 0.263,0.04 0.4,0.04 1.171,0 2.121,-0.949 2.121,-2.122 C 0.771,0.979 0.472,0.39 0,0" />
    </g>
    <path
       style="fill:none;stroke:#ffffff;stroke-width:2.17665458;stroke-linecap:butt;stroke-linejoin:miter;stroke-miterlimit:4;stroke-opacity:1;stroke-dasharray:none"
       d="m 38.593725,26.54318 c 0,0 -9.768665,3.627975 -6.529965,10.883273 3.238701,7.255298 -8.240191,8.084716 -8.240191,8.084716"
       id="path4326"
       inkscape:connector-curvature="0"
       sodipodi:nodetypes="czc" />
    <g
       id="g3530"
       transform="matrix(-0.13158066,0,0,0.13158066,32.184353,21.222406)"
       style="fill:#ffffff">
      <polygon
         points="37.874,39.694 26.947,37.071 7.17,38.492 17.55,40.787 31.1,47.889 45.195,47.233 "
         id="polygon3532"
         style="fill:#ffffff" />
      <path
         d="M 32.245,52.257 18.696,52.91 c 0,0 -10.926,5.356 -10.599,5.464 0.328,0.11 19.23,25.458 19.23,25.458 L 36.724,78.042 44.7,70.176 32.245,52.257 z"
         id="path3534"
         inkscape:connector-curvature="0"
         style="fill:#ffffff" />
      <path
         d="m 62.293,73.453 c 0,0.328 -14.642,-0.765 -14.642,-0.765 l -3.934,12.455 -4.042,10.491 21.633,4.479 3.389,-12.239 c 0,0.001 -2.404,-14.749 -2.404,-14.421 z"
         id="path3536"
         inkscape:connector-curvature="0"
         style="fill:#ffffff" />
      <polygon
         points="64.041,70.176 73.875,75.53 79.775,80.775 59.344,49.853 55.408,47.011 50.93,50.398 "
         id="polygon3538"
         style="fill:#ffffff" />
      <path
         d="m 35.316,48.847 c -0.422,2.365 0.257,5.379 1.872,8.5 l 3.978,5.724 c 0.427,0.482 0.875,0.961 1.343,1.428 6.725,6.73 15.079,9.289 18.657,5.714 l 0.918,-0.902 -1.428,-2.153 c -0.166,0.679 -0.457,1.246 -0.877,1.667 -0.693,0.692 -1.725,1.042 -3.066,1.042 l 0,0 c -3.687,0 -8.719,-2.65 -12.816,-6.751 -5.326,-5.33 -7.416,-11.184 -6.541,-14.363 l -2.04,0.094 z"
         id="path3540"
         inkscape:connector-curvature="0"
         style="fill:#ffffff" />
      <path
         d="M 82.238,25.327 C 80.228,23.315 78.07,21.678 75.939,20.465 V 8.535 c 0,-1.614 -0.965,-2.738 -1.977,-2.827 l -3.67,-0.417 c 0,0 -0.865,0 -1.371,0.12 L 64.09,6.247 V 0.344 c 0,-0.141 -0.607,-0.254 -1.355,-0.254 -0.75,0 -1.357,0.113 -1.357,0.254 v 6.374 l -8.974,1.555 c -1.015,0.267 -2.296,0.983 -2.296,4.114 l 0.058,20.372 -8.927,8.744 4.785,4.928 1.6,1.647 c 0.825,0.441 1.655,0.95 2.479,1.522 0.041,-0.043 0.083,-0.085 0.132,-0.122 l 4.481,-3.388 c 0.205,-0.156 0.449,-0.233 0.693,-0.233 0.238,0 0.475,0.072 0.676,0.218 l 3.934,2.841 c 0.113,0.082 0.211,0.183 0.287,0.299 l 8.76,13.258 18.871,-18.487 c 3.579,-3.575 1.026,-11.929 -5.699,-18.659 z m -6.299,2.108 0.916,-0.887 c 0.342,-0.331 0.887,-0.322 1.219,0.02 0.332,0.342 0.322,0.887 -0.02,1.218 l -2.115,2.045 v -2.396 z m 0,5.17 3.807,-3.679 c 0.342,-0.33 0.887,-0.321 1.219,0.02 0.328,0.341 0.32,0.887 -0.023,1.218 l -5.002,4.837 v -2.396 z m 0,5.426 6.307,-6.096 c 0.342,-0.33 0.885,-0.321 1.217,0.02 0.33,0.343 0.322,0.888 -0.02,1.218 l -7.504,7.254 v -2.396 z m 0,5.474 8.154,-7.884 c 0.342,-0.331 0.887,-0.322 1.219,0.021 0.328,0.341 0.32,0.886 -0.023,1.217 l -9.35,9.042 V 43.505 z M 56.697,9.435 61.377,8.68 v 0.729 c 0,0.14 0.607,0.254 1.357,0.254 0.748,0 1.355,-0.114 1.355,-0.254 V 8.241 l 6.83,-1.102 c 0,0 0.268,0.357 0.238,1.729 l 0.004,9.576 c -3.141,-0.836 -5.893,-0.516 -7.58,1.171 l -8.734,8.557 -0.029,-15.934 c 0.09,-1.551 0.686,-2.595 1.879,-2.803 z M 50.028,38.26 c -0.225,0 -0.452,-0.088 -0.62,-0.264 -0.331,-0.341 -0.322,-0.887 0.02,-1.217 L 65.41,21.328 c 0.34,-0.331 0.887,-0.322 1.217,0.02 0.33,0.343 0.322,0.888 -0.02,1.218 l -15.98,15.451 c -0.169,0.162 -0.383,0.243 -0.599,0.243 z m 5.102,0.679 c -0.167,0.162 -0.383,0.242 -0.599,0.242 -0.225,0 -0.449,-0.088 -0.619,-0.262 -0.33,-0.343 -0.322,-0.888 0.021,-1.219 L 69.912,22.25 c 0.344,-0.331 0.887,-0.322 1.219,0.02 0.012,0.014 0.021,0.029 0.033,0.043 v 1.112 c -0.018,0.021 -0.033,0.044 -0.053,0.064 L 55.13,38.939 z m 3.718,1.674 c -0.166,0.162 -0.383,0.242 -0.598,0.242 -0.225,0 -0.451,-0.088 -0.619,-0.262 -0.332,-0.342 -0.322,-0.887 0.02,-1.218 L 71.167,26.308 v 2.396 L 58.848,40.613 z m 2.629,2.866 c -0.227,0 -0.451,-0.086 -0.619,-0.263 -0.332,-0.341 -0.322,-0.887 0.02,-1.217 l 10.291,-9.951 0.002,2.396 -9.096,8.793 c -0.169,0.161 -0.384,0.242 -0.598,0.242 z m 2.886,2.379 c -0.225,0 -0.449,-0.088 -0.617,-0.263 -0.332,-0.342 -0.322,-0.887 0.02,-1.219 l 7.404,-7.16 v 2.396 l -6.207,6.002 c -0.166,0.163 -0.383,0.244 -0.6,0.244 z m 2.5,3.008 c -0.225,0 -0.449,-0.087 -0.619,-0.262 -0.33,-0.342 -0.32,-0.887 0.021,-1.217 l 4.906,-4.746 0.002,2.395 -3.711,3.589 c -0.165,0.161 -0.382,0.241 -0.599,0.241 z m 1.85,3.688 c -0.225,0 -0.449,-0.088 -0.619,-0.265 -0.33,-0.341 -0.322,-0.887 0.021,-1.218 l 4.381,-4.236 2.438,0.039 -5.623,5.436 c -0.166,0.164 -0.383,0.244 -0.598,0.244 z M 86.77,41.097 70.79,56.548 c -0.168,0.164 -0.383,0.243 -0.598,0.243 -0.227,0 -0.451,-0.087 -0.619,-0.263 -0.332,-0.342 -0.322,-0.888 0.02,-1.219 l 15.98,-15.451 c 0.34,-0.33 0.885,-0.321 1.217,0.021 0.331,0.343 0.321,0.888 -0.02,1.218 z"
         id="path3542"
         inkscape:connector-curvature="0"
         style="fill:#ffffff" />
    </g>
    <text
       xml:space="preserve"
       style="font-size:13.05992699px;font-style:normal;font-weight:normal;line-height:125%;letter-spacing:0px;word-spacing:0px;fill:#000000;fill-opacity:1;stroke:none;font-family:Sans"
       x="8.2760353"
       y="36.960026"
       id="text4364"
       sodipodi:linespacing="125%"><tspan
         sodipodi:role="line"
         id="tspan4366"
         x="8.2760353"
         y="36.960026"
         style="font-style:normal;font-variant:normal;font-weight:bold;font-stretch:normal;fill:#ffffff;font-family:Arial;-inkscape-font-specification:Arial Bold">%</tspan></text>
  </g>
</svg>
