<?xml version="1.0" encoding="UTF-8" standalone="no"?>
<!-- Created with Inkscape (http://www.inkscape.org/) -->

<svg
   xmlns:dc="http://purl.org/dc/elements/1.1/"
   xmlns:cc="http://creativecommons.org/ns#"
   xmlns:rdf="http://www.w3.org/1999/02/22-rdf-syntax-ns#"
   xmlns:svg="http://www.w3.org/2000/svg"
   xmlns="http://www.w3.org/2000/svg"
   xmlns:sodipodi="http://sodipodi.sourceforge.net/DTD/sodipodi-0.dtd"
   xmlns:inkscape="http://www.inkscape.org/namespaces/inkscape"
   version="1.1"
   width="48"
   height="48"
   id="svg28083"
   inkscape:version="0.48.4 r9939"
   sodipodi:docname="pourcent-rd-pib.svg">
  <sodipodi:namedview
     pagecolor="#ffffff"
     bordercolor="#666666"
     borderopacity="1"
     objecttolerance="10"
     gridtolerance="10"
     guidetolerance="10"
     inkscape:pageopacity="0"
     inkscape:pageshadow="2"
     inkscape:window-width="1535"
     inkscape:window-height="876"
     id="namedview28"
     showgrid="false"
     inkscape:zoom="9.8333333"
     inkscape:cx="8.9349366"
     inkscape:cy="20.596606"
     inkscape:window-x="65"
     inkscape:window-y="24"
     inkscape:window-maximized="1"
     inkscape:current-layer="g1638" />
  <defs
     id="defs28085">
    <clipPath
       id="clipPath4901">
      <path
         d="m 315.748,1648.19 0.773,0 0,-0.63 -0.773,0 0,0.63 z"
         id="path4903" />
    </clipPath>
    <clipPath
       id="clipPath4905">
      <path
         d="m 315.759,1648.18 0.762,0 0,-0.62 -0.762,0 0,0.62 z"
         id="path4907" />
    </clipPath>
    <clipPath
       id="clipPath4909">
      <path
         d="m 315.748,1648.19 0.011,0 0,-0.01 -0.011,0 0,0.01 z"
         id="path4911" />
    </clipPath>
    <clipPath
       id="clipPath4857">
      <path
         d="m 327.146,1644.07 0.45,0 0,-0.02 -0.45,0 0,0.02 z"
         id="path4859" />
    </clipPath>
    <clipPath
       id="clipPath4861">
      <path
         d="m 327.146,1644.07 0.446,0 0,-0.02 -0.446,0 0,0.02 z"
         id="path4863" />
    </clipPath>
    <clipPath
       id="clipPath4865">
      <path
         d="m 327.592,1644.05 0.004,0 0,0 -0.004,0 z"
         id="path4867" />
    </clipPath>
  </defs>
  <metadata
     id="metadata28088">
    <rdf:RDF>
      <cc:Work
         rdf:about="">
        <dc:format>image/svg+xml</dc:format>
        <dc:type
           rdf:resource="http://purl.org/dc/dcmitype/StillImage" />
        <dc:title />
      </cc:Work>
    </rdf:RDF>
  </metadata>
  <g
     transform="matrix(1.2513318,0,0,1.2513318,-381.84528,-619.27651)"
     id="g4"
     style="color:#000000;fill:none;stroke:#cfcccd;stroke-width:0.99973482;stroke-linejoin:round;stroke-miterlimit:4;stroke-opacity:1;stroke-dasharray:none;marker:none;visibility:visible;display:inline;overflow:visible;enable-background:accumulate">
    <g
       id="g6"
       style="color:#000000;fill:none;stroke:#cfcccd;stroke-width:0.99973482;stroke-linejoin:round;stroke-miterlimit:4;stroke-opacity:1;stroke-dasharray:none;marker:none;visibility:visible;display:inline;overflow:visible;enable-background:accumulate">
      <g
         id="g8"
         style="color:#000000;fill:none;stroke:#cfcccd;stroke-width:0.99973482;stroke-linejoin:round;stroke-miterlimit:4;stroke-opacity:1;stroke-dasharray:none;marker:none;visibility:visible;display:inline;overflow:visible;enable-background:accumulate">
        <path
           d="m 333,520 h 1 v -4 h -2 l 2,-3 h 1 l 2,-6 h -3 l -1,-1 h -3 l -6,-4 v -1 l -2,1 v 2 l -1,1 h -2 v 1 h -4 v -1 h -2 l 2,4 h -3 l -1,-1 -4,1 v 2 l 5,2 2,3 2,1 -2,9 8,3 h 3 v -3 l 2,-1 h 2 l 2,2 h 2 l 3,-4 h -2 l -1,-3 z"
           id="path10"
           style="color:#000000;fill:none;stroke:#cfcccd;stroke-width:0.99973482;stroke-linejoin:round;stroke-miterlimit:4;stroke-opacity:1;stroke-dasharray:none;marker:none;visibility:visible;display:inline;overflow:visible;enable-background:accumulate"
           inkscape:connector-curvature="0" />
      </g>
      <polygon
         points="339,524 342,523 342,528 340,527 "
         id="polygon12"
         style="color:#000000;fill:none;stroke:#cfcccd;stroke-width:0.99973482;stroke-linejoin:round;stroke-miterlimit:4;stroke-opacity:1;stroke-dasharray:none;marker:none;visibility:visible;display:inline;overflow:visible;enable-background:accumulate" />
    </g>
  </g>
  <g
     transform="matrix(0.82894904,0,0,0.89165374,8.7757143,-3.2560455)"
     style="font-size:16.63607979px;font-style:normal;font-variant:normal;font-weight:bold;font-stretch:normal;text-align:center;line-height:125%;letter-spacing:0px;word-spacing:0px;text-anchor:middle;color:#000000;fill:#cfcccd;fill-opacity:1;fill-rule:nonzero;stroke:none;stroke-width:7.59637547;marker:none;visibility:visible;display:inline;overflow:visible;enable-background:accumulate;font-family:STIXSizeFourSym;-inkscape-font-specification:STIXSizeFourSym Bold"
     id="text3485">
    <path
       inkscape:connector-curvature="0"
       d="m 42.838995,12.002962 c -0.384505,5e-6 -0.682351,0.167882 -0.893539,0.503631 -0.211212,0.330343 -0.316812,0.804189 -0.3168,1.42154 -1.2e-5,0.622772 0.10288,1.102034 0.308677,1.437786 0.211188,0.33034 0.511742,0.49551 0.901662,0.495508 0.389895,2e-6 0.687741,-0.165168 0.89354,-0.495508 0.205771,-0.335752 0.308663,-0.815014 0.308677,-1.437786 -1.4e-5,-0.617351 -0.105614,-1.091197 -0.3168,-1.42154 -0.205799,-0.335749 -0.500937,-0.503626 -0.885417,-0.503631 m 0,-1.364679 c 1.007249,7e-6 1.800603,0.292437 2.380065,0.877294 0.579431,0.584867 0.869154,1.389051 0.86917,2.412556 -1.6e-5,1.023511 -0.289739,1.833111 -0.86917,2.428803 -0.579462,0.590277 -1.372816,0.885416 -2.380065,0.885416 -1.007274,0 -1.803336,-0.295139 -2.388187,-0.885416 -0.579457,-0.595692 -0.86918,-1.405292 -0.86917,-2.428803 -10e-6,-1.018089 0.289713,-1.819566 0.86917,-2.404433 0.584851,-0.590272 1.380913,-0.88541 2.388187,-0.885417 m -7.448869,6.604069 -1.795202,0 7.578839,-12.5826599 1.803325,0 -7.586962,12.5826599 M 33.724893,4.6596921 c 1.007258,1.23e-5 1.797904,0.2951508 2.371941,0.8854163 0.57944,0.5848731 0.869163,1.3890578 0.86917,2.4125565 -7e-6,1.0235169 -0.28973,1.8304092 -0.86917,2.4206791 -0.574037,0.590284 -1.364683,0.885423 -2.371941,0.885417 -1.007265,6e-6 -1.800619,-0.295133 -2.380064,-0.885417 -0.574032,-0.5902699 -0.861048,-1.3971622 -0.861047,-2.4206791 -1e-6,-1.0234987 0.287015,-1.8276834 0.861047,-2.4125565 0.579445,-0.5902655 1.372799,-0.885404 2.380064,-0.8854163 m 0,1.3646784 c -0.389911,1.1e-5 -0.690465,0.1678879 -0.901662,0.5036313 -0.211203,0.3357644 -0.316803,0.8123183 -0.316801,1.4296631 -2e-6,0.6227784 0.105598,1.1047476 0.316801,1.4459093 0.211197,0.3357615 0.511751,0.5036384 0.901662,0.5036313 0.389904,7.1e-6 0.68775,-0.1678698 0.89354,-0.5036313 0.211195,-0.3411617 0.316795,-0.8231309 0.3168,-1.4459093 -5e-6,-0.6173448 -0.105605,-1.0938987 -0.3168,-1.4296631 -0.211205,-0.3357434 -0.509051,-0.5036203 -0.89354,-0.5036313"
       style="color:#000000;fill:#cfcccd;marker:none;visibility:visible;display:inline;overflow:visible;enable-background:accumulate;font-family:Sans;-inkscape-font-specification:Sans Bold"
       id="path3000" />
  </g>
  <g
     transform="matrix(0.57570861,0,0,0.57570861,10.358874,12.971238)"
     id="g3932">
    <g
       transform="matrix(0.82944206,0,0,-0.82944206,16.749796,23.39946)"
       id="g7214">
      <path
         inkscape:connector-curvature="0"
         d="m 0,0 c 3.424,0 6.201,2.776 6.201,6.199 0,3.424 -2.777,6.199 -6.201,6.199 -3.423,0 -6.199,-2.775 -6.199,-6.199 C -6.199,2.776 -3.423,0 0,0"
         id="path7216"
         style="fill:#cfcccd;fill-opacity:1;fill-rule:nonzero;stroke:none" />
    </g>
    <g
       transform="matrix(0.82944206,0,0,-0.82944206,22.630871,25.473928)"
       id="g7218">
      <path
         inkscape:connector-curvature="0"
         d="m 0,0 -1.737,0 -4.67,-11.236 1.4,6.3 -1.501,1.663 1.501,1.889 -2.115,2.266 -2.18,-2.343 1.5,-1.812 -1.5,-1.739 1.397,-6.049 L -12.482,0 -14.354,0 c -1.645,0 -2.979,-1.354 -2.979,-3.021 l 0,-14.387 c 0,-1.67 1.334,-3.023 2.979,-3.023 l 14.354,0 c 1.646,0 2.979,1.353 2.979,3.023 l 0,14.387 C 2.979,-1.354 1.646,0 0,0"
         id="path7220"
         style="fill:#cfcccd;fill-opacity:1;fill-rule:nonzero;stroke:none" />
    </g>
  </g>
  <g
     transform="matrix(0.51811938,0,0,-0.51811938,-137.90212,550.19619)"
     id="g19441">
    <g
       transform="translate(321.6323,1021.9062)"
       id="g880">
      <path
         inkscape:connector-curvature="0"
         id="path882"
         style="fill:#cfcccd;fill-opacity:1;fill-rule:nonzero;stroke:none"
         d="m 0,0 c -0.247,-0.29 -0.443,-0.674 -0.578,-1.141 -0.099,-0.336 -0.129,-0.594 -0.135,-0.623 l -0.002,-0.035 0,-0.038 c 0.008,-0.189 -0.106,-0.346 -0.123,-0.37 l -0.109,-0.116 c -0.291,-0.074 -0.561,-0.12 -0.813,-0.144 l 0.034,2.144 c 0,0.083 -0.025,0.158 -0.067,0.224 l 1.316,3.537 -0.108,0.041 C -0.589,3.49 -0.589,3.503 -0.591,3.517 -0.666,3.782 -0.901,3.834 -1.131,3.78 -1.154,3.824 -1.19,3.859 -1.236,3.884 -1.397,3.973 -1.608,3.922 -1.76,3.81 -1.901,3.852 -2.078,3.842 -2.206,3.812 -2.35,3.935 -2.595,3.876 -2.77,3.748 -2.896,3.816 -3.059,3.835 -3.148,3.758 -3.164,3.743 -3.177,3.727 -3.192,3.711 -3.417,4.022 -3.66,3.626 -3.688,3.391 l -0.126,-0.05 1.337,-3.451 c -0.038,-0.059 -0.059,-0.127 -0.059,-0.202 l -0.032,-2.166 c -0.354,0.03 -0.634,0.098 -0.826,0.162 l 0.006,0.045 -0.112,0.143 c 0,0.002 -0.12,0.174 -0.101,0.375 l 0.004,0.036 0,0.037 c -0.004,0.028 -0.019,0.286 -0.099,0.627 -0.108,0.475 -0.281,0.87 -0.51,1.175 -0.051,0.075 -0.336,0.532 -0.591,1.145 -0.245,0.595 -0.502,1.457 -0.338,2.181 l 0.002,0.009 0.002,0.01 c 0.006,0.025 0.15,0.726 0.616,1.394 0.606,0.865 1.466,1.287 2.557,1.254 0.007,0.002 0.017,0 0.024,0 l 0.004,0 0.004,0 0.023,0 C -0.812,6.084 0.023,5.612 0.578,4.717 1.008,4.021 1.11,3.315 1.112,3.286 L 1.116,3.27 C 1.346,1.893 0.11,0.154 0,0 M -1.544,3.552 C -1.549,3.589 -1.553,3.624 -1.57,3.661 -1.576,3.68 -1.591,3.693 -1.601,3.707 -1.521,3.711 -1.445,3.704 -1.382,3.681 -1.447,3.643 -1.5,3.599 -1.544,3.552 m 0.462,0.049 C -1.064,3.599 -1.047,3.596 -1.03,3.589 -1.051,3.564 -1.072,3.539 -1.085,3.516 c 0.003,0.029 0.003,0.056 0.003,0.085 M -3.12,3.548 c 0.061,0.079 0.141,0.115 0.245,0.104 -0.114,-0.131 -0.152,-0.294 -0.005,-0.423 0.174,-0.161 0.276,0.173 0.283,0.278 0.002,0.031 -0.006,0.061 -0.019,0.09 0.023,0.002 0.05,0.005 0.082,0.007 -0.17,-0.281 0.445,-0.56 0.445,-0.121 0,0.069 -0.01,0.123 -0.025,0.172 0.076,0.009 0.135,0.015 0.152,0.017 0.019,0 0.042,0.002 0.066,0.006 C -1.897,3.674 -1.901,3.672 -1.903,3.669 -1.975,3.562 -2.072,3.059 -1.772,3.171 -1.698,3.198 -1.646,3.24 -1.608,3.29 -1.599,3.274 -1.591,3.26 -1.576,3.245 -1.394,3.062 -1.226,3.159 -1.141,3.332 -1.133,3.25 -1.076,3.194 -0.998,3.167 L -2.137,0.103 -3.336,3.198 c 0.249,-0.094 0.272,0.155 0.216,0.35 M -3.409,3.388 C -3.399,3.392 -3.39,3.395 -3.38,3.397 -3.386,3.376 -3.386,3.354 -3.388,3.333 L -3.409,3.388 z M 2.049,3.417 C 2.036,3.524 1.907,4.347 1.401,5.18 0.899,6.01 -0.076,7.009 -1.875,7.06 c -0.011,0 -0.019,0.001 -0.028,0.001 -0.01,0 -0.017,0.001 -0.027,0 C -3.728,7.113 -4.761,6.171 -5.31,5.372 -5.863,4.57 -6.038,3.759 -6.057,3.652 -6.156,3.219 -6.158,2.729 -6.061,2.199 c 0.074,-0.407 0.206,-0.843 0.39,-1.293 0.31,-0.754 0.669,-1.296 0.684,-1.319 l 0.008,-0.013 0.011,-0.014 c 0.297,-0.383 0.402,-1.016 0.424,-1.266 -0.024,-0.355 0.093,-0.651 0.187,-0.826 -0.058,-0.794 -0.052,-1.447 0.013,-1.947 0.055,-0.423 0.152,-0.732 0.296,-0.947 l 0.076,-0.112 0.124,-0.056 c 0.236,-0.103 0.74,-0.279 1.479,-0.299 l 0,-0.001 c 0.529,-0.017 1.084,0.054 1.645,0.206 l 0.158,0.042 0.098,0.133 c 0.155,0.206 0.266,0.512 0.343,0.933 0.093,0.49 0.135,1.138 0.121,1.922 0.105,0.171 0.238,0.458 0.234,0.815 0.036,0.248 0.179,0.873 0.496,1.239 l 0.01,0.013 0.011,0.013 C 0.764,-0.556 1.152,-0.037 1.506,0.701 1.715,1.14 1.871,1.565 1.97,1.97 2.093,2.491 2.122,2.979 2.049,3.417" />
    </g>
    <g
       transform="translate(313.4438,1018.832)"
       id="g884">
      <path
         inkscape:connector-curvature="0"
         id="path886"
         style="fill:#cfcccd;fill-opacity:1;fill-rule:nonzero;stroke:none"
         d="M 0,0 C 0.104,-0.106 0.274,-0.111 0.382,-0.01 L 2.568,2.089 C 2.679,2.192 2.681,2.362 2.578,2.472 2.476,2.577 2.304,2.581 2.198,2.479 L 0.008,0.38 C -0.099,0.277 -0.103,0.107 0,0" />
    </g>
    <g
       transform="translate(323.6455,1028.2373)"
       id="g888">
      <path
         inkscape:connector-curvature="0"
         id="path890"
         style="fill:#cfcccd;fill-opacity:1;fill-rule:nonzero;stroke:none"
         d="M 0,0 2.188,2.099 C 2.295,2.2 2.299,2.369 2.196,2.479 2.091,2.586 1.922,2.59 1.814,2.486 L -0.375,0.389 C -0.481,0.286 -0.485,0.115 -0.382,0.008 -0.279,-0.1 -0.108,-0.104 0,0" />
    </g>
    <g
       transform="translate(315.6533,1028.25)"
       id="g892">
      <path
         inkscape:connector-curvature="0"
         id="path894"
         style="fill:#cfcccd;fill-opacity:1;fill-rule:nonzero;stroke:none"
         d="M 0,0 C 0.106,-0.103 0.279,-0.101 0.38,0.008 0.483,0.114 0.481,0.284 0.375,0.389 L -1.806,2.494 C -1.915,2.597 -2.084,2.594 -2.188,2.486 -2.291,2.379 -2.289,2.21 -2.181,2.106 L 0,0 z" />
    </g>
    <g
       transform="translate(323.6343,1021.2969)"
       id="g896">
      <path
         inkscape:connector-curvature="0"
         id="path898"
         style="fill:#cfcccd;fill-opacity:1;fill-rule:nonzero;stroke:none"
         d="m 0,0 c -0.11,0.104 -0.277,0.101 -0.382,-0.006 -0.105,-0.107 -0.101,-0.278 0.007,-0.382 l 2.179,-2.105 c 0.109,-0.104 0.278,-0.1 0.383,0.006 0.102,0.107 0.1,0.278 -0.008,0.383 L 0,0 z" />
    </g>
    <g
       transform="translate(311.3223,1024.7344)"
       id="g900">
      <path
         inkscape:connector-curvature="0"
         id="path902"
         style="fill:#cfcccd;fill-opacity:1;fill-rule:nonzero;stroke:none"
         d="M 0,0 3.03,-0.082 C 3.179,-0.089 3.302,0.029 3.306,0.179 3.31,0.328 3.192,0.45 3.046,0.454 L 0.013,0.539 C -0.135,0.543 -0.259,0.425 -0.262,0.277 -0.266,0.129 -0.148,0.005 0,0" />
    </g>
    <g
       transform="translate(327.9653,1024.8125)"
       id="g904">
      <path
         inkscape:connector-curvature="0"
         id="path906"
         style="fill:#cfcccd;fill-opacity:1;fill-rule:nonzero;stroke:none"
         d="m 0,0 -3.031,0.084 c -0.15,0.004 -0.273,-0.113 -0.277,-0.261 -0.004,-0.151 0.112,-0.274 0.262,-0.278 l 3.03,-0.084 C 0.131,-0.543 0.256,-0.425 0.26,-0.277 0.264,-0.128 0.146,-0.003 0,0" />
    </g>
    <g
       transform="translate(319.7729,1029.5879)"
       id="g908">
      <path
         inkscape:connector-curvature="0"
         id="path910"
         style="fill:#cfcccd;fill-opacity:1;fill-rule:nonzero;stroke:none"
         d="M 0,0 C 0.15,-0.005 0.274,0.113 0.278,0.263 L 0.361,3.292 C 0.367,3.441 0.249,3.563 0.099,3.569 -0.049,3.572 -0.171,3.455 -0.177,3.308 L -0.262,0.276 C -0.264,0.128 -0.146,0.004 0,0" />
    </g>
  </g>
  <g
     id="g1638"
     transform="matrix(1.25,0,0,-1.25,-20.175095,32.221857)">
    <path
       style="fill:#cfcccd;fill-opacity:1;fill-rule:nonzero;stroke:none"
       d="m 20.41531,-0.01198457 c -0.208119,-0.0033017 -0.370898,-0.03328058 -0.456565,-0.10813339 -0.342663,-0.3008521 -0.217708,-0.77567956 0.168209,-1.03327824 0.225399,-0.1499454 0.487803,-0.5594119 0.672831,-0.8770848 -2.188145,-0.7905779 -3.820725,-3.9033882 -3.820725,-7.6294374 0,-0.4762686 0.03316,-0.9410046 0.08411,-1.3937236 0.09276,-0.309504 0.385918,-1.033279 1.129398,-1.033279 l 7.26899,0 c 0,0 1.05058,0.03461 1.249545,0.901116 0.01201,0.105733 0.02595,0.216266 0.03605,0.3244 9.46e-4,0.04709 0.0062,0.08363 0.01201,0.120149 0.03076,0.351794 0.04806,0.716086 0.04806,1.0813376 0,3.728452 -1.64219,6.8422236 -3.83274,7.6294374 0.0769,0.4844392 0.320075,1.09863894 0.792981,1.47782803 0.643997,0.51327482 -0.425326,0.46954077 -1.153426,0.38447563 -0.546437,-0.0641587 -1.574361,0.16608286 -2.198719,0.15619311 z m 1.742154,-4.18117193 c 0.969795,-6.5e-6 1.739608,-0.3438723 2.306855,-1.0452929 L 23.815516,-6.067475 c -0.268377,0.2866651 -0.524983,0.4848499 -0.768952,0.6007432 -0.23788,0.1158825 -0.535341,0.1802176 -0.8891,0.180223 -0.353765,-5.4e-6 -0.674521,-0.099282 -0.961189,-0.2883569 -0.280573,-0.1829857 -0.48449,-0.4394063 -0.624772,-0.7809659 l 2.174691,0 0,-0.792981 -2.366929,0 c -0.0061,-0.073195 -0.01201,-0.1839354 -0.01201,-0.3364161 -2e-6,-0.146388 0.0057,-0.2863371 0.02403,-0.4205202 l 2.354914,0 0,-0.780966 -2.102603,0 c 0.329364,-0.6343352 0.825011,-0.9611897 1.489843,-0.961189 0.329363,-7e-7 0.609261,0.07025 0.841042,0.1922378 0.237869,0.1280855 0.482643,0.320355 0.744921,0.5887282 l 0.648803,-0.780966 c -0.567246,-0.7014251 -1.307666,-1.0573081 -2.234766,-1.0573081 -0.634336,0 -1.200049,0.180805 -1.694094,0.540669 -0.487952,0.3659604 -0.843833,0.8617909 -1.057309,1.4778281 l -0.997233,0 0,0.780966 0.829026,0 c -0.0183,0.1463814 -0.02403,0.2981619 -0.02403,0.4445499 -2e-6,0.146381 -0.0061,0.2452901 0,0.3123864 l -0.804997,0 0,0.792981 0.961189,0 c 0.201278,0.6526265 0.556975,1.1774829 1.069322,1.5739468 0.512345,0.3964521 1.089521,0.5887218 1.742156,0.5887283 z"
       id="path1640"
       inkscape:connector-curvature="0" />
    <g
       transform="matrix(0.82680548,0,0,-0.82680548,-48.240879,80.541516)"
       id="text3888"
       style="font-size:23.02468109px;font-style:normal;font-weight:normal;line-height:125%;letter-spacing:0px;word-spacing:0px;color:#000000;fill:#ffffff;fill-opacity:1;fill-rule:nonzero;stroke:none;stroke-width:1.63744032;marker:none;visibility:visible;display:inline;overflow:visible;enable-background:accumulate;font-family:Sans" />
  </g>
</svg>
