<?xml version="1.0" encoding="UTF-8" standalone="no"?>
<!-- Created with Inkscape (http://www.inkscape.org/) -->

<svg
   xmlns:dc="http://purl.org/dc/elements/1.1/"
   xmlns:cc="http://creativecommons.org/ns#"
   xmlns:rdf="http://www.w3.org/1999/02/22-rdf-syntax-ns#"
   xmlns:svg="http://www.w3.org/2000/svg"
   xmlns="http://www.w3.org/2000/svg"
   xmlns:sodipodi="http://sodipodi.sourceforge.net/DTD/sodipodi-0.dtd"
   xmlns:inkscape="http://www.inkscape.org/namespaces/inkscape"
   version="1.1"
   width="48"
   height="48"
   id="svg28083"
   inkscape:version="0.48.4 r9939"
   sodipodi:docname="propriete-individuelle.svg">
  <sodipodi:namedview
     pagecolor="#ffffff"
     bordercolor="#666666"
     borderopacity="1"
     objecttolerance="10"
     gridtolerance="10"
     guidetolerance="10"
     inkscape:pageopacity="0"
     inkscape:pageshadow="2"
     inkscape:window-width="1855"
     inkscape:window-height="1056"
     id="namedview39"
     showgrid="false"
     inkscape:zoom="4.9166667"
     inkscape:cx="24"
     inkscape:cy="24"
     inkscape:window-x="65"
     inkscape:window-y="24"
     inkscape:window-maximized="1"
     inkscape:current-layer="svg28083" />
  <defs
     id="defs28085">
    <clipPath
       id="clipPath4901">
      <path
         d="m 315.748,1648.19 0.773,0 0,-0.63 -0.773,0 0,0.63 z"
         id="path4903" />
    </clipPath>
    <clipPath
       id="clipPath4905">
      <path
         d="m 315.759,1648.18 0.762,0 0,-0.62 -0.762,0 0,0.62 z"
         id="path4907" />
    </clipPath>
    <clipPath
       id="clipPath4909">
      <path
         d="m 315.748,1648.19 0.011,0 0,-0.01 -0.011,0 0,0.01 z"
         id="path4911" />
    </clipPath>
    <clipPath
       id="clipPath4857">
      <path
         d="m 327.146,1644.07 0.45,0 0,-0.02 -0.45,0 0,0.02 z"
         id="path4859" />
    </clipPath>
    <clipPath
       id="clipPath4861">
      <path
         d="m 327.146,1644.07 0.446,0 0,-0.02 -0.446,0 0,0.02 z"
         id="path4863" />
    </clipPath>
    <clipPath
       id="clipPath4865">
      <path
         d="m 327.592,1644.05 0.004,0 0,0 -0.004,0 z"
         id="path4867" />
    </clipPath>
  </defs>
  <metadata
     id="metadata28088">
    <rdf:RDF>
      <cc:Work
         rdf:about="">
        <dc:format>image/svg+xml</dc:format>
        <dc:type
           rdf:resource="http://purl.org/dc/dcmitype/StillImage" />
        <dc:title />
      </cc:Work>
    </rdf:RDF>
  </metadata>
  <g
     transform="matrix(0.80420894,0,0,0.80420894,33.461659,-6.1809281)"
     id="g3055">
    <g
       transform="matrix(1.25,0,0,-1.25,-33.464046,14.519933)"
       id="g10573">
      <path
         d="m 0,0 c 0.996,0 1.802,0.806 1.802,1.803 0,0.994 -0.806,1.8 -1.802,1.8 -0.996,0 -1.801,-0.806 -1.801,-1.8 C -1.801,0.806 -0.996,0 0,0"
         id="path10575"
         style="fill:#4f4c4d;fill-opacity:1;fill-rule:nonzero;stroke:none"
         inkscape:connector-curvature="0" />
    </g>
    <g
       transform="matrix(1.25,0,0,-1.25,-28.309666,25.389233)"
       id="g10577">
      <path
         d="m 0,0 0,5.848 c 0,2.41 -1.999,2.338 -1.999,2.338 l -3.996,0 c -2.127,0 -2.145,-2.005 -2.145,-2.005 0,0 -0.165,-5.352 -0.165,-5.646 0,-0.293 -0.111,-1.085 0.68,-1.085 0.846,0 0.864,0.589 0.864,0.589 0,0 0.221,4.561 0.221,4.891 0,0.332 0,0.46 0.147,0.46 0.147,0 0.147,-0.256 0.147,-0.256 l 0.019,-13.995 c 0,0 -0.184,-1.084 0.883,-1.084 1.066,0 1.029,0.845 1.029,0.845 l 0,8.238 c 0,0 0,0.295 0.184,0.295 0.184,0 0.166,-0.313 0.166,-0.313 0,0 0.111,-7.538 0.111,-8.256 0,-0.718 0.403,-0.884 1.103,-0.884 0.698,0 0.808,0.552 0.808,0.552 l 0,0.919 c 0,0 0.092,13.166 0.092,13.683 0,0.513 0.194,0.421 0.194,0.421 0,0 0.175,-4.938 0.193,-5.424 0.017,-0.533 0.344,-0.718 0.902,-0.692 C 0.025,-0.532 0,0 0,0"
         id="path10579"
         style="fill:#4f4c4d;fill-opacity:1;fill-rule:nonzero;stroke:none"
         inkscape:connector-curvature="0" />
    </g>
  </g>
  <g
     id="g7288"
     transform="matrix(1.1271053,0,0,-1.1271053,16.857074,13.459475)">
    <path
       inkscape:connector-curvature="0"
       d="M 0,0 12.387,7.155 C 12.832,7.413 13.559,7.407 14,7.144 l 4.797,-2.87 0,2.896 2.943,0 0,-4.656 1.983,-1.185 2.205,-1.317 c 0.439,-0.264 0.381,-0.48 -0.135,-0.48 l -2.07,0 0,-8.737 -21.053,0 0,8.737 -2.543,0 C -0.389,-0.468 -0.445,-0.258 0,0"
       style="fill:#4f4c4d;fill-opacity:1;fill-rule:nonzero;stroke:none"
       id="path7290" />
  </g>
  <g
     id="g7292"
     transform="matrix(0.92918517,0,0,-0.92918517,10.96746,36.681174)">
    <path
       inkscape:connector-curvature="0"
       d="m 0,0 c 0.789,-1.162 0.488,-2.748 -0.68,-3.543 -1.166,-0.796 -2.752,-0.497 -3.547,0.664 -0.791,1.162 -0.486,2.749 0.68,3.543 C -2.379,1.46 -0.791,1.162 0,0 M 35.816,-1.387 31.984,2.007 30.16,2.067 28.225,0.593 25.879,2.807 24.391,2.837 21.973,0.614 19.445,3.016 17.695,1.197 14.598,1.124 14.465,4.322 c 0,0 -0.113,0.55 -0.748,0.171 L 10.896,2.829 C 10.613,3.664 10.229,4.457 9.74,5.176 6.686,9.657 0.887,10.317 -3.455,6.993 -7.416,3.96 -8.334,-2.773 -5.281,-7.255 c 3.052,-4.479 8.775,-5.037 12.898,-2.228 1.453,0.993 2.528,2.551 3.172,4.351 0.152,0.064 0.356,0.072 0.598,-0.11 l 1.824,-1.526 c 0,0 1.111,-0.546 1.16,0.532 l 0.092,1.941 c 0,0 -0.025,0.191 0.539,0.211 l 17.703,0.262 c 0,0 2.99,1.15 3.111,2.435"
       style="fill:#4f4c4d;fill-opacity:1;fill-rule:nonzero;stroke:none"
       id="path7294" />
  </g>
</svg>
