<?xml version="1.0" encoding="UTF-8" standalone="no"?>
<!-- Created with Inkscape (http://www.inkscape.org/) -->

<svg
   xmlns:dc="http://purl.org/dc/elements/1.1/"
   xmlns:cc="http://creativecommons.org/ns#"
   xmlns:rdf="http://www.w3.org/1999/02/22-rdf-syntax-ns#"
   xmlns:svg="http://www.w3.org/2000/svg"
   xmlns="http://www.w3.org/2000/svg"
   xmlns:sodipodi="http://sodipodi.sourceforge.net/DTD/sodipodi-0.dtd"
   xmlns:inkscape="http://www.inkscape.org/namespaces/inkscape"
   version="1.1"
   width="48"
   height="48"
   id="svg28083"
   inkscape:version="0.48.4 r9939"
   sodipodi:docname="propriete-collective.svg">
  <sodipodi:namedview
     pagecolor="#ffffff"
     bordercolor="#666666"
     borderopacity="1"
     objecttolerance="10"
     gridtolerance="10"
     guidetolerance="10"
     inkscape:pageopacity="0"
     inkscape:pageshadow="2"
     inkscape:window-width="1855"
     inkscape:window-height="1056"
     id="namedview39"
     showgrid="false"
     inkscape:zoom="4.9166667"
     inkscape:cx="24"
     inkscape:cy="24"
     inkscape:window-x="65"
     inkscape:window-y="24"
     inkscape:window-maximized="1"
     inkscape:current-layer="svg28083" />
  <defs
     id="defs28085">
    <clipPath
       id="clipPath4901">
      <path
         d="m 315.748,1648.19 0.773,0 0,-0.63 -0.773,0 0,0.63 z"
         id="path4903" />
    </clipPath>
    <clipPath
       id="clipPath4905">
      <path
         d="m 315.759,1648.18 0.762,0 0,-0.62 -0.762,0 0,0.62 z"
         id="path4907" />
    </clipPath>
    <clipPath
       id="clipPath4909">
      <path
         d="m 315.748,1648.19 0.011,0 0,-0.01 -0.011,0 0,0.01 z"
         id="path4911" />
    </clipPath>
    <clipPath
       id="clipPath4857">
      <path
         d="m 327.146,1644.07 0.45,0 0,-0.02 -0.45,0 0,0.02 z"
         id="path4859" />
    </clipPath>
    <clipPath
       id="clipPath4861">
      <path
         d="m 327.146,1644.07 0.446,0 0,-0.02 -0.446,0 0,0.02 z"
         id="path4863" />
    </clipPath>
    <clipPath
       id="clipPath4865">
      <path
         d="m 327.592,1644.05 0.004,0 0,0 -0.004,0 z"
         id="path4867" />
    </clipPath>
  </defs>
  <metadata
     id="metadata28088">
    <rdf:RDF>
      <cc:Work
         rdf:about="">
        <dc:format>image/svg+xml</dc:format>
        <dc:type
           rdf:resource="http://purl.org/dc/dcmitype/StillImage" />
        <dc:title />
      </cc:Work>
    </rdf:RDF>
  </metadata>
  <g
     id="g7288"
     transform="matrix(1.1271053,0,0,-1.1271053,16.857074,13.459475)">
    <path
       inkscape:connector-curvature="0"
       d="m 2.679103,3.2041155 11.243962,6.494756 c 0.403936,0.234192 1.063851,0.228746 1.464156,-0.01 l 4.354346,-2.605164 0,2.628765 2.671428,0 0,-4.226357 1.800014,-1.0756515 2.001529,-1.1954708 C 26.613028,2.9753544 26.56038,2.7792863 26.091995,2.7792863 l -1.878986,0 0,-15.9843493 -19.1102863,0 0,15.9843493 -2.3083389,0 c -0.4683849,0 -0.5192173,0.1906218 -0.1152808,0.4248142"
       style="fill:#cfcccd;fill-opacity:1;fill-rule:nonzero;stroke:none"
       id="path7290"
       sodipodi:nodetypes="cccccccccsccccsc" />
  </g>
  <g
     id="g7292"
     transform="matrix(0.92918517,0,0,-0.92918517,10.96746,36.681174)">
    <path
       inkscape:connector-curvature="0"
       d="m 0,0 c 0.789,-1.162 0.488,-2.748 -0.68,-3.543 -1.166,-0.796 -2.752,-0.497 -3.547,0.664 -0.791,1.162 -0.486,2.749 0.68,3.543 C -2.379,1.46 -0.791,1.162 0,0 M 35.816,-1.387 31.984,2.007 30.16,2.067 28.225,0.593 25.879,2.807 24.391,2.837 21.973,0.614 19.445,3.016 17.695,1.197 14.598,1.124 14.465,4.322 c 0,0 -0.113,0.55 -0.748,0.171 L 10.896,2.829 C 10.613,3.664 10.229,4.457 9.74,5.176 6.686,9.657 0.887,10.317 -3.455,6.993 -7.416,3.96 -8.334,-2.773 -5.281,-7.255 c 3.052,-4.479 8.775,-5.037 12.898,-2.228 1.453,0.993 2.528,2.551 3.172,4.351 0.152,0.064 0.356,0.072 0.598,-0.11 l 1.824,-1.526 c 0,0 1.111,-0.546 1.16,0.532 l 0.092,1.941 c 0,0 -0.025,0.191 0.539,0.211 l 17.703,0.262 c 0,0 2.99,1.15 3.111,2.435"
       style="fill:#cfcccd;fill-opacity:1;fill-rule:nonzero;stroke:none"
       id="path7294" />
  </g>
  <g
     transform="matrix(-0.76493095,0,0,-0.76493095,15.360895,11.646544)"
     id="g13711">
    <path
       inkscape:connector-curvature="0"
       d="M 0,0 C 1.324,0 2.396,1.072 2.396,2.396 2.396,3.717 1.324,4.791 0,4.791 -1.322,4.791 -2.395,3.717 -2.395,2.396 -2.395,1.072 -1.322,0 0,0 m 5.703,-0.224 c 1.561,0 2.83,1.267 2.83,2.829 0,1.562 -1.269,2.83 -2.83,2.83 -1.562,0 -2.828,-1.268 -2.828,-2.83 0,-1.562 1.266,-2.829 2.828,-2.829 m 7.067,-0.647 c 2.144,0 3.886,1.738 3.886,3.886 0,2.146 -1.742,3.885 -3.886,3.885 -2.145,0 -3.883,-1.739 -3.883,-3.885 0,-2.148 1.738,-3.886 3.883,-3.886 m 0.035,-0.743 c -1.391,0 -2.651,-0.542 -3.588,-1.422 -0.594,1.338 -1.932,2.271 -3.49,2.271 -1.159,0 -2.194,-0.516 -2.895,-1.332 -0.557,0.979 -1.607,1.639 -2.809,1.639 -1.785,0 -3.232,-1.444 -3.232,-3.23 l 0,-5.919 5.121,0 0,-1.962 5.65,0 0,-4.893 10.485,0 0,9.606 c 0,2.896 -2.352,5.242 -5.242,5.242"
       id="path13713"
       style="fill:#cfcccd;fill-opacity:1;fill-rule:nonzero;stroke:none" />
  </g>
</svg>
