<?xml version="1.0" encoding="UTF-8" standalone="no"?>
<!-- Created with Inkscape (http://www.inkscape.org/) -->

<svg
   xmlns:dc="http://purl.org/dc/elements/1.1/"
   xmlns:cc="http://creativecommons.org/ns#"
   xmlns:rdf="http://www.w3.org/1999/02/22-rdf-syntax-ns#"
   xmlns:svg="http://www.w3.org/2000/svg"
   xmlns="http://www.w3.org/2000/svg"
   version="1.1"
   width="48"
   height="48"
   id="svg28083">
  <defs
     id="defs28085">
    <clipPath
       id="clipPath4901">
      <path
         d="m 315.748,1648.19 0.773,0 0,-0.63 -0.773,0 0,0.63 z"
         id="path4903" />
    </clipPath>
    <clipPath
       id="clipPath4905">
      <path
         d="m 315.759,1648.18 0.762,0 0,-0.62 -0.762,0 0,0.62 z"
         id="path4907" />
    </clipPath>
    <clipPath
       id="clipPath4909">
      <path
         d="m 315.748,1648.19 0.011,0 0,-0.01 -0.011,0 0,0.01 z"
         id="path4911" />
    </clipPath>
    <clipPath
       id="clipPath4857">
      <path
         d="m 327.146,1644.07 0.45,0 0,-0.02 -0.45,0 0,0.02 z"
         id="path4859" />
    </clipPath>
    <clipPath
       id="clipPath4861">
      <path
         d="m 327.146,1644.07 0.446,0 0,-0.02 -0.446,0 0,0.02 z"
         id="path4863" />
    </clipPath>
    <clipPath
       id="clipPath4865">
      <path
         d="m 327.592,1644.05 0.004,0 0,0 -0.004,0 z"
         id="path4867" />
    </clipPath>
  </defs>
  <metadata
     id="metadata28088">
    <rdf:RDF>
      <cc:Work
         rdf:about="">
        <dc:format>image/svg+xml</dc:format>
        <dc:type
           rdf:resource="http://purl.org/dc/dcmitype/StillImage" />
        <dc:title></dc:title>
      </cc:Work>
    </rdf:RDF>
  </metadata>
  <g
     transform="matrix(0.47862474,0,0,0.47862474,59.318068,25.000023)"
     id="g3026"
     style="color:#000000;fill:#cfcccd;fill-opacity:1;fill-rule:nonzero;stroke:none;stroke-width:1.82050085;marker:none;visibility:visible;display:inline;overflow:visible;enable-background:accumulate">
    <g
       transform="matrix(1.4818064,0,0,1.4818064,-134.56015,-51.307652)"
       id="g3024">
      <g
         transform="matrix(0.79511453,0,0,-0.79511453,35.670672,11.854547)"
         id="g8957">
        <path
           d="m 0,0 c 0,0 -0.415,0.958 -0.702,0 -0.262,-0.874 -2.696,-7.493 -3.13,-8.673 l -0.931,0.715 3.511,8.949 c 0.493,1.254 1.298,1.254 1.789,0 L 3.364,-6.209 2.73,-7.133 0,0 z"
           id="path8959"
           style="fill:#cfcccd;fill-opacity:1;fill-rule:nonzero;stroke:none" />
      </g>
      <g
         transform="matrix(0.79511453,0,0,-0.79511453,19.449299,34.247453)"
         id="g8961">
        <path
           d="m 0,0 4.899,12.223 c 0.281,0.713 0.738,1.878 1.018,2.591 l 0.786,2.003 0.519,-0.754 c 0.076,-0.11 0.218,-0.151 0.343,-0.097 l 0.881,0.382 1.585,-1.487 c 0.054,-0.05 0.122,-0.076 0.192,-0.076 0.059,0 0.119,0.019 0.171,0.059 l 1.391,1.068 0.431,-1.098 c 0.177,-0.449 0.423,-1.08 0.652,-1.664 0.494,1.259 1.192,3.038 1.637,4.169 l 0.758,1.93 2.446,-1.877 c 0.09,-0.069 0.195,-0.102 0.301,-0.102 0.121,0 0.242,0.043 0.337,0.133 l 2.786,2.615 1.553,-0.673 c 0.216,-0.094 0.469,-0.021 0.603,0.173 l 0.912,1.327 1.382,-3.526 c 0.494,-1.253 1.298,-3.303 1.79,-4.557 L 32.018,0.928 c 0.492,-1.254 0.089,-2.281 -0.895,-2.281 l -9.289,0 -3.578,0 -9.29,0 c -0.132,0 -0.252,0.021 -0.363,0.058 l -0.555,0 -7.539,0 C -0.05,-1.295 -0.28,-0.713 0,0"
           id="path8963"
           style="fill:#cfcccd;fill-opacity:1;fill-rule:nonzero;stroke:none" />
      </g>
      <g
         transform="matrix(0.79511453,0,0,-0.79511453,27.061885,17.119096)"
         id="g8965">
        <path
           d="m 0,0 1.997,-5.088 -0.53,-0.405 c -0.246,0.669 -1.631,4.433 -1.779,4.931 -0.163,0.543 -0.4,0 -0.4,0 L -2.263,-4.618 -2.624,-4.094 -1.018,0 C -0.738,0.713 -0.28,0.713 0,0"
           id="path8967"
           style="fill:#cfcccd;fill-opacity:1;fill-rule:nonzero;stroke:none" />
      </g>
      <g
         transform="matrix(0.79511453,0,0,-0.79511453,29.955784,13.399741)"
         id="g8969">
        <path
           d="m 0,0 c -0.11,-0.881 -0.854,-1.565 -1.766,-1.565 -0.466,0 -0.888,0.182 -1.206,0.475 -0.31,-0.53 -0.88,-0.891 -1.539,-0.891 -0.452,0 -0.859,0.172 -1.173,0.447 -0.301,-0.225 -0.67,-0.364 -1.073,-0.364 -0.651,0 -1.215,0.35 -1.527,0.868 -0.126,-0.022 -0.254,-0.036 -0.386,-0.036 -1.173,0 -2.123,0.948 -2.123,2.123 0,1.17 0.95,2.119 2.123,2.119 0.043,0 0.084,-0.003 0.127,-0.005 0.019,0.97 0.808,1.752 1.786,1.752 0.521,0 0.985,-0.227 1.312,-0.581 0.388,0.505 0.996,0.831 1.682,0.831 0.938,0 1.733,-0.61 2.013,-1.454 0.128,0.024 0.263,0.04 0.4,0.04 1.171,0 2.121,-0.949 2.121,-2.122 C 0.771,0.979 0.472,0.39 0,0"
           id="path8971"
           style="fill:#cfcccd;fill-opacity:1;fill-rule:nonzero;stroke:none" />
      </g>
    </g>
    <path
       d="m -53.008533,30.43799 c 0,-8.749644 25.873872,-5.106947 25.873872,-17.362454 0,-14.6553347 -82.415419,-9.6635591 -82.415419,-17.3204976 0,-5.469528 24.905518,-9.1754764 24.905518,-9.1754764 0,0 -35.456008,1.476581 -35.456008,10.0883916 0,14.1445894 59.503567,12.3555443 59.503567,18.7328274 0,7.242438 -37.622616,10.371612 -37.622616,16.934845 0,15.338067 71.084958,10.272959 71.084958,10.272959 0,0 -25.873872,-2.983787 -25.873872,-12.170595 z"
       id="path4"
       style="color:#000000;fill:#cfcccd;fill-opacity:1;fill-rule:nonzero;stroke:#ffffff;stroke-width:0.64187998;stroke-linejoin:round;stroke-miterlimit:4;stroke-opacity:1;stroke-dasharray:none;marker:none;visibility:visible;display:inline;overflow:visible;enable-background:accumulate" />
    <path
       d="m -103.78692,-5.5175175 3.818892,-9.4432485 26.479001,-0.635054 5.472766,13.9428877"
       id="path8963-9"
       style="color:#000000;fill:#cfcccd;fill-opacity:1;fill-rule:nonzero;stroke:none;stroke-width:1.82050085;marker:none;visibility:visible;display:inline;overflow:visible;enable-background:accumulate" />
    <g
       id="g3928">
      <path
         d="m -39.33803,14.919967 c 0,0 3.351528,2.438139 2.98207,5.207541 l -5.761611,-3.803978 c 0,0 -7.321255,8.912023 -14.588283,-1.403328 v -2.37e-4 c 7.266792,-10.3151137 14.588283,-1.403326 14.588283,-1.403326 l 5.761847,-3.8042144 c 0.369222,2.7696384 -2.982306,5.2073064 -2.982306,5.2075424 l 0,0 z m -17.067448,-3.669353 c -0.190034,0 -0.343994,0.153961 -0.343994,0.343759 0,0.189799 0.15396,0.343759 0.343994,0.343759 0.190035,0 0.343995,-0.15396 0.343995,-0.343759 0,-0.189798 -0.15396,-0.343759 -0.343995,-0.343759 z m 0,-2.5517826 c -0.238839,0 -0.43241,0.1935712 -0.43241,0.4324102 0,0.238839 0.193571,0.4321741 0.43241,0.4321741 0.238839,0 0.432411,-0.1933351 0.432411,-0.4321741 0,-0.238839 -0.193572,-0.4324102 -0.432411,-0.4324102 z m 0,-2.8170279 c -0.311929,0 -0.564915,0.2529857 -0.564915,0.5649145 0,0.3119288 0.252986,0.5649145 0.564915,0.5649145 0.311929,0 0.564914,-0.2529857 0.564914,-0.5649145 0,-0.3119288 -0.25275,-0.5649145 -0.564914,-0.5649145 z"
         id="path4-7"
         style="fill:#ffffff;fill-opacity:1" />
      <path
         d="m 33.45574,32.242905 a 0.0988751,0.0988751 0 1 1 -0.19775,0 0.0988751,0.0988751 0 1 1 0.19775,0 z"
         transform="matrix(2.0893195,0,0,2.0893195,-123.52124,-53.481996)"
         id="path3832"
         style="color:#000000;fill:#cfcccd;fill-opacity:1;fill-rule:nonzero;stroke:#cfcccd;stroke-width:0.30000001;stroke-linejoin:round;stroke-miterlimit:4;stroke-opacity:1;stroke-dasharray:none;marker:none;visibility:visible;display:inline;overflow:visible;enable-background:accumulate" />
    </g>
  </g>
</svg>
