<?xml version="1.0" encoding="UTF-8" standalone="no"?>
<!-- Created with Inkscape (http://www.inkscape.org/) -->

<svg
   xmlns:dc="http://purl.org/dc/elements/1.1/"
   xmlns:cc="http://creativecommons.org/ns#"
   xmlns:rdf="http://www.w3.org/1999/02/22-rdf-syntax-ns#"
   xmlns:svg="http://www.w3.org/2000/svg"
   xmlns="http://www.w3.org/2000/svg"
   xmlns:sodipodi="http://sodipodi.sourceforge.net/DTD/sodipodi-0.dtd"
   xmlns:inkscape="http://www.inkscape.org/namespaces/inkscape"
   width="48px"
   height="48px"
   id="svg28083"
   version="1.1"
   inkscape:version="0.48.4 r9943 custom"
   sodipodi:docname="voiture.svg">
  <defs
     id="defs28085">
    <clipPath
       clipPathUnits="userSpaceOnUse"
       id="clipPath4901">
      <path
         inkscape:connector-curvature="0"
         d="m 315.748,1648.19 0.773,0 0,-0.63 -0.773,0 0,0.63 z"
         id="path4903" />
    </clipPath>
    <clipPath
       clipPathUnits="userSpaceOnUse"
       id="clipPath4905">
      <path
         inkscape:connector-curvature="0"
         d="m 315.759,1648.18 0.762,0 0,-0.62 -0.762,0 0,0.62 z"
         id="path4907" />
    </clipPath>
    <clipPath
       clipPathUnits="userSpaceOnUse"
       id="clipPath4909">
      <path
         inkscape:connector-curvature="0"
         d="m 315.748,1648.19 0.011,0 0,-0.01 -0.011,0 0,0.01 z"
         id="path4911" />
    </clipPath>
    <clipPath
       clipPathUnits="userSpaceOnUse"
       id="clipPath4857">
      <path
         inkscape:connector-curvature="0"
         d="m 327.146,1644.07 0.45,0 0,-0.02 -0.45,0 0,0.02 z"
         id="path4859" />
    </clipPath>
    <clipPath
       clipPathUnits="userSpaceOnUse"
       id="clipPath4861">
      <path
         inkscape:connector-curvature="0"
         d="m 327.146,1644.07 0.446,0 0,-0.02 -0.446,0 0,0.02 z"
         id="path4863" />
    </clipPath>
    <clipPath
       clipPathUnits="userSpaceOnUse"
       id="clipPath4865">
      <path
         inkscape:connector-curvature="0"
         d="m 327.592,1644.05 0.004,0 0,0 -0.004,0 z"
         id="path4867" />
    </clipPath>
  </defs>
  <sodipodi:namedview
     id="base"
     pagecolor="#ffffff"
     bordercolor="#666666"
     borderopacity="1.0"
     inkscape:pageopacity="0.0"
     inkscape:pageshadow="2"
     inkscape:zoom="7"
     inkscape:cx="26.60379"
     inkscape:cy="24"
     inkscape:current-layer="layer1"
     showgrid="true"
     inkscape:grid-bbox="true"
     inkscape:document-units="px"
     inkscape:window-width="651"
     inkscape:window-height="653"
     inkscape:window-x="1333"
     inkscape:window-y="295"
     inkscape:window-maximized="0" />
  <metadata
     id="metadata28088">
    <rdf:RDF>
      <cc:Work
         rdf:about="">
        <dc:format>image/svg+xml</dc:format>
        <dc:type
           rdf:resource="http://purl.org/dc/dcmitype/StillImage" />
        <dc:title></dc:title>
      </cc:Work>
    </rdf:RDF>
  </metadata>
  <g
     id="layer1"
     inkscape:label="Layer 1"
     inkscape:groupmode="layer">
    <g
       transform="matrix(1.25,0,0,-1.25,24.016875,36.619821)"
       id="g6785">
      <path
         inkscape:connector-curvature="0"
         id="path6787"
         style="fill:#cfcccd;fill-opacity:1;fill-rule:nonzero;stroke:none"
         d="m 0,0 c -4.642,0 -8.406,3.764 -8.406,8.405 0,0.994 0.174,1.947 0.49,2.834 l 15.829,0 C 8.23,10.352 8.406,9.399 8.406,8.405 8.406,6.655 7.869,5.031 6.955,3.686 5.327,3.418 3.636,3.418 2.324,3.487 2.164,4.283 1.345,4.895 0.353,4.895 c -1.107,0 -2.004,-0.759 -2.004,-1.69 0,-0.934 0.897,-1.69 2.004,-1.69 0.787,0 1.461,0.384 1.789,0.941 C 2.633,2.429 3.177,2.408 3.756,2.408 4.464,2.408 5.224,2.44 5.994,2.519 4.468,0.965 2.347,0 0,0 m 14.133,12.063 c 0,6.483 -6.334,11.735 -14.148,11.735 -7.811,0 -14.145,-5.252 -14.145,-11.735 0,-0.862 0.12,-1.701 0.336,-2.51 -0.01,-0.164 -0.015,-0.344 -0.015,-0.531 l 0,-1.652 c 0,-0.777 0.089,-1.403 0.201,-1.403 l 2.244,0 c 0.113,0 0.203,0.626 0.203,1.403 l 0,1.652 c 0,0.775 -0.09,1.404 -0.203,1.404 l -0.471,0 c -0.108,0.534 -0.169,1.08 -0.169,1.637 0,5.508 5.383,9.973 12.019,9.973 6.64,0 12.022,-4.465 12.022,-9.973 0,-0.556 -0.059,-1.103 -0.169,-1.637 l -0.4,0 c -0.11,0 -0.201,-0.629 -0.201,-1.404 l 0,-1.652 c 0,-0.777 0.091,-1.403 0.201,-1.403 l 0.185,0 C 11.329,5.585 10.967,5.258 10.558,4.979 c 0.35,1.079 0.541,2.23 0.541,3.426 C 11.099,14.536 6.13,19.5 0,19.5 c -6.13,0 -11.1,-4.964 -11.1,-11.095 0,-6.131 4.97,-11.097 11.1,-11.097 4.357,0 8.127,2.511 9.945,6.165 1.224,0.542 2.264,1.338 2.905,2.494 l 0.834,0 c 0.111,0 0.201,0.626 0.201,1.403 l 0,1.652 c 0,0.267 -0.011,0.516 -0.03,0.729 0.182,0.747 0.278,1.521 0.278,2.312" />
    </g>
  </g>
</svg>
