<?xml version="1.0" encoding="UTF-8" standalone="no"?>
<!-- Created with Inkscape (http://www.inkscape.org/) -->

<svg
   xmlns:dc="http://purl.org/dc/elements/1.1/"
   xmlns:cc="http://creativecommons.org/ns#"
   xmlns:rdf="http://www.w3.org/1999/02/22-rdf-syntax-ns#"
   xmlns:svg="http://www.w3.org/2000/svg"
   xmlns="http://www.w3.org/2000/svg"
   xmlns:sodipodi="http://sodipodi.sourceforge.net/DTD/sodipodi-0.dtd"
   xmlns:inkscape="http://www.inkscape.org/namespaces/inkscape"
   width="48px"
   height="48px"
   id="svg28083"
   version="1.1"
   inkscape:version="0.48.4 r9943 custom"
   sodipodi:docname="montagne-telecabine-pourcent.svg">
  <defs
     id="defs28085">
    <clipPath
       clipPathUnits="userSpaceOnUse"
       id="clipPath4901">
      <path
         inkscape:connector-curvature="0"
         d="m 315.748,1648.19 0.773,0 0,-0.63 -0.773,0 0,0.63 z"
         id="path4903" />
    </clipPath>
    <clipPath
       clipPathUnits="userSpaceOnUse"
       id="clipPath4905">
      <path
         inkscape:connector-curvature="0"
         d="m 315.759,1648.18 0.762,0 0,-0.62 -0.762,0 0,0.62 z"
         id="path4907" />
    </clipPath>
    <clipPath
       clipPathUnits="userSpaceOnUse"
       id="clipPath4909">
      <path
         inkscape:connector-curvature="0"
         d="m 315.748,1648.19 0.011,0 0,-0.01 -0.011,0 0,0.01 z"
         id="path4911" />
    </clipPath>
    <clipPath
       clipPathUnits="userSpaceOnUse"
       id="clipPath4857">
      <path
         inkscape:connector-curvature="0"
         d="m 327.146,1644.07 0.45,0 0,-0.02 -0.45,0 0,0.02 z"
         id="path4859" />
    </clipPath>
    <clipPath
       clipPathUnits="userSpaceOnUse"
       id="clipPath4861">
      <path
         inkscape:connector-curvature="0"
         d="m 327.146,1644.07 0.446,0 0,-0.02 -0.446,0 0,0.02 z"
         id="path4863" />
    </clipPath>
    <clipPath
       clipPathUnits="userSpaceOnUse"
       id="clipPath4865">
      <path
         inkscape:connector-curvature="0"
         d="m 327.592,1644.05 0.004,0 0,0 -0.004,0 z"
         id="path4867" />
    </clipPath>
  </defs>
  <sodipodi:namedview
     id="base"
     pagecolor="#ffffff"
     bordercolor="#666666"
     borderopacity="1.0"
     inkscape:pageopacity="0.0"
     inkscape:pageshadow="2"
     inkscape:zoom="7"
     inkscape:cx="26.40694"
     inkscape:cy="24"
     inkscape:current-layer="layer1"
     showgrid="true"
     inkscape:grid-bbox="true"
     inkscape:document-units="px"
     inkscape:window-width="693"
     inkscape:window-height="653"
     inkscape:window-x="594"
     inkscape:window-y="52"
     inkscape:window-maximized="0" />
  <metadata
     id="metadata28088">
    <rdf:RDF>
      <cc:Work
         rdf:about="">
        <dc:format>image/svg+xml</dc:format>
        <dc:type
           rdf:resource="http://purl.org/dc/dcmitype/StillImage" />
        <dc:title></dc:title>
      </cc:Work>
    </rdf:RDF>
  </metadata>
  <g
     id="layer1"
     inkscape:label="Layer 1"
     inkscape:groupmode="layer">
    <path
       d="m 47.807378,30.375828 c -2.98915,-4.001604 -10.847721,-6.460421 -20.249081,-6.942542 -0.24106,0 -0.530332,0 -0.771394,0 7.81036,0.144636 14.463629,3.760544 17.549205,7.5693 -0.91603,0.144636 -1.928485,0.289272 -3.037363,0.48212 -2.699878,-4.098028 -9.256724,-8.05142 -16.970659,-8.05142 -0.337484,0 -0.626757,0 -0.964242,0 6.749694,0.241061 12.438722,4.387301 14.608266,8.437118 -1.301726,0.144636 -2.651666,0.24106 -3.953392,0.289272 -1.880271,-4.339089 -7.280027,-8.72639 -13.644024,-8.72639 -0.337485,0 -0.67497,0 -1.012454,0.0482 5.158693,0.289273 9.449571,4.628362 10.944147,8.72639 -1.205303,-0.0482 -2.603454,-0.09642 -4.146241,-0.144636 -1.39815,-4.242665 -5.255119,-8.581754 -9.787057,-8.581754 -0.385696,0 -0.771394,0 -1.108877,0.0482 3.181997,0.433909 5.833664,4.435514 6.894329,8.340693 -1.446363,-0.09642 -2.940938,-0.192848 -4.483725,-0.289272 -0.91603,-3.905181 -3.085574,-7.713936 -5.592603,-7.713936 -1.205302,0 -3.2784234,0.674969 -5.3997552,1.783847 v -2.265953 c 0.6749688,-0.192849 1.2053018,-1.012455 1.2053018,-1.976696 0,-1.108878 -0.9160293,-2.024908 -1.494575,-2.024908 -0.5785449,0 -1.4945748,0.91603 -1.4945748,2.024908 0,1.060666 0.5785455,1.928484 1.3499389,2.024908 v 2.410609 c -0.964242,0.530338 -1.928484,1.108882 -2.796302,1.783853 v -1.880273 c 0.5785457,-0.144635 1.0606667,-0.916029 1.0606667,-1.783847 0,-1.012454 -0.5785457,-1.832061 -1.3017271,-1.832061 -0.7231816,0 -1.3017265,0.819607 -1.3017265,1.832061 0,0.964242 0.5303329,1.735635 1.1570905,1.783847 v 2.169546 c -0.91603,0.72318 -1.7838481,1.542787 -2.45881763,2.410604 -0.33748442,-0.0482 -0.53033296,-0.0482 -0.53033296,-0.0482 v 0.819605 l 0,0 v 0 l 0,0 V 42.766349 C 1.5719747,42.81455 21.387149,43.537742 14.685666,40.886077 7.9359722,38.186199 46.216379,38.571895 48.289501,38.571895 v -8.292483 c 0,0 -0.19285,0.0482 -0.482123,0.09642 z"
       id="path3208"
       style="fill:#4d4d4d"
       inkscape:connector-curvature="0" />
    <path
       d="M 21.194299,42.043156 C 33.82587,45.610853 2.0058837,44.068065 0.07739971,43.97164 v 4.001604 H 48.289501 V 40.114672 C 46.216379,40.018248 8.5145171,38.427249 21.194299,42.043156 z"
       id="path3210"
       style="fill:#4d4d4d"
       inkscape:connector-curvature="0" />
    <g
       transform="matrix(-0.21192186,0,0,0.21192186,13.339479,26.369026)"
       id="g3224"
       style="fill:#4d4d4d">
      <path
         inkscape:connector-curvature="0"
         d="m 49.585,63.164 c 0,-2.795 -2.261,-5.055 -5.048,-5.055 -2.787,0 -5.055,2.26 -5.055,5.055 0,2.787 2.268,5.047 5.055,5.047 2.787,0 5.048,-2.26 5.048,-5.047 l 0,0 z"
         id="path3226"
         style="fill:#4d4d4d" />
    </g>
    <path
       inkscape:connector-curvature="0"
       d="m 2.2330771,39.754858 c 0,0.920589 0.7474485,1.667614 1.6680372,1.667614 0.9222842,0 1.6693084,-0.747025 1.6693084,-1.667614 0,-0.922284 -0.7470242,-1.669308 -1.6693084,-1.669308 -0.9205887,0 -1.6680372,0.747024 -1.6680372,1.669308 l 0,0 z m -1.1100467,0 c 0,-1.535162 1.2441931,-2.779778 2.7780839,-2.779778 1.5351619,0 2.7795669,1.244616 2.7795669,2.779778 0,1.533467 -1.244405,2.778084 -2.7795669,2.778084 -1.5338908,0 -2.7780839,-1.244617 -2.7780839,-2.778084 l 0,0 z"
       id="path3228"
       style="fill:#ffffff" />
    <path
       inkscape:connector-curvature="0"
       d="m 10.371936,41.210126 c 0,0.376585 0.306016,0.684295 0.682812,0.684295 0.376798,0 0.682602,-0.307498 0.682602,-0.684295 0,-0.376797 -0.305804,-0.6826 -0.682602,-0.6826 -0.376797,0 -0.682812,0.306014 -0.682812,0.6826 l 0,0 z m -0.6387325,0 c 0,-0.730495 0.5906265,-1.321121 1.3213335,-1.321121 0.729011,0 1.322816,0.590626 1.322816,1.321121 0,0.730918 -0.593805,1.322816 -1.322816,1.322816 -0.730707,0 -1.3213335,-0.591898 -1.3213335,-1.322816 l 0,0 z"
       id="path3230"
       style="fill:#ffffff" />
    <path
       inkscape:connector-curvature="0"
       d="m 9.6049908,40.554864 c 0.3632343,-0.800006 1.3048032,-1.155611 2.1062912,-0.794284 0.17314,0.07863 0.331234,0.188399 0.466865,0.322334 h 0.520055 v -3.46789 H 7.7956022 L 6.8902727,33.428567 V 32.919319 H 2.3598061 v 3.451571 l -0.9371184,0.992854 0.2848234,0.274438 c 1.1674775,-1.211345 3.0976614,-1.2461 4.309007,-0.07863 0.8014889,0.773091 1.1178885,1.920861 0.8256478,2.995516 H 9.6049908 z M 2.8749886,36.142015 v -2.641183 h 3.4998898 l 0.8828661,3.111224 H 6.0584795 L 5.6306084,36.142015 H 2.8749886 z"
       id="path3232"
       style="fill:#ffffff" />
  </g>
</svg>
