<?xml version="1.0" encoding="UTF-8" standalone="no"?>
<!-- Created with Inkscape (http://www.inkscape.org/) -->

<svg
   xmlns:dc="http://purl.org/dc/elements/1.1/"
   xmlns:cc="http://creativecommons.org/ns#"
   xmlns:rdf="http://www.w3.org/1999/02/22-rdf-syntax-ns#"
   xmlns:svg="http://www.w3.org/2000/svg"
   xmlns="http://www.w3.org/2000/svg"
   xmlns:sodipodi="http://sodipodi.sourceforge.net/DTD/sodipodi-0.dtd"
   xmlns:inkscape="http://www.inkscape.org/namespaces/inkscape"
   width="48px"
   height="48px"
   id="svg28083"
   version="1.1"
   inkscape:version="0.48.4 r9939"
   sodipodi:docname="surface-agricole.svg">
  <defs
     id="defs28085">
    <clipPath
       clipPathUnits="userSpaceOnUse"
       id="clipPath4901">
      <path
         inkscape:connector-curvature="0"
         d="m 315.748,1648.19 0.773,0 0,-0.63 -0.773,0 0,0.63 z"
         id="path4903" />
    </clipPath>
    <clipPath
       clipPathUnits="userSpaceOnUse"
       id="clipPath4905">
      <path
         inkscape:connector-curvature="0"
         d="m 315.759,1648.18 0.762,0 0,-0.62 -0.762,0 0,0.62 z"
         id="path4907" />
    </clipPath>
    <clipPath
       clipPathUnits="userSpaceOnUse"
       id="clipPath4909">
      <path
         inkscape:connector-curvature="0"
         d="m 315.748,1648.19 0.011,0 0,-0.01 -0.011,0 0,0.01 z"
         id="path4911" />
    </clipPath>
    <clipPath
       clipPathUnits="userSpaceOnUse"
       id="clipPath4857">
      <path
         inkscape:connector-curvature="0"
         d="m 327.146,1644.07 0.45,0 0,-0.02 -0.45,0 0,0.02 z"
         id="path4859" />
    </clipPath>
    <clipPath
       clipPathUnits="userSpaceOnUse"
       id="clipPath4861">
      <path
         inkscape:connector-curvature="0"
         d="m 327.146,1644.07 0.446,0 0,-0.02 -0.446,0 0,0.02 z"
         id="path4863" />
    </clipPath>
    <clipPath
       clipPathUnits="userSpaceOnUse"
       id="clipPath4865">
      <path
         inkscape:connector-curvature="0"
         d="m 327.592,1644.05 0.004,0 0,0 -0.004,0 z"
         id="path4867" />
    </clipPath>
  </defs>
  <sodipodi:namedview
     id="base"
     pagecolor="#ffffff"
     bordercolor="#666666"
     borderopacity="1.0"
     inkscape:pageopacity="0.0"
     inkscape:pageshadow="2"
     inkscape:zoom="9.8994949"
     inkscape:cx="8.5183469"
     inkscape:cy="10.462958"
     inkscape:current-layer="layer1"
     showgrid="true"
     inkscape:grid-bbox="true"
     inkscape:document-units="px"
     inkscape:window-width="693"
     inkscape:window-height="653"
     inkscape:window-x="1920"
     inkscape:window-y="277"
     inkscape:window-maximized="0" />
  <metadata
     id="metadata28088">
    <rdf:RDF>
      <cc:Work
         rdf:about="">
        <dc:format>image/svg+xml</dc:format>
        <dc:type
           rdf:resource="http://purl.org/dc/dcmitype/StillImage" />
        <dc:title />
      </cc:Work>
    </rdf:RDF>
  </metadata>
  <g
     id="layer1"
     inkscape:label="Layer 1"
     inkscape:groupmode="layer">
    <g
       id="g3003">
      <path
         id="path3208"
         d="M 6.40625 19.375 C 5.8277051 19.375 4.90625 20.297372 4.90625 21.40625 C 4.90625 22.466916 5.4786066 23.341076 6.25 23.4375 L 6.25 25.84375 C 5.285758 26.374088 4.305318 26.950029 3.4375 27.625 L 3.4375 25.75 C 4.0160457 25.605365 4.5 24.836568 4.5 23.96875 C 4.5 22.956296 3.9419314 22.125 3.21875 22.125 C 2.4955684 22.125 1.90625 22.956296 1.90625 23.96875 C 1.90625 24.932992 2.4357424 25.701788 3.0625 25.75 L 3.0625 27.90625 C 2.14647 28.62943 1.2687195 29.444683 0.59375 30.3125 C 0.25626558 30.2643 0.0625 30.28125 0.0625 30.28125 L 0.0625 31.09375 L 0.0625 42.78125 C 1.557075 42.829451 21.388983 43.526665 14.6875 40.875 C 7.9378062 38.175122 46.208128 38.5625 48.28125 38.5625 L 48.28125 30.28125 C 48.28125 30.28125 48.101773 30.32678 47.8125 30.375 C 44.898134 26.47351 37.338857 24.066228 28.25 23.5 C 35.427788 24.03038 41.451023 27.429291 44.34375 31 C 43.42772 31.144636 42.421378 31.307152 41.3125 31.5 C 38.612622 27.401972 32.026435 23.4375 24.3125 23.4375 L 23.375 23.4375 C 30.124694 23.678561 35.799206 27.825183 37.96875 31.875 C 36.667024 32.019636 35.332976 32.108038 34.03125 32.15625 C 32.150979 27.817161 26.738997 23.4375 20.375 23.4375 C 20.037515 23.4375 19.712484 23.42055 19.375 23.46875 C 24.533693 23.758023 28.817924 28.120722 30.3125 32.21875 C 29.107197 32.17055 27.699037 32.110716 26.15625 32.0625 C 24.7581 27.819835 20.906938 23.46875 16.375 23.46875 C 15.989304 23.46875 15.587483 23.48305 15.25 23.53125 C 18.431997 23.965159 21.095585 27.969821 22.15625 31.875 C 20.709887 31.77858 19.230287 31.690174 17.6875 31.59375 C 16.77147 27.688569 14.600779 23.875 12.09375 23.875 C 10.888448 23.875 8.8088318 24.547372 6.6875 25.65625 L 6.6875 23.375 C 7.3624688 23.182151 7.875 22.370491 7.875 21.40625 C 7.875 20.297372 6.9847957 19.375 6.40625 19.375 z M 28.25 23.5 C 28.016776 23.48547 27.797708 23.449562 27.5625 23.4375 L 26.78125 23.4375 C 27.269398 23.44654 27.771481 23.464641 28.25 23.5 z M 2.375 32.90625 L 6.875 32.90625 L 6.875 33.4375 L 7.78125 36.625 L 12.6875 36.625 L 12.6875 40.09375 L 12.1875 40.09375 C 12.051869 39.959815 11.89189 39.82863 11.71875 39.75 C 10.917262 39.388673 9.9569843 39.762494 9.59375 40.5625 L 6.84375 40.5625 C 7.1359907 39.487845 6.8327389 38.335591 6.03125 37.5625 C 4.8199044 36.39503 2.8862275 36.413655 1.71875 37.625 L 1.4375 37.375 L 2.375 36.375 L 2.375 32.90625 z M 2.875 33.5 L 2.875 36.15625 L 5.625 36.15625 L 6.0625 36.625 L 7.25 36.625 L 6.375 33.5 L 2.875 33.5 z M 3.90625 36.96875 C 5.4414119 36.96875 6.6875 38.214838 6.6875 39.75 C 6.6875 41.283467 5.4414119 42.53125 3.90625 42.53125 C 2.3723592 42.53125 1.125 41.283467 1.125 39.75 C 1.125 38.214838 2.3723592 36.96875 3.90625 36.96875 z M 3.90625 38.09375 C 2.9856613 38.09375 2.21875 38.827716 2.21875 39.75 C 2.21875 40.670589 2.9856613 41.4375 3.90625 41.4375 C 4.8285342 41.4375 5.5625 40.670589 5.5625 39.75 C 5.5625 38.827716 4.8285342 38.09375 3.90625 38.09375 z M 11.0625 39.875 C 11.791511 39.875 12.375 40.488255 12.375 41.21875 C 12.375 41.949668 11.791511 42.53125 11.0625 42.53125 C 10.331793 42.53125 9.71875 41.949668 9.71875 41.21875 C 9.71875 40.488255 10.331793 39.875 11.0625 39.875 z M 11.0625 40.53125 C 10.685703 40.53125 10.375 40.842164 10.375 41.21875 C 10.375 41.595335 10.685704 41.90625 11.0625 41.90625 C 11.439298 41.90625 11.75 41.595547 11.75 41.21875 C 11.75 40.841953 11.439298 40.53125 11.0625 40.53125 z "
         style="fill:#cfcccd" />
      <path
         inkscape:connector-curvature="0"
         style="fill:#cfcccd"
         id="path3210"
         d="M 21.194299,42.043156 C 33.82587,45.610853 2.0058837,44.068065 0.07739971,43.97164 v 4.001604 H 48.289501 V 40.114672 C 46.216379,40.018248 8.5145171,38.427249 21.194299,42.043156 z" />
      <g
         style="fill:#cfcccd"
         id="g3224"
         transform="matrix(-0.21192186,0,0,0.21192186,13.339479,26.369026)">
        <path
           style="fill:#cfcccd"
           id="path3226"
           d="m 49.585,63.164 c 0,-2.795 -2.261,-5.055 -5.048,-5.055 -2.787,0 -5.055,2.26 -5.055,5.055 0,2.787 2.268,5.047 5.055,5.047 2.787,0 5.048,-2.26 5.048,-5.047 l 0,0 z"
           inkscape:connector-curvature="0" />
      </g>
    </g>
  </g>
</svg>
