<?xml version="1.0" encoding="UTF-8" standalone="no"?>
<!-- Created with Inkscape (http://www.inkscape.org/) -->

<svg
   xmlns:dc="http://purl.org/dc/elements/1.1/"
   xmlns:cc="http://creativecommons.org/ns#"
   xmlns:rdf="http://www.w3.org/1999/02/22-rdf-syntax-ns#"
   xmlns:svg="http://www.w3.org/2000/svg"
   xmlns="http://www.w3.org/2000/svg"
   xmlns:sodipodi="http://sodipodi.sourceforge.net/DTD/sodipodi-0.dtd"
   xmlns:inkscape="http://www.inkscape.org/namespaces/inkscape"
   version="1.1"
   width="48"
   height="48"
   id="svg28083"
   inkscape:version="0.48.4 r9939"
   sodipodi:docname="taux-mortalite.svg">
  <sodipodi:namedview
     pagecolor="#ffffff"
     bordercolor="#666666"
     borderopacity="1"
     objecttolerance="10"
     gridtolerance="10"
     guidetolerance="10"
     inkscape:pageopacity="0"
     inkscape:pageshadow="2"
     inkscape:window-width="640"
     inkscape:window-height="480"
     id="namedview21"
     showgrid="false"
     inkscape:zoom="4.9166667"
     inkscape:cx="24"
     inkscape:cy="24"
     inkscape:window-x="75"
     inkscape:window-y="34"
     inkscape:window-maximized="0"
     inkscape:current-layer="text3485" />
  <defs
     id="defs28085">
    <clipPath
       id="clipPath4901">
      <path
         d="m 315.748,1648.19 0.773,0 0,-0.63 -0.773,0 0,0.63 z"
         id="path4903" />
    </clipPath>
    <clipPath
       id="clipPath4905">
      <path
         d="m 315.759,1648.18 0.762,0 0,-0.62 -0.762,0 0,0.62 z"
         id="path4907" />
    </clipPath>
    <clipPath
       id="clipPath4909">
      <path
         d="m 315.748,1648.19 0.011,0 0,-0.01 -0.011,0 0,0.01 z"
         id="path4911" />
    </clipPath>
    <clipPath
       id="clipPath4857">
      <path
         d="m 327.146,1644.07 0.45,0 0,-0.02 -0.45,0 0,0.02 z"
         id="path4859" />
    </clipPath>
    <clipPath
       id="clipPath4861">
      <path
         d="m 327.146,1644.07 0.446,0 0,-0.02 -0.446,0 0,0.02 z"
         id="path4863" />
    </clipPath>
    <clipPath
       id="clipPath4865">
      <path
         d="m 327.592,1644.05 0.004,0 0,0 -0.004,0 z"
         id="path4867" />
    </clipPath>
  </defs>
  <metadata
     id="metadata28088">
    <rdf:RDF>
      <cc:Work
         rdf:about="">
        <dc:format>image/svg+xml</dc:format>
        <dc:type
           rdf:resource="http://purl.org/dc/dcmitype/StillImage" />
        <dc:title />
      </cc:Work>
    </rdf:RDF>
  </metadata>
  <g
     transform="scale(0.96419705,1.0371324)"
     style="font-size:16.63607979px;font-style:normal;font-variant:normal;font-weight:bold;font-stretch:normal;text-align:center;line-height:125%;letter-spacing:0px;word-spacing:0px;text-anchor:middle;color:#000000;fill:#4f4c4d;fill-opacity:1;fill-rule:nonzero;stroke:none;stroke-width:7.59637547;marker:none;visibility:visible;display:inline;overflow:visible;enable-background:accumulate;font-family:STIXSizeFourSym;-inkscape-font-specification:STIXSizeFourSym Bold"
     id="text3485">
    <path
       d="m 42.838995,12.002962 c -0.384505,5e-6 -0.682351,0.167882 -0.893539,0.503631 -0.211212,0.330343 -0.316812,0.804189 -0.3168,1.42154 -1.2e-5,0.622772 0.10288,1.102034 0.308677,1.437786 0.211188,0.33034 0.511742,0.49551 0.901662,0.495508 0.389895,2e-6 0.687741,-0.165168 0.89354,-0.495508 0.205771,-0.335752 0.308663,-0.815014 0.308677,-1.437786 -1.4e-5,-0.617351 -0.105614,-1.091197 -0.3168,-1.42154 -0.205799,-0.335749 -0.500937,-0.503626 -0.885417,-0.503631 m 0,-1.364679 c 1.007249,7e-6 1.800603,0.292437 2.380065,0.877294 0.579431,0.584867 0.869154,1.389051 0.86917,2.412556 -1.6e-5,1.023511 -0.289739,1.833111 -0.86917,2.428803 -0.579462,0.590277 -1.372816,0.885416 -2.380065,0.885416 -1.007274,0 -1.803336,-0.295139 -2.388187,-0.885416 -0.579457,-0.595692 -0.86918,-1.405292 -0.86917,-2.428803 -10e-6,-1.018089 0.289713,-1.819566 0.86917,-2.404433 0.584851,-0.590272 1.380913,-0.88541 2.388187,-0.885417 m -7.448869,6.604069 -1.795202,0 7.578839,-12.5826599 1.803325,0 -7.586962,12.5826599 M 33.724893,4.6596921 c 1.007258,1.23e-5 1.797904,0.2951508 2.371941,0.8854163 0.57944,0.5848731 0.869163,1.3890578 0.86917,2.4125565 -7e-6,1.0235169 -0.28973,1.8304092 -0.86917,2.4206791 -0.574037,0.590284 -1.364683,0.885423 -2.371941,0.885417 -1.007265,6e-6 -1.800619,-0.295133 -2.380064,-0.885417 -0.574032,-0.5902699 -0.861048,-1.3971622 -0.861047,-2.4206791 -1e-6,-1.0234987 0.287015,-1.8276834 0.861047,-2.4125565 0.579445,-0.5902655 1.372799,-0.885404 2.380064,-0.8854163 m 0,1.3646784 c -0.389911,1.1e-5 -0.690465,0.1678879 -0.901662,0.5036313 -0.211203,0.3357644 -0.316803,0.8123183 -0.316801,1.4296631 -2e-6,0.6227784 0.105598,1.1047476 0.316801,1.4459093 0.211197,0.3357615 0.511751,0.5036384 0.901662,0.5036313 0.389904,7.1e-6 0.68775,-0.1678698 0.89354,-0.5036313 0.211195,-0.3411617 0.316795,-0.8231309 0.3168,-1.4459093 -5e-6,-0.6173448 -0.105605,-1.0938987 -0.3168,-1.4296631 -0.211205,-0.3357434 -0.509051,-0.5036203 -0.89354,-0.5036313"
       style="color:#000000;fill:#4f4c4d;marker:none;visibility:visible;display:inline;overflow:visible;enable-background:accumulate;font-family:Sans;-inkscape-font-specification:Sans Bold"
       id="path2999" />
  </g>
  <g
     transform="matrix(1.3806886,0,0,-1.3806886,11.352978,24.608958)"
     id="g15000">
    <path
       d="m 0,0 c 1.047,0 2.828,0.524 2.934,-0.105 0.103,-0.629 0.208,-9.426 0.208,-9.426 0,0 -0.943,-0.314 -1.362,-0.314 -0.418,0 -0.209,-0.941 -0.104,-1.466 0.104,-0.522 -0.105,-1.047 -0.105,-1.047 0,0 -2.618,-0.627 -3.037,-0.734 -0.419,-0.102 -3.638,-0.705 -3.429,-1.439 0.01,-0.034 -1.701,-0.749 -1.694,-0.82 l 26.33,-0.309 c 0.01,0.258 -4.71,1.191 -4.701,1.317 0.105,1.364 -3.147,1.291 -3.728,1.774 -0.394,0.329 -3.561,0.84 -3.561,0.84 0,0 0.209,1.255 0.103,1.78 -0.103,0.522 -1.361,0.418 -1.778,0.627 -0.421,0.211 0,7.854 -0.105,8.588 C 5.864,0 6.18,0.42 6.704,0.313 c 0.523,-0.104 3.351,0.107 3.98,0 0.628,-0.104 0.418,1.573 0.418,2.412 0,0.836 -0.418,1.254 -1.047,1.254 -0.628,0 -3.115,-0.105 -3.533,-0.105 -0.419,0 -0.656,0.211 -0.656,0.211 0,0 0.237,4.512 0.237,5.243 0,0.735 0.181,1.469 -1.808,1.469 -1.991,0 -1.572,-0.839 -1.572,-1.572 0,-0.733 0.238,-5.246 0.238,-5.246 0,0 -0.447,-0.209 -1.39,-0.209 -0.943,0 -3.562,0.104 -3.979,0.104 C -2.827,3.874 -2.515,0.313 -2.095,0 -1.676,-0.314 -1.047,0 0,0"
       id="path15002"
       style="fill:#4f4c4d;fill-opacity:1;fill-rule:nonzero;stroke:none" />
  </g>
</svg>
