<?xml version="1.0" encoding="UTF-8" standalone="no"?>
<!-- Created with Inkscape (http://www.inkscape.org/) -->

<svg
   xmlns:dc="http://purl.org/dc/elements/1.1/"
   xmlns:cc="http://creativecommons.org/ns#"
   xmlns:rdf="http://www.w3.org/1999/02/22-rdf-syntax-ns#"
   xmlns:svg="http://www.w3.org/2000/svg"
   xmlns="http://www.w3.org/2000/svg"
   xmlns:sodipodi="http://sodipodi.sourceforge.net/DTD/sodipodi-0.dtd"
   xmlns:inkscape="http://www.inkscape.org/namespaces/inkscape"
   width="48px"
   height="48px"
   id="svg28083"
   version="1.1"
   inkscape:version="0.48.4 r9943 custom"
   sodipodi:docname="telecabine.svg">
  <defs
     id="defs28085">
    <clipPath
       clipPathUnits="userSpaceOnUse"
       id="clipPath4901">
      <path
         inkscape:connector-curvature="0"
         d="m 315.748,1648.19 0.773,0 0,-0.63 -0.773,0 0,0.63 z"
         id="path4903" />
    </clipPath>
    <clipPath
       clipPathUnits="userSpaceOnUse"
       id="clipPath4905">
      <path
         inkscape:connector-curvature="0"
         d="m 315.759,1648.18 0.762,0 0,-0.62 -0.762,0 0,0.62 z"
         id="path4907" />
    </clipPath>
    <clipPath
       clipPathUnits="userSpaceOnUse"
       id="clipPath4909">
      <path
         inkscape:connector-curvature="0"
         d="m 315.748,1648.19 0.011,0 0,-0.01 -0.011,0 0,0.01 z"
         id="path4911" />
    </clipPath>
    <clipPath
       clipPathUnits="userSpaceOnUse"
       id="clipPath4857">
      <path
         inkscape:connector-curvature="0"
         d="m 327.146,1644.07 0.45,0 0,-0.02 -0.45,0 0,0.02 z"
         id="path4859" />
    </clipPath>
    <clipPath
       clipPathUnits="userSpaceOnUse"
       id="clipPath4861">
      <path
         inkscape:connector-curvature="0"
         d="m 327.146,1644.07 0.446,0 0,-0.02 -0.446,0 0,0.02 z"
         id="path4863" />
    </clipPath>
    <clipPath
       clipPathUnits="userSpaceOnUse"
       id="clipPath4865">
      <path
         inkscape:connector-curvature="0"
         d="m 327.592,1644.05 0.004,0 0,0 -0.004,0 z"
         id="path4867" />
    </clipPath>
  </defs>
  <sodipodi:namedview
     id="base"
     pagecolor="#ffffff"
     bordercolor="#666666"
     borderopacity="1.0"
     inkscape:pageopacity="0.0"
     inkscape:pageshadow="2"
     inkscape:zoom="7"
     inkscape:cx="26.60379"
     inkscape:cy="24"
     inkscape:current-layer="layer1"
     showgrid="true"
     inkscape:grid-bbox="true"
     inkscape:document-units="px"
     inkscape:window-width="651"
     inkscape:window-height="653"
     inkscape:window-x="1333"
     inkscape:window-y="273"
     inkscape:window-maximized="0" />
  <metadata
     id="metadata28088">
    <rdf:RDF>
      <cc:Work
         rdf:about="">
        <dc:format>image/svg+xml</dc:format>
        <dc:type
           rdf:resource="http://purl.org/dc/dcmitype/StillImage" />
        <dc:title />
      </cc:Work>
    </rdf:RDF>
  </metadata>
  <g
     id="layer1"
     inkscape:label="Layer 1"
     inkscape:groupmode="layer">
    <g
       transform="matrix(1.25,0,0,-1.25,33.013925,25.56628)"
       id="g6829"
       style="fill:#cfcccd">
      <path
         inkscape:connector-curvature="0"
         id="path6831"
         style="fill:#cfcccd;fill-opacity:1;fill-rule:nonzero;stroke:none"
         d="m 0,0 0,-2.582 -3.717,0 0,7.249 C -1.59,4.177 0,2.277 0,0 m -15.141,-2.582 0,2.582 c 0,2.422 1.795,4.414 4.125,4.741 l 0,-7.323 -4.125,0 z m 5.371,7.377 4.809,0 0,-7.377 -4.809,0 0,7.377 z M 4.516,16.181 C 4.387,16.476 4.033,16.604 3.727,16.468 L -19.076,6.39 c -0.307,-0.135 -0.449,-0.485 -0.319,-0.778 0.131,-0.293 0.485,-0.424 0.79,-0.287 l 10.591,4.681 C -8.053,9.873 -8.076,9.727 -8.076,9.574 l 0,-1.642 -0.897,0 c -0.632,0 -1.146,-0.514 -1.146,-1.147 0,-0.121 0.023,-0.237 0.06,-0.348 l -0.906,0 c -3.242,0 -5.869,-2.63 -5.869,-5.871 l 0,-6.197 c 0,-3.242 2.627,-5.871 5.869,-5.871 l 6.789,0 c 3.24,0 5.869,2.629 5.869,5.871 l 0,6.197 c 0,3.241 -2.629,5.871 -5.869,5.871 l -0.472,0 c 0.037,0.111 0.06,0.227 0.06,0.348 0,0.633 -0.512,1.147 -1.146,1.147 l -0.848,0 0,1.642 c 0,0.382 -0.137,0.719 -0.346,0.911 l 11.125,4.916 c 0.307,0.137 0.448,0.488 0.319,0.78" />
    </g>
  </g>
</svg>
