<?xml version="1.0" encoding="UTF-8" standalone="no"?>
<!-- Created with Inkscape (http://www.inkscape.org/) -->

<svg
   xmlns:dc="http://purl.org/dc/elements/1.1/"
   xmlns:cc="http://creativecommons.org/ns#"
   xmlns:rdf="http://www.w3.org/1999/02/22-rdf-syntax-ns#"
   xmlns:svg="http://www.w3.org/2000/svg"
   xmlns="http://www.w3.org/2000/svg"
   xmlns:sodipodi="http://sodipodi.sourceforge.net/DTD/sodipodi-0.dtd"
   xmlns:inkscape="http://www.inkscape.org/namespaces/inkscape"
   width="48px"
   height="48px"
   id="svg28083"
   version="1.1"
   inkscape:version="0.48.4 r9939"
   sodipodi:docname="telecabine-personnes-pourcent.svg">
  <defs
     id="defs28085">
    <clipPath
       clipPathUnits="userSpaceOnUse"
       id="clipPath4901">
      <path
         inkscape:connector-curvature="0"
         d="m 315.748,1648.19 0.773,0 0,-0.63 -0.773,0 0,0.63 z"
         id="path4903" />
    </clipPath>
    <clipPath
       clipPathUnits="userSpaceOnUse"
       id="clipPath4905">
      <path
         inkscape:connector-curvature="0"
         d="m 315.759,1648.18 0.762,0 0,-0.62 -0.762,0 0,0.62 z"
         id="path4907" />
    </clipPath>
    <clipPath
       clipPathUnits="userSpaceOnUse"
       id="clipPath4909">
      <path
         inkscape:connector-curvature="0"
         d="m 315.748,1648.19 0.011,0 0,-0.01 -0.011,0 0,0.01 z"
         id="path4911" />
    </clipPath>
    <clipPath
       clipPathUnits="userSpaceOnUse"
       id="clipPath4857">
      <path
         inkscape:connector-curvature="0"
         d="m 327.146,1644.07 0.45,0 0,-0.02 -0.45,0 0,0.02 z"
         id="path4859" />
    </clipPath>
    <clipPath
       clipPathUnits="userSpaceOnUse"
       id="clipPath4861">
      <path
         inkscape:connector-curvature="0"
         d="m 327.146,1644.07 0.446,0 0,-0.02 -0.446,0 0,0.02 z"
         id="path4863" />
    </clipPath>
    <clipPath
       clipPathUnits="userSpaceOnUse"
       id="clipPath4865">
      <path
         inkscape:connector-curvature="0"
         d="m 327.592,1644.05 0.004,0 0,0 -0.004,0 z"
         id="path4867" />
    </clipPath>
  </defs>
  <sodipodi:namedview
     id="base"
     pagecolor="#ffffff"
     bordercolor="#666666"
     borderopacity="1.0"
     inkscape:pageopacity="0.0"
     inkscape:pageshadow="2"
     inkscape:zoom="7"
     inkscape:cx="25.264083"
     inkscape:cy="24"
     inkscape:current-layer="layer1"
     showgrid="true"
     inkscape:grid-bbox="true"
     inkscape:document-units="px"
     inkscape:window-width="651"
     inkscape:window-height="653"
     inkscape:window-x="2172"
     inkscape:window-y="137"
     inkscape:window-maximized="0" />
  <metadata
     id="metadata28088">
    <rdf:RDF>
      <cc:Work
         rdf:about="">
        <dc:format>image/svg+xml</dc:format>
        <dc:type
           rdf:resource="http://purl.org/dc/dcmitype/StillImage" />
        <dc:title />
      </cc:Work>
    </rdf:RDF>
  </metadata>
  <g
     id="layer1"
     inkscape:label="Layer 1"
     inkscape:groupmode="layer">
    <g
       id="g3000">
      <g
         style="fill:#cfcccd"
         id="g6829"
         transform="matrix(0.9346148,0,0,-0.9346148,40.16755,17.355381)">
        <path
           d="m 0,0 0,-2.582 -3.717,0 0,7.249 C -1.59,4.177 0,2.277 0,0 m -15.141,-2.582 0,2.582 c 0,2.422 1.795,4.414 4.125,4.741 l 0,-7.323 -4.125,0 z m 5.371,7.377 4.809,0 0,-7.377 -4.809,0 0,7.377 z M 4.516,16.181 C 4.387,16.476 4.033,16.604 3.727,16.468 L -19.076,6.39 c -0.307,-0.135 -0.449,-0.485 -0.319,-0.778 0.131,-0.293 0.485,-0.424 0.79,-0.287 l 10.591,4.681 C -8.053,9.873 -8.076,9.727 -8.076,9.574 l 0,-1.642 -0.897,0 c -0.632,0 -1.146,-0.514 -1.146,-1.147 0,-0.121 0.023,-0.237 0.06,-0.348 l -0.906,0 c -3.242,0 -5.869,-2.63 -5.869,-5.871 l 0,-6.197 c 0,-3.242 2.627,-5.871 5.869,-5.871 l 6.789,0 c 3.24,0 5.869,2.629 5.869,5.871 l 0,6.197 c 0,3.241 -2.629,5.871 -5.869,5.871 l -0.472,0 c 0.037,0.111 0.06,0.227 0.06,0.348 0,0.633 -0.512,1.147 -1.146,1.147 l -0.848,0 0,1.642 c 0,0.382 -0.137,0.719 -0.346,0.911 l 11.125,4.916 c 0.307,0.137 0.448,0.488 0.319,0.78"
           style="fill:#cfcccd;fill-opacity:1;fill-rule:nonzero;stroke:none"
           id="path6831"
           inkscape:connector-curvature="0" />
      </g>
      <g
         style="fill:#cfcccd"
         id="g13711"
         transform="matrix(-0.90065326,0,0,-0.87363568,23.396232,30.820513)">
        <path
           d="M 0,0 C 1.324,0 2.396,1.072 2.396,2.396 2.396,3.717 1.324,4.791 0,4.791 -1.322,4.791 -2.395,3.717 -2.395,2.396 -2.395,1.072 -1.322,0 0,0 m 5.703,-0.224 c 1.561,0 2.83,1.267 2.83,2.829 0,1.562 -1.269,2.83 -2.83,2.83 -1.562,0 -2.828,-1.268 -2.828,-2.83 0,-1.562 1.266,-2.829 2.828,-2.829 m 7.067,-0.647 c 2.144,0 3.886,1.738 3.886,3.886 0,2.146 -1.742,3.885 -3.886,3.885 -2.145,0 -3.883,-1.739 -3.883,-3.885 0,-2.148 1.738,-3.886 3.883,-3.886 m 0.035,-0.743 c -1.391,0 -2.651,-0.542 -3.588,-1.422 -0.594,1.338 -1.932,2.271 -3.49,2.271 -1.159,0 -2.194,-0.516 -2.895,-1.332 -0.557,0.979 -1.607,1.639 -2.809,1.639 -1.785,0 -3.232,-1.444 -3.232,-3.23 l 0,-5.919 5.121,0 0,-1.962 5.65,0 0,-4.893 10.485,0 0,9.606 c 0,2.896 -2.352,5.242 -5.242,5.242"
           style="fill:#cfcccd;fill-opacity:1;fill-rule:nonzero;stroke:none"
           id="path13713"
           inkscape:connector-curvature="0" />
      </g>
      <g
         id="text3485"
         style="font-size:16.11310959000000054px;font-style:normal;font-variant:normal;font-weight:bold;font-stretch:normal;text-align:center;line-height:125%;letter-spacing:0px;word-spacing:0px;text-anchor:middle;fill:#cfcccd;fill-opacity:1;stroke:none;font-family:STIXSizeFourSym;-inkscape-font-specification:STIXSizeFourSym Bold"
         transform="scale(0.96419705,1.0371324)">
        <path
           id="path3513"
           style="fill:#cfcccd;font-family:Sans;-inkscape-font-specification:Sans Bold"
           d="m 19.818686,17.272478 c -0.372418,5e-6 -0.660901,0.162605 -0.86545,0.487799 -0.204572,0.319959 -0.306853,0.778909 -0.306841,1.376853 -1.2e-5,0.603195 0.09965,1.067391 0.298973,1.392588 0.204549,0.319956 0.495655,0.479933 0.873318,0.479932 0.377638,1e-6 0.666121,-0.159976 0.86545,-0.479932 0.199303,-0.325197 0.29896,-0.789393 0.298974,-1.392588 -1.4e-5,-0.597944 -0.102294,-1.056894 -0.306841,-1.376853 -0.199329,-0.325194 -0.48519,-0.487794 -0.857583,-0.487799 m 0,-1.321778 c 0.975585,6e-6 1.743999,0.283244 2.305245,0.849714 0.561216,0.566482 0.841831,1.345386 0.841847,2.336716 -1.6e-5,0.991336 -0.280631,1.775486 -0.841847,2.352451 -0.561246,0.571722 -1.32966,0.857582 -2.305245,0.857583 -0.97561,-1e-6 -1.746646,-0.285861 -2.313112,-0.857583 -0.561241,-0.576965 -0.841857,-1.361115 -0.841847,-2.352451 -1e-5,-0.986085 0.280606,-1.762367 0.841847,-2.328848 0.566466,-0.571716 1.337502,-0.857576 2.313112,-0.857582 m -7.214708,6.396464 -1.738768,0 7.340592,-12.187113 1.746636,0 -7.34846,12.187113 M 10.991094,10.160051 c 0.975594,1.2e-5 1.741385,0.285872 2.297377,0.857582 0.561225,0.566487 0.84184,1.345392 0.841847,2.336716 -7e-6,0.991342 -0.280622,1.772869 -0.841847,2.344583 -0.555992,0.571728 -1.321783,0.857588 -2.297377,0.857583 -0.975601,5e-6 -1.7440153,-0.285855 -2.3052448,-0.857583 -0.555987,-0.571714 -0.8339798,-1.353241 -0.8339793,-2.344583 -5e-7,-0.991324 0.2779923,-1.770229 0.8339793,-2.336716 0.5612295,-0.57171 1.3296438,-0.85757 2.3052448,-0.857582 m 0,1.321778 c -0.377654,1.1e-5 -0.66876,0.162611 -0.873318,0.4878 -0.2045636,0.325209 -0.3068439,0.786782 -0.3068415,1.38472 -2.4e-6,0.603201 0.1022779,1.070019 0.3068415,1.400456 0.204558,0.325206 0.495664,0.487806 0.873318,0.487799 0.377647,7e-6 0.66613,-0.162593 0.86545,-0.487799 0.204556,-0.330437 0.306837,-0.797255 0.306842,-1.400456 -5e-6,-0.597938 -0.102286,-1.059511 -0.306842,-1.38472 -0.204565,-0.325189 -0.493048,-0.487789 -0.86545,-0.4878" />
      </g>
    </g>
  </g>
</svg>
