<?xml version="1.0" encoding="UTF-8" standalone="no"?>
<!-- Created with Inkscape (http://www.inkscape.org/) -->

<svg
   xmlns:dc="http://purl.org/dc/elements/1.1/"
   xmlns:cc="http://creativecommons.org/ns#"
   xmlns:rdf="http://www.w3.org/1999/02/22-rdf-syntax-ns#"
   xmlns:svg="http://www.w3.org/2000/svg"
   xmlns="http://www.w3.org/2000/svg"
   xmlns:sodipodi="http://sodipodi.sourceforge.net/DTD/sodipodi-0.dtd"
   xmlns:inkscape="http://www.inkscape.org/namespaces/inkscape"
   width="48px"
   height="48px"
   id="svg28083"
   version="1.1"
   inkscape:version="0.48.4 r9943 custom"
   sodipodi:docname="electricite-ski.svg">
  <defs
     id="defs28085">
    <clipPath
       clipPathUnits="userSpaceOnUse"
       id="clipPath4901">
      <path
         inkscape:connector-curvature="0"
         d="m 315.748,1648.19 0.773,0 0,-0.63 -0.773,0 0,0.63 z"
         id="path4903" />
    </clipPath>
    <clipPath
       clipPathUnits="userSpaceOnUse"
       id="clipPath4905">
      <path
         inkscape:connector-curvature="0"
         d="m 315.759,1648.18 0.762,0 0,-0.62 -0.762,0 0,0.62 z"
         id="path4907" />
    </clipPath>
    <clipPath
       clipPathUnits="userSpaceOnUse"
       id="clipPath4909">
      <path
         inkscape:connector-curvature="0"
         d="m 315.748,1648.19 0.011,0 0,-0.01 -0.011,0 0,0.01 z"
         id="path4911" />
    </clipPath>
    <clipPath
       clipPathUnits="userSpaceOnUse"
       id="clipPath4857">
      <path
         inkscape:connector-curvature="0"
         d="m 327.146,1644.07 0.45,0 0,-0.02 -0.45,0 0,0.02 z"
         id="path4859" />
    </clipPath>
    <clipPath
       clipPathUnits="userSpaceOnUse"
       id="clipPath4861">
      <path
         inkscape:connector-curvature="0"
         d="m 327.146,1644.07 0.446,0 0,-0.02 -0.446,0 0,0.02 z"
         id="path4863" />
    </clipPath>
    <clipPath
       clipPathUnits="userSpaceOnUse"
       id="clipPath4865">
      <path
         inkscape:connector-curvature="0"
         d="m 327.592,1644.05 0.004,0 0,0 -0.004,0 z"
         id="path4867" />
    </clipPath>
  </defs>
  <sodipodi:namedview
     id="base"
     pagecolor="#ffffff"
     bordercolor="#666666"
     borderopacity="1.0"
     inkscape:pageopacity="0.0"
     inkscape:pageshadow="2"
     inkscape:zoom="7"
     inkscape:cx="20.889504"
     inkscape:cy="28.02598"
     inkscape:current-layer="layer1"
     showgrid="true"
     inkscape:grid-bbox="true"
     inkscape:document-units="px"
     inkscape:window-width="651"
     inkscape:window-height="653"
     inkscape:window-x="2042"
     inkscape:window-y="234"
     inkscape:window-maximized="0" />
  <metadata
     id="metadata28088">
    <rdf:RDF>
      <cc:Work
         rdf:about="">
        <dc:format>image/svg+xml</dc:format>
        <dc:type
           rdf:resource="http://purl.org/dc/dcmitype/StillImage" />
        <dc:title></dc:title>
      </cc:Work>
    </rdf:RDF>
  </metadata>
  <g
     id="layer1"
     inkscape:label="Layer 1"
     inkscape:groupmode="layer">
    <g
       transform="matrix(0.63803843,0,0,-0.63803843,-5.2464283,27.865002)"
       id="g4969"
       style="fill:#ffffff">
      <path
         inkscape:connector-curvature="0"
         id="path4971"
         style="fill:#ffffff;fill-opacity:1;fill-rule:nonzero;stroke:none"
         d="M 0,0 C -0.727,0.262 -0.926,0.659 0.064,1.253 1.053,1.846 2.57,2.901 4.418,6.335 4.418,6.335 4.09,1.187 0,0 m 0.908,16.945 c -2.178,2.31 -3.205,5.909 -3.205,5.909 0,0 -1.332,-3.555 -3.111,-5.629 C -7.184,15.152 -14.74,6.854 -7.777,0.188 -4.074,-2.923 1.258,-2.479 3.926,0.93 6.592,4.336 7.428,9.833 0.908,16.945" />
    </g>
    <g
       transform="matrix(0.9543909,0,0,-0.9543909,40.57544,29.680662)"
       id="g6829">
      <path
         inkscape:connector-curvature="0"
         id="path6831"
         style="fill:#cfcccd;fill-opacity:1;fill-rule:nonzero;stroke:none"
         d="m 0,0 0,-2.582 -3.717,0 0,7.249 C -1.59,4.177 0,2.277 0,0 m -15.141,-2.582 0,2.582 c 0,2.422 1.795,4.414 4.125,4.741 l 0,-7.323 -4.125,0 z m 5.371,7.377 4.809,0 0,-7.377 -4.809,0 0,7.377 z M 4.516,16.181 C 4.387,16.476 4.033,16.604 3.727,16.468 L -19.076,6.39 c -0.307,-0.135 -0.449,-0.485 -0.319,-0.778 0.131,-0.293 0.485,-0.424 0.79,-0.287 l 10.591,4.681 C -8.053,9.873 -8.076,9.727 -8.076,9.574 l 0,-1.642 -0.897,0 c -0.632,0 -1.146,-0.514 -1.146,-1.147 0,-0.121 0.023,-0.237 0.06,-0.348 l -0.906,0 c -3.242,0 -5.869,-2.63 -5.869,-5.871 l 0,-6.197 c 0,-3.242 2.627,-5.871 5.869,-5.871 l 6.789,0 c 3.24,0 5.869,2.629 5.869,5.871 l 0,6.197 c 0,3.241 -2.629,5.871 -5.869,5.871 l -0.472,0 c 0.037,0.111 0.06,0.227 0.06,0.348 0,0.633 -0.512,1.147 -1.146,1.147 l -0.848,0 0,1.642 c 0,0.382 -0.137,0.719 -0.346,0.911 l 11.125,4.916 c 0.307,0.137 0.448,0.488 0.319,0.78" />
    </g>
    <g
       transform="matrix(0.79344297,0,0,-0.79344297,17.745807,18.904335)"
       id="g5125">
      <path
         inkscape:connector-curvature="0"
         id="path5127"
         style="fill:#cfcccd;fill-opacity:1;fill-rule:nonzero;stroke:none"
         d="m 0,0 c 0.052,0.283 0.081,0.57 0.081,0.869 0,2.721 -2.206,4.926 -4.927,4.926 -2.723,0 -4.929,-2.205 -4.929,-4.926 0,-0.245 0.024,-0.482 0.058,-0.719 -1.837,-0.518 -3.186,-2.205 -3.186,-4.211 0,-2.419 1.962,-4.379 4.379,-4.379 0.553,0 1.079,0.106 1.566,0.292 l 0,-7.878 c 0,-0.996 0.806,-1.803 1.798,-1.803 0.993,0 1.801,0.807 1.801,1.803 l 0,7.937 c 0.527,-0.226 1.109,-0.351 1.72,-0.351 0.322,0 0.636,0.037 0.937,0.104 0.017,-0.006 0.031,-0.012 0.047,-0.014 -0.016,0.002 -0.03,0.008 -0.047,0.014 1.97,0.428 3.445,2.179 3.445,4.275 C 2.743,-2.22 1.606,-0.649 0,0" />
    </g>
    <g
       transform="matrix(0.79344297,0,0,-0.79344297,24.698513,18.904335)"
       id="g5129">
      <path
         inkscape:connector-curvature="0"
         id="path5131"
         style="fill:#cfcccd;fill-opacity:1;fill-rule:nonzero;stroke:none"
         d="m 0,0 c 0.049,0.283 0.08,0.57 0.08,0.869 0,2.721 -2.205,4.926 -4.929,4.926 -1.339,0 -2.553,-0.534 -3.44,-1.403 0.915,-0.893 1.485,-2.143 1.485,-3.523 0,-0.299 -0.031,-0.586 -0.08,-0.869 1.606,-0.649 2.739,-2.22 2.739,-4.061 0,-1.867 -1.169,-3.456 -2.816,-4.087 l 0,-7.878 c 0,-0.996 0.806,-1.803 1.8,-1.803 0.994,0 1.801,0.807 1.801,1.803 l 0,7.937 c 0.527,-0.226 1.108,-0.351 1.719,-0.351 2.419,0 4.381,1.96 4.381,4.379 C 2.74,-2.22 1.606,-0.649 0,0" />
    </g>
    <g
       transform="matrix(0.79344297,0,0,-0.79344297,6.0180857,22.126113)"
       id="g5133">
      <path
         inkscape:connector-curvature="0"
         id="path5135"
         style="fill:#cfcccd;fill-opacity:1;fill-rule:nonzero;stroke:none"
         d="m 0,0 c 0,2.006 1.348,3.692 3.188,4.211 -0.036,0.236 -0.06,0.474 -0.06,0.719 0,1.38 0.571,2.63 1.487,3.522 -0.887,0.869 -2.1,1.403 -3.442,1.403 -2.721,0 -4.928,-2.205 -4.928,-4.925 0,-0.245 0.022,-0.483 0.058,-0.719 C -5.537,3.692 -6.884,2.006 -6.884,0 c 0,-2.42 1.961,-4.38 4.379,-4.38 0.553,0 1.08,0.107 1.566,0.292 l 0,-7.878 c 0,-0.996 0.804,-1.803 1.799,-1.803 0.994,0 1.8,0.807 1.8,1.803 l 0,7.938 C 1.094,-3.361 0,-1.81 0,0" />
    </g>
  </g>
</svg>
