<?xml version="1.0" encoding="UTF-8" standalone="no"?>
<!-- Created with Inkscape (http://www.inkscape.org/) -->

<svg
   xmlns:dc="http://purl.org/dc/elements/1.1/"
   xmlns:cc="http://creativecommons.org/ns#"
   xmlns:rdf="http://www.w3.org/1999/02/22-rdf-syntax-ns#"
   xmlns:svg="http://www.w3.org/2000/svg"
   xmlns="http://www.w3.org/2000/svg"
   xmlns:sodipodi="http://sodipodi.sourceforge.net/DTD/sodipodi-0.dtd"
   xmlns:inkscape="http://www.inkscape.org/namespaces/inkscape"
   width="48px"
   height="48px"
   id="svg28083"
   version="1.1"
   inkscape:version="0.48.4 r9943 custom"
   sodipodi:docname="discution.svg">
  <defs
     id="defs28085" />
  <sodipodi:namedview
     id="base"
     pagecolor="#ffffff"
     bordercolor="#666666"
     borderopacity="1.0"
     inkscape:pageopacity="0.0"
     inkscape:pageshadow="2"
     inkscape:zoom="7"
     inkscape:cx="32.318076"
     inkscape:cy="24"
     inkscape:current-layer="layer1"
     showgrid="true"
     inkscape:grid-bbox="true"
     inkscape:document-units="px"
     inkscape:window-width="651"
     inkscape:window-height="653"
     inkscape:window-x="1333"
     inkscape:window-y="295"
     inkscape:window-maximized="0" />
  <metadata
     id="metadata28088">
    <rdf:RDF>
      <cc:Work
         rdf:about="">
        <dc:format>image/svg+xml</dc:format>
        <dc:type
           rdf:resource="http://purl.org/dc/dcmitype/StillImage" />
        <dc:title></dc:title>
      </cc:Work>
    </rdf:RDF>
  </metadata>
  <g
     id="layer1"
     inkscape:label="Layer 1"
     inkscape:groupmode="layer">
    <g
       transform="matrix(1.25,0,0,-1.25,43.858021,21.460304)"
       id="g5419">
      <path
         inkscape:connector-curvature="0"
         id="path5421"
         style="fill:#cfcccd;fill-opacity:1;fill-rule:nonzero;stroke:none"
         d="M 0,0 0,0 C 0.018,0.017 0.012,0.01 0,0" />
    </g>
    <g
       transform="matrix(1.25,0,0,-1.25,30.532821,12.375804)"
       id="g5423">
      <path
         inkscape:connector-curvature="0"
         id="path5425"
         style="fill:#cfcccd;fill-opacity:1;fill-rule:nonzero;stroke:none"
         d="m 0,0 c -0.084,-0.277 -0.375,-1.341 -0.654,-1.258 -1.186,0.355 -2.502,0.542 -3.801,0.542 -1.418,0 -2.789,-0.212 -4.076,-0.63 -0.012,-0.003 -0.014,-0.008 -0.014,-0.008 -0.002,0.003 -0.012,0.013 -0.068,0.039 -0.313,0.13 -0.506,0.993 -0.578,1.212 -0.088,0.276 0.062,0.571 0.334,0.661 1.392,0.451 2.873,0.679 4.402,0.679 1.4,0 2.818,-0.202 4.103,-0.587 C -0.074,0.568 0.082,0.277 0,0 m -14.348,-9.091 c -0.685,0 -1.246,0.557 -1.246,1.244 0,0.687 0.561,1.244 1.246,1.244 0.69,0 1.246,-0.557 1.246,-1.244 0,-0.687 -0.556,-1.244 -1.246,-1.244 m 26.344,2.778 c -0.043,0.113 -0.098,0.213 -0.152,0.305 -0.053,0.094 -0.112,0.178 -0.17,0.257 -0.115,0.158 -0.246,0.285 -0.363,0.397 -0.116,0.116 -0.239,0.205 -0.338,0.284 -0.106,0.077 -0.202,0.135 -0.28,0.184 -0.162,0.094 -0.257,0.137 -0.257,0.137 0,0 0.052,-0.096 0.13,-0.255 0.079,-0.162 0.186,-0.392 0.288,-0.663 0.052,-0.135 0.099,-0.282 0.134,-0.432 0.02,-0.074 0.035,-0.149 0.045,-0.224 0.014,-0.076 0.016,-0.153 0.016,-0.222 0.01,-0.143 -0.022,-0.273 -0.063,-0.376 -0.017,-0.052 -0.062,-0.088 -0.078,-0.133 -0.029,-0.029 -0.053,-0.035 -0.058,-0.059 l -0.229,-0.199 -0.006,-0.005 c -0.01,-0.008 0.026,0.031 0.045,0.049 L 10.658,-7.271 10.646,-7.277 10.623,-7.292 10.576,-7.32 10.488,-7.375 C 10.43,-7.406 10.371,-7.425 10.316,-7.452 10.262,-7.468 10.209,-7.485 10.16,-7.504 10.117,-7.511 10.078,-7.51 10.037,-7.512 9.84,-1.934 3.441,2.546 -4.424,2.546 c -3.74,0 -7.152,-1.015 -9.722,-2.678 -1.065,0.703 -2.797,1.51 -5.11,1.509 0,0 1.531,-2.232 2.41,-3.861 -1.302,-1.548 -2.049,-3.362 -2.049,-5.298 0,-0.011 0.002,-0.018 0.002,-0.028 l -1.22,0 c 0,0 -0.873,-0.895 -0.873,-2.485 0,-1.588 0.873,-2.484 0.873,-2.484 l 3.761,-0.85 c 1.245,-1.288 2.883,-2.363 4.795,-3.137 l 0.871,-3.29 c 0,0 0.233,-0.403 1.512,-0.403 1.278,0 1.742,0.403 1.742,0.403 l 0.498,2.106 c 0.817,-0.103 1.653,-0.16 2.51,-0.16 0.633,0 1.26,0.033 1.871,0.09 l 0.539,-2.036 c 0,0 0.231,-0.403 1.51,-0.403 1.277,0 1.744,0.403 1.744,0.403 l 0.711,3.002 c 4.27,1.499 7.352,4.456 7.975,7.958 0.236,0.005 0.48,0.061 0.72,0.143 0.124,0.052 0.25,0.104 0.366,0.176 0.109,0.074 0.224,0.148 0.324,0.231 l 0.143,0.13 0.07,0.064 0.031,0.034 0.02,0.016 0.002,0.006 0.054,0.052 0.006,0.01 0.172,0.249 c 0.086,0.148 0.172,0.311 0.227,0.464 0.027,0.148 0.078,0.294 0.072,0.438 0.006,0.289 -0.047,0.556 -0.137,0.77" />
    </g>
  </g>
</svg>
