<?xml version="1.0" encoding="UTF-8" standalone="no"?>
<!-- Created with Inkscape (http://www.inkscape.org/) -->

<svg
   xmlns:dc="http://purl.org/dc/elements/1.1/"
   xmlns:cc="http://creativecommons.org/ns#"
   xmlns:rdf="http://www.w3.org/1999/02/22-rdf-syntax-ns#"
   xmlns:svg="http://www.w3.org/2000/svg"
   xmlns="http://www.w3.org/2000/svg"
   xmlns:sodipodi="http://sodipodi.sourceforge.net/DTD/sodipodi-0.dtd"
   xmlns:inkscape="http://www.inkscape.org/namespaces/inkscape"
   width="48px"
   height="48px"
   id="svg28083"
   version="1.1"
   inkscape:version="0.48.4 r9939"
   sodipodi:docname="toilette.svg">
  <defs
     id="defs28085">
    <clipPath
       clipPathUnits="userSpaceOnUse"
       id="clipPath4901">
      <path
         inkscape:connector-curvature="0"
         d="m 315.748,1648.19 0.773,0 0,-0.63 -0.773,0 0,0.63 z"
         id="path4903" />
    </clipPath>
    <clipPath
       clipPathUnits="userSpaceOnUse"
       id="clipPath4905">
      <path
         inkscape:connector-curvature="0"
         d="m 315.759,1648.18 0.762,0 0,-0.62 -0.762,0 0,0.62 z"
         id="path4907" />
    </clipPath>
    <clipPath
       clipPathUnits="userSpaceOnUse"
       id="clipPath4909">
      <path
         inkscape:connector-curvature="0"
         d="m 315.748,1648.19 0.011,0 0,-0.01 -0.011,0 0,0.01 z"
         id="path4911" />
    </clipPath>
    <clipPath
       clipPathUnits="userSpaceOnUse"
       id="clipPath4857">
      <path
         inkscape:connector-curvature="0"
         d="m 327.146,1644.07 0.45,0 0,-0.02 -0.45,0 0,0.02 z"
         id="path4859" />
    </clipPath>
    <clipPath
       clipPathUnits="userSpaceOnUse"
       id="clipPath4861">
      <path
         inkscape:connector-curvature="0"
         d="m 327.146,1644.07 0.446,0 0,-0.02 -0.446,0 0,0.02 z"
         id="path4863" />
    </clipPath>
    <clipPath
       clipPathUnits="userSpaceOnUse"
       id="clipPath4865">
      <path
         inkscape:connector-curvature="0"
         d="m 327.592,1644.05 0.004,0 0,0 -0.004,0 z"
         id="path4867" />
    </clipPath>
  </defs>
  <sodipodi:namedview
     id="base"
     pagecolor="#ffffff"
     bordercolor="#666666"
     borderopacity="1.0"
     inkscape:pageopacity="0.0"
     inkscape:pageshadow="2"
     inkscape:zoom="7"
     inkscape:cx="26.60379"
     inkscape:cy="24"
     inkscape:current-layer="layer1"
     showgrid="true"
     inkscape:grid-bbox="true"
     inkscape:document-units="px"
     inkscape:window-width="651"
     inkscape:window-height="653"
     inkscape:window-x="2098"
     inkscape:window-y="112"
     inkscape:window-maximized="0" />
  <metadata
     id="metadata28088">
    <rdf:RDF>
      <cc:Work
         rdf:about="">
        <dc:format>image/svg+xml</dc:format>
        <dc:type
           rdf:resource="http://purl.org/dc/dcmitype/StillImage" />
        <dc:title />
      </cc:Work>
    </rdf:RDF>
  </metadata>
  <g
     id="layer1"
     inkscape:label="Layer 1"
     inkscape:groupmode="layer">
    <g
       id="g2997">
      <path
         inkscape:connector-curvature="0"
         style="fill:#cfcccd"
         id="path3085"
         d="M 16.692229,31.461171 C 15.307216,30.671145 11.832118,29.87801 11.403257,25.594188 h 25.764915 c -0.309227,1.4398 -1.938955,5.345367 -4.732906,6.222441 -2.793951,0.877078 -3.778269,1.090215 -3.778269,2.693756 0,1.747937 1.846885,2.348315 2.73156,3.443365 0.371316,0.459783 0.723247,0.982781 0.946461,1.557596 0.404327,1.04047 0.411595,2.260572 0.411595,2.260572 H 14.354094 c 0,0 0.311649,-2.666467 2.493807,-4.799914 2.182159,-2.13345 1.402881,-4.622358 -0.155685,-5.510833 z" />
      <path
         inkscape:connector-curvature="0"
         style="fill:#cfcccd"
         id="path3087"
         d="m 11.403257,23.172294 c 0,0.81628 0.580596,1.478147 1.296273,1.478147 h 4.967929 c 0.715979,0 1.296273,-0.661867 1.296273,-1.478147 V 8.706572 c 0,-0.816625 -0.580596,-1.478489 -1.296273,-1.478489 H 12.69953 c -0.715979,0 -1.296273,0.661864 -1.296273,1.478489 v 14.465722 z" />
      <path
         inkscape:connector-curvature="0"
         style="fill:#cfcccd"
         id="path3089"
         d="m 19.315362,24.650441 c 0,-1.030799 0.732635,-1.866769 1.636693,-1.866769 h 14.579121 c 0.903756,0 1.636996,0.83597 1.636996,1.866769 h -17.85281 z" />
    </g>
  </g>
</svg>
