<?xml version="1.0" encoding="UTF-8" standalone="no"?>
<!-- Created with Inkscape (http://www.inkscape.org/) -->

<svg
   xmlns:dc="http://purl.org/dc/elements/1.1/"
   xmlns:cc="http://creativecommons.org/ns#"
   xmlns:rdf="http://www.w3.org/1999/02/22-rdf-syntax-ns#"
   xmlns:svg="http://www.w3.org/2000/svg"
   xmlns="http://www.w3.org/2000/svg"
   xmlns:sodipodi="http://sodipodi.sourceforge.net/DTD/sodipodi-0.dtd"
   xmlns:inkscape="http://www.inkscape.org/namespaces/inkscape"
   width="48px"
   height="48px"
   id="svg28083"
   version="1.1"
   inkscape:version="0.48.4 r9943 custom"
   sodipodi:docname="maison-clef.svg">
  <defs
     id="defs28085">
    <clipPath
       clipPathUnits="userSpaceOnUse"
       id="clipPath4901">
      <path
         inkscape:connector-curvature="0"
         d="m 315.748,1648.19 0.773,0 0,-0.63 -0.773,0 0,0.63 z"
         id="path4903" />
    </clipPath>
    <clipPath
       clipPathUnits="userSpaceOnUse"
       id="clipPath4905">
      <path
         inkscape:connector-curvature="0"
         d="m 315.759,1648.18 0.762,0 0,-0.62 -0.762,0 0,0.62 z"
         id="path4907" />
    </clipPath>
    <clipPath
       clipPathUnits="userSpaceOnUse"
       id="clipPath4909">
      <path
         inkscape:connector-curvature="0"
         d="m 315.748,1648.19 0.011,0 0,-0.01 -0.011,0 0,0.01 z"
         id="path4911" />
    </clipPath>
    <clipPath
       clipPathUnits="userSpaceOnUse"
       id="clipPath4857">
      <path
         inkscape:connector-curvature="0"
         d="m 327.146,1644.07 0.45,0 0,-0.02 -0.45,0 0,0.02 z"
         id="path4859" />
    </clipPath>
    <clipPath
       clipPathUnits="userSpaceOnUse"
       id="clipPath4861">
      <path
         inkscape:connector-curvature="0"
         d="m 327.146,1644.07 0.446,0 0,-0.02 -0.446,0 0,0.02 z"
         id="path4863" />
    </clipPath>
    <clipPath
       clipPathUnits="userSpaceOnUse"
       id="clipPath4865">
      <path
         inkscape:connector-curvature="0"
         d="m 327.592,1644.05 0.004,0 0,0 -0.004,0 z"
         id="path4867" />
    </clipPath>
  </defs>
  <sodipodi:namedview
     id="base"
     pagecolor="#ffffff"
     bordercolor="#666666"
     borderopacity="1.0"
     inkscape:pageopacity="0.0"
     inkscape:pageshadow="2"
     inkscape:zoom="7"
     inkscape:cx="26.60379"
     inkscape:cy="15.274454"
     inkscape:current-layer="layer1"
     showgrid="true"
     inkscape:grid-bbox="true"
     inkscape:document-units="px"
     inkscape:window-width="651"
     inkscape:window-height="653"
     inkscape:window-x="1333"
     inkscape:window-y="295"
     inkscape:window-maximized="0" />
  <metadata
     id="metadata28088">
    <rdf:RDF>
      <cc:Work
         rdf:about="">
        <dc:format>image/svg+xml</dc:format>
        <dc:type
           rdf:resource="http://purl.org/dc/dcmitype/StillImage" />
        <dc:title></dc:title>
      </cc:Work>
    </rdf:RDF>
  </metadata>
  <g
     id="layer1"
     inkscape:label="Layer 1"
     inkscape:groupmode="layer">
    <g
       transform="matrix(1.25,0,0,-1.25,18.102164,15.413372)"
       id="g9763">
      <path
         inkscape:connector-curvature="0"
         id="path9765"
         style="fill:#cfcccd;fill-opacity:1;fill-rule:nonzero;stroke:none"
         d="m 0,0 c 0.574,0.574 0.561,0.522 1.197,0.561 0.637,0.038 1.008,0.318 1.53,0.166 0.523,-0.153 1.377,-0.714 1.607,-1.492 0,0 -0.268,-1.402 -0.906,-1.912 -0.426,-0.344 -1.35,-0.791 -2.168,-0.791 -0.815,0 -1.362,0.561 -1.438,1.237 0,0 -0.396,1.657 0.178,2.231 m 5.264,-2.078 c 0,0 0.191,0.166 0.343,0 0,0 1.403,-1.071 1.008,-2.984 0,0 -0.906,-0.866 -1.16,0.217 0,0 -0.51,-1.07 -1.287,-0.101 0,0 -0.422,1.453 1.096,2.868 M 8.176,0.727 C 8.699,0.879 9.068,0.599 9.705,0.561 10.342,0.522 10.33,0.574 10.904,0 c 0.575,-0.574 0.178,-2.231 0.178,-2.231 -0.076,-0.676 -0.625,-1.237 -1.439,-1.237 -0.817,0 -1.741,0.447 -2.166,0.791 -0.639,0.51 -0.909,1.912 -0.909,1.912 0.231,0.778 1.086,1.339 1.608,1.492 m -9.405,-2.268 c -0.722,0.126 -0.595,-0.958 -0.595,-0.958 0.129,-1.504 1.722,-2.511 1.722,-2.511 0.344,-0.217 1.53,-0.127 1.53,-0.127 0.611,-0.013 0.738,-0.51 0.738,-0.51 L 2.152,-7.024 C 2.18,-7.229 2.473,-7.203 2.473,-7.203 2.447,-7.419 2.777,-7.56 2.777,-7.56 c 0,0 0.039,0.409 0.026,-0.05 C 2.791,-8.068 3.225,-8.146 3.225,-8.146 3.199,-8.426 3.734,-8.565 3.734,-8.565 3.85,-8.886 4.625,-8.732 4.625,-8.732 4.895,-9 5.393,-8.745 5.393,-8.745 c 0.316,-0.216 0.865,0.076 0.865,0.076 0.346,-0.14 0.803,0.167 0.803,0.167 0.56,-0.052 0.574,0.459 0.574,0.459 0.318,-0.077 0.408,0.446 0.408,0.446 0.268,-0.077 0.357,0.42 0.357,0.42 0.077,-0.064 0.254,0.051 0.254,0.051 l 0.041,1.447 c 0.041,0.723 1.407,0.403 1.407,0.403 1.808,0.119 2.531,2.611 2.531,2.611 0.361,1.084 -0.522,1.084 -0.522,1.084 0.725,0.965 0.803,3.815 0.803,3.815 C 13.076,5.65 12.271,6.655 12.271,6.655 8.896,10.672 5.762,10.271 5.762,10.271 2.43,10.392 0.5,8.704 -0.824,7.378 -2.152,6.052 -2.111,2.798 -2.111,2.798 -2.232,0.187 -1.229,-1.541 -1.229,-1.541" />
    </g>
    <g
       transform="matrix(1.25,0,0,-1.25,40.831663,38.267372)"
       id="g9767">
      <path
         inkscape:connector-curvature="0"
         id="path9769"
         style="fill:#cfcccd;fill-opacity:1;fill-rule:nonzero;stroke:none"
         d="m 0,0 c 0,0 -0.275,0.925 -1.115,0.877 0,0 -1.873,-0.024 -2.543,0.167 -0.584,0.168 -3.145,1.229 -7.17,3.587 0,0 0,10e-4 0.002,0.002 1.799,1.103 5.736,3.13 6.707,3.539 0.973,0.407 2.881,0.191 2.881,0.191 0.863,0.036 1.199,0.865 1.535,1.596 0.336,0.731 -0.119,1.321 -0.467,1.573 -0.35,0.252 -0.517,0.131 -0.697,0.851 -0.18,0.72 -0.313,0.828 -0.313,0.828 -0.851,1.019 -2.328,-0.408 -2.328,-0.408 -0.299,-0.288 -0.24,-0.484 -0.24,-0.484 -1.385,-2.526 -8.557,-6.272 -9.031,-6.517 -0.477,0.245 -7.649,3.991 -9.033,6.517 0,0 0.06,0.196 -0.241,0.484 0,0 -1.476,1.427 -2.328,0.408 0,0 -0.131,-0.108 -0.312,-0.828 -0.18,-0.72 -0.348,-0.599 -0.696,-0.851 -0.347,-0.252 -0.802,-0.842 -0.468,-1.573 0.337,-0.731 0.673,-1.56 1.535,-1.596 0,0 1.908,0.216 2.881,-0.191 0.972,-0.409 4.908,-2.436 6.707,-3.539 L -14.73,4.631 C -18.758,2.273 -21.318,1.212 -21.9,1.044 -22.574,0.853 -24.443,0.877 -24.443,0.877 -25.285,0.925 -25.561,0 -25.561,0 c -0.048,-0.24 -0.335,-0.516 -0.335,-0.516 -0.385,-0.527 0.781,-1.007 0.781,-1.007 0.646,-0.06 0.586,-0.707 0.586,-0.707 -0.047,-0.877 0.373,-1.178 0.373,-1.178 1.595,-0.671 2.267,0.109 2.267,0.109 0.145,0.335 1.787,1.824 1.787,1.824 0.241,0.406 4.534,3.147 7.321,4.893 2.789,-1.746 7.082,-4.487 7.322,-4.893 0,0 1.645,-1.489 1.789,-1.824 0,0 0.67,-0.78 2.268,-0.109 0,0 0.418,0.301 0.371,1.178 0,0 -0.061,0.647 0.588,0.707 0,0 1.164,0.48 0.779,1.007 0,0 -0.287,0.276 -0.336,0.516" />
    </g>
  </g>
</svg>
