<?xml version="1.0" encoding="UTF-8" standalone="no"?>
<!-- Created with Inkscape (http://www.inkscape.org/) -->

<svg
   xmlns:dc="http://purl.org/dc/elements/1.1/"
   xmlns:cc="http://creativecommons.org/ns#"
   xmlns:rdf="http://www.w3.org/1999/02/22-rdf-syntax-ns#"
   xmlns:svg="http://www.w3.org/2000/svg"
   xmlns="http://www.w3.org/2000/svg"
   xmlns:sodipodi="http://sodipodi.sourceforge.net/DTD/sodipodi-0.dtd"
   xmlns:inkscape="http://www.inkscape.org/namespaces/inkscape"
   width="48px"
   height="48px"
   id="svg28083"
   version="1.1"
   inkscape:version="0.48.4 r9939"
   sodipodi:docname="tracteur.svg">
  <defs
     id="defs28085">
    <clipPath
       clipPathUnits="userSpaceOnUse"
       id="clipPath4901">
      <path
         inkscape:connector-curvature="0"
         d="m 315.748,1648.19 0.773,0 0,-0.63 -0.773,0 0,0.63 z"
         id="path4903" />
    </clipPath>
    <clipPath
       clipPathUnits="userSpaceOnUse"
       id="clipPath4905">
      <path
         inkscape:connector-curvature="0"
         d="m 315.759,1648.18 0.762,0 0,-0.62 -0.762,0 0,0.62 z"
         id="path4907" />
    </clipPath>
    <clipPath
       clipPathUnits="userSpaceOnUse"
       id="clipPath4909">
      <path
         inkscape:connector-curvature="0"
         d="m 315.748,1648.19 0.011,0 0,-0.01 -0.011,0 0,0.01 z"
         id="path4911" />
    </clipPath>
    <clipPath
       clipPathUnits="userSpaceOnUse"
       id="clipPath4857">
      <path
         inkscape:connector-curvature="0"
         d="m 327.146,1644.07 0.45,0 0,-0.02 -0.45,0 0,0.02 z"
         id="path4859" />
    </clipPath>
    <clipPath
       clipPathUnits="userSpaceOnUse"
       id="clipPath4861">
      <path
         inkscape:connector-curvature="0"
         d="m 327.146,1644.07 0.446,0 0,-0.02 -0.446,0 0,0.02 z"
         id="path4863" />
    </clipPath>
    <clipPath
       clipPathUnits="userSpaceOnUse"
       id="clipPath4865">
      <path
         inkscape:connector-curvature="0"
         d="m 327.592,1644.05 0.004,0 0,0 -0.004,0 z"
         id="path4867" />
    </clipPath>
  </defs>
  <sodipodi:namedview
     id="base"
     pagecolor="#ffffff"
     bordercolor="#666666"
     borderopacity="1.0"
     inkscape:pageopacity="0.0"
     inkscape:pageshadow="2"
     inkscape:zoom="7"
     inkscape:cx="20.76913"
     inkscape:cy="24"
     inkscape:current-layer="layer1"
     showgrid="true"
     inkscape:grid-bbox="true"
     inkscape:document-units="px"
     inkscape:window-width="651"
     inkscape:window-height="653"
     inkscape:window-x="1269"
     inkscape:window-y="273"
     inkscape:window-maximized="0" />
  <metadata
     id="metadata28088">
    <rdf:RDF>
      <cc:Work
         rdf:about="">
        <dc:format>image/svg+xml</dc:format>
        <dc:type
           rdf:resource="http://purl.org/dc/dcmitype/StillImage" />
        <dc:title />
      </cc:Work>
    </rdf:RDF>
  </metadata>
  <g
     id="layer1"
     inkscape:label="Layer 1"
     inkscape:groupmode="layer">
    <g
       id="g3000">
      <g
         style="fill:#cfcccd"
         id="g6601"
         transform="matrix(1.0709371,0,0,-1.0709371,37.393853,36.711579)">
        <path
           d="M 0,0 C 0,1.465 1.189,2.652 2.654,2.652 4.119,2.652 5.307,1.465 5.307,0 5.307,-1.466 4.119,-2.654 2.654,-2.654 1.189,-2.654 0,-1.466 0,0 m -2.049,0.041 c 0,-2.619 2.125,-4.745 4.746,-4.745 2.619,0 4.744,2.126 4.744,4.745 0,2.622 -2.125,4.747 -4.744,4.747 -2.621,0 -4.746,-2.125 -4.746,-4.747"
           style="fill:#cfcccd;fill-opacity:1;fill-rule:nonzero;stroke:none"
           id="path6603"
           inkscape:connector-curvature="0" />
      </g>
      <g
         style="fill:#cfcccd"
         id="g6605"
         transform="matrix(1.0709371,0,0,-1.0709371,9.0559153,33.318962)">
        <path
           d="M 0,0 C 0,2.32 1.879,4.198 4.197,4.198 6.518,4.198 8.395,2.32 8.395,0 8.395,-2.315 6.518,-4.197 4.197,-4.197 1.879,-4.197 0,-2.315 0,0 m -3.762,0 c 0,-4.395 3.563,-7.959 7.959,-7.959 4.397,0 7.959,3.564 7.959,7.959 0,4.396 -3.562,7.959 -7.959,7.959 -4.396,0 -7.959,-3.563 -7.959,-7.959"
           style="fill:#cfcccd;fill-opacity:1;fill-rule:nonzero;stroke:none"
           id="path6607"
           inkscape:connector-curvature="0" />
      </g>
      <g
         style="fill:#cfcccd"
         id="g6609"
         transform="matrix(1.0709371,0,0,-1.0709371,11.162234,21.342989)">
        <path
           d="m 0,0 0.914,9.536 c 0,0 0.266,0.799 2.053,0.723 l 2.73,-0.122 0,-10.491 C 4.949,-0.249 3.16,-0.077 0.875,-0.418 0.875,-0.418 0.076,-0.684 0,0 m 6.617,10.095 4.781,-0.217 c 0,0 0.915,0.191 1.219,-2.203 l 2.059,-11.891 -4.942,0 c -0.8,1.428 -1.89,2.963 -3.117,3.589 l 0,10.722 z m 3.461,-14.948 4.707,0 0.338,-1.948 c 0,0 0.305,-1.064 -0.607,-1.216 l -2.241,0 c 0,0 -0.837,0.152 -1.142,0.836 0,0 -0.393,1.051 -1.055,2.328 M -5.51,-6.304 c 3.573,5.167 10.336,3.99 10.336,3.99 6.231,-0.497 6.688,-10.68 6.688,-10.68 0.113,-1.176 0.914,-1.063 0.914,-1.063 l 7.179,0 c 1.256,0.078 1.026,1.634 1.026,1.634 0.115,0.648 0.912,0.456 0.912,0.456 0.418,-0.037 0.762,0.38 0.762,0.38 3.38,5.51 7.941,1.825 7.941,1.825 0.645,-0.913 1.139,-0.418 1.139,-0.418 1.217,1.177 -0.95,7.751 -0.95,7.751 -0.453,0.876 -1.939,1.137 -1.939,1.137 l -8.697,1.884 -0.908,9.542 c -0.028,0.277 -0.338,0.472 -0.698,0.438 -0.357,-0.033 -0.625,-0.287 -0.597,-0.561 l 0.865,-9.128 -2.236,0.484 c -0.76,0.193 -1.065,1.104 -1.065,1.104 0.039,0.415 -1.217,5.203 -1.217,5.203 2.623,2.509 -0.152,3.837 -0.152,3.837 -1.822,1.445 -15.768,0.647 -15.768,0.647 -2.584,-0.189 -0.531,-2.43 -0.531,-2.43 0.379,-0.116 0.113,-0.837 0.113,-0.837 l -3.914,-14.55 c -0.302,-1.522 0.797,-0.645 0.797,-0.645"
           style="fill:#cfcccd;fill-opacity:1;fill-rule:nonzero;stroke:none"
           id="path6611"
           inkscape:connector-curvature="0" />
      </g>
    </g>
  </g>
</svg>
