<?xml version="1.0" encoding="UTF-8" standalone="no"?>
<!-- Created with Inkscape (http://www.inkscape.org/) -->

<svg
   xmlns:dc="http://purl.org/dc/elements/1.1/"
   xmlns:cc="http://creativecommons.org/ns#"
   xmlns:rdf="http://www.w3.org/1999/02/22-rdf-syntax-ns#"
   xmlns:svg="http://www.w3.org/2000/svg"
   xmlns="http://www.w3.org/2000/svg"
   xmlns:sodipodi="http://sodipodi.sourceforge.net/DTD/sodipodi-0.dtd"
   xmlns:inkscape="http://www.inkscape.org/namespaces/inkscape"
   width="48px"
   height="48px"
   id="svg28083"
   version="1.1"
   inkscape:version="0.48.4 r9939"
   sodipodi:docname="tram.svg">
  <defs
     id="defs28085">
    <clipPath
       clipPathUnits="userSpaceOnUse"
       id="clipPath4901">
      <path
         inkscape:connector-curvature="0"
         d="m 315.748,1648.19 0.773,0 0,-0.63 -0.773,0 0,0.63 z"
         id="path4903" />
    </clipPath>
    <clipPath
       clipPathUnits="userSpaceOnUse"
       id="clipPath4905">
      <path
         inkscape:connector-curvature="0"
         d="m 315.759,1648.18 0.762,0 0,-0.62 -0.762,0 0,0.62 z"
         id="path4907" />
    </clipPath>
    <clipPath
       clipPathUnits="userSpaceOnUse"
       id="clipPath4909">
      <path
         inkscape:connector-curvature="0"
         d="m 315.748,1648.19 0.011,0 0,-0.01 -0.011,0 0,0.01 z"
         id="path4911" />
    </clipPath>
    <clipPath
       clipPathUnits="userSpaceOnUse"
       id="clipPath4857">
      <path
         inkscape:connector-curvature="0"
         d="m 327.146,1644.07 0.45,0 0,-0.02 -0.45,0 0,0.02 z"
         id="path4859" />
    </clipPath>
    <clipPath
       clipPathUnits="userSpaceOnUse"
       id="clipPath4861">
      <path
         inkscape:connector-curvature="0"
         d="m 327.146,1644.07 0.446,0 0,-0.02 -0.446,0 0,0.02 z"
         id="path4863" />
    </clipPath>
    <clipPath
       clipPathUnits="userSpaceOnUse"
       id="clipPath4865">
      <path
         inkscape:connector-curvature="0"
         d="m 327.592,1644.05 0.004,0 0,0 -0.004,0 z"
         id="path4867" />
    </clipPath>
  </defs>
  <sodipodi:namedview
     id="base"
     pagecolor="#ffffff"
     bordercolor="#666666"
     borderopacity="1.0"
     inkscape:pageopacity="0.0"
     inkscape:pageshadow="2"
     inkscape:zoom="7"
     inkscape:cx="26.60379"
     inkscape:cy="24"
     inkscape:current-layer="layer1"
     showgrid="true"
     inkscape:grid-bbox="true"
     inkscape:document-units="px"
     inkscape:window-width="651"
     inkscape:window-height="653"
     inkscape:window-x="1269"
     inkscape:window-y="273"
     inkscape:window-maximized="0" />
  <metadata
     id="metadata28088">
    <rdf:RDF>
      <cc:Work
         rdf:about="">
        <dc:format>image/svg+xml</dc:format>
        <dc:type
           rdf:resource="http://purl.org/dc/dcmitype/StillImage" />
        <dc:title />
      </cc:Work>
    </rdf:RDF>
  </metadata>
  <g
     id="layer1"
     inkscape:label="Layer 1"
     inkscape:groupmode="layer">
    <g
       id="g2996">
      <g
         style="fill:#cfcccd"
         id="g6825"
         transform="matrix(0.99385738,0,0,-0.99385738,30.592236,29.725189)">
        <path
           d="M 0,0 C -0.316,-0.087 -0.674,-0.155 -1.072,-0.205 -1.094,-0.208 -1.115,-0.211 -1.135,-0.212 -1.324,-0.234 -1.521,-0.251 -1.729,-0.263 -1.762,-0.264 -1.795,-0.267 -1.828,-0.268 -2.043,-0.278 -2.264,-0.286 -2.5,-0.287 l -1.363,0 c 0.67,0.454 1.111,1.223 1.111,2.095 0,1.393 -1.129,2.521 -2.521,2.521 l -2.659,0 c -1.392,0 -2.521,-1.128 -2.521,-2.521 0,-0.872 0.443,-1.641 1.113,-2.095 l -0.957,0 c -0.285,-0.023 -0.553,-0.032 -0.807,-0.033 -0.191,0 -0.363,0.009 -0.539,0.02 -0.052,0.004 -0.111,0.003 -0.164,0.006 -0.213,0.018 -0.416,0.044 -0.601,0.079 -0.006,0 -0.01,0 -0.014,0.001 -0.193,0.035 -0.375,0.079 -0.545,0.132 -2.215,0.672 -2.392,2.693 -2.392,4.814 l 0,0.154 17.922,0 0,-0.154 C 2.563,2.542 2.461,0.69 0,0 m -8.082,2.026 c 0,0.793 0.645,1.439 1.439,1.439 0.795,0 1.44,-0.646 1.44,-1.439 0,-0.797 -0.645,-1.44 -1.44,-1.44 -0.794,0 -1.439,0.643 -1.439,1.44 m -2.215,18.944 3.442,0 0,-15.13 -8.504,0 0,10.112 c 0,2.774 2.267,5.018 5.062,5.018 m 12.86,-5.018 0,-10.112 -8.463,0 0,15.13 3.4,0 c 2.793,0 5.063,-2.244 5.063,-5.018 m 2.246,-13.645 0,14.086 c 0,3.477 -2.821,6.297 -6.303,6.297 l -3.279,0 2.115,3.874 c 0.074,0.138 0.09,0.271 0.035,0.3 -0.053,0.03 -0.156,-0.057 -0.229,-0.194 l -2.509,-3.98 -1.965,0 -2.51,3.98 c -0.074,0.137 -0.176,0.224 -0.232,0.194 -0.053,-0.029 -0.034,-0.162 0.039,-0.3 l 2.113,-3.874 -3.281,0 c -3.483,0 -6.303,-2.82 -6.303,-6.297 l 0,-14.086 c 0,-2.106 1.039,-3.965 2.625,-5.11 -0.154,-0.499 -0.246,-1.028 -0.246,-1.578 0,-1.433 0.564,-2.735 1.48,-3.698 l -2.785,-5.105 c -0.107,-0.2 -0.347,-0.713 -0.215,-1.158 l 0.139,-0.34 0.432,-0.221 0.166,0 c 0.568,0 0.949,0.588 1.066,0.806 l 3.002,4.76 c 0.645,-0.271 1.35,-0.422 2.092,-0.422 l 6.639,0 c 0.72,0 1.404,0.144 2.033,0.401 l 2.968,-4.705 c 0.139,-0.252 0.52,-0.84 1.088,-0.84 0.131,0 0.258,0.035 0.364,0.091 l 0.297,0.216 0.076,0.254 c 0.133,0.445 -0.106,0.958 -0.215,1.158 l -2.758,5.057 c 0.939,0.969 1.525,2.289 1.525,3.746 0,0.516 -0.082,1.011 -0.216,1.482 1.66,1.134 2.752,3.043 2.752,5.206"
           style="fill:#cfcccd;fill-opacity:1;fill-rule:nonzero;stroke:none"
           id="path6827"
           inkscape:connector-curvature="0" />
      </g>
    </g>
  </g>
</svg>
