<?xml version="1.0" encoding="UTF-8" standalone="no"?>
<!-- Created with Inkscape (http://www.inkscape.org/) -->

<svg
   xmlns:dc="http://purl.org/dc/elements/1.1/"
   xmlns:cc="http://creativecommons.org/ns#"
   xmlns:rdf="http://www.w3.org/1999/02/22-rdf-syntax-ns#"
   xmlns:svg="http://www.w3.org/2000/svg"
   xmlns="http://www.w3.org/2000/svg"
   xmlns:sodipodi="http://sodipodi.sourceforge.net/DTD/sodipodi-0.dtd"
   xmlns:inkscape="http://www.inkscape.org/namespaces/inkscape"
   width="48px"
   height="48px"
   id="svg3210"
   version="1.1"
   inkscape:version="0.48.4 r9939"
   sodipodi:docname="voie-verte.svg">
  <defs
     id="defs3212" />
  <sodipodi:namedview
     id="base"
     pagecolor="#ffffff"
     bordercolor="#666666"
     borderopacity="1.0"
     inkscape:pageopacity="0.0"
     inkscape:pageshadow="2"
     inkscape:zoom="7"
     inkscape:cx="24"
     inkscape:cy="24"
     inkscape:current-layer="layer1"
     showgrid="true"
     inkscape:grid-bbox="true"
     inkscape:document-units="px"
     inkscape:window-width="605"
     inkscape:window-height="601"
     inkscape:window-x="1315"
     inkscape:window-y="451"
     inkscape:window-maximized="0" />
  <metadata
     id="metadata3215">
    <rdf:RDF>
      <cc:Work
         rdf:about="">
        <dc:format>image/svg+xml</dc:format>
        <dc:type
           rdf:resource="http://purl.org/dc/dcmitype/StillImage" />
        <dc:title />
      </cc:Work>
    </rdf:RDF>
  </metadata>
  <g
     id="layer1"
     inkscape:label="Layer 1"
     inkscape:groupmode="layer">
    <g
       id="g3004">
      <g
         style="fill:#cfcccd"
         transform="matrix(-1.1738953,0,0,-1.25,35.541709,8.0516214)"
         id="g16148">
        <path
           inkscape:connector-curvature="0"
           id="path16150"
           style="fill:#cfcccd;fill-opacity:1;fill-rule:nonzero;stroke:none"
           d="m 0,0 c 0,1.116 -0.908,2.022 -2.023,2.022 -1.12,0 -2.024,-0.906 -2.024,-2.022 0,-1.119 0.904,-2.026 2.024,-2.026 C -0.908,-2.026 0,-1.119 0,0" />
      </g>
      <g
         style="fill:#cfcccd"
         transform="matrix(-1.1738953,0,0,-1.25,29.188493,18.195721)"
         id="g16152">
        <path
           inkscape:connector-curvature="0"
           id="path16154"
           style="fill:#cfcccd;fill-opacity:1;fill-rule:nonzero;stroke:none"
           d="M 0,0 C 0,0 0.287,3.446 -0.539,3.859 -1.365,4.275 -6.982,5.43 -6.982,5.43 l -7.622,-3.984 c 0,0 -0.804,-0.477 -0.474,-0.972 0.332,-0.495 1.199,-0.203 1.199,-0.203 l 4.836,1.626 0.316,-3.488 c 0,0 -2.109,-2.124 -2.437,-2.371 -0.33,-0.248 -1.408,-5.512 -1.408,-5.512 0,0 -0.274,-1.08 0.435,-1.303 0.948,-0.301 1.229,0.371 1.229,0.371 l 1.627,4.806 2.605,2.373 4.17,-6.882 c 0,0 0.594,-1.16 1.473,-0.652 0.76,0.442 0.219,1.447 0.219,1.447 l -3.358,7.391 0.102,4.68 2.343,-0.442 c 0,0 0.069,-1.254 0.19,-2.407 0,0 0.226,-0.586 0.857,-0.544 C -0.139,-0.594 -0.047,-0.363 0,0" />
      </g>
      <g
         style="fill:#cfcccd"
         transform="matrix(1.25,0,0,-1.25,12.205253,41.333021)"
         id="g16156">
        <path
           inkscape:connector-curvature="0"
           id="path16158"
           style="fill:#cfcccd;fill-opacity:1;fill-rule:nonzero;stroke:none"
           d="m 0,0 3.295,7.289 -1.529,0 L -2.143,0 0,0 z" />
      </g>
      <g
         style="fill:#cfcccd"
         transform="matrix(1.25,0,0,-1.25,16.670653,41.333021)"
         id="g16160">
        <path
           inkscape:connector-curvature="0"
           id="path16162"
           style="fill:#cfcccd;fill-opacity:1;fill-rule:nonzero;stroke:none"
           d="m 0,0 2.27,7.289 -1.53,0 L -2.143,0 0,0 z" />
      </g>
      <g
         style="fill:#cfcccd"
         transform="matrix(1.25,0,0,-1.25,21.131053,41.333021)"
         id="g16164">
        <path
           inkscape:connector-curvature="0"
           id="path16166"
           style="fill:#cfcccd;fill-opacity:1;fill-rule:nonzero;stroke:none"
           d="m 0,0 1.248,7.289 -1.529,0 L -2.143,0 0,0 z" />
      </g>
      <g
         style="fill:#cfcccd"
         transform="matrix(1.25,0,0,-1.25,25.598753,41.333021)"
         id="g16168">
        <path
           inkscape:connector-curvature="0"
           id="path16170"
           style="fill:#cfcccd;fill-opacity:1;fill-rule:nonzero;stroke:none"
           d="m 0,0 0.223,7.289 -1.53,0 L -2.145,0 0,0 z" />
      </g>
      <g
         style="fill:#cfcccd"
         transform="matrix(1.25,0,0,-1.25,30.059253,41.333021)"
         id="g16172">
        <path
           inkscape:connector-curvature="0"
           id="path16174"
           style="fill:#cfcccd;fill-opacity:1;fill-rule:nonzero;stroke:none"
           d="m 0,0 -0.797,7.289 -1.531,0 L -2.145,0 0,0 z" />
      </g>
      <g
         style="fill:#cfcccd"
         transform="matrix(1.25,0,0,-1.25,34.522153,41.333021)"
         id="g16176">
        <path
           inkscape:connector-curvature="0"
           id="path16178"
           style="fill:#cfcccd;fill-opacity:1;fill-rule:nonzero;stroke:none"
           d="m 0,0 -1.82,7.289 -1.53,0 L -2.145,0 0,0 z" />
      </g>
      <g
         style="fill:#cfcccd"
         transform="matrix(1.25,0,0,-1.25,39.156053,41.333021)"
         id="g16180">
        <path
           inkscape:connector-curvature="0"
           id="path16182"
           style="fill:#cfcccd;fill-opacity:1;fill-rule:nonzero;stroke:none"
           d="m 0,0 -2.881,7.289 -1.533,0 L -2.148,0 0,0 z" />
      </g>
      <g
         style="fill:#cfcccd"
         transform="matrix(1.25,0,0,-1.25,43.616353,41.333021)"
         id="g16184">
        <path
           inkscape:connector-curvature="0"
           id="path16186"
           style="fill:#cfcccd;fill-opacity:1;fill-rule:nonzero;stroke:none"
           d="m 0,0 -3.902,7.289 -1.532,0 L -2.143,0 0,0 z" />
      </g>
      <g
         style="fill:#cfcccd"
         id="g8463"
         transform="matrix(0.62948869,0,0,-0.62948869,26.51598,31.131774)">
        <path
           d="m 0,0 c -5.078,0 -9.197,4.118 -9.197,9.196 0,2.867 1.31,5.423 3.361,7.109 l 4.914,-7.59 c 0.156,-0.244 0.443,-0.156 0.639,0.198 0.197,0.353 0.228,0.839 0.07,1.084 l -4.566,7.057 c 1.392,0.85 3.029,1.342 4.779,1.342 5.082,0 9.199,-4.119 9.199,-9.2 C 9.199,4.118 5.082,0 0,0 m -14.994,11.849 c -0.27,0.099 -0.559,0.156 -0.861,0.156 -0.372,0 -0.725,-0.083 -1.043,-0.231 l -5.166,8.596 12.757,0 -5.687,-8.521 z m -4.924,-1.547 c -0.328,3.112 -2.033,5.811 -4.494,7.484 l 1.199,1.851 5.295,-8.727 c -0.123,-0.188 -0.223,-0.393 -0.295,-0.608 l -1.705,0 z M -30.234,0 c -5.08,0 -9.2,4.118 -9.2,9.196 0,5.081 4.12,9.2 9.2,9.2 1.459,0 2.839,-0.341 4.066,-0.95 L -30.99,9.997 c -0.158,-0.245 -0.127,-0.731 0.068,-1.084 0.01,-0.017 0.02,-0.033 0.029,-0.05 l 2.039,0 0.297,0 7.512,-0.016 C -21.23,3.931 -25.273,0 -30.234,0 m 5.181,16.794 c 2.137,-1.459 3.625,-3.797 3.949,-6.492 l -8.15,0 4.201,6.492 z M 0,19.574 c -1.984,0 -3.842,-0.561 -5.42,-1.529 l -1.85,2.856 -0.707,1.416 c 0,0 -0.572,1.414 -0.878,1.949 -0.688,1.95 -3.018,2.026 -3.018,2.026 l 0,-0.004 -0.115,0.028 0.021,0.267 -0.263,0.023 -0.022,-0.254 -2.42,0.323 c -0.098,0.012 -0.182,-0.199 -0.189,-0.48 -0.008,-0.273 0.068,-0.508 0.166,-0.522 l 2.353,-0.318 -0.019,-0.218 0.263,-0.021 0.02,0.204 0.23,-0.042 0,-0.003 c 0.008,-0.002 0.018,-0.003 0.03,-0.006 l 0.058,-0.01 c 0.018,-0.002 0.086,-0.015 0.186,-0.035 1.183,-0.268 1.496,-1.11 1.496,-1.11 l 1.01,-2.277 -13.668,0 -0.996,1.957 2.98,0.078 c 0,0 1.141,0.98 -0.814,1.631 -1.955,0.65 -5.051,1.139 -5.051,1.139 0,0 -2.444,0 -2.279,-1.629 0.162,-1.628 1.955,-1.303 1.955,-1.303 l 1.666,0.047 1.402,-2.759 -1.652,-2.556 c -1.414,0.721 -3.014,1.132 -4.709,1.132 -5.733,0 -10.377,-4.646 -10.377,-10.378 0,-5.731 4.644,-10.376 10.377,-10.376 5.611,0 10.179,4.456 10.367,10.024 l 1.623,-0.003 c 0.297,-1.043 1.252,-1.806 2.389,-1.806 1.373,0 2.486,1.111 2.486,2.486 0,0.56 -0.188,1.076 -0.502,1.488 l 5.693,8.919 1.699,-2.628 C -8.854,15.397 -10.375,12.476 -10.375,9.196 -10.375,3.465 -5.73,-1.18 0,-1.18 c 5.732,0 10.377,4.645 10.377,10.376 0,5.732 -4.645,10.378 -10.377,10.378"
           style="fill:#cfcccd;fill-opacity:1;fill-rule:nonzero;stroke:none"
           id="path8465"
           inkscape:connector-curvature="0" />
      </g>
    </g>
  </g>
</svg>
