<?xml version="1.0" encoding="UTF-8" standalone="no"?>
<!-- Created with Inkscape (http://www.inkscape.org/) -->

<svg
   xmlns:dc="http://purl.org/dc/elements/1.1/"
   xmlns:cc="http://creativecommons.org/ns#"
   xmlns:rdf="http://www.w3.org/1999/02/22-rdf-syntax-ns#"
   xmlns:svg="http://www.w3.org/2000/svg"
   xmlns="http://www.w3.org/2000/svg"
   xmlns:sodipodi="http://sodipodi.sourceforge.net/DTD/sodipodi-0.dtd"
   xmlns:inkscape="http://www.inkscape.org/namespaces/inkscape"
   width="48px"
   height="48px"
   id="svg28083"
   version="1.1"
   inkscape:version="0.48.4 r9939"
   sodipodi:docname="voiture_electrique.svg">
  <defs
     id="defs28085" />
  <sodipodi:namedview
     id="base"
     pagecolor="#ffffff"
     bordercolor="#666666"
     borderopacity="1.0"
     inkscape:pageopacity="0.0"
     inkscape:pageshadow="2"
     inkscape:zoom="7"
     inkscape:cx="20.633521"
     inkscape:cy="24"
     inkscape:current-layer="layer1"
     showgrid="true"
     inkscape:grid-bbox="true"
     inkscape:document-units="px"
     inkscape:window-width="651"
     inkscape:window-height="653"
     inkscape:window-x="1269"
     inkscape:window-y="273"
     inkscape:window-maximized="0" />
  <metadata
     id="metadata28088">
    <rdf:RDF>
      <cc:Work
         rdf:about="">
        <dc:format>image/svg+xml</dc:format>
        <dc:type
           rdf:resource="http://purl.org/dc/dcmitype/StillImage" />
        <dc:title />
      </cc:Work>
    </rdf:RDF>
  </metadata>
  <g
     id="layer1"
     inkscape:label="Layer 1"
     inkscape:groupmode="layer">
    <g
       id="g2988">
      <g
         style="fill:#cfcccd"
         id="g4985"
         transform="matrix(1.25,0,0,-1.25,36.465076,37.472269)">
        <path
           d="M 0,0 C -0.59,0 -1.066,0.537 -1.066,1.2 -1.066,1.866 -0.59,2.402 0,2.402 0.588,2.402 1.066,1.866 1.066,1.2 1.066,0.537 0.588,0 0,0 m 0,3.568 c -1.16,0 -2.104,-1.061 -2.104,-2.368 0,-1.306 0.944,-2.366 2.104,-2.366 1.16,0 2.1,1.06 2.1,2.366 0,1.307 -0.94,2.368 -2.1,2.368"
           style="fill:#cfcccd;fill-opacity:1;fill-rule:nonzero;stroke:none"
           id="path4987"
           inkscape:connector-curvature="0" />
      </g>
      <g
         style="fill:#cfcccd"
         id="g4989"
         transform="matrix(1.25,0,0,-1.25,12.468377,37.472269)">
        <path
           d="M 0,0 C -0.59,0 -1.068,0.537 -1.068,1.2 -1.068,1.866 -0.59,2.402 0,2.402 0.588,2.402 1.062,1.866 1.062,1.2 1.062,0.537 0.588,0 0,0 m 0,3.568 c -1.162,0 -2.104,-1.061 -2.104,-2.368 0,-1.306 0.942,-2.366 2.104,-2.366 1.16,0 2.1,1.06 2.1,2.366 0,1.307 -0.94,2.368 -2.1,2.368"
           style="fill:#cfcccd;fill-opacity:1;fill-rule:nonzero;stroke:none"
           id="path4991"
           inkscape:connector-curvature="0" />
      </g>
      <g
         style="fill:#cfcccd"
         id="g4993"
         transform="matrix(1.25,0,0,-1.25,13.408477,24.049399)">
        <path
           d="m 0,0 c 0.594,1.096 1.506,0.991 1.506,0.991 0,0 3.076,0.069 3.547,0.032 C 5.521,0.991 5.492,0.672 5.492,0.672 l 0.219,-3.498 -6.527,0.214 C -1.004,-1.449 0,0 0,0 m 7.094,0.955 c 5.929,0.036 7.34,-2.968 7.34,-2.968 0.527,-1.108 -0.063,-1.04 -0.063,-1.04 L 7.279,-2.826 6.619,0.496 C 6.652,1.06 7.094,0.955 7.094,0.955 M 26.352,4.86 22.885,6.911 23.648,8.204 C 21.418,9.483 18.629,10.268 16.832,8.45 15.504,9.436 6.281,15.755 -3.064,8.658 -11.773,2.047 -6.416,-4.693 -4.77,-6.429 -4.809,-6.508 -4.834,-6.57 -4.834,-6.57 c 0,-3.073 1.381,-2.826 1.381,-2.826 0.185,3.46 2.76,2.967 2.76,2.967 2.449,0.07 2.511,-3.497 2.511,-3.497 l 13.934,0 c 0.346,4.311 3.107,3.639 3.107,3.639 2.45,-0.141 2.133,-3.743 2.133,-3.743 l 1.412,0.139 c 1.287,0.141 1.035,3.144 1.035,3.144 -0.093,0.46 -0.595,1.024 -0.595,1.024 -1.035,2.12 -5.336,3.039 -5.336,3.039 l -4.793,3.294 -0.281,0.155 -0.325,0.146 -0.336,0.13 -0.32,0.09 C 9.082,1.833 0.562,1.73 0.562,1.73 -0.785,1.694 -1.225,0.884 -1.225,0.884 L -3.641,-2.508 C -3.945,-2.835 -4.076,-3.44 -4.129,-4.03 -5.848,-2.062 -8.25,2.306 -1.928,7.254 5.875,13.359 14.256,7.849 15.758,6.764 14.664,4.061 16.752,1.9 19.08,0.481 l 0.764,1.292 3.468,-2.05 c 0.323,-0.191 0.739,-0.085 0.932,0.239 0.192,0.321 0.08,0.738 -0.24,0.929 l -3.469,2.052 1.654,2.799 3.471,-2.051 c 0.32,-0.192 0.738,-0.085 0.932,0.239 0.189,0.322 0.084,0.74 -0.24,0.93"
           style="fill:#cfcccd;fill-opacity:1;fill-rule:nonzero;stroke:none"
           id="path4995"
           inkscape:connector-curvature="0" />
      </g>
    </g>
  </g>
</svg>
