<?xml version="1.0" encoding="UTF-8" standalone="no"?>
<!-- Created with Inkscape (http://www.inkscape.org/) -->

<svg
   xmlns:dc="http://purl.org/dc/elements/1.1/"
   xmlns:cc="http://creativecommons.org/ns#"
   xmlns:rdf="http://www.w3.org/1999/02/22-rdf-syntax-ns#"
   xmlns:svg="http://www.w3.org/2000/svg"
   xmlns="http://www.w3.org/2000/svg"
   xmlns:sodipodi="http://sodipodi.sourceforge.net/DTD/sodipodi-0.dtd"
   xmlns:inkscape="http://www.inkscape.org/namespaces/inkscape"
   width="48px"
   height="48px"
   id="svg28083"
   version="1.1"
   inkscape:version="0.48.4 r9939"
   sodipodi:docname="wifi.svg">
  <defs
     id="defs28085" />
  <sodipodi:namedview
     id="base"
     pagecolor="#ffffff"
     bordercolor="#666666"
     borderopacity="1.0"
     inkscape:pageopacity="0.0"
     inkscape:pageshadow="2"
     inkscape:zoom="7"
     inkscape:cx="24"
     inkscape:cy="24"
     inkscape:current-layer="layer1"
     showgrid="true"
     inkscape:grid-bbox="true"
     inkscape:document-units="px"
     inkscape:window-width="651"
     inkscape:window-height="653"
     inkscape:window-x="1269"
     inkscape:window-y="273"
     inkscape:window-maximized="0" />
  <metadata
     id="metadata28088">
    <rdf:RDF>
      <cc:Work
         rdf:about="">
        <dc:format>image/svg+xml</dc:format>
        <dc:type
           rdf:resource="http://purl.org/dc/dcmitype/StillImage" />
        <dc:title />
      </cc:Work>
    </rdf:RDF>
  </metadata>
  <g
     id="layer1"
     inkscape:label="Layer 1"
     inkscape:groupmode="layer">
    <g
       id="g2990">
      <g
         style="fill:#cfcccd"
         id="g14633"
         transform="matrix(1.25,0,0,-1.25,30.992911,27.759687)">
        <path
           d="m 0,0 c -1.125,1.219 -2.693,2.014 -4.461,2.103 -2.041,0.1 -3.906,-0.758 -5.187,-2.187 -0.014,-0.009 -0.028,-0.021 -0.041,-0.032 -0.022,-0.017 -0.041,-0.034 -0.061,-0.053 -0.418,-0.388 -0.512,-0.966 -0.209,-1.29 l 0.92,-0.993 c 0.301,-0.325 0.885,-0.274 1.303,0.116 0.011,0.009 0.017,0.021 0.033,0.031 l 0,-0.004 c 0.012,0.013 0.021,0.025 0.033,0.039 0.035,0.043 0.07,0.09 0.109,0.131 0.719,0.834 1.786,1.338 2.952,1.28 0.824,-0.042 1.572,-0.355 2.164,-0.855 0.021,-0.034 0.047,-0.066 0.072,-0.097 0.055,-0.066 0.115,-0.126 0.178,-0.179 0.349,-0.294 0.802,-0.352 1.095,-0.115 l 1.057,0.856 c 0.322,0.266 0.328,0.8 0.027,1.234 L 0,0 z"
           style="fill:#cfcccd;fill-opacity:1;fill-rule:nonzero;stroke:none"
           id="path14635"
           inkscape:connector-curvature="0" />
      </g>
      <g
         style="fill:#cfcccd"
         id="g14637"
         transform="matrix(1.25,0,0,-1.25,42.716531,17.427067)">
        <path
           d="m 0,0 c -0.035,0.044 -0.076,0.084 -0.115,0.121 l 0.008,0.01 C -3.402,4.014 -8.186,6.567 -13.609,6.835 -19.014,7.102 -24.002,5.05 -27.664,1.533 -27.707,1.503 -27.75,1.474 -27.787,1.436 -27.818,1.407 -27.848,1.375 -27.873,1.342 -28.209,0.954 -28.225,0.391 -27.891,0.033 l 1.102,-1.185 c 0.322,-0.347 0.861,-0.382 1.271,-0.107 l 0.002,-0.003 c 0.008,0.006 0.016,0.014 0.026,0.022 0.035,0.027 0.074,0.056 0.109,0.089 0.049,0.046 0.094,0.095 0.131,0.147 2.994,2.851 7.064,4.514 11.467,4.297 4.426,-0.221 8.33,-2.297 11.029,-5.458 0.01,-0.015 0.02,-0.03 0.033,-0.046 0.004,-0.003 0.01,-0.009 0.014,-0.014 0.361,-0.429 0.973,-0.514 1.373,-0.186 l 1.246,1.014 C 0.318,-1.067 0.357,-0.441 0,0"
           style="fill:#cfcccd;fill-opacity:1;fill-rule:nonzero;stroke:none"
           id="path14639"
           inkscape:connector-curvature="0" />
      </g>
      <g
         style="fill:#cfcccd"
         id="g14641"
         transform="matrix(1.25,0,0,-1.25,36.598281,22.684567)">
        <path
           d="m 0,0 0.01,0.009 c -2.143,2.434 -5.197,4.027 -8.653,4.197 -3.656,0.182 -7.025,-1.268 -9.431,-3.722 -0.047,-0.031 -0.09,-0.065 -0.133,-0.101 -0.016,-0.016 -0.033,-0.035 -0.049,-0.052 -0.371,-0.388 -0.418,-0.959 -0.096,-1.307 l 1.03,-1.105 c 0.31,-0.338 0.861,-0.341 1.275,-0.025 0.029,0.022 0.061,0.047 0.088,0.071 0.074,0.072 0.139,0.149 0.189,0.231 1.786,1.796 4.27,2.858 6.965,2.724 2.459,-0.122 4.643,-1.216 6.223,-2.897 0.021,-0.032 0.043,-0.063 0.066,-0.094 0.034,-0.039 0.069,-0.076 0.108,-0.112 0.363,-0.344 0.887,-0.409 1.23,-0.131 l 1.158,0.941 c 0.377,0.308 0.393,0.915 0.034,1.357 C 0.01,-0.01 0.004,-0.005 0,0"
           style="fill:#cfcccd;fill-opacity:1;fill-rule:nonzero;stroke:none"
           id="path14643"
           inkscape:connector-curvature="0" />
      </g>
      <g
         style="fill:#cfcccd"
         id="g14645"
         transform="matrix(1.25,0,0,-1.25,25.030911,31.921067)">
        <path
           d="m 0,0 c -1.404,0 -2.547,-1.139 -2.547,-2.547 0,-1.408 1.143,-2.547 2.547,-2.547 1.406,0 2.547,1.139 2.547,2.547 C 2.547,-1.139 1.406,0 0,0"
           style="fill:#cfcccd;fill-opacity:1;fill-rule:nonzero;stroke:none"
           id="path14647"
           inkscape:connector-curvature="0" />
      </g>
    </g>
  </g>
</svg>
