<?xml version="1.0" encoding="UTF-8" standalone="no"?>
<!-- Created with Inkscape (http://www.inkscape.org/) -->

<svg
   xmlns:dc="http://purl.org/dc/elements/1.1/"
   xmlns:cc="http://creativecommons.org/ns#"
   xmlns:rdf="http://www.w3.org/1999/02/22-rdf-syntax-ns#"
   xmlns:svg="http://www.w3.org/2000/svg"
   xmlns="http://www.w3.org/2000/svg"
   xmlns:sodipodi="http://sodipodi.sourceforge.net/DTD/sodipodi-0.dtd"
   xmlns:inkscape="http://www.inkscape.org/namespaces/inkscape"
   version="1.1"
   width="48"
   height="48"
   id="svg28083"
   inkscape:version="0.48.4 r9939"
   sodipodi:docname="zone-urbaine-france.svg">
  <sodipodi:namedview
     pagecolor="#ffffff"
     bordercolor="#666666"
     borderopacity="1"
     objecttolerance="10"
     gridtolerance="10"
     guidetolerance="10"
     inkscape:pageopacity="0"
     inkscape:pageshadow="2"
     inkscape:window-width="1680"
     inkscape:window-height="1026"
     id="namedview28"
     showgrid="false"
     inkscape:zoom="6.9532167"
     inkscape:cx="54.727075"
     inkscape:cy="32.773763"
     inkscape:window-x="1920"
     inkscape:window-y="24"
     inkscape:window-maximized="1"
     inkscape:current-layer="svg28083" />
  <defs
     id="defs28085">
    <clipPath
       id="clipPath4901">
      <path
         d="m 315.748,1648.19 0.773,0 0,-0.63 -0.773,0 0,0.63 z"
         id="path4903" />
    </clipPath>
    <clipPath
       id="clipPath4905">
      <path
         d="m 315.759,1648.18 0.762,0 0,-0.62 -0.762,0 0,0.62 z"
         id="path4907" />
    </clipPath>
    <clipPath
       id="clipPath4909">
      <path
         d="m 315.748,1648.19 0.011,0 0,-0.01 -0.011,0 0,0.01 z"
         id="path4911" />
    </clipPath>
    <clipPath
       id="clipPath4857">
      <path
         d="m 327.146,1644.07 0.45,0 0,-0.02 -0.45,0 0,0.02 z"
         id="path4859" />
    </clipPath>
    <clipPath
       id="clipPath4861">
      <path
         d="m 327.146,1644.07 0.446,0 0,-0.02 -0.446,0 0,0.02 z"
         id="path4863" />
    </clipPath>
    <clipPath
       id="clipPath4865">
      <path
         d="m 327.592,1644.05 0.004,0 0,0 -0.004,0 z"
         id="path4867" />
    </clipPath>
  </defs>
  <metadata
     id="metadata28088">
    <rdf:RDF>
      <cc:Work
         rdf:about="">
        <dc:format>image/svg+xml</dc:format>
        <dc:type
           rdf:resource="http://purl.org/dc/dcmitype/StillImage" />
        <dc:title />
      </cc:Work>
    </rdf:RDF>
  </metadata>
  <g
     transform="matrix(1.2513318,0,0,1.2513318,-379.84528,-619.27651)"
     id="g4"
     style="color:#000000;fill:#cfcccd;fill-opacity:1;fill-rule:nonzero;stroke:none;marker:none;visibility:visible;display:inline;overflow:visible;enable-background:accumulate">
    <g
       id="g6"
       style="color:#000000;fill:#cfcccd;fill-opacity:1;fill-rule:nonzero;stroke:none;marker:none;visibility:visible;display:inline;overflow:visible;enable-background:accumulate">
      <g
         id="g8"
         style="color:#000000;fill:#cfcccd;fill-opacity:1;fill-rule:nonzero;stroke:none;marker:none;visibility:visible;display:inline;overflow:visible;enable-background:accumulate">
        <path
           style="color:#000000;fill:#cfcccd;fill-opacity:1;fill-rule:nonzero;stroke:none;marker:none;visibility:visible;display:inline;overflow:visible;enable-background:accumulate"
           d="M 25.59375 7.65625 L 23.09375 8.90625 L 23.09375 11.40625 L 21.84375 12.65625 L 19.34375 12.65625 L 19.34375 13.90625 L 14.3125 13.90625 L 14.3125 12.65625 L 11.8125 12.65625 L 14.3125 17.65625 L 10.5625 17.65625 L 9.3125 16.40625 L 4.3125 17.65625 L 4.3125 20.15625 L 10.5625 22.65625 L 13.0625 26.40625 L 15.5625 27.65625 L 13.0625 38.9375 L 23.09375 42.6875 L 26.84375 42.6875 L 26.84375 38.9375 L 29.34375 37.6875 L 31.84375 37.6875 L 34.34375 40.1875 L 36.84375 40.1875 L 40.59375 35.15625 L 38.09375 35.15625 L 36.84375 31.40625 L 38.09375 31.40625 L 38.09375 26.40625 L 35.59375 26.40625 L 38.09375 22.65625 L 39.34375 22.65625 L 41.84375 15.15625 L 38.09375 15.15625 L 36.84375 13.90625 L 33.09375 13.90625 L 25.59375 8.90625 L 25.59375 7.65625 z M 27.21875 18.125 L 28.21875 18.4375 L 29.625 18.4375 L 29.625 18.875 L 30.28125 19.0625 L 30.28125 24.71875 L 30.28125 24.90625 L 30.28125 30.8125 L 27.21875 30.8125 L 27.21875 24.90625 L 27.21875 24.71875 L 27.21875 18.125 z M 22.96875 20.125 L 22.96875 21.40625 L 22.90625 21.5625 L 22.375 22.625 L 21.71875 22.625 L 21.71875 23.25 L 22.0625 23.25 L 22.03125 23.3125 L 22.03125 23.875 L 21.71875 23.875 L 21.71875 24.46875 L 22.03125 24.46875 L 22.03125 24.6875 L 21.78125 24.6875 L 21.21875 25.28125 L 21.21875 23.625 L 19.875 23.625 L 19.875 20.875 L 22.96875 20.125 z M 27.8125 20.3125 L 27.8125 20.9375 L 28.4375 20.9375 L 28.4375 20.3125 L 27.8125 20.3125 z M 29.0625 20.3125 L 29.0625 20.9375 L 29.65625 20.9375 L 29.65625 20.3125 L 29.0625 20.3125 z M 20.5 21.40625 L 20.5 22.03125 L 21.09375 22.03125 L 21.09375 21.40625 L 20.5 21.40625 z M 21.71875 21.40625 L 21.71875 22.03125 L 22.34375 22.03125 L 22.34375 21.40625 L 21.71875 21.40625 z M 23.6875 21.5 L 24.3125 21.5 L 24.3125 22.21875 L 24.90625 22.21875 L 25.53125 23.4375 L 25.53125 25.28125 L 26.15625 25.28125 L 26.75 25.90625 L 26.75 30.84375 L 21.21875 30.84375 L 21.21875 25.90625 L 21.84375 25.28125 L 22.46875 25.28125 L 22.46875 23.4375 L 23.0625 22.21875 L 23.6875 22.21875 L 23.6875 21.5 z M 27.8125 21.53125 L 27.8125 22.15625 L 28.4375 22.15625 L 28.4375 21.53125 L 27.8125 21.53125 z M 29.0625 21.53125 L 29.0625 22.15625 L 29.65625 22.15625 L 29.65625 21.53125 L 29.0625 21.53125 z M 20.5 22.625 L 20.5 23.25 L 21.09375 23.25 L 21.09375 22.625 L 20.5 22.625 z M 27.8125 22.78125 L 27.8125 23.375 L 28.4375 23.375 L 28.4375 22.78125 L 27.8125 22.78125 z M 29.0625 22.78125 L 29.0625 23.375 L 29.65625 23.375 L 29.65625 22.78125 L 29.0625 22.78125 z M 23.0625 23.4375 L 23.0625 24.0625 L 23.6875 24.0625 L 23.6875 23.4375 L 23.0625 23.4375 z M 24.3125 23.4375 L 24.3125 24.0625 L 24.90625 24.0625 L 24.90625 23.4375 L 24.3125 23.4375 z M 27.8125 24 L 27.8125 24.625 L 28.4375 24.625 L 28.4375 24 L 27.8125 24 z M 29.0625 24 L 29.0625 24.625 L 29.65625 24.625 L 29.65625 24 L 29.0625 24 z M 17.71875 24.03125 L 20.78125 24.03125 L 20.78125 30.8125 L 17.71875 30.8125 L 17.71875 24.03125 z M 23.0625 24.6875 L 23.0625 25.28125 L 23.6875 25.28125 L 23.6875 24.6875 L 23.0625 24.6875 z M 24.3125 24.6875 L 24.3125 25.28125 L 24.90625 25.28125 L 24.90625 24.6875 L 24.3125 24.6875 z M 18.3125 25.28125 L 18.3125 25.875 L 18.9375 25.875 L 18.9375 25.28125 L 18.3125 25.28125 z M 19.5625 25.28125 L 19.5625 25.875 L 20.1875 25.875 L 20.1875 25.28125 L 19.5625 25.28125 z M 27.8125 25.28125 L 27.8125 25.90625 L 28.4375 25.90625 L 28.4375 25.28125 L 27.8125 25.28125 z M 29.0625 25.28125 L 29.0625 25.90625 L 29.65625 25.90625 L 29.65625 25.28125 L 29.0625 25.28125 z M 30.71875 25.28125 L 33.8125 25.28125 L 33.8125 30.8125 L 30.71875 30.8125 L 30.71875 25.28125 z M 18.3125 26.5 L 18.3125 27.125 L 18.9375 27.125 L 18.9375 26.5 L 18.3125 26.5 z M 19.5625 26.5 L 19.5625 27.125 L 20.1875 27.125 L 20.1875 26.5 L 19.5625 26.5 z M 27.8125 26.5 L 27.8125 27.125 L 28.4375 27.125 L 28.4375 26.5 L 27.8125 26.5 z M 29.0625 26.5 L 29.0625 27.125 L 29.65625 27.125 L 29.65625 26.5 L 29.0625 26.5 z M 22.46875 26.53125 L 22.46875 27.15625 L 23.0625 27.15625 L 23.0625 26.53125 L 22.46875 26.53125 z M 23.6875 26.53125 L 23.6875 27.15625 L 24.3125 27.15625 L 24.3125 26.53125 L 23.6875 26.53125 z M 24.90625 26.53125 L 24.90625 27.15625 L 25.53125 27.15625 L 25.53125 26.53125 L 24.90625 26.53125 z M 31.34375 26.53125 L 31.34375 27.125 L 31.9375 27.125 L 31.9375 26.53125 L 31.34375 26.53125 z M 32.5625 26.53125 L 32.5625 27.125 L 33.1875 27.125 L 33.1875 26.53125 L 32.5625 26.53125 z M 18.3125 27.71875 L 18.3125 28.34375 L 18.9375 28.34375 L 18.9375 27.71875 L 18.3125 27.71875 z M 19.5625 27.71875 L 19.5625 28.34375 L 20.1875 28.34375 L 20.1875 27.71875 L 19.5625 27.71875 z M 22.46875 27.75 L 22.46875 28.375 L 23.0625 28.375 L 23.0625 27.75 L 22.46875 27.75 z M 23.6875 27.75 L 23.6875 28.375 L 24.3125 28.375 L 24.3125 27.75 L 23.6875 27.75 z M 24.90625 27.75 L 24.90625 28.375 L 25.53125 28.375 L 25.53125 27.75 L 24.90625 27.75 z M 27.8125 27.75 L 27.8125 28.34375 L 28.4375 28.34375 L 28.4375 27.75 L 27.8125 27.75 z M 29.0625 27.75 L 29.0625 28.34375 L 29.65625 28.34375 L 29.65625 27.75 L 29.0625 27.75 z M 31.34375 27.75 L 31.34375 28.375 L 31.9375 28.375 L 31.9375 27.75 L 31.34375 27.75 z M 32.5625 27.75 L 32.5625 28.375 L 33.1875 28.375 L 33.1875 27.75 L 32.5625 27.75 z M 18.3125 28.96875 L 18.3125 29.59375 L 18.9375 29.59375 L 18.9375 28.96875 L 18.3125 28.96875 z M 19.5625 28.96875 L 19.5625 29.59375 L 20.1875 29.59375 L 20.1875 28.96875 L 19.5625 28.96875 z M 27.8125 28.96875 L 27.8125 29.59375 L 28.4375 29.59375 L 28.4375 28.96875 L 27.8125 28.96875 z M 29.0625 28.96875 L 29.0625 29.59375 L 29.65625 29.59375 L 29.65625 28.96875 L 29.0625 28.96875 z M 31.34375 28.96875 L 31.34375 29.59375 L 31.9375 29.59375 L 31.9375 28.96875 L 31.34375 28.96875 z M 32.5625 28.96875 L 32.5625 29.59375 L 33.1875 29.59375 L 33.1875 28.96875 L 32.5625 28.96875 z M 22.46875 29 L 22.46875 29.59375 L 23.0625 29.59375 L 23.0625 29 L 22.46875 29 z M 23.6875 29 L 23.6875 29.59375 L 24.3125 29.59375 L 24.3125 29 L 23.6875 29 z M 24.90625 29 L 24.90625 29.59375 L 25.53125 29.59375 L 25.53125 29 L 24.90625 29 z "
           transform="matrix(0.79914856,0,0,0.79914856,303.55281,494.89393)"
           id="path10" />
      </g>
      <polygon
         points="340,527 339,524 342,523 342,528 "
         id="polygon12"
         style="color:#000000;fill:#cfcccd;fill-opacity:1;fill-rule:nonzero;stroke:none;marker:none;visibility:visible;display:inline;overflow:visible;enable-background:accumulate" />
    </g>
  </g>
</svg>
