<?xml version="1.0" encoding="UTF-8" standalone="no"?>
<!-- Created with Inkscape (http://www.inkscape.org/) -->

<svg
   xmlns:dc="http://purl.org/dc/elements/1.1/"
   xmlns:cc="http://creativecommons.org/ns#"
   xmlns:rdf="http://www.w3.org/1999/02/22-rdf-syntax-ns#"
   xmlns:svg="http://www.w3.org/2000/svg"
   xmlns="http://www.w3.org/2000/svg"
   version="1.1"
   width="48"
   height="48"
   id="svg28083">
  <defs
     id="defs28085">
    <clipPath
       id="clipPath4901">
      <path
         d="m 315.748,1648.19 0.773,0 0,-0.63 -0.773,0 0,0.63 z"
         id="path4903" />
    </clipPath>
    <clipPath
       id="clipPath4905">
      <path
         d="m 315.759,1648.18 0.762,0 0,-0.62 -0.762,0 0,0.62 z"
         id="path4907" />
    </clipPath>
    <clipPath
       id="clipPath4909">
      <path
         d="m 315.748,1648.19 0.011,0 0,-0.01 -0.011,0 0,0.01 z"
         id="path4911" />
    </clipPath>
    <clipPath
       id="clipPath4857">
      <path
         d="m 327.146,1644.07 0.45,0 0,-0.02 -0.45,0 0,0.02 z"
         id="path4859" />
    </clipPath>
    <clipPath
       id="clipPath4861">
      <path
         d="m 327.146,1644.07 0.446,0 0,-0.02 -0.446,0 0,0.02 z"
         id="path4863" />
    </clipPath>
    <clipPath
       id="clipPath4865">
      <path
         d="m 327.592,1644.05 0.004,0 0,0 -0.004,0 z"
         id="path4867" />
    </clipPath>
  </defs>
  <metadata
     id="metadata28088">
    <rdf:RDF>
      <cc:Work
         rdf:about="">
        <dc:format>image/svg+xml</dc:format>
        <dc:type
           rdf:resource="http://purl.org/dc/dcmitype/StillImage" />
        <dc:title></dc:title>
      </cc:Work>
    </rdf:RDF>
  </metadata>
  <g
     transform="matrix(0.47862474,0,0,0.47862474,59.318068,25.000023)"
     id="g3026"
     style="color:#000000;fill:#4f4c4d;fill-opacity:1;fill-rule:nonzero;stroke:none;stroke-width:1.82050085;marker:none;visibility:visible;display:inline;overflow:visible;enable-background:accumulate">
    <path
       d="m -53.386119,29.486127 c 0,-8.752 26.259,-7.658 26.259,-16.411 0,-10.9409995 -56.894,-10.9409995 -56.894,-18.5999995 0,-5.4710005 16.412,-8.7530005 16.412,-8.7530005 0,0 -48.142001,3.283 -48.142001,10.9410005 0,15.3169995 54.706001,13.315 54.706001,19.6939995 0,4.376 -14.223,4.376 -14.223,10.941 0,12.036 48.141,15.318 48.141,15.318 0,0 -26.259,-7.659 -26.259,-13.13 z m 10.208,-21.8809995 c 3.359,0 6.083,0.82 6.083,1.827 0,0.6669995 -1.182,1.2469995 -2.953,1.5639995 l -3.13,-1.5639995 1.75,1.7499995 c -0.558,0.044 -1.138,0.066 -1.75,0.066 -3.349,0 -6.072,-0.811 -6.072,-1.8159995 0,-1.007 2.724,-1.827 6.072,-1.827 z m -5.164,3.5229995 c 2.188,0 3.949,0.678 3.949,1.521 0,0.842 -1.761,1.521 -3.949,1.521 -0.897,0 -1.74,-0.121 -2.396,-0.317 l 3.009,-1.51 -4.289,0.864 c -0.186,-0.175 -0.273,-0.371 -0.273,-0.558 -10e-4,-0.843 1.771,-1.521 3.949,-1.521 z"
       id="path4"
       style="color:#000000;fill:#4f4c4d;fill-opacity:1;fill-rule:nonzero;stroke:none;stroke-width:1.82050085;marker:none;visibility:visible;display:inline;overflow:visible;enable-background:accumulate" />
    <path
       d="m -52.817119,1.7071275 c -1.082,-0.175 -2.177,-0.361 -3.282,-0.536 0.525,-4.508 -0.568,-6.696 -1.663,-11.072 -0.798,-3.1930005 -5.809,-11.6580005 -8.753,-13.1290005 4.377,2.188 8.957,7.76 10.941,12.035 1.843,3.9700005 2.504,8.2880005 2.757,12.7020005 -1.082,-0.175 -0.011,-0.186 0,0 z"
       id="path6"
       style="color:#000000;fill:#4f4c4d;fill-opacity:1;fill-rule:nonzero;stroke:none;stroke-width:1.82050085;marker:none;visibility:visible;display:inline;overflow:visible;enable-background:accumulate" />
    <path
       d="m -39.162119,-16.465873 c -3.006,1.213 -5.784,3.399 -7.352,6.261 -2.16,3.9440005 -1.225,8.4610005 -1.456,12.7440005 -0.679,-0.121 -1.378,-0.241 -2.079,-0.361 0.225,-4.538 -0.792,-9.017 1.772,-13.1180005 1.926,-3.08 5.473,-5.275 9.115,-5.526 z"
       id="path8"
       style="color:#000000;fill:#4f4c4d;fill-opacity:1;fill-rule:nonzero;stroke:none;stroke-width:1.82050085;marker:none;visibility:visible;display:inline;overflow:visible;enable-background:accumulate" />
    <path
       d="m -43.474119,-31.991873 c 0.547,0.394 0.745,1.138 0.438,1.783 l -2.834,5.799 c -0.252,0.503 -0.732,0.798 -1.259,0.809 -0.776,2.002 -1.543,4.202 -2.134,6.554 -0.24,0.864 -0.415,1.739 -0.602,2.636 -0.131,0.908 -0.273,1.838 -0.426,2.769 -0.22,1.8490005 -0.405,3.7420005 -0.449,5.6350005 -0.098,2.746 -0.021,5.49199997 0.328,8.118 -0.35,-0.055 -0.689,-0.12 -1.039,-0.175 -0.011,-0.065 -0.021,-0.131 -0.032,-0.196 0.011,0.054 0,0.12 -0.011,0.186 -0.307,-0.043 -0.613,-0.098 -0.931,-0.153 0.033,-0.394 0.055,-0.78700003 0.055,-1.19200003 0.109,-3.55599997 -0.405,-7.34099997 -1.247,-11.04000047 -0.405,-1.86 -0.941,-3.687 -1.499,-5.459 -0.317,-0.887 -0.624,-1.762 -0.941,-2.637 -0.339,-0.842 -0.678,-1.674 -1.072,-2.473 -0.426,-0.908 -0.875,-1.794 -1.334,-2.637 -0.044,0.011 -0.077,0.011 -0.121,0.011 -0.58,0 -1.148,-0.285 -1.499,-0.799 l -4.573,-6.751 c -0.448,-0.646 -0.404,-1.477 0.021,-2.079 -0.514,-0.711 -0.974,-1.346 -1.378,-1.871 -0.767,-1.028 -1.303,-1.718 -1.51,-1.98 0.328,0.329 1.488,1.597 3.117,3.6 0.066,-0.065 0.143,-0.131 0.23,-0.186 0.307,-0.208 0.667,-0.306 1.018,-0.306 0.579,0 1.149,0.274 1.499,0.788 l 4.573,6.75 c 0.558,0.832 0.351,1.959 -0.481,2.517 -0.032,0.022 -0.055,0.044 -0.088,0.054 0.472,0.799 0.92,1.62 1.357,2.484 0.415,0.81 0.776,1.663 1.138,2.538 0.328,0.864 0.646,1.751 0.974,2.637 0.613,1.816 1.182,3.676 1.619,5.558 0.361,1.4000005 0.591,2.8230005 0.777,4.2340005 0.087,-1.794 0.296,-3.5780005 0.525,-5.3400005 0.152,-0.93 0.306,-1.859 0.459,-2.778 0.197,-0.919 0.394,-1.828 0.646,-2.703 0.679,-2.342 1.51,-4.508 2.352,-6.467 -0.71,-0.361 -0.994,-1.214 -0.645,-1.915 l 2.833,-5.81 c 0.252,-0.503 0.767,-0.799 1.292,-0.799 0.219,0 0.427,0.044 0.635,0.143 0,0 0.011,0 0.011,0.011 0.897,-1.586 1.51,-2.56 1.651,-2.779 -0.087,0.175 -0.503,0.996 -1.148,2.32 -0.087,0.187 -0.184,0.383 -0.295,0.591 z"
       id="path10"
       style="color:#000000;fill:#4f4c4d;fill-opacity:1;fill-rule:nonzero;stroke:none;stroke-width:1.82050085;marker:none;visibility:visible;display:inline;overflow:visible;enable-background:accumulate" />
    <path
       d="m -30.301119,43.569127 c -10.02,-0.822 -47.156,-4.618 -47.156,-16.259 0,-4.377 4.935,-6.226 8.895,-7.725 2.495,-0.941 5.329,-2.002 5.329,-3.217 0,-1.554 -11.083,-3.151 -17.714,-4.104 -16.477,-2.3729995 -36.992001,-5.3259995 -36.992001,-15.5899995 0,-7.6040005 33.578001,-10.8750005 47.015001,-11.8820005 0,0 -10.92,0.241 -22.944,2.024 -22.298001,3.2940005 -26.259001,7.6590005 -26.259001,9.8580005 0,9.836 21.171001,13.7739995 39.388001,16.4009995 4.585,0.656 11.915,1.313 15.318,2.188 -0.656,0.264 4.376,1.095 -2.188,3.283 -4.404,1.468 -12.035,2.877 -12.035,8.764 0,6.979 9.114,10.689 27.353,14.213 12.102,2.341 24.071,2.526 24.071,2.526 l -2.081,-0.48 z"
       id="path12"
       style="color:#000000;fill:#4f4c4d;fill-opacity:1;fill-rule:nonzero;stroke:none;stroke-width:1.82050085;marker:none;visibility:visible;display:inline;overflow:visible;enable-background:accumulate" />
  </g>
</svg>
